999
dxfrw 0.6.3
  0
SECTION
  2
HEADER
  9
$ACADVER
  1
AC1009
  9
$DWGCODEPAGE
  3
ANSI_1252
  9
$INSBASE
 10
0
 20
0
 30
0
  9
$EXTMIN
 10
1e+20
 20
1e+20
 30
1e+20
  9
$EXTMAX
 10
-1e+20
 20
-1e+20
 30
-1e+20
  9
$LIMMIN
 10
0
 20
0
  9
$LIMMAX
 10
420
 20
297
  9
$ORTHOMODE
 70
    0
  9
$REGENMODE
 70
    1
  9
$FILLMODE
 70
    1
  9
$QTEXTMODE
 70
    0
  9
$MIRRTEXT
 70
    0
  9
$LTSCALE
 40
1
  9
$ATTMODE
 70
    0
  9
$TEXTSIZE
 40
2.5
  9
$TRACEWID
 40
15.68
  9
$TEXTSTYLE
  7
STANDARD
  9
$CLAYER
  8
1
  9
$CELTYPE
  6
BYLAYER
  9
$CECOLOR
 62
  256
  9
$DIMSCALE
 40
1
  9
$DIMASZ
 40
2.5
  9
$DIMEXO
 40
0.625
  9
$DIMDLI
 40
3.75
  9
$DIMRND
 40
0
  9
$DIMDLE
 40
0
  9
$DIMEXE
 40
1.25
  9
$DIMTP
 40
0
  9
$DIMTM
 40
0
  9
$DIMTXT
 40
2.5
  9
$DIMCEN
 40
2.5
  9
$DIMTSZ
 40
0
  9
$DIMTOL
 70
    0
  9
$DIMLIM
 70
    0
  9
$DIMTIH
 70
    0
  9
$DIMTOH
 70
    0
  9
$DIMSE1
 70
    0
  9
$DIMSE2
 70
    0
  9
$DIMTAD
 70
    1
  9
$DIMZIN
 70
    8
  9
$DIMBLK
  1

  9
$DIMASO
 70
    1
  9
$DIMSHO
 70
    1
  9
$DIMPOST
  1

  9
$DIMAPOST
  1

  9
$DIMALT
 70
    0
  9
$DIMALTD
 70
    3
  9
$DIMALTF
 40
0.03937
  9
$DIMLFAC
 40
1
  9
$DIMTOFL
 70
    1
  9
$DIMTVP
 40
0
  9
$DIMTIX
 70
    0
  9
$DIMSOXD
 70
    0
  9
$DIMSAH
 70
    0
  9
$DIMBLK1
  1

  9
$DIMBLK2
  1

  9
$DIMSTYLE
  2
STANDARD
  9
$DIMCLRD
 70
    0
  9
$DIMCLRE
 70
    0
  9
$DIMCLRT
 70
    0
  9
$DIMTFAC
 40
1
  9
$DIMGAP
 40
0.625
  9
$LUNITS
 70
    2
  9
$LUPREC
 70
    4
  9
$SKETCHINC
 40
1
  9
$FILLETRAD
 40
0
  9
$AUNITS
 70
    0
  9
$AUPREC
 70
    2
  9
$MENU
  1
.
  9
$ELEVATION
 40
0
  9
$PELEVATION
 40
0
  9
$THICKNESS
 40
0
  9
$LIMCHECK
 70
    0
  9
$BLIPMODE
 70
    0
  9
$CHAMFERA
 40
0
  9
$CHAMFERB
 40
0
  9
$SKPOLY
 70
    0
  9
$USRTIMER
 70
    1
  9
$ANGBASE
 50
0
  9
$ANGDIR
 70
    0
  9
$PDMODE
 70
   34
  9
$PDSIZE
 40
0
  9
$PLINEWID
 40
0
  9
$COORDS
 70
    2
  9
$SPLFRAME
 70
    0
  9
$SPLINETYPE
 70
    2
  9
$SPLINESEGS
 70
    8
  9
$ATTDIA
 70
    1
  9
$ATTREQ
 70
    1
  9
$HANDLING
 70
    1
  9
$HANDSEED
  5
20000
  9
$SURFTAB1
 70
    6
  9
$SURFTAB2
 70
    6
  9
$SURFTYPE
 70
    6
  9
$SURFU
 70
    6
  9
$SURFV
 70
    6
  9
$TDCREATE
 40
20260325.10330332
  9
$UCSNAME
  2

  9
$UCSORG
 10
0
 20
0
 30
0
  9
$UCSXDIR
 10
1
 20
0
 30
0
  9
$UCSYDIR
 10
0
 20
1
 30
0
  9
$PUCSNAME
  2

  9
$PUCSORG
 10
0
 20
0
 30
0
  9
$PUCSXDIR
 10
1
 20
0
 30
0
  9
$PUCSYDIR
 10
0
 20
1
 30
0
  9
$USERI1
 70
    0
  9
$USERI2
 70
    0
  9
$USERI3
 70
    0
  9
$USERI4
 70
    0
  9
$USERI5
 70
    0
  9
$USERR1
 40
0
  9
$USERR2
 40
0
  9
$USERR3
 40
0
  9
$USERR4
 40
0
  9
$USERR5
 40
0
  9
$WORLDVIEW
 70
    1
  9
$SHADEDGE
 70
    3
  9
$SHADEDIF
 70
   70
  9
$TILEMODE
 70
    1
  9
$MAXACTVP
 70
   64
  9
$PLIMCHECK
 70
    0
  9
$PEXTMIN
 10
0
 20
0
 30
0
  9
$PEXTMAX
 10
0
 20
0
 30
0
  9
$PLIMMIN
 10
0
 20
0
  9
$PLIMMAX
 10
297
 20
210
  9
$UNITMODE
 70
    0
  9
$VISRETAIN
 70
    1
  9
$PLINEGEN
 70
    0
  9
$PSLTSCALE
 70
    1
  0
ENDSEC
  0
SECTION
  2
TABLES
  0
TABLE
  2
VPORT
 70
    1
  0
VPORT
  2
*ACTIVE
 70
    0
 10
0
 20
0
 11
1
 21
1
 12
0.651828
 22
-0.16
 13
0
 23
0
 14
10
 24
10
 15
10
 25
10
 16
0
 26
0
 36
1
 17
0
 27
0
 37
0
 40
5.13732
 41
2.4426877
 42
50
 43
0
 44
0
 50
0
 51
0
 71
    0
 72
  100
 73
    1
 74
    3
 75
    0
 76
    0
 77
    0
 78
    0
  0
ENDTAB
  0
TABLE
  2
LTYPE
 70
    4
  0
LTYPE
  2
BYBLOCK
 70
    0
  3

 72
   65
 73
    0
 40
0
  0
LTYPE
  2
BYLAYER
 70
    0
  3

 72
   65
 73
    0
 40
0
  0
LTYPE
  2
CONTINUOUS
 70
    0
  3
Solid line
 72
   65
 73
    0
 40
0
  0
ENDTAB
  0
TABLE
  2
LAYER
 70
    1
  0
LAYER
  2
1
 70
    0
 62
  250
  6
CONTINUOUS
  0
LAYER
  2
8
 70
    0
 62
  250
  6
CONTINUOUS
  0
LAYER
  2
7
 70
    0
 62
  250
  6
CONTINUOUS
  0
LAYER
  2
11
 70
    0
 62
  250
  6
CONTINUOUS
  0
LAYER
  2
4
 70
    0
 62
  250
  6
CONTINUOUS
  0
ENDTAB
  0
TABLE
  2
STYLE
 70
    3
  0
STYLE
  2
STANDARD
 70
    0
 40
0
 41
1
 50
0
 71
    0
 42
2.5
  3
TXT
  4

  0
ENDTAB
  0
TABLE
  2
VIEW
 70
    0
  0
ENDTAB
  0
TABLE
  2
UCS
 70
    0
  0
ENDTAB
  0
TABLE
  2
APPID
 70
    1
  0
APPID
  2
ACAD
 70
    0
  0
APPID
  2
SEAMLY2D
 70
    0
  0
ENDTAB
  0
TABLE
  2
DIMSTYLE
 70
    1
  0
DIMSTYLE
  2
STANDARD
 70
    0
  3

  4

  5

  6

  7

 40
1
 41
2.5
 42
0.625
 43
3.75
 44
1.25
 45
0
 46
0
 47
0
 48
0
140
2.5
141
2.5
142
0
143
0.03937007874015748
144
1
145
0
146
1
147
0.625
 71
    0
 72
    0
 73
    0
 74
    0
 75
    0
 76
    0
 77
    1
 78
    8
170
    0
171
    3
172
    1
173
    0
174
    0
175
    0
176
    0
177
    0
178
    0
  0
ENDTAB
  0
ENDSEC
  0
SECTION
  2
BLOCKS
  0
BLOCK
  8
0
  2
$MODEL_SPACE
 70
    0
 10
0
 20
0
 30
0
  3
$MODEL_SPACE
  1

  0
ENDBLK
  8
0
  0
BLOCK
  8
0
  2
$PAPER_SPACE
 70
    0
 10
0
 20
0
 30
0
  3
$PAPER_SPACE
  1

  0
ENDBLK
  8
0
  0
BLOCK
  8
1
  2
SWEATSHIRT_BACK
 70
    0
 10
0
 20
0
  3
SWEATSHIRT_BACK
  1

  0
POLYLINE
  5
31
  8
1
  6
BYLAYER
 62
  256
 66
    1
 10
0
 20
0
 30
0
 70
    1
  0
VERTEX
  5
32
  8
1
  6
BYLAYER
 62
  256
 10
903.0229166666667
 20
2260.864583333333
 30
0
  0
VERTEX
  5
33
  8
1
  6
BYLAYER
 62
  256
 10
903.0229166666667
 20
2083.889583333333
 30
0
  0
VERTEX
  5
34
  8
1
  6
BYLAYER
 62
  256
 10
903.0229166666667
 20
1944.899851761883
 30
0
  0
VERTEX
  5
35
  8
1
  6
BYLAYER
 62
  256
 10
894.0305412514878
 20
1944.860883747476
 30
0
  0
VERTEX
  5
36
  8
1
  6
BYLAYER
 62
  256
 10
890.1130394338493
 20
1944.757389347012
 30
0
  0
VERTEX
  5
37
  8
1
  6
BYLAYER
 62
  256
 10
886.3471831442615
 20
1944.554076981831
 30
0
  0
VERTEX
  5
38
  8
1
  6
BYLAYER
 62
  256
 10
882.7156870984959
 20
1944.253457294153
 30
0
  0
VERTEX
  5
39
  8
1
  6
BYLAYER
 62
  256
 10
879.2163398618676
 20
1943.858470358705
 30
0
  0
VERTEX
  5
3A
  8
1
  6
BYLAYER
 62
  256
 10
875.8468266097891
 20
1943.372075073637
 30
0
  0
VERTEX
  5
3B
  8
1
  6
BYLAYER
 62
  256
 10
872.6047164037852
 20
1942.797236077069
 30
0
  0
VERTEX
  5
3C
  8
1
  6
BYLAYER
 62
  256
 10
869.4874508828822
 20
1942.136907428126
 30
0
  0
VERTEX
  5
3D
  8
1
  6
BYLAYER
 62
  256
 10
866.4923353475003
 20
1941.394013095731
 30
0
  0
VERTEX
  5
3E
  8
1
  6
BYLAYER
 62
  256
 10
863.6165333182146
 20
1940.571424560794
 30
0
  0
VERTEX
  5
3F
  8
1
  6
BYLAYER
 62
  256
 10
860.8570656801427
 20
1939.671936156635
 30
0
  0
VERTEX
  5
40
  8
1
  6
BYLAYER
 62
  256
 10
858.2108154438356
 20
1938.6982391262
 30
0
  0
VERTEX
  5
41
  8
1
  6
BYLAYER
 62
  256
 10
855.6745389393587
 20
1937.652895725701
 30
0
  0
VERTEX
  5
42
  8
1
  6
BYLAYER
 62
  256
 10
853.2448839000183
 20
1936.538315002651
 30
0
  0
VERTEX
  5
43
  8
1
  6
BYLAYER
 62
  256
 10
850.918414395366
 20
1935.356732063557
 30
0
  0
VERTEX
  5
44
  8
1
  6
BYLAYER
 62
  256
 10
848.6916419766202
 20
1934.110192667274
 30
0
  0
VERTEX
  5
45
  8
1
  6
BYLAYER
 62
  256
 10
846.5610617653163
 20
1932.800544793138
 30
0
  0
VERTEX
  5
46
  8
1
  6
BYLAYER
 62
  256
 10
844.5231916331603
 20
1931.429438425862
 30
0
  0
VERTEX
  5
47
  8
1
  6
BYLAYER
 62
  256
 10
842.5746121796332
 20
1929.998334196248
 30
0
  0
VERTEX
  5
48
  8
1
  6
BYLAYER
 62
  256
 10
840.712004994782
 20
1928.508520781902
 30
0
  0
VERTEX
  5
49
  8
1
  6
BYLAYER
 62
  256
 10
838.9321867477707
 20
1926.961140199978
 30
0
  0
VERTEX
  5
4A
  8
1
  6
BYLAYER
 62
  256
 10
837.2321369731382
 20
1925.357219423591
 30
0
  0
VERTEX
  5
4B
  8
1
  6
BYLAYER
 62
  256
 10
835.6090179937755
 20
1923.697706225544
 30
0
  0
VERTEX
  5
4C
  8
1
  6
BYLAYER
 62
  256
 10
834.0752144053963
 20
1922.000139690147
 30
0
  0
VERTEX
  5
4D
  8
1
  6
BYLAYER
 62
  256
 10
831.8753028676226
 20
1919.332281173635
 30
0
  0
VERTEX
  5
4E
  8
1
  6
BYLAYER
 62
  256
 10
829.1822323506013
 20
1915.568351323119
 30
0
  0
VERTEX
  5
4F
  8
1
  6
BYLAYER
 62
  256
 10
826.761118307168
 20
1911.622029783174
 30
0
  0
VERTEX
  5
50
  8
1
  6
BYLAYER
 62
  256
 10
824.585506497649
 20
1907.485432238592
 30
0
  0
VERTEX
  5
51
  8
1
  6
BYLAYER
 62
  256
 10
822.6432727400867
 20
1903.170837248756
 30
0
  0
VERTEX
  5
52
  8
1
  6
BYLAYER
 62
  256
 10
820.9228984751198
 20
1898.692365526452
 30
0
  0
VERTEX
  5
53
  8
1
  6
BYLAYER
 62
  256
 10
819.4129525986745
 20
1894.065722802349
 30
0
  0
VERTEX
  5
54
  8
1
  6
BYLAYER
 62
  256
 10
818.101743302101
 20
1889.307863889743
 30
0
  0
VERTEX
  5
55
  8
1
  6
BYLAYER
 62
  256
 10
816.9771193873859
 20
1884.436652397654
 30
0
  0
VERTEX
  5
56
  8
1
  6
BYLAYER
 62
  256
 10
816.0263843720981
 20
1879.470558425244
 30
0
  0
VERTEX
  5
57
  8
1
  6
BYLAYER
 62
  256
 10
815.2362858799702
 20
1874.428411269447
 30
0
  0
VERTEX
  5
58
  8
1
  6
BYLAYER
 62
  256
 10
814.593049390003
 20
1869.329208067589
 30
0
  0
VERTEX
  5
59
  8
1
  6
BYLAYER
 62
  256
 10
814.0824339489876
 20
1864.191970924931
 30
0
  0
VERTEX
  5
5A
  8
1
  6
BYLAYER
 62
  256
 10
813.6906085971079
 20
1859.046324725369
 30
0
  0
VERTEX
  5
5B
  8
1
  6
BYLAYER
 62
  256
 10
813.279448373434
 20
1851.303227326856
 30
0
  0
VERTEX
  5
5C
  8
1
  6
BYLAYER
 62
  256
 10
813.0197111755218
 20
1841.088888321385
 30
0
  0
VERTEX
  5
5D
  8
1
  6
BYLAYER
 62
  256
 10
812.9543276082114
 20
1831.137565623938
 30
0
  0
VERTEX
  5
5E
  8
1
  6
BYLAYER
 62
  256
 10
812.9543276082114
 20
1826.355652191885
 30
0
  0
VERTEX
  5
5F
  8
1
  6
BYLAYER
 62
  256
 10
812.9765412721899
 20
1822.665508304505
 30
0
  0
VERTEX
  5
60
  8
1
  6
BYLAYER
 62
  256
 10
813.2322523562931
 20
1814.958633853603
 30
0
  0
VERTEX
  5
61
  8
1
  6
BYLAYER
 62
  256
 10
813.7197607498094
 20
1806.9606107898
 30
0
  0
VERTEX
  5
62
  8
1
  6
BYLAYER
 62
  256
 10
814.4158744499338
 20
1798.730629022186
 30
0
  0
VERTEX
  5
63
  8
1
  6
BYLAYER
 62
  256
 10
815.2959224495523
 20
1790.346975161034
 30
0
  0
VERTEX
  5
64
  8
1
  6
BYLAYER
 62
  256
 10
816.3347787721327
 20
1781.886564839758
 30
0
  0
VERTEX
  5
65
  8
1
  6
BYLAYER
 62
  256
 10
817.5070448533363
 20
1773.425346631519
 30
0
  0
VERTEX
  5
66
  8
1
  6
BYLAYER
 62
  256
 10
818.7861083007315
 20
1765.045431283086
 30
0
  0
VERTEX
  5
67
  8
1
  6
BYLAYER
 62
  256
 10
820.8473512726457
 20
1752.73276165267
 30
0
  0
VERTEX
  5
68
  8
1
  6
BYLAYER
 62
  256
 10
823.7469330448064
 20
1737.295548159879
 30
0
  0
VERTEX
  5
69
  8
1
  6
BYLAYER
 62
  256
 10
826.6121167319436
 20
1723.502249094479
 30
0
  0
VERTEX
  5
6A
  8
1
  6
BYLAYER
 62
  256
 10
829.2378905235616
 20
1711.931589689619
 30
0
  0
VERTEX
  5
6B
  8
1
  6
BYLAYER
 62
  256
 10
832.0315458831454
 20
1700.517235375157
 30
0
  0
VERTEX
  5
6C
  8
1
  6
BYLAYER
 62
  256
 10
676.3690730189886
 20
1661.800166231649
 30
0
  0
VERTEX
  5
6D
  8
1
  6
BYLAYER
 62
  256
 10
674.4180621100892
 20
1669.320708677916
 30
0
  0
VERTEX
  5
6E
  8
1
  6
BYLAYER
 62
  256
 10
673.9112443778459
 20
1670.937944666089
 30
0
  0
VERTEX
  5
6F
  8
1
  6
BYLAYER
 62
  256
 10
673.2990841924041
 20
1672.552937292802
 30
0
  0
VERTEX
  5
70
  8
1
  6
BYLAYER
 62
  256
 10
672.5666082316733
 20
1674.194492429677
 30
0
  0
VERTEX
  5
71
  8
1
  6
BYLAYER
 62
  256
 10
671.7094142933747
 20
1675.857745611257
 30
0
  0
VERTEX
  5
72
  8
1
  6
BYLAYER
 62
  256
 10
670.7231345293898
 20
1677.537753834255
 30
0
  0
VERTEX
  5
73
  8
1
  6
BYLAYER
 62
  256
 10
669.6034310465392
 20
1679.229490804343
 30
0
  0
VERTEX
  5
74
  8
1
  6
BYLAYER
 62
  256
 10
668.3459959675265
 20
1680.927841027271
 30
0
  0
VERTEX
  5
75
  8
1
  6
BYLAYER
 62
  256
 10
666.9465554044758
 20
1682.627594229347
 30
0
  0
VERTEX
  5
76
  8
1
  6
BYLAYER
 62
  256
 10
665.400876547264
 20
1684.323441232481
 30
0
  0
VERTEX
  5
77
  8
1
  6
BYLAYER
 62
  256
 10
663.7047769275724
 20
1686.009972047616
 30
0
  0
VERTEX
  5
78
  8
1
  6
BYLAYER
 62
  256
 10
661.8541348765447
 20
1687.681676606958
 30
0
  0
VERTEX
  5
79
  8
1
  6
BYLAYER
 62
  256
 10
659.8449002352985
 20
1689.332948247883
 30
0
  0
VERTEX
  5
7A
  8
1
  6
BYLAYER
 62
  256
 10
657.6731044857788
 20
1690.958089804352
 30
0
  0
VERTEX
  5
7B
  8
1
  6
BYLAYER
 62
  256
 10
655.3348696246237
 20
1692.551321964844
 30
0
  0
VERTEX
  5
7C
  8
1
  6
BYLAYER
 62
  256
 10
652.826415283961
 20
1694.106793423269
 30
0
  0
VERTEX
  5
7D
  8
1
  6
BYLAYER
 62
  256
 10
650.1440637907334
 20
1695.618592279078
 30
0
  0
VERTEX
  5
7E
  8
1
  6
BYLAYER
 62
  256
 10
647.2842430335037
 20
1697.080758128118
 30
0
  0
VERTEX
  5
7F
  8
1
  6
BYLAYER
 62
  256
 10
644.2434871602002
 20
1698.487294316303
 30
0
  0
VERTEX
  5
80
  8
1
  6
BYLAYER
 62
  256
 10
641.0184352540576
 20
1699.832179891651
 30
0
  0
VERTEX
  5
81
  8
1
  6
BYLAYER
 62
  256
 10
637.6058282247243
 20
1701.109380874185
 30
0
  0
VERTEX
  5
82
  8
1
  6
BYLAYER
 62
  256
 10
634.0025042076878
 20
1702.312860556381
 30
0
  0
VERTEX
  5
83
  8
1
  6
BYLAYER
 62
  256
 10
630.2053927911547
 20
1703.43658863969
 30
0
  0
VERTEX
  5
84
  8
1
  6
BYLAYER
 62
  256
 10
626.2115083904945
 20
1704.474549098408
 30
0
  0
VERTEX
  5
85
  8
1
  6
BYLAYER
 62
  256
 10
622.0179430722557
 20
1705.420746736103
 30
0
  0
VERTEX
  5
86
  8
1
  6
BYLAYER
 62
  256
 10
617.6218590985865
 20
1706.269212459741
 30
0
  0
VERTEX
  5
87
  8
1
  6
BYLAYER
 62
  256
 10
613.0204814239763
 20
1707.014007341951
 30
0
  0
VERTEX
  5
88
  8
1
  6
BYLAYER
 62
  256
 10
608.2110903341586
 20
1707.649225573409
 30
0
  0
VERTEX
  5
89
  8
1
  6
BYLAYER
 62
  256
 10
603.1910143751688
 20
1708.168996426545
 30
0
  0
VERTEX
  5
8A
  8
1
  6
BYLAYER
 62
  256
 10
597.9576236814378
 20
1708.567485360916
 30
0
  0
VERTEX
  5
8B
  8
1
  6
BYLAYER
 62
  256
 10
592.5083237769492
 20
1708.838894401685
 30
0
  0
VERTEX
  5
8C
  8
1
  6
BYLAYER
 62
  256
 10
586.8264597914599
 20
1708.977806397075
 30
0
  0
VERTEX
  5
8D
  8
1
  6
BYLAYER
 62
  256
 10
583.9156666666667
 20
1708.989526590223
 30
0
  0
VERTEX
  5
8E
  8
1
  6
BYLAYER
 62
  256
 10
581.0048735418733
 20
1708.977806397075
 30
0
  0
VERTEX
  5
8F
  8
1
  6
BYLAYER
 62
  256
 10
575.3230095563841
 20
1708.838894401685
 30
0
  0
VERTEX
  5
90
  8
1
  6
BYLAYER
 62
  256
 10
569.8737096518954
 20
1708.567485360916
 30
0
  0
VERTEX
  5
91
  8
1
  6
BYLAYER
 62
  256
 10
564.6403189581644
 20
1708.168996426545
 30
0
  0
VERTEX
  5
92
  8
1
  6
BYLAYER
 62
  256
 10
559.6202429991746
 20
1707.649225573409
 30
0
  0
VERTEX
  5
93
  8
1
  6
BYLAYER
 62
  256
 10
554.8108519093569
 20
1707.014007341951
 30
0
  0
VERTEX
  5
94
  8
1
  6
BYLAYER
 62
  256
 10
550.2094742347468
 20
1706.269212459741
 30
0
  0
VERTEX
  5
95
  8
1
  6
BYLAYER
 62
  256
 10
545.8133902610776
 20
1705.420746736103
 30
0
  0
VERTEX
  5
96
  8
1
  6
BYLAYER
 62
  256
 10
541.6198249428388
 20
1704.474549098408
 30
0
  0
VERTEX
  5
97
  8
1
  6
BYLAYER
 62
  256
 10
537.6259405421786
 20
1703.43658863969
 30
0
  0
VERTEX
  5
98
  8
1
  6
BYLAYER
 62
  256
 10
533.8288291256454
 20
1702.312860556381
 30
0
  0
VERTEX
  5
99
  8
1
  6
BYLAYER
 62
  256
 10
530.225505108609
 20
1701.109380874185
 30
0
  0
VERTEX
  5
9A
  8
1
  6
BYLAYER
 62
  256
 10
526.8128980792757
 20
1699.832179891651
 30
0
  0
VERTEX
  5
9B
  8
1
  6
BYLAYER
 62
  256
 10
523.5878461731331
 20
1698.487294316303
 30
0
  0
VERTEX
  5
9C
  8
1
  6
BYLAYER
 62
  256
 10
520.5470902998295
 20
1697.080758128118
 30
0
  0
VERTEX
  5
9D
  8
1
  6
BYLAYER
 62
  256
 10
517.6872695425998
 20
1695.618592279078
 30
0
  0
VERTEX
  5
9E
  8
1
  6
BYLAYER
 62
  256
 10
515.0049180493722
 20
1694.106793423269
 30
0
  0
VERTEX
  5
9F
  8
1
  6
BYLAYER
 62
  256
 10
512.4964637087096
 20
1692.551321964844
 30
0
  0
VERTEX
  5
A0
  8
1
  6
BYLAYER
 62
  256
 10
510.1582288475544
 20
1690.958089804352
 30
0
  0
VERTEX
  5
A1
  8
1
  6
BYLAYER
 62
  256
 10
507.9864330980348
 20
1689.332948247883
 30
0
  0
VERTEX
  5
A2
  8
1
  6
BYLAYER
 62
  256
 10
505.9771984567887
 20
1687.681676606958
 30
0
  0
VERTEX
  5
A3
  8
1
  6
BYLAYER
 62
  256
 10
504.1265564057608
 20
1686.009972047616
 30
0
  0
VERTEX
  5
A4
  8
1
  6
BYLAYER
 62
  256
 10
502.4304567860691
 20
1684.323441232481
 30
0
  0
VERTEX
  5
A5
  8
1
  6
BYLAYER
 62
  256
 10
500.8847779288574
 20
1682.627594229347
 30
0
  0
VERTEX
  5
A6
  8
1
  6
BYLAYER
 62
  256
 10
499.4853373658066
 20
1680.927841027271
 30
0
  0
VERTEX
  5
A7
  8
1
  6
BYLAYER
 62
  256
 10
498.2279022867941
 20
1679.229490804343
 30
0
  0
VERTEX
  5
A8
  8
1
  6
BYLAYER
 62
  256
 10
497.1081988039436
 20
1677.537753834255
 30
0
  0
VERTEX
  5
A9
  8
1
  6
BYLAYER
 62
  256
 10
496.1219190399585
 20
1675.857745611257
 30
0
  0
VERTEX
  5
AA
  8
1
  6
BYLAYER
 62
  256
 10
495.26472510166
 20
1674.194492429677
 30
0
  0
VERTEX
  5
AB
  8
1
  6
BYLAYER
 62
  256
 10
494.5322491409292
 20
1672.552937292802
 30
0
  0
VERTEX
  5
AC
  8
1
  6
BYLAYER
 62
  256
 10
493.9200889554874
 20
1670.937944666089
 30
0
  0
VERTEX
  5
AD
  8
1
  6
BYLAYER
 62
  256
 10
493.4132712232441
 20
1669.320708677916
 30
0
  0
VERTEX
  5
AE
  8
1
  6
BYLAYER
 62
  256
 10
491.4622603143447
 20
1661.800166231649
 30
0
  0
VERTEX
  5
AF
  8
1
  6
BYLAYER
 62
  256
 10
335.7997874501878
 20
1700.517235375157
 30
0
  0
VERTEX
  5
B0
  8
1
  6
BYLAYER
 62
  256
 10
338.5934428097715
 20
1711.931589689619
 30
0
  0
VERTEX
  5
B1
  8
1
  6
BYLAYER
 62
  256
 10
341.2192166013897
 20
1723.502249094479
 30
0
  0
VERTEX
  5
B2
  8
1
  6
BYLAYER
 62
  256
 10
344.0844002885268
 20
1737.295548159879
 30
0
  0
VERTEX
  5
B3
  8
1
  6
BYLAYER
 62
  256
 10
346.9839820606875
 20
1752.73276165267
 30
0
  0
VERTEX
  5
B4
  8
1
  6
BYLAYER
 62
  256
 10
349.0452250326017
 20
1765.045431283086
 30
0
  0
VERTEX
  5
B5
  8
1
  6
BYLAYER
 62
  256
 10
350.3242884799969
 20
1773.425346631519
 30
0
  0
VERTEX
  5
B6
  8
1
  6
BYLAYER
 62
  256
 10
351.4965545612005
 20
1781.886564839758
 30
0
  0
VERTEX
  5
B7
  8
1
  6
BYLAYER
 62
  256
 10
352.535410883781
 20
1790.346975161034
 30
0
  0
VERTEX
  5
B8
  8
1
  6
BYLAYER
 62
  256
 10
353.4154588833994
 20
1798.730629022186
 30
0
  0
VERTEX
  5
B9
  8
1
  6
BYLAYER
 62
  256
 10
354.1115725835238
 20
1806.9606107898
 30
0
  0
VERTEX
  5
BA
  8
1
  6
BYLAYER
 62
  256
 10
354.5990809770402
 20
1814.958633853603
 30
0
  0
VERTEX
  5
BB
  8
1
  6
BYLAYER
 62
  256
 10
354.8547920611434
 20
1822.665508304505
 30
0
  0
VERTEX
  5
BC
  8
1
  6
BYLAYER
 62
  256
 10
354.8770057251217
 20
1826.355652191885
 30
0
  0
VERTEX
  5
BD
  8
1
  6
BYLAYER
 62
  256
 10
354.8770057251217
 20
1831.137565623938
 30
0
  0
VERTEX
  5
BE
  8
1
  6
BYLAYER
 62
  256
 10
354.8116221578114
 20
1841.088888321384
 30
0
  0
VERTEX
  5
BF
  8
1
  6
BYLAYER
 62
  256
 10
354.5518849598992
 20
1851.303227326856
 30
0
  0
VERTEX
  5
C0
  8
1
  6
BYLAYER
 62
  256
 10
354.1407247362254
 20
1859.046324725369
 30
0
  0
VERTEX
  5
C1
  8
1
  6
BYLAYER
 62
  256
 10
353.7488993843456
 20
1864.191970924931
 30
0
  0
VERTEX
  5
C2
  8
1
  6
BYLAYER
 62
  256
 10
353.2382839433303
 20
1869.329208067589
 30
0
  0
VERTEX
  5
C3
  8
1
  6
BYLAYER
 62
  256
 10
352.595047453363
 20
1874.428411269447
 30
0
  0
VERTEX
  5
C4
  8
1
  6
BYLAYER
 62
  256
 10
351.8049489612352
 20
1879.470558425244
 30
0
  0
VERTEX
  5
C5
  8
1
  6
BYLAYER
 62
  256
 10
350.8542139459473
 20
1884.436652397654
 30
0
  0
VERTEX
  5
C6
  8
1
  6
BYLAYER
 62
  256
 10
349.7295900312321
 20
1889.307863889743
 30
0
  0
VERTEX
  5
C7
  8
1
  6
BYLAYER
 62
  256
 10
348.4183807346586
 20
1894.065722802349
 30
0
  0
VERTEX
  5
C8
  8
1
  6
BYLAYER
 62
  256
 10
346.9084348582134
 20
1898.692365526452
 30
0
  0
VERTEX
  5
C9
  8
1
  6
BYLAYER
 62
  256
 10
345.1880605932465
 20
1903.170837248756
 30
0
  0
VERTEX
  5
CA
  8
1
  6
BYLAYER
 62
  256
 10
343.2458268356841
 20
1907.485432238592
 30
0
  0
VERTEX
  5
CB
  8
1
  6
BYLAYER
 62
  256
 10
341.0702150261652
 20
1911.622029783174
 30
0
  0
VERTEX
  5
CC
  8
1
  6
BYLAYER
 62
  256
 10
338.6491009827318
 20
1915.568351323119
 30
0
  0
VERTEX
  5
CD
  8
1
  6
BYLAYER
 62
  256
 10
335.9560304657106
 20
1919.332281173635
 30
0
  0
VERTEX
  5
CE
  8
1
  6
BYLAYER
 62
  256
 10
333.7561189279372
 20
1922.000139690146
 30
0
  0
VERTEX
  5
CF
  8
1
  6
BYLAYER
 62
  256
 10
332.2223153395578
 20
1923.697706225544
 30
0
  0
VERTEX
  5
D0
  8
1
  6
BYLAYER
 62
  256
 10
330.599196360195
 20
1925.357219423591
 30
0
  0
VERTEX
  5
D1
  8
1
  6
BYLAYER
 62
  256
 10
328.8991465855626
 20
1926.961140199978
 30
0
  0
VERTEX
  5
D2
  8
1
  6
BYLAYER
 62
  256
 10
327.1193283385512
 20
1928.508520781902
 30
0
  0
VERTEX
  5
D3
  8
1
  6
BYLAYER
 62
  256
 10
325.2567211537001
 20
1929.998334196248
 30
0
  0
VERTEX
  5
D4
  8
1
  6
BYLAYER
 62
  256
 10
323.3081417001729
 20
1931.429438425862
 30
0
  0
VERTEX
  5
D5
  8
1
  6
BYLAYER
 62
  256
 10
321.2702715680173
 20
1932.800544793138
 30
0
  0
VERTEX
  5
D6
  8
1
  6
BYLAYER
 62
  256
 10
319.1396913567128
 20
1934.110192667274
 30
0
  0
VERTEX
  5
D7
  8
1
  6
BYLAYER
 62
  256
 10
316.9129189379668
 20
1935.356732063557
 30
0
  0
VERTEX
  5
D8
  8
1
  6
BYLAYER
 62
  256
 10
314.5864494333152
 20
1936.538315002651
 30
0
  0
VERTEX
  5
D9
  8
1
  6
BYLAYER
 62
  256
 10
312.1567943939753
 20
1937.6528957257
 30
0
  0
VERTEX
  5
DA
  8
1
  6
BYLAYER
 62
  256
 10
309.6205178894978
 20
1938.6982391262
 30
0
  0
VERTEX
  5
DB
  8
1
  6
BYLAYER
 62
  256
 10
306.9742676531903
 20
1939.671936156635
 30
0
  0
VERTEX
  5
DC
  8
1
  6
BYLAYER
 62
  256
 10
304.2148000151188
 20
1940.571424560794
 30
0
  0
VERTEX
  5
DD
  8
1
  6
BYLAYER
 62
  256
 10
301.3389979858329
 20
1941.394013095731
 30
0
  0
VERTEX
  5
DE
  8
1
  6
BYLAYER
 62
  256
 10
298.3438824504512
 20
1942.136907428126
 30
0
  0
VERTEX
  5
DF
  8
1
  6
BYLAYER
 62
  256
 10
295.2266169295481
 20
1942.797236077069
 30
0
  0
VERTEX
  5
E0
  8
1
  6
BYLAYER
 62
  256
 10
291.984506723544
 20
1943.372075073637
 30
0
  0
VERTEX
  5
E1
  8
1
  6
BYLAYER
 62
  256
 10
288.6149934714655
 20
1943.858470358705
 30
0
  0
VERTEX
  5
E2
  8
1
  6
BYLAYER
 62
  256
 10
285.1156462348374
 20
1944.253457294153
 30
0
  0
VERTEX
  5
E3
  8
1
  6
BYLAYER
 62
  256
 10
281.4841501890716
 20
1944.554076981831
 30
0
  0
VERTEX
  5
E4
  8
1
  6
BYLAYER
 62
  256
 10
277.7182938994839
 20
1944.757389347012
 30
0
  0
VERTEX
  5
E5
  8
1
  6
BYLAYER
 62
  256
 10
273.8007920818455
 20
1944.860883747476
 30
0
  0
VERTEX
  5
E6
  8
1
  6
BYLAYER
 62
  256
 10
264.8084166666666
 20
1944.899851761883
 30
0
  0
VERTEX
  5
E7
  8
1
  6
BYLAYER
 62
  256
 10
264.8084166666666
 20
2083.889583333333
 30
0
  0
VERTEX
  5
E8
  8
1
  6
BYLAYER
 62
  256
 10
264.8084166666666
 20
2260.864583333333
 30
0
  0
VERTEX
  5
E9
  8
1
  6
BYLAYER
 62
  256
 10
903.0229166666667
 20
2260.864583333333
 30
0
  0
SEQEND
  5
EA
  8
1
  6
BYLAYER
 62
  256
  0
POLYLINE
  5
EB
  8
8
  6
BYLAYER
 62
  256
 66
    1
 10
0
 20
0
 30
0
 70
    1
  0
VERTEX
  5
EC
  8
8
  6
BYLAYER
 62
  256
 10
896.0229166666668
 20
2253.864583333333
 30
0
  0
VERTEX
  5
ED
  8
8
  6
BYLAYER
 62
  256
 10
896.0229166666668
 20
2083.889583333333
 30
0
  0
VERTEX
  5
EE
  8
8
  6
BYLAYER
 62
  256
 10
896.0229166666668
 20
1951.869583333333
 30
0
  0
VERTEX
  5
EF
  8
8
  6
BYLAYER
 62
  256
 10
893.9229288114219
 20
1951.860483139756
 30
0
  0
VERTEX
  5
F0
  8
8
  6
BYLAYER
 62
  256
 10
889.8318693558591
 20
1951.752403612208
 30
0
  0
VERTEX
  5
F1
  8
8
  6
BYLAYER
 62
  256
 10
885.8696540504465
 20
1951.538490147872
 30
0
  0
VERTEX
  5
F2
  8
8
  6
BYLAYER
 62
  256
 10
882.0342213887816
 20
1951.220988337508
 30
0
  0
VERTEX
  5
F3
  8
8
  6
BYLAYER
 62
  256
 10
878.3235098644616
 20
1950.802143771875
 30
0
  0
VERTEX
  5
F4
  8
8
  6
BYLAYER
 62
  256
 10
874.7354579710844
 20
1950.284202041734
 30
0
  0
VERTEX
  5
F5
  8
8
  6
BYLAYER
 62
  256
 10
871.2680042022478
 20
1949.669408737844
 30
0
  0
VERTEX
  5
F6
  8
8
  6
BYLAYER
 62
  256
 10
867.9190870515491
 20
1948.960009450964
 30
0
  0
VERTEX
  5
F7
  8
8
  6
BYLAYER
 62
  256
 10
864.6866450125859
 20
1948.158249771856
 30
0
  0
VERTEX
  5
F8
  8
8
  6
BYLAYER
 62
  256
 10
861.568616578956
 20
1947.266375291278
 30
0
  0
VERTEX
  5
F9
  8
8
  6
BYLAYER
 62
  256
 10
858.5629402442569
 20
1946.28663159999
 30
0
  0
VERTEX
  5
FA
  8
8
  6
BYLAYER
 62
  256
 10
855.6675545020862
 20
1945.221264288752
 30
0
  0
VERTEX
  5
FB
  8
8
  6
BYLAYER
 62
  256
 10
852.8803978460415
 20
1944.072518948324
 30
0
  0
VERTEX
  5
FC
  8
8
  6
BYLAYER
 62
  256
 10
850.1994087697204
 20
1942.842641169467
 30
0
  0
VERTEX
  5
FD
  8
8
  6
BYLAYER
 62
  256
 10
847.6225257667205
 20
1941.533876542938
 30
0
  0
VERTEX
  5
FE
  8
8
  6
BYLAYER
 62
  256
 10
845.1476873306392
 20
1940.148470659499
 30
0
  0
VERTEX
  5
FF
  8
8
  6
BYLAYER
 62
  256
 10
842.7728319550746
 20
1938.688669109909
 30
0
  0
VERTEX
  5
100
  8
8
  6
BYLAYER
 62
  256
 10
840.4958981336238
 20
1937.156717484927
 30
0
  0
VERTEX
  5
101
  8
8
  6
BYLAYER
 62
  256
 10
838.3148243598847
 20
1935.554861375315
 30
0
  0
VERTEX
  5
102
  8
8
  6
BYLAYER
 62
  256
 10
836.2275491274548
 20
1933.885346371831
 30
0
  0
VERTEX
  5
103
  8
8
  6
BYLAYER
 62
  256
 10
834.2320109299317
 20
1932.150418065235
 30
0
  0
VERTEX
  5
104
  8
8
  6
BYLAYER
 62
  256
 10
832.3261482609129
 20
1930.352322046287
 30
0
  0
VERTEX
  5
105
  8
8
  6
BYLAYER
 62
  256
 10
830.5078996139962
 20
1928.493303905748
 30
0
  0
VERTEX
  5
106
  8
8
  6
BYLAYER
 62
  256
 10
828.775203482779
 20
1926.575609234375
 30
0
  0
VERTEX
  5
107
  8
8
  6
BYLAYER
 62
  256
 10
826.3220108639231
 20
1923.600593781036
 30
0
  0
VERTEX
  5
108
  8
8
  6
BYLAYER
 62
  256
 10
823.3451956188575
 20
1919.440092342415
 30
0
  0
VERTEX
  5
109
  8
8
  6
BYLAYER
 62
  256
 10
820.6734833213471
 20
1915.085305414141
 30
0
  0
VERTEX
  5
10A
  8
8
  6
BYLAYER
 62
  256
 10
818.2903819201729
 20
1910.554197722293
 30
0
  0
VERTEX
  5
10B
  8
8
  6
BYLAYER
 62
  256
 10
816.1793993641152
 20
1905.864733992949
 30
0
  0
VERTEX
  5
10C
  8
8
  6
BYLAYER
 62
  256
 10
814.3240436019552
 20
1901.034878952187
 30
0
  0
VERTEX
  5
10D
  8
8
  6
BYLAYER
 62
  256
 10
812.7078225824738
 20
1896.082597326086
 30
0
  0
VERTEX
  5
10E
  8
8
  6
BYLAYER
 62
  256
 10
811.3142442544514
 20
1891.025853840723
 30
0
  0
VERTEX
  5
10F
  8
8
  6
BYLAYER
 62
  256
 10
810.126816566669
 20
1885.882613222178
 30
0
  0
VERTEX
  5
110
  8
8
  6
BYLAYER
 62
  256
 10
809.1290474679074
 20
1880.670840196529
 30
0
  0
VERTEX
  5
111
  8
8
  6
BYLAYER
 62
  256
 10
808.3044449069475
 20
1875.408499489854
 30
0
  0
VERTEX
  5
112
  8
8
  6
BYLAYER
 62
  256
 10
807.63651683257
 20
1870.113555828231
 30
0
  0
VERTEX
  5
113
  8
8
  6
BYLAYER
 62
  256
 10
807.1087711935556
 20
1864.803973937739
 30
0
  0
VERTEX
  5
114
  8
8
  6
BYLAYER
 62
  256
 10
806.7047159386851
 20
1859.497718544457
 30
0
  0
VERTEX
  5
115
  8
8
  6
BYLAYER
 62
  256
 10
806.2841686325955
 20
1851.577840686046
 30
0
  0
VERTEX
  5
116
  8
8
  6
BYLAYER
 62
  256
 10
806.0202958130884
 20
1841.200865595677
 30
0
  0
VERTEX
  5
117
  8
8
  6
BYLAYER
 62
  256
 10
805.9543276082115
 20
1831.160561563556
 30
0
  0
VERTEX
  5
118
  8
8
  6
BYLAYER
 62
  256
 10
805.9543276082115
 20
1826.334583333333
 30
0
  0
VERTEX
  5
119
  8
8
  6
BYLAYER
 62
  256
 10
805.9772401015131
 20
1822.528349603334
 30
0
  0
VERTEX
  5
11A
  8
8
  6
BYLAYER
 62
  256
 10
806.2393187396045
 20
1814.629563490411
 30
0
  0
VERTEX
  5
11B
  8
8
  6
BYLAYER
 62
  256
 10
806.7377334527341
 20
1806.452612233847
 30
0
  0
VERTEX
  5
11C
  8
8
  6
BYLAYER
 62
  256
 10
807.4467416778483
 20
1798.070181655718
 30
0
  0
VERTEX
  5
11D
  8
8
  6
BYLAYER
 62
  256
 10
808.3406008518937
 20
1789.554957578097
 30
0
  0
VERTEX
  5
11E
  8
8
  6
BYLAYER
 62
  256
 10
809.3935684118169
 20
1780.979625823062
 30
0
  0
VERTEX
  5
11F
  8
8
  6
BYLAYER
 62
  256
 10
810.5799017945648
 20
1772.416872212687
 30
0
  0
VERTEX
  5
120
  8
8
  6
BYLAYER
 62
  256
 10
811.8738584370835
 20
1763.939382569048
 30
0
  0
VERTEX
  5
121
  8
8
  6
BYLAYER
 62
  256
 10
813.9548667997356
 20
1751.50864596177
 30
0
  0
VERTEX
  5
122
  8
8
  6
BYLAYER
 62
  256
 10
816.8796088867584
 20
1735.937480339813
 30
0
  0
VERTEX
  5
123
  8
8
  6
BYLAYER
 62
  256
 10
819.7714778779037
 20
1722.01571538216
 30
0
  0
VERTEX
  5
124
  8
8
  6
BYLAYER
 62
  256
 10
822.4245332687449
 20
1710.324837665411
 30
0
  0
VERTEX
  5
125
  8
8
  6
BYLAYER
 62
  256
 10
823.5743276082117
 20
1705.626992623641
 30
0
  0
VERTEX
  5
126
  8
8
  6
BYLAYER
 62
  256
 10
681.4045762259481
 20
1670.265893746675
 30
0
  0
VERTEX
  5
127
  8
8
  6
BYLAYER
 62
  256
 10
681.1499360746435
 20
1671.247452618373
 30
0
  0
VERTEX
  5
128
  8
8
  6
BYLAYER
 62
  256
 10
680.5295420210961
 20
1673.227106301374
 30
0
  0
VERTEX
  5
129
  8
8
  6
BYLAYER
 62
  256
 10
679.7734320775832
 20
1675.221865210558
 30
0
  0
VERTEX
  5
12A
  8
8
  6
BYLAYER
 62
  256
 10
678.8789624787275
 20
1677.226465011096
 30
0
  0
VERTEX
  5
12B
  8
8
  6
BYLAYER
 62
  256
 10
677.843489459152
 20
1679.235641368162
 30
0
  0
VERTEX
  5
12C
  8
8
  6
BYLAYER
 62
  256
 10
676.6643692534795
 20
1681.244129946929
 30
0
  0
VERTEX
  5
12D
  8
8
  6
BYLAYER
 62
  256
 10
675.3389580963329
 20
1683.246666412568
 30
0
  0
VERTEX
  5
12E
  8
8
  6
BYLAYER
 62
  256
 10
673.8646122223348
 20
1685.237986430254
 30
0
  0
VERTEX
  5
12F
  8
8
  6
BYLAYER
 62
  256
 10
672.2386878661083
 20
1687.212825665158
 30
0
  0
VERTEX
  5
130
  8
8
  6
BYLAYER
 62
  256
 10
670.4585412622757
 20
1689.165919782454
 30
0
  0
VERTEX
  5
131
  8
8
  6
BYLAYER
 62
  256
 10
668.5215286454604
 20
1691.092004447315
 30
0
  0
VERTEX
  5
132
  8
8
  6
BYLAYER
 62
  256
 10
666.4250062502848
 20
1692.985815324913
 30
0
  0
VERTEX
  5
133
  8
8
  6
BYLAYER
 62
  256
 10
664.166330311372
 20
1694.842088080421
 30
0
  0
VERTEX
  5
134
  8
8
  6
BYLAYER
 62
  256
 10
661.7428570633444
 20
1696.655558379013
 30
0
  0
VERTEX
  5
135
  8
8
  6
BYLAYER
 62
  256
 10
659.1519427408253
 20
1698.420961885859
 30
0
  0
VERTEX
  5
136
  8
8
  6
BYLAYER
 62
  256
 10
656.3909435784374
 20
1700.133034266134
 30
0
  0
VERTEX
  5
137
  8
8
  6
BYLAYER
 62
  256
 10
653.4572158108032
 20
1701.786511185011
 30
0
  0
VERTEX
  5
138
  8
8
  6
BYLAYER
 62
  256
 10
650.3481156725458
 20
1703.376128307661
 30
0
  0
VERTEX
  5
139
  8
8
  6
BYLAYER
 62
  256
 10
647.0609993982878
 20
1704.896621299259
 30
0
  0
VERTEX
  5
13A
  8
8
  6
BYLAYER
 62
  256
 10
643.5932232226522
 20
1706.342725824976
 30
0
  0
VERTEX
  5
13B
  8
8
  6
BYLAYER
 62
  256
 10
639.9421433802619
 20
1707.709177549986
 30
0
  0
VERTEX
  5
13C
  8
8
  6
BYLAYER
 62
  256
 10
636.1051161057394
 20
1708.990712139462
 30
0
  0
VERTEX
  5
13D
  8
8
  6
BYLAYER
 62
  256
 10
632.0794976337075
 20
1710.182065258575
 30
0
  0
VERTEX
  5
13E
  8
8
  6
BYLAYER
 62
  256
 10
627.8626441987894
 20
1711.2779725725
 30
0
  0
VERTEX
  5
13F
  8
8
  6
BYLAYER
 62
  256
 10
623.4519120356077
 20
1712.273169746408
 30
0
  0
VERTEX
  5
140
  8
8
  6
BYLAYER
 62
  256
 10
618.8446573787852
 20
1713.162392445473
 30
0
  0
VERTEX
  5
141
  8
8
  6
BYLAYER
 62
  256
 10
614.0382364629446
 20
1713.940376334868
 30
0
  0
VERTEX
  5
142
  8
8
  6
BYLAYER
 62
  256
 10
609.030005522709
 20
1714.601857079764
 30
0
  0
VERTEX
  5
143
  8
8
  6
BYLAYER
 62
  256
 10
603.8173207927009
 20
1715.141570345336
 30
0
  0
VERTEX
  5
144
  8
8
  6
BYLAYER
 62
  256
 10
598.3975385075432
 20
1715.554251796756
 30
0
  0
VERTEX
  5
145
  8
8
  6
BYLAYER
 62
  256
 10
592.7680149018588
 20
1715.834637099196
 30
0
  0
VERTEX
  5
146
  8
8
  6
BYLAYER
 62
  256
 10
586.9261062102705
 20
1715.977461917829
 30
0
  0
VERTEX
  5
147
  8
8
  6
BYLAYER
 62
  256
 10
583.9156666666667
 20
1715.989583333333
 30
0
  0
VERTEX
  5
148
  8
8
  6
BYLAYER
 62
  256
 10
580.9052271230627
 20
1715.977461917829
 30
0
  0
VERTEX
  5
149
  8
8
  6
BYLAYER
 62
  256
 10
575.0633184314744
 20
1715.834637099196
 30
0
  0
VERTEX
  5
14A
  8
8
  6
BYLAYER
 62
  256
 10
569.4337948257901
 20
1715.554251796756
 30
0
  0
VERTEX
  5
14B
  8
8
  6
BYLAYER
 62
  256
 10
564.0140125406323
 20
1715.141570345336
 30
0
  0
VERTEX
  5
14C
  8
8
  6
BYLAYER
 62
  256
 10
558.8013278106242
 20
1714.601857079764
 30
0
  0
VERTEX
  5
14D
  8
8
  6
BYLAYER
 62
  256
 10
553.7930968703887
 20
1713.940376334868
 30
0
  0
VERTEX
  5
14E
  8
8
  6
BYLAYER
 62
  256
 10
548.9866759545481
 20
1713.162392445473
 30
0
  0
VERTEX
  5
14F
  8
8
  6
BYLAYER
 62
  256
 10
544.3794212977256
 20
1712.273169746408
 30
0
  0
VERTEX
  5
150
  8
8
  6
BYLAYER
 62
  256
 10
539.9686891345438
 20
1711.2779725725
 30
0
  0
VERTEX
  5
151
  8
8
  6
BYLAYER
 62
  256
 10
535.7518356996255
 20
1710.182065258575
 30
0
  0
VERTEX
  5
152
  8
8
  6
BYLAYER
 62
  256
 10
531.7262172275939
 20
1708.990712139462
 30
0
  0
VERTEX
  5
153
  8
8
  6
BYLAYER
 62
  256
 10
527.8891899530714
 20
1707.709177549986
 30
0
  0
VERTEX
  5
154
  8
8
  6
BYLAYER
 62
  256
 10
524.238110110681
 20
1706.342725824976
 30
0
  0
VERTEX
  5
155
  8
8
  6
BYLAYER
 62
  256
 10
520.7703339350454
 20
1704.896621299259
 30
0
  0
VERTEX
  5
156
  8
8
  6
BYLAYER
 62
  256
 10
517.4832176607875
 20
1703.376128307661
 30
0
  0
VERTEX
  5
157
  8
8
  6
BYLAYER
 62
  256
 10
514.3741175225301
 20
1701.786511185011
 30
0
  0
VERTEX
  5
158
  8
8
  6
BYLAYER
 62
  256
 10
511.4403897548959
 20
1700.133034266134
 30
0
  0
VERTEX
  5
159
  8
8
  6
BYLAYER
 62
  256
 10
508.6793905925078
 20
1698.420961885859
 30
0
  0
VERTEX
  5
15A
  8
8
  6
BYLAYER
 62
  256
 10
506.0884762699886
 20
1696.655558379013
 30
0
  0
VERTEX
  5
15B
  8
8
  6
BYLAYER
 62
  256
 10
503.6650030219612
 20
1694.842088080421
 30
0
  0
VERTEX
  5
15C
  8
8
  6
BYLAYER
 62
  256
 10
501.4063270830484
 20
1692.985815324913
 30
0
  0
VERTEX
  5
15D
  8
8
  6
BYLAYER
 62
  256
 10
499.3098046878728
 20
1691.092004447315
 30
0
  0
VERTEX
  5
15E
  8
8
  6
BYLAYER
 62
  256
 10
497.3727920710575
 20
1689.165919782454
 30
0
  0
VERTEX
  5
15F
  8
8
  6
BYLAYER
 62
  256
 10
495.5926454672251
 20
1687.212825665158
 30
0
  0
VERTEX
  5
160
  8
8
  6
BYLAYER
 62
  256
 10
493.9667211109984
 20
1685.237986430254
 30
0
  0
VERTEX
  5
161
  8
8
  6
BYLAYER
 62
  256
 10
492.4923752370004
 20
1683.246666412568
 30
0
  0
VERTEX
  5
162
  8
8
  6
BYLAYER
 62
  256
 10
491.1669640798537
 20
1681.244129946929
 30
0
  0
VERTEX
  5
163
  8
8
  6
BYLAYER
 62
  256
 10
489.9878438741812
 20
1679.235641368162
 30
0
  0
VERTEX
  5
164
  8
8
  6
BYLAYER
 62
  256
 10
488.9523708546058
 20
1677.226465011096
 30
0
  0
VERTEX
  5
165
  8
8
  6
BYLAYER
 62
  256
 10
488.0579012557502
 20
1675.221865210558
 30
0
  0
VERTEX
  5
166
  8
8
  6
BYLAYER
 62
  256
 10
487.3017913122372
 20
1673.227106301374
 30
0
  0
VERTEX
  5
167
  8
8
  6
BYLAYER
 62
  256
 10
486.6813972586897
 20
1671.247452618373
 30
0
  0
VERTEX
  5
168
  8
8
  6
BYLAYER
 62
  256
 10
486.4267571073852
 20
1670.265893746675
 30
0
  0
VERTEX
  5
169
  8
8
  6
BYLAYER
 62
  256
 10
344.2570057251216
 20
1705.626992623641
 30
0
  0
VERTEX
  5
16A
  8
8
  6
BYLAYER
 62
  256
 10
345.4068000645884
 20
1710.324837665411
 30
0
  0
VERTEX
  5
16B
  8
8
  6
BYLAYER
 62
  256
 10
348.0598554554294
 20
1722.01571538216
 30
0
  0
VERTEX
  5
16C
  8
8
  6
BYLAYER
 62
  256
 10
350.9517244465749
 20
1735.937480339813
 30
0
  0
VERTEX
  5
16D
  8
8
  6
BYLAYER
 62
  256
 10
353.8764665335976
 20
1751.50864596177
 30
0
  0
VERTEX
  5
16E
  8
8
  6
BYLAYER
 62
  256
 10
355.9574748962498
 20
1763.939382569048
 30
0
  0
VERTEX
  5
16F
  8
8
  6
BYLAYER
 62
  256
 10
357.2514315387685
 20
1772.416872212687
 30
0
  0
VERTEX
  5
170
  8
8
  6
BYLAYER
 62
  256
 10
358.4377649215163
 20
1780.979625823062
 30
0
  0
VERTEX
  5
171
  8
8
  6
BYLAYER
 62
  256
 10
359.4907324814396
 20
1789.554957578097
 30
0
  0
VERTEX
  5
172
  8
8
  6
BYLAYER
 62
  256
 10
360.3845916554849
 20
1798.070181655718
 30
0
  0
VERTEX
  5
173
  8
8
  6
BYLAYER
 62
  256
 10
361.0935998805992
 20
1806.452612233847
 30
0
  0
VERTEX
  5
174
  8
8
  6
BYLAYER
 62
  256
 10
361.5920145937287
 20
1814.629563490411
 30
0
  0
VERTEX
  5
175
  8
8
  6
BYLAYER
 62
  256
 10
361.8540932318202
 20
1822.528349603334
 30
0
  0
VERTEX
  5
176
  8
8
  6
BYLAYER
 62
  256
 10
361.8770057251216
 20
1826.334583333333
 30
0
  0
VERTEX
  5
177
  8
8
  6
BYLAYER
 62
  256
 10
361.8770057251216
 20
1831.160561563556
 30
0
  0
VERTEX
  5
178
  8
8
  6
BYLAYER
 62
  256
 10
361.8110375202449
 20
1841.200865595677
 30
0
  0
VERTEX
  5
179
  8
8
  6
BYLAYER
 62
  256
 10
361.5471647007377
 20
1851.577840686046
 30
0
  0
VERTEX
  5
17A
  8
8
  6
BYLAYER
 62
  256
 10
361.1266173946481
 20
1859.497718544457
 30
0
  0
VERTEX
  5
17B
  8
8
  6
BYLAYER
 62
  256
 10
360.7225621397777
 20
1864.803973937739
 30
0
  0
VERTEX
  5
17C
  8
8
  6
BYLAYER
 62
  256
 10
360.1948165007633
 20
1870.113555828231
 30
0
  0
VERTEX
  5
17D
  8
8
  6
BYLAYER
 62
  256
 10
359.5268884263857
 20
1875.408499489854
 30
0
  0
VERTEX
  5
17E
  8
8
  6
BYLAYER
 62
  256
 10
358.7022858654258
 20
1880.670840196529
 30
0
  0
VERTEX
  5
17F
  8
8
  6
BYLAYER
 62
  256
 10
357.7045167666643
 20
1885.882613222178
 30
0
  0
VERTEX
  5
180
  8
8
  6
BYLAYER
 62
  256
 10
356.5170890788818
 20
1891.025853840723
 30
0
  0
VERTEX
  5
181
  8
8
  6
BYLAYER
 62
  256
 10
355.1235107508595
 20
1896.082597326086
 30
0
  0
VERTEX
  5
182
  8
8
  6
BYLAYER
 62
  256
 10
353.507289731378
 20
1901.034878952187
 30
0
  0
VERTEX
  5
183
  8
8
  6
BYLAYER
 62
  256
 10
351.651933969218
 20
1905.864733992949
 30
0
  0
VERTEX
  5
184
  8
8
  6
BYLAYER
 62
  256
 10
349.5409514131604
 20
1910.554197722293
 30
0
  0
VERTEX
  5
185
  8
8
  6
BYLAYER
 62
  256
 10
347.1578500119861
 20
1915.085305414141
 30
0
  0
VERTEX
  5
186
  8
8
  6
BYLAYER
 62
  256
 10
344.4861377144758
 20
1919.440092342415
 30
0
  0
VERTEX
  5
187
  8
8
  6
BYLAYER
 62
  256
 10
341.5093224694102
 20
1923.600593781036
 30
0
  0
VERTEX
  5
188
  8
8
  6
BYLAYER
 62
  256
 10
339.0561298505543
 20
1926.575609234375
 30
0
  0
VERTEX
  5
189
  8
8
  6
BYLAYER
 62
  256
 10
337.3234337193371
 20
1928.493303905748
 30
0
  0
VERTEX
  5
18A
  8
8
  6
BYLAYER
 62
  256
 10
335.5051850724204
 20
1930.352322046287
 30
0
  0
VERTEX
  5
18B
  8
8
  6
BYLAYER
 62
  256
 10
333.5993224034016
 20
1932.150418065235
 30
0
  0
VERTEX
  5
18C
  8
8
  6
BYLAYER
 62
  256
 10
331.6037842058785
 20
1933.885346371831
 30
0
  0
VERTEX
  5
18D
  8
8
  6
BYLAYER
 62
  256
 10
329.5165089734485
 20
1935.554861375315
 30
0
  0
VERTEX
  5
18E
  8
8
  6
BYLAYER
 62
  256
 10
327.3354351997094
 20
1937.156717484927
 30
0
  0
VERTEX
  5
18F
  8
8
  6
BYLAYER
 62
  256
 10
325.0585013782587
 20
1938.688669109909
 30
0
  0
VERTEX
  5
190
  8
8
  6
BYLAYER
 62
  256
 10
322.6836460026939
 20
1940.148470659499
 30
0
  0
VERTEX
  5
191
  8
8
  6
BYLAYER
 62
  256
 10
320.2088075666128
 20
1941.533876542938
 30
0
  0
VERTEX
  5
192
  8
8
  6
BYLAYER
 62
  256
 10
317.6319245636128
 20
1942.842641169467
 30
0
  0
VERTEX
  5
193
  8
8
  6
BYLAYER
 62
  256
 10
314.9509354872918
 20
1944.072518948324
 30
0
  0
VERTEX
  5
194
  8
8
  6
BYLAYER
 62
  256
 10
312.163778831247
 20
1945.221264288752
 30
0
  0
VERTEX
  5
195
  8
8
  6
BYLAYER
 62
  256
 10
309.2683930890763
 20
1946.28663159999
 30
0
  0
VERTEX
  5
196
  8
8
  6
BYLAYER
 62
  256
 10
306.2627167543772
 20
1947.266375291278
 30
0
  0
VERTEX
  5
197
  8
8
  6
BYLAYER
 62
  256
 10
303.1446883207473
 20
1948.158249771856
 30
0
  0
VERTEX
  5
198
  8
8
  6
BYLAYER
 62
  256
 10
299.9122462817842
 20
1948.960009450964
 30
0
  0
VERTEX
  5
199
  8
8
  6
BYLAYER
 62
  256
 10
296.5633291310855
 20
1949.669408737844
 30
0
  0
VERTEX
  5
19A
  8
8
  6
BYLAYER
 62
  256
 10
293.0958753622488
 20
1950.284202041734
 30
0
  0
VERTEX
  5
19B
  8
8
  6
BYLAYER
 62
  256
 10
289.5078234688717
 20
1950.802143771875
 30
0
  0
VERTEX
  5
19C
  8
8
  6
BYLAYER
 62
  256
 10
285.7971119445518
 20
1951.220988337508
 30
0
  0
VERTEX
  5
19D
  8
8
  6
BYLAYER
 62
  256
 10
281.9616792828868
 20
1951.538490147872
 30
0
  0
VERTEX
  5
19E
  8
8
  6
BYLAYER
 62
  256
 10
277.9994639774741
 20
1951.752403612208
 30
0
  0
VERTEX
  5
19F
  8
8
  6
BYLAYER
 62
  256
 10
273.9084045219113
 20
1951.860483139756
 30
0
  0
VERTEX
  5
1A0
  8
8
  6
BYLAYER
 62
  256
 10
271.8084166666665
 20
1951.869583333333
 30
0
  0
VERTEX
  5
1A1
  8
8
  6
BYLAYER
 62
  256
 10
271.8084166666665
 20
2083.889583333333
 30
0
  0
VERTEX
  5
1A2
  8
8
  6
BYLAYER
 62
  256
 10
271.8084166666665
 20
2253.864583333333
 30
0
  0
SEQEND
  5
1A3
  8
8
  6
BYLAYER
 62
  256
  0
POLYLINE
  5
1A4
  8
8
  6
BYLAYER
 62
  256
 66
    1
 10
0
 20
0
 30
0
 70
    0
  0
VERTEX
  5
1A5
  8
8
  6
BYLAYER
 62
  256
 10
849.9654446762889
 20
2253.864583333333
 30
0
  0
VERTEX
  5
1A6
  8
8
  6
BYLAYER
 62
  256
 10
849.9654446762889
 20
2253.864583333333
 30
0
  0
VERTEX
  5
1A7
  8
8
  6
BYLAYER
 62
  256
 10
847.348684994736
 20
2241.96980540973
 30
0
  0
VERTEX
  5
1A8
  8
8
  6
BYLAYER
 62
  256
 10
840.6440196309887
 20
2212.41670944766
 30
0
  0
VERTEX
  5
1A9
  8
8
  6
BYLAYER
 62
  256
 10
836.3156666666667
 20
2192.889583333333
 30
0
  0
VERTEX
  5
1AA
  8
8
  6
BYLAYER
 62
  256
 10
835.6724613208947
 20
2189.859671419337
 30
0
  0
VERTEX
  5
1AB
  8
8
  6
BYLAYER
 62
  256
 10
834.5034493131752
 20
2183.734245029572
 30
0
  0
VERTEX
  5
1AC
  8
8
  6
BYLAYER
 62
  256
 10
832.8852492708679
 20
2174.458953117872
 30
0
  0
VERTEX
  5
1AD
  8
8
  6
BYLAYER
 62
  256
 10
831.2267066914732
 20
2165.165487824385
 30
0
  0
VERTEX
  5
1AE
  8
8
  6
BYLAYER
 62
  256
 10
829.9931466244138
 20
2159.010984023763
 30
0
  0
VERTEX
  5
1AF
  8
8
  6
BYLAYER
 62
  256
 10
828.5798917972861
 20
2152.923641830228
 30
0
  0
VERTEX
  5
1B0
  8
8
  6
BYLAYER
 62
  256
 10
826.921519111997
 20
2146.933233627704
 30
0
  0
VERTEX
  5
1B1
  8
8
  6
BYLAYER
 62
  256
 10
825.9656666666667
 20
2143.989583333333
 30
0
  0
VERTEX
  5
1B2
  8
8
  6
BYLAYER
 62
  256
 10
825.3021441145617
 20
2142.070656874083
 30
0
  0
VERTEX
  5
1B3
  8
8
  6
BYLAYER
 62
  256
 10
823.814143325632
 20
2138.273786006678
 30
0
  0
VERTEX
  5
1B4
  8
8
  6
BYLAYER
 62
  256
 10
822.1614275812331
 20
2134.518896088935
 30
0
  0
VERTEX
  5
1B5
  8
8
  6
BYLAYER
 62
  256
 10
820.3755878438035
 20
2130.797989885692
 30
0
  0
VERTEX
  5
1B6
  8
8
  6
BYLAYER
 62
  256
 10
815.5499839870319
 20
2121.588175403102
 30
0
  0
VERTEX
  5
1B7
  8
8
  6
BYLAYER
 62
  256
 10
809.5765718886258
 20
2110.585338007309
 30
0
  0
VERTEX
  5
1B8
  8
8
  6
BYLAYER
 62
  256
 10
806.8008787217535
 20
2105.031422715036
 30
0
  0
VERTEX
  5
1B9
  8
8
  6
BYLAYER
 62
  256
 10
805.0873216878572
 20
2101.29448576182
 30
0
  0
VERTEX
  5
1BA
  8
8
  6
BYLAYER
 62
  256
 10
803.5249593228748
 20
2097.519557406614
 30
0
  0
VERTEX
  5
1BB
  8
8
  6
BYLAYER
 62
  256
 10
802.1453825892448
 20
2093.698640414251
 30
0
  0
VERTEX
  5
1BC
  8
8
  6
BYLAYER
 62
  256
 10
800.9801824494056
 20
2089.823737549566
 30
0
  0
VERTEX
  5
1BD
  8
8
  6
BYLAYER
 62
  256
 10
800.0609498657954
 20
2085.886851577393
 30
0
  0
VERTEX
  5
1BE
  8
8
  6
BYLAYER
 62
  256
 10
799.7156666666666
 20
2083.889583333333
 30
0
  0
VERTEX
  5
1BF
  8
8
  6
BYLAYER
 62
  256
 10
799.2736694672084
 20
2081.038133996663
 30
0
  0
VERTEX
  5
1C0
  8
8
  6
BYLAYER
 62
  256
 10
798.5260639318482
 20
2075.299296908573
 30
0
  0
VERTEX
  5
1C1
  8
8
  6
BYLAYER
 62
  256
 10
797.9352076536509
 20
2069.522447360925
 30
0
  0
VERTEX
  5
1C2
  8
8
  6
BYLAYER
 62
  256
 10
797.4934146558344
 20
2063.713267173876
 30
0
  0
VERTEX
  5
1C3
  8
8
  6
BYLAYER
 62
  256
 10
797.1929989616157
 20
2057.877438167585
 30
0
  0
VERTEX
  5
1C4
  8
8
  6
BYLAYER
 62
  256
 10
797.0262745942125
 20
2052.02064216221
 30
0
  0
VERTEX
  5
1C5
  8
8
  6
BYLAYER
 62
  256
 10
796.9855555768422
 20
2046.148560977908
 30
0
  0
VERTEX
  5
1C6
  8
8
  6
BYLAYER
 62
  256
 10
797.063155932722
 20
2040.266876434837
 30
0
  0
VERTEX
  5
1C7
  8
8
  6
BYLAYER
 62
  256
 10
797.3722041632624
 20
2031.438197155179
 30
0
  0
VERTEX
  5
1C8
  8
8
  6
BYLAYER
 62
  256
 10
798.1450893931324
 20
2019.685389758315
 30
0
  0
VERTEX
  5
1C9
  8
8
  6
BYLAYER
 62
  256
 10
799.2529045339173
 20
2007.996441689213
 30
0
  0
VERTEX
  5
1CA
  8
8
  6
BYLAYER
 62
  256
 10
800.6341617713559
 20
1996.416807509137
 30
0
  0
VERTEX
  5
1CB
  8
8
  6
BYLAYER
 62
  256
 10
801.4156666666668
 20
1990.689583333333
 30
0
  0
VERTEX
  5
1CC
  8
8
  6
BYLAYER
 62
  256
 10
801.7024370728441
 20
1988.760888691671
 30
0
  0
VERTEX
  5
1CD
  8
8
  6
BYLAYER
 62
  256
 10
802.4385004300981
 20
1984.930958960779
 30
0
  0
VERTEX
  5
1CE
  8
8
  6
BYLAYER
 62
  256
 10
803.3488933444546
 20
1981.130555781695
 30
0
  0
VERTEX
  5
1CF
  8
8
  6
BYLAYER
 62
  256
 10
804.4106185972726
 20
1977.355873697625
 30
0
  0
VERTEX
  5
1D0
  8
8
  6
BYLAYER
 62
  256
 10
806.2249182838544
 20
1971.731727256311
 30
0
  0
VERTEX
  5
1D1
  8
8
  6
BYLAYER
 62
  256
 10
808.9803961965634
 20
1964.291024176751
 30
0
  0
VERTEX
  5
1D2
  8
8
  6
BYLAYER
 62
  256
 10
813.4255298290166
 20
1953.186339876763
 30
0
  0
VERTEX
  5
1D3
  8
8
  6
BYLAYER
 62
  256
 10
817.659195447992
 20
1942.053457267495
 30
0
  0
VERTEX
  5
1D4
  8
8
  6
BYLAYER
 62
  256
 10
819.5003261853288
 20
1936.443602401215
 30
0
  0
VERTEX
  5
1D5
  8
8
  6
BYLAYER
 62
  256
 10
820.5842564456681
 20
1932.680747827518
 30
0
  0
VERTEX
  5
1D6
  8
8
  6
BYLAYER
 62
  256
 10
821.0656666666667
 20
1930.789583333333
 30
0
  0
VERTEX
  5
1D7
  8
8
  6
BYLAYER
 62
  256
 10
821.381132287278
 20
1929.438197548902
 30
0
  0
VERTEX
  5
1D8
  8
8
  6
BYLAYER
 62
  256
 10
821.8502032888018
 20
1926.689685530832
 30
0
  0
VERTEX
  5
1D9
  8
8
  6
BYLAYER
 62
  256
 10
822.1466770555069
 20
1923.898459460372
 30
0
  0
VERTEX
  5
1DA
  8
8
  6
BYLAYER
 62
  256
 10
822.2945925349694
 20
1921.078046544915
 30
0
  0
VERTEX
  5
1DB
  8
8
  6
BYLAYER
 62
  256
 10
822.3000638117759
 20
1917.736568225674
 30
0
  0
VERTEX
  5
1DC
  8
8
  6
BYLAYER
 62
  256
 10
822.3000638117759
 20
1917.736568225674
 30
0
  0
SEQEND
  5
1DD
  8
8
  6
BYLAYER
 62
  256
  0
POLYLINE
  5
1DE
  8
8
  6
BYLAYER
 62
  256
 66
    1
 10
0
 20
0
 30
0
 70
    0
  0
VERTEX
  5
1DF
  8
8
  6
BYLAYER
 62
  256
 10
317.8658886570444
 20
2253.864583333333
 30
0
  0
VERTEX
  5
1E0
  8
8
  6
BYLAYER
 62
  256
 10
317.8658886570444
 20
2253.864583333333
 30
0
  0
VERTEX
  5
1E1
  8
8
  6
BYLAYER
 62
  256
 10
320.4826483385973
 20
2241.96980540973
 30
0
  0
VERTEX
  5
1E2
  8
8
  6
BYLAYER
 62
  256
 10
327.1873137023446
 20
2212.41670944766
 30
0
  0
VERTEX
  5
1E3
  8
8
  6
BYLAYER
 62
  256
 10
331.5156666666665
 20
2192.889583333333
 30
0
  0
VERTEX
  5
1E4
  8
8
  6
BYLAYER
 62
  256
 10
332.1588720124384
 20
2189.859671419337
 30
0
  0
VERTEX
  5
1E5
  8
8
  6
BYLAYER
 62
  256
 10
333.327884020158
 20
2183.734245029572
 30
0
  0
VERTEX
  5
1E6
  8
8
  6
BYLAYER
 62
  256
 10
334.9460840624652
 20
2174.458953117872
 30
0
  0
VERTEX
  5
1E7
  8
8
  6
BYLAYER
 62
  256
 10
336.60462664186
 20
2165.165487824385
 30
0
  0
VERTEX
  5
1E8
  8
8
  6
BYLAYER
 62
  256
 10
337.8381867089195
 20
2159.010984023763
 30
0
  0
VERTEX
  5
1E9
  8
8
  6
BYLAYER
 62
  256
 10
339.251441536047
 20
2152.923641830228
 30
0
  0
VERTEX
  5
1EA
  8
8
  6
BYLAYER
 62
  256
 10
340.9098142213363
 20
2146.933233627704
 30
0
  0
VERTEX
  5
1EB
  8
8
  6
BYLAYER
 62
  256
 10
341.8656666666666
 20
2143.989583333333
 30
0
  0
VERTEX
  5
1EC
  8
8
  6
BYLAYER
 62
  256
 10
342.5291892187716
 20
2142.070656874083
 30
0
  0
VERTEX
  5
1ED
  8
8
  6
BYLAYER
 62
  256
 10
344.0171900077013
 20
2138.273786006678
 30
0
  0
VERTEX
  5
1EE
  8
8
  6
BYLAYER
 62
  256
 10
345.6699057521001
 20
2134.518896088935
 30
0
  0
VERTEX
  5
1EF
  8
8
  6
BYLAYER
 62
  256
 10
347.4557454895296
 20
2130.797989885692
 30
0
  0
VERTEX
  5
1F0
  8
8
  6
BYLAYER
 62
  256
 10
352.2813493463013
 20
2121.588175403102
 30
0
  0
VERTEX
  5
1F1
  8
8
  6
BYLAYER
 62
  256
 10
358.2547614447074
 20
2110.585338007309
 30
0
  0
VERTEX
  5
1F2
  8
8
  6
BYLAYER
 62
  256
 10
361.0304546115798
 20
2105.031422715036
 30
0
  0
VERTEX
  5
1F3
  8
8
  6
BYLAYER
 62
  256
 10
362.7440116454761
 20
2101.29448576182
 30
0
  0
VERTEX
  5
1F4
  8
8
  6
BYLAYER
 62
  256
 10
364.3063740104585
 20
2097.519557406614
 30
0
  0
VERTEX
  5
1F5
  8
8
  6
BYLAYER
 62
  256
 10
365.6859507440884
 20
2093.698640414251
 30
0
  0
VERTEX
  5
1F6
  8
8
  6
BYLAYER
 62
  256
 10
366.8511508839276
 20
2089.823737549566
 30
0
  0
VERTEX
  5
1F7
  8
8
  6
BYLAYER
 62
  256
 10
367.770383467538
 20
2085.886851577393
 30
0
  0
VERTEX
  5
1F8
  8
8
  6
BYLAYER
 62
  256
 10
368.1156666666666
 20
2083.889583333333
 30
0
  0
VERTEX
  5
1F9
  8
8
  6
BYLAYER
 62
  256
 10
368.5576638661248
 20
2081.038133996663
 30
0
  0
VERTEX
  5
1FA
  8
8
  6
BYLAYER
 62
  256
 10
369.3052694014851
 20
2075.299296908573
 30
0
  0
VERTEX
  5
1FB
  8
8
  6
BYLAYER
 62
  256
 10
369.8961256796823
 20
2069.522447360925
 30
0
  0
VERTEX
  5
1FC
  8
8
  6
BYLAYER
 62
  256
 10
370.3379186774989
 20
2063.713267173876
 30
0
  0
VERTEX
  5
1FD
  8
8
  6
BYLAYER
 62
  256
 10
370.6383343717175
 20
2057.877438167585
 30
0
  0
VERTEX
  5
1FE
  8
8
  6
BYLAYER
 62
  256
 10
370.8050587391208
 20
2052.02064216221
 30
0
  0
VERTEX
  5
1FF
  8
8
  6
BYLAYER
 62
  256
 10
370.8457777564911
 20
2046.148560977908
 30
0
  0
VERTEX
  5
200
  8
8
  6
BYLAYER
 62
  256
 10
370.7681774006113
 20
2040.266876434837
 30
0
  0
VERTEX
  5
201
  8
8
  6
BYLAYER
 62
  256
 10
370.459129170071
 20
2031.438197155179
 30
0
  0
VERTEX
  5
202
  8
8
  6
BYLAYER
 62
  256
 10
369.6862439402008
 20
2019.685389758315
 30
0
  0
VERTEX
  5
203
  8
8
  6
BYLAYER
 62
  256
 10
368.578428799416
 20
2007.996441689213
 30
0
  0
VERTEX
  5
204
  8
8
  6
BYLAYER
 62
  256
 10
367.1971715619773
 20
1996.416807509137
 30
0
  0
VERTEX
  5
205
  8
8
  6
BYLAYER
 62
  256
 10
366.4156666666666
 20
1990.689583333333
 30
0
  0
VERTEX
  5
206
  8
8
  6
BYLAYER
 62
  256
 10
366.1288962604893
 20
1988.760888691671
 30
0
  0
VERTEX
  5
207
  8
8
  6
BYLAYER
 62
  256
 10
365.3928329032352
 20
1984.930958960779
 30
0
  0
VERTEX
  5
208
  8
8
  6
BYLAYER
 62
  256
 10
364.4824399888785
 20
1981.130555781695
 30
0
  0
VERTEX
  5
209
  8
8
  6
BYLAYER
 62
  256
 10
363.4207147360606
 20
1977.355873697625
 30
0
  0
VERTEX
  5
20A
  8
8
  6
BYLAYER
 62
  256
 10
361.6064150494788
 20
1971.731727256311
 30
0
  0
VERTEX
  5
20B
  8
8
  6
BYLAYER
 62
  256
 10
358.8509371367699
 20
1964.291024176751
 30
0
  0
VERTEX
  5
20C
  8
8
  6
BYLAYER
 62
  256
 10
354.4058035043166
 20
1953.186339876763
 30
0
  0
VERTEX
  5
20D
  8
8
  6
BYLAYER
 62
  256
 10
350.1721378853412
 20
1942.053457267495
 30
0
  0
VERTEX
  5
20E
  8
8
  6
BYLAYER
 62
  256
 10
348.3310071480044
 20
1936.443602401215
 30
0
  0
VERTEX
  5
20F
  8
8
  6
BYLAYER
 62
  256
 10
347.2470768876652
 20
1932.680747827518
 30
0
  0
VERTEX
  5
210
  8
8
  6
BYLAYER
 62
  256
 10
346.7656666666666
 20
1930.789583333333
 30
0
  0
VERTEX
  5
211
  8
8
  6
BYLAYER
 62
  256
 10
346.4502010460554
 20
1929.438197548902
 30
0
  0
VERTEX
  5
212
  8
8
  6
BYLAYER
 62
  256
 10
345.9811300445314
 20
1926.689685530832
 30
0
  0
VERTEX
  5
213
  8
8
  6
BYLAYER
 62
  256
 10
345.6846562778263
 20
1923.898459460372
 30
0
  0
VERTEX
  5
214
  8
8
  6
BYLAYER
 62
  256
 10
345.5367407983638
 20
1921.078046544915
 30
0
  0
VERTEX
  5
215
  8
8
  6
BYLAYER
 62
  256
 10
345.5312695215573
 20
1917.736568225674
 30
0
  0
VERTEX
  5
216
  8
8
  6
BYLAYER
 62
  256
 10
345.5312695215573
 20
1917.736568225674
 30
0
  0
SEQEND
  5
217
  8
8
  6
BYLAYER
 62
  256
  0
POLYLINE
  5
218
  8
8
  6
BYLAYER
 62
  256
 66
    1
 10
0
 20
0
 30
0
 70
    0
  0
VERTEX
  5
219
  8
8
  6
BYLAYER
 62
  256
 10
821.0656666666667
 20
1930.789583333333
 30
0
  0
VERTEX
  5
21A
  8
8
  6
BYLAYER
 62
  256
 10
346.7656666666666
 20
1930.789583333333
 30
0
  0
SEQEND
  5
21B
  8
8
  6
BYLAYER
 62
  256
  0
POLYLINE
  5
21C
  8
8
  6
BYLAYER
 62
  256
 66
    1
 10
0
 20
0
 30
0
 70
    0
  0
VERTEX
  5
21D
  8
8
  6
BYLAYER
 62
  256
 10
799.7156666666666
 20
2083.889583333333
 30
0
  0
VERTEX
  5
21E
  8
8
  6
BYLAYER
 62
  256
 10
368.1156666666666
 20
2083.889583333333
 30
0
  0
SEQEND
  5
21F
  8
8
  6
BYLAYER
 62
  256
  0
LINE
  5
220
  8
7
  6
BYLAYER
 62
  256
 10
583.9156666666668
 20
2253.864583333333
 11
583.9156666666667
 21
1715.989583333333
  0
TEXT
  5
221
  8
1
  6
BYLAYER
 62
  256
 10
633.9156666666667
 20
1913.289583333333
 30
0
 40
2.5
  1
Piece Name: Sweatshirt Back
 50
0
 41
1
 51
0
  7
STANDARD
 71
    0
210
0
220
0
230
1
  0
TEXT
  5
222
  8
1
  6
BYLAYER
 62
  256
 10
633.9156666666667
 20
1910.789583333333
 30
0
 40
2.5
  1
File Name: GBlock-201-Sweatshirt-Parametric-Scalable-V4-Hood-csr1921a-EXTRA
 50
0
 41
1
 51
0
  7
STANDARD
 71
    0
210
0
220
0
230
1
  0
TEXT
  5
223
  8
1
  6
BYLAYER
 62
  256
 10
633.9156666666667
 20
1908.289583333333
 30
0
 40
2.5
  1
Measurement Name: csr1921a-EXTRA
 50
0
 41
1
 51
0
  7
STANDARD
 71
    0
210
0
220
0
230
1
  0
TEXT
  5
224
  8
1
  6
BYLAYER
 62
  256
 10
633.9156666666667
 20
1905.789583333333
 30
0
 40
2.5
  1
Date: 03-25-2026
 50
0
 41
1
 51
0
  7
STANDARD
 71
    0
210
0
220
0
230
1
  0
ENDBLK
  8
1
  0
BLOCK
  8
1
  2
SWEATSHIRT_FRONT
 70
    0
 10
0
 20
0
  3
SWEATSHIRT_FRONT
  1

  0
POLYLINE
  5
225
  8
1
  6
BYLAYER
 62
  256
 66
    1
 10
0
 20
0
 30
0
 70
    1
  0
VERTEX
  5
226
  8
1
  6
BYLAYER
 62
  256
 10
83.5394287656716
 20
1056.678594048132
 30
0
  0
VERTEX
  5
227
  8
1
  6
BYLAYER
 62
  256
 10
83.5394287656716
 20
1233.653594048132
 30
0
  0
VERTEX
  5
228
  8
1
  6
BYLAYER
 62
  256
 10
83.5394287656716
 20
1372.643325619582
 30
0
  0
VERTEX
  5
229
  8
1
  6
BYLAYER
 62
  256
 10
92.53180418085049
 20
1372.682293633989
 30
0
  0
VERTEX
  5
22A
  8
1
  6
BYLAYER
 62
  256
 10
96.4493059984889
 20
1372.785788034453
 30
0
  0
VERTEX
  5
22B
  8
1
  6
BYLAYER
 62
  256
 10
100.2151622880767
 20
1372.989100399634
 30
0
  0
VERTEX
  5
22C
  8
1
  6
BYLAYER
 62
  256
 10
103.8466583338425
 20
1373.289720087312
 30
0
  0
VERTEX
  5
22D
  8
1
  6
BYLAYER
 62
  256
 10
107.3460055704706
 20
1373.68470702276
 30
0
  0
VERTEX
  5
22E
  8
1
  6
BYLAYER
 62
  256
 10
110.7155188225491
 20
1374.171102307827
 30
0
  0
VERTEX
  5
22F
  8
1
  6
BYLAYER
 62
  256
 10
113.9576290285531
 20
1374.745941304396
 30
0
  0
VERTEX
  5
230
  8
1
  6
BYLAYER
 62
  256
 10
117.0748945494561
 20
1375.406269953339
 30
0
  0
VERTEX
  5
231
  8
1
  6
BYLAYER
 62
  256
 10
120.0700100848379
 20
1376.149164285734
 30
0
  0
VERTEX
  5
232
  8
1
  6
BYLAYER
 62
  256
 10
122.9458121141238
 20
1376.971752820672
 30
0
  0
VERTEX
  5
233
  8
1
  6
BYLAYER
 62
  256
 10
125.7052797521957
 20
1377.87124122483
 30
0
  0
VERTEX
  5
234
  8
1
  6
BYLAYER
 62
  256
 10
128.3515299885026
 20
1378.844938255265
 30
0
  0
VERTEX
  5
235
  8
1
  6
BYLAYER
 62
  256
 10
130.8878064929795
 20
1379.890281655764
 30
0
  0
VERTEX
  5
236
  8
1
  6
BYLAYER
 62
  256
 10
133.31746153232
 20
1381.004862378814
 30
0
  0
VERTEX
  5
237
  8
1
  6
BYLAYER
 62
  256
 10
135.6439310369722
 20
1382.186445317908
 30
0
  0
VERTEX
  5
238
  8
1
  6
BYLAYER
 62
  256
 10
137.8707034557181
 20
1383.432984714191
 30
0
  0
VERTEX
  5
239
  8
1
  6
BYLAYER
 62
  256
 10
140.0012836670219
 20
1384.742632588327
 30
0
  0
VERTEX
  5
23A
  8
1
  6
BYLAYER
 62
  256
 10
142.0391537991779
 20
1386.113738955602
 30
0
  0
VERTEX
  5
23B
  8
1
  6
BYLAYER
 62
  256
 10
143.9877332527052
 20
1387.544843185216
 30
0
  0
VERTEX
  5
23C
  8
1
  6
BYLAYER
 62
  256
 10
145.8503404375562
 20
1389.034656599562
 30
0
  0
VERTEX
  5
23D
  8
1
  6
BYLAYER
 62
  256
 10
147.6301586845676
 20
1390.582037181487
 30
0
  0
VERTEX
  5
23E
  8
1
  6
BYLAYER
 62
  256
 10
149.3302084592001
 20
1392.185957957874
 30
0
  0
VERTEX
  5
23F
  8
1
  6
BYLAYER
 62
  256
 10
150.9533274385628
 20
1393.845471155921
 30
0
  0
VERTEX
  5
240
  8
1
  6
BYLAYER
 62
  256
 10
152.4871310269419
 20
1395.543037691318
 30
0
  0
VERTEX
  5
241
  8
1
  6
BYLAYER
 62
  256
 10
154.6870425647157
 20
1398.210896207829
 30
0
  0
VERTEX
  5
242
  8
1
  6
BYLAYER
 62
  256
 10
157.3801130817369
 20
1401.974826058346
 30
0
  0
VERTEX
  5
243
  8
1
  6
BYLAYER
 62
  256
 10
159.8012271251702
 20
1405.921147598291
 30
0
  0
VERTEX
  5
244
  8
1
  6
BYLAYER
 62
  256
 10
161.9768389346892
 20
1410.057745142873
 30
0
  0
VERTEX
  5
245
  8
1
  6
BYLAYER
 62
  256
 10
163.9190726922515
 20
1414.372340132709
 30
0
  0
VERTEX
  5
246
  8
1
  6
BYLAYER
 62
  256
 10
165.6394469572185
 20
1418.850811855013
 30
0
  0
VERTEX
  5
247
  8
1
  6
BYLAYER
 62
  256
 10
167.1493928336637
 20
1423.477454579116
 30
0
  0
VERTEX
  5
248
  8
1
  6
BYLAYER
 62
  256
 10
168.4606021302372
 20
1428.235313491721
 30
0
  0
VERTEX
  5
249
  8
1
  6
BYLAYER
 62
  256
 10
169.5852260449524
 20
1433.106524983811
 30
0
  0
VERTEX
  5
24A
  8
1
  6
BYLAYER
 62
  256
 10
170.5359610602402
 20
1438.072618956221
 30
0
  0
VERTEX
  5
24B
  8
1
  6
BYLAYER
 62
  256
 10
171.326059552368
 20
1443.114766112018
 30
0
  0
VERTEX
  5
24C
  8
1
  6
BYLAYER
 62
  256
 10
171.9692960423353
 20
1448.213969313876
 30
0
  0
VERTEX
  5
24D
  8
1
  6
BYLAYER
 62
  256
 10
172.4799114833507
 20
1453.351206456534
 30
0
  0
VERTEX
  5
24E
  8
1
  6
BYLAYER
 62
  256
 10
172.8717368352305
 20
1458.496852656096
 30
0
  0
VERTEX
  5
24F
  8
1
  6
BYLAYER
 62
  256
 10
173.2828970589043
 20
1466.239950054609
 30
0
  0
VERTEX
  5
250
  8
1
  6
BYLAYER
 62
  256
 10
173.5426342568164
 20
1476.454289060081
 30
0
  0
VERTEX
  5
251
  8
1
  6
BYLAYER
 62
  256
 10
173.6080178241267
 20
1486.405611757527
 30
0
  0
VERTEX
  5
252
  8
1
  6
BYLAYER
 62
  256
 10
173.6080178241267
 20
1491.18752518958
 30
0
  0
VERTEX
  5
253
  8
1
  6
BYLAYER
 62
  256
 10
173.5858041601484
 20
1494.877669076959
 30
0
  0
VERTEX
  5
254
  8
1
  6
BYLAYER
 62
  256
 10
173.3300930760452
 20
1502.584543527862
 30
0
  0
VERTEX
  5
255
  8
1
  6
BYLAYER
 62
  256
 10
172.8425846825289
 20
1510.582566591665
 30
0
  0
VERTEX
  5
256
  8
1
  6
BYLAYER
 62
  256
 10
172.1464709824045
 20
1518.812548359278
 30
0
  0
VERTEX
  5
257
  8
1
  6
BYLAYER
 62
  256
 10
171.266422982786
 20
1527.196202220431
 30
0
  0
VERTEX
  5
258
  8
1
  6
BYLAYER
 62
  256
 10
170.2275666602055
 20
1535.656612541707
 30
0
  0
VERTEX
  5
259
  8
1
  6
BYLAYER
 62
  256
 10
169.055300579002
 20
1544.117830749946
 30
0
  0
VERTEX
  5
25A
  8
1
  6
BYLAYER
 62
  256
 10
167.7762371316068
 20
1552.497746098378
 30
0
  0
VERTEX
  5
25B
  8
1
  6
BYLAYER
 62
  256
 10
165.7149941596926
 20
1564.810415728795
 30
0
  0
VERTEX
  5
25C
  8
1
  6
BYLAYER
 62
  256
 10
162.8154123875318
 20
1580.247629221586
 30
0
  0
VERTEX
  5
25D
  8
1
  6
BYLAYER
 62
  256
 10
159.9502287003948
 20
1594.040928286985
 30
0
  0
VERTEX
  5
25E
  8
1
  6
BYLAYER
 62
  256
 10
157.3244549087766
 20
1605.611587691846
 30
0
  0
VERTEX
  5
25F
  8
1
  6
BYLAYER
 62
  256
 10
154.5307995491928
 20
1617.025942006308
 30
0
  0
VERTEX
  5
260
  8
1
  6
BYLAYER
 62
  256
 10
310.2235100544807
 20
1655.750531991679
 30
0
  0
VERTEX
  5
261
  8
1
  6
BYLAYER
 62
  256
 10
312.6505466977458
 20
1646.21935371672
 30
0
  0
VERTEX
  5
262
  8
1
  6
BYLAYER
 62
  256
 10
314.1749427315189
 20
1640.871599683387
 30
0
  0
VERTEX
  5
263
  8
1
  6
BYLAYER
 62
  256
 10
315.8206491958463
 20
1635.787058725632
 30
0
  0
VERTEX
  5
264
  8
1
  6
BYLAYER
 62
  256
 10
317.5879611671041
 20
1630.942476668024
 30
0
  0
VERTEX
  5
265
  8
1
  6
BYLAYER
 62
  256
 10
319.4718732565188
 20
1626.333151659146
 30
0
  0
VERTEX
  5
266
  8
1
  6
BYLAYER
 62
  256
 10
321.4674534422817
 20
1621.954189107479
 30
0
  0
VERTEX
  5
267
  8
1
  6
BYLAYER
 62
  256
 10
323.5698805801027
 20
1617.800498653915
 30
0
  0
VERTEX
  5
268
  8
1
  6
BYLAYER
 62
  256
 10
325.7744846790013
 20
1613.866799780776
 30
0
  0
VERTEX
  5
269
  8
1
  6
BYLAYER
 62
  256
 10
328.0767877439501
 20
1610.147637711304
 30
0
  0
VERTEX
  5
26A
  8
1
  6
BYLAYER
 62
  256
 10
330.4725423261932
 20
1606.63741067591
 30
0
  0
VERTEX
  5
26B
  8
1
  6
BYLAYER
 62
  256
 10
332.9577644444524
 20
1603.330408733824
 30
0
  0
VERTEX
  5
26C
  8
1
  6
BYLAYER
 62
  256
 10
335.5287573855853
 20
1600.220863195615
 30
0
  0
VERTEX
  5
26D
  8
1
  6
BYLAYER
 62
  256
 10
338.1821231786319
 20
1597.30300442049
 30
0
  0
VERTEX
  5
26E
  8
1
  6
BYLAYER
 62
  256
 10
340.9147593178845
 20
1594.571124551961
 30
0
  0
VERTEX
  5
26F
  8
1
  6
BYLAYER
 62
  256
 10
343.723839551717
 20
1592.019640828722
 30
0
  0
VERTEX
  5
270
  8
1
  6
BYLAYER
 62
  256
 10
346.6067791116565
 20
1589.643154667778
 30
0
  0
VERTEX
  5
271
  8
1
  6
BYLAYER
 62
  256
 10
349.5611863985291
 20
1587.436501894239
 30
0
  0
VERTEX
  5
272
  8
1
  6
BYLAYER
 62
  256
 10
352.5848045953396
 20
1585.394790299232
 30
0
  0
VERTEX
  5
273
  8
1
  6
BYLAYER
 62
  256
 10
355.675447688599
 20
1583.513422027175
 30
0
  0
VERTEX
  5
274
  8
1
  6
BYLAYER
 62
  256
 10
358.8309357860513
 20
1581.788099902928
 30
0
  0
VERTEX
  5
275
  8
1
  6
BYLAYER
 62
  256
 10
362.0490343794309
 20
1580.214818434621
 30
0
  0
VERTEX
  5
276
  8
1
  6
BYLAYER
 62
  256
 10
365.3274014046619
 20
1578.789841611673
 30
0
  0
VERTEX
  5
277
  8
1
  6
BYLAYER
 62
  256
 10
368.6635447834349
 20
1577.509670576513
 30
0
  0
VERTEX
  5
278
  8
1
  6
BYLAYER
 62
  256
 10
372.0547918163081
 20
1576.371004703416
 30
0
  0
VERTEX
  5
279
  8
1
  6
BYLAYER
 62
  256
 10
375.4982705517798
 20
1575.370699593095
 30
0
  0
VERTEX
  5
27A
  8
1
  6
BYLAYER
 62
  256
 10
378.9909022366407
 20
1574.505725088384
 30
0
  0
VERTEX
  5
27B
  8
1
  6
BYLAYER
 62
  256
 10
382.5294032451758
 20
1573.773125774275
 30
0
  0
VERTEX
  5
27C
  8
1
  6
BYLAYER
 62
  256
 10
386.1102945024945
 20
1573.169985686431
 30
0
  0
VERTEX
  5
27D
  8
1
  6
BYLAYER
 62
  256
 10
389.7299163214564
 20
1572.693398232743
 30
0
  0
VERTEX
  5
27E
  8
1
  6
BYLAYER
 62
  256
 10
393.3844466941692
 20
1572.340441711633
 30
0
  0
VERTEX
  5
27F
  8
1
  6
BYLAYER
 62
  256
 10
397.0699213401826
 20
1572.108160329165
 30
0
  0
VERTEX
  5
280
  8
1
  6
BYLAYER
 62
  256
 10
400.7999158737779
 20
1571.993005016364
 30
0
  0
VERTEX
  5
281
  8
1
  6
BYLAYER
 62
  256
 10
402.6466787656717
 20
1571.983683222892
 30
0
  0
VERTEX
  5
282
  8
1
  6
BYLAYER
 62
  256
 10
404.4934416575655
 20
1571.993005016364
 30
0
  0
VERTEX
  5
283
  8
1
  6
BYLAYER
 62
  256
 10
408.2234361911607
 20
1572.108160329165
 30
0
  0
VERTEX
  5
284
  8
1
  6
BYLAYER
 62
  256
 10
411.9089108371741
 20
1572.340441711633
 30
0
  0
VERTEX
  5
285
  8
1
  6
BYLAYER
 62
  256
 10
415.563441209887
 20
1572.693398232743
 30
0
  0
VERTEX
  5
286
  8
1
  6
BYLAYER
 62
  256
 10
419.1830630288488
 20
1573.169985686431
 30
0
  0
VERTEX
  5
287
  8
1
  6
BYLAYER
 62
  256
 10
422.7639542861676
 20
1573.773125774275
 30
0
  0
VERTEX
  5
288
  8
1
  6
BYLAYER
 62
  256
 10
426.3024552947026
 20
1574.505725088384
 30
0
  0
VERTEX
  5
289
  8
1
  6
BYLAYER
 62
  256
 10
429.7950869795636
 20
1575.370699593095
 30
0
  0
VERTEX
  5
28A
  8
1
  6
BYLAYER
 62
  256
 10
433.2385657150351
 20
1576.371004703416
 30
0
  0
VERTEX
  5
28B
  8
1
  6
BYLAYER
 62
  256
 10
436.6298127479085
 20
1577.509670576513
 30
0
  0
VERTEX
  5
28C
  8
1
  6
BYLAYER
 62
  256
 10
439.9659561266816
 20
1578.789841611673
 30
0
  0
VERTEX
  5
28D
  8
1
  6
BYLAYER
 62
  256
 10
443.2443231519122
 20
1580.21481843462
 30
0
  0
VERTEX
  5
28E
  8
1
  6
BYLAYER
 62
  256
 10
446.4624217452921
 20
1581.788099902928
 30
0
  0
VERTEX
  5
28F
  8
1
  6
BYLAYER
 62
  256
 10
449.6179098427444
 20
1583.513422027175
 30
0
  0
VERTEX
  5
290
  8
1
  6
BYLAYER
 62
  256
 10
452.7085529360039
 20
1585.394790299233
 30
0
  0
VERTEX
  5
291
  8
1
  6
BYLAYER
 62
  256
 10
455.7321711328141
 20
1587.436501894239
 30
0
  0
VERTEX
  5
292
  8
1
  6
BYLAYER
 62
  256
 10
458.686578419687
 20
1589.643154667778
 30
0
  0
VERTEX
  5
293
  8
1
  6
BYLAYER
 62
  256
 10
461.5695179796263
 20
1592.019640828722
 30
0
  0
VERTEX
  5
294
  8
1
  6
BYLAYER
 62
  256
 10
464.3785982134587
 20
1594.571124551961
 30
0
  0
VERTEX
  5
295
  8
1
  6
BYLAYER
 62
  256
 10
467.1112343527113
 20
1597.30300442049
 30
0
  0
VERTEX
  5
296
  8
1
  6
BYLAYER
 62
  256
 10
469.7646001457581
 20
1600.220863195615
 30
0
  0
VERTEX
  5
297
  8
1
  6
BYLAYER
 62
  256
 10
472.3355930868909
 20
1603.330408733824
 30
0
  0
VERTEX
  5
298
  8
1
  6
BYLAYER
 62
  256
 10
474.8208152051502
 20
1606.637410675911
 30
0
  0
VERTEX
  5
299
  8
1
  6
BYLAYER
 62
  256
 10
477.2165697873932
 20
1610.147637711304
 30
0
  0
VERTEX
  5
29A
  8
1
  6
BYLAYER
 62
  256
 10
479.5188728523421
 20
1613.866799780776
 30
0
  0
VERTEX
  5
29B
  8
1
  6
BYLAYER
 62
  256
 10
481.7234769512407
 20
1617.800498653915
 30
0
  0
VERTEX
  5
29C
  8
1
  6
BYLAYER
 62
  256
 10
483.8259040890616
 20
1621.954189107479
 30
0
  0
VERTEX
  5
29D
  8
1
  6
BYLAYER
 62
  256
 10
485.8214842748246
 20
1626.333151659146
 30
0
  0
VERTEX
  5
29E
  8
1
  6
BYLAYER
 62
  256
 10
487.7053963642392
 20
1630.942476668024
 30
0
  0
VERTEX
  5
29F
  8
1
  6
BYLAYER
 62
  256
 10
489.472708335497
 20
1635.787058725632
 30
0
  0
VERTEX
  5
2A0
  8
1
  6
BYLAYER
 62
  256
 10
491.1184147998244
 20
1640.871599683387
 30
0
  0
VERTEX
  5
2A1
  8
1
  6
BYLAYER
 62
  256
 10
492.6428108335974
 20
1646.21935371672
 30
0
  0
VERTEX
  5
2A2
  8
1
  6
BYLAYER
 62
  256
 10
495.0698474768627
 20
1655.750531991679
 30
0
  0
VERTEX
  5
2A3
  8
1
  6
BYLAYER
 62
  256
 10
650.7625579821505
 20
1617.025942006308
 30
0
  0
VERTEX
  5
2A4
  8
1
  6
BYLAYER
 62
  256
 10
647.9689026225667
 20
1605.611587691846
 30
0
  0
VERTEX
  5
2A5
  8
1
  6
BYLAYER
 62
  256
 10
645.3431288309486
 20
1594.040928286985
 30
0
  0
VERTEX
  5
2A6
  8
1
  6
BYLAYER
 62
  256
 10
642.4779451438116
 20
1580.247629221586
 30
0
  0
VERTEX
  5
2A7
  8
1
  6
BYLAYER
 62
  256
 10
639.5783633716508
 20
1564.810415728795
 30
0
  0
VERTEX
  5
2A8
  8
1
  6
BYLAYER
 62
  256
 10
637.5171203997365
 20
1552.497746098379
 30
0
  0
VERTEX
  5
2A9
  8
1
  6
BYLAYER
 62
  256
 10
636.2380569523415
 20
1544.117830749946
 30
0
  0
VERTEX
  5
2AA
  8
1
  6
BYLAYER
 62
  256
 10
635.0657908711378
 20
1535.656612541707
 30
0
  0
VERTEX
  5
2AB
  8
1
  6
BYLAYER
 62
  256
 10
634.0269345485572
 20
1527.196202220431
 30
0
  0
VERTEX
  5
2AC
  8
1
  6
BYLAYER
 62
  256
 10
633.1468865489389
 20
1518.812548359278
 30
0
  0
VERTEX
  5
2AD
  8
1
  6
BYLAYER
 62
  256
 10
632.4507728488145
 20
1510.582566591665
 30
0
  0
VERTEX
  5
2AE
  8
1
  6
BYLAYER
 62
  256
 10
631.963264455298
 20
1502.584543527862
 30
0
  0
VERTEX
  5
2AF
  8
1
  6
BYLAYER
 62
  256
 10
631.7075533711949
 20
1494.877669076959
 30
0
  0
VERTEX
  5
2B0
  8
1
  6
BYLAYER
 62
  256
 10
631.6853397072166
 20
1491.18752518958
 30
0
  0
VERTEX
  5
2B1
  8
1
  6
BYLAYER
 62
  256
 10
631.6853397072166
 20
1486.405611757527
 30
0
  0
VERTEX
  5
2B2
  8
1
  6
BYLAYER
 62
  256
 10
631.7507232745269
 20
1476.454289060081
 30
0
  0
VERTEX
  5
2B3
  8
1
  6
BYLAYER
 62
  256
 10
632.010460472439
 20
1466.239950054609
 30
0
  0
VERTEX
  5
2B4
  8
1
  6
BYLAYER
 62
  256
 10
632.421620696113
 20
1458.496852656096
 30
0
  0
VERTEX
  5
2B5
  8
1
  6
BYLAYER
 62
  256
 10
632.8134460479927
 20
1453.351206456534
 30
0
  0
VERTEX
  5
2B6
  8
1
  6
BYLAYER
 62
  256
 10
633.324061489008
 20
1448.213969313876
 30
0
  0
VERTEX
  5
2B7
  8
1
  6
BYLAYER
 62
  256
 10
633.9672979789754
 20
1443.114766112018
 30
0
  0
VERTEX
  5
2B8
  8
1
  6
BYLAYER
 62
  256
 10
634.7573964711031
 20
1438.072618956221
 30
0
  0
VERTEX
  5
2B9
  8
1
  6
BYLAYER
 62
  256
 10
635.7081314863909
 20
1433.106524983811
 30
0
  0
VERTEX
  5
2BA
  8
1
  6
BYLAYER
 62
  256
 10
636.8327554011062
 20
1428.235313491721
 30
0
  0
VERTEX
  5
2BB
  8
1
  6
BYLAYER
 62
  256
 10
638.1439646976797
 20
1423.477454579116
 30
0
  0
VERTEX
  5
2BC
  8
1
  6
BYLAYER
 62
  256
 10
639.6539105741249
 20
1418.850811855013
 30
0
  0
VERTEX
  5
2BD
  8
1
  6
BYLAYER
 62
  256
 10
641.3742848390918
 20
1414.372340132709
 30
0
  0
VERTEX
  5
2BE
  8
1
  6
BYLAYER
 62
  256
 10
643.3165185966542
 20
1410.057745142873
 30
0
  0
VERTEX
  5
2BF
  8
1
  6
BYLAYER
 62
  256
 10
645.4921304061731
 20
1405.921147598291
 30
0
  0
VERTEX
  5
2C0
  8
1
  6
BYLAYER
 62
  256
 10
647.9132444496065
 20
1401.974826058346
 30
0
  0
VERTEX
  5
2C1
  8
1
  6
BYLAYER
 62
  256
 10
650.6063149666277
 20
1398.210896207829
 30
0
  0
VERTEX
  5
2C2
  8
1
  6
BYLAYER
 62
  256
 10
652.8062265044011
 20
1395.543037691318
 30
0
  0
VERTEX
  5
2C3
  8
1
  6
BYLAYER
 62
  256
 10
654.3400300927805
 20
1393.845471155921
 30
0
  0
VERTEX
  5
2C4
  8
1
  6
BYLAYER
 62
  256
 10
655.9631490721432
 20
1392.185957957874
 30
0
  0
VERTEX
  5
2C5
  8
1
  6
BYLAYER
 62
  256
 10
657.6631988467757
 20
1390.582037181487
 30
0
  0
VERTEX
  5
2C6
  8
1
  6
BYLAYER
 62
  256
 10
659.4430170937871
 20
1389.034656599562
 30
0
  0
VERTEX
  5
2C7
  8
1
  6
BYLAYER
 62
  256
 10
661.3056242786381
 20
1387.544843185216
 30
0
  0
VERTEX
  5
2C8
  8
1
  6
BYLAYER
 62
  256
 10
663.2542037321654
 20
1386.113738955602
 30
0
  0
VERTEX
  5
2C9
  8
1
  6
BYLAYER
 62
  256
 10
665.292073864321
 20
1384.742632588327
 30
0
  0
VERTEX
  5
2CA
  8
1
  6
BYLAYER
 62
  256
 10
667.4226540756255
 20
1383.432984714191
 30
0
  0
VERTEX
  5
2CB
  8
1
  6
BYLAYER
 62
  256
 10
669.6494264943716
 20
1382.186445317908
 30
0
  0
VERTEX
  5
2CC
  8
1
  6
BYLAYER
 62
  256
 10
671.975895999023
 20
1381.004862378814
 30
0
  0
VERTEX
  5
2CD
  8
1
  6
BYLAYER
 62
  256
 10
674.405551038363
 20
1379.890281655765
 30
0
  0
VERTEX
  5
2CE
  8
1
  6
BYLAYER
 62
  256
 10
676.9418275428405
 20
1378.844938255265
 30
0
  0
VERTEX
  5
2CF
  8
1
  6
BYLAYER
 62
  256
 10
679.588077779148
 20
1377.87124122483
 30
0
  0
VERTEX
  5
2D0
  8
1
  6
BYLAYER
 62
  256
 10
682.3475454172195
 20
1376.971752820672
 30
0
  0
VERTEX
  5
2D1
  8
1
  6
BYLAYER
 62
  256
 10
685.2233474465054
 20
1376.149164285734
 30
0
  0
VERTEX
  5
2D2
  8
1
  6
BYLAYER
 62
  256
 10
688.2184629818871
 20
1375.406269953339
 30
0
  0
VERTEX
  5
2D3
  8
1
  6
BYLAYER
 62
  256
 10
691.3357285027902
 20
1374.745941304396
 30
0
  0
VERTEX
  5
2D4
  8
1
  6
BYLAYER
 62
  256
 10
694.5778387087943
 20
1374.171102307827
 30
0
  0
VERTEX
  5
2D5
  8
1
  6
BYLAYER
 62
  256
 10
697.9473519608728
 20
1373.68470702276
 30
0
  0
VERTEX
  5
2D6
  8
1
  6
BYLAYER
 62
  256
 10
701.4466991975008
 20
1373.289720087312
 30
0
  0
VERTEX
  5
2D7
  8
1
  6
BYLAYER
 62
  256
 10
705.0781952432667
 20
1372.989100399634
 30
0
  0
VERTEX
  5
2D8
  8
1
  6
BYLAYER
 62
  256
 10
708.8440515328545
 20
1372.785788034453
 30
0
  0
VERTEX
  5
2D9
  8
1
  6
BYLAYER
 62
  256
 10
712.7615533504928
 20
1372.682293633989
 30
0
  0
VERTEX
  5
2DA
  8
1
  6
BYLAYER
 62
  256
 10
721.7539287656717
 20
1372.643325619582
 30
0
  0
VERTEX
  5
2DB
  8
1
  6
BYLAYER
 62
  256
 10
721.7539287656717
 20
1233.653594048132
 30
0
  0
VERTEX
  5
2DC
  8
1
  6
BYLAYER
 62
  256
 10
721.7539287656717
 20
1056.678594048132
 30
0
  0
VERTEX
  5
2DD
  8
1
  6
BYLAYER
 62
  256
 10
83.5394287656716
 20
1056.678594048132
 30
0
  0
SEQEND
  5
2DE
  8
1
  6
BYLAYER
 62
  256
  0
POLYLINE
  5
2DF
  8
8
  6
BYLAYER
 62
  256
 66
    1
 10
0
 20
0
 30
0
 70
    1
  0
VERTEX
  5
2E0
  8
8
  6
BYLAYER
 62
  256
 10
90.53942876567157
 20
1063.678594048132
 30
0
  0
VERTEX
  5
2E1
  8
8
  6
BYLAYER
 62
  256
 10
90.53942876567157
 20
1233.653594048132
 30
0
  0
VERTEX
  5
2E2
  8
8
  6
BYLAYER
 62
  256
 10
90.53942876567157
 20
1365.673594048131
 30
0
  0
VERTEX
  5
2E3
  8
8
  6
BYLAYER
 62
  256
 10
92.63941662091636
 20
1365.682694241709
 30
0
  0
VERTEX
  5
2E4
  8
8
  6
BYLAYER
 62
  256
 10
96.73047607647912
 20
1365.790773769257
 30
0
  0
VERTEX
  5
2E5
  8
8
  6
BYLAYER
 62
  256
 10
100.6926913818918
 20
1366.004687233593
 30
0
  0
VERTEX
  5
2E6
  8
8
  6
BYLAYER
 62
  256
 10
104.5281240435568
 20
1366.322189043957
 30
0
  0
VERTEX
  5
2E7
  8
8
  6
BYLAYER
 62
  256
 10
108.2388355678767
 20
1366.74103360959
 30
0
  0
VERTEX
  5
2E8
  8
8
  6
BYLAYER
 62
  256
 10
111.8268874612538
 20
1367.258975339731
 30
0
  0
VERTEX
  5
2E9
  8
8
  6
BYLAYER
 62
  256
 10
115.2943412300905
 20
1367.873768643621
 30
0
  0
VERTEX
  5
2EA
  8
8
  6
BYLAYER
 62
  256
 10
118.6432583807892
 20
1368.5831679305
 30
0
  0
VERTEX
  5
2EB
  8
8
  6
BYLAYER
 62
  256
 10
121.8757004197523
 20
1369.384927609609
 30
0
  0
VERTEX
  5
2EC
  8
8
  6
BYLAYER
 62
  256
 10
124.9937288533822
 20
1370.276802090187
 30
0
  0
VERTEX
  5
2ED
  8
8
  6
BYLAYER
 62
  256
 10
127.9994051880813
 20
1371.256545781475
 30
0
  0
VERTEX
  5
2EE
  8
8
  6
BYLAYER
 62
  256
 10
130.894790930252
 20
1372.321913092713
 30
0
  0
VERTEX
  5
2EF
  8
8
  6
BYLAYER
 62
  256
 10
133.6819475862968
 20
1373.47065843314
 30
0
  0
VERTEX
  5
2F0
  8
8
  6
BYLAYER
 62
  256
 10
136.3629366626179
 20
1374.700536211998
 30
0
  0
VERTEX
  5
2F1
  8
8
  6
BYLAYER
 62
  256
 10
138.9398196656178
 20
1376.009300838527
 30
0
  0
VERTEX
  5
2F2
  8
8
  6
BYLAYER
 62
  256
 10
141.414658101699
 20
1377.394706721966
 30
0
  0
VERTEX
  5
2F3
  8
8
  6
BYLAYER
 62
  256
 10
143.7895134772637
 20
1378.854508271556
 30
0
  0
VERTEX
  5
2F4
  8
8
  6
BYLAYER
 62
  256
 10
146.0664472987145
 20
1380.386459896537
 30
0
  0
VERTEX
  5
2F5
  8
8
  6
BYLAYER
 62
  256
 10
148.2475210724536
 20
1381.98831600615
 30
0
  0
VERTEX
  5
2F6
  8
8
  6
BYLAYER
 62
  256
 10
150.3347963048836
 20
1383.657831009634
 30
0
  0
VERTEX
  5
2F7
  8
8
  6
BYLAYER
 62
  256
 10
152.3303345024067
 20
1385.39275931623
 30
0
  0
VERTEX
  5
2F8
  8
8
  6
BYLAYER
 62
  256
 10
154.2361971714254
 20
1387.190855335178
 30
0
  0
VERTEX
  5
2F9
  8
8
  6
BYLAYER
 62
  256
 10
156.0544458183421
 20
1389.049873475717
 30
0
  0
VERTEX
  5
2FA
  8
8
  6
BYLAYER
 62
  256
 10
157.7871419495593
 20
1390.967568147089
 30
0
  0
VERTEX
  5
2FB
  8
8
  6
BYLAYER
 62
  256
 10
160.2403345684152
 20
1393.94258360043
 30
0
  0
VERTEX
  5
2FC
  8
8
  6
BYLAYER
 62
  256
 10
163.2171498134808
 20
1398.10308503905
 30
0
  0
VERTEX
  5
2FD
  8
8
  6
BYLAYER
 62
  256
 10
165.8888621109911
 20
1402.457871967324
 30
0
  0
VERTEX
  5
2FE
  8
8
  6
BYLAYER
 62
  256
 10
168.2719635121655
 20
1406.988979659172
 30
0
  0
VERTEX
  5
2FF
  8
8
  6
BYLAYER
 62
  256
 10
170.382946068223
 20
1411.678443388516
 30
0
  0
VERTEX
  5
300
  8
8
  6
BYLAYER
 62
  256
 10
172.238301830383
 20
1416.508298429278
 30
0
  0
VERTEX
  5
301
  8
8
  6
BYLAYER
 62
  256
 10
173.8545228498645
 20
1421.460580055379
 30
0
  0
VERTEX
  5
302
  8
8
  6
BYLAYER
 62
  256
 10
175.2481011778869
 20
1426.517323540742
 30
0
  0
VERTEX
  5
303
  8
8
  6
BYLAYER
 62
  256
 10
176.4355288656693
 20
1431.660564159287
 30
0
  0
VERTEX
  5
304
  8
8
  6
BYLAYER
 62
  256
 10
177.4332979644308
 20
1436.872337184936
 30
0
  0
VERTEX
  5
305
  8
8
  6
BYLAYER
 62
  256
 10
178.2579005253908
 20
1442.134677891611
 30
0
  0
VERTEX
  5
306
  8
8
  6
BYLAYER
 62
  256
 10
178.9258285997684
 20
1447.429621553234
 30
0
  0
VERTEX
  5
307
  8
8
  6
BYLAYER
 62
  256
 10
179.4535742387828
 20
1452.739203443726
 30
0
  0
VERTEX
  5
308
  8
8
  6
BYLAYER
 62
  256
 10
179.8576294936531
 20
1458.045458837008
 30
0
  0
VERTEX
  5
309
  8
8
  6
BYLAYER
 62
  256
 10
180.2781767997427
 20
1465.965336695419
 30
0
  0
VERTEX
  5
30A
  8
8
  6
BYLAYER
 62
  256
 10
180.5420496192499
 20
1476.342311785788
 30
0
  0
VERTEX
  5
30B
  8
8
  6
BYLAYER
 62
  256
 10
180.6080178241267
 20
1486.382615817909
 30
0
  0
VERTEX
  5
30C
  8
8
  6
BYLAYER
 62
  256
 10
180.6080178241267
 20
1491.208594048132
 30
0
  0
VERTEX
  5
30D
  8
8
  6
BYLAYER
 62
  256
 10
180.5851053308252
 20
1495.014827778131
 30
0
  0
VERTEX
  5
30E
  8
8
  6
BYLAYER
 62
  256
 10
180.3230266927337
 20
1502.913613891054
 30
0
  0
VERTEX
  5
30F
  8
8
  6
BYLAYER
 62
  256
 10
179.8246119796042
 20
1511.090565147618
 30
0
  0
VERTEX
  5
310
  8
8
  6
BYLAYER
 62
  256
 10
179.11560375449
 20
1519.472995725748
 30
0
  0
VERTEX
  5
311
  8
8
  6
BYLAYER
 62
  256
 10
178.2217445804446
 20
1527.988219803368
 30
0
  0
VERTEX
  5
312
  8
8
  6
BYLAYER
 62
  256
 10
177.1687770205213
 20
1536.563551558403
 30
0
  0
VERTEX
  5
313
  8
8
  6
BYLAYER
 62
  256
 10
175.9824436377736
 20
1545.126305168778
 30
0
  0
VERTEX
  5
314
  8
8
  6
BYLAYER
 62
  256
 10
174.6884869952549
 20
1553.603794812416
 30
0
  0
VERTEX
  5
315
  8
8
  6
BYLAYER
 62
  256
 10
172.6074786326027
 20
1566.034531419695
 30
0
  0
VERTEX
  5
316
  8
8
  6
BYLAYER
 62
  256
 10
169.6827365455799
 20
1581.605697041651
 30
0
  0
VERTEX
  5
317
  8
8
  6
BYLAYER
 62
  256
 10
166.7908675544344
 20
1595.527461999305
 30
0
  0
VERTEX
  5
318
  8
8
  6
BYLAYER
 62
  256
 10
164.1378121635935
 20
1607.218339716054
 30
0
  0
VERTEX
  5
319
  8
8
  6
BYLAYER
 62
  256
 10
162.9880178241267
 20
1611.916184757824
 30
0
  0
VERTEX
  5
31A
  8
8
  6
BYLAYER
 62
  256
 10
305.1577692063902
 20
1647.27728363479
 30
0
  0
VERTEX
  5
31B
  8
8
  6
BYLAYER
 62
  256
 10
305.891506424044
 20
1644.395835491913
 30
0
  0
VERTEX
  5
31C
  8
8
  6
BYLAYER
 62
  256
 10
307.4770111241817
 20
1638.833705332047
 30
0
  0
VERTEX
  5
31D
  8
8
  6
BYLAYER
 62
  256
 10
309.2004468539727
 20
1633.509013629045
 30
0
  0
VERTEX
  5
31E
  8
8
  6
BYLAYER
 62
  256
 10
311.0576966265917
 20
1628.417892722687
 30
0
  0
VERTEX
  5
31F
  8
8
  6
BYLAYER
 62
  256
 10
313.0446434552133
 20
1623.556474952752
 30
0
  0
VERTEX
  5
320
  8
8
  6
BYLAYER
 62
  256
 10
315.1571703530121
 20
1618.920892659017
 30
0
  0
VERTEX
  5
321
  8
8
  6
BYLAYER
 62
  256
 10
317.3911603331628
 20
1614.507278181263
 30
0
  0
VERTEX
  5
322
  8
8
  6
BYLAYER
 62
  256
 10
319.7424964088401
 20
1610.311763859266
 30
0
  0
VERTEX
  5
323
  8
8
  6
BYLAYER
 62
  256
 10
322.2070615932187
 20
1606.330482032807
 30
0
  0
VERTEX
  5
324
  8
8
  6
BYLAYER
 62
  256
 10
324.780738899473
 20
1602.559565041662
 30
0
  0
VERTEX
  5
325
  8
8
  6
BYLAYER
 62
  256
 10
327.4594113407779
 20
1598.995145225612
 30
0
  0
VERTEX
  5
326
  8
8
  6
BYLAYER
 62
  256
 10
330.2389619303079
 20
1595.633354924434
 30
0
  0
VERTEX
  5
327
  8
8
  6
BYLAYER
 62
  256
 10
333.1152736812378
 20
1592.470326477907
 30
0
  0
VERTEX
  5
328
  8
8
  6
BYLAYER
 62
  256
 10
336.0842296067422
 20
1589.50219222581
 30
0
  0
VERTEX
  5
329
  8
8
  6
BYLAYER
 62
  256
 10
339.1417127199957
 20
1586.725084507922
 30
0
  0
VERTEX
  5
32A
  8
8
  6
BYLAYER
 62
  256
 10
342.2836060341729
 20
1584.13513566402
 30
0
  0
VERTEX
  5
32B
  8
8
  6
BYLAYER
 62
  256
 10
345.5057925624486
 20
1581.728478033884
 30
0
  0
VERTEX
  5
32C
  8
8
  6
BYLAYER
 62
  256
 10
348.8041553179974
 20
1579.501243957292
 30
0
  0
VERTEX
  5
32D
  8
8
  6
BYLAYER
 62
  256
 10
352.174577313994
 20
1577.449565774022
 30
0
  0
VERTEX
  5
32E
  8
8
  6
BYLAYER
 62
  256
 10
355.6129415636128
 20
1575.569575823854
 30
0
  0
VERTEX
  5
32F
  8
8
  6
BYLAYER
 62
  256
 10
359.1151310800288
 20
1573.857406446565
 30
0
  0
VERTEX
  5
330
  8
8
  6
BYLAYER
 62
  256
 10
362.6770288764165
 20
1572.309189981935
 30
0
  0
VERTEX
  5
331
  8
8
  6
BYLAYER
 62
  256
 10
366.2945179659505
 20
1570.921058769743
 30
0
  0
VERTEX
  5
332
  8
8
  6
BYLAYER
 62
  256
 10
369.9634813618055
 20
1569.689145149765
 30
0
  0
VERTEX
  5
333
  8
8
  6
BYLAYER
 62
  256
 10
373.6798020771562
 20
1568.609581461782
 30
0
  0
VERTEX
  5
334
  8
8
  6
BYLAYER
 62
  256
 10
377.4393631251772
 20
1567.678500045572
 30
0
  0
VERTEX
  5
335
  8
8
  6
BYLAYER
 62
  256
 10
381.2380475190431
 20
1566.892033240913
 30
0
  0
VERTEX
  5
336
  8
8
  6
BYLAYER
 62
  256
 10
385.0717382719287
 20
1566.246313387584
 30
0
  0
VERTEX
  5
337
  8
8
  6
BYLAYER
 62
  256
 10
388.9363183970084
 20
1565.737472825364
 30
0
  0
VERTEX
  5
338
  8
8
  6
BYLAYER
 62
  256
 10
392.8276709074572
 20
1565.361643894031
 30
0
  0
VERTEX
  5
339
  8
8
  6
BYLAYER
 62
  256
 10
396.7416788164495
 20
1565.114958933364
 30
0
  0
VERTEX
  5
33A
  8
8
  6
BYLAYER
 62
  256
 10
400.67422513716
 20
1564.993550283141
 30
0
  0
VERTEX
  5
33B
  8
8
  6
BYLAYER
 62
  256
 10
402.6466787656717
 20
1564.983594048132
 30
0
  0
VERTEX
  5
33C
  8
8
  6
BYLAYER
 62
  256
 10
404.6191323941833
 20
1564.993550283141
 30
0
  0
VERTEX
  5
33D
  8
8
  6
BYLAYER
 62
  256
 10
408.5516787148939
 20
1565.114958933364
 30
0
  0
VERTEX
  5
33E
  8
8
  6
BYLAYER
 62
  256
 10
412.4656866238862
 20
1565.361643894031
 30
0
  0
VERTEX
  5
33F
  8
8
  6
BYLAYER
 62
  256
 10
416.357039134335
 20
1565.737472825364
 30
0
  0
VERTEX
  5
340
  8
8
  6
BYLAYER
 62
  256
 10
420.2216192594147
 20
1566.246313387584
 30
0
  0
VERTEX
  5
341
  8
8
  6
BYLAYER
 62
  256
 10
424.0553100123002
 20
1566.892033240913
 30
0
  0
VERTEX
  5
342
  8
8
  6
BYLAYER
 62
  256
 10
427.8539944061662
 20
1567.678500045572
 30
0
  0
VERTEX
  5
343
  8
8
  6
BYLAYER
 62
  256
 10
431.6135554541871
 20
1568.609581461782
 30
0
  0
VERTEX
  5
344
  8
8
  6
BYLAYER
 62
  256
 10
435.3298761695377
 20
1569.689145149765
 30
0
  0
VERTEX
  5
345
  8
8
  6
BYLAYER
 62
  256
 10
438.9988395653928
 20
1570.921058769743
 30
0
  0
VERTEX
  5
346
  8
8
  6
BYLAYER
 62
  256
 10
442.6163286549268
 20
1572.309189981935
 30
0
  0
VERTEX
  5
347
  8
8
  6
BYLAYER
 62
  256
 10
446.1782264513145
 20
1573.857406446565
 30
0
  0
VERTEX
  5
348
  8
8
  6
BYLAYER
 62
  256
 10
449.6804159677304
 20
1575.569575823854
 30
0
  0
VERTEX
  5
349
  8
8
  6
BYLAYER
 62
  256
 10
453.1187802173494
 20
1577.449565774022
 30
0
  0
VERTEX
  5
34A
  8
8
  6
BYLAYER
 62
  256
 10
456.4892022133459
 20
1579.501243957292
 30
0
  0
VERTEX
  5
34B
  8
8
  6
BYLAYER
 62
  256
 10
459.7875649688947
 20
1581.728478033884
 30
0
  0
VERTEX
  5
34C
  8
8
  6
BYLAYER
 62
  256
 10
463.0097514971704
 20
1584.13513566402
 30
0
  0
VERTEX
  5
34D
  8
8
  6
BYLAYER
 62
  256
 10
466.1516448113477
 20
1586.725084507922
 30
0
  0
VERTEX
  5
34E
  8
8
  6
BYLAYER
 62
  256
 10
469.2091279246012
 20
1589.50219222581
 30
0
  0
VERTEX
  5
34F
  8
8
  6
BYLAYER
 62
  256
 10
472.1780838501056
 20
1592.470326477907
 30
0
  0
VERTEX
  5
350
  8
8
  6
BYLAYER
 62
  256
 10
475.0543956010354
 20
1595.633354924434
 30
0
  0
VERTEX
  5
351
  8
8
  6
BYLAYER
 62
  256
 10
477.8339461905655
 20
1598.995145225612
 30
0
  0
VERTEX
  5
352
  8
8
  6
BYLAYER
 62
  256
 10
480.5126186318703
 20
1602.559565041662
 30
0
  0
VERTEX
  5
353
  8
8
  6
BYLAYER
 62
  256
 10
483.0862959381247
 20
1606.330482032807
 30
0
  0
VERTEX
  5
354
  8
8
  6
BYLAYER
 62
  256
 10
485.5508611225032
 20
1610.311763859266
 30
0
  0
VERTEX
  5
355
  8
8
  6
BYLAYER
 62
  256
 10
487.9021971981805
 20
1614.507278181263
 30
0
  0
VERTEX
  5
356
  8
8
  6
BYLAYER
 62
  256
 10
490.1361871783313
 20
1618.920892659017
 30
0
  0
VERTEX
  5
357
  8
8
  6
BYLAYER
 62
  256
 10
492.2487140761301
 20
1623.556474952752
 30
0
  0
VERTEX
  5
358
  8
8
  6
BYLAYER
 62
  256
 10
494.2356609047516
 20
1628.417892722687
 30
0
  0
VERTEX
  5
359
  8
8
  6
BYLAYER
 62
  256
 10
496.0929106773705
 20
1633.509013629045
 30
0
  0
VERTEX
  5
35A
  8
8
  6
BYLAYER
 62
  256
 10
497.8163464071616
 20
1638.833705332047
 30
0
  0
VERTEX
  5
35B
  8
8
  6
BYLAYER
 62
  256
 10
499.4018511072993
 20
1644.395835491913
 30
0
  0
VERTEX
  5
35C
  8
8
  6
BYLAYER
 62
  256
 10
500.1355883249531
 20
1647.27728363479
 30
0
  0
VERTEX
  5
35D
  8
8
  6
BYLAYER
 62
  256
 10
642.3053397072166
 20
1611.916184757824
 30
0
  0
VERTEX
  5
35E
  8
8
  6
BYLAYER
 62
  256
 10
641.1555453677498
 20
1607.218339716054
 30
0
  0
VERTEX
  5
35F
  8
8
  6
BYLAYER
 62
  256
 10
638.5024899769089
 20
1595.527461999305
 30
0
  0
VERTEX
  5
360
  8
8
  6
BYLAYER
 62
  256
 10
635.6106209857634
 20
1581.605697041651
 30
0
  0
VERTEX
  5
361
  8
8
  6
BYLAYER
 62
  256
 10
632.6858788987406
 20
1566.034531419695
 30
0
  0
VERTEX
  5
362
  8
8
  6
BYLAYER
 62
  256
 10
630.6048705360885
 20
1553.603794812416
 30
0
  0
VERTEX
  5
363
  8
8
  6
BYLAYER
 62
  256
 10
629.3109138935697
 20
1545.126305168778
 30
0
  0
VERTEX
  5
364
  8
8
  6
BYLAYER
 62
  256
 10
628.1245805108221
 20
1536.563551558403
 30
0
  0
VERTEX
  5
365
  8
8
  6
BYLAYER
 62
  256
 10
627.0716129508988
 20
1527.988219803368
 30
0
  0
VERTEX
  5
366
  8
8
  6
BYLAYER
 62
  256
 10
626.1777537768533
 20
1519.472995725748
 30
0
  0
VERTEX
  5
367
  8
8
  6
BYLAYER
 62
  256
 10
625.4687455517391
 20
1511.090565147618
 30
0
  0
VERTEX
  5
368
  8
8
  6
BYLAYER
 62
  256
 10
624.9703308386096
 20
1502.913613891054
 30
0
  0
VERTEX
  5
369
  8
8
  6
BYLAYER
 62
  256
 10
624.7082522005181
 20
1495.014827778131
 30
0
  0
VERTEX
  5
36A
  8
8
  6
BYLAYER
 62
  256
 10
624.6853397072166
 20
1491.208594048132
 30
0
  0
VERTEX
  5
36B
  8
8
  6
BYLAYER
 62
  256
 10
624.6853397072166
 20
1486.382615817909
 30
0
  0
VERTEX
  5
36C
  8
8
  6
BYLAYER
 62
  256
 10
624.7513079120934
 20
1476.342311785788
 30
0
  0
VERTEX
  5
36D
  8
8
  6
BYLAYER
 62
  256
 10
625.0151807316005
 20
1465.965336695419
 30
0
  0
VERTEX
  5
36E
  8
8
  6
BYLAYER
 62
  256
 10
625.4357280376902
 20
1458.045458837008
 30
0
  0
VERTEX
  5
36F
  8
8
  6
BYLAYER
 62
  256
 10
625.8397832925606
 20
1452.739203443726
 30
0
  0
VERTEX
  5
370
  8
8
  6
BYLAYER
 62
  256
 10
626.367528931575
 20
1447.429621553234
 30
0
  0
VERTEX
  5
371
  8
8
  6
BYLAYER
 62
  256
 10
627.0354570059526
 20
1442.134677891611
 30
0
  0
VERTEX
  5
372
  8
8
  6
BYLAYER
 62
  256
 10
627.8600595669126
 20
1436.872337184936
 30
0
  0
VERTEX
  5
373
  8
8
  6
BYLAYER
 62
  256
 10
628.857828665674
 20
1431.660564159287
 30
0
  0
VERTEX
  5
374
  8
8
  6
BYLAYER
 62
  256
 10
630.0452563534565
 20
1426.517323540742
 30
0
  0
VERTEX
  5
375
  8
8
  6
BYLAYER
 62
  256
 10
631.4388346814789
 20
1421.460580055379
 30
0
  0
VERTEX
  5
376
  8
8
  6
BYLAYER
 62
  256
 10
633.0550557009603
 20
1416.508298429278
 30
0
  0
VERTEX
  5
377
  8
8
  6
BYLAYER
 62
  256
 10
634.9104114631203
 20
1411.678443388516
 30
0
  0
VERTEX
  5
378
  8
8
  6
BYLAYER
 62
  256
 10
637.0213940191778
 20
1406.988979659172
 30
0
  0
VERTEX
  5
379
  8
8
  6
BYLAYER
 62
  256
 10
639.4044954203522
 20
1402.457871967324
 30
0
  0
VERTEX
  5
37A
  8
8
  6
BYLAYER
 62
  256
 10
642.0762077178625
 20
1398.10308503905
 30
0
  0
VERTEX
  5
37B
  8
8
  6
BYLAYER
 62
  256
 10
645.0530229629281
 20
1393.94258360043
 30
0
  0
VERTEX
  5
37C
  8
8
  6
BYLAYER
 62
  256
 10
647.506215581784
 20
1390.967568147089
 30
0
  0
VERTEX
  5
37D
  8
8
  6
BYLAYER
 62
  256
 10
649.2389117130012
 20
1389.049873475717
 30
0
  0
VERTEX
  5
37E
  8
8
  6
BYLAYER
 62
  256
 10
651.0571603599179
 20
1387.190855335178
 30
0
  0
VERTEX
  5
37F
  8
8
  6
BYLAYER
 62
  256
 10
652.9630230289366
 20
1385.39275931623
 30
0
  0
VERTEX
  5
380
  8
8
  6
BYLAYER
 62
  256
 10
654.9585612264597
 20
1383.657831009634
 30
0
  0
VERTEX
  5
381
  8
8
  6
BYLAYER
 62
  256
 10
657.0458364588897
 20
1381.98831600615
 30
0
  0
VERTEX
  5
382
  8
8
  6
BYLAYER
 62
  256
 10
659.2269102326288
 20
1380.386459896537
 30
0
  0
VERTEX
  5
383
  8
8
  6
BYLAYER
 62
  256
 10
661.5038440540795
 20
1378.854508271556
 30
0
  0
VERTEX
  5
384
  8
8
  6
BYLAYER
 62
  256
 10
663.8786994296444
 20
1377.394706721966
 30
0
  0
VERTEX
  5
385
  8
8
  6
BYLAYER
 62
  256
 10
666.3535378657253
 20
1376.009300838527
 30
0
  0
VERTEX
  5
386
  8
8
  6
BYLAYER
 62
  256
 10
668.9304208687255
 20
1374.700536211998
 30
0
  0
VERTEX
  5
387
  8
8
  6
BYLAYER
 62
  256
 10
671.6114099450465
 20
1373.47065843314
 30
0
  0
VERTEX
  5
388
  8
8
  6
BYLAYER
 62
  256
 10
674.3985666010913
 20
1372.321913092713
 30
0
  0
VERTEX
  5
389
  8
8
  6
BYLAYER
 62
  256
 10
677.293952343262
 20
1371.256545781475
 30
0
  0
VERTEX
  5
38A
  8
8
  6
BYLAYER
 62
  256
 10
680.2996286779611
 20
1370.276802090187
 30
0
  0
VERTEX
  5
38B
  8
8
  6
BYLAYER
 62
  256
 10
683.417657111591
 20
1369.384927609609
 30
0
  0
VERTEX
  5
38C
  8
8
  6
BYLAYER
 62
  256
 10
686.6500991505541
 20
1368.5831679305
 30
0
  0
VERTEX
  5
38D
  8
8
  6
BYLAYER
 62
  256
 10
689.9990163012528
 20
1367.873768643621
 30
0
  0
VERTEX
  5
38E
  8
8
  6
BYLAYER
 62
  256
 10
693.4664700700895
 20
1367.258975339731
 30
0
  0
VERTEX
  5
38F
  8
8
  6
BYLAYER
 62
  256
 10
697.0545219634666
 20
1366.74103360959
 30
0
  0
VERTEX
  5
390
  8
8
  6
BYLAYER
 62
  256
 10
700.7652334877865
 20
1366.322189043957
 30
0
  0
VERTEX
  5
391
  8
8
  6
BYLAYER
 62
  256
 10
704.6006661494515
 20
1366.004687233593
 30
0
  0
VERTEX
  5
392
  8
8
  6
BYLAYER
 62
  256
 10
708.5628814548642
 20
1365.790773769257
 30
0
  0
VERTEX
  5
393
  8
8
  6
BYLAYER
 62
  256
 10
712.653940910427
 20
1365.682694241709
 30
0
  0
VERTEX
  5
394
  8
8
  6
BYLAYER
 62
  256
 10
714.7539287656716
 20
1365.673594048131
 30
0
  0
VERTEX
  5
395
  8
8
  6
BYLAYER
 62
  256
 10
714.7539287656716
 20
1233.653594048132
 30
0
  0
VERTEX
  5
396
  8
8
  6
BYLAYER
 62
  256
 10
714.7539287656716
 20
1063.678594048132
 30
0
  0
SEQEND
  5
397
  8
8
  6
BYLAYER
 62
  256
  0
POLYLINE
  5
398
  8
8
  6
BYLAYER
 62
  256
 66
    1
 10
0
 20
0
 30
0
 70
    0
  0
VERTEX
  5
399
  8
8
  6
BYLAYER
 62
  256
 10
136.9527042352321
 20
1063.678594048132
 30
0
  0
VERTEX
  5
39A
  8
8
  6
BYLAYER
 62
  256
 10
136.9527042352321
 20
1063.678594048132
 30
0
  0
VERTEX
  5
39B
  8
8
  6
BYLAYER
 62
  256
 10
135.7154258952793
 20
1075.55473266225
 30
0
  0
VERTEX
  5
39C
  8
8
  6
BYLAYER
 62
  256
 10
134.3065598322491
 20
1090.356693057188
 30
0
  0
VERTEX
  5
39D
  8
8
  6
BYLAYER
 62
  256
 10
133.6438517920611
 20
1100.211495100495
 30
0
  0
VERTEX
  5
39E
  8
8
  6
BYLAYER
 62
  256
 10
133.401437297285
 20
1107.580269123809
 30
0
  0
VERTEX
  5
39F
  8
8
  6
BYLAYER
 62
  256
 10
133.3766414594532
 20
1112.4787369866
 30
0
  0
VERTEX
  5
3A0
  8
8
  6
BYLAYER
 62
  256
 10
133.4865179983246
 20
1117.36239793618
 30
0
  0
VERTEX
  5
3A1
  8
8
  6
BYLAYER
 62
  256
 10
133.747310071874
 20
1122.228670709089
 30
0
  0
VERTEX
  5
3A2
  8
8
  6
BYLAYER
 62
  256
 10
133.9466787656716
 20
1124.653594048132
 30
0
  0
VERTEX
  5
3A3
  8
8
  6
BYLAYER
 62
  256
 10
134.1047267014354
 20
1126.233923837845
 30
0
  0
VERTEX
  5
3A4
  8
8
  6
BYLAYER
 62
  256
 10
134.5909842624932
 20
1129.36766149227
 30
0
  0
VERTEX
  5
3A5
  8
8
  6
BYLAYER
 62
  256
 10
135.2593607848469
 20
1132.472616740046
 30
0
  0
VERTEX
  5
3A6
  8
8
  6
BYLAYER
 62
  256
 10
136.0853284172292
 20
1135.552705029345
 30
0
  0
VERTEX
  5
3A7
  8
8
  6
BYLAYER
 62
  256
 10
137.5540745872267
 20
1140.136661751283
 30
0
  0
VERTEX
  5
3A8
  8
8
  6
BYLAYER
 62
  256
 10
139.8572222969563
 20
1146.194621957087
 30
0
  0
VERTEX
  5
3A9
  8
8
  6
BYLAYER
 62
  256
 10
142.3492331239903
 20
1152.223592396082
 30
0
  0
VERTEX
  5
3AA
  8
8
  6
BYLAYER
 62
  256
 10
144.8338842581911
 20
1158.254896653646
 30
0
  0
VERTEX
  5
3AB
  8
8
  6
BYLAYER
 62
  256
 10
146.5635416008658
 20
1162.800535449987
 30
0
  0
VERTEX
  5
3AC
  8
8
  6
BYLAYER
 62
  256
 10
147.6163885138371
 20
1165.847303803986
 30
0
  0
VERTEX
  5
3AD
  8
8
  6
BYLAYER
 62
  256
 10
148.5570201728974
 20
1168.9122751294
 30
0
  0
VERTEX
  5
3AE
  8
8
  6
BYLAYER
 62
  256
 10
149.3609087267798
 20
1171.999364874404
 30
0
  0
VERTEX
  5
3AF
  8
8
  6
BYLAYER
 62
  256
 10
149.6966787656716
 20
1173.553594048132
 30
0
  0
VERTEX
  5
3B0
  8
8
  6
BYLAYER
 62
  256
 10
150.4231936458887
 20
1177.227855521545
 30
0
  0
VERTEX
  5
3B1
  8
8
  6
BYLAYER
 62
  256
 10
151.6124944530439
 20
1184.658249057445
 30
0
  0
VERTEX
  5
3B2
  8
8
  6
BYLAYER
 62
  256
 10
152.5502790121429
 20
1192.164015002514
 30
0
  0
VERTEX
  5
3B3
  8
8
  6
BYLAYER
 62
  256
 10
153.3087234297173
 20
1199.719739692621
 30
0
  0
VERTEX
  5
3B4
  8
8
  6
BYLAYER
 62
  256
 10
154.2678750081585
 20
1211.093103911354
 30
0
  0
VERTEX
  5
3B5
  8
8
  6
BYLAYER
 62
  256
 10
155.2297768986122
 20
1222.432529591867
 30
0
  0
VERTEX
  5
3B6
  8
8
  6
BYLAYER
 62
  256
 10
155.992621815407
 20
1229.933952620822
 30
0
  0
VERTEX
  5
3B7
  8
8
  6
BYLAYER
 62
  256
 10
156.4466787656716
 20
1233.653594048132
 30
0
  0
VERTEX
  5
3B8
  8
8
  6
BYLAYER
 62
  256
 10
156.8391733971871
 20
1236.543732831885
 30
0
  0
VERTEX
  5
3B9
  8
8
  6
BYLAYER
 62
  256
 10
157.8491413370752
 20
1242.352742569787
 30
0
  0
VERTEX
  5
3BA
  8
8
  6
BYLAYER
 62
  256
 10
159.0792341077272
 20
1248.190888753104
 30
0
  0
VERTEX
  5
3BB
  8
8
  6
BYLAYER
 62
  256
 10
160.4740632852937
 20
1254.052235649549
 30
0
  0
VERTEX
  5
3BC
  8
8
  6
BYLAYER
 62
  256
 10
162.7507424690258
 20
1262.873727744146
 30
0
  0
VERTEX
  5
3BD
  8
8
  6
BYLAYER
 62
  256
 10
165.8641581794506
 20
1274.664397028329
 30
0
  0
VERTEX
  5
3BE
  8
8
  6
BYLAYER
 62
  256
 10
167.9806604421081
 20
1283.499230198564
 30
0
  0
VERTEX
  5
3BF
  8
8
  6
BYLAYER
 62
  256
 10
169.2007511603205
 20
1289.375130995705
 30
0
  0
VERTEX
  5
3C0
  8
8
  6
BYLAYER
 62
  256
 10
170.1978593185003
 20
1295.232682379951
 30
0
  0
VERTEX
  5
3C1
  8
8
  6
BYLAYER
 62
  256
 10
170.9165964927982
 20
1301.065948619014
 30
0
  0
VERTEX
  5
3C2
  8
8
  6
BYLAYER
 62
  256
 10
171.3015742593645
 20
1306.868993980605
 30
0
  0
VERTEX
  5
3C3
  8
8
  6
BYLAYER
 62
  256
 10
171.3244993383225
 20
1311.196605824222
 30
0
  0
VERTEX
  5
3C4
  8
8
  6
BYLAYER
 62
  256
 10
171.2147420184479
 20
1314.069898097893
 30
0
  0
VERTEX
  5
3C5
  8
8
  6
BYLAYER
 62
  256
 10
170.9903888582252
 20
1316.932296302783
 30
0
  0
VERTEX
  5
3C6
  8
8
  6
BYLAYER
 62
  256
 10
170.6445163046729
 20
1319.783058472357
 30
0
  0
VERTEX
  5
3C7
  8
8
  6
BYLAYER
 62
  256
 10
170.17020080481
 20
1322.621442640079
 30
0
  0
VERTEX
  5
3C8
  8
8
  6
BYLAYER
 62
  256
 10
169.5605188056552
 20
1325.446706839412
 30
0
  0
VERTEX
  5
3C9
  8
8
  6
BYLAYER
 62
  256
 10
169.1966787656716
 20
1326.853594048132
 30
0
  0
VERTEX
  5
3CA
  8
8
  6
BYLAYER
 62
  256
 10
168.8618754024142
 20
1328.048600556026
 30
0
  0
VERTEX
  5
3CB
  8
8
  6
BYLAYER
 62
  256
 10
168.0640887335573
 20
1330.369603792564
 30
0
  0
VERTEX
  5
3CC
  8
8
  6
BYLAYER
 62
  256
 10
167.1204543483756
 20
1332.61222389593
 30
0
  0
VERTEX
  5
3CD
  8
8
  6
BYLAYER
 62
  256
 10
166.0398258185195
 20
1334.781381534936
 30
0
  0
VERTEX
  5
3CE
  8
8
  6
BYLAYER
 62
  256
 10
164.8310567156396
 20
1336.881997378392
 30
0
  0
VERTEX
  5
3CF
  8
8
  6
BYLAYER
 62
  256
 10
163.5030006113865
 20
1338.918992095108
 30
0
  0
VERTEX
  5
3D0
  8
8
  6
BYLAYER
 62
  256
 10
162.0645110774107
 20
1340.897286353896
 30
0
  0
VERTEX
  5
3D1
  8
8
  6
BYLAYER
 62
  256
 10
160.5244416853627
 20
1342.821800823565
 30
0
  0
VERTEX
  5
3D2
  8
8
  6
BYLAYER
 62
  256
 10
158.0531732925093
 20
1345.623684151132
 30
0
  0
VERTEX
  5
3D3
  8
8
  6
BYLAYER
 62
  256
 10
154.4697982197868
 20
1349.209082381488
 30
0
  0
VERTEX
  5
3D4
  8
8
  6
BYLAYER
 62
  256
 10
150.6394680044855
 20
1352.667933493961
 30
0
  0
VERTEX
  5
3D5
  8
8
  6
BYLAYER
 62
  256
 10
146.6330112198096
 20
1356.039602839037
 30
0
  0
VERTEX
  5
3D6
  8
8
  6
BYLAYER
 62
  256
 10
140.4479081211483
 20
1361.018348795864
 30
0
  0
VERTEX
  5
3D7
  8
8
  6
BYLAYER
 62
  256
 10
134.2651671815776
 20
1366.025173774726
 30
0
  0
VERTEX
  5
3D8
  8
8
  6
BYLAYER
 62
  256
 10
130.2624898514466
 20
1369.441769555058
 30
0
  0
VERTEX
  5
3D9
  8
8
  6
BYLAYER
 62
  256
 10
128.2100607950403
 20
1371.334057248881
 30
0
  0
VERTEX
  5
3DA
  8
8
  6
BYLAYER
 62
  256
 10
128.2100607950403
 20
1371.334057248881
 30
0
  0
SEQEND
  5
3DB
  8
8
  6
BYLAYER
 62
  256
  0
POLYLINE
  5
3DC
  8
8
  6
BYLAYER
 62
  256
 66
    1
 10
0
 20
0
 30
0
 70
    0
  0
VERTEX
  5
3DD
  8
8
  6
BYLAYER
 62
  256
 10
668.3406532961112
 20
1063.678594048132
 30
0
  0
VERTEX
  5
3DE
  8
8
  6
BYLAYER
 62
  256
 10
668.3406532961112
 20
1063.678594048132
 30
0
  0
VERTEX
  5
3DF
  8
8
  6
BYLAYER
 62
  256
 10
669.577931636064
 20
1075.55473266225
 30
0
  0
VERTEX
  5
3E0
  8
8
  6
BYLAYER
 62
  256
 10
670.9867976990942
 20
1090.356693057188
 30
0
  0
VERTEX
  5
3E1
  8
8
  6
BYLAYER
 62
  256
 10
671.6495057392822
 20
1100.211495100495
 30
0
  0
VERTEX
  5
3E2
  8
8
  6
BYLAYER
 62
  256
 10
671.8919202340583
 20
1107.580269123809
 30
0
  0
VERTEX
  5
3E3
  8
8
  6
BYLAYER
 62
  256
 10
671.9167160718902
 20
1112.4787369866
 30
0
  0
VERTEX
  5
3E4
  8
8
  6
BYLAYER
 62
  256
 10
671.8068395330185
 20
1117.36239793618
 30
0
  0
VERTEX
  5
3E5
  8
8
  6
BYLAYER
 62
  256
 10
671.5460474594694
 20
1122.228670709089
 30
0
  0
VERTEX
  5
3E6
  8
8
  6
BYLAYER
 62
  256
 10
671.3466787656719
 20
1124.653594048132
 30
0
  0
VERTEX
  5
3E7
  8
8
  6
BYLAYER
 62
  256
 10
671.188630829908
 20
1126.233923837845
 30
0
  0
VERTEX
  5
3E8
  8
8
  6
BYLAYER
 62
  256
 10
670.7023732688501
 20
1129.36766149227
 30
0
  0
VERTEX
  5
3E9
  8
8
  6
BYLAYER
 62
  256
 10
670.0339967464964
 20
1132.472616740046
 30
0
  0
VERTEX
  5
3EA
  8
8
  6
BYLAYER
 62
  256
 10
669.2080291141141
 20
1135.552705029345
 30
0
  0
VERTEX
  5
3EB
  8
8
  6
BYLAYER
 62
  256
 10
667.7392829441167
 20
1140.136661751283
 30
0
  0
VERTEX
  5
3EC
  8
8
  6
BYLAYER
 62
  256
 10
665.4361352343872
 20
1146.194621957087
 30
0
  0
VERTEX
  5
3ED
  8
8
  6
BYLAYER
 62
  256
 10
662.944124407353
 20
1152.223592396082
 30
0
  0
VERTEX
  5
3EE
  8
8
  6
BYLAYER
 62
  256
 10
660.4594732731522
 20
1158.254896653646
 30
0
  0
VERTEX
  5
3EF
  8
8
  6
BYLAYER
 62
  256
 10
658.7298159304775
 20
1162.800535449987
 30
0
  0
VERTEX
  5
3F0
  8
8
  6
BYLAYER
 62
  256
 10
657.6769690175062
 20
1165.847303803986
 30
0
  0
VERTEX
  5
3F1
  8
8
  6
BYLAYER
 62
  256
 10
656.7363373584458
 20
1168.9122751294
 30
0
  0
VERTEX
  5
3F2
  8
8
  6
BYLAYER
 62
  256
 10
655.9324488045635
 20
1171.999364874404
 30
0
  0
VERTEX
  5
3F3
  8
8
  6
BYLAYER
 62
  256
 10
655.5966787656718
 20
1173.553594048132
 30
0
  0
VERTEX
  5
3F4
  8
8
  6
BYLAYER
 62
  256
 10
654.8701638854546
 20
1177.227855521545
 30
0
  0
VERTEX
  5
3F5
  8
8
  6
BYLAYER
 62
  256
 10
653.6808630782995
 20
1184.658249057445
 30
0
  0
VERTEX
  5
3F6
  8
8
  6
BYLAYER
 62
  256
 10
652.7430785192005
 20
1192.164015002514
 30
0
  0
VERTEX
  5
3F7
  8
8
  6
BYLAYER
 62
  256
 10
651.9846341016259
 20
1199.719739692621
 30
0
  0
VERTEX
  5
3F8
  8
8
  6
BYLAYER
 62
  256
 10
651.0254825231849
 20
1211.093103911354
 30
0
  0
VERTEX
  5
3F9
  8
8
  6
BYLAYER
 62
  256
 10
650.0635806327313
 20
1222.432529591867
 30
0
  0
VERTEX
  5
3FA
  8
8
  6
BYLAYER
 62
  256
 10
649.3007357159363
 20
1229.933952620822
 30
0
  0
VERTEX
  5
3FB
  8
8
  6
BYLAYER
 62
  256
 10
648.8466787656718
 20
1233.653594048132
 30
0
  0
VERTEX
  5
3FC
  8
8
  6
BYLAYER
 62
  256
 10
648.4541841341563
 20
1236.543732831885
 30
0
  0
VERTEX
  5
3FD
  8
8
  6
BYLAYER
 62
  256
 10
647.4442161942682
 20
1242.352742569787
 30
0
  0
VERTEX
  5
3FE
  8
8
  6
BYLAYER
 62
  256
 10
646.214123423616
 20
1248.190888753104
 30
0
  0
VERTEX
  5
3FF
  8
8
  6
BYLAYER
 62
  256
 10
644.8192942460496
 20
1254.052235649549
 30
0
  0
VERTEX
  5
400
  8
8
  6
BYLAYER
 62
  256
 10
642.5426150623175
 20
1262.873727744146
 30
0
  0
VERTEX
  5
401
  8
8
  6
BYLAYER
 62
  256
 10
639.4291993518927
 20
1274.664397028329
 30
0
  0
VERTEX
  5
402
  8
8
  6
BYLAYER
 62
  256
 10
637.3126970892353
 20
1283.499230198564
 30
0
  0
VERTEX
  5
403
  8
8
  6
BYLAYER
 62
  256
 10
636.0926063710227
 20
1289.375130995705
 30
0
  0
VERTEX
  5
404
  8
8
  6
BYLAYER
 62
  256
 10
635.095498212843
 20
1295.232682379951
 30
0
  0
VERTEX
  5
405
  8
8
  6
BYLAYER
 62
  256
 10
634.3767610385451
 20
1301.065948619014
 30
0
  0
VERTEX
  5
406
  8
8
  6
BYLAYER
 62
  256
 10
633.9917832719788
 20
1306.868993980605
 30
0
  0
VERTEX
  5
407
  8
8
  6
BYLAYER
 62
  256
 10
633.9688581930209
 20
1311.196605824222
 30
0
  0
VERTEX
  5
408
  8
8
  6
BYLAYER
 62
  256
 10
634.0786155128953
 20
1314.069898097893
 30
0
  0
VERTEX
  5
409
  8
8
  6
BYLAYER
 62
  256
 10
634.3029686731181
 20
1316.932296302783
 30
0
  0
VERTEX
  5
40A
  8
8
  6
BYLAYER
 62
  256
 10
634.6488412266704
 20
1319.783058472357
 30
0
  0
VERTEX
  5
40B
  8
8
  6
BYLAYER
 62
  256
 10
635.1231567265332
 20
1322.621442640079
 30
0
  0
VERTEX
  5
40C
  8
8
  6
BYLAYER
 62
  256
 10
635.7328387256881
 20
1325.446706839412
 30
0
  0
VERTEX
  5
40D
  8
8
  6
BYLAYER
 62
  256
 10
636.0966787656716
 20
1326.853594048132
 30
0
  0
VERTEX
  5
40E
  8
8
  6
BYLAYER
 62
  256
 10
636.431482128929
 20
1328.048600556026
 30
0
  0
VERTEX
  5
40F
  8
8
  6
BYLAYER
 62
  256
 10
637.2292687977861
 20
1330.369603792564
 30
0
  0
VERTEX
  5
410
  8
8
  6
BYLAYER
 62
  256
 10
638.1729031829677
 20
1332.61222389593
 30
0
  0
VERTEX
  5
411
  8
8
  6
BYLAYER
 62
  256
 10
639.2535317128237
 20
1334.781381534936
 30
0
  0
VERTEX
  5
412
  8
8
  6
BYLAYER
 62
  256
 10
640.4623008157037
 20
1336.881997378392
 30
0
  0
VERTEX
  5
413
  8
8
  6
BYLAYER
 62
  256
 10
641.7903569199568
 20
1338.918992095108
 30
0
  0
VERTEX
  5
414
  8
8
  6
BYLAYER
 62
  256
 10
643.2288464539326
 20
1340.897286353896
 30
0
  0
VERTEX
  5
415
  8
8
  6
BYLAYER
 62
  256
 10
644.7689158459806
 20
1342.821800823565
 30
0
  0
VERTEX
  5
416
  8
8
  6
BYLAYER
 62
  256
 10
647.2401842388341
 20
1345.623684151132
 30
0
  0
VERTEX
  5
417
  8
8
  6
BYLAYER
 62
  256
 10
650.8235593115563
 20
1349.209082381488
 30
0
  0
VERTEX
  5
418
  8
8
  6
BYLAYER
 62
  256
 10
654.6538895268578
 20
1352.667933493961
 30
0
  0
VERTEX
  5
419
  8
8
  6
BYLAYER
 62
  256
 10
658.6603463115337
 20
1356.039602839037
 30
0
  0
VERTEX
  5
41A
  8
8
  6
BYLAYER
 62
  256
 10
664.8454494101951
 20
1361.018348795864
 30
0
  0
VERTEX
  5
41B
  8
8
  6
BYLAYER
 62
  256
 10
671.0281903497657
 20
1366.025173774726
 30
0
  0
VERTEX
  5
41C
  8
8
  6
BYLAYER
 62
  256
 10
675.0308676798968
 20
1369.441769555058
 30
0
  0
VERTEX
  5
41D
  8
8
  6
BYLAYER
 62
  256
 10
677.0832967363029
 20
1371.334057248881
 30
0
  0
VERTEX
  5
41E
  8
8
  6
BYLAYER
 62
  256
 10
677.0832967363029
 20
1371.334057248881
 30
0
  0
SEQEND
  5
41F
  8
8
  6
BYLAYER
 62
  256
  0
POLYLINE
  5
420
  8
8
  6
BYLAYER
 62
  256
 66
    1
 10
0
 20
0
 30
0
 70
    0
  0
VERTEX
  5
421
  8
8
  6
BYLAYER
 62
  256
 10
115.4966787656716
 20
1386.753594048132
 30
0
  0
VERTEX
  5
422
  8
8
  6
BYLAYER
 62
  256
 10
689.7966787656717
 20
1386.753594048132
 30
0
  0
SEQEND
  5
423
  8
8
  6
BYLAYER
 62
  256
  0
POLYLINE
  5
424
  8
8
  6
BYLAYER
 62
  256
 66
    1
 10
0
 20
0
 30
0
 70
    0
  0
VERTEX
  5
425
  8
8
  6
BYLAYER
 62
  256
 10
156.4466787656716
 20
1233.653594048132
 30
0
  0
VERTEX
  5
426
  8
8
  6
BYLAYER
 62
  256
 10
648.8466787656718
 20
1233.653594048132
 30
0
  0
SEQEND
  5
427
  8
8
  6
BYLAYER
 62
  256
  0
LINE
  5
428
  8
7
  6
BYLAYER
 62
  256
 10
402.6466787656715
 20
1063.678594048132
 11
402.6466787656717
 21
1564.983594048132
  0
TEXT
  5
429
  8
1
  6
BYLAYER
 62
  256
 10
352.6466787656716
 20
1419.253594048131
 30
0
 40
2.5
  1
Piece Name: Sweatshirt Front
 50
0
 41
1
 51
0
  7
STANDARD
 71
    0
210
0
220
0
230
1
  0
TEXT
  5
42A
  8
1
  6
BYLAYER
 62
  256
 10
352.6466787656716
 20
1416.753594048131
 30
0
 40
2.5
  1
File Name: GBlock-201-Sweatshirt-Parametric-Scalable-V4-Hood-csr1921a-EXTRA
 50
0
 41
1
 51
0
  7
STANDARD
 71
    0
210
0
220
0
230
1
  0
TEXT
  5
42B
  8
1
  6
BYLAYER
 62
  256
 10
352.6466787656716
 20
1414.253594048131
 30
0
 40
2.5
  1
Measurement Name: csr1921a-EXTRA
 50
0
 41
1
 51
0
  7
STANDARD
 71
    0
210
0
220
0
230
1
  0
TEXT
  5
42C
  8
1
  6
BYLAYER
 62
  256
 10
352.6466787656716
 20
1411.753594048132
 30
0
 40
2.5
  1
Date: 03-25-2026
 50
0
 41
1
 51
0
  7
STANDARD
 71
    0
210
0
220
0
230
1
  0
ENDBLK
  8
1
  0
BLOCK
  8
1
  2
RIB_CUFF
 70
    0
 10
0
 20
0
  3
RIB_CUFF
  1

  0
POLYLINE
  5
42D
  8
1
  6
BYLAYER
 62
  256
 66
    1
 10
0
 20
0
 30
0
 70
    1
  0
VERTEX
  5
42E
  8
1
  6
BYLAYER
 62
  256
 10
115.8084166666665
 20
2260.864583333333
 30
0
  0
VERTEX
  5
42F
  8
1
  6
BYLAYER
 62
  256
 10
259.8084166666665
 20
2260.864583333333
 30
0
  0
VERTEX
  5
430
  8
1
  6
BYLAYER
 62
  256
 10
259.8084166666665
 20
2056.135233333333
 30
0
  0
VERTEX
  5
431
  8
1
  6
BYLAYER
 62
  256
 10
115.8084166666665
 20
2056.135233333333
 30
0
  0
VERTEX
  5
432
  8
1
  6
BYLAYER
 62
  256
 10
115.8084166666665
 20
2260.864583333333
 30
0
  0
SEQEND
  5
433
  8
1
  6
BYLAYER
 62
  256
  0
POLYLINE
  5
434
  8
8
  6
BYLAYER
 62
  256
 66
    1
 10
0
 20
0
 30
0
 70
    1
  0
VERTEX
  5
435
  8
8
  6
BYLAYER
 62
  256
 10
252.8084166666665
 20
2250.864583333333
 30
0
  0
VERTEX
  5
436
  8
8
  6
BYLAYER
 62
  256
 10
252.8084166666665
 20
2066.135233333333
 30
0
  0
VERTEX
  5
437
  8
8
  6
BYLAYER
 62
  256
 10
122.8084166666664
 20
2066.135233333333
 30
0
  0
VERTEX
  5
438
  8
8
  6
BYLAYER
 62
  256
 10
122.8084166666664
 20
2250.864583333333
 30
0
  0
SEQEND
  5
439
  8
8
  6
BYLAYER
 62
  256
  0
POLYLINE
  5
43A
  8
8
  6
BYLAYER
 62
  256
 66
    1
 10
0
 20
0
 30
0
 70
    0
  0
VERTEX
  5
43B
  8
8
  6
BYLAYER
 62
  256
 10
187.8084166666665
 20
2066.135233333333
 30
0
  0
VERTEX
  5
43C
  8
8
  6
BYLAYER
 62
  256
 10
187.8084166666665
 20
2250.864583333333
 30
0
  0
SEQEND
  5
43D
  8
8
  6
BYLAYER
 62
  256
  0
LINE
  5
43E
  8
7
  6
BYLAYER
 62
  256
 10
142.6170124999999
 20
2196.113448933161
 11
242.6170124999998
 21
2196.113448933161
  0
TEXT
  5
43F
  8
1
  6
BYLAYER
 62
  256
 10
162.8084166666665
 20
2215.999908333334
 30
0
 40
2.5
  1
Piece Name: Rib Cuff
 50
0
 41
1
 51
0
  7
STANDARD
 71
    0
210
0
220
0
230
1
  0
TEXT
  5
440
  8
1
  6
BYLAYER
 62
  256
 10
162.8084166666665
 20
2213.499908333333
 30
0
 40
2.5
  1
File Name: GBlock-201-Sweatshirt-Parametric-Scalable-V4-Hood-csr1921a-EXTRA
 50
0
 41
1
 51
0
  7
STANDARD
 71
    0
210
0
220
0
230
1
  0
TEXT
  5
441
  8
1
  6
BYLAYER
 62
  256
 10
162.8084166666665
 20
2210.999908333333
 30
0
 40
2.5
  1
Measurement Name: csr1921a-EXTRA
 50
0
 41
1
 51
0
  7
STANDARD
 71
    0
210
0
220
0
230
1
  0
TEXT
  5
442
  8
1
  6
BYLAYER
 62
  256
 10
162.8084166666665
 20
2208.499908333333
 30
0
 40
2.5
  1
Date: 03-25-2026
 50
0
 41
1
 51
0
  7
STANDARD
 71
    0
210
0
220
0
230
1
  0
ENDBLK
  8
1
  0
BLOCK
  8
1
  2
COLLAR
 70
    0
 10
0
 20
0
  3
COLLAR
  1

  0
POLYLINE
  5
443
  8
1
  6
BYLAYER
 62
  256
 66
    1
 10
0
 20
0
 30
0
 70
    1
  0
VERTEX
  5
444
  8
1
  6
BYLAYER
 62
  256
 10
726.7539287656717
 20
1056.678594048132
 30
0
  0
VERTEX
  5
445
  8
1
  6
BYLAYER
 62
  256
 10
726.7539287656717
 20
1432.52371712102
 30
0
  0
VERTEX
  5
446
  8
1
  6
BYLAYER
 62
  256
 10
790.7539287656717
 20
1432.52371712102
 30
0
  0
VERTEX
  5
447
  8
1
  6
BYLAYER
 62
  256
 10
790.7539287656717
 20
1056.678594048132
 30
0
  0
VERTEX
  5
448
  8
1
  6
BYLAYER
 62
  256
 10
726.7539287656717
 20
1056.678594048132
 30
0
  0
SEQEND
  5
449
  8
1
  6
BYLAYER
 62
  256
  0
POLYLINE
  5
44A
  8
8
  6
BYLAYER
 62
  256
 66
    1
 10
0
 20
0
 30
0
 70
    1
  0
VERTEX
  5
44B
  8
8
  6
BYLAYER
 62
  256
 10
733.7539287656716
 20
1422.523717121021
 30
0
  0
VERTEX
  5
44C
  8
8
  6
BYLAYER
 62
  256
 10
783.7539287656717
 20
1422.523717121021
 30
0
  0
VERTEX
  5
44D
  8
8
  6
BYLAYER
 62
  256
 10
783.7539287656717
 20
1066.678594048132
 30
0
  0
VERTEX
  5
44E
  8
8
  6
BYLAYER
 62
  256
 10
733.7539287656716
 20
1066.678594048132
 30
0
  0
SEQEND
  5
44F
  8
8
  6
BYLAYER
 62
  256
  0
POLYLINE
  5
450
  8
8
  6
BYLAYER
 62
  256
 66
    1
 10
0
 20
0
 30
0
 70
    0
  0
VERTEX
  5
451
  8
8
  6
BYLAYER
 62
  256
 10
758.7539287656717
 20
1422.523717121021
 30
0
  0
VERTEX
  5
452
  8
8
  6
BYLAYER
 62
  256
 10
758.7539287656717
 20
1066.678594048132
 30
0
  0
SEQEND
  5
453
  8
8
  6
BYLAYER
 62
  256
  0
LINE
  5
454
  8
7
  6
BYLAYER
 62
  256
 10
783.8862204323384
 20
1153.831675454354
 11
733.6821204323384
 21
1153.831675454354
  0
TEXT
  5
455
  8
1
  6
BYLAYER
 62
  256
 10
783.7539287656717
 20
1202.101155584576
 30
0
 40
2.5
  1
Piece Name: Collar
 50
0
 41
1
 51
0
  7
STANDARD
 71
    0
210
0
220
0
230
1
  0
TEXT
  5
456
  8
1
  6
BYLAYER
 62
  256
 10
783.7539287656717
 20
1199.601155584576
 30
0
 40
2.5
  1
File Name: GBlock-201-Sweatshirt-Parametric-Scalable-V4-Hood-csr1921a-EXTRA
 50
0
 41
1
 51
0
  7
STANDARD
 71
    0
210
0
220
0
230
1
  0
TEXT
  5
457
  8
1
  6
BYLAYER
 62
  256
 10
783.7539287656717
 20
1197.101155584576
 30
0
 40
2.5
  1
Measurement Name: csr1921a-EXTRA
 50
0
 41
1
 51
0
  7
STANDARD
 71
    0
210
0
220
0
230
1
  0
TEXT
  5
458
  8
1
  6
BYLAYER
 62
  256
 10
783.7539287656717
 20
1194.601155584576
 30
0
 40
2.5
  1
Date: 03-25-2026
 50
0
 41
1
 51
0
  7
STANDARD
 71
    0
210
0
220
0
230
1
  0
ENDBLK
  8
1
  0
BLOCK
  8
1
  2
SLEEVE
 70
    0
 10
0
 20
0
  3
SLEEVE
  1

  0
POLYLINE
  5
459
  8
1
  6
BYLAYER
 62
  256
 66
    1
 10
0
 20
0
 30
0
 70
    1
  0
VERTEX
  5
45A
  8
1
  6
BYLAYER
 62
  256
 10
845.1491086070806
 20
859.5114587064302
 30
0
  0
VERTEX
  5
45B
  8
1
  6
BYLAYER
 62
  256
 10
879.9666072189543
 20
798.6151549019283
 30
0
  0
VERTEX
  5
45C
  8
1
  6
BYLAYER
 62
  256
 10
697.3915510240304
 20
694.2277558565438
 30
0
  0
VERTEX
  5
45D
  8
1
  6
BYLAYER
 62
  256
 10
653.2670016797747
 20
668.999518023337
 30
0
  0
VERTEX
  5
45E
  8
1
  6
BYLAYER
 62
  256
 10
523.1385142464823
 20
594.5984764573475
 30
0
  0
VERTEX
  5
45F
  8
1
  6
BYLAYER
 62
  256
 10
461.3327520080226
 20
559.2609944345998
 30
0
  0
VERTEX
  5
460
  8
1
  6
BYLAYER
 62
  256
 10
456.4783150215346
 20
567.6213991893122
 30
0
  0
VERTEX
  5
461
  8
1
  6
BYLAYER
 62
  256
 10
453.58831353061
 20
572.2422518287234
 30
0
  0
VERTEX
  5
462
  8
1
  6
BYLAYER
 62
  256
 10
450.5072408054332
 20
576.7717423808447
 30
0
  0
VERTEX
  5
463
  8
1
  6
BYLAYER
 62
  256
 10
447.2326278318754
 20
581.2173183100625
 30
0
  0
VERTEX
  5
464
  8
1
  6
BYLAYER
 62
  256
 10
443.7745741913301
 20
585.5667244033167
 30
0
  0
VERTEX
  5
465
  8
1
  6
BYLAYER
 62
  256
 10
440.1433298849626
 20
589.8078281096518
 30
0
  0
VERTEX
  5
466
  8
1
  6
BYLAYER
 62
  256
 10
436.3492804122992
 20
593.9286200121335
 30
0
  0
VERTEX
  5
467
  8
1
  6
BYLAYER
 62
  256
 10
432.4029358598867
 20
597.9172146597947
 30
0
  0
VERTEX
  5
468
  8
1
  6
BYLAYER
 62
  256
 10
428.314923144437
 20
601.7618527660355
 30
0
  0
VERTEX
  5
469
  8
1
  6
BYLAYER
 62
  256
 10
424.0959805275297
 20
605.4509055930398
 30
0
  0
VERTEX
  5
46A
  8
1
  6
BYLAYER
 62
  256
 10
419.7569534585862
 20
608.9728822188221
 30
0
  0
VERTEX
  5
46B
  8
1
  6
BYLAYER
 62
  256
 10
415.3087906893654
 20
612.3164402965484
 30
0
  0
VERTEX
  5
46C
  8
1
  6
BYLAYER
 62
  256
 10
410.7625394204327
 20
615.4704008348456
 30
0
  0
VERTEX
  5
46D
  8
1
  6
BYLAYER
 62
  256
 10
406.1293379756364
 20
618.4237674176309
 30
0
  0
VERTEX
  5
46E
  8
1
  6
BYLAYER
 62
  256
 10
401.4204041489134
 20
621.1657500978976
 30
0
  0
VERTEX
  5
46F
  8
1
  6
BYLAYER
 62
  256
 10
396.6243682873052
 20
623.697750925134
 30
0
  0
VERTEX
  5
470
  8
1
  6
BYLAYER
 62
  256
 10
394.1980596238375
 20
624.8696540052026
 30
0
  0
VERTEX
  5
471
  8
1
  6
BYLAYER
 62
  256
 10
388.9676123141556
 20
627.3798044263061
 30
0
  0
VERTEX
  5
472
  8
1
  6
BYLAYER
 62
  256
 10
378.70075997014
 20
632.6300231754717
 30
0
  0
VERTEX
  5
473
  8
1
  6
BYLAYER
 62
  256
 10
368.6861584218313
 20
638.1695243327715
 30
0
  0
VERTEX
  5
474
  8
1
  6
BYLAYER
 62
  256
 10
361.3434004821212
 20
642.5422279162054
 30
0
  0
VERTEX
  5
475
  8
1
  6
BYLAYER
 62
  256
 10
356.5106224098446
 20
645.5609002815469
 30
0
  0
VERTEX
  5
476
  8
1
  6
BYLAYER
 62
  256
 10
351.7480593121141
 20
648.6610582219737
 30
0
  0
VERTEX
  5
477
  8
1
  6
BYLAYER
 62
  256
 10
347.2033074087217
 20
651.744966080113
 30
0
  0
VERTEX
  5
478
  8
1
  6
BYLAYER
 62
  256
 10
345.880335041695
 20
653.2690074679589
 30
0
  0
VERTEX
  5
479
  8
1
  6
BYLAYER
 62
  256
 10
342.2375554154987
 20
657.6351086714446
 30
0
  0
VERTEX
  5
47A
  8
1
  6
BYLAYER
 62
  256
 10
338.6771000868295
 20
662.0796495982376
 30
0
  0
VERTEX
  5
47B
  8
1
  6
BYLAYER
 62
  256
 10
335.1991998779012
 20
666.6059194870279
 30
0
  0
VERTEX
  5
47C
  8
1
  6
BYLAYER
 62
  256
 10
331.8040760503512
 20
671.2171755796167
 30
0
  0
VERTEX
  5
47D
  8
1
  6
BYLAYER
 62
  256
 10
328.4919355189655
 20
675.9166454646805
 30
0
  0
VERTEX
  5
47E
  8
1
  6
BYLAYER
 62
  256
 10
325.2629663084174
 20
680.7075301582159
 30
0
  0
VERTEX
  5
47F
  8
1
  6
BYLAYER
 62
  256
 10
322.1173334004081
 20
685.5930078455958
 30
0
  0
VERTEX
  5
480
  8
1
  6
BYLAYER
 62
  256
 10
319.055175104248
 20
690.5762381795093
 30
0
  0
VERTEX
  5
481
  8
1
  6
BYLAYER
 62
  256
 10
316.0766000618708
 20
695.6603670026996
 30
0
  0
VERTEX
  5
482
  8
1
  6
BYLAYER
 62
  256
 10
313.1816849700645
 20
700.8485313462398
 30
0
  0
VERTEX
  5
483
  8
1
  6
BYLAYER
 62
  256
 10
310.3704730704563
 20
706.1438645441616
 30
0
  0
VERTEX
  5
484
  8
1
  6
BYLAYER
 62
  256
 10
307.6429734236263
 20
711.5495013045437
 30
0
  0
VERTEX
  5
485
  8
1
  6
BYLAYER
 62
  256
 10
304.9991609503461
 20
717.0685825849004
 30
0
  0
VERTEX
  5
486
  8
1
  6
BYLAYER
 62
  256
 10
302.4389771923613
 20
722.7042601353407
 30
0
  0
VERTEX
  5
487
  8
1
  6
BYLAYER
 62
  256
 10
299.9623317193152
 20
728.4597005947675
 30
0
  0
VERTEX
  5
488
  8
1
  6
BYLAYER
 62
  256
 10
297.569104088638
 20
734.3380890513923
 30
0
  0
VERTEX
  5
489
  8
1
  6
BYLAYER
 62
  256
 10
295.2591462521278
 20
740.3426320071713
 30
0
  0
VERTEX
  5
48A
  8
1
  6
BYLAYER
 62
  256
 10
293.0322852966939
 20
746.4765597141162
 30
0
  0
VERTEX
  5
48B
  8
1
  6
BYLAYER
 62
  256
 10
290.8883264067765
 20
752.7431278772855
 30
0
  0
VERTEX
  5
48C
  8
1
  6
BYLAYER
 62
  256
 10
288.8270559414656
 20
759.1456187430501
 30
0
  0
VERTEX
  5
48D
  8
1
  6
BYLAYER
 62
  256
 10
286.8482445291982
 20
765.6873416109274
 30
0
  0
VERTEX
  5
48E
  8
1
  6
BYLAYER
 62
  256
 10
284.9542942186746
 20
772.3623139681179
 30
0
  0
VERTEX
  5
48F
  8
1
  6
BYLAYER
 62
  256
 10
284.037280206755
 20
775.7758377953326
 30
0
  0
VERTEX
  5
490
  8
1
  6
BYLAYER
 62
  256
 10
283.2901648508172
 20
778.6224550492067
 30
0
  0
VERTEX
  5
491
  8
1
  6
BYLAYER
 62
  256
 10
281.8819550533498
 20
784.3352206964297
 30
0
  0
VERTEX
  5
492
  8
1
  6
BYLAYER
 62
  256
 10
280.566841815894
 20
790.1122588552225
 30
0
  0
VERTEX
  5
493
  8
1
  6
BYLAYER
 62
  256
 10
279.3486910170402
 20
795.9392533807826
 30
0
  0
VERTEX
  5
494
  8
1
  6
BYLAYER
 62
  256
 10
278.2288631765534
 20
801.8121135863138
 30
0
  0
VERTEX
  5
495
  8
1
  6
BYLAYER
 62
  256
 10
277.2087338253775
 20
807.7267469668125
 30
0
  0
VERTEX
  5
496
  8
1
  6
BYLAYER
 62
  256
 10
276.2896929512906
 20
813.6790592582918
 30
0
  0
VERTEX
  5
497
  8
1
  6
BYLAYER
 62
  256
 10
275.4731445702345
 20
819.6649544940535
 30
0
  0
VERTEX
  5
498
  8
1
  6
BYLAYER
 62
  256
 10
274.7605064150008
 20
825.6803350455647
 30
0
  0
VERTEX
  5
499
  8
1
  6
BYLAYER
 62
  256
 10
274.1532097334889
 20
831.72110163627
 30
0
  0
VERTEX
  5
49A
  8
1
  6
BYLAYER
 62
  256
 10
273.6526991891657
 20
837.7831533169154
 30
0
  0
VERTEX
  5
49B
  8
1
  6
BYLAYER
 62
  256
 10
273.260432856575
 20
843.8623873910539
 30
0
  0
VERTEX
  5
49C
  8
1
  6
BYLAYER
 62
  256
 10
272.9778823047723
 20
849.954699279023
 30
0
  0
VERTEX
  5
49D
  8
1
  6
BYLAYER
 62
  256
 10
272.8065327613058
 20
856.0559823083263
 30
0
  0
VERTEX
  5
49E
  8
1
  6
BYLAYER
 62
  256
 10
272.7478833488593
 20
862.1621274175191
 30
0
  0
VERTEX
  5
49F
  8
1
  6
BYLAYER
 62
  256
 10
272.8034473857922
 20
868.2690227599328
 30
0
  0
VERTEX
  5
4A0
  8
1
  6
BYLAYER
 62
  256
 10
272.9747527405801
 20
874.3725531925612
 30
0
  0
VERTEX
  5
4A1
  8
1
  6
BYLAYER
 62
  256
 10
273.2633422284776
 20
880.4685996344613
 30
0
  0
VERTEX
  5
4A2
  8
1
  6
BYLAYER
 62
  256
 10
273.6707740365604
 20
886.553038277959
 30
0
  0
VERTEX
  5
4A3
  8
1
  6
BYLAYER
 62
  256
 10
274.1986221606035
 20
892.621739635141
 30
0
  0
VERTEX
  5
4A4
  8
1
  6
BYLAYER
 62
  256
 10
274.8484768339459
 20
898.6705674013643
 30
0
  0
VERTEX
  5
4A5
  8
1
  6
BYLAYER
 62
  256
 10
275.621944924566
 20
904.6953771172799
 30
0
  0
VERTEX
  5
4A6
  8
1
  6
BYLAYER
 62
  256
 10
276.5206502719817
 20
910.6920146110127
 30
0
  0
VERTEX
  5
4A7
  8
1
  6
BYLAYER
 62
  256
 10
277.1950042871347
 20
914.6137321080028
 30
0
  0
VERTEX
  5
4A8
  8
1
  6
BYLAYER
 62
  256
 10
278.8209252003074
 20
918.1592877190755
 30
0
  0
VERTEX
  5
4A9
  8
1
  6
BYLAYER
 62
  256
 10
281.4584222962822
 20
923.5919857312886
 30
0
  0
VERTEX
  5
4AA
  8
1
  6
BYLAYER
 62
  256
 10
284.2113124145355
 20
928.9519019764866
 30
0
  0
VERTEX
  5
4AB
  8
1
  6
BYLAYER
 62
  256
 10
287.08014948249
 20
934.2345295660671
 30
0
  0
VERTEX
  5
4AC
  8
1
  6
BYLAYER
 62
  256
 10
290.0654977658373
 20
939.4353368169824
 30
0
  0
VERTEX
  5
4AD
  8
1
  6
BYLAYER
 62
  256
 10
293.1679301459772
 20
944.5497644806258
 30
0
  0
VERTEX
  5
4AE
  8
1
  6
BYLAYER
 62
  256
 10
296.3880259178994
 20
949.5732228477962
 30
0
  0
VERTEX
  5
4AF
  8
1
  6
BYLAYER
 62
  256
 10
299.7263680428288
 20
954.5010887839712
 30
0
  0
VERTEX
  5
4B0
  8
1
  6
BYLAYER
 62
  256
 10
303.1743584473161
 20
959.3158818857275
 30
0
  0
VERTEX
  5
4B1
  8
1
  6
BYLAYER
 62
  256
 10
304.9332825286724
 20
961.6603063252296
 30
0
  0
VERTEX
  5
4B2
  8
1
  6
BYLAYER
 62
  256
 10
306.5193383149842
 20
963.7942555165237
 30
0
  0
VERTEX
  5
4B3
  8
1
  6
BYLAYER
 62
  256
 10
309.5240162590804
 20
968.2295858499003
 30
0
  0
VERTEX
  5
4B4
  8
1
  6
BYLAYER
 62
  256
 10
312.3148536543892
 20
972.8303423629734
 30
0
  0
VERTEX
  5
4B5
  8
1
  6
BYLAYER
 62
  256
 10
314.908301756725
 20
977.6058734137181
 30
0
  0
VERTEX
  5
4B6
  8
1
  6
BYLAYER
 62
  256
 10
317.3032413680045
 20
982.5389532208675
 30
0
  0
VERTEX
  5
4B7
  8
1
  6
BYLAYER
 62
  256
 10
319.4987262995825
 20
987.6119781598806
 30
0
  0
VERTEX
  5
4B8
  8
1
  6
BYLAYER
 62
  256
 10
321.4940152826706
 20
992.8070440391986
 30
0
  0
VERTEX
  5
4B9
  8
1
  6
BYLAYER
 62
  256
 10
323.2885864951481
 20
998.1060104624846
 30
0
  0
VERTEX
  5
4BA
  8
1
  6
BYLAYER
 62
  256
 10
324.8821407911633
 20
1003.490552061183
 30
0
  0
VERTEX
  5
4BB
  8
1
  6
BYLAYER
 62
  256
 10
326.2745984105599
 20
1008.942197502179
 30
0
  0
VERTEX
  5
4BC
  8
1
  6
BYLAYER
 62
  256
 10
327.4660927816752
 20
1014.442357701657
 30
0
  0
VERTEX
  5
4BD
  8
1
  6
BYLAYER
 62
  256
 10
328.456964105774
 20
1019.972344832344
 30
0
  0
VERTEX
  5
4BE
  8
1
  6
BYLAYER
 62
  256
 10
329.2477547410118
 20
1025.513383664774
 30
0
  0
VERTEX
  5
4BF
  8
1
  6
BYLAYER
 62
  256
 10
329.8392079690943
 20
1031.046616652206
 30
0
  0
VERTEX
  5
4C0
  8
1
  6
BYLAYER
 62
  256
 10
330.2322714969206
 20
1036.553104035101
 30
0
  0
VERTEX
  5
4C1
  8
1
  6
BYLAYER
 62
  256
 10
330.4288613878078
 20
1042.034856053983
 30
0
  0
VERTEX
  5
4C2
  8
1
  6
BYLAYER
 62
  256
 10
330.4870864233934
 20
1051.71875
 30
0
  0
VERTEX
  5
4C3
  8
1
  6
BYLAYER
 62
  256
 10
401.6864500000003
 20
1051.718749999999
 30
0
  0
VERTEX
  5
4C4
  8
1
  6
BYLAYER
 62
  256
 10
546.682717545267
 20
1051.71875
 30
0
  0
VERTEX
  5
4C5
  8
1
  6
BYLAYER
 62
  256
 10
597.7800509832043
 20
1051.71875
 30
0
  0
VERTEX
  5
4C6
  8
1
  6
BYLAYER
 62
  256
 10
812.7206249999999
 20
1051.71875
 30
0
  0
VERTEX
  5
4C7
  8
1
  6
BYLAYER
 62
  256
 10
812.720625
 20
981.5715139157923
 30
0
  0
VERTEX
  5
4C8
  8
1
  6
BYLAYER
 62
  256
 10
828.9348820891587
 20
920.5414287764009
 30
0
  0
VERTEX
  5
4C9
  8
1
  6
BYLAYER
 62
  256
 10
845.1491086070806
 20
859.5114587064302
 30
0
  0
SEQEND
  5
4CA
  8
1
  6
BYLAYER
 62
  256
  0
POLYLINE
  5
4CB
  8
8
  6
BYLAYER
 62
  256
 66
    1
 10
0
 20
0
 30
0
 70
    1
  0
VERTEX
  5
4CC
  8
8
  6
BYLAYER
 62
  256
 10
838.6185201847626
 20
856.8305905713052
 30
0
  0
VERTEX
  5
4CD
  8
8
  6
BYLAYER
 62
  256
 10
870.4153006884952
 20
801.2175660072706
 30
0
  0
VERTEX
  5
4CE
  8
8
  6
BYLAYER
 62
  256
 10
693.9171033114721
 20
700.3046146744443
 30
0
  0
VERTEX
  5
4CF
  8
8
  6
BYLAYER
 62
  256
 10
649.7925539672163
 20
675.0763768412378
 30
0
  0
VERTEX
  5
4D0
  8
8
  6
BYLAYER
 62
  256
 10
519.6640665339239
 20
600.675335275248
 30
0
  0
VERTEX
  5
4D1
  8
8
  6
BYLAYER
 62
  256
 10
463.8947147767987
 20
568.7891746041097
 30
0
  0
VERTEX
  5
4D2
  8
8
  6
BYLAYER
 62
  256
 10
462.4741170269145
 20
571.2357553745931
 30
0
  0
VERTEX
  5
4D3
  8
8
  6
BYLAYER
 62
  256
 10
459.4518432946377
 20
576.0680994396985
 30
0
  0
VERTEX
  5
4D4
  8
8
  6
BYLAYER
 62
  256
 10
456.2212142616661
 20
580.8174529887665
 30
0
  0
VERTEX
  5
4D5
  8
8
  6
BYLAYER
 62
  256
 10
452.7921616816832
 20
585.4726943051261
 30
0
  0
VERTEX
  5
4D6
  8
8
  6
BYLAYER
 62
  256
 10
449.1746173083724
 20
590.0227016721068
 30
0
  0
VERTEX
  5
4D7
  8
8
  6
BYLAYER
 62
  256
 10
445.3785128954172
 20
594.4563533730367
 30
0
  0
VERTEX
  5
4D8
  8
8
  6
BYLAYER
 62
  256
 10
441.4137801965013
 20
598.7625276912454
 30
0
  0
VERTEX
  5
4D9
  8
8
  6
BYLAYER
 62
  256
 10
437.2903509653081
 20
602.9301029100624
 30
0
  0
VERTEX
  5
4DA
  8
8
  6
BYLAYER
 62
  256
 10
433.0181569555209
 20
606.947957312816
 30
0
  0
VERTEX
  5
4DB
  8
8
  6
BYLAYER
 62
  256
 10
428.6071299208235
 20
610.8049691828357
 30
0
  0
VERTEX
  5
4DC
  8
8
  6
BYLAYER
 62
  256
 10
424.0672016148991
 20
614.4900168034503
 30
0
  0
VERTEX
  5
4DD
  8
8
  6
BYLAYER
 62
  256
 10
419.4083037914315
 20
617.9919784579887
 30
0
  0
VERTEX
  5
4DE
  8
8
  6
BYLAYER
 62
  256
 10
414.640368204104
 20
621.29973242978
 30
0
  0
VERTEX
  5
4DF
  8
8
  6
BYLAYER
 62
  256
 10
409.7733266066003
 20
624.4021570021537
 30
0
  0
VERTEX
  5
4E0
  8
8
  6
BYLAYER
 62
  256
 10
404.8171107526038
 20
627.288130458438
 30
0
  0
VERTEX
  5
4E1
  8
8
  6
BYLAYER
 62
  256
 10
399.7816523957979
 20
629.9465310819628
 30
0
  0
VERTEX
  5
4E2
  8
8
  6
BYLAYER
 62
  256
 10
397.2346299155224
 20
631.1767387363236
 30
0
  0
VERTEX
  5
4E3
  8
8
  6
BYLAYER
 62
  256
 10
392.0759815586447
 20
633.6524320334097
 30
0
  0
VERTEX
  5
4E4
  8
8
  6
BYLAYER
 62
  256
 10
381.989272943804
 20
638.8105296579337
 30
0
  0
VERTEX
  5
4E5
  8
8
  6
BYLAYER
 62
  256
 10
372.1719453865728
 20
644.240910198042
 30
0
  0
VERTEX
  5
4E6
  8
8
  6
BYLAYER
 62
  256
 10
364.9888082970458
 20
648.5185575819773
 30
0
  0
VERTEX
  5
4E7
  8
8
  6
BYLAYER
 62
  256
 10
360.2745504563372
 20
651.4631992878478
 30
0
  0
VERTEX
  5
4E8
  8
8
  6
BYLAYER
 62
  256
 10
355.6230599668506
 20
654.4910552720911
 30
0
  0
VERTEX
  5
4E9
  8
8
  6
BYLAYER
 62
  256
 10
351.8902156272283
 20
657.0240313809915
 30
0
  0
VERTEX
  5
4EA
  8
8
  6
BYLAYER
 62
  256
 10
351.2113757963131
 20
657.8060431779259
 30
0
  0
VERTEX
  5
4EB
  8
8
  6
BYLAYER
 62
  256
 10
347.657141298585
 20
662.0660174586661
 30
0
  0
VERTEX
  5
4EC
  8
8
  6
BYLAYER
 62
  256
 10
344.1845817383268
 20
666.4008374919407
 30
0
  0
VERTEX
  5
4ED
  8
8
  6
BYLAYER
 62
  256
 10
340.7935781145293
 20
670.8140169028312
 30
0
  0
VERTEX
  5
4EE
  8
8
  6
BYLAYER
 62
  256
 10
337.4840114261835
 20
675.3090693164204
 30
0
  0
VERTEX
  5
4EF
  8
8
  6
BYLAYER
 62
  256
 10
334.25576267228
 20
679.8895083577908
 30
0
  0
VERTEX
  5
4F0
  8
8
  6
BYLAYER
 62
  256
 10
331.1087128518095
 20
684.5588476520252
 30
0
  0
VERTEX
  5
4F1
  8
8
  6
BYLAYER
 62
  256
 10
328.0427429637631
 20
689.3206008242059
 30
0
  0
VERTEX
  5
4F2
  8
8
  6
BYLAYER
 62
  256
 10
325.0577340071314
 20
694.1782814994156
 30
0
  0
VERTEX
  5
4F3
  8
8
  6
BYLAYER
 62
  256
 10
322.1535669809053
 20
699.1354033027368
 30
0
  0
VERTEX
  5
4F4
  8
8
  6
BYLAYER
 62
  256
 10
319.3301228840754
 20
704.1954798592519
 30
0
  0
VERTEX
  5
4F5
  8
8
  6
BYLAYER
 62
  256
 10
316.5872827156327
 20
709.3620247940439
 30
0
  0
VERTEX
  5
4F6
  8
8
  6
BYLAYER
 62
  256
 10
313.9249274745678
 20
714.6385517321953
 30
0
  0
VERTEX
  5
4F7
  8
8
  6
BYLAYER
 62
  256
 10
311.3429381598717
 20
720.0285742987882
 30
0
  0
VERTEX
  5
4F8
  8
8
  6
BYLAYER
 62
  256
 10
308.8411957705351
 20
725.5356061189053
 30
0
  0
VERTEX
  5
4F9
  8
8
  6
BYLAYER
 62
  256
 10
306.4195813055488
 20
731.1631608176297
 30
0
  0
VERTEX
  5
4FA
  8
8
  6
BYLAYER
 62
  256
 10
304.0779757639036
 20
736.9147520200431
 30
0
  0
VERTEX
  5
4FB
  8
8
  6
BYLAYER
 62
  256
 10
301.8162601445904
 20
742.7938933512286
 30
0
  0
VERTEX
  5
4FC
  8
8
  6
BYLAYER
 62
  256
 10
299.6343154465998
 20
748.8040984362688
 30
0
  0
VERTEX
  5
4FD
  8
8
  6
BYLAYER
 62
  256
 10
297.5320226689227
 20
754.948880900246
 30
0
  0
VERTEX
  5
4FE
  8
8
  6
BYLAYER
 62
  256
 10
295.5092628105498
 20
761.2317543682428
 30
0
  0
VERTEX
  5
4FF
  8
8
  6
BYLAYER
 62
  256
 10
293.5659168704722
 20
767.6562324653419
 30
0
  0
VERTEX
  5
500
  8
8
  6
BYLAYER
 62
  256
 10
291.7018658476803
 20
774.2258288166261
 30
0
  0
VERTEX
  5
501
  8
8
  6
BYLAYER
 62
  256
 10
290.8028352597751
 20
777.5724105409173
 30
0
  0
VERTEX
  5
502
  8
8
  6
BYLAYER
 62
  256
 10
290.0741666330825
 20
780.3487430960099
 30
0
  0
VERTEX
  5
503
  8
8
  6
BYLAYER
 62
  256
 10
288.6934652060445
 20
785.9499139553807
 30
0
  0
VERTEX
  5
504
  8
8
  6
BYLAYER
 62
  256
 10
287.4060088726395
 20
791.6054606824817
 30
0
  0
VERTEX
  5
505
  8
8
  6
BYLAYER
 62
  256
 10
286.2132221906634
 20
797.3111265758794
 30
0
  0
VERTEX
  5
506
  8
8
  6
BYLAYER
 62
  256
 10
285.116529717912
 20
803.0626549341382
 30
0
  0
VERTEX
  5
507
  8
8
  6
BYLAYER
 62
  256
 10
284.1173560121816
 20
808.8557890558234
 30
0
  0
VERTEX
  5
508
  8
8
  6
BYLAYER
 62
  256
 10
283.2171256312679
 20
814.6862722395003
 30
0
  0
VERTEX
  5
509
  8
8
  6
BYLAYER
 62
  256
 10
282.417263132967
 20
820.5498477837342
 30
0
  0
VERTEX
  5
50A
  8
8
  6
BYLAYER
 62
  256
 10
281.7191930750747
 20
826.4422589870901
 30
0
  0
VERTEX
  5
50B
  8
8
  6
BYLAYER
 62
  256
 10
281.1243400153869
 20
832.359249148133
 30
0
  0
VERTEX
  5
50C
  8
8
  6
BYLAYER
 62
  256
 10
280.6341285116999
 20
838.2965615654291
 30
0
  0
VERTEX
  5
50D
  8
8
  6
BYLAYER
 62
  256
 10
280.2499831218092
 20
844.2499395375427
 30
0
  0
VERTEX
  5
50E
  8
8
  6
BYLAYER
 62
  256
 10
279.9733284035111
 20
850.2151263630385
 30
0
  0
VERTEX
  5
50F
  8
8
  6
BYLAYER
 62
  256
 10
279.8055889146012
 20
856.1878653404832
 30
0
  0
VERTEX
  5
510
  8
8
  6
BYLAYER
 62
  256
 10
279.7481892128758
 20
862.163899768441
 30
0
  0
VERTEX
  5
511
  8
8
  6
BYLAYER
 62
  256
 10
279.8025538561308
 20
868.138972945477
 30
0
  0
VERTEX
  5
512
  8
8
  6
BYLAYER
 62
  256
 10
279.970107402162
 20
874.108828170157
 30
0
  0
VERTEX
  5
513
  8
8
  6
BYLAYER
 62
  256
 10
280.2522744087654
 20
880.0692087410458
 30
0
  0
VERTEX
  5
514
  8
8
  6
BYLAYER
 62
  256
 10
280.650479433737
 20
886.0158579567085
 30
0
  0
VERTEX
  5
515
  8
8
  6
BYLAYER
 62
  256
 10
281.1661470348726
 20
891.9445191157104
 30
0
  0
VERTEX
  5
516
  8
8
  6
BYLAYER
 62
  256
 10
281.8007017699682
 20
897.8509355166174
 30
0
  0
VERTEX
  5
517
  8
8
  6
BYLAYER
 62
  256
 10
282.5555681968201
 20
903.7308504579935
 30
0
  0
VERTEX
  5
518
  8
8
  6
BYLAYER
 62
  256
 10
283.4321708732236
 20
909.5800072384048
 30
0
  0
VERTEX
  5
519
  8
8
  6
BYLAYER
 62
  256
 10
283.9388609836818
 20
912.5266723832469
 30
0
  0
VERTEX
  5
51A
  8
8
  6
BYLAYER
 62
  256
 10
285.1516823247029
 20
915.1714046553078
 30
0
  0
VERTEX
  5
51B
  8
8
  6
BYLAYER
 62
  256
 10
287.7211429791213
 20
920.4639616825827
 30
0
  0
VERTEX
  5
51C
  8
8
  6
BYLAYER
 62
  256
 10
290.4012120825364
 20
925.6820943753479
 30
0
  0
VERTEX
  5
51D
  8
8
  6
BYLAYER
 62
  256
 10
293.1921734420199
 20
930.8213229651307
 30
0
  0
VERTEX
  5
51E
  8
8
  6
BYLAYER
 62
  256
 10
296.0943108646433
 20
935.8771676834591
 30
0
  0
VERTEX
  5
51F
  8
8
  6
BYLAYER
 62
  256
 10
299.1079081574784
 20
940.8451487618611
 30
0
  0
VERTEX
  5
520
  8
8
  6
BYLAYER
 62
  256
 10
302.2332491275969
 20
945.7207864318643
 30
0
  0
VERTEX
  5
521
  8
8
  6
BYLAYER
 62
  256
 10
305.4706175820704
 20
950.4996009249968
 30
0
  0
VERTEX
  5
522
  8
8
  6
BYLAYER
 62
  256
 10
308.8202973279705
 20
955.1771124727854
 30
0
  0
VERTEX
  5
523
  8
8
  6
BYLAYER
 62
  256
 10
310.5420400000002
 20
957.4719787729429
 30
0
  0
VERTEX
  5
524
  8
8
  6
BYLAYER
 62
  256
 10
312.2288304901908
 20
959.741460863983
 30
0
  0
VERTEX
  5
525
  8
8
  6
BYLAYER
 62
  256
 10
315.417880012508
 20
964.4489497676655
 30
0
  0
VERTEX
  5
526
  8
8
  6
BYLAYER
 62
  256
 10
318.3864982412709
 20
969.342781874748
 30
0
  0
VERTEX
  5
527
  8
8
  6
BYLAYER
 62
  256
 10
321.1358034610606
 20
974.4053055602055
 30
0
  0
VERTEX
  5
528
  8
8
  6
BYLAYER
 62
  256
 10
323.6669139564579
 20
979.6188691990138
 30
0
  0
VERTEX
  5
529
  8
8
  6
BYLAYER
 62
  256
 10
325.9809480120437
 20
984.9658211661467
 30
0
  0
VERTEX
  5
52A
  8
8
  6
BYLAYER
 62
  256
 10
328.0790239123989
 20
990.42850983658
 30
0
  0
VERTEX
  5
52B
  8
8
  6
BYLAYER
 62
  256
 10
329.9622599421046
 20
995.9892835852883
 30
0
  0
VERTEX
  5
52C
  8
8
  6
BYLAYER
 62
  256
 10
331.6317743857416
 20
1001.630490787246
 30
0
  0
VERTEX
  5
52D
  8
8
  6
BYLAYER
 62
  256
 10
333.0886855278906
 20
1007.33447981743
 30
0
  0
VERTEX
  5
52E
  8
8
  6
BYLAYER
 62
  256
 10
334.3341116531329
 20
1013.083599050813
 30
0
  0
VERTEX
  5
52F
  8
8
  6
BYLAYER
 62
  256
 10
335.3691710460492
 20
1018.86019686237
 30
0
  0
VERTEX
  5
530
  8
8
  6
BYLAYER
 62
  256
 10
336.1949819912204
 20
1024.646621627078
 30
0
  0
VERTEX
  5
531
  8
8
  6
BYLAYER
 62
  256
 10
336.8126627732273
 20
1030.425221719911
 30
0
  0
VERTEX
  5
532
  8
8
  6
BYLAYER
 62
  256
 10
337.2233316766511
 20
1036.178345515843
 30
0
  0
VERTEX
  5
533
  8
8
  6
BYLAYER
 62
  256
 10
337.4281069860724
 20
1041.88834138985
 30
0
  0
VERTEX
  5
534
  8
8
  6
BYLAYER
 62
  256
 10
337.4451250000001
 20
1044.71875
 30
0
  0
VERTEX
  5
535
  8
8
  6
BYLAYER
 62
  256
 10
401.6864500000002
 20
1044.718749999999
 30
0
  0
VERTEX
  5
536
  8
8
  6
BYLAYER
 62
  256
 10
551.5828750000003
 20
1044.71875
 30
0
  0
VERTEX
  5
537
  8
8
  6
BYLAYER
 62
  256
 10
602.4104249999999
 20
1044.71875
 30
0
  0
VERTEX
  5
538
  8
8
  6
BYLAYER
 62
  256
 10
805.720625
 20
1044.71875
 30
0
  0
VERTEX
  5
539
  8
8
  6
BYLAYER
 62
  256
 10
805.720625
 20
980.6575000000003
 30
0
  0
VERTEX
  5
53A
  8
8
  6
BYLAYER
 62
  256
 10
822.1695725923813
 20
918.7440452856529
 30
0
  0
SEQEND
  5
53B
  8
8
  6
BYLAYER
 62
  256
  0
POLYLINE
  5
53C
  8
8
  6
BYLAYER
 62
  256
 66
    1
 10
0
 20
0
 30
0
 70
    0
  0
VERTEX
  5
53D
  8
8
  6
BYLAYER
 62
  256
 10
832.1386317392788
 20
881.2207393981695
 30
0
  0
VERTEX
  5
53E
  8
8
  6
BYLAYER
 62
  256
 10
641.7046065292684
 20
806.2082106689434
 30
0
  0
VERTEX
  5
53F
  8
8
  6
BYLAYER
 62
  256
 10
593.1524738941231
 20
791.0068659724448
 30
0
  0
VERTEX
  5
540
  8
8
  6
BYLAYER
 62
  256
 10
450.0276882014939
 20
745.9460853731299
 30
0
  0
VERTEX
  5
541
  8
8
  6
BYLAYER
 62
  256
 10
390.2639559848084
 20
720.7043213839009
 30
0
  0
SEQEND
  5
542
  8
8
  6
BYLAYER
 62
  256
  0
POLYLINE
  5
543
  8
8
  6
BYLAYER
 62
  256
 66
    1
 10
0
 20
0
 30
0
 70
    0
  0
VERTEX
  5
544
  8
8
  6
BYLAYER
 62
  256
 10
348.9241356976086
 20
876.3064398097824
 30
0
  0
VERTEX
  5
545
  8
8
  6
BYLAYER
 62
  256
 10
413.3353880832277
 20
884.055046385915
 30
0
  0
VERTEX
  5
546
  8
8
  6
BYLAYER
 62
  256
 10
559.9522331293098
 20
915.9717971057768
 30
0
  0
VERTEX
  5
547
  8
8
  6
BYLAYER
 62
  256
 10
609.6469881264305
 20
926.8723379078954
 30
0
  0
VERTEX
  5
548
  8
8
  6
BYLAYER
 62
  256
 10
812.2005134454836
 20
956.2673511731365
 30
0
  0
SEQEND
  5
549
  8
8
  6
BYLAYER
 62
  256
  0
POLYLINE
  5
54A
  8
8
  6
BYLAYER
 62
  256
 66
    1
 10
0
 20
0
 30
0
 70
    0
  0
VERTEX
  5
54B
  8
8
  6
BYLAYER
 62
  256
 10
423.9385660823773
 20
638.6730510099685
 30
0
  0
VERTEX
  5
54C
  8
8
  6
BYLAYER
 62
  256
 10
484.1998823821675
 20
662.7027013522492
 30
0
  0
VERTEX
  5
54D
  8
8
  6
BYLAYER
 62
  256
 10
617.7035475933737
 20
731.2005086379925
 30
0
  0
VERTEX
  5
54E
  8
8
  6
BYLAYER
 62
  256
 10
662.9324749605499
 20
754.4971734897949
 30
0
  0
VERTEX
  5
54F
  8
8
  6
BYLAYER
 62
  256
 10
851.144524625627
 20
834.9224293794128
 30
0
  0
SEQEND
  5
550
  8
8
  6
BYLAYER
 62
  256
  0
POLYLINE
  5
551
  8
8
  6
BYLAYER
 62
  256
 66
    1
 10
0
 20
0
 30
0
 70
    0
  0
VERTEX
  5
552
  8
8
  6
BYLAYER
 62
  256
 10
805.7206250000002
 20
1005.89375
 30
0
  0
VERTEX
  5
553
  8
8
  6
BYLAYER
 62
  256
 10
602.4104250000003
 20
982.29375
 30
0
  0
VERTEX
  5
554
  8
8
  6
BYLAYER
 62
  256
 10
551.5828750000003
 20
980.0687499999997
 30
0
  0
VERTEX
  5
555
  8
8
  6
BYLAYER
 62
  256
 10
401.6864500000001
 20
973.26875
 30
0
  0
VERTEX
  5
556
  8
8
  6
BYLAYER
 62
  256
 10
337.4451250000002
 20
964.2187499999997
 30
0
  0
SEQEND
  5
557
  8
8
  6
BYLAYER
 62
  256
  0
LINE
  5
558
  8
7
  6
BYLAYER
 62
  256
 10
822.1695725923813
 20
918.7440452856529
 11
290.802835259775
 21
777.5724105409173
  0
TEXT
  5
559
  8
1
  6
BYLAYER
 62
  256
 10
358.2706797152019
 20
751.2625145814748
 30
0
 40
2.5
  1
Piece Name: Sleeve
 50
0
 41
1
 51
0
  7
STANDARD
 71
    0
210
0
220
0
230
1
  0
TEXT
  5
55A
  8
1
  6
BYLAYER
 62
  256
 10
358.2706797152019
 20
748.7625145814749
 30
0
 40
2.5
  1
File Name: GBlock-201-Sweatshirt-Parametric-Scalable-V4-Hood-csr1921a-EXTRA
 50
0
 41
1
 51
0
  7
STANDARD
 71
    0
210
0
220
0
230
1
  0
TEXT
  5
55B
  8
1
  6
BYLAYER
 62
  256
 10
358.2706797152019
 20
746.2625145814746
 30
0
 40
2.5
  1
Measurement Name: csr1921a-EXTRA
 50
0
 41
1
 51
0
  7
STANDARD
 71
    0
210
0
220
0
230
1
  0
TEXT
  5
55C
  8
1
  6
BYLAYER
 62
  256
 10
358.2706797152019
 20
743.7625145814748
 30
0
 40
2.5
  1
Date: 03-25-2026
 50
0
 41
1
 51
0
  7
STANDARD
 71
    0
210
0
220
0
230
1
  0
ENDBLK
  8
1
  0
BLOCK
  8
1
  2
RIB_HEM
 70
    0
 10
0
 20
0
  3
RIB_HEM
  1

  0
POLYLINE
  5
55D
  8
1
  6
BYLAYER
 62
  256
 66
    1
 10
0
 20
0
 30
0
 70
    1
  0
VERTEX
  5
55E
  8
1
  6
BYLAYER
 62
  256
 10
48.08672920587771
 20
12.52941641547133
 30
0
  0
VERTEX
  5
55F
  8
1
  6
BYLAYER
 62
  256
 10
125.5446253940719
 20
903.0674676284383
 30
0
  0
VERTEX
  5
560
  8
1
  6
BYLAYER
 62
  256
 10
269.0029947163187
 20
890.5896364305962
 30
0
  0
VERTEX
  5
561
  8
1
  6
BYLAYER
 62
  256
 10
191.5450985281245
 20
0.05158521762971304
 30
0
  0
VERTEX
  5
562
  8
1
  6
BYLAYER
 62
  256
 10
48.08672920587771
 20
12.52941641547133
 30
0
  0
SEQEND
  5
563
  8
1
  6
BYLAYER
 62
  256
  0
POLYLINE
  5
564
  8
8
  6
BYLAYER
 62
  256
 66
    1
 10
0
 20
0
 30
0
 70
    1
  0
VERTEX
  5
565
  8
8
  6
BYLAYER
 62
  256
 10
131.6517800696088
 20
892.498519631165
 30
0
  0
VERTEX
  5
566
  8
8
  6
BYLAYER
 62
  256
 10
261.1628079299705
 20
881.2338109108912
 30
0
  0
VERTEX
  5
567
  8
8
  6
BYLAYER
 62
  256
 10
185.4379438525877
 20
10.62053321490306
 30
0
  0
VERTEX
  5
568
  8
8
  6
BYLAYER
 62
  256
 10
55.9269159922259
 20
21.88524193517689
 30
0
  0
SEQEND
  5
569
  8
8
  6
BYLAYER
 62
  256
  0
POLYLINE
  5
56A
  8
8
  6
BYLAYER
 62
  256
 66
    1
 10
0
 20
0
 30
0
 70
    0
  0
VERTEX
  5
56B
  8
8
  6
BYLAYER
 62
  256
 10
120.6824299224067
 20
16.25288757503973
 30
0
  0
VERTEX
  5
56C
  8
8
  6
BYLAYER
 62
  256
 10
196.4072939997897
 20
886.8661652710279
 30
0
  0
SEQEND
  5
56D
  8
8
  6
BYLAYER
 62
  256
  0
LINE
  5
56E
  8
7
  6
BYLAYER
 62
  256
 10
144.1225993372323
 20
688.1355527563298
 11
243.746466922126
 21
679.470392202273
  0
TEXT
  5
56F
  8
1
  6
BYLAYER
 62
  256
 10
137.9714753419033
 20
511.0377503539947
 30
0
 40
2.5
  1
Piece Name: Rib Hem
 50
0
 41
1
 51
0
  7
STANDARD
 71
    0
210
0
220
0
230
1
  0
TEXT
  5
570
  8
1
  6
BYLAYER
 62
  256
 10
137.9714753419033
 20
508.5377503539949
 30
0
 40
2.5
  1
File Name: GBlock-201-Sweatshirt-Parametric-Scalable-V4-Hood-csr1921a-EXTRA
 50
0
 41
1
 51
0
  7
STANDARD
 71
    0
210
0
220
0
230
1
  0
TEXT
  5
571
  8
1
  6
BYLAYER
 62
  256
 10
137.9714753419033
 20
506.0377503539947
 30
0
 40
2.5
  1
Measurement Name: csr1921a-EXTRA
 50
0
 41
1
 51
0
  7
STANDARD
 71
    0
210
0
220
0
230
1
  0
TEXT
  5
572
  8
1
  6
BYLAYER
 62
  256
 10
137.9714753419033
 20
503.5377503539947
 30
0
 40
2.5
  1
Date: 03-25-2026
 50
0
 41
1
 51
0
  7
STANDARD
 71
    0
210
0
220
0
230
1
  0
ENDBLK
  8
0
  0
ENDSEC
  0
SECTION
  2
ENTITIES
  0
INSERT
  5
573
  8
1
  6
BYLAYER
 62
  256
  2
SWEATSHIRT_BACK
 10
0
 20
0
 30
0
 41
1
 42
1
 43
1
 50
0
 70
    1
 71
    1
 44
0
 45
0
  0
INSERT
  5
574
  8
1
  6
BYLAYER
 62
  256
  2
SWEATSHIRT_FRONT
 10
0
 20
0
 30
0
 41
1
 42
1
 43
1
 50
0
 70
    1
 71
    1
 44
0
 45
0
  0
INSERT
  5
575
  8
1
  6
BYLAYER
 62
  256
  2
RIB_CUFF
 10
0
 20
0
 30
0
 41
1
 42
1
 43
1
 50
0
 70
    1
 71
    1
 44
0
 45
0
  0
INSERT
  5
576
  8
1
  6
BYLAYER
 62
  256
  2
COLLAR
 10
0
 20
0
 30
0
 41
1
 42
1
 43
1
 50
0
 70
    1
 71
    1
 44
0
 45
0
  0
INSERT
  5
577
  8
1
  6
BYLAYER
 62
  256
  2
SLEEVE
 10
0
 20
0
 30
0
 41
1
 42
1
 43
1
 50
0
 70
    1
 71
    1
 44
0
 45
0
  0
INSERT
  5
578
  8
1
  6
BYLAYER
 62
  256
  2
RIB_HEM
 10
0
 20
0
 30
0
 41
1
 42
1
 43
1
 50
0
 70
    1
 71
    1
 44
0
 45
0
  0
ENDSEC
  0
EOF
