999
dxfrw 0.6.3
  0
SECTION
  2
HEADER
  9
$ACADVER
  1
AC1027
  9
$DWGCODEPAGE
  3
UTF-8
  9
$INSBASE
 10
0
 20
0
 30
0
  9
$EXTMIN
 10
1e+20
 20
1e+20
 30
1e+20
  9
$EXTMAX
 10
-1e+20
 20
-1e+20
 30
-1e+20
  9
$LIMMIN
 10
0
 20
0
  9
$LIMMAX
 10
420
 20
297
  9
$ORTHOMODE
 70
    0
  9
$REGENMODE
 70
    1
  9
$FILLMODE
 70
    1
  9
$QTEXTMODE
 70
    0
  9
$MIRRTEXT
 70
    0
  9
$LTSCALE
 40
1
  9
$ATTMODE
 70
    0
  9
$TEXTSIZE
 40
2.5
  9
$TRACEWID
 40
15.68
  9
$TEXTSTYLE
  7
STANDARD
  9
$CLAYER
  8
1
  9
$CELTYPE
  6
BYLAYER
  9
$CECOLOR
 62
  256
  9
$CELTSCALE
 40
1
  9
$DISPSILH
 70
    0
  9
$DIMSCALE
 40
1
  9
$DIMASZ
 40
2.5
  9
$DIMEXO
 40
0.625
  9
$DIMDLI
 40
3.75
  9
$DIMRND
 40
0
  9
$DIMDLE
 40
0
  9
$DIMEXE
 40
1.25
  9
$DIMTP
 40
0
  9
$DIMTM
 40
0
  9
$DIMTXT
 40
2.5
  9
$DIMCEN
 40
2.5
  9
$DIMTSZ
 40
0
  9
$DIMTOL
 70
    0
  9
$DIMLIM
 70
    0
  9
$DIMTIH
 70
    0
  9
$DIMTOH
 70
    0
  9
$DIMSE1
 70
    0
  9
$DIMSE2
 70
    0
  9
$DIMTAD
 70
    1
  9
$DIMZIN
 70
    8
  9
$DIMBLK
  1

  9
$DIMASO
 70
    1
  9
$DIMSHO
 70
    1
  9
$DIMPOST
  1

  9
$DIMAPOST
  1

  9
$DIMALT
 70
    0
  9
$DIMALTD
 70
    3
  9
$DIMALTF
 40
0.03937
  9
$DIMLFAC
 40
1
  9
$DIMTOFL
 70
    1
  9
$DIMTVP
 40
0
  9
$DIMTIX
 70
    0
  9
$DIMSOXD
 70
    0
  9
$DIMSAH
 70
    0
  9
$DIMBLK1
  1

  9
$DIMBLK2
  1

  9
$DIMSTYLE
  2
STANDARD
  9
$DIMCLRD
 70
    0
  9
$DIMCLRE
 70
    0
  9
$DIMCLRT
 70
    0
  9
$DIMTFAC
 40
1
  9
$DIMGAP
 40
0.625
  9
$DIMJUST
 70
    0
  9
$DIMSD1
 70
    0
  9
$DIMSD2
 70
    0
  9
$DIMTOLJ
 70
    0
  9
$DIMTZIN
 70
    8
  9
$DIMALTZ
 70
    0
  9
$DIMALTTZ
 70
    0
  9
$DIMUPT
 70
    0
  9
$DIMDEC
 70
    2
  9
$DIMTDEC
 70
    2
  9
$DIMALTU
 70
    2
  9
$DIMALTTD
 70
    3
  9
$DIMTXSTY
  7
STANDARD
  9
$DIMAUNIT
 70
    0
  9
$DIMADEC
 70
    0
  9
$DIMALTRND
 40
0
  9
$DIMAZIN
 70
    0
  9
$DIMDSEP
 70
   44
  9
$DIMATFIT
 70
    3
  9
$DIMFRAC
 70
    0
  9
$DIMLDRBLK
  1
STANDARD
  9
$DIMLUNIT
 70
    2
  9
$DIMLWD
 70
   -2
  9
$DIMLWE
 70
   -2
  9
$DIMTMOVE
 70
    0
  9
$DIMFXL
 40
1
  9
$DIMFXLON
 70
    0
  9
$DIMJOGANG
 40
0.7854
  9
$DIMTFILL
 70
    0
  9
$DIMTFILLCLR
 70
    0
  9
$DIMARCSYM
 70
    0
  9
$DIMLTYPE
  6

  9
$DIMLTEX1
  6

  9
$DIMLTEX2
  6

  9
$DIMTXTDIRECTION
 70
    0
  9
$LUNITS
 70
    2
  9
$LUPREC
 70
    4
  9
$SKETCHINC
 40
1
  9
$FILLETRAD
 40
0
  9
$AUNITS
 70
    0
  9
$AUPREC
 70
    2
  9
$MENU
  1
.
  9
$ELEVATION
 40
0
  9
$PELEVATION
 40
0
  9
$THICKNESS
 40
0
  9
$LIMCHECK
 70
    0
  9
$CHAMFERA
 40
0
  9
$CHAMFERB
 40
0
  9
$CHAMFERC
 40
0
  9
$CHAMFERD
 40
0
  9
$SKPOLY
 70
    0
  9
$USRTIMER
 70
    1
  9
$ANGBASE
 50
0
  9
$ANGDIR
 70
    0
  9
$PDMODE
 70
   34
  9
$PDSIZE
 40
0
  9
$PLINEWID
 40
0
  9
$SPLFRAME
 70
    0
  9
$SPLINETYPE
 70
    2
  9
$SPLINESEGS
 70
    8
  9
$HANDSEED
  5
20000
  9
$SURFTAB1
 70
    6
  9
$SURFTAB2
 70
    6
  9
$SURFTYPE
 70
    6
  9
$SURFU
 70
    6
  9
$SURFV
 70
    6
  9
$TDCREATE
 40
20260319.16202290
  9
$UCSBASE
  2

  9
$UCSNAME
  2

  9
$UCSORG
 10
0
 20
0
 30
0
  9
$UCSXDIR
 10
1
 20
0
 30
0
  9
$UCSYDIR
 10
0
 20
1
 30
0
  9
$UCSORTHOREF
  2

  9
$UCSORTHOVIEW
 70
    0
  9
$UCSORGTOP
 10
0
 20
0
 30
0
  9
$UCSORGBOTTOM
 10
0
 20
0
 30
0
  9
$UCSORGLEFT
 10
0
 20
0
 30
0
  9
$UCSORGRIGHT
 10
0
 20
0
 30
0
  9
$UCSORGFRONT
 10
0
 20
0
 30
0
  9
$UCSORGBACK
 10
0
 20
0
 30
0
  9
$PUCSBASE
  2

  9
$PUCSNAME
  2

  9
$PUCSORG
 10
0
 20
0
 30
0
  9
$PUCSXDIR
 10
1
 20
0
 30
0
  9
$PUCSYDIR
 10
0
 20
1
 30
0
  9
$PUCSORTHOREF
  2

  9
$PUCSORTHOVIEW
 70
    0
  9
$PUCSORGTOP
 10
0
 20
0
 30
0
  9
$PUCSORGBOTTOM
 10
0
 20
0
 30
0
  9
$PUCSORGLEFT
 10
0
 20
0
 30
0
  9
$PUCSORGRIGHT
 10
0
 20
0
 30
0
  9
$PUCSORGFRONT
 10
0
 20
0
 30
0
  9
$PUCSORGBACK
 10
0
 20
0
 30
0
  9
$USERI1
 70
    0
  9
$USERI2
 70
    0
  9
$USERI3
 70
    0
  9
$USERI4
 70
    0
  9
$USERI5
 70
    0
  9
$USERR1
 40
0
  9
$USERR2
 40
0
  9
$USERR3
 40
0
  9
$USERR4
 40
0
  9
$USERR5
 40
0
  9
$WORLDVIEW
 70
    1
  9
$SHADEDGE
 70
    3
  9
$SHADEDIF
 70
   70
  9
$TILEMODE
 70
    1
  9
$MAXACTVP
 70
   64
  9
$PINSBASE
 10
0
 20
0
 30
0
  9
$PLIMCHECK
 70
    0
  9
$PEXTMIN
 10
0
 20
0
 30
0
  9
$PEXTMAX
 10
0
 20
0
 30
0
  9
$PLIMMIN
 10
0
 20
0
  9
$PLIMMAX
 10
297
 20
210
  9
$UNITMODE
 70
    0
  9
$VISRETAIN
 70
    1
  9
$PLINEGEN
 70
    0
  9
$PSLTSCALE
 70
    1
  9
$TREEDEPTH
 70
 3020
  9
$CMLSTYLE
  2
Standard
  9
$CMLJUST
 70
    0
  9
$CMLSCALE
 40
20
  9
$PROXYGRAPHICS
 70
    1
  9
$MEASUREMENT
 70
    1
  9
$CELWEIGHT
370
   -1
  9
$ENDCAPS
280
    0
  9
$JOINSTYLE
280
    0
  9
$LWDISPLAY
290
    0
  9
$INSUNITS
 70
    4
  9
$HYPERLINKBASE
  1

  9
$STYLESHEET
  1

  9
$XEDIT
290
    1
  9
$CEPSNTYPE
380
    0
  9
$PSTYLEMODE
290
    1
  9
$EXTNAMES
290
    1
  9
$PSVPSCALE
 40
0
  9
$OLESTARTUP
290
    0
  9
$SORTENTS
280
  127
  9
$INDEXCTL
280
    0
  9
$HIDETEXT
280
    1
  9
$XCLIPFRAME
280
    0
  9
$HALOGAP
280
    0
  9
$OBSCOLOR
 70
  257
  9
$OBSLTYPE
280
    0
  9
$INTERSECTIONDISPLAY
280
    0
  9
$INTERSECTIONCOLOR
 70
  257
  9
$DIMASSOC
280
    1
  9
$PROJECTNAME
  1

  9
$CAMERADISPLAY
290
    0
  9
$LENSLENGTH
 40
50
  9
$CAMERAHEIGHT
 40
0
  9
$STEPSPERSEC
 40
2
  9
$STEPSIZE
 40
50
  9
$3DDWFPREC
 40
2
  9
$PSOLWIDTH
 40
5
  9
$PSOLHEIGHT
 40
80
  9
$LOFTANG1
 40
1.570796326794897
  9
$LOFTANG2
 40
1.570796326794897
  9
$LOFTMAG1
 40
0
  9
$LOFTMAG2
 40
0
  9
$LOFTPARAM
 70
    7
  9
$LOFTNORMALS
280
    1
  9
$LATITUDE
 40
1
  9
$LONGITUDE
 40
1
  9
$NORTHDIRECTION
 40
0
  9
$TIMEZONE
 70
-8000
  9
$LIGHTGLYPHDISPLAY
280
    1
  9
$TILEMODELIGHTSYNCH
280
    1
  9
$SOLIDHIST
280
    1
  9
$SHOWHIST
280
    1
  9
$DWFFRAME
280
    2
  9
$DGNFRAME
280
    0
  9
$REALWORLDSCALE
290
    1
  9
$INTERFERECOLOR
 62
    1
  9
$CSHADOW
280
    0
  9
$SHADOWPLANELOCATION
 40
0
  0
ENDSEC
  0
SECTION
  2
CLASSES
  0
ENDSEC
  0
SECTION
  2
TABLES
  0
TABLE
  2
VPORT
  5
8
330
0
100
AcDbSymbolTable
 70
    1
  0
VPORT
  5
31
330
2
100
AcDbSymbolTableRecord
100
AcDbViewportTableRecord
  2
*ACTIVE
 70
    0
 10
0
 20
0
 11
1
 21
1
 12
0.651828
 22
-0.16
 13
0
 23
0
 14
10
 24
10
 15
10
 25
10
 16
0
 26
0
 36
1
 17
0
 27
0
 37
0
 40
5.13732
 41
2.4426877
 42
50
 43
0
 44
0
 50
0
 51
0
 71
    0
 72
  100
 73
    1
 74
    3
 75
    0
 76
    0
 77
    0
 78
    0
281
    0
 65
    1
110
0
120
0
130
0
111
1
121
0
131
0
112
0
122
1
132
0
 79
    0
146
0
348
10020
 60
    7
 61
    5
292
1
282
    1
141
0
142
0
 63
  250
421
3358443
  0
ENDTAB
  0
TABLE
  2
LTYPE
  5
5
330
0
100
AcDbSymbolTable
 70
    4
  0
LTYPE
  5
14
330
5
100
AcDbSymbolTableRecord
100
AcDbLinetypeTableRecord
  2
ByBlock
 70
    0
  3

 72
   65
 73
    0
 40
0
  0
LTYPE
  5
15
330
5
100
AcDbSymbolTableRecord
100
AcDbLinetypeTableRecord
  2
ByLayer
 70
    0
  3

 72
   65
 73
    0
 40
0
  0
LTYPE
  5
16
330
5
100
AcDbSymbolTableRecord
100
AcDbLinetypeTableRecord
  2
Continuous
 70
    0
  3
Solid line
 72
   65
 73
    0
 40
0
  0
ENDTAB
  0
TABLE
  2
LAYER
  5
2
330
0
100
AcDbSymbolTable
 70
    1
  0
LAYER
  5
10
330
2
100
AcDbSymbolTableRecord
100
AcDbLayerTableRecord
  2
0
 70
    0
 62
  250
  6
CONTINUOUS
370
   13
390
F
  0
LAYER
  5
32
330
2
100
AcDbSymbolTableRecord
100
AcDbLayerTableRecord
  2
1
 70
    0
 62
  250
  6
CONTINUOUS
370
   -3
390
F
  0
LAYER
  5
33
330
2
100
AcDbSymbolTableRecord
100
AcDbLayerTableRecord
  2
8
 70
    0
 62
  250
  6
CONTINUOUS
370
   -3
390
F
  0
LAYER
  5
34
330
2
100
AcDbSymbolTableRecord
100
AcDbLayerTableRecord
  2
7
 70
    0
 62
  250
  6
CONTINUOUS
370
   -3
390
F
  0
LAYER
  5
35
330
2
100
AcDbSymbolTableRecord
100
AcDbLayerTableRecord
  2
11
 70
    0
 62
  250
  6
CONTINUOUS
370
   -3
390
F
  0
LAYER
  5
36
330
2
100
AcDbSymbolTableRecord
100
AcDbLayerTableRecord
  2
4
 70
    0
 62
  250
  6
CONTINUOUS
370
   -3
390
F
  0
ENDTAB
  0
TABLE
  2
STYLE
  5
3
330
0
100
AcDbSymbolTable
 70
    3
  0
STYLE
  5
37
330
2
100
AcDbSymbolTableRecord
100
AcDbTextStyleTableRecord
  2
Standard
 70
    0
 40
0
 41
1
 50
0
 71
    0
 42
2.5
  3
txt
  4

1001
ACAD
1000
txt
  0
ENDTAB
  0
TABLE
  2
VIEW
  5
6
330
0
100
AcDbSymbolTable
 70
    0
  0
ENDTAB
  0
TABLE
  2
UCS
  5
7
330
0
100
AcDbSymbolTable
 70
    0
  0
ENDTAB
  0
TABLE
  2
APPID
  5
9
330
0
100
AcDbSymbolTable
 70
    1
  0
APPID
  5
12
330
9
100
AcDbSymbolTableRecord
100
AcDbRegAppTableRecord
  2
ACAD
 70
    0
  0
APPID
  5
38
330
9
100
AcDbSymbolTableRecord
100
AcDbRegAppTableRecord
  2
Seamly2D
 70
    0
  0
ENDTAB
  0
TABLE
  2
DIMSTYLE
  5
A
330
0
100
AcDbSymbolTable
 70
    1
100
AcDbDimStyleTable
 71
    1
  0
DIMSTYLE
105
39
330
A
100
AcDbSymbolTableRecord
100
AcDbDimStyleTableRecord
  2
Standard
 70
    0
 40
1
 41
2.5
 42
0.625
 43
3.75
 44
1.25
 45
0
 46
0
 47
0
 48
0
140
2.5
141
2.5
142
0
143
0.03937007874015748
144
1
145
0
146
1
147
0.625
148
0
 71
    0
 72
    0
 73
    0
 74
    0
 75
    0
 76
    0
 77
    1
 78
    8
 79
    0
170
    0
171
    3
172
    1
173
    0
174
    0
175
    0
176
    0
177
    0
178
    0
179
    0
271
    2
272
    2
273
    2
274
    3
275
    0
276
    0
277
    2
278
   44
279
    0
280
    0
281
    0
282
    0
283
    0
284
    8
285
    0
286
    0
288
    0
289
    3
341

371
   -2
372
   -2
  0
ENDTAB
  0
TABLE
  2
BLOCK_RECORD
  5
1
330
0
100
AcDbSymbolTable
 70
    2
  0
BLOCK_RECORD
  5
1F
330
1
100
AcDbSymbolTableRecord
100
AcDbBlockTableRecord
  2
*Model_Space
 70
    0
280
    1
281
    0
  0
BLOCK_RECORD
  5
1E
330
1
100
AcDbSymbolTableRecord
100
AcDbBlockTableRecord
  2
*Paper_Space
 70
    0
280
    1
281
    0
  0
BLOCK_RECORD
  5
3A
330
1
100
AcDbSymbolTableRecord
100
AcDbBlockTableRecord
  2
Fr Trace
 70
    0
280
    1
281
    0
  0
BLOCK_RECORD
  5
3D
330
1
100
AcDbSymbolTableRecord
100
AcDbBlockTableRecord
  2
Bk Trace
 70
    0
280
    1
281
    0
  0
ENDTAB
  0
ENDSEC
  0
SECTION
  2
BLOCKS
  0
BLOCK
  5
20
330
1F
100
AcDbEntity
  8
0
100
AcDbBlockBegin
  2
*Model_Space
 70
    0
 10
0
 20
0
 30
0
  3
*Model_Space
  1

  0
ENDBLK
  5
21
330
1F
100
AcDbEntity
  8
0
100
AcDbBlockEnd
  0
BLOCK
  5
1C
330
1B
100
AcDbEntity
  8
0
100
AcDbBlockBegin
  2
*Paper_Space
 70
    0
 10
0
 20
0
 30
0
  3
*Paper_Space
  1

  0
ENDBLK
  5
1D
330
1F
100
AcDbEntity
  8
0
100
AcDbBlockEnd
  0
BLOCK
  5
3B
330
3A
100
AcDbEntity
  8
1
100
AcDbBlockBegin
  2
Fr Trace
 70
    0
 10
0
 20
0
  3
Fr Trace
  1

  0
LWPOLYLINE
  5
40
100
AcDbEntity
  8
1
  6
BYLAYER
 62
  256
370
   -1
100
AcDbPolyline
 90
  251
 70
    1
 43
0
 10
198.5708249902117
 20
652.5460428810673
 10
200.8433616147418
 20
653.5952841171328
 10
205.5866379377269
 20
656.02575183992
 10
210.5020636450971
 20
658.828147093148
 10
215.5166450653799
 20
661.9730756875421
 10
220.5573885271029
 20
665.4311434338277
 10
225.5513003587936
 20
669.1729561427304
 10
230.4253868889799
 20
673.1691196249755
 10
235.106654446189
 20
677.3902396912885
 10
239.5221093589489
 20
681.8069221523947
 10
242.603052253556
 20
685.2345932079332
 10
244.5429886595935
 20
687.5620491821365
 10
246.3754129643155
 20
689.9218615235711
 10
248.0912009587877
 20
692.3103559585778
 10
249.6812284340764
 20
694.7238582134971
 10
251.1363711812473
 20
697.15869401467
 10
252.4475049913664
 20
699.6111890884367
 10
253.6055056554998
 20
702.0776691611386
 10
254.6012489647132
 20
704.5544599591158
 10
255.4256107100728
 20
707.037887208709
 10
256.0694666826444
 20
709.5242766362592
 10
256.5236926734939
 20
712.0099539681069
 10
256.7791644736874
 20
714.4912449305926
 10
256.8267578742908
 20
716.9644752500574
 10
256.760516996413
 20
718.1963539559086
 10
256.657367810178
 20
719.4256924956164
 10
256.2713943894598
 20
721.8690831445713
 10
255.6783983049416
 20
724.291979412461
 10
254.8879211056209
 20
726.6919916720502
 10
253.9095043404953
 20
729.0667302961035
 10
252.7526895585622
 20
731.4138056573852
 10
251.4270183088189
 20
733.7308281286598
 10
249.9420321402631
 20
736.015408082692
 10
248.307272601892
 20
738.2651558922462
 10
246.5322812427034
 20
740.4776819300869
 10
244.6265996116946
 20
742.6505965689784
 10
242.599769257863
 20
744.7815101816855
 10
240.4613317302061
 20
746.8680331409723
 10
238.2208285777215
 20
748.9077758196037
 10
234.6993494099162
 20
751.881043795337
 10
229.7204479439498
 20
755.6511719418402
 10
224.5050318606266
 20
759.191165675482
 10
219.1294335519265
 20
762.4819079783783
 10
213.6699854098291
 20
765.5042818326452
 10
208.2030198263142
 20
768.2391702203986
 10
202.8048691933615
 20
770.6674561237542
 10
197.5518659029509
 20
772.7700225248282
 10
192.520342347062
 20
774.5277524057364
 10
190.1254884388273
 20
775.2557665810816
 10
228.8796451311451
 20
906.8772991624465
 10
407.0535037919974
 20
1008.0497069123
 10
407.541921450093
 20
1008.289792194802
 10
408.5738289296022
 20
1008.46673979321
 10
409.6528166547959
 20
1008.337487407617
 10
410.7577664586777
 20
1007.966110122375
 10
412.4210282390858
 20
1007.105466403281
 10
414.533282315019
 20
1005.678863447098
 10
415.4813326206568
 20
1005.021225240766
 10
417.9841732647365
 20
1003.306085653801
 10
422.923035922198
 20
999.7206131054935
 10
427.7962950489833
 20
995.9808013851423
 10
432.6201493408273
 20
992.1220870229811
 10
439.7998448719481
 20
986.1923793507594
 10
449.3455087948033
 20
978.1867731383779
 10
456.5653026266384
 20
972.2852541431953
 10
461.4329005192619
 20
968.4572910650766
 10
466.3644844470861
 20
964.7584810567821
 10
471.3762531058465
 20
961.2242606485456
 10
476.4844051912774
 20
957.8900663706002
 10
481.7051393991136
 20
954.7913347531796
 10
487.0546544250896
 20
951.9635023265172
 10
492.5491489649401
 20
949.4420056208467
 10
495.3628788765469
 20
948.3221858505954
 10
497.9278819786522
 20
947.3536218338314
 10
503.1454626699269
 20
945.5792293860572
 10
508.4576292959553
 20
943.997827496538
 10
513.8527113570451
 20
942.6068693378844
 10
519.3190383535033
 20
941.4038080827079
 10
524.8449397856378
 20
940.3860969036193
 10
530.4187451537557
 20
939.5511889732297
 10
536.0287839581646
 20
938.8965374641504
 10
541.6633856991716
 20
938.4195955489923
 10
547.3108798770846
 20
938.1178164003666
 10
552.959595992211
 20
937.9886531908842
 10
558.5978635448578
 20
938.0295590931563
 10
564.2140120353328
 20
938.2379872797944
 10
569.7963709639432
 20
938.6113909234086
 10
575.3332698309968
 20
939.1472231966109
 10
580.8130381368006
 20
939.8429372720121
 10
583.5247414517971
 20
940.2564566670247
 10
585.5102489238294
 20
940.5993089628931
 10
589.4012352850752
 20
941.5532552368913
 10
593.2049374910156
 20
942.7990157133306
 10
596.9310779239589
 20
944.3031728185747
 10
600.5893789662131
 20
946.0323089789877
 10
604.1895630000864
 20
947.9530066209333
 10
607.7413524078873
 20
950.0318481707753
 10
611.2544695719241
 20
952.2354160548778
 10
619.9347769904986
 20
958.0658576339524
 10
630.3167511710848
 20
965.1027358072782
 10
635.5801470086747
 20
968.3456524174512
 10
639.133891985694
 20
970.3439983247363
 10
640.9307048736952
 20
971.2712170820867
 10
645.7717860921516
 20
973.7542077785797
 10
655.5342815797667
 20
978.8562344516021
 10
662.9608914346913
 20
982.5247709946599
 10
667.9709065750779
 20
984.8015179252466
 10
673.0402116160478
 20
986.8718551385087
 10
678.17699027513
 20
988.6782888434376
 10
680.7765625062908
 20
989.4499857291353
 10
682.9957841264226
 20
990.0689027875394
 10
687.4746480836521
 20
991.194817097312
 10
694.266680264367
 20
992.6795254544245
 10
703.4406851217808
 20
994.3325319070835
 10
712.6933024857237
 20
995.7679029184618
 10
721.9720746585111
 20
997.1309019578738
 10
731.2245439424571
 20
998.5667924946335
 10
740.3982526398765
 20
1000.220837998056
 10
747.1899608955979
 20
1001.706682816941
 10
751.6685657128324
 20
1002.833506296132
 10
753.8876423379669
 20
1003.452932056472
 10
755.5879955057187
 20
1003.954784198068
 10
758.9523858682383
 20
1005.103896102145
 10
762.2790779878972
 20
1006.403802018473
 10
765.5746062254954
 20
1007.828174021701
 10
770.4756137147865
 20
1010.133182818593
 10
776.9580992272197
 20
1013.412788242277
 10
783.433547705811
 20
1016.716355357296
 10
788.3196014981881
 20
1019.072282748274
 10
791.6010556681026
 20
1020.544578134172
 10
794.9101552031565
 20
1021.904388278835
 10
798.2534344641504
 20
1023.125385256916
 10
801.6374278118839
 20
1024.181241143066
 10
805.0686696071572
 20
1025.045628011937
 10
806.8064277432354
 20
1025.388169717167
 10
807.9833995480745
 20
1025.585772973965
 10
810.3468636330441
 20
1025.789583333333
 10
812.720625
 20
1025.789583333333
 10
815.1034311063167
 20
1025.614511891415
 10
817.4940294093687
 20
1025.29310792503
 10
819.89116736653
 20
1024.854110351627
 10
823.4959701795404
 20
1024.043710649462
 10
828.3144535070126
 20
1022.805020869957
 10
833.1365496836606
 20
1021.61325717649
 10
836.7490298011711
 20
1020.902575407154
 10
839.1533934566851
 20
1020.557430005825
 10
841.553023882678
 20
1020.353341254533
 10
843.9466685365238
 20
1020.319048070727
 10
845.1405270882344
 20
1020.383426725987
 10
863.0662688780935
 20
759.9245558724805
 10
880.9920106679529
 20
499.4656850189745
 10
879.8005889218554
 20
499.3658998714245
 10
877.4342114365787
 20
499.0040043775094
 10
875.085166350148
 20
498.4730942328792
 10
872.7507572076136
 20
497.8018089796033
 10
869.2697005425973
 20
496.6029238009393
 10
864.6563404614985
 20
494.7617771473459
 10
860.0529879668766
 20
492.8746418164192
 10
856.5931974231233
 20
491.5780306984223
 10
854.2788034535422
 20
490.8147680904798
 10
851.9547773333032
 20
490.1688862525166
 10
849.6184226074566
 20
489.669024726602
 10
847.2670428210517
 20
489.3438230548056
 10
844.8979415191384
 20
489.2219207791966
 10
843.7049957327799
 20
489.2564175514131
 10
841.9366947786624
 20
489.357659316484
 10
838.419385595551
 20
489.7438212347359
 10
834.9226484044889
 20
490.3261198234906
 10
831.4436173409209
 20
491.0775801991604
 10
827.9794265402916
 20
491.9712274781579
 10
824.5272101380457
 20
492.9800867768951
 10
819.3644672358073
 20
494.6444188528191
 10
812.4974904469547
 20
497.0297109656815
 10
805.6268256896428
 20
499.3903032529262
 10
800.4562458544287
 20
501.0021481994125
 10
796.9966535152644
 20
501.9616078469143
 10
793.5232427934869
 20
502.7935055618673
 10
790.0331478245411
 20
503.470866460684
 10
788.2800738712065
 20
503.7350409886901
 10
785.9970599637928
 20
504.0446162450468
 10
781.4063096594489
 20
504.5472531969088
 10
774.4750801955989
 20
505.0886347408313
 10
765.1612663185239
 20
505.4703006362237
 10
755.7993213643975
 20
505.6250784118488
 10
746.4213075480513
 20
505.7040485096701
 10
737.0592870843174
 20
505.8582913716509
 10
727.7453221880271
 20
506.2388874397545
 10
720.8139275469107
 20
506.7790988600798
 10
716.2230451007533
 20
507.2807997130641
 10
713.939957256849
 20
507.5898511998107
 10
711.2591744268713
 20
507.9981345412717
 10
705.9233504711228
 20
509.0838050419139
 10
700.6182095657666
 20
510.4401345554678
 10
695.3435217167399
 20
512.0090502282076
 10
687.4843515529094
 20
514.6255629151577
 10
677.1149342640819
 20
518.3420369710475
 10
671.9793324227685
 20
520.1383954792697
 10
670.072433667982
 20
520.8107111175397
 10
666.2784257022921
 20
522.3033575201194
 10
660.6203824505794
 20
524.7946203415505
 10
649.3722556805153
 20
530.342835052352
 10
639.9750310634307
 20
534.92911408704
 10
636.1931527450859
 20
536.6306134297762
 10
632.39005413031
 20
538.2032644123552
 10
628.5606826630253
 20
539.6126325952935
 10
624.6999857871542
 20
540.8242835391071
 10
620.8029109466191
 20
541.8037828043128
 10
616.8644055853423
 20
542.5166959514265
 10
612.8794171472463
 20
542.9285885409647
 10
610.8656602709943
 20
542.9961966886043
 10
608.1228733797673
 20
543.0343179153315
 10
602.5994606259084
 20
542.9727524175845
 10
597.0413595420895
 20
542.7449858023092
 10
591.4604795013387
 20
542.3500940960763
 10
585.8687298766843
 20
541.7871533254561
 10
580.2780200411544
 20
541.0552395170192
 10
574.7002593677772
 20
540.153428697336
 10
569.147357229581
 20
539.0807968929772
 10
563.6312229995938
 20
537.8364201305133
 10
558.1637660508441
 20
536.4193744365145
 10
552.7568957563599
 20
534.8287358375516
 10
547.4225214891693
 20
533.0635803601949
 10
542.1725526223005
 20
531.1229840310151
 10
537.018898528782
 20
529.0060228765826
 10
531.9734685816419
 20
526.7117729234679
 10
527.0481721539081
 20
524.2393101982416
 10
524.6400455880129
 20
522.9284770238792
 10
522.0062591997981
 20
521.4337390553471
 10
516.9090120115017
 20
518.1832795514371
 10
511.997344887443
 20
514.6492346579946
 10
507.2503571148201
 20
510.8644875868891
 10
502.647147980831
 20
506.8619215499903
 10
498.1668167726738
 20
502.6744197591678
 10
493.7884627775465
 20
498.3348654262913
 10
489.4911852826469
 20
493.8761417632303
 10
483.1479640791928
 20
487.0411659630715
 10
474.7890595371367
 20
477.8033011982779
 10
468.4894203634971
 20
470.9458959105945
 10
464.2396869011228
 20
466.4627037156886
 10
459.9247249493623
 20
462.0905246736854
 10
455.5236337954136
 20
457.8622419964547
 10
453.2793632835601
 20
455.8203886809457
 10
452.4303473255578
 20
455.0390697348643
 10
450.5334515658403
 20
453.3365422746887
 10
449.0037791209907
 20
452.2561490255194
 10
447.960125721665
 20
451.7368969295507
 10
446.9090188708864
 20
451.4610435653405
 10
445.862599429506
 20
451.4949530264151
 10
445.3458956188843
 20
451.6658621358936
 10
254.9915271676613
 20
527.4747957224836
 10
198.5708249902117
 20
652.5460428810673
  0
LWPOLYLINE
  5
41
100
AcDbEntity
  8
8
  6
BYLAYER
 62
  256
370
   -1
100
AcDbPolyline
 90
  250
 70
    1
 43
0
 10
198.5708249902117
 20
652.5460428810673
 10
200.8433616147418
 20
653.5952841171328
 10
205.5866379377269
 20
656.02575183992
 10
210.5020636450971
 20
658.828147093148
 10
215.5166450653799
 20
661.9730756875421
 10
220.5573885271029
 20
665.4311434338277
 10
225.5513003587936
 20
669.1729561427304
 10
230.4253868889799
 20
673.1691196249755
 10
235.106654446189
 20
677.3902396912885
 10
239.5221093589489
 20
681.8069221523947
 10
242.603052253556
 20
685.2345932079332
 10
244.5429886595935
 20
687.5620491821365
 10
246.3754129643155
 20
689.9218615235711
 10
248.0912009587877
 20
692.3103559585778
 10
249.6812284340764
 20
694.7238582134971
 10
251.1363711812473
 20
697.15869401467
 10
252.4475049913664
 20
699.6111890884367
 10
253.6055056554998
 20
702.0776691611386
 10
254.6012489647132
 20
704.5544599591158
 10
255.4256107100728
 20
707.037887208709
 10
256.0694666826444
 20
709.5242766362592
 10
256.5236926734939
 20
712.0099539681069
 10
256.7791644736874
 20
714.4912449305926
 10
256.8267578742908
 20
716.9644752500574
 10
256.760516996413
 20
718.1963539559086
 10
256.657367810178
 20
719.4256924956164
 10
256.2713943894598
 20
721.8690831445713
 10
255.6783983049416
 20
724.291979412461
 10
254.8879211056209
 20
726.6919916720502
 10
253.9095043404953
 20
729.0667302961035
 10
252.7526895585622
 20
731.4138056573852
 10
251.4270183088189
 20
733.7308281286598
 10
249.9420321402631
 20
736.015408082692
 10
248.307272601892
 20
738.2651558922462
 10
246.5322812427034
 20
740.4776819300869
 10
244.6265996116946
 20
742.6505965689784
 10
242.599769257863
 20
744.7815101816855
 10
240.4613317302061
 20
746.8680331409723
 10
238.2208285777215
 20
748.9077758196037
 10
234.6993494099162
 20
751.881043795337
 10
229.7204479439498
 20
755.6511719418402
 10
224.5050318606266
 20
759.191165675482
 10
219.1294335519265
 20
762.4819079783783
 10
213.6699854098291
 20
765.5042818326452
 10
208.2030198263142
 20
768.2391702203986
 10
202.8048691933615
 20
770.6674561237542
 10
197.5518659029509
 20
772.7700225248282
 10
192.520342347062
 20
774.5277524057364
 10
190.1254884388273
 20
775.2557665810816
 10
228.8796451311451
 20
906.8772991624465
 10
407.0535037919974
 20
1008.0497069123
 10
407.541921450093
 20
1008.289792194802
 10
408.5738289296022
 20
1008.46673979321
 10
409.6528166547959
 20
1008.337487407617
 10
410.7577664586777
 20
1007.966110122375
 10
412.4210282390858
 20
1007.105466403281
 10
414.533282315019
 20
1005.678863447098
 10
415.4813326206568
 20
1005.021225240766
 10
417.9841732647365
 20
1003.306085653801
 10
422.923035922198
 20
999.7206131054935
 10
427.7962950489833
 20
995.9808013851423
 10
432.6201493408273
 20
992.1220870229811
 10
439.7998448719481
 20
986.1923793507594
 10
449.3455087948033
 20
978.1867731383779
 10
456.5653026266384
 20
972.2852541431953
 10
461.4329005192619
 20
968.4572910650766
 10
466.3644844470861
 20
964.7584810567821
 10
471.3762531058465
 20
961.2242606485456
 10
476.4844051912774
 20
957.8900663706002
 10
481.7051393991136
 20
954.7913347531796
 10
487.0546544250896
 20
951.9635023265172
 10
492.5491489649401
 20
949.4420056208467
 10
495.3628788765469
 20
948.3221858505954
 10
497.9278819786522
 20
947.3536218338314
 10
503.1454626699269
 20
945.5792293860572
 10
508.4576292959553
 20
943.997827496538
 10
513.8527113570451
 20
942.6068693378844
 10
519.3190383535033
 20
941.4038080827079
 10
524.8449397856378
 20
940.3860969036193
 10
530.4187451537557
 20
939.5511889732297
 10
536.0287839581646
 20
938.8965374641504
 10
541.6633856991716
 20
938.4195955489923
 10
547.3108798770846
 20
938.1178164003666
 10
552.959595992211
 20
937.9886531908842
 10
558.5978635448578
 20
938.0295590931563
 10
564.2140120353328
 20
938.2379872797944
 10
569.7963709639432
 20
938.6113909234086
 10
575.3332698309968
 20
939.1472231966109
 10
580.8130381368006
 20
939.8429372720121
 10
583.5247414517971
 20
940.2564566670247
 10
585.5102489238294
 20
940.5993089628931
 10
589.4012352850752
 20
941.5532552368913
 10
593.2049374910156
 20
942.7990157133306
 10
596.9310779239589
 20
944.3031728185747
 10
600.5893789662131
 20
946.0323089789877
 10
604.1895630000864
 20
947.9530066209333
 10
607.7413524078873
 20
950.0318481707753
 10
611.2544695719241
 20
952.2354160548778
 10
619.9347769904986
 20
958.0658576339524
 10
630.3167511710848
 20
965.1027358072782
 10
635.5801470086747
 20
968.3456524174512
 10
639.133891985694
 20
970.3439983247363
 10
640.9307048736952
 20
971.2712170820867
 10
645.7717860921516
 20
973.7542077785797
 10
655.5342815797667
 20
978.8562344516021
 10
662.9608914346913
 20
982.5247709946599
 10
667.9709065750779
 20
984.8015179252466
 10
673.0402116160478
 20
986.8718551385087
 10
678.17699027513
 20
988.6782888434376
 10
680.7765625062908
 20
989.4499857291353
 10
682.9957841264226
 20
990.0689027875394
 10
687.4746480836521
 20
991.194817097312
 10
694.266680264367
 20
992.6795254544245
 10
703.4406851217808
 20
994.3325319070835
 10
712.6933024857237
 20
995.7679029184618
 10
721.9720746585111
 20
997.1309019578738
 10
731.2245439424571
 20
998.5667924946335
 10
740.3982526398765
 20
1000.220837998056
 10
747.1899608955979
 20
1001.706682816941
 10
751.6685657128324
 20
1002.833506296132
 10
753.8876423379669
 20
1003.452932056472
 10
755.5879955057187
 20
1003.954784198068
 10
758.9523858682383
 20
1005.103896102145
 10
762.2790779878972
 20
1006.403802018473
 10
765.5746062254954
 20
1007.828174021701
 10
770.4756137147865
 20
1010.133182818593
 10
776.9580992272197
 20
1013.412788242277
 10
783.433547705811
 20
1016.716355357296
 10
788.3196014981881
 20
1019.072282748274
 10
791.6010556681026
 20
1020.544578134172
 10
794.9101552031565
 20
1021.904388278835
 10
798.2534344641504
 20
1023.125385256916
 10
801.6374278118839
 20
1024.181241143066
 10
805.0686696071572
 20
1025.045628011937
 10
806.8064277432354
 20
1025.388169717167
 10
807.9833995480745
 20
1025.585772973965
 10
810.3468636330441
 20
1025.789583333333
 10
812.720625
 20
1025.789583333333
 10
815.1034311063167
 20
1025.614511891415
 10
817.4940294093687
 20
1025.29310792503
 10
819.89116736653
 20
1024.854110351627
 10
823.4959701795404
 20
1024.043710649462
 10
828.3144535070126
 20
1022.805020869957
 10
833.1365496836606
 20
1021.61325717649
 10
836.7490298011711
 20
1020.902575407154
 10
839.1533934566851
 20
1020.557430005825
 10
841.553023882678
 20
1020.353341254533
 10
843.9466685365238
 20
1020.319048070727
 10
845.1405270882344
 20
1020.383426725987
 10
863.0662688780935
 20
759.9245558724805
 10
880.9920106679529
 20
499.4656850189745
 10
879.8005889218554
 20
499.3658998714245
 10
877.4342114365787
 20
499.0040043775094
 10
875.085166350148
 20
498.4730942328792
 10
872.7507572076136
 20
497.8018089796033
 10
869.2697005425973
 20
496.6029238009393
 10
864.6563404614985
 20
494.7617771473459
 10
860.0529879668766
 20
492.8746418164192
 10
856.5931974231233
 20
491.5780306984223
 10
854.2788034535422
 20
490.8147680904798
 10
851.9547773333032
 20
490.1688862525166
 10
849.6184226074566
 20
489.669024726602
 10
847.2670428210517
 20
489.3438230548056
 10
844.8979415191384
 20
489.2219207791966
 10
843.7049957327799
 20
489.2564175514131
 10
841.9366947786624
 20
489.357659316484
 10
838.419385595551
 20
489.7438212347359
 10
834.9226484044889
 20
490.3261198234906
 10
831.4436173409209
 20
491.0775801991604
 10
827.9794265402916
 20
491.9712274781579
 10
824.5272101380457
 20
492.9800867768951
 10
819.3644672358073
 20
494.6444188528191
 10
812.4974904469547
 20
497.0297109656815
 10
805.6268256896428
 20
499.3903032529262
 10
800.4562458544287
 20
501.0021481994125
 10
796.9966535152644
 20
501.9616078469143
 10
793.5232427934869
 20
502.7935055618673
 10
790.0331478245411
 20
503.470866460684
 10
788.2800738712065
 20
503.7350409886901
 10
785.9970599637928
 20
504.0446162450468
 10
781.4063096594489
 20
504.5472531969088
 10
774.4750801955989
 20
505.0886347408313
 10
765.1612663185239
 20
505.4703006362237
 10
755.7993213643975
 20
505.6250784118488
 10
746.4213075480513
 20
505.7040485096701
 10
737.0592870843174
 20
505.8582913716509
 10
727.7453221880271
 20
506.2388874397545
 10
720.8139275469107
 20
506.7790988600798
 10
716.2230451007533
 20
507.2807997130641
 10
713.939957256849
 20
507.5898511998107
 10
711.2591744268713
 20
507.9981345412717
 10
705.9233504711228
 20
509.0838050419139
 10
700.6182095657666
 20
510.4401345554678
 10
695.3435217167399
 20
512.0090502282076
 10
687.4843515529094
 20
514.6255629151577
 10
677.1149342640819
 20
518.3420369710475
 10
671.9793324227685
 20
520.1383954792697
 10
670.072433667982
 20
520.8107111175397
 10
666.2784257022921
 20
522.3033575201194
 10
660.6203824505794
 20
524.7946203415505
 10
649.3722556805153
 20
530.342835052352
 10
639.9750310634307
 20
534.92911408704
 10
636.1931527450859
 20
536.6306134297762
 10
632.39005413031
 20
538.2032644123552
 10
628.5606826630253
 20
539.6126325952935
 10
624.6999857871542
 20
540.8242835391071
 10
620.8029109466191
 20
541.8037828043128
 10
616.8644055853423
 20
542.5166959514265
 10
612.8794171472463
 20
542.9285885409647
 10
610.8656602709943
 20
542.9961966886043
 10
608.1228733797673
 20
543.0343179153315
 10
602.5994606259084
 20
542.9727524175845
 10
597.0413595420895
 20
542.7449858023092
 10
591.4604795013387
 20
542.3500940960763
 10
585.8687298766843
 20
541.7871533254561
 10
580.2780200411544
 20
541.0552395170192
 10
574.7002593677772
 20
540.153428697336
 10
569.147357229581
 20
539.0807968929772
 10
563.6312229995938
 20
537.8364201305133
 10
558.1637660508441
 20
536.4193744365145
 10
552.7568957563599
 20
534.8287358375516
 10
547.4225214891693
 20
533.0635803601949
 10
542.1725526223005
 20
531.1229840310151
 10
537.018898528782
 20
529.0060228765826
 10
531.9734685816419
 20
526.7117729234679
 10
527.0481721539081
 20
524.2393101982416
 10
524.6400455880129
 20
522.9284770238792
 10
522.0062591997981
 20
521.4337390553471
 10
516.9090120115017
 20
518.1832795514371
 10
511.997344887443
 20
514.6492346579946
 10
507.2503571148201
 20
510.8644875868891
 10
502.647147980831
 20
506.8619215499903
 10
498.1668167726738
 20
502.6744197591678
 10
493.7884627775465
 20
498.3348654262913
 10
489.4911852826469
 20
493.8761417632303
 10
483.1479640791928
 20
487.0411659630715
 10
474.7890595371367
 20
477.8033011982779
 10
468.4894203634971
 20
470.9458959105945
 10
464.2396869011228
 20
466.4627037156886
 10
459.9247249493623
 20
462.0905246736854
 10
455.5236337954136
 20
457.8622419964547
 10
453.2793632835601
 20
455.8203886809457
 10
452.4303473255578
 20
455.0390697348643
 10
450.5334515658403
 20
453.3365422746887
 10
449.0037791209907
 20
452.2561490255194
 10
447.960125721665
 20
451.7368969295507
 10
446.9090188708864
 20
451.4610435653405
 10
445.862599429506
 20
451.4949530264151
 10
445.3458956188843
 20
451.6658621358936
 10
254.9915271676613
 20
527.4747957224836
  0
LWPOLYLINE
  5
42
100
AcDbEntity
  8
8
  6
BYLAYER
 62
  256
370
   -1
100
AcDbPolyline
 90
    2
 70
    0
 43
0
 10
843.7049957327799
 20
489.2564175514131
 10
806.8064277432354
 20
1025.388169717167
  0
LWPOLYLINE
  5
43
100
AcDbEntity
  8
8
  6
BYLAYER
 62
  256
370
   -1
100
AcDbPolyline
 90
    2
 70
    0
 43
0
 10
788.2800738712065
 20
503.7350409886901
 10
753.8876423379669
 20
1003.452932056472
  0
LWPOLYLINE
  5
44
100
AcDbEntity
  8
8
  6
BYLAYER
 62
  256
370
   -1
100
AcDbPolyline
 90
    2
 70
    0
 43
0
 10
713.939957256849
 20
507.5898511998107
 10
680.7765625062908
 20
989.4499857291353
  0
LWPOLYLINE
  5
45
100
AcDbEntity
  8
8
  6
BYLAYER
 62
  256
370
   -1
100
AcDbPolyline
 90
    2
 70
    0
 43
0
 10
671.9793324227685
 20
520.1383954792697
 10
640.9307048736952
 20
971.2712170820867
  0
LWPOLYLINE
  5
46
100
AcDbEntity
  8
8
  6
BYLAYER
 62
  256
370
   -1
100
AcDbPolyline
 90
    2
 70
    0
 43
0
 10
610.8656602709943
 20
542.9961966886043
 10
583.5247414517971
 20
940.2564566670247
  0
LWPOLYLINE
  5
47
100
AcDbEntity
  8
8
  6
BYLAYER
 62
  256
370
   -1
100
AcDbPolyline
 90
    2
 70
    0
 43
0
 10
524.6400455880129
 20
522.9284770238792
 10
495.3628788765469
 20
948.3221858505954
  0
LWPOLYLINE
  5
48
100
AcDbEntity
  8
8
  6
BYLAYER
 62
  256
370
   -1
100
AcDbPolyline
 90
    2
 70
    0
 43
0
 10
453.2793632835601
 20
455.8203886809457
 10
415.4813326206568
 20
1005.021225240766
  0
LWPOLYLINE
  5
49
100
AcDbEntity
  8
8
  6
BYLAYER
 62
  256
370
   -1
100
AcDbPolyline
 90
    2
 70
    0
 43
0
 10
445.3458956188843
 20
451.6658621358936
 10
407.0535037919974
 20
1008.0497069123
  0
LWPOLYLINE
  5
4A
100
AcDbEntity
  8
8
  6
BYLAYER
 62
  256
370
   -1
100
AcDbPolyline
 90
    2
 70
    0
 43
0
 10
198.5708249902117
 20
652.5460428810673
 10
461.9781386440349
 20
632.0954410885405
  0
LWPOLYLINE
  5
4B
100
AcDbEntity
  8
8
  6
BYLAYER
 62
  256
370
   -1
100
AcDbPolyline
 90
    2
 70
    0
 43
0
 10
448.2475016934144
 20
831.5999435064647
 10
190.1254884388273
 20
775.2557665810816
  0
LINE
  5
4C
100
AcDbEntity
  8
7
  6
BYLAYER
 62
  256
370
   -1
100
AcDbLine
 10
863.0662688780935
 20
759.9245558724805
 11
256.760516996413
 21
718.1963539559086
  0
ENDBLK
  5
3C
330
3A
100
AcDbEntity
  8
1
100
AcDbBlockEnd
  0
BLOCK
  5
3E
330
3D
100
AcDbEntity
  8
1
100
AcDbBlockBegin
  2
Bk Trace
 70
    0
 10
0
 20
0
  3
Bk Trace
  1

  0
LWPOLYLINE
  5
4D
100
AcDbEntity
  8
1
  6
BYLAYER
 62
  256
370
   -1
100
AcDbPolyline
 90
  221
 70
    1
 43
0
 10
693.0261712893711
 20
169.0271649222278
 10
635.9486008820179
 20
36.43190310494539
 10
450.6836944828717
 20
34.78661987233886
 10
450.3707700815169
 20
34.79448248007286
 10
449.7837064921296
 20
34.9099589997949
 10
448.97456582471
 20
35.26873045129869
 10
448.0126720424459
 20
36.05748102022923
 10
447.1334775952156
 20
37.07738444992182
 10
445.8712253667193
 20
38.80068886245127
 10
444.521773495941
 20
40.39831463240839
 10
443.5030596210597
 20
41.21713223398537
 10
442.9321377331268
 20
41.49302486722872
 10
433.8897314358807
 20
45.27856109449325
 10
420.1883319891066
 20
51.00885992360842
 10
410.9843592050375
 20
54.75010291344773
 10
401.7218510390988
 20
58.34983761098386
 10
392.4019396571878
 20
61.73915459372349
 10
383.0257572252019
 20
64.84914443917351
 10
375.955677038156
 20
66.94437760786332
 10
371.2264439401354
 20
68.22527459403381
 10
368.8562252780938
 20
68.82083476766338
 10
358.2672713941891
 20
71.50486896170533
 10
342.0675466637728
 20
75.60727200205363
 10
333.8944714731122
 20
77.48900455735129
 10
328.4290627244217
 20
78.63657669885212
 10
322.9546539649119
 20
79.66700256375486
 10
317.4761987484186
 20
80.55647861019321
 10
311.9986506287769
 20
81.28120129630021
 10
306.5269631598227
 20
81.81736708020931
 10
301.0660898953914
 20
82.14117242005372
 10
295.6209843893184
 20
82.22881377396696
 10
290.1966001954392
 20
82.05648760008238
 10
284.7978908675894
 20
81.60039035653301
 10
282.1110916471985
 20
81.24517746086472
 10
279.9625352392875
 20
80.90883757452771
 10
275.7412747225931
 20
79.95650066998132
 10
271.6043050278817
 20
78.69710121086354
 10
267.5441462251868
 20
77.16233475681375
 10
263.5533183845422
 20
75.38389686747126
 10
259.6243415759812
 20
73.39348310247522
 10
255.7497358695377
 20
71.22278902146515
 10
251.9220213352448
 20
68.90351018408008
 10
246.2484842163828
 20
65.22399777867003
 10
238.7846430211058
 20
60.07427828132197
 10
231.3737277750369
 20
54.90073983198151
 10
225.8126582982419
 20
51.1706121535877
 10
222.0907956623652
 20
48.80369541221786
 10
220.2216642591976
 20
47.67586442670574
 10
218.8447932375441
 20
46.84247244338351
 10
216.1319413004815
 20
45.08370021033957
 10
212.133934105334
 20
42.28451572654178
 10
204.31001868104
 20
36.29202166399359
 10
196.5130670705057
 20
30.21687908769256
 10
191.2131843046764
 20
26.38036551634309
 10
187.1297579137957
 20
23.73555466730893
 10
184.3462142285401
 20
22.10453992510388
 10
181.5009617217199
 20
20.60709514861242
 10
178.5854130329433
 20
19.26213164677976
 10
177.0951283525927
 20
18.66027550115895
 10
172.6249095654285
 20
16.93574804004206
 10
163.5187730483306
 20
13.70531532407423
 10
154.2450753977725
 20
10.76615481485334
 10
144.8385695002692
 20
8.150406022632845
 10
135.334008242335
 20
5.890208457665853
 10
128.1609808203632
 20
4.460593306281331
 10
123.3677395021806
 20
3.627288735100643
 10
118.5695328425547
 20
2.900950445250782
 10
113.7707049522999
 20
2.285595875513553
 10
108.9755999422303
 20
1.785242464670517
 10
104.1885619231607
 20
1.403907651503478
 10
101.800033201431
 20
1.264337866827973
 10
100.1103415631315
 20
1.19121528760332
 10
96.73384633928447
 20
1.217178760684686
 10
93.36071468799841
 20
1.430320481660904
 10
89.99083317511618
 20
1.809004772818249
 10
86.62408836648048
 20
2.331595956443234
 10
83.26036682793374
 20
2.976458354822377
 10
78.21986255372489
 20
4.117159682498006
 10
68.15649180459425
 20
6.809291954336175
 10
58.11711487770319
 20
9.534174099471837
 10
53.10420349906973
 20
10.7125377814395
 10
49.76447578276244
 20
11.39015005311613
 10
48.09535644034825
 20
11.68164049215306
 10
43.44809196970016
 20
12.45937464969491
 10
34.05223099575498
 20
13.94228197431142
 10
24.59565787625777
 20
15.24861019822358
 10
15.14602404857151
 20
16.27890830793848
 10
10.44946779532751
 20
16.64175068515395
 10
28.64040829961183
 20
277.0822339218612
 10
46.83134880389628
 20
537.5227171585686
 10
51.53274318970112
 20
537.2291425348152
 10
61.03385043498893
 20
536.9357915747453
 10
70.58020204343372
 20
536.9148258663266
 10
80.0909782314171
 20
537.0771646392556
 10
84.80123581469279
 20
537.201305604084
 10
86.49467003724094
 20
537.2579323572511
 10
89.89616828135318
 20
537.4646914080771
 10
95.02421611222033
 20
537.9347413004841
 10
105.3449135378582
 20
539.2375369227921
 10
115.6848190724614
 20
540.5045651541321
 10
120.8349562286386
 20
540.9334825469264
 10
124.2556625817164
 20
541.1044742067846
 10
127.6623652616949
 20
541.1539615981612
 10
131.052168907848
 20
541.0605033520773
 10
134.4221781594495
 20
540.8026580995539
 10
137.7694976557727
 20
540.3589844716118
 10
139.4326175789624
 20
540.0516786545157
 10
141.7785518378134
 20
539.5814216689522
 10
146.4660973041024
 20
538.5383172939141
 10
151.1450860087699
 20
537.3762285301224
 10
155.8117745074522
 20
536.0997377063989
 10
160.4624193557864
 20
534.7134271515655
 10
165.0932771094097
 20
533.2218791944443
 10
171.9979173659194
 20
530.8089836712999
 10
181.0959889725422
 20
527.2494512891931
 10
190.0475302017855
 20
523.3514512167289
 10
198.8225934987442
 20
519.151642084483
 10
207.3912313085138
 20
514.6866825230306
 10
211.5783092606472
 20
512.3574703832674
 10
212.9704562907043
 20
511.554285538283
 10
215.6707249152766
 20
509.8170750349071
 10
218.280182665953
 20
507.9386360729915
 10
220.8099624857936
 20
505.9365025609238
 10
224.4860701048292
 20
502.749712908283
 10
229.2011574762156
 20
498.2136854838867
 10
236.0778636668952
 20
491.1136345188254
 10
242.9927612787185
 20
484.0916811813145
 10
246.5628187840425
 20
480.7638914170015
 10
249.0048329925353
 20
478.6450681573431
 10
250.2524805278812
 20
477.6283618892007
 10
251.9466771307661
 20
476.2516437608382
 10
255.3033632763423
 20
473.3903128710234
 10
260.2918905739387
 20
468.9233293671367
 10
266.9116456342155
 20
462.7697931631998
 10
273.5871239462932
 20
456.6324871096728
 10
278.6940631539665
 20
452.1999926754065
 10
282.1621958031445
 20
449.371122086411
 10
285.6974198978457
 20
446.6828749299945
 10
289.3115489119754
 20
444.1655991828181
 10
293.0163963194383
 20
441.8496428215436
 10
296.82377559414
 20
439.7653538228324
 10
300.7455002099854
 20
437.9430801633457
 10
304.7933836408798
 20
436.4131698197452
 10
306.8743215819784
 20
435.7814131874787
 10
309.4856524723036
 20
435.0561427322858
 10
314.7685369160291
 20
433.8539700922589
 10
320.1162954910877
 20
432.9292439620459
 10
325.5207136815277
 20
432.2590805476286
 10
330.9735769713973
 20
431.8205960549885
 10
336.4666708447446
 20
431.5909066901072
 10
341.9917807856179
 20
431.5471286589662
 10
347.5406922780652
 20
431.6663781675474
 10
353.1051908061349
 20
431.9257714218321
 10
358.6770618538749
 20
432.3024246278019
 10
367.0323681174987
 20
433.0297022384212
 10
383.6450943644595
 20
434.840259801787
 10
394.5043539753152
 20
436.0262044102257
 10
396.9343503828494
 20
436.2864848084023
 10
401.7957281023213
 20
436.8975080920956
 10
409.0884290932578
 20
437.9895466167051
 10
418.8059074217214
 20
439.765904906163
 10
428.506491867596
 20
441.8267006710597
 10
438.1794817837334
 20
444.1038509733082
 10
447.8141765229852
 20
446.5292728748213
 10
462.1791383589099
 20
450.2992255168912
 10
471.6599928319162
 20
452.7909708156894
 10
472.2637245280087
 20
452.9848176271981
 10
473.386375204482
 20
453.6540677165835
 10
474.9448188487528
 20
455.0485862213047
 10
476.4343808137331
 20
456.5796851531413
 10
477.4468208033414
 20
457.4674639259114
 10
478.5090233161692
 20
458.1148377978656
 10
479.360182174174
 20
458.3576426012088
 10
479.9575985211033
 20
458.3903869597003
 10
480.268577516939
 20
458.3546718968754
 10
663.50588123994
 20
430.9706797787659
 10
701.5964506421509
 20
291.7282256829861
 10
700.6961292372818
 20
291.4664511151647
 10
698.9436184770303
 20
290.805216313729
 10
697.2485580096102
 20
289.9858997112491
 10
695.61060542774
 20
289.016435749844
 10
694.0294183241388
 20
287.9047588716323
 10
692.5046542915254
 20
286.658803518733
 10
691.0359709226188
 20
285.2865041332648
 10
689.6230258101378
 20
283.7957951573469
 10
688.2654765468013
 20
282.1946110330978
 10
686.9629807253281
 20
280.4908862026364
 10
685.1049385027271
 20
277.7707298000458
 10
682.8261586235874
 20
273.8432492072759
 10
680.7614291808408
 20
269.6484257477964
 10
678.9080109162385
 20
265.2497349585581
 10
677.2631645715315
 20
260.7106523765117
 10
675.824150888471
 20
256.0946535386082
 10
674.5882306088077
 20
251.4652139817983
 10
673.5526644742928
 20
246.8858092430328
 10
672.7147132266772
 20
242.4199148592626
 10
672.0716376077122
 20
238.1310063674384
 10
671.6206983591485
 20
234.0825593045111
 10
671.4742583340241
 20
232.1823313614443
 10
671.3551154159882
 20
230.2801968021525
 10
671.23887945208
 20
226.2083717779264
 10
671.2794864016084
 20
221.8717102303072
 10
671.488473005507
 20
217.3326905630484
 10
671.877376004709
 20
212.6537911799036
 10
672.4577321401482
 20
207.897490484626
 10
673.241078152758
 20
203.1262668809694
 10
674.238950783472
 20
198.4025987726869
 10
675.4628867732237
 20
193.7889645635323
 10
676.9244228629462
 20
189.3478426572589
 10
678.6350957935739
 20
185.1417114576201
 10
680.0969530559041
 20
182.1896706211656
 10
681.1499578465216
 20
180.3214215548411
 10
682.2717362641404
 20
178.5470642672866
 10
683.4637304013771
 20
176.8744085589712
 10
684.7273823508484
 20
175.3112642303643
 10
686.0641342051713
 20
173.8654410819349
 10
687.4754280569622
 20
172.5447489141522
 10
688.9627059988377
 20
171.3569975274853
 10
690.5274101234146
 20
170.3099967224037
 10
692.1709825233097
 20
169.4115562993762
 10
693.0261712893711
 20
169.0271649222278
  0
LWPOLYLINE
  5
4E
100
AcDbEntity
  8
8
  6
BYLAYER
 62
  256
370
   -1
100
AcDbPolyline
 90
  220
 70
    1
 43
0
 10
635.9486008820179
 20
36.43190310494539
 10
450.6836944828717
 20
34.78661987233886
 10
450.3707700815169
 20
34.79448248007286
 10
449.7837064921296
 20
34.9099589997949
 10
448.97456582471
 20
35.26873045129869
 10
448.0126720424459
 20
36.05748102022923
 10
447.1334775952156
 20
37.07738444992182
 10
445.8712253667193
 20
38.80068886245127
 10
444.521773495941
 20
40.39831463240839
 10
443.5030596210597
 20
41.21713223398537
 10
442.9321377331268
 20
41.49302486722872
 10
433.8897314358807
 20
45.27856109449325
 10
420.1883319891066
 20
51.00885992360842
 10
410.9843592050375
 20
54.75010291344773
 10
401.7218510390988
 20
58.34983761098386
 10
392.4019396571878
 20
61.73915459372349
 10
383.0257572252019
 20
64.84914443917351
 10
375.955677038156
 20
66.94437760786332
 10
371.2264439401354
 20
68.22527459403381
 10
368.8562252780938
 20
68.82083476766338
 10
358.2672713941891
 20
71.50486896170533
 10
342.0675466637728
 20
75.60727200205363
 10
333.8944714731122
 20
77.48900455735129
 10
328.4290627244217
 20
78.63657669885212
 10
322.9546539649119
 20
79.66700256375486
 10
317.4761987484186
 20
80.55647861019321
 10
311.9986506287769
 20
81.28120129630021
 10
306.5269631598227
 20
81.81736708020931
 10
301.0660898953914
 20
82.14117242005372
 10
295.6209843893184
 20
82.22881377396696
 10
290.1966001954392
 20
82.05648760008238
 10
284.7978908675894
 20
81.60039035653301
 10
282.1110916471985
 20
81.24517746086472
 10
279.9625352392875
 20
80.90883757452771
 10
275.7412747225931
 20
79.95650066998132
 10
271.6043050278817
 20
78.69710121086354
 10
267.5441462251868
 20
77.16233475681375
 10
263.5533183845422
 20
75.38389686747126
 10
259.6243415759812
 20
73.39348310247522
 10
255.7497358695377
 20
71.22278902146515
 10
251.9220213352448
 20
68.90351018408008
 10
246.2484842163828
 20
65.22399777867003
 10
238.7846430211058
 20
60.07427828132197
 10
231.3737277750369
 20
54.90073983198151
 10
225.8126582982419
 20
51.1706121535877
 10
222.0907956623652
 20
48.80369541221786
 10
220.2216642591976
 20
47.67586442670574
 10
218.8447932375441
 20
46.84247244338351
 10
216.1319413004815
 20
45.08370021033957
 10
212.133934105334
 20
42.28451572654178
 10
204.31001868104
 20
36.29202166399359
 10
196.5130670705057
 20
30.21687908769256
 10
191.2131843046764
 20
26.38036551634309
 10
187.1297579137957
 20
23.73555466730893
 10
184.3462142285401
 20
22.10453992510388
 10
181.5009617217199
 20
20.60709514861242
 10
178.5854130329433
 20
19.26213164677976
 10
177.0951283525927
 20
18.66027550115895
 10
172.6249095654285
 20
16.93574804004206
 10
163.5187730483306
 20
13.70531532407423
 10
154.2450753977725
 20
10.76615481485334
 10
144.8385695002692
 20
8.150406022632845
 10
135.334008242335
 20
5.890208457665853
 10
128.1609808203632
 20
4.460593306281331
 10
123.3677395021806
 20
3.627288735100643
 10
118.5695328425547
 20
2.900950445250782
 10
113.7707049522999
 20
2.285595875513553
 10
108.9755999422303
 20
1.785242464670517
 10
104.1885619231607
 20
1.403907651503478
 10
101.800033201431
 20
1.264337866827973
 10
100.1103415631315
 20
1.19121528760332
 10
96.73384633928447
 20
1.217178760684686
 10
93.36071468799841
 20
1.430320481660904
 10
89.99083317511618
 20
1.809004772818249
 10
86.62408836648048
 20
2.331595956443234
 10
83.26036682793374
 20
2.976458354822377
 10
78.21986255372489
 20
4.117159682498006
 10
68.15649180459425
 20
6.809291954336175
 10
58.11711487770319
 20
9.534174099471837
 10
53.10420349906973
 20
10.7125377814395
 10
49.76447578276244
 20
11.39015005311613
 10
48.09535644034825
 20
11.68164049215306
 10
43.44809196970016
 20
12.45937464969491
 10
34.05223099575498
 20
13.94228197431142
 10
24.59565787625777
 20
15.24861019822358
 10
15.14602404857151
 20
16.27890830793848
 10
10.44946779532751
 20
16.64175068515395
 10
28.64040829961183
 20
277.0822339218612
 10
46.83134880389628
 20
537.5227171585686
 10
51.53274318970112
 20
537.2291425348152
 10
61.03385043498893
 20
536.9357915747453
 10
70.58020204343372
 20
536.9148258663266
 10
80.0909782314171
 20
537.0771646392556
 10
84.80123581469279
 20
537.201305604084
 10
86.49467003724094
 20
537.2579323572511
 10
89.89616828135318
 20
537.4646914080771
 10
95.02421611222033
 20
537.9347413004841
 10
105.3449135378582
 20
539.2375369227921
 10
115.6848190724614
 20
540.5045651541321
 10
120.8349562286386
 20
540.9334825469264
 10
124.2556625817164
 20
541.1044742067846
 10
127.6623652616949
 20
541.1539615981612
 10
131.052168907848
 20
541.0605033520773
 10
134.4221781594495
 20
540.8026580995539
 10
137.7694976557727
 20
540.3589844716118
 10
139.4326175789624
 20
540.0516786545157
 10
141.7785518378134
 20
539.5814216689522
 10
146.4660973041024
 20
538.5383172939141
 10
151.1450860087699
 20
537.3762285301224
 10
155.8117745074522
 20
536.0997377063989
 10
160.4624193557864
 20
534.7134271515655
 10
165.0932771094097
 20
533.2218791944443
 10
171.9979173659194
 20
530.8089836712999
 10
181.0959889725422
 20
527.2494512891931
 10
190.0475302017855
 20
523.3514512167289
 10
198.8225934987442
 20
519.151642084483
 10
207.3912313085138
 20
514.6866825230306
 10
211.5783092606472
 20
512.3574703832674
 10
212.9704562907043
 20
511.554285538283
 10
215.6707249152766
 20
509.8170750349071
 10
218.280182665953
 20
507.9386360729915
 10
220.8099624857936
 20
505.9365025609238
 10
224.4860701048292
 20
502.749712908283
 10
229.2011574762156
 20
498.2136854838867
 10
236.0778636668952
 20
491.1136345188254
 10
242.9927612787185
 20
484.0916811813145
 10
246.5628187840425
 20
480.7638914170015
 10
249.0048329925353
 20
478.6450681573431
 10
250.2524805278812
 20
477.6283618892007
 10
251.9466771307661
 20
476.2516437608382
 10
255.3033632763423
 20
473.3903128710234
 10
260.2918905739387
 20
468.9233293671367
 10
266.9116456342155
 20
462.7697931631998
 10
273.5871239462932
 20
456.6324871096728
 10
278.6940631539665
 20
452.1999926754065
 10
282.1621958031445
 20
449.371122086411
 10
285.6974198978457
 20
446.6828749299945
 10
289.3115489119754
 20
444.1655991828181
 10
293.0163963194383
 20
441.8496428215436
 10
296.82377559414
 20
439.7653538228324
 10
300.7455002099854
 20
437.9430801633457
 10
304.7933836408798
 20
436.4131698197452
 10
306.8743215819784
 20
435.7814131874787
 10
309.4856524723036
 20
435.0561427322858
 10
314.7685369160291
 20
433.8539700922589
 10
320.1162954910877
 20
432.9292439620459
 10
325.5207136815277
 20
432.2590805476286
 10
330.9735769713973
 20
431.8205960549885
 10
336.4666708447446
 20
431.5909066901072
 10
341.9917807856179
 20
431.5471286589662
 10
347.5406922780652
 20
431.6663781675474
 10
353.1051908061349
 20
431.9257714218321
 10
358.6770618538749
 20
432.3024246278019
 10
367.0323681174987
 20
433.0297022384212
 10
383.6450943644595
 20
434.840259801787
 10
394.5043539753152
 20
436.0262044102257
 10
396.9343503828494
 20
436.2864848084023
 10
401.7957281023213
 20
436.8975080920956
 10
409.0884290932578
 20
437.9895466167051
 10
418.8059074217214
 20
439.765904906163
 10
428.506491867596
 20
441.8267006710597
 10
438.1794817837334
 20
444.1038509733082
 10
447.8141765229852
 20
446.5292728748213
 10
462.1791383589099
 20
450.2992255168912
 10
471.6599928319162
 20
452.7909708156894
 10
472.2637245280087
 20
452.9848176271981
 10
473.386375204482
 20
453.6540677165835
 10
474.9448188487528
 20
455.0485862213047
 10
476.4343808137331
 20
456.5796851531413
 10
477.4468208033414
 20
457.4674639259114
 10
478.5090233161692
 20
458.1148377978656
 10
479.360182174174
 20
458.3576426012088
 10
479.9575985211033
 20
458.3903869597003
 10
480.268577516939
 20
458.3546718968754
 10
663.50588123994
 20
430.9706797787659
 10
701.5964506421509
 20
291.7282256829861
 10
700.6961292372818
 20
291.4664511151647
 10
698.9436184770303
 20
290.805216313729
 10
697.2485580096102
 20
289.9858997112491
 10
695.61060542774
 20
289.016435749844
 10
694.0294183241388
 20
287.9047588716323
 10
692.5046542915254
 20
286.658803518733
 10
691.0359709226188
 20
285.2865041332648
 10
689.6230258101378
 20
283.7957951573469
 10
688.2654765468013
 20
282.1946110330978
 10
686.9629807253281
 20
280.4908862026364
 10
685.1049385027271
 20
277.7707298000458
 10
682.8261586235874
 20
273.8432492072759
 10
680.7614291808408
 20
269.6484257477964
 10
678.9080109162385
 20
265.2497349585581
 10
677.2631645715315
 20
260.7106523765117
 10
675.824150888471
 20
256.0946535386082
 10
674.5882306088077
 20
251.4652139817983
 10
673.5526644742928
 20
246.8858092430328
 10
672.7147132266772
 20
242.4199148592626
 10
672.0716376077122
 20
238.1310063674384
 10
671.6206983591485
 20
234.0825593045111
 10
671.4742583340241
 20
232.1823313614443
 10
671.3551154159882
 20
230.2801968021525
 10
671.23887945208
 20
226.2083717779264
 10
671.2794864016084
 20
221.8717102303072
 10
671.488473005507
 20
217.3326905630484
 10
671.877376004709
 20
212.6537911799036
 10
672.4577321401482
 20
207.897490484626
 10
673.241078152758
 20
203.1262668809694
 10
674.238950783472
 20
198.4025987726869
 10
675.4628867732237
 20
193.7889645635323
 10
676.9244228629462
 20
189.3478426572589
 10
678.6350957935739
 20
185.1417114576201
 10
680.0969530559041
 20
182.1896706211656
 10
681.1499578465216
 20
180.3214215548411
 10
682.2717362641404
 20
178.5470642672866
 10
683.4637304013771
 20
176.8744085589712
 10
684.7273823508484
 20
175.3112642303643
 10
686.0641342051713
 20
173.8654410819349
 10
687.4754280569622
 20
172.5447489141522
 10
688.9627059988377
 20
171.3569975274853
 10
690.5274101234146
 20
170.3099967224037
 10
692.1709825233097
 20
169.4115562993762
 10
693.0261712893711
 20
169.0271649222278
  0
LWPOLYLINE
  5
4F
100
AcDbEntity
  8
8
  6
BYLAYER
 62
  256
370
   -1
100
AcDbPolyline
 90
    2
 70
    0
 43
0
 10
84.80123581469279
 20
537.201305604084
 10
48.09535644034825
 20
11.68164049215306
  0
LWPOLYLINE
  5
50
100
AcDbEntity
  8
8
  6
BYLAYER
 62
  256
370
   -1
100
AcDbPolyline
 90
    2
 70
    0
 43
0
 10
139.4326175789624
 20
540.0516786545157
 10
101.800033201431
 20
1.264337866827973
  0
LWPOLYLINE
  5
51
100
AcDbEntity
  8
8
  6
BYLAYER
 62
  256
370
   -1
100
AcDbPolyline
 90
    2
 70
    0
 43
0
 10
211.5783092606472
 20
512.3574703832674
 10
177.0951283525927
 20
18.66027550115895
  0
LWPOLYLINE
  5
52
100
AcDbEntity
  8
8
  6
BYLAYER
 62
  256
370
   -1
100
AcDbPolyline
 90
    2
 70
    0
 43
0
 10
250.2524805278812
 20
477.6283618892007
 10
220.2216642591976
 20
47.67586442670574
  0
LWPOLYLINE
  5
53
100
AcDbEntity
  8
8
  6
BYLAYER
 62
  256
370
   -1
100
AcDbPolyline
 90
    2
 70
    0
 43
0
 10
306.8743215819784
 20
435.7814131874787
 10
282.1110916471985
 20
81.24517746086472
  0
LWPOLYLINE
  5
54
100
AcDbEntity
  8
8
  6
BYLAYER
 62
  256
370
   -1
100
AcDbPolyline
 90
    2
 70
    0
 43
0
 10
394.5043539753152
 20
436.0262044102257
 10
368.8562252780938
 20
68.82083476766338
  0
LWPOLYLINE
  5
55
100
AcDbEntity
  8
8
  6
BYLAYER
 62
  256
370
   -1
100
AcDbPolyline
 90
    2
 70
    0
 43
0
 10
471.6599928319162
 20
452.7909708156894
 10
442.9321377331268
 20
41.49302486722872
  0
LWPOLYLINE
  5
56
100
AcDbEntity
  8
8
  6
BYLAYER
 62
  256
370
   -1
100
AcDbPolyline
 90
    2
 70
    0
 43
0
 10
480.268577516939
 20
458.3546718968754
 10
450.6836944828717
 20
34.78661987233886
  0
LINE
  5
57
100
AcDbEntity
  8
7
  6
BYLAYER
 62
  256
370
   -1
100
AcDbLine
 10
671.4742583340241
 20
232.1823313614444
 11
28.64040829961183
 21
277.0822339218612
  0
ENDBLK
  5
3F
330
3D
100
AcDbEntity
  8
0
100
AcDbBlockEnd
  0
ENDSEC
  0
SECTION
  2
ENTITIES
  0
INSERT
  5
58
100
AcDbEntity
  8
1
  6
BYLAYER
 62
  256
370
   -1
100
AcDbBlockReference
  2
Fr Trace
 10
0
 20
0
 30
0
 41
1
 42
1
 43
1
 50
0
 70
    1
 71
    1
 44
0
 45
0
  0
INSERT
  5
59
100
AcDbEntity
  8
1
  6
BYLAYER
 62
  256
370
   -1
100
AcDbBlockReference
  2
Bk Trace
 10
0
 20
0
 30
0
 41
1
 42
1
 43
1
 50
0
 70
    1
 71
    1
 44
0
 45
0
  0
ENDSEC
  0
SECTION
  2
OBJECTS
  0
DICTIONARY
  5
C
330
0
100
AcDbDictionary
281
    1
  3
ACAD_GROUP
350
D
  0
DICTIONARY
  5
D
330
C
100
AcDbDictionary
281
    1
  0
ENDSEC
  0
EOF
