999
dxfrw 0.6.3
  0
SECTION
  2
HEADER
  9
$ACADVER
  1
AC1027
  9
$DWGCODEPAGE
  3
UTF-8
  9
$INSBASE
 10
0
 20
0
 30
0
  9
$EXTMIN
 10
1e+20
 20
1e+20
 30
1e+20
  9
$EXTMAX
 10
-1e+20
 20
-1e+20
 30
-1e+20
  9
$LIMMIN
 10
0
 20
0
  9
$LIMMAX
 10
420
 20
297
  9
$ORTHOMODE
 70
    0
  9
$REGENMODE
 70
    1
  9
$FILLMODE
 70
    1
  9
$QTEXTMODE
 70
    0
  9
$MIRRTEXT
 70
    0
  9
$LTSCALE
 40
1
  9
$ATTMODE
 70
    0
  9
$TEXTSIZE
 40
2.5
  9
$TRACEWID
 40
15.68
  9
$TEXTSTYLE
  7
STANDARD
  9
$CLAYER
  8
1
  9
$CELTYPE
  6
BYLAYER
  9
$CECOLOR
 62
  256
  9
$CELTSCALE
 40
1
  9
$DISPSILH
 70
    0
  9
$DIMSCALE
 40
1
  9
$DIMASZ
 40
2.5
  9
$DIMEXO
 40
0.625
  9
$DIMDLI
 40
3.75
  9
$DIMRND
 40
0
  9
$DIMDLE
 40
0
  9
$DIMEXE
 40
1.25
  9
$DIMTP
 40
0
  9
$DIMTM
 40
0
  9
$DIMTXT
 40
2.5
  9
$DIMCEN
 40
2.5
  9
$DIMTSZ
 40
0
  9
$DIMTOL
 70
    0
  9
$DIMLIM
 70
    0
  9
$DIMTIH
 70
    0
  9
$DIMTOH
 70
    0
  9
$DIMSE1
 70
    0
  9
$DIMSE2
 70
    0
  9
$DIMTAD
 70
    1
  9
$DIMZIN
 70
    8
  9
$DIMBLK
  1

  9
$DIMASO
 70
    1
  9
$DIMSHO
 70
    1
  9
$DIMPOST
  1

  9
$DIMAPOST
  1

  9
$DIMALT
 70
    0
  9
$DIMALTD
 70
    3
  9
$DIMALTF
 40
0.03937
  9
$DIMLFAC
 40
1
  9
$DIMTOFL
 70
    1
  9
$DIMTVP
 40
0
  9
$DIMTIX
 70
    0
  9
$DIMSOXD
 70
    0
  9
$DIMSAH
 70
    0
  9
$DIMBLK1
  1

  9
$DIMBLK2
  1

  9
$DIMSTYLE
  2
STANDARD
  9
$DIMCLRD
 70
    0
  9
$DIMCLRE
 70
    0
  9
$DIMCLRT
 70
    0
  9
$DIMTFAC
 40
1
  9
$DIMGAP
 40
0.625
  9
$DIMJUST
 70
    0
  9
$DIMSD1
 70
    0
  9
$DIMSD2
 70
    0
  9
$DIMTOLJ
 70
    0
  9
$DIMTZIN
 70
    8
  9
$DIMALTZ
 70
    0
  9
$DIMALTTZ
 70
    0
  9
$DIMUPT
 70
    0
  9
$DIMDEC
 70
    2
  9
$DIMTDEC
 70
    2
  9
$DIMALTU
 70
    2
  9
$DIMALTTD
 70
    3
  9
$DIMTXSTY
  7
STANDARD
  9
$DIMAUNIT
 70
    0
  9
$DIMADEC
 70
    0
  9
$DIMALTRND
 40
0
  9
$DIMAZIN
 70
    0
  9
$DIMDSEP
 70
   44
  9
$DIMATFIT
 70
    3
  9
$DIMFRAC
 70
    0
  9
$DIMLDRBLK
  1
STANDARD
  9
$DIMLUNIT
 70
    2
  9
$DIMLWD
 70
   -2
  9
$DIMLWE
 70
   -2
  9
$DIMTMOVE
 70
    0
  9
$DIMFXL
 40
1
  9
$DIMFXLON
 70
    0
  9
$DIMJOGANG
 40
0.7854
  9
$DIMTFILL
 70
    0
  9
$DIMTFILLCLR
 70
    0
  9
$DIMARCSYM
 70
    0
  9
$DIMLTYPE
  6

  9
$DIMLTEX1
  6

  9
$DIMLTEX2
  6

  9
$DIMTXTDIRECTION
 70
    0
  9
$LUNITS
 70
    2
  9
$LUPREC
 70
    4
  9
$SKETCHINC
 40
1
  9
$FILLETRAD
 40
0
  9
$AUNITS
 70
    0
  9
$AUPREC
 70
    2
  9
$MENU
  1
.
  9
$ELEVATION
 40
0
  9
$PELEVATION
 40
0
  9
$THICKNESS
 40
0
  9
$LIMCHECK
 70
    0
  9
$CHAMFERA
 40
0
  9
$CHAMFERB
 40
0
  9
$CHAMFERC
 40
0
  9
$CHAMFERD
 40
0
  9
$SKPOLY
 70
    0
  9
$USRTIMER
 70
    1
  9
$ANGBASE
 50
0
  9
$ANGDIR
 70
    0
  9
$PDMODE
 70
   34
  9
$PDSIZE
 40
0
  9
$PLINEWID
 40
0
  9
$SPLFRAME
 70
    0
  9
$SPLINETYPE
 70
    2
  9
$SPLINESEGS
 70
    8
  9
$HANDSEED
  5
20000
  9
$SURFTAB1
 70
    6
  9
$SURFTAB2
 70
    6
  9
$SURFTYPE
 70
    6
  9
$SURFU
 70
    6
  9
$SURFV
 70
    6
  9
$TDCREATE
 40
20260319.16174706
  9
$UCSBASE
  2

  9
$UCSNAME
  2

  9
$UCSORG
 10
0
 20
0
 30
0
  9
$UCSXDIR
 10
1
 20
0
 30
0
  9
$UCSYDIR
 10
0
 20
1
 30
0
  9
$UCSORTHOREF
  2

  9
$UCSORTHOVIEW
 70
    0
  9
$UCSORGTOP
 10
0
 20
0
 30
0
  9
$UCSORGBOTTOM
 10
0
 20
0
 30
0
  9
$UCSORGLEFT
 10
0
 20
0
 30
0
  9
$UCSORGRIGHT
 10
0
 20
0
 30
0
  9
$UCSORGFRONT
 10
0
 20
0
 30
0
  9
$UCSORGBACK
 10
0
 20
0
 30
0
  9
$PUCSBASE
  2

  9
$PUCSNAME
  2

  9
$PUCSORG
 10
0
 20
0
 30
0
  9
$PUCSXDIR
 10
1
 20
0
 30
0
  9
$PUCSYDIR
 10
0
 20
1
 30
0
  9
$PUCSORTHOREF
  2

  9
$PUCSORTHOVIEW
 70
    0
  9
$PUCSORGTOP
 10
0
 20
0
 30
0
  9
$PUCSORGBOTTOM
 10
0
 20
0
 30
0
  9
$PUCSORGLEFT
 10
0
 20
0
 30
0
  9
$PUCSORGRIGHT
 10
0
 20
0
 30
0
  9
$PUCSORGFRONT
 10
0
 20
0
 30
0
  9
$PUCSORGBACK
 10
0
 20
0
 30
0
  9
$USERI1
 70
    0
  9
$USERI2
 70
    0
  9
$USERI3
 70
    0
  9
$USERI4
 70
    0
  9
$USERI5
 70
    0
  9
$USERR1
 40
0
  9
$USERR2
 40
0
  9
$USERR3
 40
0
  9
$USERR4
 40
0
  9
$USERR5
 40
0
  9
$WORLDVIEW
 70
    1
  9
$SHADEDGE
 70
    3
  9
$SHADEDIF
 70
   70
  9
$TILEMODE
 70
    1
  9
$MAXACTVP
 70
   64
  9
$PINSBASE
 10
0
 20
0
 30
0
  9
$PLIMCHECK
 70
    0
  9
$PEXTMIN
 10
0
 20
0
 30
0
  9
$PEXTMAX
 10
0
 20
0
 30
0
  9
$PLIMMIN
 10
0
 20
0
  9
$PLIMMAX
 10
297
 20
210
  9
$UNITMODE
 70
    0
  9
$VISRETAIN
 70
    1
  9
$PLINEGEN
 70
    0
  9
$PSLTSCALE
 70
    1
  9
$TREEDEPTH
 70
 3020
  9
$CMLSTYLE
  2
Standard
  9
$CMLJUST
 70
    0
  9
$CMLSCALE
 40
20
  9
$PROXYGRAPHICS
 70
    1
  9
$MEASUREMENT
 70
    1
  9
$CELWEIGHT
370
   -1
  9
$ENDCAPS
280
    0
  9
$JOINSTYLE
280
    0
  9
$LWDISPLAY
290
    0
  9
$INSUNITS
 70
    4
  9
$HYPERLINKBASE
  1

  9
$STYLESHEET
  1

  9
$XEDIT
290
    1
  9
$CEPSNTYPE
380
    0
  9
$PSTYLEMODE
290
    1
  9
$EXTNAMES
290
    1
  9
$PSVPSCALE
 40
0
  9
$OLESTARTUP
290
    0
  9
$SORTENTS
280
  127
  9
$INDEXCTL
280
    0
  9
$HIDETEXT
280
    1
  9
$XCLIPFRAME
280
    0
  9
$HALOGAP
280
    0
  9
$OBSCOLOR
 70
  257
  9
$OBSLTYPE
280
    0
  9
$INTERSECTIONDISPLAY
280
    0
  9
$INTERSECTIONCOLOR
 70
  257
  9
$DIMASSOC
280
    1
  9
$PROJECTNAME
  1

  9
$CAMERADISPLAY
290
    0
  9
$LENSLENGTH
 40
50
  9
$CAMERAHEIGHT
 40
0
  9
$STEPSPERSEC
 40
2
  9
$STEPSIZE
 40
50
  9
$3DDWFPREC
 40
2
  9
$PSOLWIDTH
 40
5
  9
$PSOLHEIGHT
 40
80
  9
$LOFTANG1
 40
1.570796326794897
  9
$LOFTANG2
 40
1.570796326794897
  9
$LOFTMAG1
 40
0
  9
$LOFTMAG2
 40
0
  9
$LOFTPARAM
 70
    7
  9
$LOFTNORMALS
280
    1
  9
$LATITUDE
 40
1
  9
$LONGITUDE
 40
1
  9
$NORTHDIRECTION
 40
0
  9
$TIMEZONE
 70
-8000
  9
$LIGHTGLYPHDISPLAY
280
    1
  9
$TILEMODELIGHTSYNCH
280
    1
  9
$SOLIDHIST
280
    1
  9
$SHOWHIST
280
    1
  9
$DWFFRAME
280
    2
  9
$DGNFRAME
280
    0
  9
$REALWORLDSCALE
290
    1
  9
$INTERFERECOLOR
 62
    1
  9
$CSHADOW
280
    0
  9
$SHADOWPLANELOCATION
 40
0
  0
ENDSEC
  0
SECTION
  2
CLASSES
  0
ENDSEC
  0
SECTION
  2
TABLES
  0
TABLE
  2
VPORT
  5
8
330
0
100
AcDbSymbolTable
 70
    1
  0
VPORT
  5
31
330
2
100
AcDbSymbolTableRecord
100
AcDbViewportTableRecord
  2
*ACTIVE
 70
    0
 10
0
 20
0
 11
1
 21
1
 12
0.651828
 22
-0.16
 13
0
 23
0
 14
10
 24
10
 15
10
 25
10
 16
0
 26
0
 36
1
 17
0
 27
0
 37
0
 40
5.13732
 41
2.4426877
 42
50
 43
0
 44
0
 50
0
 51
0
 71
    0
 72
  100
 73
    1
 74
    3
 75
    0
 76
    0
 77
    0
 78
    0
281
    0
 65
    1
110
0
120
0
130
0
111
1
121
0
131
0
112
0
122
1
132
0
 79
    0
146
0
348
10020
 60
    7
 61
    5
292
1
282
    1
141
0
142
0
 63
  250
421
3358443
  0
ENDTAB
  0
TABLE
  2
LTYPE
  5
5
330
0
100
AcDbSymbolTable
 70
    4
  0
LTYPE
  5
14
330
5
100
AcDbSymbolTableRecord
100
AcDbLinetypeTableRecord
  2
ByBlock
 70
    0
  3

 72
   65
 73
    0
 40
0
  0
LTYPE
  5
15
330
5
100
AcDbSymbolTableRecord
100
AcDbLinetypeTableRecord
  2
ByLayer
 70
    0
  3

 72
   65
 73
    0
 40
0
  0
LTYPE
  5
16
330
5
100
AcDbSymbolTableRecord
100
AcDbLinetypeTableRecord
  2
Continuous
 70
    0
  3
Solid line
 72
   65
 73
    0
 40
0
  0
ENDTAB
  0
TABLE
  2
LAYER
  5
2
330
0
100
AcDbSymbolTable
 70
    1
  0
LAYER
  5
10
330
2
100
AcDbSymbolTableRecord
100
AcDbLayerTableRecord
  2
0
 70
    0
 62
  250
  6
CONTINUOUS
370
   13
390
F
  0
LAYER
  5
32
330
2
100
AcDbSymbolTableRecord
100
AcDbLayerTableRecord
  2
1
 70
    0
 62
  250
  6
CONTINUOUS
370
   -3
390
F
  0
LAYER
  5
33
330
2
100
AcDbSymbolTableRecord
100
AcDbLayerTableRecord
  2
8
 70
    0
 62
  250
  6
CONTINUOUS
370
   -3
390
F
  0
LAYER
  5
34
330
2
100
AcDbSymbolTableRecord
100
AcDbLayerTableRecord
  2
7
 70
    0
 62
  250
  6
CONTINUOUS
370
   -3
390
F
  0
LAYER
  5
35
330
2
100
AcDbSymbolTableRecord
100
AcDbLayerTableRecord
  2
11
 70
    0
 62
  250
  6
CONTINUOUS
370
   -3
390
F
  0
LAYER
  5
36
330
2
100
AcDbSymbolTableRecord
100
AcDbLayerTableRecord
  2
4
 70
    0
 62
  250
  6
CONTINUOUS
370
   -3
390
F
  0
ENDTAB
  0
TABLE
  2
STYLE
  5
3
330
0
100
AcDbSymbolTable
 70
    3
  0
STYLE
  5
37
330
2
100
AcDbSymbolTableRecord
100
AcDbTextStyleTableRecord
  2
Standard
 70
    0
 40
0
 41
1
 50
0
 71
    0
 42
2.5
  3
txt
  4

1001
ACAD
1000
txt
  0
ENDTAB
  0
TABLE
  2
VIEW
  5
6
330
0
100
AcDbSymbolTable
 70
    0
  0
ENDTAB
  0
TABLE
  2
UCS
  5
7
330
0
100
AcDbSymbolTable
 70
    0
  0
ENDTAB
  0
TABLE
  2
APPID
  5
9
330
0
100
AcDbSymbolTable
 70
    1
  0
APPID
  5
12
330
9
100
AcDbSymbolTableRecord
100
AcDbRegAppTableRecord
  2
ACAD
 70
    0
  0
APPID
  5
38
330
9
100
AcDbSymbolTableRecord
100
AcDbRegAppTableRecord
  2
Seamly2D
 70
    0
  0
ENDTAB
  0
TABLE
  2
DIMSTYLE
  5
A
330
0
100
AcDbSymbolTable
 70
    1
100
AcDbDimStyleTable
 71
    1
  0
DIMSTYLE
105
39
330
A
100
AcDbSymbolTableRecord
100
AcDbDimStyleTableRecord
  2
Standard
 70
    0
 40
1
 41
2.5
 42
0.625
 43
3.75
 44
1.25
 45
0
 46
0
 47
0
 48
0
140
2.5
141
2.5
142
0
143
0.03937007874015748
144
1
145
0
146
1
147
0.625
148
0
 71
    0
 72
    0
 73
    0
 74
    0
 75
    0
 76
    0
 77
    1
 78
    8
 79
    0
170
    0
171
    3
172
    1
173
    0
174
    0
175
    0
176
    0
177
    0
178
    0
179
    0
271
    2
272
    2
273
    2
274
    3
275
    0
276
    0
277
    2
278
   44
279
    0
280
    0
281
    0
282
    0
283
    0
284
    8
285
    0
286
    0
288
    0
289
    3
341

371
   -2
372
   -2
  0
ENDTAB
  0
TABLE
  2
BLOCK_RECORD
  5
1
330
0
100
AcDbSymbolTable
 70
    2
  0
BLOCK_RECORD
  5
1F
330
1
100
AcDbSymbolTableRecord
100
AcDbBlockTableRecord
  2
*Model_Space
 70
    0
280
    1
281
    0
  0
BLOCK_RECORD
  5
1E
330
1
100
AcDbSymbolTableRecord
100
AcDbBlockTableRecord
  2
*Paper_Space
 70
    0
280
    1
281
    0
  0
BLOCK_RECORD
  5
3A
330
1
100
AcDbSymbolTableRecord
100
AcDbBlockTableRecord
  2
Bk Trace
 70
    0
280
    1
281
    0
  0
BLOCK_RECORD
  5
3D
330
1
100
AcDbSymbolTableRecord
100
AcDbBlockTableRecord
  2
Fr Trace
 70
    0
280
    1
281
    0
  0
ENDTAB
  0
ENDSEC
  0
SECTION
  2
BLOCKS
  0
BLOCK
  5
20
330
1F
100
AcDbEntity
  8
0
100
AcDbBlockBegin
  2
*Model_Space
 70
    0
 10
0
 20
0
 30
0
  3
*Model_Space
  1

  0
ENDBLK
  5
21
330
1F
100
AcDbEntity
  8
0
100
AcDbBlockEnd
  0
BLOCK
  5
1C
330
1B
100
AcDbEntity
  8
0
100
AcDbBlockBegin
  2
*Paper_Space
 70
    0
 10
0
 20
0
 30
0
  3
*Paper_Space
  1

  0
ENDBLK
  5
1D
330
1F
100
AcDbEntity
  8
0
100
AcDbBlockEnd
  0
BLOCK
  5
3B
330
3A
100
AcDbEntity
  8
1
100
AcDbBlockBegin
  2
Bk Trace
 70
    0
 10
0
 20
0
  3
Bk Trace
  1

  0
LWPOLYLINE
  5
40
100
AcDbEntity
  8
1
  6
BYLAYER
 62
  256
370
   -1
100
AcDbPolyline
 90
  253
 70
    1
 43
0
 10
98.02022485487981
 20
721.4433628743883
 10
98.91895178964515
 20
721.6932260340121
 10
100.6994596323356
 20
722.3128773215577
 10
102.4577802859915
 20
723.0705525726075
 10
104.1918560208057
 20
723.9597117888808
 10
105.8996291069712
 20
724.9738149720957
 10
107.5790418146809
 20
726.1063221239717
 10
109.2280364141276
 20
727.3506932462271
 10
110.8445551755045
 20
728.700388340581
 10
113.2086423575589
 20
730.8969854365068
 10
116.2221320942078
 20
734.149839478431
 10
119.0686793420495
 20
737.7062694396872
 10
121.7318222626273
 20
741.5139553340262
 10
124.1950990174847
 20
745.5205771751982
 10
126.4420477681651
 20
749.6738149769543
 10
128.4562066762118
 20
753.9213487530444
 10
130.2211139031682
 20
758.2108585172191
 10
131.7203076105778
 20
762.490024283229
 10
132.937325959984
 20
766.7065260648245
 10
133.85570711293
 20
770.8080438757562
 10
134.4589892309594
 20
774.7422577297742
 10
134.6231658360042
 20
776.6200346798926
 10
134.7339924498816
 20
778.5017141673973
 10
134.7096420728729
 20
782.481839168226
 10
134.3978930336853
 20
786.6733406691253
 10
133.8074182918047
 20
791.0220600801922
 10
132.946890806717
 20
795.4738388115239
 10
131.8249835379082
 20
799.9745182732171
 10
130.4503694448642
 20
804.4699398753691
 10
128.8317214870708
 20
808.9059450280769
 10
126.9777126240142
 20
813.2283751414375
 10
124.8970158151801
 20
817.383071625548
 10
122.5983040200545
 20
821.3158758905051
 10
120.0902501981232
 20
824.9726293464065
 10
118.0709788179086
 20
827.4898679324826
 10
116.6680762863569
 20
829.0604328756071
 10
115.2177167878146
 20
830.5315209096474
 10
113.7209844422175
 20
831.8963622108653
 10
112.1789633695013
 20
833.1481869555229
 10
110.5927376896017
 20
834.2802253198826
 10
108.9633915224546
 20
835.2857074802063
 10
107.2920089879956
 20
836.157863612756
 10
106.4392091126954
 20
836.5358504835572
 10
174.4212080641774
 20
995.5499703552234
 10
319.9056079613028
 20
964.2527853927822
 10
320.9202513364314
 20
964.0209973540043
 10
322.9116684247157
 20
963.438894088102
 10
324.8621859812349
 20
962.7288184018014
 10
326.7768529644357
 20
961.90661496801
 10
329.595581733018
 20
960.5067950209162
 10
333.270399760873
 20
958.3797577432815
 10
338.6957639389524
 20
954.9192594638948
 10
344.1412942673686
 20
951.5258341776786
 10
347.8483781357621
 20
949.5061136891164
 10
349.7456727625904
 20
948.6341896602921
 10
353.3443893335179
 20
947.0298505450106
 10
360.5501718417113
 20
943.6475764455309
 10
367.7815981615801
 20
940.1731283988909
 10
375.0560289287567
 20
936.735552066801
 10
382.3908247788739
 20
933.4638931109718
 10
387.9448155781172
 20
931.2089033057766
 10
391.6737629112868
 20
929.8184921679111
 10
395.4275668727349
 20
928.5421485588232
 10
399.2083975419156
 20
927.3960031862263
 10
403.0184249982827
 20
926.3961867578346
 10
406.8598193212907
 20
925.5588299813619
 10
408.7943997903568
 20
925.213892130151
 10
415.2567294010877
 20
924.1356854564332
 10
428.3343176399533
 20
922.1900614711648
 10
438.2381593281651
 20
920.9480333657494
 10
444.8697895804871
 20
920.2284832357165
 10
451.5193797081855
 20
919.6117744328265
 10
458.1804369601333
 20
919.1071173102172
 10
464.846468585204
 20
918.723722221026
 10
471.5109818322711
 20
918.4707995183912
 10
478.1674839502077
 20
918.3575595554505
 10
484.8094821878869
 20
918.3932126853418
 10
491.4304837941822
 20
918.5869692612026
 10
498.023996017967
 20
918.948039636171
 10
504.5835261081143
 20
919.4856341633846
 10
511.1025813134977
 20
920.2089631959815
 10
514.3428095991985
 20
920.6514709719497
 10
516.463819356547
 20
920.9743663743878
 10
520.6660753763377
 20
921.8237373830816
 10
524.8226252736565
 20
922.8989748420566
 10
528.9357024611868
 20
924.1796012020912
 10
533.0075403516117
 20
925.6451389139637
 10
537.0403723576153
 20
927.2751104284524
 10
541.0364318918811
 20
929.0490381963358
 10
544.9979523670926
 20
930.9464446683921
 10
550.8839773753463
 20
933.9702467039884
 10
558.626584923646
 20
938.260201282479
 10
570.0713087449313
 20
944.8939637297217
 10
577.5914159586448
 20
949.1631579369085
 10
578.9940181430944
 20
949.9600080436435
 10
581.739297359633
 20
951.6709417941662
 10
584.4223736095136
 20
953.5035245949468
 10
587.0540326884861
 20
955.4366106746451
 10
590.9317646248859
 20
958.4724722110346
 10
596.0160093063782
 20
962.6879147878516
 10
601.0887296277328
 20
966.9247465962115
 10
606.2362119549483
 20
971.0138014653913
 10
610.2048480070747
 20
973.8679806720527
 10
612.9155541432008
 20
975.6430821172047
 10
615.693486861666
 20
977.2860833565296
 10
618.5494319582198
 20
978.7758386186877
 10
620.0139543374396
 20
979.4489340950275
 10
625.240309020825
 20
981.7627188843379
 10
635.8562501136938
 20
986.2360942532893
 10
646.6444307881947
 20
990.478283666119
 10
657.5785860557871
 20
994.4380061178068
 10
668.6324509279306
 20
998.0639806033328
 10
676.9879135364379
 20
1000.520356581196
 10
682.5800047491662
 20
1002.034956907131
 10
688.1872493069784
 20
1003.437274676202
 10
693.8063640863072
 20
1004.72089976278
 10
699.4340659635848
 20
1005.879422041239
 10
705.067071815243
 20
1006.906431385952
 10
707.8845535590601
 20
1007.36273520547
 10
709.4718420228207
 20
1007.6014840237
 10
712.6731490312394
 20
1007.969149026003
 10
715.9016306500263
 20
1008.209393680052
 10
719.1518407828383
 20
1008.327083333333
 10
722.4183333333333
 20
1008.327083333333
 10
725.6956622051682
 20
1008.214259027538
 10
728.9783813020003
 20
1007.993475763432
 10
732.2610445274868
 20
1007.669598888504
 10
737.174730160219
 20
1007.012492283706
 10
743.6743682270053
 20
1005.804561038739
 10
750.0757530742389
 20
1004.271831605227
 10
756.3353159311783
 20
1002.453226763055
 10
759.3896665746638
 20
1001.43940563082
 10
760.6927738354952
 20
1000.965945203703
 10
763.2065265835225
 20
999.7727870288012
 10
765.6238861410714
 20
998.3253318030838
 10
767.9610313280136
 20
996.6693436754205
 10
771.3567092471244
 20
993.9062366846533
 10
775.743859235828
 20
989.8922328040995
 10
780.1013704997943
 20
985.8678519954325
 10
783.4340661288385
 20
983.0826940324246
 10
785.7119338663063
 20
981.4059520485349
 10
788.055196612012
 20
979.9325545025343
 10
790.4800331858273
 20
978.7082655432932
 10
793.0026224076242
 20
977.778849319682
 10
794.9723866200002
 20
977.3145448804156
 10
796.3221633605143
 20
977.1138952098985
 10
797.0109419444901
 20
977.0547739020511
 10
778.9017359878501
 20
729.491231988828
 10
760.7925300312099
 20
481.9276900756053
 10
760.1024799824128
 20
481.969429708334
 10
758.7378726550196
 20
481.9673364962974
 10
756.7215102514526
 20
481.7946161380289
 10
754.0905241180824
 20
481.242182554101
 10
751.5133399603654
 20
480.3837900549229
 10
748.9806108140689
 20
479.2670699935501
 10
746.4829897149596
 20
477.9396537230385
 10
742.7804715909377
 20
475.6691197382572
 10
737.8837141050525
 20
472.321686179068
 10
732.9591434517278
 20
468.9888321383251
 10
729.1975223468978
 20
466.7492796302417
 10
726.6442749129104
 20
465.4510223966223
 10
724.0420128480159
 20
464.370751131365
 10
721.3813891879815
 20
463.5560971875253
 10
720.0232549150687
 20
463.2773058569252
 10
716.8538851882395
 20
462.7187481820293
 10
710.3963093482839
 20
461.8303985869008
 10
703.8400220018304
 20
461.2455193604931
 10
697.2337922122774
 20
460.9962787951669
 10
692.276789138337
 20
461.0612103925275
 10
688.9819384081724
 20
461.2184768797636
 10
685.7020346653944
 20
461.4777476967231
 10
682.4431740429285
 20
461.8430438799509
 10
679.211452673699
 20
462.3183864659923
 10
676.0129666906309
 20
462.9077964913921
 10
672.853812226649
 20
463.6152949926956
 10
669.7400854146782
 20
464.4449030064478
 10
668.2044362468775
 20
464.9120938655487
 10
665.4833477447867
 20
465.7735425966046
 10
660.0597553648468
 20
467.6093391036285
 10
654.6605483659057
 20
469.5744767761046
 10
649.288042116752
 20
471.6621359602076
 10
643.9445519861741
 20
473.8654970021122
 10
638.6323933429602
 20
476.1777402479936
 10
630.7233267975034
 20
479.8238621228525
 10
620.3147828607174
 20
485.0198059925728
 10
610.0732415115747
 20
490.5285249093467
 10
600.0172257003819
 20
496.2954616425732
 10
590.1652583774444
 20
502.2660589616508
 10
585.3312410257801
 20
505.3157572371521
 10
583.9802575913941
 20
506.1948062002482
 10
581.3715038449009
 20
508.0843027008572
 10
578.8622325259342
 20
510.1140614817358
 10
576.438695502041
 20
512.2647314217382
 10
572.9276472342303
 20
515.6660475080615
 10
568.4300013674472
 20
520.4606408890652
 10
564.0278262968013
 20
525.3905587259466
 10
559.6111369626682
 20
530.3009920495419
 10
556.2164637105416
 20
533.8688280533407
 10
553.8941223524606
 20
536.1642979215829
 10
551.5062858324688
 20
538.367816616349
 10
549.0392060181127
 20
540.4600330164935
 10
547.7674925219463
 20
541.452508590044
 10
540.948691920879
 20
546.7705900154556
 10
530.5911453419974
 20
554.9991826301278
 10
523.5552339450541
 20
560.3701818618222
 10
518.1718906041821
 20
564.2183351361285
 10
514.5286518423551
 20
566.6720276841147
 10
510.8332729641345
 20
569.0085820861061
 10
507.080564421883
 20
571.208063780416
 10
503.2653366679627
 20
573.2505382053569
 10
499.3824001547359
 20
575.1160707992418
 10
495.4265653345653
 20
576.7847270003837
 10
491.3926426598133
 20
578.2365722470953
 10
489.3411986359976
 20
578.8646815121391
 10
486.1998560359802
 20
579.7739994678423
 10
479.8554543264553
 20
581.4382868854508
 10
473.443980346987
 20
582.9247068428784
 10
466.9731980325139
 20
584.2414268205433
 10
460.4508713179752
 20
585.3966142988638
 10
453.8847641383093
 20
586.398436758258
 10
447.2826404284554
 20
587.2550616791443
 10
440.652264123352
 20
587.974656541941
 10
434.001399157938
 20
588.5653888270664
 10
427.3378094671523
 20
589.0354260149385
 10
420.6692589859337
 20
589.3929355859757
 10
414.0035116492209
 20
589.6460850205964
 10
404.0243535250473
 20
589.8584929595823
 10
390.8028449379226
 20
589.8366407753429
 10
384.2524040855982
 20
589.7103147321928
 10
382.2882212217428
 20
589.650570361518
 10
378.3658649760724
 20
589.3811298337691
 10
374.4509004454496
 20
588.9463944743615
 10
370.5435280038732
 20
588.3626390744288
 10
366.6439480253421
 20
587.6461384251046
 10
362.7523608838551
 20
586.8131673175228
 10
356.9293433377
 20
585.3904025875751
 10
349.1965305649779
 20
583.2209351164705
 10
341.4992958724127
 20
580.8785320527426
 10
333.8392422519956
 20
578.4933917254609
 10
326.2179726957175
 20
576.1957124636957
 10
322.4240990662998
 20
575.1321393168458
 10
320.4201176976767
 20
574.5455925691402
 10
316.4585836929026
 20
573.0868293984238
 10
310.57720604295
 20
570.5219643591928
 10
304.7060193634147
 20
567.8878057116405
 10
300.7607909113083
 20
566.3181727676098
 10
297.7683640564999
 20
565.3434372784972
 10
295.754430637291
 20
564.8086098987836
 10
293.7213451859051
 20
564.3899336922375
 10
291.6664182184467
 20
564.1038193967247
 10
290.6288455465594
 20
564.0221504052657
 10
142.1387077688275
 20
554.2291231536883
 10
98.02022485487981
 20
721.4433628743883
  0
LWPOLYLINE
  5
41
100
AcDbEntity
  8
8
  6
BYLAYER
 62
  256
370
   -1
100
AcDbPolyline
 90
  252
 70
    1
 43
0
 10
98.02022485487983
 20
721.4433628743883
 10
98.91895178964515
 20
721.6932260340121
 10
100.6994596323356
 20
722.3128773215577
 10
102.4577802859915
 20
723.0705525726075
 10
104.1918560208057
 20
723.9597117888808
 10
105.8996291069712
 20
724.9738149720957
 10
107.5790418146809
 20
726.1063221239717
 10
109.2280364141276
 20
727.3506932462271
 10
110.8445551755045
 20
728.700388340581
 10
113.2086423575589
 20
730.8969854365068
 10
116.2221320942078
 20
734.149839478431
 10
119.0686793420495
 20
737.7062694396872
 10
121.7318222626273
 20
741.5139553340262
 10
124.1950990174847
 20
745.5205771751982
 10
126.4420477681651
 20
749.6738149769543
 10
128.4562066762118
 20
753.9213487530444
 10
130.2211139031682
 20
758.2108585172191
 10
131.7203076105778
 20
762.490024283229
 10
132.937325959984
 20
766.7065260648245
 10
133.85570711293
 20
770.8080438757562
 10
134.4589892309594
 20
774.7422577297742
 10
134.6231658360042
 20
776.6200346798926
 10
134.7339924498816
 20
778.5017141673973
 10
134.7096420728729
 20
782.481839168226
 10
134.3978930336853
 20
786.6733406691253
 10
133.8074182918047
 20
791.0220600801922
 10
132.946890806717
 20
795.4738388115239
 10
131.8249835379082
 20
799.9745182732171
 10
130.4503694448642
 20
804.4699398753691
 10
128.8317214870708
 20
808.9059450280769
 10
126.9777126240142
 20
813.2283751414375
 10
124.8970158151801
 20
817.383071625548
 10
122.5983040200545
 20
821.3158758905051
 10
120.0902501981232
 20
824.9726293464065
 10
118.0709788179086
 20
827.4898679324826
 10
116.6680762863569
 20
829.0604328756071
 10
115.2177167878146
 20
830.5315209096474
 10
113.7209844422175
 20
831.8963622108653
 10
112.1789633695013
 20
833.1481869555229
 10
110.5927376896017
 20
834.2802253198826
 10
108.9633915224546
 20
835.2857074802063
 10
107.2920089879956
 20
836.157863612756
 10
106.4392091126954
 20
836.5358504835572
 10
174.4212080641774
 20
995.5499703552234
 10
319.9056079613028
 20
964.2527853927822
 10
320.9202513364314
 20
964.0209973540043
 10
322.9116684247157
 20
963.438894088102
 10
324.8621859812349
 20
962.7288184018014
 10
326.7768529644357
 20
961.90661496801
 10
329.595581733018
 20
960.5067950209162
 10
333.270399760873
 20
958.3797577432815
 10
338.6957639389524
 20
954.9192594638948
 10
344.1412942673686
 20
951.5258341776786
 10
347.8483781357621
 20
949.5061136891164
 10
349.7456727625904
 20
948.6341896602921
 10
353.3443893335179
 20
947.0298505450106
 10
360.5501718417113
 20
943.6475764455309
 10
367.7815981615801
 20
940.1731283988909
 10
375.0560289287567
 20
936.735552066801
 10
382.3908247788739
 20
933.4638931109718
 10
387.9448155781172
 20
931.2089033057766
 10
391.6737629112868
 20
929.8184921679111
 10
395.4275668727349
 20
928.5421485588232
 10
399.2083975419156
 20
927.3960031862263
 10
403.0184249982827
 20
926.3961867578346
 10
406.8598193212907
 20
925.5588299813619
 10
408.7943997903568
 20
925.213892130151
 10
415.2567294010877
 20
924.1356854564332
 10
428.3343176399533
 20
922.1900614711648
 10
438.2381593281651
 20
920.9480333657494
 10
444.8697895804871
 20
920.2284832357165
 10
451.5193797081855
 20
919.6117744328265
 10
458.1804369601333
 20
919.1071173102172
 10
464.846468585204
 20
918.723722221026
 10
471.5109818322711
 20
918.4707995183912
 10
478.1674839502077
 20
918.3575595554505
 10
484.8094821878869
 20
918.3932126853418
 10
491.4304837941822
 20
918.5869692612026
 10
498.023996017967
 20
918.948039636171
 10
504.5835261081143
 20
919.4856341633846
 10
511.1025813134977
 20
920.2089631959815
 10
514.3428095991985
 20
920.6514709719497
 10
516.463819356547
 20
920.9743663743878
 10
520.6660753763377
 20
921.8237373830816
 10
524.8226252736565
 20
922.8989748420566
 10
528.9357024611868
 20
924.1796012020912
 10
533.0075403516117
 20
925.6451389139637
 10
537.0403723576153
 20
927.2751104284524
 10
541.0364318918811
 20
929.0490381963358
 10
544.9979523670926
 20
930.9464446683921
 10
550.8839773753463
 20
933.9702467039884
 10
558.626584923646
 20
938.260201282479
 10
570.0713087449313
 20
944.8939637297217
 10
577.5914159586448
 20
949.1631579369085
 10
578.9940181430944
 20
949.9600080436435
 10
581.739297359633
 20
951.6709417941662
 10
584.4223736095136
 20
953.5035245949468
 10
587.0540326884861
 20
955.4366106746451
 10
590.9317646248859
 20
958.4724722110346
 10
596.0160093063782
 20
962.6879147878516
 10
601.0887296277328
 20
966.9247465962115
 10
606.2362119549483
 20
971.0138014653913
 10
610.2048480070747
 20
973.8679806720527
 10
612.9155541432008
 20
975.6430821172047
 10
615.693486861666
 20
977.2860833565296
 10
618.5494319582198
 20
978.7758386186877
 10
620.0139543374396
 20
979.4489340950275
 10
625.240309020825
 20
981.7627188843379
 10
635.8562501136938
 20
986.2360942532893
 10
646.6444307881947
 20
990.478283666119
 10
657.5785860557871
 20
994.4380061178068
 10
668.6324509279306
 20
998.0639806033328
 10
676.9879135364379
 20
1000.520356581196
 10
682.5800047491662
 20
1002.034956907131
 10
688.1872493069784
 20
1003.437274676202
 10
693.8063640863072
 20
1004.72089976278
 10
699.4340659635848
 20
1005.879422041239
 10
705.067071815243
 20
1006.906431385952
 10
707.8845535590601
 20
1007.36273520547
 10
709.4718420228207
 20
1007.6014840237
 10
712.6731490312394
 20
1007.969149026003
 10
715.9016306500263
 20
1008.209393680052
 10
719.1518407828383
 20
1008.327083333333
 10
722.4183333333333
 20
1008.327083333333
 10
725.6956622051682
 20
1008.214259027538
 10
728.9783813020003
 20
1007.993475763432
 10
732.2610445274868
 20
1007.669598888504
 10
737.174730160219
 20
1007.012492283706
 10
743.6743682270053
 20
1005.804561038739
 10
750.0757530742389
 20
1004.271831605227
 10
756.3353159311783
 20
1002.453226763055
 10
759.3896665746638
 20
1001.43940563082
 10
760.6927738354952
 20
1000.965945203703
 10
763.2065265835225
 20
999.7727870288012
 10
765.6238861410714
 20
998.3253318030838
 10
767.9610313280136
 20
996.6693436754205
 10
771.3567092471244
 20
993.9062366846533
 10
775.743859235828
 20
989.8922328040995
 10
780.1013704997943
 20
985.8678519954325
 10
783.4340661288385
 20
983.0826940324246
 10
785.7119338663063
 20
981.4059520485349
 10
788.055196612012
 20
979.9325545025343
 10
790.4800331858273
 20
978.7082655432932
 10
793.0026224076242
 20
977.778849319682
 10
794.9723866200002
 20
977.3145448804156
 10
796.3221633605143
 20
977.1138952098985
 10
797.0109419444901
 20
977.0547739020511
 10
778.9017359878501
 20
729.491231988828
 10
760.7925300312099
 20
481.9276900756053
 10
760.1024799824128
 20
481.969429708334
 10
758.7378726550196
 20
481.9673364962974
 10
756.7215102514526
 20
481.7946161380289
 10
754.0905241180824
 20
481.242182554101
 10
751.5133399603654
 20
480.3837900549229
 10
748.9806108140689
 20
479.2670699935501
 10
746.4829897149596
 20
477.9396537230385
 10
742.7804715909377
 20
475.6691197382572
 10
737.8837141050525
 20
472.321686179068
 10
732.9591434517278
 20
468.9888321383251
 10
729.1975223468978
 20
466.7492796302417
 10
726.6442749129104
 20
465.4510223966223
 10
724.0420128480159
 20
464.370751131365
 10
721.3813891879815
 20
463.5560971875253
 10
720.0232549150687
 20
463.2773058569252
 10
716.8538851882395
 20
462.7187481820293
 10
710.3963093482839
 20
461.8303985869008
 10
703.8400220018304
 20
461.2455193604931
 10
697.2337922122774
 20
460.9962787951669
 10
692.276789138337
 20
461.0612103925275
 10
688.9819384081724
 20
461.2184768797636
 10
685.7020346653944
 20
461.4777476967231
 10
682.4431740429285
 20
461.8430438799509
 10
679.211452673699
 20
462.3183864659923
 10
676.0129666906309
 20
462.9077964913921
 10
672.853812226649
 20
463.6152949926956
 10
669.7400854146782
 20
464.4449030064478
 10
668.2044362468775
 20
464.9120938655487
 10
665.4833477447867
 20
465.7735425966046
 10
660.0597553648468
 20
467.6093391036285
 10
654.6605483659057
 20
469.5744767761046
 10
649.288042116752
 20
471.6621359602076
 10
643.9445519861741
 20
473.8654970021122
 10
638.6323933429602
 20
476.1777402479936
 10
630.7233267975034
 20
479.8238621228525
 10
620.3147828607174
 20
485.0198059925728
 10
610.0732415115747
 20
490.5285249093467
 10
600.0172257003819
 20
496.2954616425732
 10
590.1652583774444
 20
502.2660589616508
 10
585.3312410257801
 20
505.3157572371521
 10
583.9802575913941
 20
506.1948062002482
 10
581.3715038449009
 20
508.0843027008572
 10
578.8622325259342
 20
510.1140614817358
 10
576.438695502041
 20
512.2647314217382
 10
572.9276472342303
 20
515.6660475080615
 10
568.4300013674472
 20
520.4606408890652
 10
564.0278262968013
 20
525.3905587259466
 10
559.6111369626682
 20
530.3009920495419
 10
556.2164637105416
 20
533.8688280533407
 10
553.8941223524606
 20
536.1642979215829
 10
551.5062858324688
 20
538.367816616349
 10
549.0392060181127
 20
540.4600330164935
 10
547.7674925219463
 20
541.452508590044
 10
540.948691920879
 20
546.7705900154556
 10
530.5911453419974
 20
554.9991826301278
 10
523.5552339450541
 20
560.3701818618222
 10
518.1718906041821
 20
564.2183351361285
 10
514.5286518423551
 20
566.6720276841147
 10
510.8332729641345
 20
569.0085820861061
 10
507.080564421883
 20
571.208063780416
 10
503.2653366679627
 20
573.2505382053569
 10
499.3824001547359
 20
575.1160707992418
 10
495.4265653345653
 20
576.7847270003837
 10
491.3926426598133
 20
578.2365722470953
 10
489.3411986359976
 20
578.8646815121391
 10
486.1998560359802
 20
579.7739994678423
 10
479.8554543264553
 20
581.4382868854508
 10
473.443980346987
 20
582.9247068428784
 10
466.9731980325139
 20
584.2414268205433
 10
460.4508713179752
 20
585.3966142988638
 10
453.8847641383093
 20
586.398436758258
 10
447.2826404284554
 20
587.2550616791443
 10
440.652264123352
 20
587.974656541941
 10
434.001399157938
 20
588.5653888270664
 10
427.3378094671523
 20
589.0354260149385
 10
420.6692589859337
 20
589.3929355859757
 10
414.0035116492209
 20
589.6460850205964
 10
404.0243535250473
 20
589.8584929595823
 10
390.8028449379226
 20
589.8366407753429
 10
384.2524040855982
 20
589.7103147321928
 10
382.2882212217428
 20
589.650570361518
 10
378.3658649760724
 20
589.3811298337691
 10
374.4509004454496
 20
588.9463944743615
 10
370.5435280038732
 20
588.3626390744288
 10
366.6439480253421
 20
587.6461384251046
 10
362.7523608838551
 20
586.8131673175228
 10
356.9293433377
 20
585.3904025875751
 10
349.1965305649779
 20
583.2209351164705
 10
341.4992958724127
 20
580.8785320527426
 10
333.8392422519956
 20
578.4933917254609
 10
326.2179726957175
 20
576.1957124636957
 10
322.4240990662998
 20
575.1321393168458
 10
320.4201176976767
 20
574.5455925691402
 10
316.4585836929026
 20
573.0868293984238
 10
310.57720604295
 20
570.5219643591928
 10
304.7060193634147
 20
567.8878057116405
 10
300.7607909113083
 20
566.3181727676098
 10
297.7683640564999
 20
565.3434372784972
 10
295.754430637291
 20
564.8086098987836
 10
293.7213451859051
 20
564.3899336922375
 10
291.6664182184467
 20
564.1038193967247
 10
290.6288455465594
 20
564.0221504052657
 10
142.1387077688275
 20
554.2291231536883
  0
LWPOLYLINE
  5
42
100
AcDbEntity
  8
8
  6
BYLAYER
 62
  256
370
   -1
100
AcDbPolyline
 90
    2
 70
    0
 43
0
 10
720.0232549150687
 20
463.2773058569252
 10
759.3896665746638
 20
1001.43940563082
  0
LWPOLYLINE
  5
43
100
AcDbEntity
  8
8
  6
BYLAYER
 62
  256
370
   -1
100
AcDbPolyline
 90
    2
 70
    0
 43
0
 10
668.2044362468775
 20
464.9120938655487
 10
707.8845535590601
 20
1007.36273520547
  0
LWPOLYLINE
  5
44
100
AcDbEntity
  8
8
  6
BYLAYER
 62
  256
370
   -1
100
AcDbPolyline
 90
    2
 70
    0
 43
0
 10
585.3312410257801
 20
505.3157572371521
 10
620.0139543374396
 20
979.4489340950275
  0
LWPOLYLINE
  5
45
100
AcDbEntity
  8
8
  6
BYLAYER
 62
  256
370
   -1
100
AcDbPolyline
 90
    2
 70
    0
 43
0
 10
547.7674925219463
 20
541.452508590044
 10
577.5914159586448
 20
949.1631579369085
  0
LWPOLYLINE
  5
46
100
AcDbEntity
  8
8
  6
BYLAYER
 62
  256
370
   -1
100
AcDbPolyline
 90
    2
 70
    0
 43
0
 10
489.3411986359976
 20
578.8646815121391
 10
514.3428095991985
 20
920.6514709719497
  0
LWPOLYLINE
  5
47
100
AcDbEntity
  8
8
  6
BYLAYER
 62
  256
370
   -1
100
AcDbPolyline
 90
    2
 70
    0
 43
0
 10
384.2524040855982
 20
589.7103147321928
 10
408.7943997903568
 20
925.213892130151
  0
LWPOLYLINE
  5
48
100
AcDbEntity
  8
8
  6
BYLAYER
 62
  256
370
   -1
100
AcDbPolyline
 90
    2
 70
    0
 43
0
 10
322.4240990662998
 20
575.1321393168458
 10
349.7456727625904
 20
948.6341896602921
  0
LWPOLYLINE
  5
49
100
AcDbEntity
  8
8
  6
BYLAYER
 62
  256
370
   -1
100
AcDbPolyline
 90
    2
 70
    0
 43
0
 10
290.6288455465594
 20
564.0221504052657
 10
319.9056079613028
 20
964.2527853927822
  0
LINE
  5
4A
100
AcDbEntity
  8
7
  6
BYLAYER
 62
  256
370
   -1
100
AcDbLine
 10
778.9017359878501
 20
729.491231988828
 11
134.6231658360042
 21
776.6200346798927
  0
ENDBLK
  5
3C
330
3A
100
AcDbEntity
  8
1
100
AcDbBlockEnd
  0
BLOCK
  5
3E
330
3D
100
AcDbEntity
  8
1
100
AcDbBlockBegin
  2
Fr Trace
 70
    0
 10
0
 20
0
  3
Fr Trace
  1

  0
LWPOLYLINE
  5
4B
100
AcDbEntity
  8
1
  6
BYLAYER
 62
  256
370
   -1
100
AcDbPolyline
 90
  241
 70
    1
 43
0
 10
224.347741448788
 20
309.6996505984387
 10
281.0365305309228
 20
441.8911071771498
 10
428.5967475763811
 20
490.3962537648802
 10
430.4365889937029
 20
490.9730807186525
 10
434.2935941699486
 20
491.8996983906039
 10
438.2952341087734
 20
492.5210846187152
 10
442.3657843131287
 20
492.8008083350659
 10
445.4163785727593
 20
492.7518002571703
 10
447.4323446581018
 20
492.6012611053494
 10
449.422943280237
 20
492.3448138498828
 10
451.3787088770342
 20
491.9779046072808
 10
453.2901758863617
 20
491.4959794940529
 10
455.1478787460891
 20
490.8944846267092
 10
456.9423518940849
 20
490.1688661217597
 10
458.6641297682182
 20
489.3145700957141
 10
459.491179422043
 20
488.8320987425926
 10
460.5547634871401
 20
488.1803586703517
 10
462.6344510704983
 20
486.7986643896131
 10
465.6612620056133
 20
484.5736878075891
 10
469.5256426916606
 20
481.3263842812637
 10
473.2344704401993
 20
477.8259679855661
 10
476.8206332909124
 20
474.1280366862509
 10
480.3170192834834
 20
470.2881881490727
 10
485.4661538449972
 20
464.384305987835
 10
490.5963965091759
 20
458.473116767906
 10
494.0625554660108
 20
454.6215769368218
 10
497.6033777631198
 20
450.9061086966476
 10
501.2517514401865
 20
447.382309813138
 10
505.0405645368938
 20
444.1057780520478
 10
508.0003092364695
 20
441.8548614116696
 10
510.0308778867567
 20
440.4541687783339
 10
512.115055914276
 20
439.1465666688399
 10
514.2569543239877
 20
437.939004803907
 10
516.4606841208524
 20
436.8384329042544
 10
518.7303563098301
 20
435.8518006906017
 10
519.8942100278931
 20
435.4085655982117
 10
522.9761342354457
 20
434.3006994671106
 10
529.2342668403049
 20
432.361314040826
 10
535.5948277118381
 20
430.7326533722329
 10
542.0459137822334
 20
429.3915047442098
 10
548.575621983679
 20
428.3146554396351
 10
555.1720492483626
 20
427.4788927413871
 10
561.8232925084727
 20
426.8610039323441
 10
568.5174486961978
 20
426.4377762953844
 10
575.2426147437258
 20
426.1859971133866
 10
581.9868875832445
 20
426.0824536692288
 10
592.1144154763599
 20
426.1430271996091
 10
612.2823859568718
 20
426.8156808274213
 10
625.4654098817842
 20
427.418461630818
 10
627.4099489912908
 20
427.5167309678405
 10
631.294550296118
 20
427.845149138768
 10
635.1730455488569
 20
428.3203335204674
 10
639.0446194661023
 20
428.9295183512873
 10
642.9084567644485
 20
429.6599378695756
 10
646.7637421604902
 20
430.4988263136808
 10
652.5301757691354
 20
431.923043796921
 10
660.1796517465284
 20
434.0984451002121
 10
667.780245013407
 20
436.4779383970393
 10
679.0833609192447
 20
440.212852906193
 10
686.5220759997442
 20
442.6429820685838
 10
687.8072544546678
 20
443.0656826945967
 10
690.3545125131365
 20
443.9987816384913
 10
694.1339228992441
 20
445.5561089364994
 10
701.5832950752596
 20
449.0883848055794
 10
708.9788150701701
 20
452.831704376515
 10
713.9391749218775
 20
455.2180023610735
 10
718.9607102105668
 20
457.3771146409771
 10
722.7906328212329
 20
458.7584628427879
 10
725.3783006593479
 20
459.5507785097248
 10
726.6860893481216
 20
459.8947075402967
 10
731.9119073580314
 20
461.1850439596085
 10
742.4843943199402
 20
463.4754004558146
 10
753.1695566381579
 20
465.4808689386652
 10
763.931454563575
 20
467.2719956276557
 10
780.1412017347207
 20
469.7158616834397
 10
796.3181644919322
 20
472.0647871264184
 10
807.0276073550554
 20
473.7040088349204
 10
812.3409249685187
 20
474.5783424731991
 10
815.5514847542205
 20
475.1025550835817
 10
822.0282701121059
 20
476.0509204507648
 10
831.8200587961799
 20
477.3561323113089
 10
841.6366536478171
 20
478.6886569721359
 10
848.1531288738045
 20
479.6807228197719
 10
854.6202802368665
 20
480.8201689379496
 10
861.0144092050233
 20
482.1615773868407
 10
864.1721607417313
 20
482.9369008549812
 10
865.4300235339761
 20
483.2724183418601
 10
867.9205699685408
 20
484.085572017017
 10
870.3851834497473
 20
485.0435904076195
 10
872.8286217848724
 20
486.1179427067427
 10
878.8786262317252
 20
489.1152533312047
 10
886.1004225794582
 20
492.8400180743145
 10
889.7394418518543
 20
494.4991704574593
 10
892.1847600803471
 20
495.4770849754382
 10
894.6517234282627
 20
496.3145561396102
 10
897.1450897028789
 20
496.9830531430504
 10
899.669616711474
 20
497.4540451788337
 10
902.230062261326
 20
497.6990014400344
 10
903.5270352728382
 20
497.7165989452951
 10
902.6099288973883
 20
249.4932931480834
 10
901.6928225219382
 20
1.269987350871373
 10
900.3960149516964
 20
1.297168052602806
 10
897.8374493511963
 20
1.561037436191054
 10
895.3164715495129
 20
2.050671011752344
 10
892.8281130475764
 20
2.737573907977834
 10
890.3674053463171
 20
3.59325125355904
 10
887.9293799466648
 20
4.589208177187363
 10
884.3027199392426
 20
6.275204940508926
 10
877.1086440263514
 20
10.05323175873065
 10
871.0809526722177
 20
13.09516563798434
 10
868.6455197189026
 20
14.18754381888052
 10
866.1880525755645
 20
15.16374773604664
 10
863.703582743134
 20
15.99528251817398
 10
862.4482335193122
 20
16.3400855262307
 10
859.296297262684
 20
17.13872128925737
 10
852.9122548826817
 20
18.52734102788746
 10
846.4536997482355
 20
19.71454353138121
 10
839.9447330656225
 20
20.75473425503991
 10
830.1382525941818
 20
22.15975995450597
 10
820.3563757915608
 20
23.53729030001724
 10
813.8867749790589
 20
24.53348845734773
 10
810.6801763905559
 20
25.08141043232189
 10
805.3734645186145
 20
25.99498171074569
 10
794.6764266769922
 20
27.71329357505415
 10
778.5172623987402
 20
30.18169075001358
 10
762.3260161429206
 20
32.74526819851862
 10
751.5776471371905
 20
34.61586850049968
 10
740.9075954719546
 20
36.70023772488404
 10
730.3523211998211
 20
39.06865459686534
 10
725.1361804972756
 20
40.39757074130247
 10
723.8309688950739
 20
40.75115397907395
 10
721.2492263330448
 20
41.56256897763911
 10
717.42961543057
 20
42.97217977925528
 10
712.4241714869295
 20
45.16833856674186
 10
707.4815800454302
 20
47.59122481499141
 10
700.1139223347232
 20
51.38908964448871
 10
692.6908544553515
 20
54.97631446185325
 10
688.923054754526
 20
56.56152630706521
 10
686.3827611538164
 20
57.51342214050678
 10
685.1007412323532
 20
57.94560775017352
 10
677.6801861037862
 20
60.43063720244462
 10
666.4049770561595
 20
64.24897146018037
 10
658.8221739988338
 20
66.68456259006648
 10
651.1889814757752
 20
68.91642850561702
 10
645.4332292164553
 20
70.38321681066112
 10
641.5842478422915
 20
71.25057007659443
 10
637.725913293693
 20
72.00952057028994
 10
633.8589465022156
 20
72.64729685426853
 10
629.9840683994145
 20
73.15112749105181
 10
626.1019999168449
 20
73.50824104316102
 10
624.1582400333231
 20
73.6208764115469
 10
610.9800301249202
 20
74.32105361185145
 10
590.8175806656632
 20
75.14271534803828
 10
580.6907768579268
 20
75.27812220913148
 10
573.94592303381
 20
75.22441680907973
 10
567.2190801269438
 20
75.02233853302644
 10
560.5219793552632
 20
74.64858734266129
 10
553.8663519367033
 20
74.0798631996737
 10
547.2639290891991
 20
73.29286606575333
 10
540.7264420306851
 20
72.26429590258998
 10
534.2656219790966
 20
70.97085267187296
 10
527.8932001523685
 20
69.38923633529205
 10
521.6209077684357
 20
67.49614685453669
 10
518.5308813843596
 20
66.41108412305339
 10
517.3637842592293
 20
65.97646115462285
 10
515.0868835479521
 20
65.00662708560806
 10
512.8750814979951
 20
63.92236917546878
 10
510.7243185699585
 20
62.73066733249416
 10
508.6305352244423
 20
61.4385014649731
 10
506.5896719220468
 20
60.05285148119439
 10
503.6133754075398
 20
57.82386663011746
 10
499.800454588674
 20
54.57542086448218
 10
496.1261422330929
 20
51.07867698301754
 10
492.5579620255976
 20
47.38947425203524
 10
489.0634376509891
 20
43.56365193784676
 10
483.8896557056302
 20
37.69053282028734
 10
478.6970363724947
 20
31.82486015915939
 10
475.1723721774436
 20
28.01095217526132
 10
471.5589822392843
 20
24.33962093971481
 10
467.824390242818
 20
20.86670571883122
 10
463.9361198728458
 20
17.64804577892203
 10
460.8929506317318
 20
15.44549584817709
 10
458.803110121117
 20
14.07920665112048
 10
457.7347392130029
 20
13.43534347622341
 10
456.9041470299101
 20
12.95899658386502
 10
455.1761035425411
 20
12.11744655342465
 10
453.3763175982278
 20
11.40510769567823
 10
451.5142208508314
 20
10.8173563079168
 10
449.5992449542131
 20
10.349568687432
 10
447.6408215622343
 20
9.997121131514755
 10
445.6483823287563
 20
9.755389937456336
 10
443.6313589076404
 20
9.61975140254815
 10
440.5804857985901
 20
9.593286311119774
 10
436.5121136768668
 20
9.903080763699432
 10
432.5151745740952
 20
10.55401920412222
 10
428.665121721166
 20
11.50911201071838
 10
426.8295928603864
 20
12.09951829179574
 10
279.6318217225992
 20
61.69370214502199
 10
223.9213779651464
 20
194.3004382346629
 10
225.8947852512233
 20
195.1574166835557
 10
229.9551061177944
 20
197.1938556611375
 10
234.1053986212104
 20
199.590004514886
 10
238.2942895209651
 20
202.3155647785916
 10
242.4704055765522
 20
205.3402379860445
 10
246.5823735474657
 20
208.6337256710354
 10
250.5788201931992
 20
212.1657293673544
 10
254.4083722732466
 20
215.9059506087923
 10
258.0196565471015
 20
219.8240909291392
 10
261.3612997742578
 20
223.8898518621855
 10
264.3819287142093
 20
228.0729349417219
 10
267.0301701264497
 20
232.3430417015383
 10
268.7266210712464
 20
235.5855671831433
 10
269.7232887186087
 20
237.7574835111902
 10
270.5979620362585
 20
239.9341128720644
 10
271.3442193691325
 20
242.1116679574894
 10
271.9556390621674
 20
244.2863614591894
 10
272.4257994603
 20
246.4544060688877
 10
272.7482789084669
 20
248.6120144783085
 10
272.9166557516049
 20
250.7553993791755
 10
272.9342266337632
 20
251.8197451271079
 10
272.9245209637787
 20
252.8841916532482
 10
272.7719867558965
 20
255.0287622186517
 10
272.4654592514089
 20
257.1886946092338
 10
272.0113319446379
 20
259.3601541688066
 10
271.4159983299061
 20
261.5393062411816
 10
270.6858519015357
 20
263.7223161701712
 10
269.8272861538493
 20
265.905349299587
 10
268.8466945811691
 20
268.0845709732412
 10
267.174249830264
 20
271.3395434557869
 10
264.5576336668091
 20
275.6291021942684
 10
261.5679971011817
 20
279.8343912983179
 10
258.2564880879606
 20
283.9247335184311
 10
254.6742545817247
 20
287.8694516051035
 10
250.8724445370528
 20
291.6378683088308
 10
246.9022059085241
 20
295.1993063801083
 10
242.8146866507172
 20
298.5230885694315
 10
238.6610347182112
 20
301.5785376272962
 10
234.4923980655848
 20
304.3349763041977
 10
230.3599246474171
 20
306.7617273506316
 10
226.314762418287
 20
308.8281135170935
 10
224.347741448788
 20
309.6996505984387
  0
LWPOLYLINE
  5
4C
100
AcDbEntity
  8
8
  6
BYLAYER
 62
  256
370
   -1
100
AcDbPolyline
 90
  240
 70
    1
 43
0
 10
281.0365305309228
 20
441.8911071771498
 10
428.5967475763811
 20
490.3962537648802
 10
430.4365889937029
 20
490.9730807186525
 10
434.2935941699486
 20
491.8996983906039
 10
438.2952341087734
 20
492.5210846187152
 10
442.3657843131287
 20
492.8008083350659
 10
445.4163785727593
 20
492.7518002571703
 10
447.4323446581018
 20
492.6012611053494
 10
449.422943280237
 20
492.3448138498828
 10
451.3787088770342
 20
491.9779046072808
 10
453.2901758863617
 20
491.4959794940529
 10
455.1478787460891
 20
490.8944846267092
 10
456.9423518940849
 20
490.1688661217597
 10
458.6641297682182
 20
489.3145700957141
 10
459.491179422043
 20
488.8320987425926
 10
460.5547634871401
 20
488.1803586703517
 10
462.6344510704983
 20
486.7986643896131
 10
465.6612620056133
 20
484.5736878075891
 10
469.5256426916606
 20
481.3263842812637
 10
473.2344704401993
 20
477.8259679855661
 10
476.8206332909124
 20
474.1280366862509
 10
480.3170192834834
 20
470.2881881490727
 10
485.4661538449972
 20
464.384305987835
 10
490.5963965091759
 20
458.473116767906
 10
494.0625554660108
 20
454.6215769368218
 10
497.6033777631198
 20
450.9061086966476
 10
501.2517514401865
 20
447.382309813138
 10
505.0405645368938
 20
444.1057780520478
 10
508.0003092364695
 20
441.8548614116696
 10
510.0308778867567
 20
440.4541687783339
 10
512.115055914276
 20
439.1465666688399
 10
514.2569543239877
 20
437.939004803907
 10
516.4606841208524
 20
436.8384329042544
 10
518.7303563098301
 20
435.8518006906017
 10
519.8942100278931
 20
435.4085655982117
 10
522.9761342354457
 20
434.3006994671106
 10
529.2342668403049
 20
432.361314040826
 10
535.5948277118381
 20
430.7326533722329
 10
542.0459137822334
 20
429.3915047442098
 10
548.575621983679
 20
428.3146554396351
 10
555.1720492483626
 20
427.4788927413871
 10
561.8232925084727
 20
426.8610039323441
 10
568.5174486961978
 20
426.4377762953844
 10
575.2426147437258
 20
426.1859971133866
 10
581.9868875832445
 20
426.0824536692288
 10
592.1144154763599
 20
426.1430271996091
 10
612.2823859568718
 20
426.8156808274213
 10
625.4654098817842
 20
427.418461630818
 10
627.4099489912908
 20
427.5167309678405
 10
631.294550296118
 20
427.845149138768
 10
635.1730455488569
 20
428.3203335204674
 10
639.0446194661023
 20
428.9295183512873
 10
642.9084567644485
 20
429.6599378695756
 10
646.7637421604902
 20
430.4988263136808
 10
652.5301757691354
 20
431.923043796921
 10
660.1796517465284
 20
434.0984451002121
 10
667.780245013407
 20
436.4779383970393
 10
679.0833609192447
 20
440.212852906193
 10
686.5220759997442
 20
442.6429820685838
 10
687.8072544546678
 20
443.0656826945967
 10
690.3545125131365
 20
443.9987816384913
 10
694.1339228992441
 20
445.5561089364994
 10
701.5832950752596
 20
449.0883848055794
 10
708.9788150701701
 20
452.831704376515
 10
713.9391749218775
 20
455.2180023610735
 10
718.9607102105668
 20
457.3771146409771
 10
722.7906328212329
 20
458.7584628427879
 10
725.3783006593479
 20
459.5507785097248
 10
726.6860893481216
 20
459.8947075402967
 10
731.9119073580314
 20
461.1850439596085
 10
742.4843943199402
 20
463.4754004558146
 10
753.1695566381579
 20
465.4808689386652
 10
763.931454563575
 20
467.2719956276557
 10
780.1412017347207
 20
469.7158616834397
 10
796.3181644919322
 20
472.0647871264184
 10
807.0276073550554
 20
473.7040088349204
 10
812.3409249685187
 20
474.5783424731991
 10
815.5514847542205
 20
475.1025550835817
 10
822.0282701121059
 20
476.0509204507648
 10
831.8200587961799
 20
477.3561323113089
 10
841.6366536478171
 20
478.6886569721359
 10
848.1531288738045
 20
479.6807228197719
 10
854.6202802368665
 20
480.8201689379496
 10
861.0144092050233
 20
482.1615773868407
 10
864.1721607417313
 20
482.9369008549812
 10
865.4300235339761
 20
483.2724183418601
 10
867.9205699685408
 20
484.085572017017
 10
870.3851834497473
 20
485.0435904076195
 10
872.8286217848724
 20
486.1179427067427
 10
878.8786262317252
 20
489.1152533312047
 10
886.1004225794582
 20
492.8400180743145
 10
889.7394418518543
 20
494.4991704574593
 10
892.1847600803471
 20
495.4770849754382
 10
894.6517234282627
 20
496.3145561396102
 10
897.1450897028789
 20
496.9830531430504
 10
899.669616711474
 20
497.4540451788337
 10
902.230062261326
 20
497.6990014400344
 10
903.5270352728382
 20
497.7165989452951
 10
902.6099288973883
 20
249.4932931480834
 10
901.6928225219382
 20
1.269987350871373
 10
900.3960149516964
 20
1.297168052602806
 10
897.8374493511963
 20
1.561037436191054
 10
895.3164715495129
 20
2.050671011752344
 10
892.8281130475764
 20
2.737573907977834
 10
890.3674053463171
 20
3.59325125355904
 10
887.9293799466648
 20
4.589208177187363
 10
884.3027199392426
 20
6.275204940508926
 10
877.1086440263514
 20
10.05323175873065
 10
871.0809526722177
 20
13.09516563798434
 10
868.6455197189026
 20
14.18754381888052
 10
866.1880525755645
 20
15.16374773604664
 10
863.703582743134
 20
15.99528251817398
 10
862.4482335193122
 20
16.3400855262307
 10
859.296297262684
 20
17.13872128925737
 10
852.9122548826817
 20
18.52734102788746
 10
846.4536997482355
 20
19.71454353138121
 10
839.9447330656225
 20
20.75473425503991
 10
830.1382525941818
 20
22.15975995450597
 10
820.3563757915608
 20
23.53729030001724
 10
813.8867749790589
 20
24.53348845734773
 10
810.6801763905559
 20
25.08141043232189
 10
805.3734645186145
 20
25.99498171074569
 10
794.6764266769922
 20
27.71329357505415
 10
778.5172623987402
 20
30.18169075001358
 10
762.3260161429206
 20
32.74526819851862
 10
751.5776471371905
 20
34.61586850049968
 10
740.9075954719546
 20
36.70023772488404
 10
730.3523211998211
 20
39.06865459686534
 10
725.1361804972756
 20
40.39757074130247
 10
723.8309688950739
 20
40.75115397907395
 10
721.2492263330448
 20
41.56256897763911
 10
717.42961543057
 20
42.97217977925528
 10
712.4241714869295
 20
45.16833856674186
 10
707.4815800454302
 20
47.59122481499141
 10
700.1139223347232
 20
51.38908964448871
 10
692.6908544553515
 20
54.97631446185325
 10
688.923054754526
 20
56.56152630706521
 10
686.3827611538164
 20
57.51342214050678
 10
685.1007412323532
 20
57.94560775017352
 10
677.6801861037862
 20
60.43063720244462
 10
666.4049770561595
 20
64.24897146018037
 10
658.8221739988338
 20
66.68456259006648
 10
651.1889814757752
 20
68.91642850561702
 10
645.4332292164553
 20
70.38321681066112
 10
641.5842478422915
 20
71.25057007659443
 10
637.725913293693
 20
72.00952057028994
 10
633.8589465022156
 20
72.64729685426853
 10
629.9840683994145
 20
73.15112749105181
 10
626.1019999168449
 20
73.50824104316102
 10
624.1582400333231
 20
73.6208764115469
 10
610.9800301249202
 20
74.32105361185145
 10
590.8175806656632
 20
75.14271534803828
 10
580.6907768579268
 20
75.27812220913148
 10
573.94592303381
 20
75.22441680907973
 10
567.2190801269438
 20
75.02233853302644
 10
560.5219793552632
 20
74.64858734266129
 10
553.8663519367033
 20
74.0798631996737
 10
547.2639290891991
 20
73.29286606575333
 10
540.7264420306851
 20
72.26429590258998
 10
534.2656219790966
 20
70.97085267187296
 10
527.8932001523685
 20
69.38923633529205
 10
521.6209077684357
 20
67.49614685453669
 10
518.5308813843596
 20
66.41108412305339
 10
517.3637842592293
 20
65.97646115462285
 10
515.0868835479521
 20
65.00662708560806
 10
512.8750814979951
 20
63.92236917546878
 10
510.7243185699585
 20
62.73066733249416
 10
508.6305352244423
 20
61.4385014649731
 10
506.5896719220468
 20
60.05285148119439
 10
503.6133754075398
 20
57.82386663011746
 10
499.800454588674
 20
54.57542086448218
 10
496.1261422330929
 20
51.07867698301754
 10
492.5579620255976
 20
47.38947425203524
 10
489.0634376509891
 20
43.56365193784676
 10
483.8896557056302
 20
37.69053282028734
 10
478.6970363724947
 20
31.82486015915939
 10
475.1723721774436
 20
28.01095217526132
 10
471.5589822392843
 20
24.33962093971481
 10
467.824390242818
 20
20.86670571883122
 10
463.9361198728458
 20
17.64804577892203
 10
460.8929506317318
 20
15.44549584817709
 10
458.803110121117
 20
14.07920665112048
 10
457.7347392130029
 20
13.43534347622341
 10
456.9041470299101
 20
12.95899658386502
 10
455.1761035425411
 20
12.11744655342465
 10
453.3763175982278
 20
11.40510769567823
 10
451.5142208508314
 20
10.8173563079168
 10
449.5992449542131
 20
10.349568687432
 10
447.6408215622343
 20
9.997121131514755
 10
445.6483823287563
 20
9.755389937456336
 10
443.6313589076404
 20
9.61975140254815
 10
440.5804857985901
 20
9.593286311119774
 10
436.5121136768668
 20
9.903080763699432
 10
432.5151745740952
 20
10.55401920412222
 10
428.665121721166
 20
11.50911201071838
 10
426.8295928603864
 20
12.09951829179574
 10
279.6318217225992
 20
61.69370214502199
 10
223.9213779651464
 20
194.3004382346629
 10
225.8947852512233
 20
195.1574166835557
 10
229.9551061177944
 20
197.1938556611375
 10
234.1053986212104
 20
199.590004514886
 10
238.2942895209651
 20
202.3155647785916
 10
242.4704055765522
 20
205.3402379860445
 10
246.5823735474657
 20
208.6337256710354
 10
250.5788201931992
 20
212.1657293673544
 10
254.4083722732466
 20
215.9059506087923
 10
258.0196565471015
 20
219.8240909291392
 10
261.3612997742578
 20
223.8898518621855
 10
264.3819287142093
 20
228.0729349417219
 10
267.0301701264497
 20
232.3430417015383
 10
268.7266210712464
 20
235.5855671831433
 10
269.7232887186087
 20
237.7574835111902
 10
270.5979620362585
 20
239.9341128720644
 10
271.3442193691325
 20
242.1116679574894
 10
271.9556390621674
 20
244.2863614591894
 10
272.4257994603
 20
246.4544060688877
 10
272.7482789084669
 20
248.6120144783085
 10
272.9166557516049
 20
250.7553993791755
 10
272.9342266337632
 20
251.8197451271079
 10
272.9245209637787
 20
252.8841916532482
 10
272.7719867558965
 20
255.0287622186517
 10
272.4654592514089
 20
257.1886946092338
 10
272.0113319446379
 20
259.3601541688066
 10
271.4159983299061
 20
261.5393062411816
 10
270.6858519015357
 20
263.7223161701712
 10
269.8272861538493
 20
265.905349299587
 10
268.8466945811691
 20
268.0845709732412
 10
267.174249830264
 20
271.3395434557869
 10
264.5576336668091
 20
275.6291021942684
 10
261.5679971011817
 20
279.8343912983179
 10
258.2564880879606
 20
283.9247335184311
 10
254.6742545817247
 20
287.8694516051035
 10
250.8724445370528
 20
291.6378683088308
 10
246.9022059085241
 20
295.1993063801083
 10
242.8146866507172
 20
298.5230885694315
 10
238.6610347182112
 20
301.5785376272962
 10
234.4923980655848
 20
304.3349763041977
 10
230.3599246474171
 20
306.7617273506316
 10
226.314762418287
 20
308.8281135170935
 10
224.347741448788
 20
309.6996505984387
  0
LWPOLYLINE
  5
4D
100
AcDbEntity
  8
8
  6
BYLAYER
 62
  256
370
   -1
100
AcDbPolyline
 90
    2
 70
    0
 43
0
 10
862.4482335193122
 20
16.3400855262307
 10
864.1721607417313
 20
482.9369008549812
  0
LWPOLYLINE
  5
4E
100
AcDbEntity
  8
8
  6
BYLAYER
 62
  256
370
   -1
100
AcDbPolyline
 90
    2
 70
    0
 43
0
 10
810.6801763905559
 20
25.08141043232189
 10
812.3409249685187
 20
474.5783424731991
  0
LWPOLYLINE
  5
4F
100
AcDbEntity
  8
8
  6
BYLAYER
 62
  256
370
   -1
100
AcDbPolyline
 90
    2
 70
    0
 43
0
 10
725.1361804972756
 20
40.39757074130247
 10
726.6860893481216
 20
459.8947075402967
  0
LWPOLYLINE
  5
50
100
AcDbEntity
  8
8
  6
BYLAYER
 62
  256
370
   -1
100
AcDbPolyline
 90
    2
 70
    0
 43
0
 10
685.1007412323532
 20
57.94560775017352
 10
686.5220759997442
 20
442.6429820685838
  0
LWPOLYLINE
  5
51
100
AcDbEntity
  8
8
  6
BYLAYER
 62
  256
370
   -1
100
AcDbPolyline
 90
    2
 70
    0
 43
0
 10
624.1582400333231
 20
73.6208764115469
 10
625.4654098817842
 20
427.418461630818
  0
LWPOLYLINE
  5
52
100
AcDbEntity
  8
8
  6
BYLAYER
 62
  256
370
   -1
100
AcDbPolyline
 90
    2
 70
    0
 43
0
 10
518.5308813843596
 20
66.41108412305339
 10
519.8942100278931
 20
435.4085655982117
  0
LWPOLYLINE
  5
53
100
AcDbEntity
  8
8
  6
BYLAYER
 62
  256
370
   -1
100
AcDbPolyline
 90
    2
 70
    0
 43
0
 10
457.7347392130029
 20
13.43534347622341
 10
459.491179422043
 20
488.8320987425926
  0
LWPOLYLINE
  5
54
100
AcDbEntity
  8
8
  6
BYLAYER
 62
  256
370
   -1
100
AcDbPolyline
 90
    2
 70
    0
 43
0
 10
426.8295928603864
 20
12.09951829179574
 10
428.5967475763811
 20
490.3962537648802
  0
LWPOLYLINE
  5
55
100
AcDbEntity
  8
8
  6
BYLAYER
 62
  256
370
   -1
100
AcDbPolyline
 90
    2
 70
    0
 43
0
 10
480.3058307843411
 20
338.7378410326406
 10
224.347741448788
 20
309.6996505984387
  0
LWPOLYLINE
  5
56
100
AcDbEntity
  8
8
  6
BYLAYER
 62
  256
370
   -1
100
AcDbPolyline
 90
    2
 70
    0
 43
0
 10
223.9213779651464
 20
194.3004382346629
 10
479.6579085159543
 20
163.3716984957771
  0
LINE
  5
57
100
AcDbEntity
  8
7
  6
BYLAYER
 62
  256
370
   -1
100
AcDbLine
 10
272.9342266337632
 20
251.8197451271079
 11
902.6099288973883
 21
249.4932931480834
  0
ENDBLK
  5
3F
330
3D
100
AcDbEntity
  8
0
100
AcDbBlockEnd
  0
ENDSEC
  0
SECTION
  2
ENTITIES
  0
INSERT
  5
58
100
AcDbEntity
  8
1
  6
BYLAYER
 62
  256
370
   -1
100
AcDbBlockReference
  2
Bk Trace
 10
0
 20
0
 30
0
 41
1
 42
1
 43
1
 50
0
 70
    1
 71
    1
 44
0
 45
0
  0
INSERT
  5
59
100
AcDbEntity
  8
1
  6
BYLAYER
 62
  256
370
   -1
100
AcDbBlockReference
  2
Fr Trace
 10
0
 20
0
 30
0
 41
1
 42
1
 43
1
 50
0
 70
    1
 71
    1
 44
0
 45
0
  0
ENDSEC
  0
SECTION
  2
OBJECTS
  0
DICTIONARY
  5
C
330
0
100
AcDbDictionary
281
    1
  3
ACAD_GROUP
350
D
  0
DICTIONARY
  5
D
330
C
100
AcDbDictionary
281
    1
  0
ENDSEC
  0
EOF
