999
dxfrw 0.6.3
  0
SECTION
  2
HEADER
  9
$ACADVER
  1
AC1009
  9
$DWGCODEPAGE
  3
ANSI_1252
  9
$INSBASE
 10
0
 20
0
 30
0
  9
$EXTMIN
 10
1e+20
 20
1e+20
 30
1e+20
  9
$EXTMAX
 10
-1e+20
 20
-1e+20
 30
-1e+20
  9
$LIMMIN
 10
0
 20
0
  9
$LIMMAX
 10
420
 20
297
  9
$ORTHOMODE
 70
    0
  9
$REGENMODE
 70
    1
  9
$FILLMODE
 70
    1
  9
$QTEXTMODE
 70
    0
  9
$MIRRTEXT
 70
    0
  9
$LTSCALE
 40
1
  9
$ATTMODE
 70
    0
  9
$TEXTSIZE
 40
2.5
  9
$TRACEWID
 40
15.68
  9
$TEXTSTYLE
  7
STANDARD
  9
$CLAYER
  8
1
  9
$CELTYPE
  6
BYLAYER
  9
$CECOLOR
 62
  256
  9
$DIMSCALE
 40
1
  9
$DIMASZ
 40
2.5
  9
$DIMEXO
 40
0.625
  9
$DIMDLI
 40
3.75
  9
$DIMRND
 40
0
  9
$DIMDLE
 40
0
  9
$DIMEXE
 40
1.25
  9
$DIMTP
 40
0
  9
$DIMTM
 40
0
  9
$DIMTXT
 40
2.5
  9
$DIMCEN
 40
2.5
  9
$DIMTSZ
 40
0
  9
$DIMTOL
 70
    0
  9
$DIMLIM
 70
    0
  9
$DIMTIH
 70
    0
  9
$DIMTOH
 70
    0
  9
$DIMSE1
 70
    0
  9
$DIMSE2
 70
    0
  9
$DIMTAD
 70
    1
  9
$DIMZIN
 70
    8
  9
$DIMBLK
  1

  9
$DIMASO
 70
    1
  9
$DIMSHO
 70
    1
  9
$DIMPOST
  1

  9
$DIMAPOST
  1

  9
$DIMALT
 70
    0
  9
$DIMALTD
 70
    3
  9
$DIMALTF
 40
0.03937
  9
$DIMLFAC
 40
1
  9
$DIMTOFL
 70
    1
  9
$DIMTVP
 40
0
  9
$DIMTIX
 70
    0
  9
$DIMSOXD
 70
    0
  9
$DIMSAH
 70
    0
  9
$DIMBLK1
  1

  9
$DIMBLK2
  1

  9
$DIMSTYLE
  2
STANDARD
  9
$DIMCLRD
 70
    0
  9
$DIMCLRE
 70
    0
  9
$DIMCLRT
 70
    0
  9
$DIMTFAC
 40
1
  9
$DIMGAP
 40
0.625
  9
$LUNITS
 70
    2
  9
$LUPREC
 70
    4
  9
$SKETCHINC
 40
1
  9
$FILLETRAD
 40
0
  9
$AUNITS
 70
    0
  9
$AUPREC
 70
    2
  9
$MENU
  1
.
  9
$ELEVATION
 40
0
  9
$PELEVATION
 40
0
  9
$THICKNESS
 40
0
  9
$LIMCHECK
 70
    0
  9
$BLIPMODE
 70
    0
  9
$CHAMFERA
 40
0
  9
$CHAMFERB
 40
0
  9
$SKPOLY
 70
    0
  9
$USRTIMER
 70
    1
  9
$ANGBASE
 50
0
  9
$ANGDIR
 70
    0
  9
$PDMODE
 70
   34
  9
$PDSIZE
 40
0
  9
$PLINEWID
 40
0
  9
$COORDS
 70
    2
  9
$SPLFRAME
 70
    0
  9
$SPLINETYPE
 70
    2
  9
$SPLINESEGS
 70
    8
  9
$ATTDIA
 70
    1
  9
$ATTREQ
 70
    1
  9
$HANDLING
 70
    1
  9
$HANDSEED
  5
20000
  9
$SURFTAB1
 70
    6
  9
$SURFTAB2
 70
    6
  9
$SURFTYPE
 70
    6
  9
$SURFU
 70
    6
  9
$SURFV
 70
    6
  9
$TDCREATE
 40
20260325.10303995
  9
$UCSNAME
  2

  9
$UCSORG
 10
0
 20
0
 30
0
  9
$UCSXDIR
 10
1
 20
0
 30
0
  9
$UCSYDIR
 10
0
 20
1
 30
0
  9
$PUCSNAME
  2

  9
$PUCSORG
 10
0
 20
0
 30
0
  9
$PUCSXDIR
 10
1
 20
0
 30
0
  9
$PUCSYDIR
 10
0
 20
1
 30
0
  9
$USERI1
 70
    0
  9
$USERI2
 70
    0
  9
$USERI3
 70
    0
  9
$USERI4
 70
    0
  9
$USERI5
 70
    0
  9
$USERR1
 40
0
  9
$USERR2
 40
0
  9
$USERR3
 40
0
  9
$USERR4
 40
0
  9
$USERR5
 40
0
  9
$WORLDVIEW
 70
    1
  9
$SHADEDGE
 70
    3
  9
$SHADEDIF
 70
   70
  9
$TILEMODE
 70
    1
  9
$MAXACTVP
 70
   64
  9
$PLIMCHECK
 70
    0
  9
$PEXTMIN
 10
0
 20
0
 30
0
  9
$PEXTMAX
 10
0
 20
0
 30
0
  9
$PLIMMIN
 10
0
 20
0
  9
$PLIMMAX
 10
297
 20
210
  9
$UNITMODE
 70
    0
  9
$VISRETAIN
 70
    1
  9
$PLINEGEN
 70
    0
  9
$PSLTSCALE
 70
    1
  0
ENDSEC
  0
SECTION
  2
TABLES
  0
TABLE
  2
VPORT
 70
    1
  0
VPORT
  2
*ACTIVE
 70
    0
 10
0
 20
0
 11
1
 21
1
 12
0.651828
 22
-0.16
 13
0
 23
0
 14
10
 24
10
 15
10
 25
10
 16
0
 26
0
 36
1
 17
0
 27
0
 37
0
 40
5.13732
 41
2.4426877
 42
50
 43
0
 44
0
 50
0
 51
0
 71
    0
 72
  100
 73
    1
 74
    3
 75
    0
 76
    0
 77
    0
 78
    0
  0
ENDTAB
  0
TABLE
  2
LTYPE
 70
    4
  0
LTYPE
  2
BYBLOCK
 70
    0
  3

 72
   65
 73
    0
 40
0
  0
LTYPE
  2
BYLAYER
 70
    0
  3

 72
   65
 73
    0
 40
0
  0
LTYPE
  2
CONTINUOUS
 70
    0
  3
Solid line
 72
   65
 73
    0
 40
0
  0
ENDTAB
  0
TABLE
  2
LAYER
 70
    1
  0
LAYER
  2
1
 70
    0
 62
  250
  6
CONTINUOUS
  0
LAYER
  2
8
 70
    0
 62
  250
  6
CONTINUOUS
  0
LAYER
  2
7
 70
    0
 62
  250
  6
CONTINUOUS
  0
LAYER
  2
11
 70
    0
 62
  250
  6
CONTINUOUS
  0
LAYER
  2
4
 70
    0
 62
  250
  6
CONTINUOUS
  0
ENDTAB
  0
TABLE
  2
STYLE
 70
    3
  0
STYLE
  2
STANDARD
 70
    0
 40
0
 41
1
 50
0
 71
    0
 42
2.5
  3
TXT
  4

  0
ENDTAB
  0
TABLE
  2
VIEW
 70
    0
  0
ENDTAB
  0
TABLE
  2
UCS
 70
    0
  0
ENDTAB
  0
TABLE
  2
APPID
 70
    1
  0
APPID
  2
ACAD
 70
    0
  0
APPID
  2
SEAMLY2D
 70
    0
  0
ENDTAB
  0
TABLE
  2
DIMSTYLE
 70
    1
  0
DIMSTYLE
  2
STANDARD
 70
    0
  3

  4

  5

  6

  7

 40
1
 41
2.5
 42
0.625
 43
3.75
 44
1.25
 45
0
 46
0
 47
0
 48
0
140
2.5
141
2.5
142
0
143
0.03937007874015748
144
1
145
0
146
1
147
0.625
 71
    0
 72
    0
 73
    0
 74
    0
 75
    0
 76
    0
 77
    1
 78
    8
170
    0
171
    3
172
    1
173
    0
174
    0
175
    0
176
    0
177
    0
178
    0
  0
ENDTAB
  0
ENDSEC
  0
SECTION
  2
BLOCKS
  0
BLOCK
  8
0
  2
$MODEL_SPACE
 70
    0
 10
0
 20
0
 30
0
  3
$MODEL_SPACE
  1

  0
ENDBLK
  8
0
  0
BLOCK
  8
0
  2
$PAPER_SPACE
 70
    0
 10
0
 20
0
 30
0
  3
$PAPER_SPACE
  1

  0
ENDBLK
  8
0
  0
BLOCK
  8
1
  2
SLEEVE
 70
    0
 10
0
 20
0
  3
SLEEVE
  1

  0
POLYLINE
  5
31
  8
1
  6
BYLAYER
 62
  256
 66
    1
 10
0
 20
0
 30
0
 70
    1
  0
VERTEX
  5
32
  8
1
  6
BYLAYER
 62
  256
 10
820.6289914338283
 20
1497.236393039919
 30
0
  0
VERTEX
  5
33
  8
1
  6
BYLAYER
 62
  256
 10
839.3566432492148
 20
1434.102266786607
 30
0
  0
VERTEX
  5
34
  8
1
  6
BYLAYER
 62
  256
 10
623.5300780641345
 20
1370.081031281111
 30
0
  0
VERTEX
  5
35
  8
1
  6
BYLAYER
 62
  256
 10
571.2511796122885
 20
1354.573395940284
 30
0
  0
VERTEX
  5
36
  8
1
  6
BYLAYER
 62
  256
 10
415.1189205416146
 20
1308.259448816133
 30
0
  0
VERTEX
  5
37
  8
1
  6
BYLAYER
 62
  256
 10
341.5379212662944
 20
1286.432911942439
 30
0
  0
VERTEX
  5
38
  8
1
  6
BYLAYER
 62
  256
 10
338.9359771063344
 20
1294.998406187977
 30
0
  0
VERTEX
  5
39
  8
1
  6
BYLAYER
 62
  256
 10
337.6483719133516
 20
1298.792959497778
 30
0
  0
VERTEX
  5
3A
  8
1
  6
BYLAYER
 62
  256
 10
336.2124887864929
 20
1302.551741076906
 30
0
  0
VERTEX
  5
3B
  8
1
  6
BYLAYER
 62
  256
 10
334.6257424913173
 20
1306.285406365495
 30
0
  0
VERTEX
  5
3C
  8
1
  6
BYLAYER
 62
  256
 10
332.8930979548221
 20
1309.982986026852
 30
0
  0
VERTEX
  5
3D
  8
1
  6
BYLAYER
 62
  256
 10
331.0196867181907
 20
1313.633598010834
 30
0
  0
VERTEX
  5
3E
  8
1
  6
BYLAYER
 62
  256
 10
329.0107939657022
 20
1317.226450279205
 30
0
  0
VERTEX
  5
3F
  8
1
  6
BYLAYER
 62
  256
 10
326.871849354246
 20
1320.750843523968
 30
0
  0
VERTEX
  5
40
  8
1
  6
BYLAYER
 62
  256
 10
324.6084209968542
 20
1324.19617493594
 30
0
  0
VERTEX
  5
41
  8
1
  6
BYLAYER
 62
  256
 10
322.2262118949161
 20
1327.551943934724
 30
0
  0
VERTEX
  5
42
  8
1
  6
BYLAYER
 62
  256
 10
319.7310580265928
 20
1330.807760686753
 30
0
  0
VERTEX
  5
43
  8
1
  6
BYLAYER
 62
  256
 10
317.128927160427
 20
1333.953358192091
 30
0
  0
VERTEX
  5
44
  8
1
  6
BYLAYER
 62
  256
 10
314.4259172535128
 20
1336.978608686023
 30
0
  0
VERTEX
  5
45
  8
1
  6
BYLAYER
 62
  256
 10
311.6282529955558
 20
1339.873545045132
 30
0
  0
VERTEX
  5
46
  8
1
  6
BYLAYER
 62
  256
 10
308.7422786618977
 20
1342.628387764592
 30
0
  0
VERTEX
  5
47
  8
1
  6
BYLAYER
 62
  256
 10
305.7550874911105
 20
1345.25056995911
 30
0
  0
VERTEX
  5
48
  8
1
  6
BYLAYER
 62
  256
 10
304.224703444591
 20
1346.499409832975
 30
0
  0
VERTEX
  5
49
  8
1
  6
BYLAYER
 62
  256
 10
300.8485680701986
 20
1349.240442287287
 30
0
  0
VERTEX
  5
4A
  8
1
  6
BYLAYER
 62
  256
 10
294.2719460432785
 20
1354.864155369052
 30
0
  0
VERTEX
  5
4B
  8
1
  6
BYLAYER
 62
  256
 10
287.9201716432634
 20
1360.666774603562
 30
0
  0
VERTEX
  5
4C
  8
1
  6
BYLAYER
 62
  256
 10
281.8065967763103
 20
1366.658014362461
 30
0
  0
VERTEX
  5
4D
  8
1
  6
BYLAYER
 62
  256
 10
275.9319110725276
 20
1372.858185561915
 30
0
  0
VERTEX
  5
4E
  8
1
  6
BYLAYER
 62
  256
 10
274.6807098121045
 20
1374.285678600571
 30
0
  0
VERTEX
  5
4F
  8
1
  6
BYLAYER
 62
  256
 10
270.5108524413823
 20
1380.713352619718
 30
0
  0
VERTEX
  5
50
  8
1
  6
BYLAYER
 62
  256
 10
266.1319610020236
 20
1388.096066342201
 30
0
  0
VERTEX
  5
51
  8
1
  6
BYLAYER
 62
  256
 10
262.0302823710334
 20
1395.708043513712
 30
0
  0
VERTEX
  5
52
  8
1
  6
BYLAYER
 62
  256
 10
258.2089339353281
 20
1403.567335560525
 30
0
  0
VERTEX
  5
53
  8
1
  6
BYLAYER
 62
  256
 10
254.6705938603056
 20
1411.691740931738
 30
0
  0
VERTEX
  5
54
  8
1
  6
BYLAYER
 62
  256
 10
251.4174328270663
 20
1420.098963595976
 30
0
  0
VERTEX
  5
55
  8
1
  6
BYLAYER
 62
  256
 10
248.4510929777875
 20
1428.806775192182
 30
0
  0
VERTEX
  5
56
  8
1
  6
BYLAYER
 62
  256
 10
245.7727126789761
 20
1437.833161837456
 30
0
  0
VERTEX
  5
57
  8
1
  6
BYLAYER
 62
  256
 10
243.3829887563049
 20
1447.19644064798
 30
0
  0
VERTEX
  5
58
  8
1
  6
BYLAYER
 62
  256
 10
241.2822635028637
 20
1456.915337452411
 30
0
  0
VERTEX
  5
59
  8
1
  6
BYLAYER
 62
  256
 10
239.4739887826656
 20
1466.990269068089
 30
0
  0
VERTEX
  5
5A
  8
1
  6
BYLAYER
 62
  256
 10
238.6851836231138
 20
1472.223183599521
 30
0
  0
VERTEX
  5
5B
  8
1
  6
BYLAYER
 62
  256
 10
238.0746668884123
 20
1476.609621358514
 30
0
  0
VERTEX
  5
5C
  8
1
  6
BYLAYER
 62
  256
 10
237.1080044903109
 20
1485.434880044137
 30
0
  0
VERTEX
  5
5D
  8
1
  6
BYLAYER
 62
  256
 10
236.4408304280815
 20
1494.389357635086
 30
0
  0
VERTEX
  5
5E
  8
1
  6
BYLAYER
 62
  256
 10
236.0814302873826
 20
1503.427849168198
 30
0
  0
VERTEX
  5
5F
  8
1
  6
BYLAYER
 62
  256
 10
236.0360672922649
 20
1512.525541822049
 30
0
  0
VERTEX
  5
60
  8
1
  6
BYLAYER
 62
  256
 10
236.3112138327912
 20
1521.657570910693
 30
0
  0
VERTEX
  5
61
  8
1
  6
BYLAYER
 62
  256
 10
236.9135496992617
 20
1530.799019613379
 30
0
  0
VERTEX
  5
62
  8
1
  6
BYLAYER
 62
  256
 10
237.8499655497846
 20
1539.924913935568
 30
0
  0
VERTEX
  5
63
  8
1
  6
BYLAYER
 62
  256
 10
239.1275704252464
 20
1549.010211476525
 30
0
  0
VERTEX
  5
64
  8
1
  6
BYLAYER
 62
  256
 10
240.7537018930849
 20
1558.029782378721
 30
0
  0
VERTEX
  5
65
  8
1
  6
BYLAYER
 62
  256
 10
242.7359369524417
 20
1566.958380623308
 30
0
  0
VERTEX
  5
66
  8
1
  6
BYLAYER
 62
  256
 10
245.2080632563375
 20
1576.243719089522
 30
0
  0
VERTEX
  5
67
  8
1
  6
BYLAYER
 62
  256
 10
248.3474114188078
 20
1582.857443107744
 30
0
  0
VERTEX
  5
68
  8
1
  6
BYLAYER
 62
  256
 10
250.4105582905909
 20
1586.913665761673
 30
0
  0
VERTEX
  5
69
  8
1
  6
BYLAYER
 62
  256
 10
252.5544553142819
 20
1590.89806106114
 30
0
  0
VERTEX
  5
6A
  8
1
  6
BYLAYER
 62
  256
 10
254.7872915488612
 20
1594.822175900292
 30
0
  0
VERTEX
  5
6B
  8
1
  6
BYLAYER
 62
  256
 10
257.1096615878772
 20
1598.682581655909
 30
0
  0
VERTEX
  5
6C
  8
1
  6
BYLAYER
 62
  256
 10
259.5221657619707
 20
1602.475818163521
 30
0
  0
VERTEX
  5
6D
  8
1
  6
BYLAYER
 62
  256
 10
262.0254071959377
 20
1606.198390702639
 30
0
  0
VERTEX
  5
6E
  8
1
  6
BYLAYER
 62
  256
 10
264.6107960229832
 20
1609.833841364413
 30
0
  0
VERTEX
  5
6F
  8
1
  6
BYLAYER
 62
  256
 10
265.9269429668416
 20
1611.599708717482
 30
0
  0
VERTEX
  5
70
  8
1
  6
BYLAYER
 62
  256
 10
267.0789203627854
 20
1613.160000310423
 30
0
  0
VERTEX
  5
71
  8
1
  6
BYLAYER
 62
  256
 10
269.2609308061495
 20
1616.404869960756
 30
0
  0
VERTEX
  5
72
  8
1
  6
BYLAYER
 62
  256
 10
271.2837794652195
 20
1619.767390349422
 30
0
  0
VERTEX
  5
73
  8
1
  6
BYLAYER
 62
  256
 10
273.1639662954969
 20
1623.261684844864
 30
0
  0
VERTEX
  5
74
  8
1
  6
BYLAYER
 62
  256
 10
274.9003981724092
 20
1626.87507288651
 30
0
  0
VERTEX
  5
75
  8
1
  6
BYLAYER
 62
  256
 10
276.4921499588739
 20
1630.594481957703
 30
0
  0
VERTEX
  5
76
  8
1
  6
BYLAYER
 62
  256
 10
277.9384995337331
 20
1634.406527818527
 30
0
  0
VERTEX
  5
77
  8
1
  6
BYLAYER
 62
  256
 10
279.2389441644486
 20
1638.297581789353
 30
0
  0
VERTEX
  5
78
  8
1
  6
BYLAYER
 62
  256
 10
280.3932045802103
 20
1642.253824612527
 30
0
  0
VERTEX
  5
79
  8
1
  6
BYLAYER
 62
  256
 10
281.4012217689273
 20
1646.261287674815
 30
0
  0
VERTEX
  5
7A
  8
1
  6
BYLAYER
 62
  256
 10
282.2631503092127
 20
1650.30588298088
 30
0
  0
VERTEX
  5
7B
  8
1
  6
BYLAYER
 62
  256
 10
282.9793510688697
 20
1654.373423463615
 30
0
  0
VERTEX
  5
7C
  8
1
  6
BYLAYER
 62
  256
 10
283.5503853816484
 20
1658.449635179686
 30
0
  0
VERTEX
  5
7D
  8
1
  6
BYLAYER
 62
  256
 10
283.977012339612
 20
1662.520162794446
 30
0
  0
VERTEX
  5
7E
  8
1
  6
BYLAYER
 62
  256
 10
284.2601905794205
 20
1666.570569595717
 30
0
  0
VERTEX
  5
7F
  8
1
  6
BYLAYER
 62
  256
 10
284.4018071153266
 20
1670.606890009686
 30
0
  0
VERTEX
  5
80
  8
1
  6
BYLAYER
 62
  256
 10
284.4544996780102
 20
1679.575
 30
0
  0
VERTEX
  5
81
  8
1
  6
BYLAYER
 62
  256
 10
361.2091666666666
 20
1679.575
 30
0
  0
VERTEX
  5
82
  8
1
  6
BYLAYER
 62
  256
 10
524.0657416666669
 20
1679.575
 30
0
  0
VERTEX
  5
83
  8
1
  6
BYLAYER
 62
  256
 10
579.9402520539905
 20
1679.575
 30
0
  0
VERTEX
  5
84
  8
1
  6
BYLAYER
 62
  256
 10
803.7179916666669
 20
1679.574999999998
 30
0
  0
VERTEX
  5
85
  8
1
  6
BYLAYER
 62
  256
 10
803.7179916666669
 20
1613.721720298753
 30
0
  0
VERTEX
  5
86
  8
1
  6
BYLAYER
 62
  256
 10
812.1734978810159
 20
1555.47901306212
 30
0
  0
VERTEX
  5
87
  8
1
  6
BYLAYER
 62
  256
 10
820.6289914338283
 20
1497.236393039919
 30
0
  0
SEQEND
  5
88
  8
1
  6
BYLAYER
 62
  256
  0
POLYLINE
  5
89
  8
8
  6
BYLAYER
 62
  256
 66
    1
 10
0
 20
0
 30
0
 70
    1
  0
VERTEX
  5
8A
  8
8
  6
BYLAYER
 62
  256
 10
813.7742468846875
 20
1495.730382917239
 30
0
  0
VERTEX
  5
8B
  8
8
  6
BYLAYER
 62
  256
 10
830.6549777293319
 20
1438.822544022117
 30
0
  0
VERTEX
  5
8C
  8
8
  6
BYLAYER
 62
  256
 10
621.539383921948
 20
1376.792002658807
 30
0
  0
VERTEX
  5
8D
  8
8
  6
BYLAYER
 62
  256
 10
569.260485470102
 20
1361.28436731798
 30
0
  0
VERTEX
  5
8E
  8
8
  6
BYLAYER
 62
  256
 10
413.1282263994281
 20
1314.97042019383
 30
0
  0
VERTEX
  5
8F
  8
8
  6
BYLAYER
 62
  256
 10
346.2144010834251
 20
1295.121585712051
 30
0
  0
VERTEX
  5
90
  8
8
  6
BYLAYER
 62
  256
 10
345.6009849482978
 20
1297.140926655799
 30
0
  0
VERTEX
  5
91
  8
8
  6
BYLAYER
 62
  256
 10
344.2346585228005
 20
1301.167470264348
 30
0
  0
VERTEX
  5
92
  8
8
  6
BYLAYER
 62
  256
 10
342.7054407641191
 20
1305.170578479974
 30
0
  0
VERTEX
  5
93
  8
8
  6
BYLAYER
 62
  256
 10
341.0183335090396
 20
1309.140396349138
 30
0
  0
VERTEX
  5
94
  8
8
  6
BYLAYER
 62
  256
 10
339.1783385943476
 20
1313.0670689183
 30
0
  0
VERTEX
  5
95
  8
8
  6
BYLAYER
 62
  256
 10
337.1904578568294
 20
1316.940741233921
 30
0
  0
VERTEX
  5
96
  8
8
  6
BYLAYER
 62
  256
 10
335.0596931332706
 20
1320.751558342459
 30
0
  0
VERTEX
  5
97
  8
8
  6
BYLAYER
 62
  256
 10
332.7910462604571
 20
1324.489665290378
 30
0
  0
VERTEX
  5
98
  8
8
  6
BYLAYER
 62
  256
 10
330.3895190751749
 20
1328.145207124135
 30
0
  0
VERTEX
  5
99
  8
8
  6
BYLAYER
 62
  256
 10
327.8601134142098
 20
1331.708328890191
 30
0
  0
VERTEX
  5
9A
  8
8
  6
BYLAYER
 62
  256
 10
325.2078311143476
 20
1335.169175635008
 30
0
  0
VERTEX
  5
9B
  8
8
  6
BYLAYER
 62
  256
 10
322.4376740123744
 20
1338.517892405045
 30
0
  0
VERTEX
  5
9C
  8
8
  6
BYLAYER
 62
  256
 10
319.554643945076
 20
1341.744624246762
 30
0
  0
VERTEX
  5
9D
  8
8
  6
BYLAYER
 62
  256
 10
316.5637427492381
 20
1344.839516206619
 30
0
  0
VERTEX
  5
9E
  8
8
  6
BYLAYER
 62
  256
 10
313.4699722616468
 20
1347.792713331078
 30
0
  0
VERTEX
  5
9F
  8
8
  6
BYLAYER
 62
  256
 10
310.278334319088
 20
1350.594360666599
 30
0
  0
VERTEX
  5
A0
  8
8
  6
BYLAYER
 62
  256
 10
308.6436129303668
 20
1351.92834298139
 30
0
  0
VERTEX
  5
A1
  8
8
  6
BYLAYER
 62
  256
 10
305.3300094917421
 20
1354.618606717519
 30
0
  0
VERTEX
  5
A2
  8
8
  6
BYLAYER
 62
  256
 10
298.9084851180802
 20
1360.109694768074
 30
0
  0
VERTEX
  5
A3
  8
8
  6
BYLAYER
 62
  256
 10
292.7320323587085
 20
1365.752150139676
 30
0
  0
VERTEX
  5
A4
  8
8
  6
BYLAYER
 62
  256
 10
286.7987096691668
 20
1371.566744640206
 30
0
  0
VERTEX
  5
A5
  8
8
  6
BYLAYER
 62
  256
 10
281.1065755049944
 20
1377.574250077544
 30
0
  0
VERTEX
  5
A6
  8
8
  6
BYLAYER
 62
  256
 10
280.2780609920462
 20
1378.519500643595
 30
0
  0
VERTEX
  5
A7
  8
8
  6
BYLAYER
 62
  256
 10
276.4598101701409
 20
1384.405186753357
 30
0
  0
VERTEX
  5
A8
  8
8
  6
BYLAYER
 62
  256
 10
272.2260044803227
 20
1391.543289124108
 30
0
  0
VERTEX
  5
A9
  8
8
  6
BYLAYER
 62
  256
 10
268.2617949950364
 20
1398.900148307833
 30
0
  0
VERTEX
  5
AA
  8
8
  6
BYLAYER
 62
  256
 10
264.5682451394807
 20
1406.496599532495
 30
0
  0
VERTEX
  5
AB
  8
8
  6
BYLAYER
 62
  256
 10
261.1464183388543
 20
1414.353478026062
 30
0
  0
VERTEX
  5
AC
  8
8
  6
BYLAYER
 62
  256
 10
257.9973780183561
 20
1422.491619016497
 30
0
  0
VERTEX
  5
AD
  8
8
  6
BYLAYER
 62
  256
 10
255.1221876031847
 20
1430.931857731767
 30
0
  0
VERTEX
  5
AE
  8
8
  6
BYLAYER
 62
  256
 10
252.5219105185388
 20
1439.695029399836
 30
0
  0
VERTEX
  5
AF
  8
8
  6
BYLAYER
 62
  256
 10
250.1976101896172
 20
1448.80196924867
 30
0
  0
VERTEX
  5
B0
  8
8
  6
BYLAYER
 62
  256
 10
248.1503500416186
 20
1458.273512506233
 30
0
  0
VERTEX
  5
B1
  8
8
  6
BYLAYER
 62
  256
 10
246.3811934997417
 20
1468.130494400491
 30
0
  0
VERTEX
  5
B2
  8
8
  6
BYLAYER
 62
  256
 10
245.6128905158036
 20
1473.227397990064
 30
0
  0
VERTEX
  5
B3
  8
8
  6
BYLAYER
 62
  256
 10
245.0219224355316
 20
1477.473382668816
 30
0
  0
VERTEX
  5
B4
  8
8
  6
BYLAYER
 62
  256
 10
244.0796230305349
 20
1486.076216527604
 30
0
  0
VERTEX
  5
B5
  8
8
  6
BYLAYER
 62
  256
 10
243.4304872211932
 20
1494.788593682689
 30
0
  0
VERTEX
  5
B6
  8
8
  6
BYLAYER
 62
  256
 10
243.0807366619495
 20
1503.584409572683
 30
0
  0
VERTEX
  5
B7
  8
8
  6
BYLAYER
 62
  256
 10
243.0365930072464
 20
1512.437559636202
 30
0
  0
VERTEX
  5
B8
  8
8
  6
BYLAYER
 62
  256
 10
243.3042779115267
 20
1521.321939311858
 30
0
  0
VERTEX
  5
B9
  8
8
  6
BYLAYER
 62
  256
 10
243.8900130292332
 20
1530.211444038267
 30
0
  0
VERTEX
  5
BA
  8
8
  6
BYLAYER
 62
  256
 10
244.8000200148086
 20
1539.079969254044
 30
0
  0
VERTEX
  5
BB
  8
8
  6
BYLAYER
 62
  256
 10
246.0405205226958
 20
1547.901410397801
 30
0
  0
VERTEX
  5
BC
  8
8
  6
BYLAYER
 62
  256
 10
247.6177362073375
 20
1556.649662908154
 30
0
  0
VERTEX
  5
BD
  8
8
  6
BYLAYER
 62
  256
 10
249.5378887231764
 20
1565.298622223717
 30
0
  0
VERTEX
  5
BE
  8
8
  6
BYLAYER
 62
  256
 10
251.8071997246554
 20
1573.822183783104
 30
0
  0
VERTEX
  5
BF
  8
8
  6
BYLAYER
 62
  256
 10
254.630102477641
 20
1579.76924628535
 30
0
  0
VERTEX
  5
C0
  8
8
  6
BYLAYER
 62
  256
 10
256.6131769021169
 20
1583.668043561976
 30
0
  0
VERTEX
  5
C1
  8
8
  6
BYLAYER
 62
  256
 10
258.679485095233
 20
1587.508241370418
 30
0
  0
VERTEX
  5
C2
  8
8
  6
BYLAYER
 62
  256
 10
260.8293278871168
 20
1591.286498759304
 30
0
  0
VERTEX
  5
C3
  8
8
  6
BYLAYER
 62
  256
 10
263.0630061078963
 20
1594.999474777264
 30
0
  0
VERTEX
  5
C4
  8
8
  6
BYLAYER
 62
  256
 10
265.3808205876992
 20
1598.643828472927
 30
0
  0
VERTEX
  5
C5
  8
8
  6
BYLAYER
 62
  256
 10
267.7830721566531
 20
1602.216218894921
 30
0
  0
VERTEX
  5
C6
  8
8
  6
BYLAYER
 62
  256
 10
270.2700616448861
 20
1605.713305091875
 30
0
  0
VERTEX
  5
C7
  8
8
  6
BYLAYER
 62
  256
 10
271.5489766666666
 20
1607.429218573154
 30
0
  0
VERTEX
  5
C8
  8
8
  6
BYLAYER
 62
  256
 10
272.8018102641731
 20
1609.126114481378
 30
0
  0
VERTEX
  5
C9
  8
8
  6
BYLAYER
 62
  256
 10
275.1682073320978
 20
1612.645185643343
 30
0
  0
VERTEX
  5
CA
  8
8
  6
BYLAYER
 62
  256
 10
277.3685470719701
 20
1616.302744108796
 30
0
  0
VERTEX
  5
CB
  8
8
  6
BYLAYER
 62
  256
 10
279.4040148442934
 20
1620.085625532037
 30
0
  0
VERTEX
  5
CC
  8
8
  6
BYLAYER
 62
  256
 10
281.2757960095711
 20
1623.980665567364
 30
0
  0
VERTEX
  5
CD
  8
8
  6
BYLAYER
 62
  256
 10
282.9850759283066
 20
1627.974699869077
 30
0
  0
VERTEX
  5
CE
  8
8
  6
BYLAYER
 62
  256
 10
284.5330399610034
 20
1632.054564091473
 30
0
  0
VERTEX
  5
CF
  8
8
  6
BYLAYER
 62
  256
 10
285.920873468165
 20
1636.207093888852
 30
0
  0
VERTEX
  5
D0
  8
8
  6
BYLAYER
 62
  256
 10
287.1497618102949
 20
1640.419124915511
 30
0
  0
VERTEX
  5
D1
  8
8
  6
BYLAYER
 62
  256
 10
288.2208903478964
 20
1644.67749282575
 30
0
  0
VERTEX
  5
D2
  8
8
  6
BYLAYER
 62
  256
 10
289.1354444414729
 20
1648.969033273867
 30
0
  0
VERTEX
  5
D3
  8
8
  6
BYLAYER
 62
  256
 10
289.8946094515282
 20
1653.28058191416
 30
0
  0
VERTEX
  5
D4
  8
8
  6
BYLAYER
 62
  256
 10
290.4995707385655
 20
1657.598974400929
 30
0
  0
VERTEX
  5
D5
  8
8
  6
BYLAYER
 62
  256
 10
290.9515136630883
 20
1661.911046388472
 30
0
  0
VERTEX
  5
D6
  8
8
  6
BYLAYER
 62
  256
 10
291.2516235855999
 20
1666.203633531087
 30
0
  0
VERTEX
  5
D7
  8
8
  6
BYLAYER
 62
  256
 10
291.4010858666041
 20
1670.463571483073
 30
0
  0
VERTEX
  5
D8
  8
8
  6
BYLAYER
 62
  256
 10
291.4134916666667
 20
1672.575
 30
0
  0
VERTEX
  5
D9
  8
8
  6
BYLAYER
 62
  256
 10
361.2091666666668
 20
1672.575
 30
0
  0
VERTEX
  5
DA
  8
8
  6
BYLAYER
 62
  256
 10
524.0657416666669
 20
1672.575
 30
0
  0
VERTEX
  5
DB
  8
8
  6
BYLAYER
 62
  256
 10
578.5961916666668
 20
1672.575
 30
0
  0
VERTEX
  5
DC
  8
8
  6
BYLAYER
 62
  256
 10
796.717991666667
 20
1672.574999999999
 30
0
  0
VERTEX
  5
DD
  8
8
  6
BYLAYER
 62
  256
 10
796.717991666667
 20
1613.216249999999
 30
0
  0
VERTEX
  5
DE
  8
8
  6
BYLAYER
 62
  256
 10
805.2461192756771
 20
1554.473316458619
 30
0
  0
SEQEND
  5
DF
  8
8
  6
BYLAYER
 62
  256
  0
POLYLINE
  5
E0
  8
8
  6
BYLAYER
 62
  256
 66
    1
 10
0
 20
0
 30
0
 70
    0
  0
VERTEX
  5
E1
  8
8
  6
BYLAYER
 62
  256
 10
810.4146814629561
 20
1518.871538554753
 30
0
  0
VERTEX
  5
E2
  8
8
  6
BYLAYER
 62
  256
 10
597.1239009071826
 20
1469.844217700469
 30
0
  0
VERTEX
  5
E3
  8
8
  6
BYLAYER
 62
  256
 10
543.5291289192562
 20
1459.461490806021
 30
0
  0
VERTEX
  5
E4
  8
8
  6
BYLAYER
 62
  256
 10
382.8398128925248
 20
1432.773228206296
 30
0
  0
VERTEX
  5
E5
  8
8
  6
BYLAYER
 62
  256
 10
314.7272356194087
 20
1416.139867423838
 30
0
  0
SEQEND
  5
E6
  8
8
  6
BYLAYER
 62
  256
  0
POLYLINE
  5
E7
  8
8
  6
BYLAYER
 62
  256
 66
    1
 10
0
 20
0
 30
0
 70
    0
  0
VERTEX
  5
E8
  8
8
  6
BYLAYER
 62
  256
 10
295.640550794391
 20
1547.611617098019
 30
0
  0
VERTEX
  5
E9
  8
8
  6
BYLAYER
 62
  256
 10
365.6711351613271
 20
1551.03347725458
 30
0
  0
VERTEX
  5
EA
  8
8
  6
BYLAYER
 62
  256
 10
527.3158629613846
 20
1571.140730179234
 30
0
  0
VERTEX
  5
EB
  8
8
  6
BYLAYER
 62
  256
 10
581.650540307601
 20
1576.426885671182
 30
0
  0
VERTEX
  5
EC
  8
8
  6
BYLAYER
 62
  256
 10
800.0775570883982
 20
1590.075094362486
 30
0
  0
SEQEND
  5
ED
  8
8
  6
BYLAYER
 62
  256
  0
POLYLINE
  5
EE
  8
8
  6
BYLAYER
 62
  256
 66
    1
 10
0
 20
0
 30
0
 70
    0
  0
VERTEX
  5
EF
  8
8
  6
BYLAYER
 62
  256
 10
327.3241355984627
 20
1358.803910535409
 30
0
  0
VERTEX
  5
F0
  8
8
  6
BYLAYER
 62
  256
 10
396.1362299714792
 20
1372.253354453456
 30
0
  0
VERTEX
  5
F1
  8
8
  6
BYLAYER
 62
  256
 10
553.2140687596919
 20
1415.3795901732
 30
0
  0
VERTEX
  5
F2
  8
8
  6
BYLAYER
 62
  256
 10
606.225258270985
 20
1428.418546757232
 30
0
  0
VERTEX
  5
F3
  8
8
  6
BYLAYER
 62
  256
 10
820.4242317628806
 20
1473.312143352495
 30
0
  0
SEQEND
  5
F4
  8
8
  6
BYLAYER
 62
  256
  0
POLYLINE
  5
F5
  8
8
  6
BYLAYER
 62
  256
 66
    1
 10
0
 20
0
 30
0
 70
    0
  0
VERTEX
  5
F6
  8
8
  6
BYLAYER
 62
  256
 10
796.7179916666668
 20
1636.599999999998
 30
0
  0
VERTEX
  5
F7
  8
8
  6
BYLAYER
 62
  256
 10
578.5961916666669
 20
1618.724999999999
 30
0
  0
VERTEX
  5
F8
  8
8
  6
BYLAYER
 62
  256
 10
524.0657416666668
 20
1616.149999999999
 30
0
  0
VERTEX
  5
F9
  8
8
  6
BYLAYER
 62
  256
 10
361.2091666666666
 20
1612.825
 30
0
  0
VERTEX
  5
FA
  8
8
  6
BYLAYER
 62
  256
 10
291.4134916666667
 20
1606.15
 30
0
  0
SEQEND
  5
FB
  8
8
  6
BYLAYER
 62
  256
  0
LINE
  5
FC
  8
7
  6
BYLAYER
 62
  256
 10
805.2461192756771
 20
1554.473316458619
 11
245.6128905158035
 21
1473.227397990064
  0
TEXT
  5
FD
  8
1
  6
BYLAYER
 62
  256
 10
287.6268024985549
 20
1436.302692924575
 30
0
 40
2.5
  1
Piece Name: Sleeve
 50
0
 41
1
 51
0
  7
STANDARD
 71
    0
210
0
220
0
230
1
  0
TEXT
  5
FE
  8
1
  6
BYLAYER
 62
  256
 10
287.6268024985549
 20
1433.802692924575
 30
0
 40
2.5
  1
File Name: GBlock-201-Sweatshirt-Parametric-Scalable-V4-Hood-csr0052a-EXTRA
 50
0
 41
1
 51
0
  7
STANDARD
 71
    0
210
0
220
0
230
1
  0
TEXT
  5
FF
  8
1
  6
BYLAYER
 62
  256
 10
287.6268024985549
 20
1431.302692924575
 30
0
 40
2.5
  1
Measurement Name: csr0052a-EXTRA
 50
0
 41
1
 51
0
  7
STANDARD
 71
    0
210
0
220
0
230
1
  0
TEXT
  5
100
  8
1
  6
BYLAYER
 62
  256
 10
287.6268024985549
 20
1428.802692924575
 30
0
 40
2.5
  1
Date: 03-25-2026
 50
0
 41
1
 51
0
  7
STANDARD
 71
    0
210
0
220
0
230
1
  0
ENDBLK
  8
1
  0
BLOCK
  8
1
  2
SWEATSHIRT_BACK
 70
    0
 10
0
 20
0
  3
SWEATSHIRT_BACK
  1

  0
POLYLINE
  5
101
  8
1
  6
BYLAYER
 62
  256
 66
    1
 10
0
 20
0
 30
0
 70
    1
  0
VERTEX
  5
102
  8
1
  6
BYLAYER
 62
  256
 10
734.2397399176131
 20
1397.705806429353
 30
0
  0
VERTEX
  5
103
  8
1
  6
BYLAYER
 62
  256
 10
874.4512957813037
 20
925.0286038983521
 30
0
  0
VERTEX
  5
104
  8
1
  6
BYLAYER
 62
  256
 10
712.8846598632556
 20
877.1026424252129
 30
0
  0
VERTEX
  5
105
  8
1
  6
BYLAYER
 62
  256
 10
532.4938000316865
 20
823.5927989524586
 30
0
  0
VERTEX
  5
106
  8
1
  6
BYLAYER
 62
  256
 10
529.9949201441149
 20
831.5118690089881
 30
0
  0
VERTEX
  5
107
  8
1
  6
BYLAYER
 62
  256
 10
528.9931335172115
 20
833.9152064593264
 30
0
  0
VERTEX
  5
108
  8
1
  6
BYLAYER
 62
  256
 10
527.8477797092105
 20
835.9728882944017
 30
0
  0
VERTEX
  5
109
  8
1
  6
BYLAYER
 62
  256
 10
526.5423405858131
 20
837.7831485826373
 30
0
  0
VERTEX
  5
10A
  8
1
  6
BYLAYER
 62
  256
 10
525.0723288004922
 20
839.3854586345366
 30
0
  0
VERTEX
  5
10B
  8
1
  6
BYLAYER
 62
  256
 10
523.4251681043844
 20
840.8108823335502
 30
0
  0
VERTEX
  5
10C
  8
1
  6
BYLAYER
 62
  256
 10
521.5858163660542
 20
842.079183973873
 30
0
  0
VERTEX
  5
10D
  8
1
  6
BYLAYER
 62
  256
 10
519.5422680776413
 20
843.1995205832925
 30
0
  0
VERTEX
  5
10E
  8
1
  6
BYLAYER
 62
  256
 10
517.2889447685982
 20
844.1736024838693
 30
0
  0
VERTEX
  5
10F
  8
1
  6
BYLAYER
 62
  256
 10
514.8275336901386
 20
844.999461701797
 30
0
  0
VERTEX
  5
110
  8
1
  6
BYLAYER
 62
  256
 10
512.1660332183446
 20
845.6744797877318
 30
0
  0
VERTEX
  5
111
  8
1
  6
BYLAYER
 62
  256
 10
509.3170555503922
 20
846.1972248225751
 30
0
  0
VERTEX
  5
112
  8
1
  6
BYLAYER
 62
  256
 10
506.2961398524384
 20
846.5682577112442
 30
0
  0
VERTEX
  5
113
  8
1
  6
BYLAYER
 62
  256
 10
503.1204195388378
 20
846.7902715871357
 30
0
  0
VERTEX
  5
114
  8
1
  6
BYLAYER
 62
  256
 10
499.807705769018
 20
846.8678902881691
 30
0
  0
VERTEX
  5
115
  8
1
  6
BYLAYER
 62
  256
 10
496.3759200361684
 20
846.8073408448114
 30
0
  0
VERTEX
  5
116
  8
1
  6
BYLAYER
 62
  256
 10
492.8427766517707
 20
846.6161157323459
 30
0
  0
VERTEX
  5
117
  8
1
  6
BYLAYER
 62
  256
 10
489.2413880827418
 20
846.3040412366092
 30
0
  0
VERTEX
  5
118
  8
1
  6
BYLAYER
 62
  256
 10
483.6907294040361
 20
845.6360902037158
 30
0
  0
VERTEX
  5
119
  8
1
  6
BYLAYER
 62
  256
 10
476.1385309936605
 20
844.3879075730172
 30
0
  0
VERTEX
  5
11A
  8
1
  6
BYLAYER
 62
  256
 10
468.557170471722
 20
842.8323309967004
 30
0
  0
VERTEX
  5
11B
  8
1
  6
BYLAYER
 62
  256
 10
461.0520484139973
 20
841.0526996354387
 30
0
  0
VERTEX
  5
11C
  8
1
  6
BYLAYER
 62
  256
 10
453.7478906113454
 20
839.1383939238111
 30
0
  0
VERTEX
  5
11D
  8
1
  6
BYLAYER
 62
  256
 10
443.3049399542114
 20
836.1821995576277
 30
0
  0
VERTEX
  5
11E
  8
1
  6
BYLAYER
 62
  256
 10
437.0897727817539
 20
834.3385771985694
 30
0
  0
VERTEX
  5
11F
  8
1
  6
BYLAYER
 62
  256
 10
434.5052505443128
 20
833.5508459739601
 30
0
  0
VERTEX
  5
120
  8
1
  6
BYLAYER
 62
  256
 10
429.1424452554174
 20
831.7166959947671
 30
0
  0
VERTEX
  5
121
  8
1
  6
BYLAYER
 62
  256
 10
423.6295893848781
 20
829.6173150200872
 30
0
  0
VERTEX
  5
122
  8
1
  6
BYLAYER
 62
  256
 10
417.9961928642825
 20
827.2829426149929
 30
0
  0
VERTEX
  5
123
  8
1
  6
BYLAYER
 62
  256
 10
412.2939494805518
 20
824.7527945759811
 30
0
  0
VERTEX
  5
124
  8
1
  6
BYLAYER
 62
  256
 10
406.5819596311571
 20
822.070622730983
 30
0
  0
VERTEX
  5
125
  8
1
  6
BYLAYER
 62
  256
 10
398.0521224440214
 20
817.8383653674077
 30
0
  0
VERTEX
  5
126
  8
1
  6
BYLAYER
 62
  256
 10
387.0645478554435
 20
811.9969168469424
 30
0
  0
VERTEX
  5
127
  8
1
  6
BYLAYER
 62
  256
 10
376.8603399863173
 20
806.2442163215882
 30
0
  0
VERTEX
  5
128
  8
1
  6
BYLAYER
 62
  256
 10
367.7975729965265
 20
800.8900038270222
 30
0
  0
VERTEX
  5
129
  8
1
  6
BYLAYER
 62
  256
 10
360.2339480850868
 20
796.2444239867348
 30
0
  0
VERTEX
  5
12A
  8
1
  6
BYLAYER
 62
  256
 10
351.310405820212
 20
790.6032379186813
 30
0
  0
VERTEX
  5
12B
  8
1
  6
BYLAYER
 62
  256
 10
276.6330435310289
 20
908.1223944976243
 30
0
  0
VERTEX
  5
12C
  8
1
  6
BYLAYER
 62
  256
 10
283.0878094673307
 20
912.3281583092028
 30
0
  0
VERTEX
  5
12D
  8
1
  6
BYLAYER
 62
  256
 10
284.3390711450339
 20
913.2489232111633
 30
0
  0
VERTEX
  5
12E
  8
1
  6
BYLAYER
 62
  256
 10
285.5268807097891
 20
914.253366497546
 30
0
  0
VERTEX
  5
12F
  8
1
  6
BYLAYER
 62
  256
 10
286.68258372399
 20
915.3703648457056
 30
0
  0
VERTEX
  5
130
  8
1
  6
BYLAYER
 62
  256
 10
287.8044778899995
 20
916.6052947099419
 30
0
  0
VERTEX
  5
131
  8
1
  6
BYLAYER
 62
  256
 10
288.8900016803466
 20
917.9634942167352
 30
0
  0
VERTEX
  5
132
  8
1
  6
BYLAYER
 62
  256
 10
289.9358034714027
 20
919.4500739550056
 30
0
  0
VERTEX
  5
133
  8
1
  6
BYLAYER
 62
  256
 10
290.9378545230732
 20
921.0697715892456
 30
0
  0
VERTEX
  5
134
  8
1
  6
BYLAYER
 62
  256
 10
291.8915865316052
 20
922.8268561440959
 30
0
  0
VERTEX
  5
135
  8
1
  6
BYLAYER
 62
  256
 10
292.7920358356469
 20
924.7250802328289
 30
0
  0
VERTEX
  5
136
  8
1
  6
BYLAYER
 62
  256
 10
293.6339801451937
 20
926.7676732040165
 30
0
  0
VERTEX
  5
137
  8
1
  6
BYLAYER
 62
  256
 10
294.412058430894
 20
928.9573654679443
 30
0
  0
VERTEX
  5
138
  8
1
  6
BYLAYER
 62
  256
 10
295.1208691844344
 20
931.2964337698502
 30
0
  0
VERTEX
  5
139
  8
1
  6
BYLAYER
 62
  256
 10
295.755045938944
 20
933.7867582057895
 30
0
  0
VERTEX
  5
13A
  8
1
  6
BYLAYER
 62
  256
 10
296.3093114697199
 20
936.4298836031477
 30
0
  0
VERTEX
  5
13B
  8
1
  6
BYLAYER
 62
  256
 10
296.7785135433087
 20
939.2270799313711
 30
0
  0
VERTEX
  5
13C
  8
1
  6
BYLAYER
 62
  256
 10
297.1576456733385
 20
942.1793982940676
 30
0
  0
VERTEX
  5
13D
  8
1
  6
BYLAYER
 62
  256
 10
297.4418563445257
 20
945.2877205932853
 30
0
  0
VERTEX
  5
13E
  8
1
  6
BYLAYER
 62
  256
 10
297.6264498245904
 20
948.5528020989651
 30
0
  0
VERTEX
  5
13F
  8
1
  6
BYLAYER
 62
  256
 10
297.7068811822903
 20
951.9753069309731
 30
0
  0
VERTEX
  5
140
  8
1
  6
BYLAYER
 62
  256
 10
297.6787475921126
 20
955.5558369352436
 30
0
  0
VERTEX
  5
141
  8
1
  6
BYLAYER
 62
  256
 10
297.5377775046203
 20
959.2949546856569
 30
0
  0
VERTEX
  5
142
  8
1
  6
BYLAYER
 62
  256
 10
297.2798188309663
 20
963.1932014388119
 30
0
  0
VERTEX
  5
143
  8
1
  6
BYLAYER
 62
  256
 10
296.9008269413579
 20
967.25111086586
 30
0
  0
VERTEX
  5
144
  8
1
  6
BYLAYER
 62
  256
 10
296.3968530070524
 20
971.4692193257034
 30
0
  0
VERTEX
  5
145
  8
1
  6
BYLAYER
 62
  256
 10
295.7640330137868
 20
975.8480733558879
 30
0
  0
VERTEX
  5
146
  8
1
  6
BYLAYER
 62
  256
 10
294.9985776290548
 20
980.3882349601954
 30
0
  0
VERTEX
  5
147
  8
1
  6
BYLAYER
 62
  256
 10
294.0967630042198
 20
985.0902851764962
 30
0
  0
VERTEX
  5
148
  8
1
  6
BYLAYER
 62
  256
 10
293.0549225243972
 20
989.9548263209936
 30
0
  0
VERTEX
  5
149
  8
1
  6
BYLAYER
 62
  256
 10
291.8694394754893
 20
994.9824832283367
 30
0
  0
VERTEX
  5
14A
  8
1
  6
BYLAYER
 62
  256
 10
290.5367405717489
 20
1000.173903741927
 30
0
  0
VERTEX
  5
14B
  8
1
  6
BYLAYER
 62
  256
 10
289.0505031724411
 20
1005.539821215141
 30
0
  0
VERTEX
  5
14C
  8
1
  6
BYLAYER
 62
  256
 10
288.2478212904199
 20
1008.275707150547
 30
0
  0
VERTEX
  5
14D
  8
1
  6
BYLAYER
 62
  256
 10
287.4288312084264
 20
1011.006755539147
 30
0
  0
VERTEX
  5
14E
  8
1
  6
BYLAYER
 62
  256
 10
285.7487141653591
 20
1016.31516195332
 30
0
  0
VERTEX
  5
14F
  8
1
  6
BYLAYER
 62
  256
 10
284.0350440423186
 20
1021.393573912423
 30
0
  0
VERTEX
  5
150
  8
1
  6
BYLAYER
 62
  256
 10
282.287268055456
 20
1026.254436298559
 30
0
  0
VERTEX
  5
151
  8
1
  6
BYLAYER
 62
  256
 10
280.5080282537496
 20
1030.90024062719
 30
0
  0
VERTEX
  5
152
  8
1
  6
BYLAYER
 62
  256
 10
278.7000156363492
 20
1035.333482807525
 30
0
  0
VERTEX
  5
153
  8
1
  6
BYLAYER
 62
  256
 10
276.8659753107432
 20
1039.556667082843
 30
0
  0
VERTEX
  5
154
  8
1
  6
BYLAYER
 62
  256
 10
275.0087119634028
 20
1043.572311068577
 30
0
  0
VERTEX
  5
155
  8
1
  6
BYLAYER
 62
  256
 10
273.1310955516951
 20
1047.382952132224
 30
0
  0
VERTEX
  5
156
  8
1
  6
BYLAYER
 62
  256
 10
271.2360670685177
 20
1050.991155399566
 30
0
  0
VERTEX
  5
157
  8
1
  6
BYLAYER
 62
  256
 10
269.3266441528122
 20
1054.399523712231
 30
0
  0
VERTEX
  5
158
  8
1
  6
BYLAYER
 62
  256
 10
267.4059262143878
 20
1057.610709897745
 30
0
  0
VERTEX
  5
159
  8
1
  6
BYLAYER
 62
  256
 10
265.4770986044246
 20
1060.627431737992
 30
0
  0
VERTEX
  5
15A
  8
1
  6
BYLAYER
 62
  256
 10
263.5434351879981
 20
1063.452490024185
 30
0
  0
VERTEX
  5
15B
  8
1
  6
BYLAYER
 62
  256
 10
261.6082984579412
 20
1066.088790050283
 30
0
  0
VERTEX
  5
15C
  8
1
  6
BYLAYER
 62
  256
 10
259.6751360702206
 20
1068.539366799567
 30
0
  0
VERTEX
  5
15D
  8
1
  6
BYLAYER
 62
  256
 10
257.7474723870434
 20
1070.807413891515
 30
0
  0
VERTEX
  5
15E
  8
1
  6
BYLAYER
 62
  256
 10
255.8288933051595
 20
1072.896316041221
 30
0
  0
VERTEX
  5
15F
  8
1
  6
BYLAYER
 62
  256
 10
253.9230223627755
 20
1074.809684300533
 30
0
  0
VERTEX
  5
160
  8
1
  6
BYLAYER
 62
  256
 10
252.0334859263201
 20
1076.551392659445
 30
0
  0
VERTEX
  5
161
  8
1
  6
BYLAYER
 62
  256
 10
250.1638652601868
 20
1078.125613663651
 30
0
  0
VERTEX
  5
162
  8
1
  6
BYLAYER
 62
  256
 10
248.3176336189605
 20
1079.536849560416
 30
0
  0
VERTEX
  5
163
  8
1
  6
BYLAYER
 62
  256
 10
246.4980773437385
 20
1080.789954195961
 30
0
  0
VERTEX
  5
164
  8
1
  6
BYLAYER
 62
  256
 10
244.7082014671986
 20
1081.890139628865
 30
0
  0
VERTEX
  5
165
  8
1
  6
BYLAYER
 62
  256
 10
242.9506226599481
 20
1082.842960500434
 30
0
  0
VERTEX
  5
166
  8
1
  6
BYLAYER
 62
  256
 10
241.2274554684201
 20
1083.65426905244
 30
0
  0
VERTEX
  5
167
  8
1
  6
BYLAYER
 62
  256
 10
239.5402014387876
 20
1084.330134826023
 30
0
  0
VERTEX
  5
168
  8
1
  6
BYLAYER
 62
  256
 10
237.8896542852752
 20
1084.87672598374
 30
0
  0
VERTEX
  5
169
  8
1
  6
BYLAYER
 62
  256
 10
236.2758367786701
 20
1085.300154070532
 30
0
  0
VERTEX
  5
16A
  8
1
  6
BYLAYER
 62
  256
 10
234.6979853183728
 20
1085.606290536935
 30
0
  0
VERTEX
  5
16B
  8
1
  6
BYLAYER
 62
  256
 10
233.1545951543616
 20
1085.80057043635
 30
0
  0
VERTEX
  5
16C
  8
1
  6
BYLAYER
 62
  256
 10
231.6036448243086
 20
1085.890107381127
 30
0
  0
VERTEX
  5
16D
  8
1
  6
BYLAYER
 62
  256
 10
223.8995927113627
 20
1085.89590153636
 30
0
  0
VERTEX
  5
16E
  8
1
  6
BYLAYER
 62
  256
 10
222.4164516821048
 20
1225.126863948402
 30
0
  0
VERTEX
  5
16F
  8
1
  6
BYLAYER
 62
  256
 10
232.9726714919164
 20
1225.264013991592
 30
0
  0
VERTEX
  5
170
  8
1
  6
BYLAYER
 62
  256
 10
241.8460504194582
 20
1225.494188407403
 30
0
  0
VERTEX
  5
171
  8
1
  6
BYLAYER
 62
  256
 10
252.3624929327858
 20
1225.94781139192
 30
0
  0
VERTEX
  5
172
  8
1
  6
BYLAYER
 62
  256
 10
264.0530385052622
 20
1226.689812597178
 30
0
  0
VERTEX
  5
173
  8
1
  6
BYLAYER
 62
  256
 10
276.4486345914348
 20
1227.784579159178
 30
0
  0
VERTEX
  5
174
  8
1
  6
BYLAYER
 62
  256
 10
285.9065627286828
 20
1228.888082752844
 30
0
  0
VERTEX
  5
175
  8
1
  6
BYLAYER
 62
  256
 10
292.1571900284711
 20
1229.754415370737
 30
0
  0
VERTEX
  5
176
  8
1
  6
BYLAYER
 62
  256
 10
298.3167509923757
 20
1230.742867412346
 30
0
  0
VERTEX
  5
177
  8
1
  6
BYLAYER
 62
  256
 10
304.3118474522689
 20
1231.857887286832
 30
0
  0
VERTEX
  5
178
  8
1
  6
BYLAYER
 62
  256
 10
310.0777632664442
 20
1233.104159789149
 30
0
  0
VERTEX
  5
179
  8
1
  6
BYLAYER
 62
  256
 10
315.5732725282584
 20
1234.490941915546
 30
0
  0
VERTEX
  5
17A
  8
1
  6
BYLAYER
 62
  256
 10
318.169287849274
 20
1235.239927984244
 30
0
  0
VERTEX
  5
17B
  8
1
  6
BYLAYER
 62
  256
 10
324.3844550217315
 20
1237.083550343302
 30
0
  0
VERTEX
  5
17C
  8
1
  6
BYLAYER
 62
  256
 10
334.7502329735419
 20
1240.299907135039
 30
0
  0
VERTEX
  5
17D
  8
1
  6
BYLAYER
 62
  256
 10
341.9167896652987
 20
1242.67808979149
 30
0
  0
VERTEX
  5
17E
  8
1
  6
BYLAYER
 62
  256
 10
349.1783687888096
 20
1245.278746154089
 30
0
  0
VERTEX
  5
17F
  8
1
  6
BYLAYER
 62
  256
 10
356.3816810468757
 20
1248.108788267059
 30
0
  0
VERTEX
  5
180
  8
1
  6
BYLAYER
 62
  256
 10
363.3929307314135
 20
1251.180601830791
 30
0
  0
VERTEX
  5
181
  8
1
  6
BYLAYER
 62
  256
 10
368.4099969714131
 20
1253.647384491118
 30
0
  0
VERTEX
  5
182
  8
1
  6
BYLAYER
 62
  256
 10
371.5990323335911
 20
1255.349572369938
 30
0
  0
VERTEX
  5
183
  8
1
  6
BYLAYER
 62
  256
 10
374.6649637368865
 20
1257.115849202327
 30
0
  0
VERTEX
  5
184
  8
1
  6
BYLAYER
 62
  256
 10
377.5746765100685
 20
1258.936396133572
 30
0
  0
VERTEX
  5
185
  8
1
  6
BYLAYER
 62
  256
 10
380.309236085873
 20
1260.807834379916
 30
0
  0
VERTEX
  5
186
  8
1
  6
BYLAYER
 62
  256
 10
382.8502242554056
 20
1262.725611424725
 30
0
  0
VERTEX
  5
187
  8
1
  6
BYLAYER
 62
  256
 10
385.1801894945333
 20
1264.683891037823
 30
0
  0
VERTEX
  5
188
  8
1
  6
BYLAYER
 62
  256
 10
387.2833011841747
 20
1266.675588139503
 30
0
  0
VERTEX
  5
189
  8
1
  6
BYLAYER
 62
  256
 10
389.1462277575525
 20
1268.692699628712
 30
0
  0
VERTEX
  5
18A
  8
1
  6
BYLAYER
 62
  256
 10
390.7591778388191
 20
1270.727147952053
 30
0
  0
VERTEX
  5
18B
  8
1
  6
BYLAYER
 62
  256
 10
392.1168745874638
 20
1272.772376795686
 30
0
  0
VERTEX
  5
18C
  8
1
  6
BYLAYER
 62
  256
 10
393.2189767716545
 20
1274.825816471226
 30
0
  0
VERTEX
  5
18D
  8
1
  6
BYLAYER
 62
  256
 10
394.0692279334346
 20
1276.891942515308
 30
0
  0
VERTEX
  5
18E
  8
1
  6
BYLAYER
 62
  256
 10
394.6726985023394
 20
1278.984977238618
 30
0
  0
VERTEX
  5
18F
  8
1
  6
BYLAYER
 62
  256
 10
395.0312203719613
 20
1281.129690324418
 30
0
  0
VERTEX
  5
190
  8
1
  6
BYLAYER
 62
  256
 10
395.138396907999
 20
1283.358978732449
 30
0
  0
VERTEX
  5
191
  8
1
  6
BYLAYER
 62
  256
 10
394.9764665029438
 20
1285.708376192186
 30
0
  0
VERTEX
  5
192
  8
1
  6
BYLAYER
 62
  256
 10
394.5057098911239
 20
1288.269234555795
 30
0
  0
VERTEX
  5
193
  8
1
  6
BYLAYER
 62
  256
 10
392.2822441679957
 20
1296.27000148346
 30
0
  0
VERTEX
  5
194
  8
1
  6
BYLAYER
 62
  256
 10
572.6731039995648
 20
1349.779844956214
 30
0
  0
VERTEX
  5
195
  8
1
  6
BYLAYER
 62
  256
 10
734.2397399176131
 20
1397.705806429353
 30
0
  0
SEQEND
  5
196
  8
1
  6
BYLAYER
 62
  256
  0
POLYLINE
  5
197
  8
8
  6
BYLAYER
 62
  256
 66
    1
 10
0
 20
0
 30
0
 70
    1
  0
VERTEX
  5
198
  8
8
  6
BYLAYER
 62
  256
 10
865.7496302614206
 20
929.7488811338625
 30
0
  0
VERTEX
  5
199
  8
8
  6
BYLAYER
 62
  256
 10
710.8939657210691
 20
883.8136138029097
 30
0
  0
VERTEX
  5
19A
  8
8
  6
BYLAYER
 62
  256
 10
537.0989812426607
 20
832.2603232178293
 30
0
  0
VERTEX
  5
19B
  8
8
  6
BYLAYER
 62
  256
 10
536.5763699700691
 20
833.9165033730129
 30
0
  0
VERTEX
  5
19C
  8
8
  6
BYLAYER
 62
  256
 10
535.3019886757593
 20
836.9738093984417
 30
0
  0
VERTEX
  5
19D
  8
8
  6
BYLAYER
 62
  256
 10
533.7649634916108
 20
839.7351472308056
 30
0
  0
VERTEX
  5
19E
  8
8
  6
BYLAYER
 62
  256
 10
531.9790128721949
 20
842.2117357021739
 30
0
  0
VERTEX
  5
19F
  8
8
  6
BYLAYER
 62
  256
 10
529.9578552720822
 20
844.4147936446145
 30
0
  0
VERTEX
  5
1A0
  8
8
  6
BYLAYER
 62
  256
 10
527.7152091458433
 20
846.3555398901967
 30
0
  0
VERTEX
  5
1A1
  8
8
  6
BYLAYER
 62
  256
 10
525.2647929480496
 20
848.0451932709891
 30
0
  0
VERTEX
  5
1A2
  8
8
  6
BYLAYER
 62
  256
 10
522.6203251332715
 20
849.4949726190603
 30
0
  0
VERTEX
  5
1A3
  8
8
  6
BYLAYER
 62
  256
 10
519.7955241560801
 20
850.7160967664788
 30
0
  0
VERTEX
  5
1A4
  8
8
  6
BYLAYER
 62
  256
 10
516.8041084710462
 20
851.7197845453139
 30
0
  0
VERTEX
  5
1A5
  8
8
  6
BYLAYER
 62
  256
 10
513.6597965327405
 20
852.5172547876341
 30
0
  0
VERTEX
  5
1A6
  8
8
  6
BYLAYER
 62
  256
 10
510.3763067957342
 20
853.1197263255078
 30
0
  0
VERTEX
  5
1A7
  8
8
  6
BYLAYER
 62
  256
 10
506.9673577145979
 20
853.5384179910039
 30
0
  0
VERTEX
  5
1A8
  8
8
  6
BYLAYER
 62
  256
 10
503.4466677439025
 20
853.7845486161913
 30
0
  0
VERTEX
  5
1A9
  8
8
  6
BYLAYER
 62
  256
 10
499.8279553382187
 20
853.8693370331384
 30
0
  0
VERTEX
  5
1AA
  8
8
  6
BYLAYER
 62
  256
 10
496.1249389521177
 20
853.804002073914
 30
0
  0
VERTEX
  5
1AB
  8
8
  6
BYLAYER
 62
  256
 10
492.3513370401703
 20
853.599762570587
 30
0
  0
VERTEX
  5
1AC
  8
8
  6
BYLAYER
 62
  256
 10
488.520868056947
 20
853.2678373552261
 30
0
  0
VERTEX
  5
1AD
  8
8
  6
BYLAYER
 62
  256
 10
482.7013693097
 20
852.5675348462537
 30
0
  0
VERTEX
  5
1AE
  8
8
  6
BYLAYER
 62
  256
 10
474.8638503704498
 20
851.2721961281524
 30
0
  0
VERTEX
  5
1AF
  8
8
  6
BYLAYER
 62
  256
 10
467.0457953283723
 20
849.6680535391516
 30
0
  0
VERTEX
  5
1B0
  8
8
  6
BYLAYER
 62
  256
 10
459.3569518200343
 20
847.8448577358016
 30
0
  0
VERTEX
  5
1B1
  8
8
  6
BYLAYER
 62
  256
 10
451.9070674820027
 20
845.8923593746517
 30
0
  0
VERTEX
  5
1B2
  8
8
  6
BYLAYER
 62
  256
 10
441.3561963415544
 20
842.9056148378082
 30
0
  0
VERTEX
  5
1B3
  8
8
  6
BYLAYER
 62
  256
 10
435.0739833677463
 20
841.0421044958495
 30
0
  0
VERTEX
  5
1B4
  8
8
  6
BYLAYER
 62
  256
 10
432.3515912207138
 20
840.2123521846554
 30
0
  0
VERTEX
  5
1B5
  8
8
  6
BYLAYER
 62
  256
 10
426.7635184368791
 20
838.3011577578461
 30
0
  0
VERTEX
  5
1B6
  8
8
  6
BYLAYER
 62
  256
 10
421.0435996399591
 20
836.1229240109528
 30
0
  0
VERTEX
  5
1B7
  8
8
  6
BYLAYER
 62
  256
 10
415.2363905795527
 20
833.7165269942213
 30
0
  0
VERTEX
  5
1B8
  8
8
  6
BYLAYER
 62
  256
 10
409.3864470052586
 20
831.120842757898
 30
0
  0
VERTEX
  5
1B9
  8
8
  6
BYLAYER
 62
  256
 10
403.5383246666755
 20
828.3747473522288
 30
0
  0
VERTEX
  5
1BA
  8
8
  6
BYLAYER
 62
  256
 10
394.8528703517924
 20
824.0652772915812
 30
0
  0
VERTEX
  5
1BB
  8
8
  6
BYLAYER
 62
  256
 10
383.7022220840758
 20
818.1371320671207
 30
0
  0
VERTEX
  5
1BC
  8
8
  6
BYLAYER
 62
  256
 10
373.3608622519791
 20
812.3071110697068
 30
0
  0
VERTEX
  5
1BD
  8
8
  6
BYLAYER
 62
  256
 10
364.1852368522919
 20
806.8862227013084
 30
0
  0
VERTEX
  5
1BE
  8
8
  6
BYLAYER
 62
  256
 10
356.5317918818034
 20
802.1854753638942
 30
0
  0
VERTEX
  5
1BF
  8
8
  6
BYLAYER
 62
  256
 10
353.4729784908547
 20
800.2517886088355
 30
0
  0
VERTEX
  5
1C0
  8
8
  6
BYLAYER
 62
  256
 10
286.2528290649013
 20
906.0355900647262
 30
0
  0
VERTEX
  5
1C1
  8
8
  6
BYLAYER
 62
  256
 10
287.0761618191643
 20
906.5720530653891
 30
0
  0
VERTEX
  5
1C2
  8
8
  6
BYLAYER
 62
  256
 10
288.6784150329158
 20
907.7511018203897
 30
0
  0
VERTEX
  5
1C3
  8
8
  6
BYLAYER
 62
  256
 10
290.2244095261275
 20
909.0584357866817
 30
0
  0
VERTEX
  5
1C4
  8
8
  6
BYLAYER
 62
  256
 10
291.7108520023438
 20
910.4950970830234
 30
0
  0
VERTEX
  5
1C5
  8
8
  6
BYLAYER
 62
  256
 10
293.1344491651089
 20
912.0621278281729
 30
0
  0
VERTEX
  5
1C6
  8
8
  6
BYLAYER
 62
  256
 10
294.4919077179673
 20
913.7605701408886
 30
0
  0
VERTEX
  5
1C7
  8
8
  6
BYLAYER
 62
  256
 10
295.7799343644633
 20
915.5914661399281
 30
0
  0
VERTEX
  5
1C8
  8
8
  6
BYLAYER
 62
  256
 10
296.9952358081412
 20
917.5558579440502
 30
0
  0
VERTEX
  5
1C9
  8
8
  6
BYLAYER
 62
  256
 10
298.1345187525454
 20
919.6547876720128
 30
0
  0
VERTEX
  5
1CA
  8
8
  6
BYLAYER
 62
  256
 10
299.1944899012202
 20
921.8892974425742
 30
0
  0
VERTEX
  5
1CB
  8
8
  6
BYLAYER
 62
  256
 10
300.1718559577099
 20
924.2604293744923
 30
0
  0
VERTEX
  5
1CC
  8
8
  6
BYLAYER
 62
  256
 10
301.0633236255588
 20
926.7692255865257
 30
0
  0
VERTEX
  5
1CD
  8
8
  6
BYLAYER
 62
  256
 10
301.8655996083113
 20
929.4167281974323
 30
0
  0
VERTEX
  5
1CE
  8
8
  6
BYLAYER
 62
  256
 10
302.5753906095117
 20
932.2039793259705
 30
0
  0
VERTEX
  5
1CF
  8
8
  6
BYLAYER
 62
  256
 10
303.1894033327045
 20
935.132021090898
 30
0
  0
VERTEX
  5
1D0
  8
8
  6
BYLAYER
 62
  256
 10
303.7043444814337
 20
938.2018956109735
 30
0
  0
VERTEX
  5
1D1
  8
8
  6
BYLAYER
 62
  256
 10
304.116920759244
 20
941.4146450049549
 30
0
  0
VERTEX
  5
1D2
  8
8
  6
BYLAYER
 62
  256
 10
304.4238388696794
 20
944.7713113916005
 30
0
  0
VERTEX
  5
1D3
  8
8
  6
BYLAYER
 62
  256
 10
304.6218055162845
 20
948.2729368896684
 30
0
  0
VERTEX
  5
1D4
  8
8
  6
BYLAYER
 62
  256
 10
304.7075274026035
 20
951.9205636179167
 30
0
  0
VERTEX
  5
1D5
  8
8
  6
BYLAYER
 62
  256
 10
304.6777112321807
 20
955.7152336951038
 30
0
  0
VERTEX
  5
1D6
  8
8
  6
BYLAYER
 62
  256
 10
304.5290637085605
 20
959.6579892399877
 30
0
  0
VERTEX
  5
1D7
  8
8
  6
BYLAYER
 62
  256
 10
304.2582915352872
 20
963.7498723713268
 30
0
  0
VERTEX
  5
1D8
  8
8
  6
BYLAYER
 62
  256
 10
303.8621014159052
 20
967.9919252078789
 30
0
  0
VERTEX
  5
1D9
  8
8
  6
BYLAYER
 62
  256
 10
303.3372000539588
 20
972.3851898684023
 30
0
  0
VERTEX
  5
1DA
  8
8
  6
BYLAYER
 62
  256
 10
302.6802941529923
 20
976.9307084716556
 30
0
  0
VERTEX
  5
1DB
  8
8
  6
BYLAYER
 62
  256
 10
301.88809041655
 20
981.6295231363965
 30
0
  0
VERTEX
  5
1DC
  8
8
  6
BYLAYER
 62
  256
 10
300.9572955481764
 20
986.4826759813833
 30
0
  0
VERTEX
  5
1DD
  8
8
  6
BYLAYER
 62
  256
 10
299.8846162514157
 20
991.4912091253742
 30
0
  0
VERTEX
  5
1DE
  8
8
  6
BYLAYER
 62
  256
 10
298.6667592298122
 20
996.6561646871276
 30
0
  0
VERTEX
  5
1DF
  8
8
  6
BYLAYER
 62
  256
 10
297.3004311869103
 20
1001.978584785401
 30
0
  0
VERTEX
  5
1E0
  8
8
  6
BYLAYER
 62
  256
 10
295.7823388262542
 20
1007.459511538954
 30
0
  0
VERTEX
  5
1E1
  8
8
  6
BYLAYER
 62
  256
 10
294.9588225273579
 20
1010.266410149963
 30
0
  0
VERTEX
  5
1E2
  8
8
  6
BYLAYER
 62
  256
 10
294.1185747327299
 20
1013.068345650766
 30
0
  0
VERTEX
  5
1E3
  8
8
  6
BYLAYER
 62
  256
 10
292.4024472491419
 20
1018.490528693911
 30
0
  0
VERTEX
  5
1E4
  8
8
  6
BYLAYER
 62
  256
 10
290.6455346120701
 20
1023.697088595518
 30
0
  0
VERTEX
  5
1E5
  8
8
  6
BYLAYER
 62
  256
 10
288.8500291767529
 20
1028.690694698496
 30
0
  0
VERTEX
  5
1E6
  8
8
  6
BYLAYER
 62
  256
 10
287.0181232984286
 20
1033.474016345753
 30
0
  0
VERTEX
  5
1E7
  8
8
  6
BYLAYER
 62
  256
 10
285.1520093323358
 20
1038.049722880196
 30
0
  0
VERTEX
  5
1E8
  8
8
  6
BYLAYER
 62
  256
 10
283.2538796337128
 20
1042.420483644734
 30
0
  0
VERTEX
  5
1E9
  8
8
  6
BYLAYER
 62
  256
 10
281.325926557798
 20
1046.588967982274
 30
0
  0
VERTEX
  5
1EA
  8
8
  6
BYLAYER
 62
  256
 10
279.3703424598299
 20
1050.557845235724
 30
0
  0
VERTEX
  5
1EB
  8
8
  6
BYLAYER
 62
  256
 10
277.389319695047
 20
1054.329784747992
 30
0
  0
VERTEX
  5
1EC
  8
8
  6
BYLAYER
 62
  256
 10
275.3850506186874
 20
1057.907455861985
 30
0
  0
VERTEX
  5
1ED
  8
8
  6
BYLAYER
 62
  256
 10
273.3597275859898
 20
1061.293527920613
 30
0
  0
VERTEX
  5
1EE
  8
8
  6
BYLAYER
 62
  256
 10
271.3155429521925
 20
1064.490670266782
 30
0
  0
VERTEX
  5
1EF
  8
8
  6
BYLAYER
 62
  256
 10
269.254689072534
 20
1067.501552243399
 30
0
  0
VERTEX
  5
1F0
  8
8
  6
BYLAYER
 62
  256
 10
267.1793583022526
 20
1070.328843193374
 30
0
  0
VERTEX
  5
1F1
  8
8
  6
BYLAYER
 62
  256
 10
265.0917429965868
 20
1072.975212459614
 30
0
  0
VERTEX
  5
1F2
  8
8
  6
BYLAYER
 62
  256
 10
262.994035510775
 20
1075.443329385027
 30
0
  0
VERTEX
  5
1F3
  8
8
  6
BYLAYER
 62
  256
 10
260.8884282000556
 20
1077.73586331252
 30
0
  0
VERTEX
  5
1F4
  8
8
  6
BYLAYER
 62
  256
 10
258.777113419667
 20
1079.855483585002
 30
0
  0
VERTEX
  5
1F5
  8
8
  6
BYLAYER
 62
  256
 10
256.6622835248476
 20
1081.80485954538
 30
0
  0
VERTEX
  5
1F6
  8
8
  6
BYLAYER
 62
  256
 10
254.546130870836
 20
1083.586660536562
 30
0
  0
VERTEX
  5
1F7
  8
8
  6
BYLAYER
 62
  256
 10
252.4308478128704
 20
1085.203555901456
 30
0
  0
VERTEX
  5
1F8
  8
8
  6
BYLAYER
 62
  256
 10
250.3186267061892
 20
1086.658214982971
 30
0
  0
VERTEX
  5
1F9
  8
8
  6
BYLAYER
 62
  256
 10
248.211659906031
 20
1087.953307124013
 30
0
  0
VERTEX
  5
1FA
  8
8
  6
BYLAYER
 62
  256
 10
246.1121397676341
 20
1089.09150166749
 30
0
  0
VERTEX
  5
1FB
  8
8
  6
BYLAYER
 62
  256
 10
244.022258646237
 20
1090.07546795631
 30
0
  0
VERTEX
  5
1FC
  8
8
  6
BYLAYER
 62
  256
 10
241.9442088970779
 20
1090.907875333382
 30
0
  0
VERTEX
  5
1FD
  8
8
  6
BYLAYER
 62
  256
 10
239.8801828753955
 20
1091.591393141613
 30
0
  0
VERTEX
  5
1FE
  8
8
  6
BYLAYER
 62
  256
 10
237.832372936428
 20
1092.12869072391
 30
0
  0
VERTEX
  5
1FF
  8
8
  6
BYLAYER
 62
  256
 10
235.802971435414
 20
1092.522437423183
 30
0
  0
VERTEX
  5
200
  8
8
  6
BYLAYER
 62
  256
 10
233.7941707275917
 20
1092.775302582338
 30
0
  0
VERTEX
  5
201
  8
8
  6
BYLAYER
 62
  256
 10
231.8081631681997
 20
1092.889955544283
 30
0
  0
VERTEX
  5
202
  8
8
  6
BYLAYER
 62
  256
 10
230.8254786668974
 20
1092.890694613342
 30
0
  0
VERTEX
  5
203
  8
8
  6
BYLAYER
 62
  256
 10
229.4904427396721
 20
1218.218180897796
 30
0
  0
VERTEX
  5
204
  8
8
  6
BYLAYER
 62
  256
 10
233.1089056273472
 20
1218.265193213783
 30
0
  0
VERTEX
  5
205
  8
8
  6
BYLAYER
 62
  256
 10
242.0876582914989
 20
1218.498101012047
 30
0
  0
VERTEX
  5
206
  8
8
  6
BYLAYER
 62
  256
 10
252.7350617995381
 20
1218.957372952207
 30
0
  0
VERTEX
  5
207
  8
8
  6
BYLAYER
 62
  256
 10
264.5827367929381
 20
1219.709347192426
 30
0
  0
VERTEX
  5
208
  8
8
  6
BYLAYER
 62
  256
 10
277.1623039131722
 20
1220.820361890866
 30
0
  0
VERTEX
  5
209
  8
8
  6
BYLAYER
 62
  256
 10
286.7927811365128
 20
1221.943997646018
 30
0
  0
VERTEX
  5
20A
  8
8
  6
BYLAYER
 62
  256
 10
293.1923781431365
 20
1222.830977362182
 30
0
  0
VERTEX
  5
20B
  8
8
  6
BYLAYER
 62
  256
 10
299.5114847922973
 20
1223.845032406869
 30
0
  0
VERTEX
  5
20C
  8
8
  6
BYLAYER
 62
  256
 10
305.6915536641794
 20
1224.994455049848
 30
0
  0
VERTEX
  5
20D
  8
8
  6
BYLAYER
 62
  256
 10
311.6740373389671
 20
1226.28753756089
 30
0
  0
VERTEX
  5
20E
  8
8
  6
BYLAYER
 62
  256
 10
317.4003883968443
 20
1227.732572209765
 30
0
  0
VERTEX
  5
20F
  8
8
  6
BYLAYER
 62
  256
 10
320.1348867196394
 20
1228.52151252613
 30
0
  0
VERTEX
  5
210
  8
8
  6
BYLAYER
 62
  256
 10
326.4170996934475
 20
1230.385022868089
 30
0
  0
VERTEX
  5
211
  8
8
  6
BYLAYER
 62
  256
 10
336.8900006034349
 20
1233.634618424508
 30
0
  0
VERTEX
  5
212
  8
8
  6
BYLAYER
 62
  256
 10
344.1995385266367
 20
1236.060248620893
 30
0
  0
VERTEX
  5
213
  8
8
  6
BYLAYER
 62
  256
 10
351.6388772974995
 20
1238.724567686884
 30
0
  0
VERTEX
  5
214
  8
8
  6
BYLAYER
 62
  256
 10
359.0670811872722
 20
1241.64296537376
 30
0
  0
VERTEX
  5
215
  8
8
  6
BYLAYER
 62
  256
 10
366.3432144672033
 20
1244.830831432803
 30
0
  0
VERTEX
  5
216
  8
8
  6
BYLAYER
 62
  256
 10
371.6032768108928
 20
1247.417090007227
 30
0
  0
VERTEX
  5
217
  8
8
  6
BYLAYER
 62
  256
 10
374.995163247773
 20
1249.227552207698
 30
0
  0
VERTEX
  5
218
  8
8
  6
BYLAYER
 62
  256
 10
378.2697556847703
 20
1251.114038236306
 30
0
  0
VERTEX
  5
219
  8
8
  6
BYLAYER
 62
  256
 10
381.4094371557908
 20
1253.078471811961
 30
0
  0
VERTEX
  5
21A
  8
8
  6
BYLAYER
 62
  256
 10
384.3965906947406
 20
1255.122776653573
 30
0
  0
VERTEX
  5
21B
  8
8
  6
BYLAYER
 62
  256
 10
387.2135993355256
 20
1257.248876480052
 30
0
  0
VERTEX
  5
21C
  8
8
  6
BYLAYER
 62
  256
 10
389.8428461120521
 20
1259.458695010307
 30
0
  0
VERTEX
  5
21D
  8
8
  6
BYLAYER
 62
  256
 10
392.2667140582263
 20
1261.75415596325
 30
0
  0
VERTEX
  5
21E
  8
8
  6
BYLAYER
 62
  256
 10
394.467586207954
 20
1264.137183057789
 30
0
  0
VERTEX
  5
21F
  8
8
  6
BYLAYER
 62
  256
 10
396.4278455951415
 20
1266.609700012836
 30
0
  0
VERTEX
  5
220
  8
8
  6
BYLAYER
 62
  256
 10
398.1298752536949
 20
1269.1736305473
 30
0
  0
VERTEX
  5
221
  8
8
  6
BYLAYER
 62
  256
 10
399.55605821752
 20
1271.830898380091
 30
0
  0
VERTEX
  5
222
  8
8
  6
BYLAYER
 62
  256
 10
400.6887775205234
 20
1274.583427230119
 30
0
  0
VERTEX
  5
223
  8
8
  6
BYLAYER
 62
  256
 10
401.5104161966108
 20
1277.433140816294
 30
0
  0
VERTEX
  5
224
  8
8
  6
BYLAYER
 62
  256
 10
402.0033572796884
 20
1280.381962857527
 30
0
  0
VERTEX
  5
225
  8
8
  6
BYLAYER
 62
  256
 10
402.1499838036624
 20
1283.431817072726
 30
0
  0
VERTEX
  5
226
  8
8
  6
BYLAYER
 62
  256
 10
401.9326788024388
 20
1286.584627180804
 30
0
  0
VERTEX
  5
227
  8
8
  6
BYLAYER
 62
  256
 10
401.3338253099237
 20
1289.842316900669
 30
0
  0
VERTEX
  5
228
  8
8
  6
BYLAYER
 62
  256
 10
400.8688136633428
 20
1291.515582993437
 30
0
  0
VERTEX
  5
229
  8
8
  6
BYLAYER
 62
  256
 10
574.6637981417512
 20
1343.068873578517
 30
0
  0
VERTEX
  5
22A
  8
8
  6
BYLAYER
 62
  256
 10
729.5194626821026
 20
1389.00414090947
 30
0
  0
SEQEND
  5
22B
  8
8
  6
BYLAYER
 62
  256
  0
POLYLINE
  5
22C
  8
8
  6
BYLAYER
 62
  256
 66
    1
 10
0
 20
0
 30
0
 70
    0
  0
VERTEX
  5
22D
  8
8
  6
BYLAYER
 62
  256
 10
236.9110074663118
 20
1001.326877847959
 30
0
  0
VERTEX
  5
22E
  8
8
  6
BYLAYER
 62
  256
 10
379.179213206992
 20
1243.601787437184
 30
0
  0
VERTEX
  5
22F
  8
8
  6
BYLAYER
 62
  256
 10
380.3147691890122
 20
1243.925861491051
 30
0
  0
VERTEX
  5
230
  8
8
  6
BYLAYER
 62
  256
 10
382.610183134061
 20
1244.386614862894
 30
0
  0
VERTEX
  5
231
  8
8
  6
BYLAYER
 62
  256
 10
384.9319564971389
 20
1244.643532603634
 30
0
  0
VERTEX
  5
232
  8
8
  6
BYLAYER
 62
  256
 10
387.2769748791561
 20
1244.719990326565
 30
0
  0
VERTEX
  5
233
  8
8
  6
BYLAYER
 62
  256
 10
389.6421238810224
 20
1244.639363644983
 30
0
  0
VERTEX
  5
234
  8
8
  6
BYLAYER
 62
  256
 10
392.0242891036482
 20
1244.425028172181
 30
0
  0
VERTEX
  5
235
  8
8
  6
BYLAYER
 62
  256
 10
395.6214758256225
 20
1243.913363853271
 30
0
  0
VERTEX
  5
236
  8
8
  6
BYLAYER
 62
  256
 10
402.8711741206621
 20
1242.435845208508
 30
0
  0
VERTEX
  5
237
  8
8
  6
BYLAYER
 62
  256
 10
410.119742673353
 20
1240.906897382759
 30
0
  0
VERTEX
  5
238
  8
8
  6
BYLAYER
 62
  256
 10
413.7156301916262
 20
1240.336089505716
 30
0
  0
VERTEX
  5
239
  8
8
  6
BYLAYER
 62
  256
 10
416.0966656719034
 20
1240.070324851929
 30
0
  0
VERTEX
  5
23A
  8
8
  6
BYLAYER
 62
  256
 10
417.2801289414919
 20
1239.987894772407
 30
0
  0
VERTEX
  5
23B
  8
8
  6
BYLAYER
 62
  256
 10
424.6977674318861
 20
1239.480239413129
 30
0
  0
VERTEX
  5
23C
  8
8
  6
BYLAYER
 62
  256
 10
439.6907934401899
 20
1238.181872038996
 30
0
  0
VERTEX
  5
23D
  8
8
  6
BYLAYER
 62
  256
 10
450.9803707479799
 20
1237.374843037812
 30
0
  0
VERTEX
  5
23E
  8
8
  6
BYLAYER
 62
  256
 10
458.4935786197993
 20
1237.058536246863
 30
0
  0
VERTEX
  5
23F
  8
8
  6
BYLAYER
 62
  256
 10
465.9760386193641
 20
1237.023515344806
 30
0
  0
VERTEX
  5
240
  8
8
  6
BYLAYER
 62
  256
 10
471.554829310128
 20
1237.246522238655
 30
0
  0
VERTEX
  5
241
  8
8
  6
BYLAYER
 62
  256
 10
475.255976767527
 20
1237.519816949693
 30
0
  0
VERTEX
  5
242
  8
8
  6
BYLAYER
 62
  256
 10
477.0991867479752
 20
1237.705281545292
 30
0
  0
VERTEX
  5
243
  8
8
  6
BYLAYER
 62
  256
 10
492.4751230288106
 20
1239.273696931374
 30
0
  0
VERTEX
  5
244
  8
8
  6
BYLAYER
 62
  256
 10
515.8565368870343
 20
1241.653313370073
 30
0
  0
VERTEX
  5
245
  8
8
  6
BYLAYER
 62
  256
 10
527.5686987026278
 20
1243.024583142497
 30
0
  0
VERTEX
  5
246
  8
8
  6
BYLAYER
 62
  256
 10
535.3627116438331
 20
1244.044061228455
 30
0
  0
VERTEX
  5
247
  8
8
  6
BYLAYER
 62
  256
 10
543.1325797642971
 20
1245.176020625888
 30
0
  0
VERTEX
  5
248
  8
8
  6
BYLAYER
 62
  256
 10
550.8670438466797
 20
1246.441205302031
 30
0
  0
VERTEX
  5
249
  8
8
  6
BYLAYER
 62
  256
 10
558.5548446736412
 20
1247.86035922412
 30
0
  0
VERTEX
  5
24A
  8
8
  6
BYLAYER
 62
  256
 10
566.1847230278415
 20
1249.454226359391
 30
0
  0
VERTEX
  5
24B
  8
8
  6
BYLAYER
 62
  256
 10
573.7454196919408
 20
1251.243550675078
 30
0
  0
VERTEX
  5
24C
  8
8
  6
BYLAYER
 62
  256
 10
581.2256754485994
 20
1253.249076138419
 30
0
  0
VERTEX
  5
24D
  8
8
  6
BYLAYER
 62
  256
 10
588.6142310804773
 20
1255.491546716648
 30
0
  0
VERTEX
  5
24E
  8
8
  6
BYLAYER
 62
  256
 10
595.8998273702347
 20
1257.991706377001
 30
0
  0
VERTEX
  5
24F
  8
8
  6
BYLAYER
 62
  256
 10
599.4955035827271
 20
1259.356935645776
 30
0
  0
VERTEX
  5
250
  8
8
  6
BYLAYER
 62
  256
 10
601.2548227465521
 20
1260.071408053697
 30
0
  0
VERTEX
  5
251
  8
8
  6
BYLAYER
 62
  256
 10
604.6261761306166
 20
1261.753384496446
 30
0
  0
VERTEX
  5
252
  8
8
  6
BYLAYER
 62
  256
 10
607.8355794454822
 20
1263.712258280829
 30
0
  0
VERTEX
  5
253
  8
8
  6
BYLAYER
 62
  256
 10
610.8994680945966
 20
1265.918317617228
 30
0
  0
VERTEX
  5
254
  8
8
  6
BYLAYER
 62
  256
 10
613.8342774814072
 20
1268.341850716024
 30
0
  0
VERTEX
  5
255
  8
8
  6
BYLAYER
 62
  256
 10
616.6564430093629
 20
1270.953145787599
 30
0
  0
VERTEX
  5
256
  8
8
  6
BYLAYER
 62
  256
 10
619.3824000819108
 20
1273.722491042335
 30
0
  0
VERTEX
  5
257
  8
8
  6
BYLAYER
 62
  256
 10
622.0285841024993
 20
1276.620174690612
 30
0
  0
VERTEX
  5
258
  8
8
  6
BYLAYER
 62
  256
 10
625.8890736739174
 20
1281.135582746193
 30
0
  0
VERTEX
  5
259
  8
8
  6
BYLAYER
 62
  256
 10
630.900028244712
 20
1287.344438928579
 30
0
  0
VERTEX
  5
25A
  8
8
  6
BYLAYER
 62
  256
 10
635.8877278697306
 20
1293.531836472002
 30
0
  0
VERTEX
  5
25B
  8
8
  6
BYLAYER
 62
  256
 10
639.6988006813756
 20
1298.001644919786
 30
0
  0
VERTEX
  5
25C
  8
8
  6
BYLAYER
 62
  256
 10
642.2984748104125
 20
1300.856411290137
 30
0
  0
VERTEX
  5
25D
  8
8
  6
BYLAYER
 62
  256
 10
643.6260210577339
 20
1302.22708758612
 30
0
  0
VERTEX
  5
25E
  8
8
  6
BYLAYER
 62
  256
 10
645.2615504435714
 20
1303.918794083324
 30
0
  0
VERTEX
  5
25F
  8
8
  6
BYLAYER
 62
  256
 10
648.4406633704609
 20
1307.428526570136
 30
0
  0
VERTEX
  5
260
  8
8
  6
BYLAYER
 62
  256
 10
653.0869824573263
 20
1312.866080713019
 30
0
  0
VERTEX
  5
261
  8
8
  6
BYLAYER
 62
  256
 10
657.7071203765921
 20
1318.356773845869
 30
0
  0
VERTEX
  5
262
  8
8
  6
BYLAYER
 62
  256
 10
660.8443434353228
 20
1321.951528716628
 30
0
  0
VERTEX
  5
263
  8
8
  6
BYLAYER
 62
  256
 10
664.0751175131631
 20
1325.431781063688
 30
0
  0
VERTEX
  5
264
  8
8
  6
BYLAYER
 62
  256
 10
667.4410520045732
 20
1328.743227639173
 30
0
  0
VERTEX
  5
265
  8
8
  6
BYLAYER
 62
  256
 10
669.195939612188
 20
1330.308251470806
 30
0
  0
VERTEX
  5
266
  8
8
  6
BYLAYER
 62
  256
 10
673.1723899234498
 20
1333.758576238668
 30
0
  0
VERTEX
  5
267
  8
8
  6
BYLAYER
 62
  256
 10
681.2473688939036
 20
1340.60671696544
 30
0
  0
VERTEX
  5
268
  8
8
  6
BYLAYER
 62
  256
 10
689.4516464679778
 20
1347.381105778739
 30
0
  0
VERTEX
  5
269
  8
8
  6
BYLAYER
 62
  256
 10
697.7661166302335
 20
1354.069807853309
 30
0
  0
VERTEX
  5
26A
  8
8
  6
BYLAYER
 62
  256
 10
706.171673365231
 20
1360.660888363894
 30
0
  0
VERTEX
  5
26B
  8
8
  6
BYLAYER
 62
  256
 10
714.6492106575315
 20
1367.142412485239
 30
0
  0
VERTEX
  5
26C
  8
8
  6
BYLAYER
 62
  256
 10
723.1796224916955
 20
1373.50244539209
 30
0
  0
VERTEX
  5
26D
  8
8
  6
BYLAYER
 62
  256
 10
731.7438028522837
 20
1379.72905225919
 30
0
  0
VERTEX
  5
26E
  8
8
  6
BYLAYER
 62
  256
 10
732.1788838478865
 20
1380.038776041709
 30
0
  0
VERTEX
  5
26F
  8
8
  6
BYLAYER
 62
  256
 10
732.1788838478865
 20
1380.038776041709
 30
0
  0
SEQEND
  5
270
  8
8
  6
BYLAYER
 62
  256
  0
POLYLINE
  5
271
  8
8
  6
BYLAYER
 62
  256
 66
    1
 10
0
 20
0
 30
0
 70
    0
  0
VERTEX
  5
272
  8
8
  6
BYLAYER
 62
  256
 10
236.9110074663118
 20
1001.326877847959
 30
0
  0
VERTEX
  5
273
  8
8
  6
BYLAYER
 62
  256
 10
492.7909717503484
 20
860.597063810065
 30
0
  0
VERTEX
  5
274
  8
8
  6
BYLAYER
 62
  256
 10
493.9195649390126
 20
860.9446106345256
 30
0
  0
VERTEX
  5
275
  8
8
  6
BYLAYER
 62
  256
 10
496.0949388569474
 20
861.8100395258609
 30
0
  0
VERTEX
  5
276
  8
8
  6
BYLAYER
 62
  256
 10
498.18125998354
 20
862.8607071382571
 30
0
  0
VERTEX
  5
277
  8
8
  6
BYLAYER
 62
  256
 10
500.1886640520455
 20
864.0753206163403
 30
0
  0
VERTEX
  5
278
  8
8
  6
BYLAYER
 62
  256
 10
502.1272867957192
 20
865.4325871047366
 30
0
  0
VERTEX
  5
279
  8
8
  6
BYLAYER
 62
  256
 10
504.0072639478163
 20
866.9112137480723
 30
0
  0
VERTEX
  5
27A
  8
8
  6
BYLAYER
 62
  256
 10
506.7436043905567
 20
869.3016098803935
 30
0
  0
VERTEX
  5
27B
  8
8
  6
BYLAYER
 62
  256
 10
512.0149981960707
 20
874.4932949692554
 30
0
  0
VERTEX
  5
27C
  8
8
  6
BYLAYER
 62
  256
 10
517.2574014148579
 20
879.7274745619492
 30
0
  0
VERTEX
  5
27D
  8
8
  6
BYLAYER
 62
  256
 10
519.9604026828627
 20
882.1667393736767
 30
0
  0
VERTEX
  5
27E
  8
8
  6
BYLAYER
 62
  256
 10
521.8113892482334
 20
883.687860520844
 30
0
  0
VERTEX
  5
27F
  8
8
  6
BYLAYER
 62
  256
 10
522.7584799896293
 20
884.4022827741626
 30
0
  0
VERTEX
  5
280
  8
8
  6
BYLAYER
 62
  256
 10
528.6995019993437
 20
888.8725548260705
 30
0
  0
VERTEX
  5
281
  8
8
  6
BYLAYER
 62
  256
 10
540.5594325658958
 20
898.1363895439641
 30
0
  0
VERTEX
  5
282
  8
8
  6
BYLAYER
 62
  256
 10
549.582865094043
 20
904.9689232619412
 30
0
  0
VERTEX
  5
283
  8
8
  6
BYLAYER
 62
  256
 10
555.7083377575619
 20
909.3309098689417
 30
0
  0
VERTEX
  5
284
  8
8
  6
BYLAYER
 62
  256
 10
561.9614170805335
 20
913.4403420790281
 30
0
  0
VERTEX
  5
285
  8
8
  6
BYLAYER
 62
  256
 10
566.7594434665544
 20
916.2954393532209
 30
0
  0
VERTEX
  5
286
  8
8
  6
BYLAYER
 62
  256
 10
570.0109557160852
 20
918.0845314670164
 30
0
  0
VERTEX
  5
287
  8
8
  6
BYLAYER
 62
  256
 10
571.6571585018326
 20
918.9341411046983
 30
0
  0
VERTEX
  5
288
  8
8
  6
BYLAYER
 62
  256
 10
585.4012784692331
 20
926.0036891565409
 30
0
  0
VERTEX
  5
289
  8
8
  6
BYLAYER
 62
  256
 10
606.2983299431081
 20
936.7585172864124
 30
0
  0
VERTEX
  5
28A
  8
8
  6
BYLAYER
 62
  256
 10
616.8637885779616
 20
941.9955201524236
 30
0
  0
VERTEX
  5
28B
  8
8
  6
BYLAYER
 62
  256
 10
623.9530301688997
 20
945.3909033356213
 30
0
  0
VERTEX
  5
28C
  8
8
  6
BYLAYER
 62
  256
 10
631.0833667650242
 20
948.6788331877938
 30
0
  0
VERTEX
  5
28D
  8
8
  6
BYLAYER
 62
  256
 10
638.2566717036802
 20
951.8357815819659
 30
0
  0
VERTEX
  5
28E
  8
8
  6
BYLAYER
 62
  256
 10
645.4748183222133
 20
954.8382203911619
 30
0
  0
VERTEX
  5
28F
  8
8
  6
BYLAYER
 62
  256
 10
652.739679957969
 20
957.6626214884067
 30
0
  0
VERTEX
  5
290
  8
8
  6
BYLAYER
 62
  256
 10
660.0531299482921
 20
960.2854567467247
 30
0
  0
VERTEX
  5
291
  8
8
  6
BYLAYER
 62
  256
 10
667.4170416305284
 20
962.6831980391403
 30
0
  0
VERTEX
  5
292
  8
8
  6
BYLAYER
 62
  256
 10
674.8332883420231
 20
964.8323172386782
 30
0
  0
VERTEX
  5
293
  8
8
  6
BYLAYER
 62
  256
 10
682.3037434201212
 20
966.7092862183629
 30
0
  0
VERTEX
  5
294
  8
8
  6
BYLAYER
 62
  256
 10
686.0622602800931
 20
967.5255517356508
 30
0
  0
VERTEX
  5
295
  8
8
  6
BYLAYER
 62
  256
 10
687.9266017656182
 20
967.8859758847188
 30
0
  0
VERTEX
  5
296
  8
8
  6
BYLAYER
 62
  256
 10
691.6697975042761
 20
968.3144079753707
 30
0
  0
VERTEX
  5
297
  8
8
  6
BYLAYER
 62
  256
 10
695.4282265868468
 20
968.4224217332905
 30
0
  0
VERTEX
  5
298
  8
8
  6
BYLAYER
 62
  256
 10
699.1994645942009
 20
968.2438850654211
 30
0
  0
VERTEX
  5
299
  8
8
  6
BYLAYER
 62
  256
 10
702.9810871072077
 20
967.8126658787058
 30
0
  0
VERTEX
  5
29A
  8
8
  6
BYLAYER
 62
  256
 10
706.7706697067387
 20
967.1626320800879
 30
0
  0
VERTEX
  5
29B
  8
8
  6
BYLAYER
 62
  256
 10
710.5657879736633
 20
966.32765157651
 30
0
  0
VERTEX
  5
29C
  8
8
  6
BYLAYER
 62
  256
 10
714.3640174888521
 20
965.3415922749156
 30
0
  0
VERTEX
  5
29D
  8
8
  6
BYLAYER
 62
  256
 10
720.0622606602295
 20
963.6616177515132
 30
0
  0
VERTEX
  5
29E
  8
8
  6
BYLAYER
 62
  256
 10
727.6482941506355
 20
961.1894412435427
 30
0
  0
VERTEX
  5
29F
  8
8
  6
BYLAYER
 62
  256
 10
735.203133089763
 20
958.722571868482
 30
0
  0
VERTEX
  5
2A0
  8
8
  6
BYLAYER
 62
  256
 10
740.8350878396737
 20
957.0538750025133
 30
0
  0
VERTEX
  5
2A1
  8
8
  6
BYLAYER
 62
  256
 10
744.5709282523056
 20
956.0784299667387
 30
0
  0
VERTEX
  5
2A2
  8
8
  6
BYLAYER
 62
  256
 10
746.4311542577924
 20
955.6533514379253
 30
0
  0
VERTEX
  5
2A3
  8
8
  6
BYLAYER
 62
  256
 10
748.7246003479028
 20
955.1271078855879
 30
0
  0
VERTEX
  5
2A4
  8
8
  6
BYLAYER
 62
  256
 10
753.3032990496821
 20
953.9185966819862
 30
0
  0
VERTEX
  5
2A5
  8
8
  6
BYLAYER
 62
  256
 10
760.1630969564721
 20
951.8941340886672
 30
0
  0
VERTEX
  5
2A6
  8
8
  6
BYLAYER
 62
  256
 10
767.0299244003472
 20
949.8108515038497
 30
0
  0
VERTEX
  5
2A7
  8
8
  6
BYLAYER
 62
  256
 10
771.6198703614623
 20
948.5082283138497
 30
0
  0
VERTEX
  5
2A8
  8
8
  6
BYLAYER
 62
  256
 10
776.2257989592495
 20
947.3525989211178
 30
0
  0
VERTEX
  5
2A9
  8
8
  6
BYLAYER
 62
  256
 10
780.8529785224437
 20
946.4121720432006
 30
0
  0
VERTEX
  5
2AA
  8
8
  6
BYLAYER
 62
  256
 10
783.1773984962362
 20
946.0572045878282
 30
0
  0
VERTEX
  5
2AB
  8
8
  6
BYLAYER
 62
  256
 10
788.3920714859066
 20
945.3332683389341
 30
0
  0
VERTEX
  5
2AC
  8
8
  6
BYLAYER
 62
  256
 10
798.8951174143716
 20
943.9959789119574
 30
0
  0
VERTEX
  5
2AD
  8
8
  6
BYLAYER
 62
  256
 10
809.4663321208062
 20
942.7910166981661
 30
0
  0
VERTEX
  5
2AE
  8
8
  6
BYLAYER
 62
  256
 10
820.0831920930116
 20
941.7179678400172
 30
0
  0
VERTEX
  5
2AF
  8
8
  6
BYLAYER
 62
  256
 10
830.7231738187885
 20
940.7764184799679
 30
0
  0
VERTEX
  5
2B0
  8
8
  6
BYLAYER
 62
  256
 10
841.3637537859387
 20
939.9659547604749
 30
0
  0
VERTEX
  5
2B1
  8
8
  6
BYLAYER
 62
  256
 10
851.9824084822625
 20
939.2861628239956
 30
0
  0
VERTEX
  5
2B2
  8
8
  6
BYLAYER
 62
  256
 10
862.5566143955614
 20
938.7366288129873
 30
0
  0
VERTEX
  5
2B3
  8
8
  6
BYLAYER
 62
  256
 10
863.0902090956367
 20
938.7142460016232
 30
0
  0
VERTEX
  5
2B4
  8
8
  6
BYLAYER
 62
  256
 10
863.0902090956367
 20
938.7142460016232
 30
0
  0
SEQEND
  5
2B5
  8
8
  6
BYLAYER
 62
  256
  0
POLYLINE
  5
2B6
  8
8
  6
BYLAYER
 62
  256
 66
    1
 10
0
 20
0
 30
0
 70
    0
  0
VERTEX
  5
2B7
  8
8
  6
BYLAYER
 62
  256
 10
522.7584799896293
 20
884.4022827741626
 30
0
  0
VERTEX
  5
2B8
  8
8
  6
BYLAYER
 62
  256
 10
417.2801289414919
 20
1239.987894772407
 30
0
  0
SEQEND
  5
2B9
  8
8
  6
BYLAYER
 62
  256
  0
POLYLINE
  5
2BA
  8
8
  6
BYLAYER
 62
  256
 66
    1
 10
0
 20
0
 30
0
 70
    0
  0
VERTEX
  5
2BB
  8
8
  6
BYLAYER
 62
  256
 10
686.0622602800931
 20
967.5255517356508
 30
0
  0
VERTEX
  5
2BC
  8
8
  6
BYLAYER
 62
  256
 10
599.4955035827271
 20
1259.356935645776
 30
0
  0
SEQEND
  5
2BD
  8
8
  6
BYLAYER
 62
  256
  0
LINE
  5
2BE
  8
7
  6
BYLAYER
 62
  256
 10
294.9588225273579
 20
1010.266410149963
 11
797.6345464717616
 21
1159.376511021666
  0
TEXT
  5
2BF
  8
1
  6
BYLAYER
 62
  256
 10
431.8323056724548
 20
1110.520976677595
 30
0
 40
2.5
  1
Piece Name: Sweatshirt Back
 50
0
 41
1
 51
0
  7
STANDARD
 71
    0
210
0
220
0
230
1
  0
TEXT
  5
2C0
  8
1
  6
BYLAYER
 62
  256
 10
431.8323056724548
 20
1108.020976677595
 30
0
 40
2.5
  1
File Name: GBlock-201-Sweatshirt-Parametric-Scalable-V4-Hood-csr0052a-EXTRA
 50
0
 41
1
 51
0
  7
STANDARD
 71
    0
210
0
220
0
230
1
  0
TEXT
  5
2C1
  8
1
  6
BYLAYER
 62
  256
 10
431.8323056724548
 20
1105.520976677595
 30
0
 40
2.5
  1
Measurement Name: csr0052a-EXTRA
 50
0
 41
1
 51
0
  7
STANDARD
 71
    0
210
0
220
0
230
1
  0
TEXT
  5
2C2
  8
1
  6
BYLAYER
 62
  256
 10
431.8323056724548
 20
1103.020976677595
 30
0
 40
2.5
  1
Date: 03-25-2026
 50
0
 41
1
 51
0
  7
STANDARD
 71
    0
210
0
220
0
230
1
  0
ENDBLK
  8
1
  0
BLOCK
  8
1
  2
SWEATSHIRT_FRONT
 70
    0
 10
0
 20
0
  3
SWEATSHIRT_FRONT
  1

  0
POLYLINE
  5
2C3
  8
1
  6
BYLAYER
 62
  256
 66
    1
 10
0
 20
0
 30
0
 70
    1
  0
VERTEX
  5
2C4
  8
1
  6
BYLAYER
 62
  256
 10
693.1266905680251
 20
866.0264405530731
 30
0
  0
VERTEX
  5
2C5
  8
1
  6
BYLAYER
 62
  256
 10
833.3382464317157
 20
393.349238022072
 30
0
  0
VERTEX
  5
2C6
  8
1
  6
BYLAYER
 62
  256
 10
671.7716105136676
 20
345.4232765489328
 30
0
  0
VERTEX
  5
2C7
  8
1
  6
BYLAYER
 62
  256
 10
491.3807506820986
 20
291.9134330761786
 30
0
  0
VERTEX
  5
2C8
  8
1
  6
BYLAYER
 62
  256
 10
488.8818707945269
 20
299.832503132708
 30
0
  0
VERTEX
  5
2C9
  8
1
  6
BYLAYER
 62
  256
 10
487.8800841676235
 20
302.2358405830464
 30
0
  0
VERTEX
  5
2CA
  8
1
  6
BYLAYER
 62
  256
 10
486.7347303596226
 20
304.2935224181217
 30
0
  0
VERTEX
  5
2CB
  8
1
  6
BYLAYER
 62
  256
 10
485.4292912362252
 20
306.1037827063573
 30
0
  0
VERTEX
  5
2CC
  8
1
  6
BYLAYER
 62
  256
 10
483.9592794509041
 20
307.7060927582566
 30
0
  0
VERTEX
  5
2CD
  8
1
  6
BYLAYER
 62
  256
 10
482.3121187547964
 20
309.1315164572701
 30
0
  0
VERTEX
  5
2CE
  8
1
  6
BYLAYER
 62
  256
 10
480.4727670164663
 20
310.3998180975929
 30
0
  0
VERTEX
  5
2CF
  8
1
  6
BYLAYER
 62
  256
 10
478.4292187280533
 20
311.5201547070124
 30
0
  0
VERTEX
  5
2D0
  8
1
  6
BYLAYER
 62
  256
 10
476.1758954190102
 20
312.4942366075893
 30
0
  0
VERTEX
  5
2D1
  8
1
  6
BYLAYER
 62
  256
 10
473.7144843405506
 20
313.320095825517
 30
0
  0
VERTEX
  5
2D2
  8
1
  6
BYLAYER
 62
  256
 10
471.0529838687567
 20
313.9951139114517
 30
0
  0
VERTEX
  5
2D3
  8
1
  6
BYLAYER
 62
  256
 10
468.2040062008043
 20
314.5178589462951
 30
0
  0
VERTEX
  5
2D4
  8
1
  6
BYLAYER
 62
  256
 10
465.1830905028504
 20
314.888891834964
 30
0
  0
VERTEX
  5
2D5
  8
1
  6
BYLAYER
 62
  256
 10
462.0073701892499
 20
315.1109057108556
 30
0
  0
VERTEX
  5
2D6
  8
1
  6
BYLAYER
 62
  256
 10
458.69465641943
 20
315.188524411889
 30
0
  0
VERTEX
  5
2D7
  8
1
  6
BYLAYER
 62
  256
 10
455.2628706865804
 20
315.1279749685313
 30
0
  0
VERTEX
  5
2D8
  8
1
  6
BYLAYER
 62
  256
 10
451.7297273021828
 20
314.9367498560658
 30
0
  0
VERTEX
  5
2D9
  8
1
  6
BYLAYER
 62
  256
 10
448.1283387331538
 20
314.6246753603293
 30
0
  0
VERTEX
  5
2DA
  8
1
  6
BYLAYER
 62
  256
 10
442.5776800544481
 20
313.9567243274357
 30
0
  0
VERTEX
  5
2DB
  8
1
  6
BYLAYER
 62
  256
 10
435.0254816440725
 20
312.7085416967373
 30
0
  0
VERTEX
  5
2DC
  8
1
  6
BYLAYER
 62
  256
 10
427.444121122134
 20
311.1529651204204
 30
0
  0
VERTEX
  5
2DD
  8
1
  6
BYLAYER
 62
  256
 10
419.9389990644093
 20
309.3733337591584
 30
0
  0
VERTEX
  5
2DE
  8
1
  6
BYLAYER
 62
  256
 10
412.6348412617575
 20
307.459028047531
 30
0
  0
VERTEX
  5
2DF
  8
1
  6
BYLAYER
 62
  256
 10
402.1918906046235
 20
304.5028336813476
 30
0
  0
VERTEX
  5
2E0
  8
1
  6
BYLAYER
 62
  256
 10
395.9767234321659
 20
302.6592113222893
 30
0
  0
VERTEX
  5
2E1
  8
1
  6
BYLAYER
 62
  256
 10
393.3922011947249
 20
301.8714800976801
 30
0
  0
VERTEX
  5
2E2
  8
1
  6
BYLAYER
 62
  256
 10
388.0293959058295
 20
300.037330118487
 30
0
  0
VERTEX
  5
2E3
  8
1
  6
BYLAYER
 62
  256
 10
382.5165400352901
 20
297.9379491438071
 30
0
  0
VERTEX
  5
2E4
  8
1
  6
BYLAYER
 62
  256
 10
376.8831435146946
 20
295.6035767387128
 30
0
  0
VERTEX
  5
2E5
  8
1
  6
BYLAYER
 62
  256
 10
371.1809001309637
 20
293.0734286997011
 30
0
  0
VERTEX
  5
2E6
  8
1
  6
BYLAYER
 62
  256
 10
365.4689102815692
 20
290.3912568547029
 30
0
  0
VERTEX
  5
2E7
  8
1
  6
BYLAYER
 62
  256
 10
356.9390730944335
 20
286.1589994911276
 30
0
  0
VERTEX
  5
2E8
  8
1
  6
BYLAYER
 62
  256
 10
345.9514985058555
 20
280.3175509706624
 30
0
  0
VERTEX
  5
2E9
  8
1
  6
BYLAYER
 62
  256
 10
335.7472906367293
 20
274.564850445308
 30
0
  0
VERTEX
  5
2EA
  8
1
  6
BYLAYER
 62
  256
 10
326.6845236469385
 20
269.2106379507422
 30
0
  0
VERTEX
  5
2EB
  8
1
  6
BYLAYER
 62
  256
 10
319.1208987354988
 20
264.5650581104546
 30
0
  0
VERTEX
  5
2EC
  8
1
  6
BYLAYER
 62
  256
 10
310.197356470624
 20
258.9238720424012
 30
0
  0
VERTEX
  5
2ED
  8
1
  6
BYLAYER
 62
  256
 10
235.4973727230731
 20
376.4786278260627
 30
0
  0
VERTEX
  5
2EE
  8
1
  6
BYLAYER
 62
  256
 10
243.7400326814193
 20
381.7782752997667
 30
0
  0
VERTEX
  5
2EF
  8
1
  6
BYLAYER
 62
  256
 10
248.2739847403408
 20
384.8706203063497
 30
0
  0
VERTEX
  5
2F0
  8
1
  6
BYLAYER
 62
  256
 10
252.5278691392047
 20
387.9884263360154
 30
0
  0
VERTEX
  5
2F1
  8
1
  6
BYLAYER
 62
  256
 10
256.5228094627107
 20
391.1394016865714
 30
0
  0
VERTEX
  5
2F2
  8
1
  6
BYLAYER
 62
  256
 10
260.264677340355
 20
394.3208248603085
 30
0
  0
VERTEX
  5
2F3
  8
1
  6
BYLAYER
 62
  256
 10
263.7595048878157
 20
397.5300884625958
 30
0
  0
VERTEX
  5
2F4
  8
1
  6
BYLAYER
 62
  256
 10
267.0134798570843
 20
400.7647353840778
 30
0
  0
VERTEX
  5
2F5
  8
1
  6
BYLAYER
 62
  256
 10
270.0329322394676
 20
404.0224959948787
 30
0
  0
VERTEX
  5
2F6
  8
1
  6
BYLAYER
 62
  256
 10
272.8243111275442
 20
407.3013239676119
 30
0
  0
VERTEX
  5
2F7
  8
1
  6
BYLAYER
 62
  256
 10
275.3941512804134
 20
410.5994277909285
 30
0
  0
VERTEX
  5
2F8
  8
1
  6
BYLAYER
 62
  256
 10
277.7490297478709
 20
413.915294696201
 30
0
  0
VERTEX
  5
2F9
  8
1
  6
BYLAYER
 62
  256
 10
279.8955140273255
 20
417.2477037282614
 30
0
  0
VERTEX
  5
2FA
  8
1
  6
BYLAYER
 62
  256
 10
281.84010441824
 20
420.5957251505222
 30
0
  0
VERTEX
  5
2FB
  8
1
  6
BYLAYER
 62
  256
 10
283.5891743112772
 20
423.9587043233679
 30
0
  0
VERTEX
  5
2FC
  8
1
  6
BYLAYER
 62
  256
 10
285.1489128872006
 20
427.3362295740866
 30
0
  0
VERTEX
  5
2FD
  8
1
  6
BYLAYER
 62
  256
 10
286.5252749140697
 20
430.728085221458
 30
0
  0
VERTEX
  5
2FE
  8
1
  6
BYLAYER
 62
  256
 10
287.7239419123372
 20
434.1341925764883
 30
0
  0
VERTEX
  5
2FF
  8
1
  6
BYLAYER
 62
  256
 10
288.7502979212817
 20
437.5545431252767
 30
0
  0
VERTEX
  5
300
  8
1
  6
BYLAYER
 62
  256
 10
289.6094215949678
 20
440.9891289577904
 30
0
  0
VERTEX
  5
301
  8
1
  6
BYLAYER
 62
  256
 10
290.3060946331851
 20
444.4378756853607
 30
0
  0
VERTEX
  5
302
  8
1
  6
BYLAYER
 62
  256
 10
290.8448249061263
 20
447.9005825777383
 30
0
  0
VERTEX
  5
303
  8
1
  6
BYLAYER
 62
  256
 10
291.2298813237855
 20
451.3768735741117
 30
0
  0
VERTEX
  5
304
  8
1
  6
BYLAYER
 62
  256
 10
291.4653367045153
 20
454.8661614062614
 30
0
  0
VERTEX
  5
305
  8
1
  6
BYLAYER
 62
  256
 10
291.5551146650429
 20
458.3676255766579
 30
0
  0
VERTEX
  5
306
  8
1
  6
BYLAYER
 62
  256
 10
291.5030368274287
 20
461.880203592774
 30
0
  0
VERTEX
  5
307
  8
1
  6
BYLAYER
 62
  256
 10
291.3128672799577
 20
465.4025938326876
 30
0
  0
VERTEX
  5
308
  8
1
  6
BYLAYER
 62
  256
 10
290.9883520695954
 20
468.9332677785016
 30
0
  0
VERTEX
  5
309
  8
1
  6
BYLAYER
 62
  256
 10
290.5332523837464
 20
472.4704890948603
 30
0
  0
VERTEX
  5
30A
  8
1
  6
BYLAYER
 62
  256
 10
289.9513708761779
 20
476.0123370844809
 30
0
  0
VERTEX
  5
30B
  8
1
  6
BYLAYER
 62
  256
 10
289.246571231958
 20
479.5567323279051
 30
0
  0
VERTEX
  5
30C
  8
1
  6
BYLAYER
 62
  256
 10
288.4227915206041
 20
483.1014627143788
 30
0
  0
VERTEX
  5
30D
  8
1
  6
BYLAYER
 62
  256
 10
287.479762178988
 20
486.6603986492827
 30
0
  0
VERTEX
  5
30E
  8
1
  6
BYLAYER
 62
  256
 10
286.9691336644511
 20
488.4125190044365
 30
0
  0
VERTEX
  5
30F
  8
1
  6
BYLAYER
 62
  256
 10
286.4417626783126
 20
490.1596729935803
 30
0
  0
VERTEX
  5
310
  8
1
  6
BYLAYER
 62
  256
 10
285.2916218038088
 20
493.6571728572965
 30
0
  0
VERTEX
  5
311
  8
1
  6
BYLAYER
 62
  256
 10
284.0492659467878
 20
497.0777398351754
 30
0
  0
VERTEX
  5
312
  8
1
  6
BYLAYER
 62
  256
 10
282.7073577396305
 20
500.4331477900541
 30
0
  0
VERTEX
  5
313
  8
1
  6
BYLAYER
 62
  256
 10
281.2638023252782
 20
503.7193950473559
 30
0
  0
VERTEX
  5
314
  8
1
  6
BYLAYER
 62
  256
 10
279.7164948448526
 20
506.9326317217985
 30
0
  0
VERTEX
  5
315
  8
1
  6
BYLAYER
 62
  256
 10
278.0632950501131
 20
510.069174256514
 30
0
  0
VERTEX
  5
316
  8
1
  6
BYLAYER
 62
  256
 10
276.3019969221575
 20
513.12551624711
 30
0
  0
VERTEX
  5
317
  8
1
  6
BYLAYER
 62
  256
 10
274.4302938137444
 20
516.0983337481405
 30
0
  0
VERTEX
  5
318
  8
1
  6
BYLAYER
 62
  256
 10
272.4457402314353
 20
518.9844831721498
 30
0
  0
VERTEX
  5
319
  8
1
  6
BYLAYER
 62
  256
 10
270.3457120603157
 20
521.7809900096897
 30
0
  0
VERTEX
  5
31A
  8
1
  6
BYLAYER
 62
  256
 10
268.1273677320632
 20
524.4850269875352
 30
0
  0
VERTEX
  5
31B
  8
1
  6
BYLAYER
 62
  256
 10
265.7876134334912
 20
527.093880979582
 30
0
  0
VERTEX
  5
31C
  8
1
  6
BYLAYER
 62
  256
 10
263.3230758091922
 20
529.6049089785338
 30
0
  0
VERTEX
  5
31D
  8
1
  6
BYLAYER
 62
  256
 10
260.7300855900668
 20
532.0154846465252
 30
0
  0
VERTEX
  5
31E
  8
1
  6
BYLAYER
 62
  256
 10
258.0046750770095
 20
534.3229382363094
 30
0
  0
VERTEX
  5
31F
  8
1
  6
BYLAYER
 62
  256
 10
255.1425913990225
 20
536.52449380157
 30
0
  0
VERTEX
  5
320
  8
1
  6
BYLAYER
 62
  256
 10
252.1393260250866
 20
538.6172083677087
 30
0
  0
VERTEX
  5
321
  8
1
  6
BYLAYER
 62
  256
 10
248.9901593258947
 20
540.5979179236923
 30
0
  0
VERTEX
  5
322
  8
1
  6
BYLAYER
 62
  256
 10
245.690217322057
 20
542.4631946267675
 30
0
  0
VERTEX
  5
323
  8
1
  6
BYLAYER
 62
  256
 10
242.2345364089154
 20
544.2093185224004
 30
0
  0
VERTEX
  5
324
  8
1
  6
BYLAYER
 62
  256
 10
238.6181310540681
 20
545.8322655419722
 30
0
  0
VERTEX
  5
325
  8
1
  6
BYLAYER
 62
  256
 10
234.8360593501053
 20
547.3277118151825
 30
0
  0
VERTEX
  5
326
  8
1
  6
BYLAYER
 62
  256
 10
230.8834818581346
 20
548.6910527155595
 30
0
  0
VERTEX
  5
327
  8
1
  6
BYLAYER
 62
  256
 10
226.7557102535795
 20
549.9174337950807
 30
0
  0
VERTEX
  5
328
  8
1
  6
BYLAYER
 62
  256
 10
222.4482436563869
 20
551.0017900100008
 30
0
  0
VERTEX
  5
329
  8
1
  6
BYLAYER
 62
  256
 10
217.9567919439611
 20
551.9388894296076
 30
0
  0
VERTEX
  5
32A
  8
1
  6
BYLAYER
 62
  256
 10
213.2772865939844
 20
552.7233778839495
 30
0
  0
VERTEX
  5
32B
  8
1
  6
BYLAYER
 62
  256
 10
208.40588054613
 20
553.3498216093283
 30
0
  0
VERTEX
  5
32C
  8
1
  6
BYLAYER
 62
  256
 10
203.3389391506473
 20
553.8127457315434
 30
0
  0
VERTEX
  5
32D
  8
1
  6
BYLAYER
 62
  256
 10
198.0730245041437
 20
554.1066672402007
 30
0
  0
VERTEX
  5
32E
  8
1
  6
BYLAYER
 62
  256
 10
192.5862265295685
 20
554.2265292380957
 30
0
  0
VERTEX
  5
32F
  8
1
  6
BYLAYER
 62
  256
 10
182.7869926386642
 20
554.1743594593798
 30
0
  0
VERTEX
  5
330
  8
1
  6
BYLAYER
 62
  256
 10
181.3034023325168
 20
693.4474980721221
 30
0
  0
VERTEX
  5
331
  8
1
  6
BYLAYER
 62
  256
 10
191.8596221423284
 20
693.5846481153119
 30
0
  0
VERTEX
  5
332
  8
1
  6
BYLAYER
 62
  256
 10
200.7330010698702
 20
693.8148225311228
 30
0
  0
VERTEX
  5
333
  8
1
  6
BYLAYER
 62
  256
 10
211.2494435831979
 20
694.26844551564
 30
0
  0
VERTEX
  5
334
  8
1
  6
BYLAYER
 62
  256
 10
222.9399891556742
 20
695.0104467208976
 30
0
  0
VERTEX
  5
335
  8
1
  6
BYLAYER
 62
  256
 10
235.3355852418468
 20
696.1052132828977
 30
0
  0
VERTEX
  5
336
  8
1
  6
BYLAYER
 62
  256
 10
244.7935133790949
 20
697.2087168765634
 30
0
  0
VERTEX
  5
337
  8
1
  6
BYLAYER
 62
  256
 10
251.0441406788831
 20
698.0750494944573
 30
0
  0
VERTEX
  5
338
  8
1
  6
BYLAYER
 62
  256
 10
257.2037016427877
 20
699.0635015360654
 30
0
  0
VERTEX
  5
339
  8
1
  6
BYLAYER
 62
  256
 10
263.1987981026809
 20
700.178521410552
 30
0
  0
VERTEX
  5
33A
  8
1
  6
BYLAYER
 62
  256
 10
268.9647139168562
 20
701.4247939128692
 30
0
  0
VERTEX
  5
33B
  8
1
  6
BYLAYER
 62
  256
 10
274.4602231786704
 20
702.8115760392657
 30
0
  0
VERTEX
  5
33C
  8
1
  6
BYLAYER
 62
  256
 10
277.056238499686
 20
703.5605621079636
 30
0
  0
VERTEX
  5
33D
  8
1
  6
BYLAYER
 62
  256
 10
283.2714056721435
 20
705.4041844670218
 30
0
  0
VERTEX
  5
33E
  8
1
  6
BYLAYER
 62
  256
 10
293.6371836239539
 20
708.6205412587587
 30
0
  0
VERTEX
  5
33F
  8
1
  6
BYLAYER
 62
  256
 10
300.8037403157107
 20
710.99872391521
 30
0
  0
VERTEX
  5
340
  8
1
  6
BYLAYER
 62
  256
 10
308.0653194392216
 20
713.5993802778086
 30
0
  0
VERTEX
  5
341
  8
1
  6
BYLAYER
 62
  256
 10
315.2686316972877
 20
716.4294223907792
 30
0
  0
VERTEX
  5
342
  8
1
  6
BYLAYER
 62
  256
 10
322.2798813818255
 20
719.5012359545109
 30
0
  0
VERTEX
  5
343
  8
1
  6
BYLAYER
 62
  256
 10
327.2969476218252
 20
721.968018614838
 30
0
  0
VERTEX
  5
344
  8
1
  6
BYLAYER
 62
  256
 10
330.4859829840031
 20
723.6702064936575
 30
0
  0
VERTEX
  5
345
  8
1
  6
BYLAYER
 62
  256
 10
333.5519143872986
 20
725.4364833260473
 30
0
  0
VERTEX
  5
346
  8
1
  6
BYLAYER
 62
  256
 10
336.4616271604805
 20
727.2570302572916
 30
0
  0
VERTEX
  5
347
  8
1
  6
BYLAYER
 62
  256
 10
339.196186736285
 20
729.1284685036359
 30
0
  0
VERTEX
  5
348
  8
1
  6
BYLAYER
 62
  256
 10
341.7371749058177
 20
731.0462455484452
 30
0
  0
VERTEX
  5
349
  8
1
  6
BYLAYER
 62
  256
 10
344.0671401449453
 20
733.0045251615433
 30
0
  0
VERTEX
  5
34A
  8
1
  6
BYLAYER
 62
  256
 10
346.1702518345867
 20
734.9962222632229
 30
0
  0
VERTEX
  5
34B
  8
1
  6
BYLAYER
 62
  256
 10
348.0331784079646
 20
737.0133337524325
 30
0
  0
VERTEX
  5
34C
  8
1
  6
BYLAYER
 62
  256
 10
349.6461284892312
 20
739.0477820757726
 30
0
  0
VERTEX
  5
34D
  8
1
  6
BYLAYER
 62
  256
 10
351.0038252378758
 20
741.0930109194055
 30
0
  0
VERTEX
  5
34E
  8
1
  6
BYLAYER
 62
  256
 10
352.1059274220665
 20
743.1464505949459
 30
0
  0
VERTEX
  5
34F
  8
1
  6
BYLAYER
 62
  256
 10
352.9561785838466
 20
745.2125766390282
 30
0
  0
VERTEX
  5
350
  8
1
  6
BYLAYER
 62
  256
 10
353.5596491527514
 20
747.3056113623373
 30
0
  0
VERTEX
  5
351
  8
1
  6
BYLAYER
 62
  256
 10
353.9181710223733
 20
749.4503244481375
 30
0
  0
VERTEX
  5
352
  8
1
  6
BYLAYER
 62
  256
 10
354.025347558411
 20
751.6796128561688
 30
0
  0
VERTEX
  5
353
  8
1
  6
BYLAYER
 62
  256
 10
353.8634171533558
 20
754.029010315906
 30
0
  0
VERTEX
  5
354
  8
1
  6
BYLAYER
 62
  256
 10
353.3926605415359
 20
756.5898686795155
 30
0
  0
VERTEX
  5
355
  8
1
  6
BYLAYER
 62
  256
 10
351.1691948184077
 20
764.5906356071798
 30
0
  0
VERTEX
  5
356
  8
1
  6
BYLAYER
 62
  256
 10
531.5600546499768
 20
818.1004790799342
 30
0
  0
VERTEX
  5
357
  8
1
  6
BYLAYER
 62
  256
 10
693.1266905680251
 20
866.0264405530731
 30
0
  0
SEQEND
  5
358
  8
1
  6
BYLAYER
 62
  256
  0
POLYLINE
  5
359
  8
8
  6
BYLAYER
 62
  256
 66
    1
 10
0
 20
0
 30
0
 70
    1
  0
VERTEX
  5
35A
  8
8
  6
BYLAYER
 62
  256
 10
824.6365809118327
 20
398.0695152575823
 30
0
  0
VERTEX
  5
35B
  8
8
  6
BYLAYER
 62
  256
 10
669.7809163714811
 20
352.1342479266296
 30
0
  0
VERTEX
  5
35C
  8
8
  6
BYLAYER
 62
  256
 10
495.9859318930727
 20
300.5809573415491
 30
0
  0
VERTEX
  5
35D
  8
8
  6
BYLAYER
 62
  256
 10
495.4633206204812
 20
302.2371374967331
 30
0
  0
VERTEX
  5
35E
  8
8
  6
BYLAYER
 62
  256
 10
494.1889393261713
 20
305.2944435221615
 30
0
  0
VERTEX
  5
35F
  8
8
  6
BYLAYER
 62
  256
 10
492.6519141420229
 20
308.0557813545257
 30
0
  0
VERTEX
  5
360
  8
8
  6
BYLAYER
 62
  256
 10
490.8659635226069
 20
310.5323698258938
 30
0
  0
VERTEX
  5
361
  8
8
  6
BYLAYER
 62
  256
 10
488.8448059224942
 20
312.7354277683345
 30
0
  0
VERTEX
  5
362
  8
8
  6
BYLAYER
 62
  256
 10
486.6021597962554
 20
314.6761740139166
 30
0
  0
VERTEX
  5
363
  8
8
  6
BYLAYER
 62
  256
 10
484.1517435984616
 20
316.365827394709
 30
0
  0
VERTEX
  5
364
  8
8
  6
BYLAYER
 62
  256
 10
481.5072757836836
 20
317.8156067427802
 30
0
  0
VERTEX
  5
365
  8
8
  6
BYLAYER
 62
  256
 10
478.6824748064921
 20
319.0367308901988
 30
0
  0
VERTEX
  5
366
  8
8
  6
BYLAYER
 62
  256
 10
475.6910591214582
 20
320.0404186690338
 30
0
  0
VERTEX
  5
367
  8
8
  6
BYLAYER
 62
  256
 10
472.5467471831526
 20
320.8378889113539
 30
0
  0
VERTEX
  5
368
  8
8
  6
BYLAYER
 62
  256
 10
469.2632574461462
 20
321.4403604492276
 30
0
  0
VERTEX
  5
369
  8
8
  6
BYLAYER
 62
  256
 10
465.85430836501
 20
321.8590521147239
 30
0
  0
VERTEX
  5
36A
  8
8
  6
BYLAYER
 62
  256
 10
462.3336183943145
 20
322.1051827399112
 30
0
  0
VERTEX
  5
36B
  8
8
  6
BYLAYER
 62
  256
 10
458.7149059886307
 20
322.1899711568583
 30
0
  0
VERTEX
  5
36C
  8
8
  6
BYLAYER
 62
  256
 10
455.0118896025297
 20
322.1246361976338
 30
0
  0
VERTEX
  5
36D
  8
8
  6
BYLAYER
 62
  256
 10
451.2382876905823
 20
321.9203966943069
 30
0
  0
VERTEX
  5
36E
  8
8
  6
BYLAYER
 62
  256
 10
447.407818707359
 20
321.588471478946
 30
0
  0
VERTEX
  5
36F
  8
8
  6
BYLAYER
 62
  256
 10
441.588319960112
 20
320.8881689699737
 30
0
  0
VERTEX
  5
370
  8
8
  6
BYLAYER
 62
  256
 10
433.7508010208618
 20
319.5928302518723
 30
0
  0
VERTEX
  5
371
  8
8
  6
BYLAYER
 62
  256
 10
425.9327459787843
 20
317.9886876628716
 30
0
  0
VERTEX
  5
372
  8
8
  6
BYLAYER
 62
  256
 10
418.2439024704464
 20
316.1654918595215
 30
0
  0
VERTEX
  5
373
  8
8
  6
BYLAYER
 62
  256
 10
410.7940181324147
 20
314.2129934983715
 30
0
  0
VERTEX
  5
374
  8
8
  6
BYLAYER
 62
  256
 10
400.2431469919665
 20
311.2262489615281
 30
0
  0
VERTEX
  5
375
  8
8
  6
BYLAYER
 62
  256
 10
393.9609340181584
 20
309.3627386195693
 30
0
  0
VERTEX
  5
376
  8
8
  6
BYLAYER
 62
  256
 10
391.2385418711258
 20
308.5329863083753
 30
0
  0
VERTEX
  5
377
  8
8
  6
BYLAYER
 62
  256
 10
385.650469087291
 20
306.6217918815661
 30
0
  0
VERTEX
  5
378
  8
8
  6
BYLAYER
 62
  256
 10
379.9305502903711
 20
304.4435581346727
 30
0
  0
VERTEX
  5
379
  8
8
  6
BYLAYER
 62
  256
 10
374.1233412299648
 20
302.0371611179414
 30
0
  0
VERTEX
  5
37A
  8
8
  6
BYLAYER
 62
  256
 10
368.2733976556706
 20
299.4414768816179
 30
0
  0
VERTEX
  5
37B
  8
8
  6
BYLAYER
 62
  256
 10
362.4252753170875
 20
296.6953814759487
 30
0
  0
VERTEX
  5
37C
  8
8
  6
BYLAYER
 62
  256
 10
353.7398210022044
 20
292.3859114153011
 30
0
  0
VERTEX
  5
37D
  8
8
  6
BYLAYER
 62
  256
 10
342.5891727344878
 20
286.4577661908408
 30
0
  0
VERTEX
  5
37E
  8
8
  6
BYLAYER
 62
  256
 10
332.2478129023912
 20
280.6277451934268
 30
0
  0
VERTEX
  5
37F
  8
8
  6
BYLAYER
 62
  256
 10
323.0721875027039
 20
275.2068568250282
 30
0
  0
VERTEX
  5
380
  8
8
  6
BYLAYER
 62
  256
 10
315.4187425322154
 20
270.5061094876141
 30
0
  0
VERTEX
  5
381
  8
8
  6
BYLAYER
 62
  256
 10
312.3599291412667
 20
268.5724227325553
 30
0
  0
VERTEX
  5
382
  8
8
  6
BYLAYER
 62
  256
 10
245.1397797153134
 20
374.3562241884459
 30
0
  0
VERTEX
  5
383
  8
8
  6
BYLAYER
 62
  256
 10
247.6057185711474
 20
375.9417083275068
 30
0
  0
VERTEX
  5
384
  8
8
  6
BYLAYER
 62
  256
 10
252.3163025872785
 20
379.1545237192597
 30
0
  0
VERTEX
  5
385
  8
8
  6
BYLAYER
 62
  256
 10
256.7657434618162
 20
382.4156592571645
 30
0
  0
VERTEX
  5
386
  8
8
  6
BYLAYER
 62
  256
 10
260.9589404092615
 20
385.7230078409931
 30
0
  0
VERTEX
  5
387
  8
8
  6
BYLAYER
 62
  256
 10
264.9007926441153
 20
389.074462370517
 30
0
  0
VERTEX
  5
388
  8
8
  6
BYLAYER
 62
  256
 10
268.5961993808787
 20
392.4679157455079
 30
0
  0
VERTEX
  5
389
  8
8
  6
BYLAYER
 62
  256
 10
272.0500598340526
 20
395.9012608657377
 30
0
  0
VERTEX
  5
38A
  8
8
  6
BYLAYER
 62
  256
 10
275.2672732181381
 20
399.3723906309778
 30
0
  0
VERTEX
  5
38B
  8
8
  6
BYLAYER
 62
  256
 10
278.2527387476362
 20
402.8791979409998
 30
0
  0
VERTEX
  5
38C
  8
8
  6
BYLAYER
 62
  256
 10
281.0113556370478
 20
406.4195756955759
 30
0
  0
VERTEX
  5
38D
  8
8
  6
BYLAYER
 62
  256
 10
283.548023100874
 20
409.9914167944773
 30
0
  0
VERTEX
  5
38E
  8
8
  6
BYLAYER
 62
  256
 10
285.8676403536157
 20
413.5926141374756
 30
0
  0
VERTEX
  5
38F
  8
8
  6
BYLAYER
 62
  256
 10
287.9751066097741
 20
417.2210606243431
 30
0
  0
VERTEX
  5
390
  8
8
  6
BYLAYER
 62
  256
 10
289.8753210838499
 20
420.8746491548508
 30
0
  0
VERTEX
  5
391
  8
8
  6
BYLAYER
 62
  256
 10
291.5731829903443
 20
424.5512726287707
 30
0
  0
VERTEX
  5
392
  8
8
  6
BYLAYER
 62
  256
 10
293.0735915437583
 20
428.2488239458747
 30
0
  0
VERTEX
  5
393
  8
8
  6
BYLAYER
 62
  256
 10
294.3814459585928
 20
431.9651960059341
 30
0
  0
VERTEX
  5
394
  8
8
  6
BYLAYER
 62
  256
 10
295.5016454493489
 20
435.6982817087206
 30
0
  0
VERTEX
  5
395
  8
8
  6
BYLAYER
 62
  256
 10
296.4390892305276
 20
439.4459739540061
 30
0
  0
VERTEX
  5
396
  8
8
  6
BYLAYER
 62
  256
 10
297.1986765166298
 20
443.2061656415621
 30
0
  0
VERTEX
  5
397
  8
8
  6
BYLAYER
 62
  256
 10
297.7853065221566
 20
446.9767496711604
 30
0
  0
VERTEX
  5
398
  8
8
  6
BYLAYER
 62
  256
 10
298.203878461609
 20
450.7556189425727
 30
0
  0
VERTEX
  5
399
  8
8
  6
BYLAYER
 62
  256
 10
298.4592915494878
 20
454.5406663555705
 30
0
  0
VERTEX
  5
39A
  8
8
  6
BYLAYER
 62
  256
 10
298.5564450002943
 20
458.3297848099257
 30
0
  0
VERTEX
  5
39B
  8
8
  6
BYLAYER
 62
  256
 10
298.5002380285293
 20
462.1208672054099
 30
0
  0
VERTEX
  5
39C
  8
8
  6
BYLAYER
 62
  256
 10
298.2955698486939
 20
465.9118064417947
 30
0
  0
VERTEX
  5
39D
  8
8
  6
BYLAYER
 62
  256
 10
297.9473396752891
 20
469.7004954188518
 30
0
  0
VERTEX
  5
39E
  8
8
  6
BYLAYER
 62
  256
 10
297.4604467228157
 20
473.4848270363531
 30
0
  0
VERTEX
  5
39F
  8
8
  6
BYLAYER
 62
  256
 10
296.839790205775
 20
477.2626941940697
 30
0
  0
VERTEX
  5
3A0
  8
8
  6
BYLAYER
 62
  256
 10
296.0902693386679
 20
481.031989791774
 30
0
  0
VERTEX
  5
3A1
  8
8
  6
BYLAYER
 62
  256
 10
295.2167833359952
 20
484.7906067292372
 30
0
  0
VERTEX
  5
3A2
  8
8
  6
BYLAYER
 62
  256
 10
294.2242314122581
 20
488.5364379062313
 30
0
  0
VERTEX
  5
3A3
  8
8
  6
BYLAYER
 62
  256
 10
293.680181855384
 20
490.4032359319473
 30
0
  0
VERTEX
  5
3A4
  8
8
  6
BYLAYER
 62
  256
 10
293.1182940188277
 20
492.2647425390487
 30
0
  0
VERTEX
  5
3A5
  8
8
  6
BYLAYER
 62
  256
 10
291.9077542326521
 20
495.9459113689096
 30
0
  0
VERTEX
  5
3A6
  8
8
  6
BYLAYER
 62
  256
 10
290.5904354925941
 20
499.5728729645904
 30
0
  0
VERTEX
  5
3A7
  8
8
  6
BYLAYER
 62
  256
 10
289.1633800006463
 20
503.1411895783457
 30
0
  0
VERTEX
  5
3A8
  8
8
  6
BYLAYER
 62
  256
 10
287.6236299588016
 20
506.6464234624311
 30
0
  0
VERTEX
  5
3A9
  8
8
  6
BYLAYER
 62
  256
 10
285.9682275690529
 20
510.0841368691014
 30
0
  0
VERTEX
  5
3AA
  8
8
  6
BYLAYER
 62
  256
 10
284.1942150333928
 20
513.4498920506119
 30
0
  0
VERTEX
  5
3AB
  8
8
  6
BYLAYER
 62
  256
 10
282.2986345538139
 20
516.7392512592177
 30
0
  0
VERTEX
  5
3AC
  8
8
  6
BYLAYER
 62
  256
 10
280.2785283323093
 20
519.9477767471737
 30
0
  0
VERTEX
  5
3AD
  8
8
  6
BYLAYER
 62
  256
 10
278.1309385708716
 20
523.071030766735
 30
0
  0
VERTEX
  5
3AE
  8
8
  6
BYLAYER
 62
  256
 10
275.8529074714935
 20
526.1045755701568
 30
0
  0
VERTEX
  5
3AF
  8
8
  6
BYLAYER
 62
  256
 10
273.4414772361678
 20
529.0439734096942
 30
0
  0
VERTEX
  5
3B0
  8
8
  6
BYLAYER
 62
  256
 10
270.8936900668872
 20
531.8847865376025
 30
0
  0
VERTEX
  5
3B1
  8
8
  6
BYLAYER
 62
  256
 10
268.2065881656445
 20
534.6225772061365
 30
0
  0
VERTEX
  5
3B2
  8
8
  6
BYLAYER
 62
  256
 10
265.3772137344326
 20
537.2529076675514
 30
0
  0
VERTEX
  5
3B3
  8
8
  6
BYLAYER
 62
  256
 10
262.402608975244
 20
539.7713401741024
 30
0
  0
VERTEX
  5
3B4
  8
8
  6
BYLAYER
 62
  256
 10
259.2798160900716
 20
542.1734369780445
 30
0
  0
VERTEX
  5
3B5
  8
8
  6
BYLAYER
 62
  256
 10
256.0058772809081
 20
544.4547603316328
 30
0
  0
VERTEX
  5
3B6
  8
8
  6
BYLAYER
 62
  256
 10
252.5778347497463
 20
546.6108724871224
 30
0
  0
VERTEX
  5
3B7
  8
8
  6
BYLAYER
 62
  256
 10
248.992730698579
 20
548.6373356967684
 30
0
  0
VERTEX
  5
3B8
  8
8
  6
BYLAYER
 62
  256
 10
245.2476073293989
 20
550.5297122128262
 30
0
  0
VERTEX
  5
3B9
  8
8
  6
BYLAYER
 62
  256
 10
241.3395068441987
 20
552.2835642875505
 30
0
  0
VERTEX
  5
3BA
  8
8
  6
BYLAYER
 62
  256
 10
237.2654714449712
 20
553.8944541731964
 30
0
  0
VERTEX
  5
3BB
  8
8
  6
BYLAYER
 62
  256
 10
233.0225433337092
 20
555.3579441220193
 30
0
  0
VERTEX
  5
3BC
  8
8
  6
BYLAYER
 62
  256
 10
228.6077647124054
 20
556.6695963862743
 30
0
  0
VERTEX
  5
3BD
  8
8
  6
BYLAYER
 62
  256
 10
224.0181777830525
 20
557.8249732182161
 30
0
  0
VERTEX
  5
3BE
  8
8
  6
BYLAYER
 62
  256
 10
219.2508247476434
 20
558.8196368701003
 30
0
  0
VERTEX
  5
3BF
  8
8
  6
BYLAYER
 62
  256
 10
214.3027478081708
 20
559.6491495941816
 30
0
  0
VERTEX
  5
3C0
  8
8
  6
BYLAYER
 62
  256
 10
209.1709891666274
 20
560.3090736427152
 30
0
  0
VERTEX
  5
3C1
  8
8
  6
BYLAYER
 62
  256
 10
203.8525910250059
 20
560.7949712679566
 30
0
  0
VERTEX
  5
3C2
  8
8
  6
BYLAYER
 62
  256
 10
198.3445955852993
 20
561.1024047221604
 30
0
  0
VERTEX
  5
3C3
  8
8
  6
BYLAYER
 62
  256
 10
192.6440450495002
 20
561.2269362575819
 30
0
  0
VERTEX
  5
3C4
  8
8
  6
BYLAYER
 62
  256
 10
189.7124293173094
 20
561.2113287370623
 30
0
  0
VERTEX
  5
3C5
  8
8
  6
BYLAYER
 62
  256
 10
188.3773933900841
 20
686.5388150215156
 30
0
  0
VERTEX
  5
3C6
  8
8
  6
BYLAYER
 62
  256
 10
191.9958562777592
 20
686.5858273375023
 30
0
  0
VERTEX
  5
3C7
  8
8
  6
BYLAYER
 62
  256
 10
200.9746089419109
 20
686.8187351357668
 30
0
  0
VERTEX
  5
3C8
  8
8
  6
BYLAYER
 62
  256
 10
211.6220124499501
 20
687.2780070759268
 30
0
  0
VERTEX
  5
3C9
  8
8
  6
BYLAYER
 62
  256
 10
223.4696874433501
 20
688.0299813161455
 30
0
  0
VERTEX
  5
3CA
  8
8
  6
BYLAYER
 62
  256
 10
236.0492545635842
 20
689.1409960145858
 30
0
  0
VERTEX
  5
3CB
  8
8
  6
BYLAYER
 62
  256
 10
245.6797317869249
 20
690.2646317697379
 30
0
  0
VERTEX
  5
3CC
  8
8
  6
BYLAYER
 62
  256
 10
252.0793287935485
 20
691.1516114859022
 30
0
  0
VERTEX
  5
3CD
  8
8
  6
BYLAYER
 62
  256
 10
258.3984354427093
 20
692.1656665305886
 30
0
  0
VERTEX
  5
3CE
  8
8
  6
BYLAYER
 62
  256
 10
264.5785043145914
 20
693.3150891735676
 30
0
  0
VERTEX
  5
3CF
  8
8
  6
BYLAYER
 62
  256
 10
270.5609879893791
 20
694.6081716846095
 30
0
  0
VERTEX
  5
3D0
  8
8
  6
BYLAYER
 62
  256
 10
276.2873390472564
 20
696.0532063334846
 30
0
  0
VERTEX
  5
3D1
  8
8
  6
BYLAYER
 62
  256
 10
279.0218373700514
 20
696.8421466498502
 30
0
  0
VERTEX
  5
3D2
  8
8
  6
BYLAYER
 62
  256
 10
285.3040503438595
 20
698.7056569918091
 30
0
  0
VERTEX
  5
3D3
  8
8
  6
BYLAYER
 62
  256
 10
295.7769512538469
 20
701.9552525482277
 30
0
  0
VERTEX
  5
3D4
  8
8
  6
BYLAYER
 62
  256
 10
303.0864891770487
 20
704.3808827446128
 30
0
  0
VERTEX
  5
3D5
  8
8
  6
BYLAYER
 62
  256
 10
310.5258279479115
 20
707.0452018106034
 30
0
  0
VERTEX
  5
3D6
  8
8
  6
BYLAYER
 62
  256
 10
317.9540318376842
 20
709.9635994974801
 30
0
  0
VERTEX
  5
3D7
  8
8
  6
BYLAYER
 62
  256
 10
325.2301651176153
 20
713.1514655565228
 30
0
  0
VERTEX
  5
3D8
  8
8
  6
BYLAYER
 62
  256
 10
330.4902274613049
 20
715.7377241309468
 30
0
  0
VERTEX
  5
3D9
  8
8
  6
BYLAYER
 62
  256
 10
333.882113898185
 20
717.5481863314182
 30
0
  0
VERTEX
  5
3DA
  8
8
  6
BYLAYER
 62
  256
 10
337.1567063351823
 20
719.4346723600262
 30
0
  0
VERTEX
  5
3DB
  8
8
  6
BYLAYER
 62
  256
 10
340.2963878062028
 20
721.3991059356812
 30
0
  0
VERTEX
  5
3DC
  8
8
  6
BYLAYER
 62
  256
 10
343.2835413451526
 20
723.443410777293
 30
0
  0
VERTEX
  5
3DD
  8
8
  6
BYLAYER
 62
  256
 10
346.1005499859376
 20
725.5695106037716
 30
0
  0
VERTEX
  5
3DE
  8
8
  6
BYLAYER
 62
  256
 10
348.7297967624641
 20
727.7793291340272
 30
0
  0
VERTEX
  5
3DF
  8
8
  6
BYLAYER
 62
  256
 10
351.1536647086384
 20
730.0747900869696
 30
0
  0
VERTEX
  5
3E0
  8
8
  6
BYLAYER
 62
  256
 10
353.354536858366
 20
732.4578171815092
 30
0
  0
VERTEX
  5
3E1
  8
8
  6
BYLAYER
 62
  256
 10
355.3147962455535
 20
734.9303341365559
 30
0
  0
VERTEX
  5
3E2
  8
8
  6
BYLAYER
 62
  256
 10
357.0168259041069
 20
737.4942646710197
 30
0
  0
VERTEX
  5
3E3
  8
8
  6
BYLAYER
 62
  256
 10
358.4430088679321
 20
740.1515325038105
 30
0
  0
VERTEX
  5
3E4
  8
8
  6
BYLAYER
 62
  256
 10
359.5757281709354
 20
742.9040613538385
 30
0
  0
VERTEX
  5
3E5
  8
8
  6
BYLAYER
 62
  256
 10
360.3973668470229
 20
745.753774940014
 30
0
  0
VERTEX
  5
3E6
  8
8
  6
BYLAYER
 62
  256
 10
360.8903079301004
 20
748.7025969812465
 30
0
  0
VERTEX
  5
3E7
  8
8
  6
BYLAYER
 62
  256
 10
361.0369344540744
 20
751.7524511964465
 30
0
  0
VERTEX
  5
3E8
  8
8
  6
BYLAYER
 62
  256
 10
360.8196294528508
 20
754.9052613045238
 30
0
  0
VERTEX
  5
3E9
  8
8
  6
BYLAYER
 62
  256
 10
360.2207759603357
 20
758.1629510243886
 30
0
  0
VERTEX
  5
3EA
  8
8
  6
BYLAYER
 62
  256
 10
359.7557643137548
 20
759.8362171171569
 30
0
  0
VERTEX
  5
3EB
  8
8
  6
BYLAYER
 62
  256
 10
533.5507487921632
 20
811.3895077022373
 30
0
  0
VERTEX
  5
3EC
  8
8
  6
BYLAYER
 62
  256
 10
688.4064133325146
 20
857.3247750331901
 30
0
  0
SEQEND
  5
3ED
  8
8
  6
BYLAYER
 62
  256
  0
POLYLINE
  5
3EE
  8
8
  6
BYLAYER
 62
  256
 66
    1
 10
0
 20
0
 30
0
 70
    0
  0
VERTEX
  5
3EF
  8
8
  6
BYLAYER
 62
  256
 10
356.604479553778
 20
736.8731078109909
 30
0
  0
VERTEX
  5
3F0
  8
8
  6
BYLAYER
 62
  256
 10
356.604479553778
 20
736.8731078109909
 30
0
  0
VERTEX
  5
3F1
  8
8
  6
BYLAYER
 62
  256
 10
357.4970619811235
 20
737.1830032772424
 30
0
  0
VERTEX
  5
3F2
  8
8
  6
BYLAYER
 62
  256
 10
359.6265251483176
 20
737.775003505088
 30
0
  0
VERTEX
  5
3F3
  8
8
  6
BYLAYER
 62
  256
 10
361.7739309060525
 20
738.2074079990173
 30
0
  0
VERTEX
  5
3F4
  8
8
  6
BYLAYER
 62
  256
 10
363.939500390327
 20
738.4617958661422
 30
0
  0
VERTEX
  5
3F5
  8
8
  6
BYLAYER
 62
  256
 10
366.1234547371402
 20
738.5197462135757
 30
0
  0
VERTEX
  5
3F6
  8
8
  6
BYLAYER
 62
  256
 10
367.2231751959376
 20
738.4599645859213
 30
0
  0
VERTEX
  5
3F7
  8
8
  6
BYLAYER
 62
  256
 10
369.3300431779769
 20
738.2761366614733
 30
0
  0
VERTEX
  5
3F8
  8
8
  6
BYLAYER
 62
  256
 10
373.5009555531419
 20
737.6004378018666
 30
0
  0
VERTEX
  5
3F9
  8
8
  6
BYLAYER
 62
  256
 10
377.6268084152597
 20
736.6019316544177
 30
0
  0
VERTEX
  5
3FA
  8
8
  6
BYLAYER
 62
  256
 10
381.7146337572733
 20
735.3326674691378
 30
0
  0
VERTEX
  5
3FB
  8
8
  6
BYLAYER
 62
  256
 10
385.7714635721259
 20
733.8446944960384
 30
0
  0
VERTEX
  5
3FC
  8
8
  6
BYLAYER
 62
  256
 10
389.8043298527607
 20
732.1900619851308
 30
0
  0
VERTEX
  5
3FD
  8
8
  6
BYLAYER
 62
  256
 10
395.8248780756001
 20
729.5140513713767
 30
0
  0
VERTEX
  5
3FE
  8
8
  6
BYLAYER
 62
  256
 10
403.8312133468806
 20
725.8294201228503
 30
0
  0
VERTEX
  5
3FF
  8
8
  6
BYLAYER
 62
  256
 10
409.855327995678
 20
723.238730113872
 30
0
  0
VERTEX
  5
400
  8
8
  6
BYLAYER
 62
  256
 10
413.8920849228122
 20
721.6771746263561
 30
0
  0
VERTEX
  5
401
  8
8
  6
BYLAYER
 62
  256
 10
417.9541022663306
 20
720.3133043511122
 30
0
  0
VERTEX
  5
402
  8
8
  6
BYLAYER
 62
  256
 10
422.0484120191769
 20
719.1991685381518
 30
0
  0
VERTEX
  5
403
  8
8
  6
BYLAYER
 62
  256
 10
426.1820461742936
 20
718.3868164374861
 30
0
  0
VERTEX
  5
404
  8
8
  6
BYLAYER
 62
  256
 10
429.313922062561
 20
718.0191859845097
 30
0
  0
VERTEX
  5
405
  8
8
  6
BYLAYER
 62
  256
 10
431.4168249352065
 20
717.8881438902839
 30
0
  0
VERTEX
  5
406
  8
8
  6
BYLAYER
 62
  256
 10
432.4739841618153
 20
717.8659865996626
 30
0
  0
VERTEX
  5
407
  8
8
  6
BYLAYER
 62
  256
 10
436.3377369640727
 20
717.8281729710013
 30
0
  0
VERTEX
  5
408
  8
8
  6
BYLAYER
 62
  256
 10
444.1065954176332
 20
717.8572893526116
 30
0
  0
VERTEX
  5
409
  8
8
  6
BYLAYER
 62
  256
 10
451.9155157653824
 20
718.0175870328183
 30
0
  0
VERTEX
  5
40A
  8
8
  6
BYLAYER
 62
  256
 10
459.7538740910247
 20
718.3151648248183
 30
0
  0
VERTEX
  5
40B
  8
8
  6
BYLAYER
 62
  256
 10
467.6110464782647
 20
718.7561215418092
 30
0
  0
VERTEX
  5
40C
  8
8
  6
BYLAYER
 62
  256
 10
475.476409010807
 20
719.3465559969879
 30
0
  0
VERTEX
  5
40D
  8
8
  6
BYLAYER
 62
  256
 10
483.3393377723562
 20
720.0925670035518
 30
0
  0
VERTEX
  5
40E
  8
8
  6
BYLAYER
 62
  256
 10
491.1892088466165
 20
721.000253374698
 30
0
  0
VERTEX
  5
40F
  8
8
  6
BYLAYER
 62
  256
 10
499.0153983172923
 20
722.0757139236235
 30
0
  0
VERTEX
  5
410
  8
8
  6
BYLAYER
 62
  256
 10
506.8072822680886
 20
723.3250474635258
 30
0
  0
VERTEX
  5
411
  8
8
  6
BYLAYER
 62
  256
 10
514.5542367827096
 20
724.7543528076018
 30
0
  0
VERTEX
  5
412
  8
8
  6
BYLAYER
 62
  256
 10
522.2456379448599
 20
726.3697287690488
 30
0
  0
VERTEX
  5
413
  8
8
  6
BYLAYER
 62
  256
 10
529.870861838244
 20
728.1772741610642
 30
0
  0
VERTEX
  5
414
  8
8
  6
BYLAYER
 62
  256
 10
537.4192845465661
 20
730.1830877968448
 30
0
  0
VERTEX
  5
415
  8
8
  6
BYLAYER
 62
  256
 10
544.8802821535312
 20
732.393268489588
 30
0
  0
VERTEX
  5
416
  8
8
  6
BYLAYER
 62
  256
 10
552.2432307428434
 20
734.813915052491
 30
0
  0
VERTEX
  5
417
  8
8
  6
BYLAYER
 62
  256
 10
555.8798673115333
 20
736.1142195014579
 30
0
  0
VERTEX
  5
418
  8
8
  6
BYLAYER
 62
  256
 10
557.6487696718605
 20
736.7931071362111
 30
0
  0
VERTEX
  5
419
  8
8
  6
BYLAYER
 62
  256
 10
561.0235395045029
 20
738.4290337930419
 30
0
  0
VERTEX
  5
41A
  8
8
  6
BYLAYER
 62
  256
 10
564.2205987755301
 20
740.3678071386549
 30
0
  0
VERTEX
  5
41B
  8
8
  6
BYLAYER
 62
  256
 10
567.259871156052
 20
742.5750549774873
 30
0
  0
VERTEX
  5
41C
  8
8
  6
BYLAYER
 62
  256
 10
570.1612803171788
 20
745.016405113976
 30
0
  0
VERTEX
  5
41D
  8
8
  6
BYLAYER
 62
  256
 10
572.9447499300209
 20
747.6574853525578
 30
0
  0
VERTEX
  5
41E
  8
8
  6
BYLAYER
 62
  256
 10
575.6302036656881
 20
750.4639234976703
 30
0
  0
VERTEX
  5
41F
  8
8
  6
BYLAYER
 62
  256
 10
578.2375651952907
 20
753.4013473537497
 30
0
  0
VERTEX
  5
420
  8
8
  6
BYLAYER
 62
  256
 10
584.5502893076612
 20
761.0857250544869
 30
0
  0
VERTEX
  5
421
  8
8
  6
BYLAYER
 62
  256
 10
592.0660680204141
 20
770.3740948515265
 30
0
  0
VERTEX
  5
422
  8
8
  6
BYLAYER
 62
  256
 10
595.9761025059494
 20
774.743649826093
 30
0
  0
VERTEX
  5
423
  8
8
  6
BYLAYER
 62
  256
 10
598.6759785469994
 20
777.4915603296409
 30
0
  0
VERTEX
  5
424
  8
8
  6
BYLAYER
 62
  256
 10
600.067261762031
 20
778.7926294024385
 30
0
  0
VERTEX
  5
425
  8
8
  6
BYLAYER
 62
  256
 10
603.2936150627064
 20
781.7872139235898
 30
0
  0
VERTEX
  5
426
  8
8
  6
BYLAYER
 62
  256
 10
609.7837227359541
 20
787.9023474904476
 30
0
  0
VERTEX
  5
427
  8
8
  6
BYLAYER
 62
  256
 10
614.7766873864143
 20
792.3765394896371
 30
0
  0
VERTEX
  5
428
  8
8
  6
BYLAYER
 62
  256
 10
618.194177353138
 20
795.2302521174822
 30
0
  0
VERTEX
  5
429
  8
8
  6
BYLAYER
 62
  256
 10
621.7093707155161
 20
797.9240648883406
 30
0
  0
VERTEX
  5
42A
  8
8
  6
BYLAYER
 62
  256
 10
625.3423798163591
 20
800.4120035663157
 30
0
  0
VERTEX
  5
42B
  8
8
  6
BYLAYER
 62
  256
 10
627.2155163863616
 20
801.5529516948076
 30
0
  0
VERTEX
  5
42C
  8
8
  6
BYLAYER
 62
  256
 10
631.5012469581585
 20
804.0704082227456
 30
0
  0
VERTEX
  5
42D
  8
8
  6
BYLAYER
 62
  256
 10
640.2146847500711
 20
808.9652816636759
 30
0
  0
VERTEX
  5
42E
  8
8
  6
BYLAYER
 62
  256
 10
649.0710681062906
 20
813.7023603253109
 30
0
  0
VERTEX
  5
42F
  8
8
  6
BYLAYER
 62
  256
 10
658.0399232338447
 20
818.2930361616945
 30
0
  0
VERTEX
  5
430
  8
8
  6
BYLAYER
 62
  256
 10
667.090776339761
 20
822.7487011268711
 30
0
  0
VERTEX
  5
431
  8
8
  6
BYLAYER
 62
  256
 10
676.1931536310668
 20
827.0807471748848
 30
0
  0
VERTEX
  5
432
  8
8
  6
BYLAYER
 62
  256
 10
689.8797485306346
 20
833.3838430557031
 30
0
  0
VERTEX
  5
433
  8
8
  6
BYLAYER
 62
  256
 10
694.8501458757784
 20
835.6018474638756
 30
0
  0
VERTEX
  5
434
  8
8
  6
BYLAYER
 62
  256
 10
694.8501458757784
 20
835.6018474638756
 30
0
  0
SEQEND
  5
435
  8
8
  6
BYLAYER
 62
  256
  0
POLYLINE
  5
436
  8
8
  6
BYLAYER
 62
  256
 66
    1
 10
0
 20
0
 30
0
 70
    0
  0
VERTEX
  5
437
  8
8
  6
BYLAYER
 62
  256
 10
480.8229185120598
 20
318.1114453510888
 30
0
  0
VERTEX
  5
438
  8
8
  6
BYLAYER
 62
  256
 10
480.8229185120598
 20
318.1114453510888
 30
0
  0
VERTEX
  5
439
  8
8
  6
BYLAYER
 62
  256
 10
481.7401076248697
 20
318.3383874603418
 30
0
  0
VERTEX
  5
43A
  8
8
  6
BYLAYER
 62
  256
 10
483.8479402127282
 20
319.0033080809933
 30
0
  0
VERTEX
  5
43B
  8
8
  6
BYLAYER
 62
  256
 10
485.8837879679637
 20
319.8117937346854
 30
0
  0
VERTEX
  5
43C
  8
8
  6
BYLAYER
 62
  256
 10
487.8377916146566
 20
320.7794063260007
 30
0
  0
VERTEX
  5
43D
  8
8
  6
BYLAYER
 62
  256
 10
489.7000918768877
 20
321.9217077595225
 30
0
  0
VERTEX
  5
43E
  8
8
  6
BYLAYER
 62
  256
 10
490.5893350360078
 20
322.5714812080881
 30
0
  0
VERTEX
  5
43F
  8
8
  6
BYLAYER
 62
  256
 10
492.2551794628275
 20
323.8744193283312
 30
0
  0
VERTEX
  5
440
  8
8
  6
BYLAYER
 62
  256
 10
495.3830000772567
 20
326.7151616950603
 30
0
  0
VERTEX
  5
441
  8
8
  6
BYLAYER
 62
  256
 10
498.2970274437653
 20
329.8019271337643
 30
0
  0
VERTEX
  5
442
  8
8
  6
BYLAYER
 62
  256
 10
501.0315378280557
 20
333.0949197783129
 30
0
  0
VERTEX
  5
443
  8
8
  6
BYLAYER
 62
  256
 10
503.6208074958296
 20
336.5543437625765
 30
0
  0
VERTEX
  5
444
  8
8
  6
BYLAYER
 62
  256
 10
506.0991127127891
 20
340.1404032204249
 30
0
  0
VERTEX
  5
445
  8
8
  6
BYLAYER
 62
  256
 10
509.6866507474946
 20
345.6664872369777
 30
0
  0
VERTEX
  5
446
  8
8
  6
BYLAYER
 62
  256
 10
514.3887896649521
 20
353.1208686006257
 30
0
  0
VERTEX
  5
447
  8
8
  6
BYLAYER
 62
  256
 10
518.0258413349432
 20
358.5773772988951
 30
0
  0
VERTEX
  5
448
  8
8
  6
BYLAYER
 62
  256
 10
520.5581614267594
 20
362.0875364095253
 30
0
  0
VERTEX
  5
449
  8
8
  6
BYLAYER
 62
  256
 10
523.2194509276756
 20
365.4457599308313
 30
0
  0
VERTEX
  5
44A
  8
8
  6
BYLAYER
 62
  256
 10
526.043986103394
 20
368.6122519966828
 30
0
  0
VERTEX
  5
44B
  8
8
  6
BYLAYER
 62
  256
 10
529.0660432196163
 20
371.5472167409504
 30
0
  0
VERTEX
  5
44C
  8
8
  6
BYLAYER
 62
  256
 10
531.4908761902465
 20
373.5631492284141
 30
0
  0
VERTEX
  5
44D
  8
8
  6
BYLAYER
 62
  256
 10
533.1821802028314
 20
374.819677484863
 30
0
  0
VERTEX
  5
44E
  8
8
  6
BYLAYER
 62
  256
 10
534.0562623888164
 20
375.4147042977675
 30
0
  0
VERTEX
  5
44F
  8
8
  6
BYLAYER
 62
  256
 10
537.2744358230502
 20
377.5532494421722
 30
0
  0
VERTEX
  5
450
  8
8
  6
BYLAYER
 62
  256
 10
543.8025619104492
 20
381.7650874283908
 30
0
  0
VERTEX
  5
451
  8
8
  6
BYLAYER
 62
  256
 10
550.435801142112
 20
385.8888077922494
 30
0
  0
VERTEX
  5
452
  8
8
  6
BYLAYER
 62
  256
 10
557.1685736086449
 20
389.9135051345789
 30
0
  0
VERTEX
  5
453
  8
8
  6
BYLAYER
 62
  256
 10
563.9952994006547
 20
393.8282740562107
 30
0
  0
VERTEX
  5
454
  8
8
  6
BYLAYER
 62
  256
 10
570.9103986087484
 20
397.6222091579756
 30
0
  0
VERTEX
  5
455
  8
8
  6
BYLAYER
 62
  256
 10
577.9082913235325
 20
401.2844050407056
 30
0
  0
VERTEX
  5
456
  8
8
  6
BYLAYER
 62
  256
 10
584.9833976356134
 20
404.8039563052313
 30
0
  0
VERTEX
  5
457
  8
8
  6
BYLAYER
 62
  256
 10
592.1301376355981
 20
408.169957552384
 30
0
  0
VERTEX
  5
458
  8
8
  6
BYLAYER
 62
  256
 10
599.3429314140932
 20
411.3715033829952
 30
0
  0
VERTEX
  5
459
  8
8
  6
BYLAYER
 62
  256
 10
606.6161990617053
 20
414.3976883978958
 30
0
  0
VERTEX
  5
45A
  8
8
  6
BYLAYER
 62
  256
 10
613.9443606690411
 20
417.2376071979175
 30
0
  0
VERTEX
  5
45B
  8
8
  6
BYLAYER
 62
  256
 10
621.3218363267074
 20
419.8803543838912
 30
0
  0
VERTEX
  5
45C
  8
8
  6
BYLAYER
 62
  256
 10
628.7430461253107
 20
422.3150245566478
 30
0
  0
VERTEX
  5
45D
  8
8
  6
BYLAYER
 62
  256
 10
636.202410155458
 20
424.5307123170193
 30
0
  0
VERTEX
  5
45E
  8
8
  6
BYLAYER
 62
  256
 10
643.6943485077554
 20
426.5165122658363
 30
0
  0
VERTEX
  5
45F
  8
8
  6
BYLAYER
 62
  256
 10
647.451797852111
 20
427.4095361274091
 30
0
  0
VERTEX
  5
460
  8
8
  6
BYLAYER
 62
  256
 10
649.3047686007548
 20
427.8050148065599
 30
0
  0
VERTEX
  5
461
  8
8
  6
BYLAYER
 62
  256
 10
653.0257179048215
 20
428.2739110919027
 30
0
  0
VERTEX
  5
462
  8
8
  6
BYLAYER
 62
  256
 10
656.7628391116183
 20
428.3920430258954
 30
0
  0
VERTEX
  5
463
  8
8
  6
BYLAYER
 62
  256
 10
660.5140905929178
 20
428.1990872043158
 30
0
  0
VERTEX
  5
464
  8
8
  6
BYLAYER
 62
  256
 10
664.2774307204925
 20
427.7347202229413
 30
0
  0
VERTEX
  5
465
  8
8
  6
BYLAYER
 62
  256
 10
668.0508178661146
 20
427.0386186775496
 30
0
  0
VERTEX
  5
466
  8
8
  6
BYLAYER
 62
  256
 10
671.8322104015566
 20
426.1504591639187
 30
0
  0
VERTEX
  5
467
  8
8
  6
BYLAYER
 62
  256
 10
675.619566698591
 20
425.109918277826
 30
0
  0
VERTEX
  5
468
  8
8
  6
BYLAYER
 62
  256
 10
685.1013894236519
 20
422.1107210223905
 30
0
  0
VERTEX
  5
469
  8
8
  6
BYLAYER
 62
  256
 10
696.4663066620571
 20
418.422984682869
 30
0
  0
VERTEX
  5
46A
  8
8
  6
BYLAYER
 62
  256
 10
702.1265493312974
 20
416.8922876915787
 30
0
  0
VERTEX
  5
46B
  8
8
  6
BYLAYER
 62
  256
 10
705.8881171048766
 20
416.0610532737904
 30
0
  0
VERTEX
  5
46C
  8
8
  6
BYLAYER
 62
  256
 10
707.7638148543192
 20
415.7290778690463
 30
0
  0
VERTEX
  5
46D
  8
8
  6
BYLAYER
 62
  256
 10
712.1012101764385
 20
414.9781491808507
 30
0
  0
VERTEX
  5
46E
  8
8
  6
BYLAYER
 62
  256
 10
720.8760388988394
 20
413.3910962380078
 30
0
  0
VERTEX
  5
46F
  8
8
  6
BYLAYER
 62
  256
 10
727.5011053398538
 20
412.3631931791053
 30
0
  0
VERTEX
  5
470
  8
8
  6
BYLAYER
 62
  256
 10
731.921905683025
 20
411.8345744499649
 30
0
  0
VERTEX
  5
471
  8
8
  6
BYLAYER
 62
  256
 10
736.337414893121
 20
411.4932680847986
 30
0
  0
VERTEX
  5
472
  8
8
  6
BYLAYER
 62
  256
 10
740.739423073276
 20
411.3887789752136
 30
0
  0
VERTEX
  5
473
  8
8
  6
BYLAYER
 62
  256
 10
742.9317230228866
 20
411.4537726112658
 30
0
  0
VERTEX
  5
474
  8
8
  6
BYLAYER
 62
  256
 10
747.8969709428521
 20
411.6804596143595
 30
0
  0
VERTEX
  5
475
  8
8
  6
BYLAYER
 62
  256
 10
757.8701172244396
 20
412.3286396837181
 30
0
  0
VERTEX
  5
476
  8
8
  6
BYLAYER
 62
  256
 10
767.8770445107291
 20
413.1870374270467
 30
0
  0
VERTEX
  5
477
  8
8
  6
BYLAYER
 62
  256
 10
777.8984199958485
 20
414.2294866200823
 30
0
  0
VERTEX
  5
478
  8
8
  6
BYLAYER
 62
  256
 10
787.9149108739248
 20
415.4298210385622
 30
0
  0
VERTEX
  5
479
  8
8
  6
BYLAYER
 62
  256
 10
797.9071843390857
 20
416.7618744582236
 30
0
  0
VERTEX
  5
47A
  8
8
  6
BYLAYER
 62
  256
 10
812.8169650532147
 20
418.9414011692912
 30
0
  0
VERTEX
  5
47B
  8
8
  6
BYLAYER
 62
  256
 10
818.1928483685689
 20
419.7924428268971
 30
0
  0
VERTEX
  5
47C
  8
8
  6
BYLAYER
 62
  256
 10
818.1928483685689
 20
419.7924428268971
 30
0
  0
SEQEND
  5
47D
  8
8
  6
BYLAYER
 62
  256
  0
POLYLINE
  5
47E
  8
8
  6
BYLAYER
 62
  256
 66
    1
 10
0
 20
0
 30
0
 70
    0
  0
VERTEX
  5
47F
  8
8
  6
BYLAYER
 62
  256
 10
490.5893350360078
 20
322.5714812080881
 30
0
  0
VERTEX
  5
480
  8
8
  6
BYLAYER
 62
  256
 10
367.2231751959376
 20
738.4599645859213
 30
0
  0
SEQEND
  5
481
  8
8
  6
BYLAYER
 62
  256
  0
POLYLINE
  5
482
  8
8
  6
BYLAYER
 62
  256
 66
    1
 10
0
 20
0
 30
0
 70
    0
  0
VERTEX
  5
483
  8
8
  6
BYLAYER
 62
  256
 10
647.451797852111
 20
427.4095361274091
 30
0
  0
VERTEX
  5
484
  8
8
  6
BYLAYER
 62
  256
 10
555.8798673115333
 20
736.1142195014579
 30
0
  0
SEQEND
  5
485
  8
8
  6
BYLAYER
 62
  256
  0
LINE
  5
486
  8
7
  6
BYLAYER
 62
  256
 10
293.680181855384
 20
490.4032359319473
 11
756.5214971221736
 21
627.6971451453863
  0
TEXT
  5
487
  8
1
  6
BYLAYER
 62
  256
 10
390.7192563228667
 20
578.8416108013151
 30
0
 40
2.5
  1
Piece Name: Sweatshirt Front
 50
0
 41
1
 51
0
  7
STANDARD
 71
    0
210
0
220
0
230
1
  0
TEXT
  5
488
  8
1
  6
BYLAYER
 62
  256
 10
390.7192563228667
 20
576.3416108013153
 30
0
 40
2.5
  1
File Name: GBlock-201-Sweatshirt-Parametric-Scalable-V4-Hood-csr0052a-EXTRA
 50
0
 41
1
 51
0
  7
STANDARD
 71
    0
210
0
220
0
230
1
  0
TEXT
  5
489
  8
1
  6
BYLAYER
 62
  256
 10
390.7192563228667
 20
573.8416108013151
 30
0
 40
2.5
  1
Measurement Name: csr0052a-EXTRA
 50
0
 41
1
 51
0
  7
STANDARD
 71
    0
210
0
220
0
230
1
  0
TEXT
  5
48A
  8
1
  6
BYLAYER
 62
  256
 10
390.7192563228667
 20
571.3416108013151
 30
0
 40
2.5
  1
Date: 03-25-2026
 50
0
 41
1
 51
0
  7
STANDARD
 71
    0
210
0
220
0
230
1
  0
ENDBLK
  8
1
  0
BLOCK
  8
1
  2
COLLAR
 70
    0
 10
0
 20
0
  3
COLLAR
  1

  0
POLYLINE
  5
48B
  8
1
  6
BYLAYER
 62
  256
 66
    1
 10
0
 20
0
 30
0
 70
    1
  0
VERTEX
  5
48C
  8
1
  6
BYLAYER
 62
  256
 10
253.9786444161083
 20
1603.076531239434
 30
0
  0
VERTEX
  5
48D
  8
1
  6
BYLAYER
 62
  256
 10
57.24777371752721
 20
1293.75200076956
 30
0
  0
VERTEX
  5
48E
  8
1
  6
BYLAYER
 62
  256
 10
3.244582765628119
 20
1328.098112150803
 30
0
  0
VERTEX
  5
48F
  8
1
  6
BYLAYER
 62
  256
 10
199.9754534642092
 20
1637.422642620677
 30
0
  0
VERTEX
  5
490
  8
1
  6
BYLAYER
 62
  256
 10
253.9786444161083
 20
1603.076531239434
 30
0
  0
SEQEND
  5
491
  8
1
  6
BYLAYER
 62
  256
  0
POLYLINE
  5
492
  8
8
  6
BYLAYER
 62
  256
 66
    1
 10
0
 20
0
 30
0
 70
    1
  0
VERTEX
  5
493
  8
8
  6
BYLAYER
 62
  256
 10
56.7077546104824
 20
1305.946605288118
 30
0
  0
VERTEX
  5
494
  8
8
  6
BYLAYER
 62
  256
 10
14.51776167931123
 20
1332.779504804714
 30
0
  0
VERTEX
  5
495
  8
8
  6
BYLAYER
 62
  256
 10
200.5154725712541
 20
1625.228038102119
 30
0
  0
VERTEX
  5
496
  8
8
  6
BYLAYER
 62
  256
 10
242.7054655024252
 20
1598.395138585524
 30
0
  0
SEQEND
  5
497
  8
8
  6
BYLAYER
 62
  256
  0
POLYLINE
  5
498
  8
8
  6
BYLAYER
 62
  256
 66
    1
 10
0
 20
0
 30
0
 70
    0
  0
VERTEX
  5
499
  8
8
  6
BYLAYER
 62
  256
 10
35.61275814489682
 20
1319.363055046416
 30
0
  0
VERTEX
  5
49A
  8
8
  6
BYLAYER
 62
  256
 10
221.6104690368397
 20
1611.811588343821
 30
0
  0
SEQEND
  5
49B
  8
8
  6
BYLAYER
 62
  256
  0
LINE
  5
49C
  8
7
  6
BYLAYER
 62
  256
 10
158.4677005911104
 20
1559.361856991602
 11
200.8299130734266
 21
1532.419425579179
  0
TEXT
  5
49D
  8
1
  6
BYLAYER
 62
  256
 10
134.3495166418784
 20
1528.693764384588
 30
0
 40
2.5
  1
Piece Name: Collar
 50
0
 41
1
 51
0
  7
STANDARD
 71
    0
210
0
220
0
230
1
  0
TEXT
  5
49E
  8
1
  6
BYLAYER
 62
  256
 10
134.3495166418784
 20
1526.193764384588
 30
0
 40
2.5
  1
File Name: GBlock-201-Sweatshirt-Parametric-Scalable-V4-Hood-csr0052a-EXTRA
 50
0
 41
1
 51
0
  7
STANDARD
 71
    0
210
0
220
0
230
1
  0
TEXT
  5
49F
  8
1
  6
BYLAYER
 62
  256
 10
134.3495166418784
 20
1523.693764384588
 30
0
 40
2.5
  1
Measurement Name: csr0052a-EXTRA
 50
0
 41
1
 51
0
  7
STANDARD
 71
    0
210
0
220
0
230
1
  0
TEXT
  5
4A0
  8
1
  6
BYLAYER
 62
  256
 10
134.3495166418784
 20
1521.193764384588
 30
0
 40
2.5
  1
Date: 03-25-2026
 50
0
 41
1
 51
0
  7
STANDARD
 71
    0
210
0
220
0
230
1
  0
ENDBLK
  8
1
  0
BLOCK
  8
1
  2
RIB_HEM
 70
    0
 10
0
 20
0
  3
RIB_HEM
  1

  0
POLYLINE
  5
4A1
  8
1
  6
BYLAYER
 62
  256
 66
    1
 10
0
 20
0
 30
0
 70
    1
  0
VERTEX
  5
4A2
  8
1
  6
BYLAYER
 62
  256
 10
176.3037482217871
 20
693.3883972677615
 30
0
  0
VERTEX
  5
4A3
  8
1
  6
BYLAYER
 62
  256
 10
183.6603785344015
 20
2.779278964699138
 30
0
  0
VERTEX
  5
4A4
  8
1
  6
BYLAYER
 62
  256
 10
39.66854790853731
 20
1.24542336117933
 30
0
  0
VERTEX
  5
4A5
  8
1
  6
BYLAYER
 62
  256
 10
32.31191759592301
 20
691.8545416642419
 30
0
  0
VERTEX
  5
4A6
  8
1
  6
BYLAYER
 62
  256
 10
176.3037482217871
 20
693.3883972677615
 30
0
  0
SEQEND
  5
4A7
  8
1
  6
BYLAYER
 62
  256
  0
POLYLINE
  5
4A8
  8
8
  6
BYLAYER
 62
  256
 66
    1
 10
0
 20
0
 30
0
 70
    1
  0
VERTEX
  5
4A9
  8
8
  6
BYLAYER
 62
  256
 10
176.5542579065109
 20
12.70414922187995
 30
0
  0
VERTEX
  5
4AA
  8
8
  6
BYLAYER
 62
  256
 10
46.561633035939
 20
11.31941846870218
 30
0
  0
VERTEX
  5
4AB
  8
8
  6
BYLAYER
 62
  256
 10
39.41803822381361
 20
681.9296714070612
 30
0
  0
VERTEX
  5
4AC
  8
8
  6
BYLAYER
 62
  256
 10
169.4106630943855
 20
683.3144021602388
 30
0
  0
SEQEND
  5
4AD
  8
8
  6
BYLAYER
 62
  256
  0
POLYLINE
  5
4AE
  8
8
  6
BYLAYER
 62
  256
 66
    1
 10
0
 20
0
 30
0
 70
    0
  0
VERTEX
  5
4AF
  8
8
  6
BYLAYER
 62
  256
 10
104.4143506590995
 20
682.6220367836501
 30
0
  0
VERTEX
  5
4B0
  8
8
  6
BYLAYER
 62
  256
 10
111.5579454712249
 20
12.01178384529106
 30
0
  0
SEQEND
  5
4B1
  8
8
  6
BYLAYER
 62
  256
  0
LINE
  5
4B2
  8
7
  6
BYLAYER
 62
  256
 10
146.095210373327
 20
43.21811241108092
 11
46.10088354981028
 21
42.15293490863646
  0
TEXT
  5
4B3
  8
1
  6
BYLAYER
 62
  256
 10
133.5173185222636
 20
305.0860412783233
 30
0
 40
2.5
  1
Piece Name: Rib Hem
 50
0
 41
1
 51
0
  7
STANDARD
 71
    0
210
0
220
0
230
1
  0
TEXT
  5
4B4
  8
1
  6
BYLAYER
 62
  256
 10
133.5173185222636
 20
302.5860412783234
 30
0
 40
2.5
  1
File Name: GBlock-201-Sweatshirt-Parametric-Scalable-V4-Hood-csr0052a-EXTRA
 50
0
 41
1
 51
0
  7
STANDARD
 71
    0
210
0
220
0
230
1
  0
TEXT
  5
4B5
  8
1
  6
BYLAYER
 62
  256
 10
133.5173185222636
 20
300.0860412783232
 30
0
 40
2.5
  1
Measurement Name: csr0052a-EXTRA
 50
0
 41
1
 51
0
  7
STANDARD
 71
    0
210
0
220
0
230
1
  0
TEXT
  5
4B6
  8
1
  6
BYLAYER
 62
  256
 10
133.5173185222636
 20
297.5860412783233
 30
0
 40
2.5
  1
Date: 03-25-2026
 50
0
 41
1
 51
0
  7
STANDARD
 71
    0
210
0
220
0
230
1
  0
ENDBLK
  8
1
  0
BLOCK
  8
1
  2
RIB_CUFF
 70
    0
 10
0
 20
0
  3
RIB_CUFF
  1

  0
POLYLINE
  5
4B7
  8
1
  6
BYLAYER
 62
  256
 66
    1
 10
0
 20
0
 30
0
 70
    1
  0
VERTEX
  5
4B8
  8
1
  6
BYLAYER
 62
  256
 10
53.19285176818217
 20
996.6709715716402
 30
0
  0
VERTEX
  5
4B9
  8
1
  6
BYLAYER
 62
  256
 10
173.8418321128616
 20
1075.282825269344
 30
0
  0
VERTEX
  5
4BA
  8
1
  6
BYLAYER
 62
  256
 10
278.2040084332018
 20
915.1137214085031
 30
0
  0
VERTEX
  5
4BB
  8
1
  6
BYLAYER
 62
  256
 10
157.5550280885223
 20
836.5018677107996
 30
0
  0
VERTEX
  5
4BC
  8
1
  6
BYLAYER
 62
  256
 10
53.19285176818217
 20
996.6709715716402
 30
0
  0
SEQEND
  5
4BD
  8
1
  6
BYLAYER
 62
  256
  0
POLYLINE
  5
4BE
  8
8
  6
BYLAYER
 62
  256
 66
    1
 10
0
 20
0
 30
0
 70
    1
  0
VERTEX
  5
4BF
  8
8
  6
BYLAYER
 62
  256
 10
173.436107630669
 20
1063.083014301769
 30
0
  0
VERTEX
  5
4C0
  8
8
  6
BYLAYER
 62
  256
 10
266.8799709374391
 20
919.6707132665787
 30
0
  0
VERTEX
  5
4C1
  8
8
  6
BYLAYER
 62
  256
 10
157.9607525707147
 20
848.7016786783742
 30
0
  0
VERTEX
  5
4C2
  8
8
  6
BYLAYER
 62
  256
 10
64.51688926394448
 20
992.1139797135647
 30
0
  0
SEQEND
  5
4C3
  8
8
  6
BYLAYER
 62
  256
  0
POLYLINE
  5
4C4
  8
8
  6
BYLAYER
 62
  256
 66
    1
 10
0
 20
0
 30
0
 70
    0
  0
VERTEX
  5
4C5
  8
8
  6
BYLAYER
 62
  256
 10
212.4203617540771
 20
884.1861959724765
 30
0
  0
VERTEX
  5
4C6
  8
8
  6
BYLAYER
 62
  256
 10
118.9764984473068
 20
1027.598497007667
 30
0
  0
SEQEND
  5
4C7
  8
8
  6
BYLAYER
 62
  256
  0
LINE
  5
4C8
  8
7
  6
BYLAYER
 62
  256
 10
182.3454454237238
 20
866.4733200473535
 11
266.1294595519734
 21
921.0648851152031
  0
TEXT
  5
4C9
  8
1
  6
BYLAYER
 62
  256
 10
117.4566440347046
 20
991.6364622872341
 30
0
 40
2.5
  1
Piece Name: Rib Cuff
 50
0
 41
1
 51
0
  7
STANDARD
 71
    0
210
0
220
0
230
1
  0
TEXT
  5
4CA
  8
1
  6
BYLAYER
 62
  256
 10
117.4566440347046
 20
989.1364622872341
 30
0
 40
2.5
  1
File Name: GBlock-201-Sweatshirt-Parametric-Scalable-V4-Hood-csr0052a-EXTRA
 50
0
 41
1
 51
0
  7
STANDARD
 71
    0
210
0
220
0
230
1
  0
TEXT
  5
4CB
  8
1
  6
BYLAYER
 62
  256
 10
117.4566440347046
 20
986.6364622872341
 30
0
 40
2.5
  1
Measurement Name: csr0052a-EXTRA
 50
0
 41
1
 51
0
  7
STANDARD
 71
    0
210
0
220
0
230
1
  0
TEXT
  5
4CC
  8
1
  6
BYLAYER
 62
  256
 10
117.4566440347046
 20
984.1364622872342
 30
0
 40
2.5
  1
Date: 03-25-2026
 50
0
 41
1
 51
0
  7
STANDARD
 71
    0
210
0
220
0
230
1
  0
ENDBLK
  8
0
  0
ENDSEC
  0
SECTION
  2
ENTITIES
  0
INSERT
  5
4CD
  8
1
  6
BYLAYER
 62
  256
  2
SLEEVE
 10
0
 20
0
 30
0
 41
1
 42
1
 43
1
 50
0
 70
    1
 71
    1
 44
0
 45
0
  0
INSERT
  5
4CE
  8
1
  6
BYLAYER
 62
  256
  2
SWEATSHIRT_BACK
 10
0
 20
0
 30
0
 41
1
 42
1
 43
1
 50
0
 70
    1
 71
    1
 44
0
 45
0
  0
INSERT
  5
4CF
  8
1
  6
BYLAYER
 62
  256
  2
SWEATSHIRT_FRONT
 10
0
 20
0
 30
0
 41
1
 42
1
 43
1
 50
0
 70
    1
 71
    1
 44
0
 45
0
  0
INSERT
  5
4D0
  8
1
  6
BYLAYER
 62
  256
  2
COLLAR
 10
0
 20
0
 30
0
 41
1
 42
1
 43
1
 50
0
 70
    1
 71
    1
 44
0
 45
0
  0
INSERT
  5
4D1
  8
1
  6
BYLAYER
 62
  256
  2
RIB_HEM
 10
0
 20
0
 30
0
 41
1
 42
1
 43
1
 50
0
 70
    1
 71
    1
 44
0
 45
0
  0
INSERT
  5
4D2
  8
1
  6
BYLAYER
 62
  256
  2
RIB_CUFF
 10
0
 20
0
 30
0
 41
1
 42
1
 43
1
 50
0
 70
    1
 71
    1
 44
0
 45
0
  0
ENDSEC
  0
EOF
