999
dxfrw 0.6.3
  0
SECTION
  2
HEADER
  9
$ACADVER
  1
AC1009
  9
$DWGCODEPAGE
  3
ANSI_1252
  9
$INSBASE
 10
0
 20
0
 30
0
  9
$EXTMIN
 10
1e+20
 20
1e+20
 30
1e+20
  9
$EXTMAX
 10
-1e+20
 20
-1e+20
 30
-1e+20
  9
$LIMMIN
 10
0
 20
0
  9
$LIMMAX
 10
420
 20
297
  9
$ORTHOMODE
 70
    0
  9
$REGENMODE
 70
    1
  9
$FILLMODE
 70
    1
  9
$QTEXTMODE
 70
    0
  9
$MIRRTEXT
 70
    0
  9
$LTSCALE
 40
1
  9
$ATTMODE
 70
    0
  9
$TEXTSIZE
 40
2.5
  9
$TRACEWID
 40
15.68
  9
$TEXTSTYLE
  7
STANDARD
  9
$CLAYER
  8
1
  9
$CELTYPE
  6
BYLAYER
  9
$CECOLOR
 62
  256
  9
$DIMSCALE
 40
1
  9
$DIMASZ
 40
2.5
  9
$DIMEXO
 40
0.625
  9
$DIMDLI
 40
3.75
  9
$DIMRND
 40
0
  9
$DIMDLE
 40
0
  9
$DIMEXE
 40
1.25
  9
$DIMTP
 40
0
  9
$DIMTM
 40
0
  9
$DIMTXT
 40
2.5
  9
$DIMCEN
 40
2.5
  9
$DIMTSZ
 40
0
  9
$DIMTOL
 70
    0
  9
$DIMLIM
 70
    0
  9
$DIMTIH
 70
    0
  9
$DIMTOH
 70
    0
  9
$DIMSE1
 70
    0
  9
$DIMSE2
 70
    0
  9
$DIMTAD
 70
    1
  9
$DIMZIN
 70
    8
  9
$DIMBLK
  1

  9
$DIMASO
 70
    1
  9
$DIMSHO
 70
    1
  9
$DIMPOST
  1

  9
$DIMAPOST
  1

  9
$DIMALT
 70
    0
  9
$DIMALTD
 70
    3
  9
$DIMALTF
 40
0.03937
  9
$DIMLFAC
 40
1
  9
$DIMTOFL
 70
    1
  9
$DIMTVP
 40
0
  9
$DIMTIX
 70
    0
  9
$DIMSOXD
 70
    0
  9
$DIMSAH
 70
    0
  9
$DIMBLK1
  1

  9
$DIMBLK2
  1

  9
$DIMSTYLE
  2
STANDARD
  9
$DIMCLRD
 70
    0
  9
$DIMCLRE
 70
    0
  9
$DIMCLRT
 70
    0
  9
$DIMTFAC
 40
1
  9
$DIMGAP
 40
0.625
  9
$LUNITS
 70
    2
  9
$LUPREC
 70
    4
  9
$SKETCHINC
 40
1
  9
$FILLETRAD
 40
0
  9
$AUNITS
 70
    0
  9
$AUPREC
 70
    2
  9
$MENU
  1
.
  9
$ELEVATION
 40
0
  9
$PELEVATION
 40
0
  9
$THICKNESS
 40
0
  9
$LIMCHECK
 70
    0
  9
$BLIPMODE
 70
    0
  9
$CHAMFERA
 40
0
  9
$CHAMFERB
 40
0
  9
$SKPOLY
 70
    0
  9
$USRTIMER
 70
    1
  9
$ANGBASE
 50
0
  9
$ANGDIR
 70
    0
  9
$PDMODE
 70
   34
  9
$PDSIZE
 40
0
  9
$PLINEWID
 40
0
  9
$COORDS
 70
    2
  9
$SPLFRAME
 70
    0
  9
$SPLINETYPE
 70
    2
  9
$SPLINESEGS
 70
    8
  9
$ATTDIA
 70
    1
  9
$ATTREQ
 70
    1
  9
$HANDLING
 70
    1
  9
$HANDSEED
  5
20000
  9
$SURFTAB1
 70
    6
  9
$SURFTAB2
 70
    6
  9
$SURFTYPE
 70
    6
  9
$SURFU
 70
    6
  9
$SURFV
 70
    6
  9
$TDCREATE
 40
20260325.10335769
  9
$UCSNAME
  2

  9
$UCSORG
 10
0
 20
0
 30
0
  9
$UCSXDIR
 10
1
 20
0
 30
0
  9
$UCSYDIR
 10
0
 20
1
 30
0
  9
$PUCSNAME
  2

  9
$PUCSORG
 10
0
 20
0
 30
0
  9
$PUCSXDIR
 10
1
 20
0
 30
0
  9
$PUCSYDIR
 10
0
 20
1
 30
0
  9
$USERI1
 70
    0
  9
$USERI2
 70
    0
  9
$USERI3
 70
    0
  9
$USERI4
 70
    0
  9
$USERI5
 70
    0
  9
$USERR1
 40
0
  9
$USERR2
 40
0
  9
$USERR3
 40
0
  9
$USERR4
 40
0
  9
$USERR5
 40
0
  9
$WORLDVIEW
 70
    1
  9
$SHADEDGE
 70
    3
  9
$SHADEDIF
 70
   70
  9
$TILEMODE
 70
    1
  9
$MAXACTVP
 70
   64
  9
$PLIMCHECK
 70
    0
  9
$PEXTMIN
 10
0
 20
0
 30
0
  9
$PEXTMAX
 10
0
 20
0
 30
0
  9
$PLIMMIN
 10
0
 20
0
  9
$PLIMMAX
 10
297
 20
210
  9
$UNITMODE
 70
    0
  9
$VISRETAIN
 70
    1
  9
$PLINEGEN
 70
    0
  9
$PSLTSCALE
 70
    1
  0
ENDSEC
  0
SECTION
  2
TABLES
  0
TABLE
  2
VPORT
 70
    1
  0
VPORT
  2
*ACTIVE
 70
    0
 10
0
 20
0
 11
1
 21
1
 12
0.651828
 22
-0.16
 13
0
 23
0
 14
10
 24
10
 15
10
 25
10
 16
0
 26
0
 36
1
 17
0
 27
0
 37
0
 40
5.13732
 41
2.4426877
 42
50
 43
0
 44
0
 50
0
 51
0
 71
    0
 72
  100
 73
    1
 74
    3
 75
    0
 76
    0
 77
    0
 78
    0
  0
ENDTAB
  0
TABLE
  2
LTYPE
 70
    4
  0
LTYPE
  2
BYBLOCK
 70
    0
  3

 72
   65
 73
    0
 40
0
  0
LTYPE
  2
BYLAYER
 70
    0
  3

 72
   65
 73
    0
 40
0
  0
LTYPE
  2
CONTINUOUS
 70
    0
  3
Solid line
 72
   65
 73
    0
 40
0
  0
ENDTAB
  0
TABLE
  2
LAYER
 70
    1
  0
LAYER
  2
1
 70
    0
 62
  250
  6
CONTINUOUS
  0
LAYER
  2
8
 70
    0
 62
  250
  6
CONTINUOUS
  0
LAYER
  2
7
 70
    0
 62
  250
  6
CONTINUOUS
  0
LAYER
  2
11
 70
    0
 62
  250
  6
CONTINUOUS
  0
LAYER
  2
4
 70
    0
 62
  250
  6
CONTINUOUS
  0
ENDTAB
  0
TABLE
  2
STYLE
 70
    3
  0
STYLE
  2
STANDARD
 70
    0
 40
0
 41
1
 50
0
 71
    0
 42
2.5
  3
TXT
  4

  0
ENDTAB
  0
TABLE
  2
VIEW
 70
    0
  0
ENDTAB
  0
TABLE
  2
UCS
 70
    0
  0
ENDTAB
  0
TABLE
  2
APPID
 70
    1
  0
APPID
  2
ACAD
 70
    0
  0
APPID
  2
SEAMLY2D
 70
    0
  0
ENDTAB
  0
TABLE
  2
DIMSTYLE
 70
    1
  0
DIMSTYLE
  2
STANDARD
 70
    0
  3

  4

  5

  6

  7

 40
1
 41
2.5
 42
0.625
 43
3.75
 44
1.25
 45
0
 46
0
 47
0
 48
0
140
2.5
141
2.5
142
0
143
0.03937007874015748
144
1
145
0
146
1
147
0.625
 71
    0
 72
    0
 73
    0
 74
    0
 75
    0
 76
    0
 77
    1
 78
    8
170
    0
171
    3
172
    1
173
    0
174
    0
175
    0
176
    0
177
    0
178
    0
  0
ENDTAB
  0
ENDSEC
  0
SECTION
  2
BLOCKS
  0
BLOCK
  8
0
  2
$MODEL_SPACE
 70
    0
 10
0
 20
0
 30
0
  3
$MODEL_SPACE
  1

  0
ENDBLK
  8
0
  0
BLOCK
  8
0
  2
$PAPER_SPACE
 70
    0
 10
0
 20
0
 30
0
  3
$PAPER_SPACE
  1

  0
ENDBLK
  8
0
  0
BLOCK
  8
1
  2
SWEATSHIRT_FRONT
 70
    0
 10
0
 20
0
  3
SWEATSHIRT_FRONT
  1

  0
POLYLINE
  5
31
  8
1
  6
BYLAYER
 62
  256
 66
    1
 10
0
 20
0
 30
0
 70
    1
  0
VERTEX
  5
32
  8
1
  6
BYLAYER
 62
  256
 10
903.0229166666667
 20
1759.214583333333
 30
0
  0
VERTEX
  5
33
  8
1
  6
BYLAYER
 62
  256
 10
903.0229166666667
 20
1578.989583333333
 30
0
  0
VERTEX
  5
34
  8
1
  6
BYLAYER
 62
  256
 10
903.0229166666667
 20
1441.918633004045
 30
0
  0
VERTEX
  5
35
  8
1
  6
BYLAYER
 62
  256
 10
894.1296856289257
 20
1441.881649614358
 30
0
  0
VERTEX
  5
36
  8
1
  6
BYLAYER
 62
  256
 10
890.4068218530672
 20
1441.787255641811
 30
0
  0
VERTEX
  5
37
  8
1
  6
BYLAYER
 62
  256
 10
886.8284274583974
 20
1441.601819290906
 30
0
  0
VERTEX
  5
38
  8
1
  6
BYLAYER
 62
  256
 10
883.3779789421856
 20
1441.327622635106
 30
0
  0
VERTEX
  5
39
  8
1
  6
BYLAYER
 62
  256
 10
880.0534268876796
 20
1440.967348773042
 30
0
  0
VERTEX
  5
3A
  8
1
  6
BYLAYER
 62
  256
 10
876.8526309427601
 20
1440.523705062249
 30
0
  0
VERTEX
  5
3B
  8
1
  6
BYLAYER
 62
  256
 10
873.7733472283182
 20
1439.999412580299
 30
0
  0
VERTEX
  5
3C
  8
1
  6
BYLAYER
 62
  256
 10
870.813216529162
 20
1439.397192600341
 30
0
  0
VERTEX
  5
3D
  8
1
  6
BYLAYER
 62
  256
 10
867.9697540904299
 20
1438.71974998608
 30
0
  0
VERTEX
  5
3E
  8
1
  6
BYLAYER
 62
  256
 10
865.2403419745405
 20
1437.969753613416
 30
0
  0
VERTEX
  5
3F
  8
1
  6
BYLAYER
 62
  256
 10
862.6222250158401
 20
1437.149814188258
 30
0
  0
VERTEX
  5
40
  8
1
  6
BYLAYER
 62
  256
 10
860.1125114127287
 20
1436.262460140892
 30
0
  0
VERTEX
  5
41
  8
1
  6
BYLAYER
 62
  256
 10
857.7081788918418
 20
1435.31011261283
 30
0
  0
VERTEX
  5
42
  8
1
  6
BYLAYER
 62
  256
 10
855.4060871441552
 20
1434.295060874414
 30
0
  0
VERTEX
  5
43
  8
1
  6
BYLAYER
 62
  256
 10
853.2029968618704
 20
1433.219439771674
 30
0
  0
VERTEX
  5
44
  8
1
  6
BYLAYER
 62
  256
 10
851.0955952118999
 20
1432.085210944591
 30
0
  0
VERTEX
  5
45
  8
1
  6
BYLAYER
 62
  256
 10
849.0805270067061
 20
1430.894149536257
 30
0
  0
VERTEX
  5
46
  8
1
  6
BYLAYER
 62
  256
 10
847.1544302405512
 20
1429.647837890009
 30
0
  0
VERTEX
  5
47
  8
1
  6
BYLAYER
 62
  256
 10
845.3139741308032
 20
1428.347667304526
 30
0
  0
VERTEX
  5
48
  8
1
  6
BYLAYER
 62
  256
 10
843.5747529460309
 20
1427.009357413399
 30
0
  0
VERTEX
  5
49
  8
1
  6
BYLAYER
 62
  256
 10
841.0750020329587
 20
1424.889193618716
 30
0
  0
VERTEX
  5
4A
  8
1
  6
BYLAYER
 62
  256
 10
837.9989022050545
 20
1421.86198969428
 30
0
  0
VERTEX
  5
4B
  8
1
  6
BYLAYER
 62
  256
 10
835.2176419060219
 20
1418.65639219939
 30
0
  0
VERTEX
  5
4C
  8
1
  6
BYLAYER
 62
  256
 10
832.695881175793
 20
1415.26146878636
 30
0
  0
VERTEX
  5
4D
  8
1
  6
BYLAYER
 62
  256
 10
830.4180436796672
 20
1411.68374510797
 30
0
  0
VERTEX
  5
4E
  8
1
  6
BYLAYER
 62
  256
 10
828.3707975495377
 20
1407.931220160308
 30
0
  0
VERTEX
  5
4F
  8
1
  6
BYLAYER
 62
  256
 10
826.5423509093023
 20
1404.013724101539
 30
0
  0
VERTEX
  5
50
  8
1
  6
BYLAYER
 62
  256
 10
824.9217592026728
 20
1399.942953525763
 30
0
  0
VERTEX
  5
51
  8
1
  6
BYLAYER
 62
  256
 10
823.4983532721964
 20
1395.732282217815
 30
0
  0
VERTEX
  5
52
  8
1
  6
BYLAYER
 62
  256
 10
822.2613302426851
 20
1391.396454340475
 30
0
  0
VERTEX
  5
53
  8
1
  6
BYLAYER
 62
  256
 10
821.199501035092
 20
1386.951245561309
 30
0
  0
VERTEX
  5
54
  8
1
  6
BYLAYER
 62
  256
 10
820.301163718912
 20
1382.41314637364
 30
0
  0
VERTEX
  5
55
  8
1
  6
BYLAYER
 62
  256
 10
819.5540655338934
 20
1377.799093959503
 30
0
  0
VERTEX
  5
56
  8
1
  6
BYLAYER
 62
  256
 10
818.9454203165666
 20
1373.126259430656
 30
0
  0
VERTEX
  5
57
  8
1
  6
BYLAYER
 62
  256
 10
818.4619558777509
 20
1368.411886069374
 30
0
  0
VERTEX
  5
58
  8
1
  6
BYLAYER
 62
  256
 10
818.0908396118463
 20
1363.6841983022
 30
0
  0
VERTEX
  5
59
  8
1
  6
BYLAYER
 62
  256
 10
817.7009921065877
 20
1356.554696648078
 30
0
  0
VERTEX
  5
5A
  8
1
  6
BYLAYER
 62
  256
 10
817.4545008557392
 20
1347.123142780952
 30
0
  0
VERTEX
  5
5B
  8
1
  6
BYLAYER
 62
  256
 10
817.3923991651693
 20
1337.903174170783
 30
0
  0
VERTEX
  5
5C
  8
1
  6
BYLAYER
 62
  256
 10
817.3923991651693
 20
1333.457787156335
 30
0
  0
VERTEX
  5
5D
  8
1
  6
BYLAYER
 62
  256
 10
817.4098258213851
 20
1330.107233579397
 30
0
  0
VERTEX
  5
5E
  8
1
  6
BYLAYER
 62
  256
 10
817.611780857082
 20
1323.106320036095
 30
0
  0
VERTEX
  5
5F
  8
1
  6
BYLAYER
 62
  256
 10
817.9996662789097
 20
1315.837985584212
 30
0
  0
VERTEX
  5
60
  8
1
  6
BYLAYER
 62
  256
 10
818.5580478094794
 20
1308.358155445057
 30
0
  0
VERTEX
  5
61
  8
1
  6
BYLAYER
 62
  256
 10
819.2704030876567
 20
1300.739311260587
 30
0
  0
VERTEX
  5
62
  8
1
  6
BYLAYER
 62
  256
 10
820.1198706458451
 20
1293.052842216327
 30
0
  0
VERTEX
  5
63
  8
1
  6
BYLAYER
 62
  256
 10
821.0893695575382
 20
1285.369422315556
 30
0
  0
VERTEX
  5
64
  8
1
  6
BYLAYER
 62
  256
 10
822.1616599967896
 20
1277.759286677674
 30
0
  0
VERTEX
  5
65
  8
1
  6
BYLAYER
 62
  256
 10
823.3193661239943
 20
1270.29245552241
 30
0
  0
VERTEX
  5
66
  8
1
  6
BYLAYER
 62
  256
 10
824.5449692221116
 20
1263.038944319151
 30
0
  0
VERTEX
  5
67
  8
1
  6
BYLAYER
 62
  256
 10
825.8207688294032
 20
1256.068999518546
 30
0
  0
VERTEX
  5
68
  8
1
  6
BYLAYER
 62
  256
 10
827.1287974525206
 20
1249.45341390083
 30
0
  0
VERTEX
  5
69
  8
1
  6
BYLAYER
 62
  256
 10
828.4506526693679
 20
1243.264014495245
 30
0
  0
VERTEX
  5
6A
  8
1
  6
BYLAYER
 62
  256
 10
829.7671614529968
 20
1237.574508847816
 30
0
  0
VERTEX
  5
6B
  8
1
  6
BYLAYER
 62
  256
 10
831.0576647618933
 20
1232.462105405939
 30
0
  0
VERTEX
  5
6C
  8
1
  6
BYLAYER
 62
  256
 10
832.3041670650683
 20
1227.990030104675
 30
0
  0
VERTEX
  5
6D
  8
1
  6
BYLAYER
 62
  256
 10
834.9471874713836
 20
1219.389984979734
 30
0
  0
VERTEX
  5
6E
  8
1
  6
BYLAYER
 62
  256
 10
699.6420179200849
 20
1176.886783094996
 30
0
  0
VERTEX
  5
6F
  8
1
  6
BYLAYER
 62
  256
 10
696.6365853775548
 20
1186.326269944262
 30
0
  0
VERTEX
  5
70
  8
1
  6
BYLAYER
 62
  256
 10
694.7982656637672
 20
1191.727191088355
 30
0
  0
VERTEX
  5
71
  8
1
  6
BYLAYER
 62
  256
 10
692.8918872830552
 20
1196.90209582377
 30
0
  0
VERTEX
  5
72
  8
1
  6
BYLAYER
 62
  256
 10
690.9145870181284
 20
1201.865635623221
 30
0
  0
VERTEX
  5
73
  8
1
  6
BYLAYER
 62
  256
 10
688.8679188789488
 20
1206.619697472107
 30
0
  0
VERTEX
  5
74
  8
1
  6
BYLAYER
 62
  256
 10
686.753479542606
 20
1211.166255756977
 30
0
  0
VERTEX
  5
75
  8
1
  6
BYLAYER
 62
  256
 10
684.5728995921272
 20
1215.507389315236
 30
0
  0
VERTEX
  5
76
  8
1
  6
BYLAYER
 62
  256
 10
682.3278307825376
 20
1219.645299357997
 30
0
  0
VERTEX
  5
77
  8
1
  6
BYLAYER
 62
  256
 10
680.0199286635427
 20
1223.582327511395
 30
0
  0
VERTEX
  5
78
  8
1
  6
BYLAYER
 62
  256
 10
677.6508300012081
 20
1227.32097290287
 30
0
  0
VERTEX
  5
79
  8
1
  6
BYLAYER
 62
  256
 10
675.2221246722735
 20
1230.863906874425
 30
0
  0
VERTEX
  5
7A
  8
1
  6
BYLAYER
 62
  256
 10
672.7353220822639
 20
1234.213983573232
 30
0
  0
VERTEX
  5
7B
  8
1
  6
BYLAYER
 62
  256
 10
670.1918126984676
 20
1237.374244410237
 30
0
  0
VERTEX
  5
7C
  8
1
  6
BYLAYER
 62
  256
 10
667.5928259836169
 20
1240.347914266958
 30
0
  0
VERTEX
  5
7D
  8
1
  6
BYLAYER
 62
  256
 10
664.9393868219994
 20
1243.138387457573
 30
0
  0
VERTEX
  5
7E
  8
1
  6
BYLAYER
 62
  256
 10
662.2322733567249
 20
1245.749201899618
 30
0
  0
VERTEX
  5
7F
  8
1
  6
BYLAYER
 62
  256
 10
659.4719798673401
 20
1248.184000762878
 30
0
  0
VERTEX
  5
80
  8
1
  6
BYLAYER
 62
  256
 10
656.6586887384082
 20
1250.446482042592
 30
0
  0
VERTEX
  5
81
  8
1
  6
BYLAYER
 62
  256
 10
653.7922555260436
 20
1252.540337944515
 30
0
  0
VERTEX
  5
82
  8
1
  6
BYLAYER
 62
  256
 10
650.8722104884799
 20
1254.469187485988
 30
0
  0
VERTEX
  5
83
  8
1
  6
BYLAYER
 62
  256
 10
647.8977786732221
 20
1256.236507043855
 30
0
  0
VERTEX
  5
84
  8
1
  6
BYLAYER
 62
  256
 10
644.86791884897
 20
1257.845564427894
 30
0
  0
VERTEX
  5
85
  8
1
  6
BYLAYER
 62
  256
 10
641.7813794813381
 20
1259.29936218903
 30
0
  0
VERTEX
  5
86
  8
1
  6
BYLAYER
 62
  256
 10
638.6367679290264
 20
1260.60059517379
 30
0
  0
VERTEX
  5
87
  8
1
  6
BYLAYER
 62
  256
 10
635.4326274578457
 20
1261.751625875668
 30
0
  0
VERTEX
  5
88
  8
1
  6
BYLAYER
 62
  256
 10
632.167515835776
 20
1262.754479150161
 30
0
  0
VERTEX
  5
89
  8
1
  6
BYLAYER
 62
  256
 10
628.8400793270557
 20
1263.610855711526
 30
0
  0
VERTEX
  5
8A
  8
1
  6
BYLAYER
 62
  256
 10
625.4491167972619
 20
1264.322161897401
 30
0
  0
VERTEX
  5
8B
  8
1
  6
BYLAYER
 62
  256
 10
621.9936301535496
 20
1264.889551780316
 30
0
  0
VERTEX
  5
8C
  8
1
  6
BYLAYER
 62
  256
 10
618.4728591538048
 20
1265.313976988358
 30
0
  0
VERTEX
  5
8D
  8
1
  6
BYLAYER
 62
  256
 10
614.8863003945269
 20
1265.596239576072
 30
0
  0
VERTEX
  5
8E
  8
1
  6
BYLAYER
 62
  256
 10
611.2116329118898
 20
1265.737894955022
 30
0
  0
VERTEX
  5
8F
  8
1
  6
BYLAYER
 62
  256
 10
609.3816666666667
 20
1265.749443932732
 30
0
  0
VERTEX
  5
90
  8
1
  6
BYLAYER
 62
  256
 10
607.5517004214435
 20
1265.737894955022
 30
0
  0
VERTEX
  5
91
  8
1
  6
BYLAYER
 62
  256
 10
603.8770329388065
 20
1265.596239576072
 30
0
  0
VERTEX
  5
92
  8
1
  6
BYLAYER
 62
  256
 10
600.2904741795284
 20
1265.313976988358
 30
0
  0
VERTEX
  5
93
  8
1
  6
BYLAYER
 62
  256
 10
596.7697031797838
 20
1264.889551780316
 30
0
  0
VERTEX
  5
94
  8
1
  6
BYLAYER
 62
  256
 10
593.3142165360714
 20
1264.322161897401
 30
0
  0
VERTEX
  5
95
  8
1
  6
BYLAYER
 62
  256
 10
589.9232540062777
 20
1263.610855711526
 30
0
  0
VERTEX
  5
96
  8
1
  6
BYLAYER
 62
  256
 10
586.5958174975572
 20
1262.754479150161
 30
0
  0
VERTEX
  5
97
  8
1
  6
BYLAYER
 62
  256
 10
583.3307058754875
 20
1261.751625875667
 30
0
  0
VERTEX
  5
98
  8
1
  6
BYLAYER
 62
  256
 10
580.1265654043068
 20
1260.60059517379
 30
0
  0
VERTEX
  5
99
  8
1
  6
BYLAYER
 62
  256
 10
576.9819538519951
 20
1259.29936218903
 30
0
  0
VERTEX
  5
9A
  8
1
  6
BYLAYER
 62
  256
 10
573.8954144843633
 20
1257.845564427894
 30
0
  0
VERTEX
  5
9B
  8
1
  6
BYLAYER
 62
  256
 10
570.8655546601111
 20
1256.236507043855
 30
0
  0
VERTEX
  5
9C
  8
1
  6
BYLAYER
 62
  256
 10
567.8911228448532
 20
1254.469187485988
 30
0
  0
VERTEX
  5
9D
  8
1
  6
BYLAYER
 62
  256
 10
564.9710778072896
 20
1252.540337944515
 30
0
  0
VERTEX
  5
9E
  8
1
  6
BYLAYER
 62
  256
 10
562.104644594925
 20
1250.446482042592
 30
0
  0
VERTEX
  5
9F
  8
1
  6
BYLAYER
 62
  256
 10
559.2913534659931
 20
1248.184000762878
 30
0
  0
VERTEX
  5
A0
  8
1
  6
BYLAYER
 62
  256
 10
556.5310599766084
 20
1245.749201899618
 30
0
  0
VERTEX
  5
A1
  8
1
  6
BYLAYER
 62
  256
 10
553.8239465113339
 20
1243.138387457573
 30
0
  0
VERTEX
  5
A2
  8
1
  6
BYLAYER
 62
  256
 10
551.1705073497166
 20
1240.347914266958
 30
0
  0
VERTEX
  5
A3
  8
1
  6
BYLAYER
 62
  256
 10
548.5715206348656
 20
1237.374244410237
 30
0
  0
VERTEX
  5
A4
  8
1
  6
BYLAYER
 62
  256
 10
546.0280112510694
 20
1234.213983573232
 30
0
  0
VERTEX
  5
A5
  8
1
  6
BYLAYER
 62
  256
 10
543.5412086610597
 20
1230.863906874425
 30
0
  0
VERTEX
  5
A6
  8
1
  6
BYLAYER
 62
  256
 10
541.1125033321252
 20
1227.32097290287
 30
0
  0
VERTEX
  5
A7
  8
1
  6
BYLAYER
 62
  256
 10
538.7434046697904
 20
1223.582327511394
 30
0
  0
VERTEX
  5
A8
  8
1
  6
BYLAYER
 62
  256
 10
536.4355025507957
 20
1219.645299357997
 30
0
  0
VERTEX
  5
A9
  8
1
  6
BYLAYER
 62
  256
 10
534.190433741206
 20
1215.507389315236
 30
0
  0
VERTEX
  5
AA
  8
1
  6
BYLAYER
 62
  256
 10
532.0098537907273
 20
1211.166255756977
 30
0
  0
VERTEX
  5
AB
  8
1
  6
BYLAYER
 62
  256
 10
529.8954144543844
 20
1206.619697472107
 30
0
  0
VERTEX
  5
AC
  8
1
  6
BYLAYER
 62
  256
 10
527.8487463152051
 20
1201.865635623221
 30
0
  0
VERTEX
  5
AD
  8
1
  6
BYLAYER
 62
  256
 10
525.8714460502781
 20
1196.90209582377
 30
0
  0
VERTEX
  5
AE
  8
1
  6
BYLAYER
 62
  256
 10
523.965067669566
 20
1191.727191088355
 30
0
  0
VERTEX
  5
AF
  8
1
  6
BYLAYER
 62
  256
 10
522.1267479557786
 20
1186.326269944263
 30
0
  0
VERTEX
  5
B0
  8
1
  6
BYLAYER
 62
  256
 10
519.1213154132485
 20
1176.886783094996
 30
0
  0
VERTEX
  5
B1
  8
1
  6
BYLAYER
 62
  256
 10
383.8161458619496
 20
1219.389984979734
 30
0
  0
VERTEX
  5
B2
  8
1
  6
BYLAYER
 62
  256
 10
386.459166268265
 20
1227.990030104675
 30
0
  0
VERTEX
  5
B3
  8
1
  6
BYLAYER
 62
  256
 10
387.7056685714401
 20
1232.462105405939
 30
0
  0
VERTEX
  5
B4
  8
1
  6
BYLAYER
 62
  256
 10
388.9961718803365
 20
1237.574508847816
 30
0
  0
VERTEX
  5
B5
  8
1
  6
BYLAYER
 62
  256
 10
390.3126806639654
 20
1243.264014495245
 30
0
  0
VERTEX
  5
B6
  8
1
  6
BYLAYER
 62
  256
 10
391.6345358808125
 20
1249.45341390083
 30
0
  0
VERTEX
  5
B7
  8
1
  6
BYLAYER
 62
  256
 10
392.9425645039302
 20
1256.068999518546
 30
0
  0
VERTEX
  5
B8
  8
1
  6
BYLAYER
 62
  256
 10
394.2183641112217
 20
1263.038944319151
 30
0
  0
VERTEX
  5
B9
  8
1
  6
BYLAYER
 62
  256
 10
395.443967209339
 20
1270.29245552241
 30
0
  0
VERTEX
  5
BA
  8
1
  6
BYLAYER
 62
  256
 10
396.6016733365438
 20
1277.759286677674
 30
0
  0
VERTEX
  5
BB
  8
1
  6
BYLAYER
 62
  256
 10
397.673963775795
 20
1285.369422315556
 30
0
  0
VERTEX
  5
BC
  8
1
  6
BYLAYER
 62
  256
 10
398.6434626874881
 20
1293.052842216327
 30
0
  0
VERTEX
  5
BD
  8
1
  6
BYLAYER
 62
  256
 10
399.4929302456766
 20
1300.739311260587
 30
0
  0
VERTEX
  5
BE
  8
1
  6
BYLAYER
 62
  256
 10
400.2052855238538
 20
1308.358155445057
 30
0
  0
VERTEX
  5
BF
  8
1
  6
BYLAYER
 62
  256
 10
400.7636670544235
 20
1315.837985584212
 30
0
  0
VERTEX
  5
C0
  8
1
  6
BYLAYER
 62
  256
 10
401.1515524762513
 20
1323.106320036095
 30
0
  0
VERTEX
  5
C1
  8
1
  6
BYLAYER
 62
  256
 10
401.3535075119481
 20
1330.107233579397
 30
0
  0
VERTEX
  5
C2
  8
1
  6
BYLAYER
 62
  256
 10
401.3709341681639
 20
1333.457787156335
 30
0
  0
VERTEX
  5
C3
  8
1
  6
BYLAYER
 62
  256
 10
401.3709341681639
 20
1337.903174170783
 30
0
  0
VERTEX
  5
C4
  8
1
  6
BYLAYER
 62
  256
 10
401.308832477594
 20
1347.123142780952
 30
0
  0
VERTEX
  5
C5
  8
1
  6
BYLAYER
 62
  256
 10
401.0623412267456
 20
1356.554696648078
 30
0
  0
VERTEX
  5
C6
  8
1
  6
BYLAYER
 62
  256
 10
400.6724937214869
 20
1363.6841983022
 30
0
  0
VERTEX
  5
C7
  8
1
  6
BYLAYER
 62
  256
 10
400.3013774555824
 20
1368.411886069374
 30
0
  0
VERTEX
  5
C8
  8
1
  6
BYLAYER
 62
  256
 10
399.8179130167667
 20
1373.126259430656
 30
0
  0
VERTEX
  5
C9
  8
1
  6
BYLAYER
 62
  256
 10
399.2092677994397
 20
1377.799093959503
 30
0
  0
VERTEX
  5
CA
  8
1
  6
BYLAYER
 62
  256
 10
398.4621696144213
 20
1382.41314637364
 30
0
  0
VERTEX
  5
CB
  8
1
  6
BYLAYER
 62
  256
 10
397.5638322982412
 20
1386.951245561309
 30
0
  0
VERTEX
  5
CC
  8
1
  6
BYLAYER
 62
  256
 10
396.502003090648
 20
1391.396454340475
 30
0
  0
VERTEX
  5
CD
  8
1
  6
BYLAYER
 62
  256
 10
395.2649800611369
 20
1395.732282217815
 30
0
  0
VERTEX
  5
CE
  8
1
  6
BYLAYER
 62
  256
 10
393.8415741306605
 20
1399.942953525763
 30
0
  0
VERTEX
  5
CF
  8
1
  6
BYLAYER
 62
  256
 10
392.220982424031
 20
1404.013724101539
 30
0
  0
VERTEX
  5
D0
  8
1
  6
BYLAYER
 62
  256
 10
390.3925357837954
 20
1407.931220160308
 30
0
  0
VERTEX
  5
D1
  8
1
  6
BYLAYER
 62
  256
 10
388.3452896536661
 20
1411.68374510797
 30
0
  0
VERTEX
  5
D2
  8
1
  6
BYLAYER
 62
  256
 10
386.0674521575401
 20
1415.26146878636
 30
0
  0
VERTEX
  5
D3
  8
1
  6
BYLAYER
 62
  256
 10
383.5456914273113
 20
1418.65639219939
 30
0
  0
VERTEX
  5
D4
  8
1
  6
BYLAYER
 62
  256
 10
380.7644311282788
 20
1421.86198969428
 30
0
  0
VERTEX
  5
D5
  8
1
  6
BYLAYER
 62
  256
 10
377.6883313003745
 20
1424.889193618716
 30
0
  0
VERTEX
  5
D6
  8
1
  6
BYLAYER
 62
  256
 10
375.1885803873025
 20
1427.009357413399
 30
0
  0
VERTEX
  5
D7
  8
1
  6
BYLAYER
 62
  256
 10
373.4493592025301
 20
1428.347667304526
 30
0
  0
VERTEX
  5
D8
  8
1
  6
BYLAYER
 62
  256
 10
371.6089030927821
 20
1429.647837890009
 30
0
  0
VERTEX
  5
D9
  8
1
  6
BYLAYER
 62
  256
 10
369.6828063266271
 20
1430.894149536257
 30
0
  0
VERTEX
  5
DA
  8
1
  6
BYLAYER
 62
  256
 10
367.6677381214333
 20
1432.085210944591
 30
0
  0
VERTEX
  5
DB
  8
1
  6
BYLAYER
 62
  256
 10
365.5603364714628
 20
1433.219439771674
 30
0
  0
VERTEX
  5
DC
  8
1
  6
BYLAYER
 62
  256
 10
363.3572461891781
 20
1434.295060874414
 30
0
  0
VERTEX
  5
DD
  8
1
  6
BYLAYER
 62
  256
 10
361.0551544414914
 20
1435.31011261283
 30
0
  0
VERTEX
  5
DE
  8
1
  6
BYLAYER
 62
  256
 10
358.6508219206046
 20
1436.262460140892
 30
0
  0
VERTEX
  5
DF
  8
1
  6
BYLAYER
 62
  256
 10
356.1411083174932
 20
1437.149814188258
 30
0
  0
VERTEX
  5
E0
  8
1
  6
BYLAYER
 62
  256
 10
353.522991358793
 20
1437.969753613416
 30
0
  0
VERTEX
  5
E1
  8
1
  6
BYLAYER
 62
  256
 10
350.7935792429034
 20
1438.71974998608
 30
0
  0
VERTEX
  5
E2
  8
1
  6
BYLAYER
 62
  256
 10
347.9501168041714
 20
1439.397192600341
 30
0
  0
VERTEX
  5
E3
  8
1
  6
BYLAYER
 62
  256
 10
344.9899861050152
 20
1439.999412580299
 30
0
  0
VERTEX
  5
E4
  8
1
  6
BYLAYER
 62
  256
 10
341.9107023905731
 20
1440.523705062249
 30
0
  0
VERTEX
  5
E5
  8
1
  6
BYLAYER
 62
  256
 10
338.7099064456536
 20
1440.967348773042
 30
0
  0
VERTEX
  5
E6
  8
1
  6
BYLAYER
 62
  256
 10
335.3853543911478
 20
1441.327622635106
 30
0
  0
VERTEX
  5
E7
  8
1
  6
BYLAYER
 62
  256
 10
331.9349058749358
 20
1441.601819290906
 30
0
  0
VERTEX
  5
E8
  8
1
  6
BYLAYER
 62
  256
 10
328.3565114802661
 20
1441.787255641811
 30
0
  0
VERTEX
  5
E9
  8
1
  6
BYLAYER
 62
  256
 10
324.6336477044075
 20
1441.881649614358
 30
0
  0
VERTEX
  5
EA
  8
1
  6
BYLAYER
 62
  256
 10
315.7404166666666
 20
1441.918633004045
 30
0
  0
VERTEX
  5
EB
  8
1
  6
BYLAYER
 62
  256
 10
315.7404166666666
 20
1578.989583333333
 30
0
  0
VERTEX
  5
EC
  8
1
  6
BYLAYER
 62
  256
 10
315.7404166666666
 20
1759.214583333333
 30
0
  0
VERTEX
  5
ED
  8
1
  6
BYLAYER
 62
  256
 10
903.0229166666667
 20
1759.214583333333
 30
0
  0
SEQEND
  5
EE
  8
1
  6
BYLAYER
 62
  256
  0
POLYLINE
  5
EF
  8
8
  6
BYLAYER
 62
  256
 66
    1
 10
0
 20
0
 30
0
 70
    1
  0
VERTEX
  5
F0
  8
8
  6
BYLAYER
 62
  256
 10
896.0229166666668
 20
1752.214583333333
 30
0
  0
VERTEX
  5
F1
  8
8
  6
BYLAYER
 62
  256
 10
896.0229166666668
 20
1578.989583333333
 30
0
  0
VERTEX
  5
F2
  8
8
  6
BYLAYER
 62
  256
 10
896.0229166666668
 20
1448.889583333333
 30
0
  0
VERTEX
  5
F3
  8
8
  6
BYLAYER
 62
  256
 10
894.0264043567563
 20
1448.881280637445
 30
0
  0
VERTEX
  5
F4
  8
8
  6
BYLAYER
 62
  256
 10
890.1369292137422
 20
1448.782662199603
 30
0
  0
VERTEX
  5
F5
  8
8
  6
BYLAYER
 62
  256
 10
886.3699495085904
 20
1448.587453149561
 30
0
  0
VERTEX
  5
F6
  8
8
  6
BYLAYER
 62
  256
 10
882.7235053142957
 20
1448.297681312961
 30
0
  0
VERTEX
  5
F7
  8
8
  6
BYLAYER
 62
  256
 10
879.195636703852
 20
1447.915374515444
 30
0
  0
VERTEX
  5
F8
  8
8
  6
BYLAYER
 62
  256
 10
875.7843837502533
 20
1447.44256058265
 30
0
  0
VERTEX
  5
F9
  8
8
  6
BYLAYER
 62
  256
 10
872.4877865264941
 20
1446.881267340221
 30
0
  0
VERTEX
  5
FA
  8
8
  6
BYLAYER
 62
  256
 10
869.3038851055688
 20
1446.2335226138
 30
0
  0
VERTEX
  5
FB
  8
8
  6
BYLAYER
 62
  256
 10
866.230719560471
 20
1445.501354229027
 30
0
  0
VERTEX
  5
FC
  8
8
  6
BYLAYER
 62
  256
 10
863.2663299641954
 20
1444.686790011544
 30
0
  0
VERTEX
  5
FD
  8
8
  6
BYLAYER
 62
  256
 10
860.4087563897358
 20
1443.791857786991
 30
0
  0
VERTEX
  5
FE
  8
8
  6
BYLAYER
 62
  256
 10
857.6560389100869
 20
1442.818585381011
 30
0
  0
VERTEX
  5
FF
  8
8
  6
BYLAYER
 62
  256
 10
855.0062175982423
 20
1441.769000619245
 30
0
  0
VERTEX
  5
100
  8
8
  6
BYLAYER
 62
  256
 10
852.4573325271967
 20
1440.645131327334
 30
0
  0
VERTEX
  5
101
  8
8
  6
BYLAYER
 62
  256
 10
850.0074237699441
 20
1439.44900533092
 30
0
  0
VERTEX
  5
102
  8
8
  6
BYLAYER
 62
  256
 10
847.6545313994789
 20
1438.182650455643
 30
0
  0
VERTEX
  5
103
  8
8
  6
BYLAYER
 62
  256
 10
845.3966954887946
 20
1436.848094527146
 30
0
  0
VERTEX
  5
104
  8
8
  6
BYLAYER
 62
  256
 10
843.2319561108865
 20
1435.44736537107
 30
0
  0
VERTEX
  5
105
  8
8
  6
BYLAYER
 62
  256
 10
841.1583533387477
 20
1433.982490813056
 30
0
  0
VERTEX
  5
106
  8
8
  6
BYLAYER
 62
  256
 10
839.1739272453731
 20
1432.455498678745
 30
0
  0
VERTEX
  5
107
  8
8
  6
BYLAYER
 62
  256
 10
836.3496724300124
 20
1430.060106891839
 30
0
  0
VERTEX
  5
108
  8
8
  6
BYLAYER
 62
  256
 10
832.8923611917774
 20
1426.657751073136
 30
0
  0
VERTEX
  5
109
  8
8
  6
BYLAYER
 62
  256
 10
829.7564779824942
 20
1423.043425810792
 30
0
  0
VERTEX
  5
10A
  8
8
  6
BYLAYER
 62
  256
 10
826.9263433861158
 20
1419.233353709938
 30
0
  0
VERTEX
  5
10B
  8
8
  6
BYLAYER
 62
  256
 10
824.3862779865963
 20
1415.243757375707
 30
0
  0
VERTEX
  5
10C
  8
8
  6
BYLAYER
 62
  256
 10
822.1206023678892
 20
1411.090859413228
 30
0
  0
VERTEX
  5
10D
  8
8
  6
BYLAYER
 62
  256
 10
820.1136371139479
 20
1406.790882427632
 30
0
  0
VERTEX
  5
10E
  8
8
  6
BYLAYER
 62
  256
 10
818.3497028087259
 20
1402.360049024052
 30
0
  0
VERTEX
  5
10F
  8
8
  6
BYLAYER
 62
  256
 10
816.8131200361769
 20
1397.814581807618
 30
0
  0
VERTEX
  5
110
  8
8
  6
BYLAYER
 62
  256
 10
815.4882093802548
 20
1393.170703383461
 30
0
  0
VERTEX
  5
111
  8
8
  6
BYLAYER
 62
  256
 10
814.3592914249127
 20
1388.444636356712
 30
0
  0
VERTEX
  5
112
  8
8
  6
BYLAYER
 62
  256
 10
813.4106867541046
 20
1383.652603332503
 30
0
  0
VERTEX
  5
113
  8
8
  6
BYLAYER
 62
  256
 10
812.6267159517838
 20
1378.810826915965
 30
0
  0
VERTEX
  5
114
  8
8
  6
BYLAYER
 62
  256
 10
811.9916996019037
 20
1373.935529712229
 30
0
  0
VERTEX
  5
115
  8
8
  6
BYLAYER
 62
  256
 10
811.4899582884185
 20
1369.042934326425
 30
0
  0
VERTEX
  5
116
  8
8
  6
BYLAYER
 62
  256
 10
811.1058125952813
 20
1364.149263363686
 30
0
  0
VERTEX
  5
117
  8
8
  6
BYLAYER
 62
  256
 10
810.7059874860977
 20
1356.837292044559
 30
0
  0
VERTEX
  5
118
  8
8
  6
BYLAYER
 62
  256
 10
810.4551168293551
 20
1347.238167919039
 30
0
  0
VERTEX
  5
119
  8
8
  6
BYLAYER
 62
  256
 10
810.3923991651693
 20
1337.926748378135
 30
0
  0
VERTEX
  5
11A
  8
8
  6
BYLAYER
 62
  256
 10
810.3923991651693
 20
1333.439583333333
 30
0
  0
VERTEX
  5
11B
  8
8
  6
BYLAYER
 62
  256
 10
810.4103508173545
 20
1329.988090878557
 30
0
  0
VERTEX
  5
11C
  8
8
  6
BYLAYER
 62
  256
 10
810.6171619489298
 20
1322.818837351621
 30
0
  0
VERTEX
  5
11D
  8
8
  6
BYLAYER
 62
  256
 10
811.013566822789
 20
1315.390862389356
 30
0
  0
VERTEX
  5
11E
  8
8
  6
BYLAYER
 62
  256
 10
811.5823480496407
 20
1307.771722553462
 30
0
  0
VERTEX
  5
11F
  8
8
  6
BYLAYER
 62
  256
 10
812.3062882401932
 20
1300.028974405642
 30
0
  0
VERTEX
  5
120
  8
8
  6
BYLAYER
 62
  256
 10
813.1681700051556
 20
1292.230174507596
 30
0
  0
VERTEX
  5
121
  8
8
  6
BYLAYER
 62
  256
 10
814.1507759552358
 20
1284.442879421026
 30
0
  0
VERTEX
  5
122
  8
8
  6
BYLAYER
 62
  256
 10
815.2368887011429
 20
1276.734645707634
 30
0
  0
VERTEX
  5
123
  8
8
  6
BYLAYER
 62
  256
 10
816.4092908535849
 20
1269.17302992912
 30
0
  0
VERTEX
  5
124
  8
8
  6
BYLAYER
 62
  256
 10
817.6507650232708
 20
1261.825588647186
 30
0
  0
VERTEX
  5
125
  8
8
  6
BYLAYER
 62
  256
 10
818.9440938209091
 20
1254.759878423534
 30
0
  0
VERTEX
  5
126
  8
8
  6
BYLAYER
 62
  256
 10
820.272059857208
 20
1248.043455819865
 30
0
  0
VERTEX
  5
127
  8
8
  6
BYLAYER
 62
  256
 10
821.6174457428764
 20
1241.743877397879
 30
0
  0
VERTEX
  5
128
  8
8
  6
BYLAYER
 62
  256
 10
822.9630340886227
 20
1235.92869971928
 30
0
  0
VERTEX
  5
129
  8
8
  6
BYLAYER
 62
  256
 10
824.2916075051556
 20
1230.665479345767
 30
0
  0
VERTEX
  5
12A
  8
8
  6
BYLAYER
 62
  256
 10
825.5859486031835
 20
1226.021772839043
 30
0
  0
VERTEX
  5
12B
  8
8
  6
BYLAYER
 62
  256
 10
826.2123991651694
 20
1223.983384074147
 30
0
  0
VERTEX
  5
12C
  8
8
  6
BYLAYER
 62
  256
 10
704.1966256090524
 20
1185.654759426795
 30
0
  0
VERTEX
  5
12D
  8
8
  6
BYLAYER
 62
  256
 10
703.2856084321865
 20
1188.516089547764
 30
0
  0
VERTEX
  5
12E
  8
8
  6
BYLAYER
 62
  256
 10
701.39685188883
 20
1194.065192391272
 30
0
  0
VERTEX
  5
12F
  8
8
  6
BYLAYER
 62
  256
 10
699.4287367405138
 20
1199.407682897831
 30
0
  0
VERTEX
  5
130
  8
8
  6
BYLAYER
 62
  256
 10
697.3820496790039
 20
1204.545401668734
 30
0
  0
VERTEX
  5
131
  8
8
  6
BYLAYER
 62
  256
 10
695.2575773960665
 20
1209.480189305277
 30
0
  0
VERTEX
  5
132
  8
8
  6
BYLAYER
 62
  256
 10
693.0561065834678
 20
1214.213886408752
 30
0
  0
VERTEX
  5
133
  8
8
  6
BYLAYER
 62
  256
 10
690.7784239329741
 20
1218.748333580456
 30
0
  0
VERTEX
  5
134
  8
8
  6
BYLAYER
 62
  256
 10
688.4253161363512
 20
1223.085371421682
 30
0
  0
VERTEX
  5
135
  8
8
  6
BYLAYER
 62
  256
 10
685.9975698853655
 20
1227.226840533724
 30
0
  0
VERTEX
  5
136
  8
8
  6
BYLAYER
 62
  256
 10
683.4959718717831
 20
1231.174581517879
 30
0
  0
VERTEX
  5
137
  8
8
  6
BYLAYER
 62
  256
 10
680.9213087873703
 20
1234.93043497544
 30
0
  0
VERTEX
  5
138
  8
8
  6
BYLAYER
 62
  256
 10
678.2743673238932
 20
1238.4962415077
 30
0
  0
VERTEX
  5
139
  8
8
  6
BYLAYER
 62
  256
 10
675.5559341731181
 20
1241.873841715956
 30
0
  0
VERTEX
  5
13A
  8
8
  6
BYLAYER
 62
  256
 10
672.7667960268108
 20
1245.065076201502
 30
0
  0
VERTEX
  5
13B
  8
8
  6
BYLAYER
 62
  256
 10
669.9077395767379
 20
1248.071785565631
 30
0
  0
VERTEX
  5
13C
  8
8
  6
BYLAYER
 62
  256
 10
666.9795515146651
 20
1250.895810409639
 30
0
  0
VERTEX
  5
13D
  8
8
  6
BYLAYER
 62
  256
 10
663.983018532359
 20
1253.538991334819
 30
0
  0
VERTEX
  5
13E
  8
8
  6
BYLAYER
 62
  256
 10
660.9189273215857
 20
1256.003168942467
 30
0
  0
VERTEX
  5
13F
  8
8
  6
BYLAYER
 62
  256
 10
657.788064574111
 20
1258.290183833877
 30
0
  0
VERTEX
  5
140
  8
8
  6
BYLAYER
 62
  256
 10
654.5912169817016
 20
1260.401876610344
 30
0
  0
VERTEX
  5
141
  8
8
  6
BYLAYER
 62
  256
 10
651.3291712361232
 20
1262.340087873162
 30
0
  0
VERTEX
  5
142
  8
8
  6
BYLAYER
 62
  256
 10
648.0027140291425
 20
1264.106658223624
 30
0
  0
VERTEX
  5
143
  8
8
  6
BYLAYER
 62
  256
 10
644.6126320525251
 20
1265.703428263027
 30
0
  0
VERTEX
  5
144
  8
8
  6
BYLAYER
 62
  256
 10
641.1597119980374
 20
1267.132238592665
 30
0
  0
VERTEX
  5
145
  8
8
  6
BYLAYER
 62
  256
 10
637.6447405574457
 20
1268.394929813831
 30
0
  0
VERTEX
  5
146
  8
8
  6
BYLAYER
 62
  256
 10
634.0685044225162
 20
1269.493342527821
 30
0
  0
VERTEX
  5
147
  8
8
  6
BYLAYER
 62
  256
 10
630.4317902850146
 20
1270.429317335928
 30
0
  0
VERTEX
  5
148
  8
8
  6
BYLAYER
 62
  256
 10
626.7353848367076
 20
1271.204694839449
 30
0
  0
VERTEX
  5
149
  8
8
  6
BYLAYER
 62
  256
 10
622.9800747693612
 20
1271.821315639676
 30
0
  0
VERTEX
  5
14A
  8
8
  6
BYLAYER
 62
  256
 10
619.1666467747415
 20
1272.281020337904
 30
0
  0
VERTEX
  5
14B
  8
8
  6
BYLAYER
 62
  256
 10
615.2958875446146
 20
1272.585649535429
 30
0
  0
VERTEX
  5
14C
  8
8
  6
BYLAYER
 62
  256
 10
611.368583770747
 20
1272.737043833544
 30
0
  0
VERTEX
  5
14D
  8
8
  6
BYLAYER
 62
  256
 10
609.3816666666667
 20
1272.749583333333
 30
0
  0
VERTEX
  5
14E
  8
8
  6
BYLAYER
 62
  256
 10
607.3947495625863
 20
1272.737043833544
 30
0
  0
VERTEX
  5
14F
  8
8
  6
BYLAYER
 62
  256
 10
603.4674457887186
 20
1272.585649535429
 30
0
  0
VERTEX
  5
150
  8
8
  6
BYLAYER
 62
  256
 10
599.5966865585918
 20
1272.281020337904
 30
0
  0
VERTEX
  5
151
  8
8
  6
BYLAYER
 62
  256
 10
595.783258563972
 20
1271.821315639676
 30
0
  0
VERTEX
  5
152
  8
8
  6
BYLAYER
 62
  256
 10
592.0279484966258
 20
1271.204694839449
 30
0
  0
VERTEX
  5
153
  8
8
  6
BYLAYER
 62
  256
 10
588.3315430483186
 20
1270.429317335928
 30
0
  0
VERTEX
  5
154
  8
8
  6
BYLAYER
 62
  256
 10
584.6948289108173
 20
1269.493342527821
 30
0
  0
VERTEX
  5
155
  8
8
  6
BYLAYER
 62
  256
 10
581.1185927758875
 20
1268.394929813831
 30
0
  0
VERTEX
  5
156
  8
8
  6
BYLAYER
 62
  256
 10
577.6036213352958
 20
1267.132238592665
 30
0
  0
VERTEX
  5
157
  8
8
  6
BYLAYER
 62
  256
 10
574.1507012808082
 20
1265.703428263027
 30
0
  0
VERTEX
  5
158
  8
8
  6
BYLAYER
 62
  256
 10
570.7606193041909
 20
1264.106658223624
 30
0
  0
VERTEX
  5
159
  8
8
  6
BYLAYER
 62
  256
 10
567.43416209721
 20
1262.340087873162
 30
0
  0
VERTEX
  5
15A
  8
8
  6
BYLAYER
 62
  256
 10
564.1721163516318
 20
1260.401876610344
 30
0
  0
VERTEX
  5
15B
  8
8
  6
BYLAYER
 62
  256
 10
560.9752687592222
 20
1258.290183833877
 30
0
  0
VERTEX
  5
15C
  8
8
  6
BYLAYER
 62
  256
 10
557.8444060117477
 20
1256.003168942467
 30
0
  0
VERTEX
  5
15D
  8
8
  6
BYLAYER
 62
  256
 10
554.7803148009742
 20
1253.538991334819
 30
0
  0
VERTEX
  5
15E
  8
8
  6
BYLAYER
 62
  256
 10
551.7837818186681
 20
1250.895810409639
 30
0
  0
VERTEX
  5
15F
  8
8
  6
BYLAYER
 62
  256
 10
548.8555937565955
 20
1248.071785565631
 30
0
  0
VERTEX
  5
160
  8
8
  6
BYLAYER
 62
  256
 10
545.9965373065224
 20
1245.065076201502
 30
0
  0
VERTEX
  5
161
  8
8
  6
BYLAYER
 62
  256
 10
543.2073991602152
 20
1241.873841715956
 30
0
  0
VERTEX
  5
162
  8
8
  6
BYLAYER
 62
  256
 10
540.48896600944
 20
1238.4962415077
 30
0
  0
VERTEX
  5
163
  8
8
  6
BYLAYER
 62
  256
 10
537.842024545963
 20
1234.93043497544
 30
0
  0
VERTEX
  5
164
  8
8
  6
BYLAYER
 62
  256
 10
535.2673614615501
 20
1231.174581517879
 30
0
  0
VERTEX
  5
165
  8
8
  6
BYLAYER
 62
  256
 10
532.7657634479679
 20
1227.226840533724
 30
0
  0
VERTEX
  5
166
  8
8
  6
BYLAYER
 62
  256
 10
530.3380171969823
 20
1223.085371421682
 30
0
  0
VERTEX
  5
167
  8
8
  6
BYLAYER
 62
  256
 10
527.9849094003594
 20
1218.748333580456
 30
0
  0
VERTEX
  5
168
  8
8
  6
BYLAYER
 62
  256
 10
525.7072267498654
 20
1214.213886408752
 30
0
  0
VERTEX
  5
169
  8
8
  6
BYLAYER
 62
  256
 10
523.5057559372668
 20
1209.480189305277
 30
0
  0
VERTEX
  5
16A
  8
8
  6
BYLAYER
 62
  256
 10
521.3812836543293
 20
1204.545401668734
 30
0
  0
VERTEX
  5
16B
  8
8
  6
BYLAYER
 62
  256
 10
519.3345965928195
 20
1199.407682897831
 30
0
  0
VERTEX
  5
16C
  8
8
  6
BYLAYER
 62
  256
 10
517.3664814445034
 20
1194.065192391272
 30
0
  0
VERTEX
  5
16D
  8
8
  6
BYLAYER
 62
  256
 10
515.4777249011468
 20
1188.516089547764
 30
0
  0
VERTEX
  5
16E
  8
8
  6
BYLAYER
 62
  256
 10
514.5667077242809
 20
1185.654759426795
 30
0
  0
VERTEX
  5
16F
  8
8
  6
BYLAYER
 62
  256
 10
392.5509341681639
 20
1223.983384074147
 30
0
  0
VERTEX
  5
170
  8
8
  6
BYLAYER
 62
  256
 10
393.1773847301498
 20
1226.021772839043
 30
0
  0
VERTEX
  5
171
  8
8
  6
BYLAYER
 62
  256
 10
394.4717258281777
 20
1230.665479345767
 30
0
  0
VERTEX
  5
172
  8
8
  6
BYLAYER
 62
  256
 10
395.8002992447106
 20
1235.92869971928
 30
0
  0
VERTEX
  5
173
  8
8
  6
BYLAYER
 62
  256
 10
397.1458875904569
 20
1241.743877397879
 30
0
  0
VERTEX
  5
174
  8
8
  6
BYLAYER
 62
  256
 10
398.4912734761253
 20
1248.043455819865
 30
0
  0
VERTEX
  5
175
  8
8
  6
BYLAYER
 62
  256
 10
399.8192395124243
 20
1254.759878423534
 30
0
  0
VERTEX
  5
176
  8
8
  6
BYLAYER
 62
  256
 10
401.1125683100625
 20
1261.825588647186
 30
0
  0
VERTEX
  5
177
  8
8
  6
BYLAYER
 62
  256
 10
402.3540424797484
 20
1269.17302992912
 30
0
  0
VERTEX
  5
178
  8
8
  6
BYLAYER
 62
  256
 10
403.5264446321905
 20
1276.734645707634
 30
0
  0
VERTEX
  5
179
  8
8
  6
BYLAYER
 62
  256
 10
404.6125573780974
 20
1284.442879421026
 30
0
  0
VERTEX
  5
17A
  8
8
  6
BYLAYER
 62
  256
 10
405.5951633281778
 20
1292.230174507596
 30
0
  0
VERTEX
  5
17B
  8
8
  6
BYLAYER
 62
  256
 10
406.4570450931399
 20
1300.028974405642
 30
0
  0
VERTEX
  5
17C
  8
8
  6
BYLAYER
 62
  256
 10
407.1809852836926
 20
1307.771722553462
 30
0
  0
VERTEX
  5
17D
  8
8
  6
BYLAYER
 62
  256
 10
407.7497665105443
 20
1315.390862389356
 30
0
  0
VERTEX
  5
17E
  8
8
  6
BYLAYER
 62
  256
 10
408.1461713844035
 20
1322.818837351621
 30
0
  0
VERTEX
  5
17F
  8
8
  6
BYLAYER
 62
  256
 10
408.3529825159788
 20
1329.988090878557
 30
0
  0
VERTEX
  5
180
  8
8
  6
BYLAYER
 62
  256
 10
408.3709341681639
 20
1333.439583333333
 30
0
  0
VERTEX
  5
181
  8
8
  6
BYLAYER
 62
  256
 10
408.3709341681639
 20
1337.926748378135
 30
0
  0
VERTEX
  5
182
  8
8
  6
BYLAYER
 62
  256
 10
408.3082165039781
 20
1347.238167919039
 30
0
  0
VERTEX
  5
183
  8
8
  6
BYLAYER
 62
  256
 10
408.0573458472356
 20
1356.837292044559
 30
0
  0
VERTEX
  5
184
  8
8
  6
BYLAYER
 62
  256
 10
407.6575207380519
 20
1364.149263363686
 30
0
  0
VERTEX
  5
185
  8
8
  6
BYLAYER
 62
  256
 10
407.2733750449147
 20
1369.042934326425
 30
0
  0
VERTEX
  5
186
  8
8
  6
BYLAYER
 62
  256
 10
406.7716337314295
 20
1373.935529712229
 30
0
  0
VERTEX
  5
187
  8
8
  6
BYLAYER
 62
  256
 10
406.1366173815495
 20
1378.810826915965
 30
0
  0
VERTEX
  5
188
  8
8
  6
BYLAYER
 62
  256
 10
405.3526465792287
 20
1383.652603332503
 30
0
  0
VERTEX
  5
189
  8
8
  6
BYLAYER
 62
  256
 10
404.4040419084204
 20
1388.444636356712
 30
0
  0
VERTEX
  5
18A
  8
8
  6
BYLAYER
 62
  256
 10
403.2751239530784
 20
1393.170703383461
 30
0
  0
VERTEX
  5
18B
  8
8
  6
BYLAYER
 62
  256
 10
401.9502132971562
 20
1397.814581807618
 30
0
  0
VERTEX
  5
18C
  8
8
  6
BYLAYER
 62
  256
 10
400.4136305246074
 20
1402.360049024052
 30
0
  0
VERTEX
  5
18D
  8
8
  6
BYLAYER
 62
  256
 10
398.6496962193855
 20
1406.790882427632
 30
0
  0
VERTEX
  5
18E
  8
8
  6
BYLAYER
 62
  256
 10
396.6427309654442
 20
1411.090859413228
 30
0
  0
VERTEX
  5
18F
  8
8
  6
BYLAYER
 62
  256
 10
394.3770553467369
 20
1415.243757375707
 30
0
  0
VERTEX
  5
190
  8
8
  6
BYLAYER
 62
  256
 10
391.8369899472174
 20
1419.233353709938
 30
0
  0
VERTEX
  5
191
  8
8
  6
BYLAYER
 62
  256
 10
389.0068553508392
 20
1423.043425810792
 30
0
  0
VERTEX
  5
192
  8
8
  6
BYLAYER
 62
  256
 10
385.8709721415559
 20
1426.657751073136
 30
0
  0
VERTEX
  5
193
  8
8
  6
BYLAYER
 62
  256
 10
382.4136609033209
 20
1430.060106891839
 30
0
  0
VERTEX
  5
194
  8
8
  6
BYLAYER
 62
  256
 10
379.5894060879602
 20
1432.455498678745
 30
0
  0
VERTEX
  5
195
  8
8
  6
BYLAYER
 62
  256
 10
377.6049799945855
 20
1433.982490813056
 30
0
  0
VERTEX
  5
196
  8
8
  6
BYLAYER
 62
  256
 10
375.5313772224469
 20
1435.44736537107
 30
0
  0
VERTEX
  5
197
  8
8
  6
BYLAYER
 62
  256
 10
373.3666378445385
 20
1436.848094527146
 30
0
  0
VERTEX
  5
198
  8
8
  6
BYLAYER
 62
  256
 10
371.1088019338545
 20
1438.182650455643
 30
0
  0
VERTEX
  5
199
  8
8
  6
BYLAYER
 62
  256
 10
368.7559095633891
 20
1439.44900533092
 30
0
  0
VERTEX
  5
19A
  8
8
  6
BYLAYER
 62
  256
 10
366.3060008061365
 20
1440.645131327334
 30
0
  0
VERTEX
  5
19B
  8
8
  6
BYLAYER
 62
  256
 10
363.7571157350909
 20
1441.769000619245
 30
0
  0
VERTEX
  5
19C
  8
8
  6
BYLAYER
 62
  256
 10
361.1072944232465
 20
1442.818585381011
 30
0
  0
VERTEX
  5
19D
  8
8
  6
BYLAYER
 62
  256
 10
358.3545769435974
 20
1443.791857786991
 30
0
  0
VERTEX
  5
19E
  8
8
  6
BYLAYER
 62
  256
 10
355.497003369138
 20
1444.686790011544
 30
0
  0
VERTEX
  5
19F
  8
8
  6
BYLAYER
 62
  256
 10
352.5326137728623
 20
1445.501354229027
 30
0
  0
VERTEX
  5
1A0
  8
8
  6
BYLAYER
 62
  256
 10
349.4594482277646
 20
1446.2335226138
 30
0
  0
VERTEX
  5
1A1
  8
8
  6
BYLAYER
 62
  256
 10
346.2755468068391
 20
1446.881267340221
 30
0
  0
VERTEX
  5
1A2
  8
8
  6
BYLAYER
 62
  256
 10
342.9789495830799
 20
1447.44256058265
 30
0
  0
VERTEX
  5
1A3
  8
8
  6
BYLAYER
 62
  256
 10
339.5676966294814
 20
1447.915374515444
 30
0
  0
VERTEX
  5
1A4
  8
8
  6
BYLAYER
 62
  256
 10
336.0398280190377
 20
1448.297681312961
 30
0
  0
VERTEX
  5
1A5
  8
8
  6
BYLAYER
 62
  256
 10
332.3933838247429
 20
1448.587453149561
 30
0
  0
VERTEX
  5
1A6
  8
8
  6
BYLAYER
 62
  256
 10
328.6264041195912
 20
1448.782662199603
 30
0
  0
VERTEX
  5
1A7
  8
8
  6
BYLAYER
 62
  256
 10
324.736928976577
 20
1448.881280637445
 30
0
  0
VERTEX
  5
1A8
  8
8
  6
BYLAYER
 62
  256
 10
322.7404166666665
 20
1448.889583333333
 30
0
  0
VERTEX
  5
1A9
  8
8
  6
BYLAYER
 62
  256
 10
322.7404166666665
 20
1578.989583333333
 30
0
  0
VERTEX
  5
1AA
  8
8
  6
BYLAYER
 62
  256
 10
322.7404166666665
 20
1752.214583333333
 30
0
  0
SEQEND
  5
1AB
  8
8
  6
BYLAYER
 62
  256
  0
POLYLINE
  5
1AC
  8
8
  6
BYLAYER
 62
  256
 66
    1
 10
0
 20
0
 30
0
 70
    0
  0
VERTEX
  5
1AD
  8
8
  6
BYLAYER
 62
  256
 10
859.6098416976375
 20
1752.214583333333
 30
0
  0
VERTEX
  5
1AE
  8
8
  6
BYLAYER
 62
  256
 10
859.6098416976375
 20
1752.214583333333
 30
0
  0
VERTEX
  5
1AF
  8
8
  6
BYLAYER
 62
  256
 10
859.3660673579556
 20
1751.033213101186
 30
0
  0
VERTEX
  5
1B0
  8
8
  6
BYLAYER
 62
  256
 10
858.5494098552892
 20
1746.487808522323
 30
0
  0
VERTEX
  5
1B1
  8
8
  6
BYLAYER
 62
  256
 10
857.5333989186379
 20
1739.61010849737
 30
0
  0
VERTEX
  5
1B2
  8
8
  6
BYLAYER
 62
  256
 10
856.5131354280837
 20
1730.344480607024
 30
0
  0
VERTEX
  5
1B3
  8
8
  6
BYLAYER
 62
  256
 10
855.7159198671487
 20
1721.01525680044
 30
0
  0
VERTEX
  5
1B4
  8
8
  6
BYLAYER
 62
  256
 10
854.9932297716464
 20
1711.664797002024
 30
0
  0
VERTEX
  5
1B5
  8
8
  6
BYLAYER
 62
  256
 10
854.1965426773897
 20
1702.335461136182
 30
0
  0
VERTEX
  5
1B6
  8
8
  6
BYLAYER
 62
  256
 10
853.1773361201929
 20
1693.069609127319
 30
0
  0
VERTEX
  5
1B7
  8
8
  6
BYLAYER
 62
  256
 10
852.1624812044007
 20
1686.191663972737
 30
0
  0
VERTEX
  5
1B8
  8
8
  6
BYLAYER
 62
  256
 10
851.346748518422
 20
1681.646063290171
 30
0
  0
VERTEX
  5
1B9
  8
8
  6
BYLAYER
 62
  256
 10
850.8816666666667
 20
1679.389583333333
 30
0
  0
VERTEX
  5
1BA
  8
8
  6
BYLAYER
 62
  256
 10
850.2902809004689
 20
1676.74316032407
 30
0
  0
VERTEX
  5
1BB
  8
8
  6
BYLAYER
 62
  256
 10
848.8408080854421
 20
1671.494472270737
 30
0
  0
VERTEX
  5
1BC
  8
8
  6
BYLAYER
 62
  256
 10
847.1234217419247
 20
1666.294978649035
 30
0
  0
VERTEX
  5
1BD
  8
8
  6
BYLAYER
 62
  256
 10
845.1960418817698
 20
1661.140462651629
 30
0
  0
VERTEX
  5
1BE
  8
8
  6
BYLAYER
 62
  256
 10
842.0460834596449
 20
1653.479492984289
 30
0
  0
VERTEX
  5
1BF
  8
8
  6
BYLAYER
 62
  256
 10
837.6264027817391
 20
1643.389725047251
 30
0
  0
VERTEX
  5
1C0
  8
8
  6
BYLAYER
 62
  256
 10
835.4816666666668
 20
1638.389583333333
 30
0
  0
VERTEX
  5
1C1
  8
8
  6
BYLAYER
 62
  256
 10
834.6800075775212
 20
1636.533346849676
 30
0
  0
VERTEX
  5
1C2
  8
8
  6
BYLAYER
 62
  256
 10
832.9303823597061
 20
1632.850779630461
 30
0
  0
VERTEX
  5
1C3
  8
8
  6
BYLAYER
 62
  256
 10
830.0565103925114
 20
1627.377142466758
 30
0
  0
VERTEX
  5
1C4
  8
8
  6
BYLAYER
 62
  256
 10
823.7490786011566
 20
1616.536508421187
 30
0
  0
VERTEX
  5
1C5
  8
8
  6
BYLAYER
 62
  256
 10
818.5283976442626
 20
1607.476360727342
 30
0
  0
VERTEX
  5
1C6
  8
8
  6
BYLAYER
 62
  256
 10
816.5712452099722
 20
1603.820234638563
 30
0
  0
VERTEX
  5
1C7
  8
8
  6
BYLAYER
 62
  256
 10
814.7411800450234
 20
1600.134091440211
 30
0
  0
VERTEX
  5
1C8
  8
8
  6
BYLAYER
 62
  256
 10
813.0722084097272
 20
1596.410526187646
 30
0
  0
VERTEX
  5
1C9
  8
8
  6
BYLAYER
 62
  256
 10
811.5983365643951
 20
1592.642133936228
 30
0
  0
VERTEX
  5
1CA
  8
8
  6
BYLAYER
 62
  256
 10
810.353570769338
 20
1588.821509741319
 30
0
  0
VERTEX
  5
1CB
  8
8
  6
BYLAYER
 62
  256
 10
809.3719172848678
 20
1584.941248658278
 30
0
  0
VERTEX
  5
1CC
  8
8
  6
BYLAYER
 62
  256
 10
808.6873823712954
 20
1580.993945742467
 30
0
  0
VERTEX
  5
1CD
  8
8
  6
BYLAYER
 62
  256
 10
808.4816666666667
 20
1578.989583333333
 30
0
  0
VERTEX
  5
1CE
  8
8
  6
BYLAYER
 62
  256
 10
808.2553121659843
 20
1576.255886788609
 30
0
  0
VERTEX
  5
1CF
  8
8
  6
BYLAYER
 62
  256
 10
807.9374878212643
 20
1570.741281957263
 30
0
  0
VERTEX
  5
1D0
  8
8
  6
BYLAYER
 62
  256
 10
807.7830906195492
 20
1565.180659079106
 30
0
  0
VERTEX
  5
1D1
  8
8
  6
BYLAYER
 62
  256
 10
807.7938600664291
 20
1559.585835980212
 30
0
  0
VERTEX
  5
1D2
  8
8
  6
BYLAYER
 62
  256
 10
807.9715356674941
 20
1553.968630486656
 30
0
  0
VERTEX
  5
1D3
  8
8
  6
BYLAYER
 62
  256
 10
808.3178569283342
 20
1548.340860424512
 30
0
  0
VERTEX
  5
1D4
  8
8
  6
BYLAYER
 62
  256
 10
808.8345633545396
 20
1542.714343619855
 30
0
  0
VERTEX
  5
1D5
  8
8
  6
BYLAYER
 62
  256
 10
809.5233944517
 20
1537.100897898759
 30
0
  0
VERTEX
  5
1D6
  8
8
  6
BYLAYER
 62
  256
 10
810.386089725406
 20
1531.512341087299
 30
0
  0
VERTEX
  5
1D7
  8
8
  6
BYLAYER
 62
  256
 10
811.4243886812473
 20
1525.960491011548
 30
0
  0
VERTEX
  5
1D8
  8
8
  6
BYLAYER
 62
  256
 10
812.6400308248141
 20
1520.457165497582
 30
0
  0
VERTEX
  5
1D9
  8
8
  6
BYLAYER
 62
  256
 10
814.0347556616965
 20
1515.014182371474
 30
0
  0
VERTEX
  5
1DA
  8
8
  6
BYLAYER
 62
  256
 10
815.6103026974844
 20
1509.6433594593
 30
0
  0
VERTEX
  5
1DB
  8
8
  6
BYLAYER
 62
  256
 10
817.368411437768
 20
1504.356514587133
 30
0
  0
VERTEX
  5
1DC
  8
8
  6
BYLAYER
 62
  256
 10
819.3108213881374
 20
1499.165465581049
 30
0
  0
VERTEX
  5
1DD
  8
8
  6
BYLAYER
 62
  256
 10
821.4392720541829
 20
1494.082030267121
 30
0
  0
VERTEX
  5
1DE
  8
8
  6
BYLAYER
 62
  256
 10
822.5816666666666
 20
1491.589583333333
 30
0
  0
VERTEX
  5
1DF
  8
8
  6
BYLAYER
 62
  256
 10
823.8920379729233
 20
1488.859381990381
 30
0
  0
VERTEX
  5
1E0
  8
8
  6
BYLAYER
 62
  256
 10
826.7848430105828
 20
1483.550983465473
 30
0
  0
VERTEX
  5
1E1
  8
8
  6
BYLAYER
 62
  256
 10
829.9733063481984
 20
1478.408255707648
 30
0
  0
VERTEX
  5
1E2
  8
8
  6
BYLAYER
 62
  256
 10
833.4231873077485
 20
1473.412605132337
 30
0
  0
VERTEX
  5
1E3
  8
8
  6
BYLAYER
 62
  256
 10
837.1002452112119
 20
1468.545438154972
 30
0
  0
VERTEX
  5
1E4
  8
8
  6
BYLAYER
 62
  256
 10
840.9702393805662
 20
1463.788161190983
 30
0
  0
VERTEX
  5
1E5
  8
8
  6
BYLAYER
 62
  256
 10
844.99892913779
 20
1459.122180655804
 30
0
  0
VERTEX
  5
1E6
  8
8
  6
BYLAYER
 62
  256
 10
849.1520738048616
 20
1454.528902964864
 30
0
  0
VERTEX
  5
1E7
  8
8
  6
BYLAYER
 62
  256
 10
855.5353856264123
 20
1447.731353434808
 30
0
  0
VERTEX
  5
1E8
  8
8
  6
BYLAYER
 62
  256
 10
859.6035909517951
 20
1443.507177172729
 30
0
  0
VERTEX
  5
1E9
  8
8
  6
BYLAYER
 62
  256
 10
859.6035909517951
 20
1443.507177172729
 30
0
  0
SEQEND
  5
1EA
  8
8
  6
BYLAYER
 62
  256
  0
POLYLINE
  5
1EB
  8
8
  6
BYLAYER
 62
  256
 66
    1
 10
0
 20
0
 30
0
 70
    0
  0
VERTEX
  5
1EC
  8
8
  6
BYLAYER
 62
  256
 10
359.1534916356958
 20
1752.214583333333
 30
0
  0
VERTEX
  5
1ED
  8
8
  6
BYLAYER
 62
  256
 10
359.1534916356958
 20
1752.214583333333
 30
0
  0
VERTEX
  5
1EE
  8
8
  6
BYLAYER
 62
  256
 10
359.3972659753778
 20
1751.033213101186
 30
0
  0
VERTEX
  5
1EF
  8
8
  6
BYLAYER
 62
  256
 10
360.2139234780441
 20
1746.487808522323
 30
0
  0
VERTEX
  5
1F0
  8
8
  6
BYLAYER
 62
  256
 10
361.2299344146954
 20
1739.61010849737
 30
0
  0
VERTEX
  5
1F1
  8
8
  6
BYLAYER
 62
  256
 10
362.2501979052495
 20
1730.344480607024
 30
0
  0
VERTEX
  5
1F2
  8
8
  6
BYLAYER
 62
  256
 10
363.0474134661845
 20
1721.01525680044
 30
0
  0
VERTEX
  5
1F3
  8
8
  6
BYLAYER
 62
  256
 10
363.7701035616869
 20
1711.664797002024
 30
0
  0
VERTEX
  5
1F4
  8
8
  6
BYLAYER
 62
  256
 10
364.5667906559434
 20
1702.335461136182
 30
0
  0
VERTEX
  5
1F5
  8
8
  6
BYLAYER
 62
  256
 10
365.5859972131405
 20
1693.069609127319
 30
0
  0
VERTEX
  5
1F6
  8
8
  6
BYLAYER
 62
  256
 10
366.6008521289324
 20
1686.191663972737
 30
0
  0
VERTEX
  5
1F7
  8
8
  6
BYLAYER
 62
  256
 10
367.4165848149113
 20
1681.646063290171
 30
0
  0
VERTEX
  5
1F8
  8
8
  6
BYLAYER
 62
  256
 10
367.8816666666666
 20
1679.389583333333
 30
0
  0
VERTEX
  5
1F9
  8
8
  6
BYLAYER
 62
  256
 10
368.4730524328644
 20
1676.74316032407
 30
0
  0
VERTEX
  5
1FA
  8
8
  6
BYLAYER
 62
  256
 10
369.9225252478913
 20
1671.494472270737
 30
0
  0
VERTEX
  5
1FB
  8
8
  6
BYLAYER
 62
  256
 10
371.6399115914085
 20
1666.294978649035
 30
0
  0
VERTEX
  5
1FC
  8
8
  6
BYLAYER
 62
  256
 10
373.5672914515634
 20
1661.140462651629
 30
0
  0
VERTEX
  5
1FD
  8
8
  6
BYLAYER
 62
  256
 10
376.7172498736883
 20
1653.479492984289
 30
0
  0
VERTEX
  5
1FE
  8
8
  6
BYLAYER
 62
  256
 10
381.136930551594
 20
1643.389725047251
 30
0
  0
VERTEX
  5
1FF
  8
8
  6
BYLAYER
 62
  256
 10
383.2816666666666
 20
1638.389583333333
 30
0
  0
VERTEX
  5
200
  8
8
  6
BYLAYER
 62
  256
 10
384.0833257558121
 20
1636.533346849676
 30
0
  0
VERTEX
  5
201
  8
8
  6
BYLAYER
 62
  256
 10
385.8329509736272
 20
1632.850779630461
 30
0
  0
VERTEX
  5
202
  8
8
  6
BYLAYER
 62
  256
 10
388.7068229408217
 20
1627.377142466758
 30
0
  0
VERTEX
  5
203
  8
8
  6
BYLAYER
 62
  256
 10
395.0142547321765
 20
1616.536508421187
 30
0
  0
VERTEX
  5
204
  8
8
  6
BYLAYER
 62
  256
 10
400.2349356890708
 20
1607.476360727342
 30
0
  0
VERTEX
  5
205
  8
8
  6
BYLAYER
 62
  256
 10
402.192088123361
 20
1603.820234638563
 30
0
  0
VERTEX
  5
206
  8
8
  6
BYLAYER
 62
  256
 10
404.0221532883099
 20
1600.134091440211
 30
0
  0
VERTEX
  5
207
  8
8
  6
BYLAYER
 62
  256
 10
405.691124923606
 20
1596.410526187646
 30
0
  0
VERTEX
  5
208
  8
8
  6
BYLAYER
 62
  256
 10
407.1649967689382
 20
1592.642133936228
 30
0
  0
VERTEX
  5
209
  8
8
  6
BYLAYER
 62
  256
 10
408.4097625639951
 20
1588.821509741319
 30
0
  0
VERTEX
  5
20A
  8
8
  6
BYLAYER
 62
  256
 10
409.3914160484654
 20
1584.941248658278
 30
0
  0
VERTEX
  5
20B
  8
8
  6
BYLAYER
 62
  256
 10
410.0759509620378
 20
1580.993945742467
 30
0
  0
VERTEX
  5
20C
  8
8
  6
BYLAYER
 62
  256
 10
410.2816666666666
 20
1578.989583333333
 30
0
  0
VERTEX
  5
20D
  8
8
  6
BYLAYER
 62
  256
 10
410.5080211673491
 20
1576.255886788609
 30
0
  0
VERTEX
  5
20E
  8
8
  6
BYLAYER
 62
  256
 10
410.825845512069
 20
1570.741281957263
 30
0
  0
VERTEX
  5
20F
  8
8
  6
BYLAYER
 62
  256
 10
410.9802427137841
 20
1565.180659079106
 30
0
  0
VERTEX
  5
210
  8
8
  6
BYLAYER
 62
  256
 10
410.9694732669042
 20
1559.585835980212
 30
0
  0
VERTEX
  5
211
  8
8
  6
BYLAYER
 62
  256
 10
410.7917976658392
 20
1553.968630486656
 30
0
  0
VERTEX
  5
212
  8
8
  6
BYLAYER
 62
  256
 10
410.4454764049991
 20
1548.340860424512
 30
0
  0
VERTEX
  5
213
  8
8
  6
BYLAYER
 62
  256
 10
409.9287699787938
 20
1542.714343619855
 30
0
  0
VERTEX
  5
214
  8
8
  6
BYLAYER
 62
  256
 10
409.2399388816332
 20
1537.100897898759
 30
0
  0
VERTEX
  5
215
  8
8
  6
BYLAYER
 62
  256
 10
408.3772436079274
 20
1531.512341087299
 30
0
  0
VERTEX
  5
216
  8
8
  6
BYLAYER
 62
  256
 10
407.338944652086
 20
1525.960491011548
 30
0
  0
VERTEX
  5
217
  8
8
  6
BYLAYER
 62
  256
 10
406.1233025085192
 20
1520.457165497582
 30
0
  0
VERTEX
  5
218
  8
8
  6
BYLAYER
 62
  256
 10
404.7285776716369
 20
1515.014182371474
 30
0
  0
VERTEX
  5
219
  8
8
  6
BYLAYER
 62
  256
 10
403.1530306358488
 20
1509.6433594593
 30
0
  0
VERTEX
  5
21A
  8
8
  6
BYLAYER
 62
  256
 10
401.3949218955652
 20
1504.356514587133
 30
0
  0
VERTEX
  5
21B
  8
8
  6
BYLAYER
 62
  256
 10
399.4525119451957
 20
1499.165465581049
 30
0
  0
VERTEX
  5
21C
  8
8
  6
BYLAYER
 62
  256
 10
397.3240612791504
 20
1494.082030267121
 30
0
  0
VERTEX
  5
21D
  8
8
  6
BYLAYER
 62
  256
 10
396.1816666666667
 20
1491.589583333333
 30
0
  0
VERTEX
  5
21E
  8
8
  6
BYLAYER
 62
  256
 10
394.87129536041
 20
1488.859381990381
 30
0
  0
VERTEX
  5
21F
  8
8
  6
BYLAYER
 62
  256
 10
391.9784903227506
 20
1483.550983465473
 30
0
  0
VERTEX
  5
220
  8
8
  6
BYLAYER
 62
  256
 10
388.7900269851348
 20
1478.408255707648
 30
0
  0
VERTEX
  5
221
  8
8
  6
BYLAYER
 62
  256
 10
385.3401460255846
 20
1473.412605132337
 30
0
  0
VERTEX
  5
222
  8
8
  6
BYLAYER
 62
  256
 10
381.6630881221215
 20
1468.545438154972
 30
0
  0
VERTEX
  5
223
  8
8
  6
BYLAYER
 62
  256
 10
377.7930939527671
 20
1463.788161190983
 30
0
  0
VERTEX
  5
224
  8
8
  6
BYLAYER
 62
  256
 10
373.7644041955433
 20
1459.122180655804
 30
0
  0
VERTEX
  5
225
  8
8
  6
BYLAYER
 62
  256
 10
369.6112595284716
 20
1454.528902964864
 30
0
  0
VERTEX
  5
226
  8
8
  6
BYLAYER
 62
  256
 10
363.227947706921
 20
1447.731353434808
 30
0
  0
VERTEX
  5
227
  8
8
  6
BYLAYER
 62
  256
 10
359.1597423815383
 20
1443.507177172729
 30
0
  0
VERTEX
  5
228
  8
8
  6
BYLAYER
 62
  256
 10
359.1597423815383
 20
1443.507177172729
 30
0
  0
SEQEND
  5
229
  8
8
  6
BYLAYER
 62
  256
  0
POLYLINE
  5
22A
  8
8
  6
BYLAYER
 62
  256
 66
    1
 10
0
 20
0
 30
0
 70
    0
  0
VERTEX
  5
22B
  8
8
  6
BYLAYER
 62
  256
 10
884.6316666666665
 20
1415.789583333333
 30
0
  0
VERTEX
  5
22C
  8
8
  6
BYLAYER
 62
  256
 10
334.1316666666667
 20
1415.789583333333
 30
0
  0
SEQEND
  5
22D
  8
8
  6
BYLAYER
 62
  256
  0
POLYLINE
  5
22E
  8
8
  6
BYLAYER
 62
  256
 66
    1
 10
0
 20
0
 30
0
 70
    0
  0
VERTEX
  5
22F
  8
8
  6
BYLAYER
 62
  256
 10
808.4816666666667
 20
1578.989583333333
 30
0
  0
VERTEX
  5
230
  8
8
  6
BYLAYER
 62
  256
 10
410.2816666666666
 20
1578.989583333333
 30
0
  0
SEQEND
  5
231
  8
8
  6
BYLAYER
 62
  256
  0
LINE
  5
232
  8
7
  6
BYLAYER
 62
  256
 10
609.3816666666668
 20
1752.214583333333
 11
609.3816666666667
 21
1272.749583333333
  0
TEXT
  5
233
  8
1
  6
BYLAYER
 62
  256
 10
659.3816666666667
 20
1398.289583333333
 30
0
 40
2.5
  1
Piece Name: Sweatshirt Front
 50
0
 41
1
 51
0
  7
STANDARD
 71
    0
210
0
220
0
230
1
  0
TEXT
  5
234
  8
1
  6
BYLAYER
 62
  256
 10
659.3816666666667
 20
1395.789583333333
 30
0
 40
2.5
  1
File Name: GBlock-201-Sweatshirt-Parametric-Scalable-V4-Hood-csr2119a-EXTRAy
 50
0
 41
1
 51
0
  7
STANDARD
 71
    0
210
0
220
0
230
1
  0
TEXT
  5
235
  8
1
  6
BYLAYER
 62
  256
 10
659.3816666666667
 20
1393.289583333333
 30
0
 40
2.5
  1
Measurement Name: csr2119a-EXTRA
 50
0
 41
1
 51
0
  7
STANDARD
 71
    0
210
0
220
0
230
1
  0
TEXT
  5
236
  8
1
  6
BYLAYER
 62
  256
 10
659.3816666666667
 20
1390.789583333333
 30
0
 40
2.5
  1
Date: 03-25-2026
 50
0
 41
1
 51
0
  7
STANDARD
 71
    0
210
0
220
0
230
1
  0
ENDBLK
  8
1
  0
BLOCK
  8
1
  2
SWEATSHIRT_BACK
 70
    0
 10
0
 20
0
  3
SWEATSHIRT_BACK
  1

  0
POLYLINE
  5
237
  8
1
  6
BYLAYER
 62
  256
 66
    1
 10
0
 20
0
 30
0
 70
    1
  0
VERTEX
  5
238
  8
1
  6
BYLAYER
 62
  256
 10
161.8521120533733
 20
618.6655599195046
 30
0
  0
VERTEX
  5
239
  8
1
  6
BYLAYER
 62
  256
 10
161.8521120533733
 20
798.8905599195049
 30
0
  0
VERTEX
  5
23A
  8
1
  6
BYLAYER
 62
  256
 10
161.8521120533733
 20
935.9615102487925
 30
0
  0
VERTEX
  5
23B
  8
1
  6
BYLAYER
 62
  256
 10
170.7453430911142
 20
935.9984936384795
 30
0
  0
VERTEX
  5
23C
  8
1
  6
BYLAYER
 62
  256
 10
174.4682068669728
 20
936.0928876110268
 30
0
  0
VERTEX
  5
23D
  8
1
  6
BYLAYER
 62
  256
 10
178.0466012616425
 20
936.278323961932
 30
0
  0
VERTEX
  5
23E
  8
1
  6
BYLAYER
 62
  256
 10
181.4970497778544
 20
936.5525206177321
 30
0
  0
VERTEX
  5
23F
  8
1
  6
BYLAYER
 62
  256
 10
184.8216018323604
 20
936.9127944797962
 30
0
  0
VERTEX
  5
240
  8
1
  6
BYLAYER
 62
  256
 10
188.0223977772799
 20
937.3564381905887
 30
0
  0
VERTEX
  5
241
  8
1
  6
BYLAYER
 62
  256
 10
191.1016814917218
 20
937.8807306725392
 30
0
  0
VERTEX
  5
242
  8
1
  6
BYLAYER
 62
  256
 10
194.0618121908781
 20
938.4829506524968
 30
0
  0
VERTEX
  5
243
  8
1
  6
BYLAYER
 62
  256
 10
196.9052746296102
 20
939.1603932667581
 30
0
  0
VERTEX
  5
244
  8
1
  6
BYLAYER
 62
  256
 10
199.6346867454996
 20
939.910389639422
 30
0
  0
VERTEX
  5
245
  8
1
  6
BYLAYER
 62
  256
 10
202.2528037042
 20
940.7303290645798
 30
0
  0
VERTEX
  5
246
  8
1
  6
BYLAYER
 62
  256
 10
204.7625173073113
 20
941.6176831119457
 30
0
  0
VERTEX
  5
247
  8
1
  6
BYLAYER
 62
  256
 10
207.1668498281982
 20
942.5700306400078
 30
0
  0
VERTEX
  5
248
  8
1
  6
BYLAYER
 62
  256
 10
209.4689415758849
 20
943.5850823784235
 30
0
  0
VERTEX
  5
249
  8
1
  6
BYLAYER
 62
  256
 10
211.6720318581695
 20
944.6607034811636
 30
0
  0
VERTEX
  5
24A
  8
1
  6
BYLAYER
 62
  256
 10
213.77943350814
 20
945.7949323082466
 30
0
  0
VERTEX
  5
24B
  8
1
  6
BYLAYER
 62
  256
 10
215.7945017133338
 20
946.985993716581
 30
0
  0
VERTEX
  5
24C
  8
1
  6
BYLAYER
 62
  256
 10
217.7205984794889
 20
948.2323053628285
 30
0
  0
VERTEX
  5
24D
  8
1
  6
BYLAYER
 62
  256
 10
219.5610545892368
 20
949.5324759483118
 30
0
  0
VERTEX
  5
24E
  8
1
  6
BYLAYER
 62
  256
 10
221.3002757740092
 20
950.8707858394389
 30
0
  0
VERTEX
  5
24F
  8
1
  6
BYLAYER
 62
  256
 10
223.8000266870812
 20
952.9909496341214
 30
0
  0
VERTEX
  5
250
  8
1
  6
BYLAYER
 62
  256
 10
226.8761265149855
 20
956.0181535585575
 30
0
  0
VERTEX
  5
251
  8
1
  6
BYLAYER
 62
  256
 10
229.6573868140181
 20
959.2237510534478
 30
0
  0
VERTEX
  5
252
  8
1
  6
BYLAYER
 62
  256
 10
232.1791475442468
 20
962.6186744664782
 30
0
  0
VERTEX
  5
253
  8
1
  6
BYLAYER
 62
  256
 10
234.4569850403728
 20
966.1963981448681
 30
0
  0
VERTEX
  5
254
  8
1
  6
BYLAYER
 62
  256
 10
236.5042311705022
 20
969.9489230925298
 30
0
  0
VERTEX
  5
255
  8
1
  6
BYLAYER
 62
  256
 10
238.3326778107378
 20
973.8664191512991
 30
0
  0
VERTEX
  5
256
  8
1
  6
BYLAYER
 62
  256
 10
239.9532695173672
 20
977.9371897270747
 30
0
  0
VERTEX
  5
257
  8
1
  6
BYLAYER
 62
  256
 10
241.3766754478437
 20
982.1478610350231
 30
0
  0
VERTEX
  5
258
  8
1
  6
BYLAYER
 62
  256
 10
242.6136984773548
 20
986.4836889123625
 30
0
  0
VERTEX
  5
259
  8
1
  6
BYLAYER
 62
  256
 10
243.675527684948
 20
990.9288976915288
 30
0
  0
VERTEX
  5
25A
  8
1
  6
BYLAYER
 62
  256
 10
244.573865001128
 20
995.4669968791982
 30
0
  0
VERTEX
  5
25B
  8
1
  6
BYLAYER
 62
  256
 10
245.3209631861465
 20
1000.081049293335
 30
0
  0
VERTEX
  5
25C
  8
1
  6
BYLAYER
 62
  256
 10
245.9296084034735
 20
1004.753883822182
 30
0
  0
VERTEX
  5
25D
  8
1
  6
BYLAYER
 62
  256
 10
246.4130728422891
 20
1009.468257183463
 30
0
  0
VERTEX
  5
25E
  8
1
  6
BYLAYER
 62
  256
 10
246.7841891081937
 20
1014.195944950637
 30
0
  0
VERTEX
  5
25F
  8
1
  6
BYLAYER
 62
  256
 10
247.1740366134523
 20
1021.32544660476
 30
0
  0
VERTEX
  5
260
  8
1
  6
BYLAYER
 62
  256
 10
247.4205278643008
 20
1030.757000471886
 30
0
  0
VERTEX
  5
261
  8
1
  6
BYLAYER
 62
  256
 10
247.4826295548706
 20
1039.976969082055
 30
0
  0
VERTEX
  5
262
  8
1
  6
BYLAYER
 62
  256
 10
247.4826295548706
 20
1044.422356096503
 30
0
  0
VERTEX
  5
263
  8
1
  6
BYLAYER
 62
  256
 10
247.4652028986549
 20
1047.772909673441
 30
0
  0
VERTEX
  5
264
  8
1
  6
BYLAYER
 62
  256
 10
247.2632478629581
 20
1054.773823216743
 30
0
  0
VERTEX
  5
265
  8
1
  6
BYLAYER
 62
  256
 10
246.8753624411302
 20
1062.042157668626
 30
0
  0
VERTEX
  5
266
  8
1
  6
BYLAYER
 62
  256
 10
246.3169809105605
 20
1069.521987807781
 30
0
  0
VERTEX
  5
267
  8
1
  6
BYLAYER
 62
  256
 10
245.6046256323834
 20
1077.140831992251
 30
0
  0
VERTEX
  5
268
  8
1
  6
BYLAYER
 62
  256
 10
244.7551580741949
 20
1084.827301036511
 30
0
  0
VERTEX
  5
269
  8
1
  6
BYLAYER
 62
  256
 10
243.7856591625017
 20
1092.510720937282
 30
0
  0
VERTEX
  5
26A
  8
1
  6
BYLAYER
 62
  256
 10
242.7133687232505
 20
1100.120856575163
 30
0
  0
VERTEX
  5
26B
  8
1
  6
BYLAYER
 62
  256
 10
241.5556625960457
 20
1107.587687730428
 30
0
  0
VERTEX
  5
26C
  8
1
  6
BYLAYER
 62
  256
 10
240.3300594979284
 20
1114.841198933687
 30
0
  0
VERTEX
  5
26D
  8
1
  6
BYLAYER
 62
  256
 10
239.054259890637
 20
1121.811143734292
 30
0
  0
VERTEX
  5
26E
  8
1
  6
BYLAYER
 62
  256
 10
237.7462312675192
 20
1128.426729352007
 30
0
  0
VERTEX
  5
26F
  8
1
  6
BYLAYER
 62
  256
 10
236.4243760506721
 20
1134.616128757593
 30
0
  0
VERTEX
  5
270
  8
1
  6
BYLAYER
 62
  256
 10
235.1078672670432
 20
1140.305634405022
 30
0
  0
VERTEX
  5
271
  8
1
  6
BYLAYER
 62
  256
 10
233.8173639581468
 20
1145.418037846899
 30
0
  0
VERTEX
  5
272
  8
1
  6
BYLAYER
 62
  256
 10
232.5708616549717
 20
1149.890113148163
 30
0
  0
VERTEX
  5
273
  8
1
  6
BYLAYER
 62
  256
 10
229.9278412486563
 20
1158.490158273104
 30
0
  0
VERTEX
  5
274
  8
1
  6
BYLAYER
 62
  256
 10
365.1941373668792
 20
1200.981148906938
 30
0
  0
VERTEX
  5
275
  8
1
  6
BYLAYER
 62
  256
 10
367.5830809682232
 20
1193.627297367662
 30
0
  0
VERTEX
  5
276
  8
1
  6
BYLAYER
 62
  256
 10
368.152612793249
 20
1192.126292098233
 30
0
  0
VERTEX
  5
277
  8
1
  6
BYLAYER
 62
  256
 10
368.8154413354686
 20
1190.642853498841
 30
0
  0
VERTEX
  5
278
  8
1
  6
BYLAYER
 62
  256
 10
369.5880080785052
 20
1189.147722258806
 30
0
  0
VERTEX
  5
279
  8
1
  6
BYLAYER
 62
  256
 10
370.4747939969699
 20
1187.643709449913
 30
0
  0
VERTEX
  5
27A
  8
1
  6
BYLAYER
 62
  256
 10
371.4803788449026
 20
1186.133845892501
 30
0
  0
VERTEX
  5
27B
  8
1
  6
BYLAYER
 62
  256
 10
372.6094010451411
 20
1184.621399076202
 30
0
  0
VERTEX
  5
27C
  8
1
  6
BYLAYER
 62
  256
 10
373.8665157779511
 20
1183.109880525441
 30
0
  0
VERTEX
  5
27D
  8
1
  6
BYLAYER
 62
  256
 10
375.2563538726351
 20
1181.603043686341
 30
0
  0
VERTEX
  5
27E
  8
1
  6
BYLAYER
 62
  256
 10
376.7834838123343
 20
1180.104873153729
 30
0
  0
VERTEX
  5
27F
  8
1
  6
BYLAYER
 62
  256
 10
378.4523786770611
 20
1178.619566628774
 30
0
  0
VERTEX
  5
280
  8
1
  6
BYLAYER
 62
  256
 10
380.2673892578325
 20
1177.15151135664
 30
0
  0
VERTEX
  5
281
  8
1
  6
BYLAYER
 62
  256
 10
382.2327239612538
 20
1175.70525693374
 30
0
  0
VERTEX
  5
282
  8
1
  6
BYLAYER
 62
  256
 10
384.3524355616414
 20
1174.285486320764
 30
0
  0
VERTEX
  5
283
  8
1
  6
BYLAYER
 62
  256
 10
386.6304143972064
 20
1172.896986696182
 30
0
  0
VERTEX
  5
284
  8
1
  6
BYLAYER
 62
  256
 10
389.0703872739085
 20
1171.544621489126
 30
0
  0
VERTEX
  5
285
  8
1
  6
BYLAYER
 62
  256
 10
391.6759211389702
 20
1170.233304592696
 30
0
  0
VERTEX
  5
286
  8
1
  6
BYLAYER
 62
  256
 10
394.450430502742
 20
1168.967977422162
 30
0
  0
VERTEX
  5
287
  8
1
  6
BYLAYER
 62
  256
 10
397.3971875996377
 20
1167.753589178344
 30
0
  0
VERTEX
  5
288
  8
1
  6
BYLAYER
 62
  256
 10
400.5193343592833
 20
1166.59508042325
 30
0
  0
VERTEX
  5
289
  8
1
  6
BYLAYER
 62
  256
 10
403.8198953817336
 20
1165.497369880219
 30
0
  0
VERTEX
  5
28A
  8
1
  6
BYLAYER
 62
  256
 10
407.3017912532711
 20
1164.465344233622
 30
0
  0
VERTEX
  5
28B
  8
1
  6
BYLAYER
 62
  256
 10
410.9678516846733
 20
1163.503850617356
 30
0
  0
VERTEX
  5
28C
  8
1
  6
BYLAYER
 62
  256
 10
414.8208280900703
 20
1162.617691437918
 30
0
  0
VERTEX
  5
28D
  8
1
  6
BYLAYER
 62
  256
 10
418.8634053444522
 20
1161.811621166909
 30
0
  0
VERTEX
  5
28E
  8
1
  6
BYLAYER
 62
  256
 10
423.0982125582274
 20
1161.090344750023
 30
0
  0
VERTEX
  5
28F
  8
1
  6
BYLAYER
 62
  256
 10
427.5278327873812
 20
1160.458517306761
 30
0
  0
VERTEX
  5
290
  8
1
  6
BYLAYER
 62
  256
 10
432.1548116589744
 20
1159.920744830946
 30
0
  0
VERTEX
  5
291
  8
1
  6
BYLAYER
 62
  256
 10
436.9816649362187
 20
1159.481585641378
 30
0
  0
VERTEX
  5
292
  8
1
  6
BYLAYER
 62
  256
 10
442.0108850778469
 20
1159.14555237151
 30
0
  0
VERTEX
  5
293
  8
1
  6
BYLAYER
 62
  256
 10
447.2449468657212
 20
1158.917114324292
 30
0
  0
VERTEX
  5
294
  8
1
  6
BYLAYER
 62
  256
 10
452.6986253685485
 20
1158.800436620118
 30
0
  0
VERTEX
  5
295
  8
1
  6
BYLAYER
 62
  256
 10
455.4933620533734
 20
1158.790603249607
 30
0
  0
VERTEX
  5
296
  8
1
  6
BYLAYER
 62
  256
 10
458.2880987381982
 20
1158.800436620118
 30
0
  0
VERTEX
  5
297
  8
1
  6
BYLAYER
 62
  256
 10
463.7417772410255
 20
1158.917114324292
 30
0
  0
VERTEX
  5
298
  8
1
  6
BYLAYER
 62
  256
 10
468.9758390288999
 20
1159.14555237151
 30
0
  0
VERTEX
  5
299
  8
1
  6
BYLAYER
 62
  256
 10
474.0050591705279
 20
1159.481585641378
 30
0
  0
VERTEX
  5
29A
  8
1
  6
BYLAYER
 62
  256
 10
478.8319124477725
 20
1159.920744830946
 30
0
  0
VERTEX
  5
29B
  8
1
  6
BYLAYER
 62
  256
 10
483.4588913193655
 20
1160.458517306761
 30
0
  0
VERTEX
  5
29C
  8
1
  6
BYLAYER
 62
  256
 10
487.8885115485193
 20
1161.090344750023
 30
0
  0
VERTEX
  5
29D
  8
1
  6
BYLAYER
 62
  256
 10
492.1233187622948
 20
1161.81162116691
 30
0
  0
VERTEX
  5
29E
  8
1
  6
BYLAYER
 62
  256
 10
496.1658960166764
 20
1162.617691437918
 30
0
  0
VERTEX
  5
29F
  8
1
  6
BYLAYER
 62
  256
 10
500.0188724220734
 20
1163.503850617356
 30
0
  0
VERTEX
  5
2A0
  8
1
  6
BYLAYER
 62
  256
 10
503.6849328534757
 20
1164.465344233622
 30
0
  0
VERTEX
  5
2A1
  8
1
  6
BYLAYER
 62
  256
 10
507.1668287250131
 20
1165.497369880219
 30
0
  0
VERTEX
  5
2A2
  8
1
  6
BYLAYER
 62
  256
 10
510.4673897474635
 20
1166.59508042325
 30
0
  0
VERTEX
  5
2A3
  8
1
  6
BYLAYER
 62
  256
 10
513.5895365071091
 20
1167.753589178344
 30
0
  0
VERTEX
  5
2A4
  8
1
  6
BYLAYER
 62
  256
 10
516.5362936040049
 20
1168.967977422162
 30
0
  0
VERTEX
  5
2A5
  8
1
  6
BYLAYER
 62
  256
 10
519.3108029677765
 20
1170.233304592696
 30
0
  0
VERTEX
  5
2A6
  8
1
  6
BYLAYER
 62
  256
 10
521.9163368328381
 20
1171.544621489126
 30
0
  0
VERTEX
  5
2A7
  8
1
  6
BYLAYER
 62
  256
 10
524.3563097095406
 20
1172.896986696182
 30
0
  0
VERTEX
  5
2A8
  8
1
  6
BYLAYER
 62
  256
 10
526.6342885451054
 20
1174.285486320764
 30
0
  0
VERTEX
  5
2A9
  8
1
  6
BYLAYER
 62
  256
 10
528.754000145493
 20
1175.70525693374
 30
0
  0
VERTEX
  5
2AA
  8
1
  6
BYLAYER
 62
  256
 10
530.7193348489142
 20
1177.15151135664
 30
0
  0
VERTEX
  5
2AB
  8
1
  6
BYLAYER
 62
  256
 10
532.5343454296856
 20
1178.619566628774
 30
0
  0
VERTEX
  5
2AC
  8
1
  6
BYLAYER
 62
  256
 10
534.2032402944125
 20
1180.10487315373
 30
0
  0
VERTEX
  5
2AD
  8
1
  6
BYLAYER
 62
  256
 10
535.7303702341117
 20
1181.603043686341
 30
0
  0
VERTEX
  5
2AE
  8
1
  6
BYLAYER
 62
  256
 10
537.1202083287958
 20
1183.109880525441
 30
0
  0
VERTEX
  5
2AF
  8
1
  6
BYLAYER
 62
  256
 10
538.3773230616056
 20
1184.621399076202
 30
0
  0
VERTEX
  5
2B0
  8
1
  6
BYLAYER
 62
  256
 10
539.5063452618441
 20
1186.133845892501
 30
0
  0
VERTEX
  5
2B1
  8
1
  6
BYLAYER
 62
  256
 10
540.5119301097769
 20
1187.643709449913
 30
0
  0
VERTEX
  5
2B2
  8
1
  6
BYLAYER
 62
  256
 10
541.3987160282416
 20
1189.147722258806
 30
0
  0
VERTEX
  5
2B3
  8
1
  6
BYLAYER
 62
  256
 10
542.1712827712782
 20
1190.642853498841
 30
0
  0
VERTEX
  5
2B4
  8
1
  6
BYLAYER
 62
  256
 10
542.8341113134977
 20
1192.126292098233
 30
0
  0
VERTEX
  5
2B5
  8
1
  6
BYLAYER
 62
  256
 10
543.4036431385234
 20
1193.627297367662
 30
0
  0
VERTEX
  5
2B6
  8
1
  6
BYLAYER
 62
  256
 10
545.7925867398677
 20
1200.981148906938
 30
0
  0
VERTEX
  5
2B7
  8
1
  6
BYLAYER
 62
  256
 10
681.0588828580904
 20
1158.490158273104
 30
0
  0
VERTEX
  5
2B8
  8
1
  6
BYLAYER
 62
  256
 10
678.415862451775
 20
1149.890113148163
 30
0
  0
VERTEX
  5
2B9
  8
1
  6
BYLAYER
 62
  256
 10
677.1693601485999
 20
1145.418037846899
 30
0
  0
VERTEX
  5
2BA
  8
1
  6
BYLAYER
 62
  256
 10
675.8788568397034
 20
1140.305634405022
 30
0
  0
VERTEX
  5
2BB
  8
1
  6
BYLAYER
 62
  256
 10
674.5623480560747
 20
1134.616128757593
 30
0
  0
VERTEX
  5
2BC
  8
1
  6
BYLAYER
 62
  256
 10
673.2404928392276
 20
1128.426729352007
 30
0
  0
VERTEX
  5
2BD
  8
1
  6
BYLAYER
 62
  256
 10
671.9324642161098
 20
1121.811143734292
 30
0
  0
VERTEX
  5
2BE
  8
1
  6
BYLAYER
 62
  256
 10
670.6566646088183
 20
1114.841198933687
 30
0
  0
VERTEX
  5
2BF
  8
1
  6
BYLAYER
 62
  256
 10
669.4310615107009
 20
1107.587687730428
 30
0
  0
VERTEX
  5
2C0
  8
1
  6
BYLAYER
 62
  256
 10
668.2733553834961
 20
1100.120856575163
 30
0
  0
VERTEX
  5
2C1
  8
1
  6
BYLAYER
 62
  256
 10
667.2010649442451
 20
1092.510720937282
 30
0
  0
VERTEX
  5
2C2
  8
1
  6
BYLAYER
 62
  256
 10
666.231566032552
 20
1084.827301036511
 30
0
  0
VERTEX
  5
2C3
  8
1
  6
BYLAYER
 62
  256
 10
665.3820984743633
 20
1077.140831992251
 30
0
  0
VERTEX
  5
2C4
  8
1
  6
BYLAYER
 62
  256
 10
664.6697431961862
 20
1069.521987807781
 30
0
  0
VERTEX
  5
2C5
  8
1
  6
BYLAYER
 62
  256
 10
664.1113616656165
 20
1062.042157668626
 30
0
  0
VERTEX
  5
2C6
  8
1
  6
BYLAYER
 62
  256
 10
663.7234762437887
 20
1054.773823216743
 30
0
  0
VERTEX
  5
2C7
  8
1
  6
BYLAYER
 62
  256
 10
663.5215212080919
 20
1047.772909673441
 30
0
  0
VERTEX
  5
2C8
  8
1
  6
BYLAYER
 62
  256
 10
663.5040945518762
 20
1044.422356096503
 30
0
  0
VERTEX
  5
2C9
  8
1
  6
BYLAYER
 62
  256
 10
663.5040945518762
 20
1039.976969082055
 30
0
  0
VERTEX
  5
2CA
  8
1
  6
BYLAYER
 62
  256
 10
663.5661962424459
 20
1030.757000471886
 30
0
  0
VERTEX
  5
2CB
  8
1
  6
BYLAYER
 62
  256
 10
663.8126874932944
 20
1021.32544660476
 30
0
  0
VERTEX
  5
2CC
  8
1
  6
BYLAYER
 62
  256
 10
664.2025349985531
 20
1014.195944950637
 30
0
  0
VERTEX
  5
2CD
  8
1
  6
BYLAYER
 62
  256
 10
664.5736512644578
 20
1009.468257183463
 30
0
  0
VERTEX
  5
2CE
  8
1
  6
BYLAYER
 62
  256
 10
665.0571157032733
 20
1004.753883822182
 30
0
  0
VERTEX
  5
2CF
  8
1
  6
BYLAYER
 62
  256
 10
665.6657609206003
 20
1000.081049293335
 30
0
  0
VERTEX
  5
2D0
  8
1
  6
BYLAYER
 62
  256
 10
666.4128591056187
 20
995.4669968791982
 30
0
  0
VERTEX
  5
2D1
  8
1
  6
BYLAYER
 62
  256
 10
667.3111964217989
 20
990.9288976915288
 30
0
  0
VERTEX
  5
2D2
  8
1
  6
BYLAYER
 62
  256
 10
668.373025629392
 20
986.4836889123625
 30
0
  0
VERTEX
  5
2D3
  8
1
  6
BYLAYER
 62
  256
 10
669.6100486589031
 20
982.1478610350231
 30
0
  0
VERTEX
  5
2D4
  8
1
  6
BYLAYER
 62
  256
 10
671.0334545893795
 20
977.9371897270747
 30
0
  0
VERTEX
  5
2D5
  8
1
  6
BYLAYER
 62
  256
 10
672.6540462960089
 20
973.8664191512991
 30
0
  0
VERTEX
  5
2D6
  8
1
  6
BYLAYER
 62
  256
 10
674.4824929362446
 20
969.9489230925298
 30
0
  0
VERTEX
  5
2D7
  8
1
  6
BYLAYER
 62
  256
 10
676.529739066374
 20
966.1963981448681
 30
0
  0
VERTEX
  5
2D8
  8
1
  6
BYLAYER
 62
  256
 10
678.8075765625
 20
962.6186744664782
 30
0
  0
VERTEX
  5
2D9
  8
1
  6
BYLAYER
 62
  256
 10
681.3293372927287
 20
959.2237510534478
 30
0
  0
VERTEX
  5
2DA
  8
1
  6
BYLAYER
 62
  256
 10
684.1105975917612
 20
956.0181535585575
 30
0
  0
VERTEX
  5
2DB
  8
1
  6
BYLAYER
 62
  256
 10
687.1866974196655
 20
952.9909496341214
 30
0
  0
VERTEX
  5
2DC
  8
1
  6
BYLAYER
 62
  256
 10
689.6864483327374
 20
950.8707858394389
 30
0
  0
VERTEX
  5
2DD
  8
1
  6
BYLAYER
 62
  256
 10
691.4256695175098
 20
949.5324759483118
 30
0
  0
VERTEX
  5
2DE
  8
1
  6
BYLAYER
 62
  256
 10
693.2661256272579
 20
948.2323053628285
 30
0
  0
VERTEX
  5
2DF
  8
1
  6
BYLAYER
 62
  256
 10
695.1922223934129
 20
946.985993716581
 30
0
  0
VERTEX
  5
2E0
  8
1
  6
BYLAYER
 62
  256
 10
697.2072905986067
 20
945.7949323082469
 30
0
  0
VERTEX
  5
2E1
  8
1
  6
BYLAYER
 62
  256
 10
699.3146922485772
 20
944.6607034811636
 30
0
  0
VERTEX
  5
2E2
  8
1
  6
BYLAYER
 62
  256
 10
701.5177825308618
 20
943.5850823784235
 30
0
  0
VERTEX
  5
2E3
  8
1
  6
BYLAYER
 62
  256
 10
703.8198742785486
 20
942.5700306400078
 30
0
  0
VERTEX
  5
2E4
  8
1
  6
BYLAYER
 62
  256
 10
706.2242067994355
 20
941.6176831119457
 30
0
  0
VERTEX
  5
2E5
  8
1
  6
BYLAYER
 62
  256
 10
708.7339204025468
 20
940.7303290645798
 30
0
  0
VERTEX
  5
2E6
  8
1
  6
BYLAYER
 62
  256
 10
711.352037361247
 20
939.9103896394222
 30
0
  0
VERTEX
  5
2E7
  8
1
  6
BYLAYER
 62
  256
 10
714.0814494771365
 20
939.1603932667581
 30
0
  0
VERTEX
  5
2E8
  8
1
  6
BYLAYER
 62
  256
 10
716.9249119158686
 20
938.4829506524968
 30
0
  0
VERTEX
  5
2E9
  8
1
  6
BYLAYER
 62
  256
 10
719.8850426150246
 20
937.8807306725392
 30
0
  0
VERTEX
  5
2EA
  8
1
  6
BYLAYER
 62
  256
 10
722.9643263294668
 20
937.3564381905887
 30
0
  0
VERTEX
  5
2EB
  8
1
  6
BYLAYER
 62
  256
 10
726.1651222743865
 20
936.9127944797962
 30
0
  0
VERTEX
  5
2EC
  8
1
  6
BYLAYER
 62
  256
 10
729.4896743288922
 20
936.5525206177321
 30
0
  0
VERTEX
  5
2ED
  8
1
  6
BYLAYER
 62
  256
 10
732.9401228451043
 20
936.278323961932
 30
0
  0
VERTEX
  5
2EE
  8
1
  6
BYLAYER
 62
  256
 10
736.5185172397739
 20
936.0928876110268
 30
0
  0
VERTEX
  5
2EF
  8
1
  6
BYLAYER
 62
  256
 10
740.2413810156327
 20
935.9984936384795
 30
0
  0
VERTEX
  5
2F0
  8
1
  6
BYLAYER
 62
  256
 10
749.1346120533735
 20
935.9615102487925
 30
0
  0
VERTEX
  5
2F1
  8
1
  6
BYLAYER
 62
  256
 10
749.1346120533735
 20
798.8905599195049
 30
0
  0
VERTEX
  5
2F2
  8
1
  6
BYLAYER
 62
  256
 10
749.1346120533735
 20
618.6655599195046
 30
0
  0
VERTEX
  5
2F3
  8
1
  6
BYLAYER
 62
  256
 10
161.8521120533733
 20
618.6655599195046
 30
0
  0
SEQEND
  5
2F4
  8
1
  6
BYLAYER
 62
  256
  0
POLYLINE
  5
2F5
  8
8
  6
BYLAYER
 62
  256
 66
    1
 10
0
 20
0
 30
0
 70
    1
  0
VERTEX
  5
2F6
  8
8
  6
BYLAYER
 62
  256
 10
168.8521120533733
 20
625.6655599195047
 30
0
  0
VERTEX
  5
2F7
  8
8
  6
BYLAYER
 62
  256
 10
168.8521120533733
 20
798.8905599195049
 30
0
  0
VERTEX
  5
2F8
  8
8
  6
BYLAYER
 62
  256
 10
168.8521120533733
 20
928.9905599195048
 30
0
  0
VERTEX
  5
2F9
  8
8
  6
BYLAYER
 62
  256
 10
170.8486243632837
 20
928.9988626153933
 30
0
  0
VERTEX
  5
2FA
  8
8
  6
BYLAYER
 62
  256
 10
174.7380995062979
 20
929.0974810532348
 30
0
  0
VERTEX
  5
2FB
  8
8
  6
BYLAYER
 62
  256
 10
178.5050792114496
 20
929.2926901032765
 30
0
  0
VERTEX
  5
2FC
  8
8
  6
BYLAYER
 62
  256
 10
182.1515234057444
 20
929.5824619398768
 30
0
  0
VERTEX
  5
2FD
  8
8
  6
BYLAYER
 62
  256
 10
185.6793920161882
 20
929.9647687373945
 30
0
  0
VERTEX
  5
2FE
  8
8
  6
BYLAYER
 62
  256
 10
189.0906449697867
 20
930.437582670188
 30
0
  0
VERTEX
  5
2FF
  8
8
  6
BYLAYER
 62
  256
 10
192.3872421935459
 20
930.9988759126162
 30
0
  0
VERTEX
  5
300
  8
8
  6
BYLAYER
 62
  256
 10
195.5711436144713
 20
931.6466206390376
 30
0
  0
VERTEX
  5
301
  8
8
  6
BYLAYER
 62
  256
 10
198.644309159569
 20
932.3787890238106
 30
0
  0
VERTEX
  5
302
  8
8
  6
BYLAYER
 62
  256
 10
201.6086987558447
 20
933.1933532412941
 30
0
  0
VERTEX
  5
303
  8
8
  6
BYLAYER
 62
  256
 10
204.4662723303041
 20
934.0882854658464
 30
0
  0
VERTEX
  5
304
  8
8
  6
BYLAYER
 62
  256
 10
207.2189898099532
 20
935.0615578718264
 30
0
  0
VERTEX
  5
305
  8
8
  6
BYLAYER
 62
  256
 10
209.8688111217976
 20
936.1111426335926
 30
0
  0
VERTEX
  5
306
  8
8
  6
BYLAYER
 62
  256
 10
212.4176961928432
 20
937.2350119255037
 30
0
  0
VERTEX
  5
307
  8
8
  6
BYLAYER
 62
  256
 10
214.8676049500959
 20
938.4311379219181
 30
0
  0
VERTEX
  5
308
  8
8
  6
BYLAYER
 62
  256
 10
217.2204973205612
 20
939.6974927971946
 30
0
  0
VERTEX
  5
309
  8
8
  6
BYLAYER
 62
  256
 10
219.4783332312452
 20
941.0320487256914
 30
0
  0
VERTEX
  5
30A
  8
8
  6
BYLAYER
 62
  256
 10
221.6430726091536
 20
942.4327778817677
 30
0
  0
VERTEX
  5
30B
  8
8
  6
BYLAYER
 62
  256
 10
223.7166753812922
 20
943.8976524397818
 30
0
  0
VERTEX
  5
30C
  8
8
  6
BYLAYER
 62
  256
 10
225.7011014746669
 20
945.4246445740923
 30
0
  0
VERTEX
  5
30D
  8
8
  6
BYLAYER
 62
  256
 10
228.5253562900277
 20
947.8200363609993
 30
0
  0
VERTEX
  5
30E
  8
8
  6
BYLAYER
 62
  256
 10
231.9826675282626
 20
951.2223921797025
 30
0
  0
VERTEX
  5
30F
  8
8
  6
BYLAYER
 62
  256
 10
235.1185507375459
 20
954.8367174420463
 30
0
  0
VERTEX
  5
310
  8
8
  6
BYLAYER
 62
  256
 10
237.9486853339241
 20
958.6467895428997
 30
0
  0
VERTEX
  5
311
  8
8
  6
BYLAYER
 62
  256
 10
240.4887507334437
 20
962.6363858771314
 30
0
  0
VERTEX
  5
312
  8
8
  6
BYLAYER
 62
  256
 10
242.7544263521509
 20
966.7892838396103
 30
0
  0
VERTEX
  5
313
  8
8
  6
BYLAYER
 62
  256
 10
244.7613916060922
 20
971.0892608252057
 30
0
  0
VERTEX
  5
314
  8
8
  6
BYLAYER
 62
  256
 10
246.5253259113141
 20
975.520094228786
 30
0
  0
VERTEX
  5
315
  8
8
  6
BYLAYER
 62
  256
 10
248.061908683863
 20
980.0655614452202
 30
0
  0
VERTEX
  5
316
  8
8
  6
BYLAYER
 62
  256
 10
249.3868193397852
 20
984.7094398693771
 30
0
  0
VERTEX
  5
317
  8
8
  6
BYLAYER
 62
  256
 10
250.5157372951272
 20
989.4355068961257
 30
0
  0
VERTEX
  5
318
  8
8
  6
BYLAYER
 62
  256
 10
251.4643419659354
 20
994.2275399203346
 30
0
  0
VERTEX
  5
319
  8
8
  6
BYLAYER
 62
  256
 10
252.2483127682562
 20
999.0693163368727
 30
0
  0
VERTEX
  5
31A
  8
8
  6
BYLAYER
 62
  256
 10
252.8833291181361
 20
1003.944613540609
 30
0
  0
VERTEX
  5
31B
  8
8
  6
BYLAYER
 62
  256
 10
253.3850704316215
 20
1008.837208926413
 30
0
  0
VERTEX
  5
31C
  8
8
  6
BYLAYER
 62
  256
 10
253.7692161247587
 20
1013.730879889152
 30
0
  0
VERTEX
  5
31D
  8
8
  6
BYLAYER
 62
  256
 10
254.1690412339424
 20
1021.042851208279
 30
0
  0
VERTEX
  5
31E
  8
8
  6
BYLAYER
 62
  256
 10
254.419911890685
 20
1030.641975333799
 30
0
  0
VERTEX
  5
31F
  8
8
  6
BYLAYER
 62
  256
 10
254.4826295548706
 20
1039.953394874703
 30
0
  0
VERTEX
  5
320
  8
8
  6
BYLAYER
 62
  256
 10
254.4826295548706
 20
1044.440559919505
 30
0
  0
VERTEX
  5
321
  8
8
  6
BYLAYER
 62
  256
 10
254.4646779026855
 20
1047.892052374281
 30
0
  0
VERTEX
  5
322
  8
8
  6
BYLAYER
 62
  256
 10
254.2578667711102
 20
1055.061305901217
 30
0
  0
VERTEX
  5
323
  8
8
  6
BYLAYER
 62
  256
 10
253.861461897251
 20
1062.489280863482
 30
0
  0
VERTEX
  5
324
  8
8
  6
BYLAYER
 62
  256
 10
253.2926806703993
 20
1070.108420699376
 30
0
  0
VERTEX
  5
325
  8
8
  6
BYLAYER
 62
  256
 10
252.5687404798467
 20
1077.851168847196
 30
0
  0
VERTEX
  5
326
  8
8
  6
BYLAYER
 62
  256
 10
251.7068587148845
 20
1085.649968745241
 30
0
  0
VERTEX
  5
327
  8
8
  6
BYLAYER
 62
  256
 10
250.7242527648041
 20
1093.437263831811
 30
0
  0
VERTEX
  5
328
  8
8
  6
BYLAYER
 62
  256
 10
249.6381400188972
 20
1101.145497545204
 30
0
  0
VERTEX
  5
329
  8
8
  6
BYLAYER
 62
  256
 10
248.4657378664551
 20
1108.707113323718
 30
0
  0
VERTEX
  5
32A
  8
8
  6
BYLAYER
 62
  256
 10
247.2242636967692
 20
1116.054554605651
 30
0
  0
VERTEX
  5
32B
  8
8
  6
BYLAYER
 62
  256
 10
245.930934899131
 20
1123.120264829304
 30
0
  0
VERTEX
  5
32C
  8
8
  6
BYLAYER
 62
  256
 10
244.6029688628321
 20
1129.836687432973
 30
0
  0
VERTEX
  5
32D
  8
8
  6
BYLAYER
 62
  256
 10
243.2575829771637
 20
1136.136265854958
 30
0
  0
VERTEX
  5
32E
  8
8
  6
BYLAYER
 62
  256
 10
241.9119946314173
 20
1141.951443533558
 30
0
  0
VERTEX
  5
32F
  8
8
  6
BYLAYER
 62
  256
 10
240.5834212148845
 20
1147.214663907071
 30
0
  0
VERTEX
  5
330
  8
8
  6
BYLAYER
 62
  256
 10
239.2890801168566
 20
1151.858370413795
 30
0
  0
VERTEX
  5
331
  8
8
  6
BYLAYER
 62
  256
 10
238.6626295548706
 20
1153.896759178691
 30
0
  0
VERTEX
  5
332
  8
8
  6
BYLAYER
 62
  256
 10
360.6784031109876
 20
1192.225383826044
 30
0
  0
VERTEX
  5
333
  8
8
  6
BYLAYER
 62
  256
 10
360.9780719339633
 20
1191.302917496628
 30
0
  0
VERTEX
  5
334
  8
8
  6
BYLAYER
 62
  256
 10
361.6793781908302
 20
1189.454619753139
 30
0
  0
VERTEX
  5
335
  8
8
  6
BYLAYER
 62
  256
 10
362.5054269478624
 20
1187.605887338782
 30
0
  0
VERTEX
  5
336
  8
8
  6
BYLAYER
 62
  256
 10
363.4588628351341
 20
1185.760724065475
 30
0
  0
VERTEX
  5
337
  8
8
  6
BYLAYER
 62
  256
 10
364.5423304827192
 20
1183.923133745129
 30
0
  0
VERTEX
  5
338
  8
8
  6
BYLAYER
 62
  256
 10
365.7584745206918
 20
1182.097120189661
 30
0
  0
VERTEX
  5
339
  8
8
  6
BYLAYER
 62
  256
 10
367.1099395791261
 20
1180.286687210986
 30
0
  0
VERTEX
  5
33A
  8
8
  6
BYLAYER
 62
  256
 10
368.599370288096
 20
1178.495838621017
 30
0
  0
VERTEX
  5
33B
  8
8
  6
BYLAYER
 62
  256
 10
370.2294112776755
 20
1176.72857823167
 30
0
  0
VERTEX
  5
33C
  8
8
  6
BYLAYER
 62
  256
 10
372.0027071779389
 20
1174.988909854859
 30
0
  0
VERTEX
  5
33D
  8
8
  6
BYLAYER
 62
  256
 10
373.9219026189601
 20
1173.2808373025
 30
0
  0
VERTEX
  5
33E
  8
8
  6
BYLAYER
 62
  256
 10
375.9896422308131
 20
1171.608364386507
 30
0
  0
VERTEX
  5
33F
  8
8
  6
BYLAYER
 62
  256
 10
378.208570643572
 20
1169.975494918794
 30
0
  0
VERTEX
  5
340
  8
8
  6
BYLAYER
 62
  256
 10
380.5813324873109
 20
1168.386232711277
 30
0
  0
VERTEX
  5
341
  8
8
  6
BYLAYER
 62
  256
 10
383.1105723921038
 20
1166.844581575871
 30
0
  0
VERTEX
  5
342
  8
8
  6
BYLAYER
 62
  256
 10
385.7989349880249
 20
1165.354545324489
 30
0
  0
VERTEX
  5
343
  8
8
  6
BYLAYER
 62
  256
 10
388.649064905148
 20
1163.920127769047
 30
0
  0
VERTEX
  5
344
  8
8
  6
BYLAYER
 62
  256
 10
391.6636067735474
 20
1162.545332721459
 30
0
  0
VERTEX
  5
345
  8
8
  6
BYLAYER
 62
  256
 10
394.8452052232971
 20
1161.234163993641
 30
0
  0
VERTEX
  5
346
  8
8
  6
BYLAYER
 62
  256
 10
398.1965048844709
 20
1159.990625397507
 30
0
  0
VERTEX
  5
347
  8
8
  6
BYLAYER
 62
  256
 10
401.7201503871433
 20
1158.818720744971
 30
0
  0
VERTEX
  5
348
  8
8
  6
BYLAYER
 62
  256
 10
405.418786361388
 20
1157.722453847949
 30
0
  0
VERTEX
  5
349
  8
8
  6
BYLAYER
 62
  256
 10
409.2950574372792
 20
1156.705828518355
 30
0
  0
VERTEX
  5
34A
  8
8
  6
BYLAYER
 62
  256
 10
413.351608244891
 20
1155.772848568104
 30
0
  0
VERTEX
  5
34B
  8
8
  6
BYLAYER
 62
  256
 10
417.5910834142973
 20
1154.927517809111
 30
0
  0
VERTEX
  5
34C
  8
8
  6
BYLAYER
 62
  256
 10
422.0161275755722
 20
1154.173840053291
 30
0
  0
VERTEX
  5
34D
  8
8
  6
BYLAYER
 62
  256
 10
426.62938535879
 20
1153.515819112557
 30
0
  0
VERTEX
  5
34E
  8
8
  6
BYLAYER
 62
  256
 10
431.4335013940245
 20
1152.957458798826
 30
0
  0
VERTEX
  5
34F
  8
8
  6
BYLAYER
 62
  256
 10
436.4311203113496
 20
1152.502762924011
 30
0
  0
VERTEX
  5
350
  8
8
  6
BYLAYER
 62
  256
 10
441.6248867408397
 20
1152.155735300028
 30
0
  0
VERTEX
  5
351
  8
8
  6
BYLAYER
 62
  256
 10
447.0174453125688
 20
1151.920379738792
 30
0
  0
VERTEX
  5
352
  8
8
  6
BYLAYER
 62
  256
 10
452.6114406566108
 20
1151.800700052216
 30
0
  0
VERTEX
  5
353
  8
8
  6
BYLAYER
 62
  256
 10
455.4933620533734
 20
1151.790559919505
 30
0
  0
VERTEX
  5
354
  8
8
  6
BYLAYER
 62
  256
 10
458.375283450136
 20
1151.800700052216
 30
0
  0
VERTEX
  5
355
  8
8
  6
BYLAYER
 62
  256
 10
463.969278794178
 20
1151.920379738792
 30
0
  0
VERTEX
  5
356
  8
8
  6
BYLAYER
 62
  256
 10
469.361837365907
 20
1152.155735300028
 30
0
  0
VERTEX
  5
357
  8
8
  6
BYLAYER
 62
  256
 10
474.5556037953971
 20
1152.502762924011
 30
0
  0
VERTEX
  5
358
  8
8
  6
BYLAYER
 62
  256
 10
479.5532227127223
 20
1152.957458798826
 30
0
  0
VERTEX
  5
359
  8
8
  6
BYLAYER
 62
  256
 10
484.3573387479567
 20
1153.515819112557
 30
0
  0
VERTEX
  5
35A
  8
8
  6
BYLAYER
 62
  256
 10
488.9705965311745
 20
1154.173840053291
 30
0
  0
VERTEX
  5
35B
  8
8
  6
BYLAYER
 62
  256
 10
493.3956406924495
 20
1154.927517809111
 30
0
  0
VERTEX
  5
35C
  8
8
  6
BYLAYER
 62
  256
 10
497.6351158618558
 20
1155.772848568104
 30
0
  0
VERTEX
  5
35D
  8
8
  6
BYLAYER
 62
  256
 10
501.6916666694676
 20
1156.705828518355
 30
0
  0
VERTEX
  5
35E
  8
8
  6
BYLAYER
 62
  256
 10
505.5679377453587
 20
1157.722453847949
 30
0
  0
VERTEX
  5
35F
  8
8
  6
BYLAYER
 62
  256
 10
509.2665737196035
 20
1158.818720744971
 30
0
  0
VERTEX
  5
360
  8
8
  6
BYLAYER
 62
  256
 10
512.7902192222758
 20
1159.990625397507
 30
0
  0
VERTEX
  5
361
  8
8
  6
BYLAYER
 62
  256
 10
516.1415188834496
 20
1161.234163993641
 30
0
  0
VERTEX
  5
362
  8
8
  6
BYLAYER
 62
  256
 10
519.3231173331993
 20
1162.545332721459
 30
0
  0
VERTEX
  5
363
  8
8
  6
BYLAYER
 62
  256
 10
522.3376592015987
 20
1163.920127769047
 30
0
  0
VERTEX
  5
364
  8
8
  6
BYLAYER
 62
  256
 10
525.1877891187219
 20
1165.354545324489
 30
0
  0
VERTEX
  5
365
  8
8
  6
BYLAYER
 62
  256
 10
527.8761517146429
 20
1166.844581575871
 30
0
  0
VERTEX
  5
366
  8
8
  6
BYLAYER
 62
  256
 10
530.4053916194358
 20
1168.386232711277
 30
0
  0
VERTEX
  5
367
  8
8
  6
BYLAYER
 62
  256
 10
532.7781534631748
 20
1169.975494918794
 30
0
  0
VERTEX
  5
368
  8
8
  6
BYLAYER
 62
  256
 10
534.9970818759336
 20
1171.608364386507
 30
0
  0
VERTEX
  5
369
  8
8
  6
BYLAYER
 62
  256
 10
537.0648214877866
 20
1173.2808373025
 30
0
  0
VERTEX
  5
36A
  8
8
  6
BYLAYER
 62
  256
 10
538.9840169288078
 20
1174.988909854859
 30
0
  0
VERTEX
  5
36B
  8
8
  6
BYLAYER
 62
  256
 10
540.7573128290712
 20
1176.72857823167
 30
0
  0
VERTEX
  5
36C
  8
8
  6
BYLAYER
 62
  256
 10
542.3873538186508
 20
1178.495838621017
 30
0
  0
VERTEX
  5
36D
  8
8
  6
BYLAYER
 62
  256
 10
543.8767845276205
 20
1180.286687210986
 30
0
  0
VERTEX
  5
36E
  8
8
  6
BYLAYER
 62
  256
 10
545.228249586055
 20
1182.097120189661
 30
0
  0
VERTEX
  5
36F
  8
8
  6
BYLAYER
 62
  256
 10
546.4443936240276
 20
1183.923133745129
 30
0
  0
VERTEX
  5
370
  8
8
  6
BYLAYER
 62
  256
 10
547.5278612716126
 20
1185.760724065475
 30
0
  0
VERTEX
  5
371
  8
8
  6
BYLAYER
 62
  256
 10
548.4812971588843
 20
1187.605887338782
 30
0
  0
VERTEX
  5
372
  8
8
  6
BYLAYER
 62
  256
 10
549.3073459159166
 20
1189.454619753139
 30
0
  0
VERTEX
  5
373
  8
8
  6
BYLAYER
 62
  256
 10
550.0086521727834
 20
1191.302917496628
 30
0
  0
VERTEX
  5
374
  8
8
  6
BYLAYER
 62
  256
 10
550.3083209957591
 20
1192.225383826044
 30
0
  0
VERTEX
  5
375
  8
8
  6
BYLAYER
 62
  256
 10
672.3240945518761
 20
1153.896759178691
 30
0
  0
VERTEX
  5
376
  8
8
  6
BYLAYER
 62
  256
 10
671.6976439898901
 20
1151.858370413795
 30
0
  0
VERTEX
  5
377
  8
8
  6
BYLAYER
 62
  256
 10
670.4033028918623
 20
1147.214663907071
 30
0
  0
VERTEX
  5
378
  8
8
  6
BYLAYER
 62
  256
 10
669.0747294753296
 20
1141.951443533558
 30
0
  0
VERTEX
  5
379
  8
8
  6
BYLAYER
 62
  256
 10
667.7291411295831
 20
1136.136265854958
 30
0
  0
VERTEX
  5
37A
  8
8
  6
BYLAYER
 62
  256
 10
666.3837552439147
 20
1129.836687432973
 30
0
  0
VERTEX
  5
37B
  8
8
  6
BYLAYER
 62
  256
 10
665.0557892076157
 20
1123.120264829304
 30
0
  0
VERTEX
  5
37C
  8
8
  6
BYLAYER
 62
  256
 10
663.7624604099776
 20
1116.054554605651
 30
0
  0
VERTEX
  5
37D
  8
8
  6
BYLAYER
 62
  256
 10
662.5209862402918
 20
1108.707113323718
 30
0
  0
VERTEX
  5
37E
  8
8
  6
BYLAYER
 62
  256
 10
661.3485840878495
 20
1101.145497545204
 30
0
  0
VERTEX
  5
37F
  8
8
  6
BYLAYER
 62
  256
 10
660.2624713419426
 20
1093.437263831811
 30
0
  0
VERTEX
  5
380
  8
8
  6
BYLAYER
 62
  256
 10
659.2798653918622
 20
1085.649968745241
 30
0
  0
VERTEX
  5
381
  8
8
  6
BYLAYER
 62
  256
 10
658.4179836269002
 20
1077.851168847196
 30
0
  0
VERTEX
  5
382
  8
8
  6
BYLAYER
 62
  256
 10
657.6940434363474
 20
1070.108420699376
 30
0
  0
VERTEX
  5
383
  8
8
  6
BYLAYER
 62
  256
 10
657.1252622094958
 20
1062.489280863482
 30
0
  0
VERTEX
  5
384
  8
8
  6
BYLAYER
 62
  256
 10
656.7288573356366
 20
1055.061305901217
 30
0
  0
VERTEX
  5
385
  8
8
  6
BYLAYER
 62
  256
 10
656.5220462040612
 20
1047.892052374281
 30
0
  0
VERTEX
  5
386
  8
8
  6
BYLAYER
 62
  256
 10
656.5040945518761
 20
1044.440559919505
 30
0
  0
VERTEX
  5
387
  8
8
  6
BYLAYER
 62
  256
 10
656.5040945518761
 20
1039.953394874703
 30
0
  0
VERTEX
  5
388
  8
8
  6
BYLAYER
 62
  256
 10
656.5668122160617
 20
1030.641975333799
 30
0
  0
VERTEX
  5
389
  8
8
  6
BYLAYER
 62
  256
 10
656.8176828728044
 20
1021.042851208279
 30
0
  0
VERTEX
  5
38A
  8
8
  6
BYLAYER
 62
  256
 10
657.2175079819881
 20
1013.730879889152
 30
0
  0
VERTEX
  5
38B
  8
8
  6
BYLAYER
 62
  256
 10
657.6016536751254
 20
1008.837208926413
 30
0
  0
VERTEX
  5
38C
  8
8
  6
BYLAYER
 62
  256
 10
658.1033949886106
 20
1003.944613540609
 30
0
  0
VERTEX
  5
38D
  8
8
  6
BYLAYER
 62
  256
 10
658.7384113384904
 20
999.0693163368727
 30
0
  0
VERTEX
  5
38E
  8
8
  6
BYLAYER
 62
  256
 10
659.5223821408113
 20
994.2275399203346
 30
0
  0
VERTEX
  5
38F
  8
8
  6
BYLAYER
 62
  256
 10
660.4709868116196
 20
989.4355068961257
 30
0
  0
VERTEX
  5
390
  8
8
  6
BYLAYER
 62
  256
 10
661.5999047669616
 20
984.7094398693771
 30
0
  0
VERTEX
  5
391
  8
8
  6
BYLAYER
 62
  256
 10
662.9248154228839
 20
980.0655614452202
 30
0
  0
VERTEX
  5
392
  8
8
  6
BYLAYER
 62
  256
 10
664.4613981954327
 20
975.520094228786
 30
0
  0
VERTEX
  5
393
  8
8
  6
BYLAYER
 62
  256
 10
666.2253325006544
 20
971.0892608252057
 30
0
  0
VERTEX
  5
394
  8
8
  6
BYLAYER
 62
  256
 10
668.2322977545958
 20
966.7892838396103
 30
0
  0
VERTEX
  5
395
  8
8
  6
BYLAYER
 62
  256
 10
670.4979733733031
 20
962.6363858771314
 30
0
  0
VERTEX
  5
396
  8
8
  6
BYLAYER
 62
  256
 10
673.0380387728226
 20
958.6467895428997
 30
0
  0
VERTEX
  5
397
  8
8
  6
BYLAYER
 62
  256
 10
675.8681733692008
 20
954.8367174420463
 30
0
  0
VERTEX
  5
398
  8
8
  6
BYLAYER
 62
  256
 10
679.0040565784841
 20
951.2223921797025
 30
0
  0
VERTEX
  5
399
  8
8
  6
BYLAYER
 62
  256
 10
682.4613678167191
 20
947.8200363609993
 30
0
  0
VERTEX
  5
39A
  8
8
  6
BYLAYER
 62
  256
 10
685.2856226320798
 20
945.4246445740923
 30
0
  0
VERTEX
  5
39B
  8
8
  6
BYLAYER
 62
  256
 10
687.2700487254546
 20
943.8976524397818
 30
0
  0
VERTEX
  5
39C
  8
8
  6
BYLAYER
 62
  256
 10
689.3436514975931
 20
942.4327778817677
 30
0
  0
VERTEX
  5
39D
  8
8
  6
BYLAYER
 62
  256
 10
691.5083908755016
 20
941.0320487256914
 30
0
  0
VERTEX
  5
39E
  8
8
  6
BYLAYER
 62
  256
 10
693.7662267861855
 20
939.6974927971946
 30
0
  0
VERTEX
  5
39F
  8
8
  6
BYLAYER
 62
  256
 10
696.1191191566509
 20
938.4311379219181
 30
0
  0
VERTEX
  5
3A0
  8
8
  6
BYLAYER
 62
  256
 10
698.5690279139035
 20
937.2350119255037
 30
0
  0
VERTEX
  5
3A1
  8
8
  6
BYLAYER
 62
  256
 10
701.1179129849492
 20
936.1111426335926
 30
0
  0
VERTEX
  5
3A2
  8
8
  6
BYLAYER
 62
  256
 10
703.7677342967935
 20
935.0615578718264
 30
0
  0
VERTEX
  5
3A3
  8
8
  6
BYLAYER
 62
  256
 10
706.5204517764427
 20
934.0882854658464
 30
0
  0
VERTEX
  5
3A4
  8
8
  6
BYLAYER
 62
  256
 10
709.378025350902
 20
933.1933532412941
 30
0
  0
VERTEX
  5
3A5
  8
8
  6
BYLAYER
 62
  256
 10
712.3424149471779
 20
932.3787890238106
 30
0
  0
VERTEX
  5
3A6
  8
8
  6
BYLAYER
 62
  256
 10
715.4155804922754
 20
931.6466206390376
 30
0
  0
VERTEX
  5
3A7
  8
8
  6
BYLAYER
 62
  256
 10
718.5994819132009
 20
930.9988759126162
 30
0
  0
VERTEX
  5
3A8
  8
8
  6
BYLAYER
 62
  256
 10
721.8960791369601
 20
930.437582670188
 30
0
  0
VERTEX
  5
3A9
  8
8
  6
BYLAYER
 62
  256
 10
725.3073320905586
 20
929.9647687373945
 30
0
  0
VERTEX
  5
3AA
  8
8
  6
BYLAYER
 62
  256
 10
728.8352007010023
 20
929.5824619398768
 30
0
  0
VERTEX
  5
3AB
  8
8
  6
BYLAYER
 62
  256
 10
732.4816448952971
 20
929.2926901032765
 30
0
  0
VERTEX
  5
3AC
  8
8
  6
BYLAYER
 62
  256
 10
736.2486246004488
 20
929.0974810532348
 30
0
  0
VERTEX
  5
3AD
  8
8
  6
BYLAYER
 62
  256
 10
740.1380997434629
 20
928.9988626153933
 30
0
  0
VERTEX
  5
3AE
  8
8
  6
BYLAYER
 62
  256
 10
742.1346120533734
 20
928.9905599195048
 30
0
  0
VERTEX
  5
3AF
  8
8
  6
BYLAYER
 62
  256
 10
742.1346120533734
 20
798.8905599195049
 30
0
  0
VERTEX
  5
3B0
  8
8
  6
BYLAYER
 62
  256
 10
742.1346120533734
 20
625.6655599195047
 30
0
  0
SEQEND
  5
3B1
  8
8
  6
BYLAYER
 62
  256
  0
POLYLINE
  5
3B2
  8
8
  6
BYLAYER
 62
  256
 66
    1
 10
0
 20
0
 30
0
 70
    0
  0
VERTEX
  5
3B3
  8
8
  6
BYLAYER
 62
  256
 10
185.5818283970105
 20
625.6655599195047
 30
0
  0
VERTEX
  5
3B4
  8
8
  6
BYLAYER
 62
  256
 10
185.5818283970105
 20
625.6655599195047
 30
0
  0
VERTEX
  5
3B5
  8
8
  6
BYLAYER
 62
  256
 10
185.7490183055455
 20
626.9635587469021
 30
0
  0
VERTEX
  5
3B6
  8
8
  6
BYLAYER
 62
  256
 10
186.4629730955977
 20
631.7123920555701
 30
0
  0
VERTEX
  5
3B7
  8
8
  6
BYLAYER
 62
  256
 10
187.2962193047677
 20
636.4609798823075
 30
0
  0
VERTEX
  5
3B8
  8
8
  6
BYLAYER
 62
  256
 10
188.2444465733541
 20
641.2052685975837
 30
0
  0
VERTEX
  5
3B9
  8
8
  6
BYLAYER
 62
  256
 10
189.3033445416557
 20
645.9412045718665
 30
0
  0
VERTEX
  5
3BA
  8
8
  6
BYLAYER
 62
  256
 10
190.468602849971
 20
650.6647341756252
 30
0
  0
VERTEX
  5
3BB
  8
8
  6
BYLAYER
 62
  256
 10
192.3945389830277
 20
657.7207168774756
 30
0
  0
VERTEX
  5
3BC
  8
8
  6
BYLAYER
 62
  256
 10
195.3114933233239
 20
667.044694307475
 30
0
  0
VERTEX
  5
3BD
  8
8
  6
BYLAYER
 62
  256
 10
198.57630254905
 20
676.2460809238161
 30
0
  0
VERTEX
  5
3BE
  8
8
  6
BYLAYER
 62
  256
 10
202.154483782595
 20
685.2924476902497
 30
0
  0
VERTEX
  5
3BF
  8
8
  6
BYLAYER
 62
  256
 10
206.0115541463478
 20
694.1513655705259
 30
0
  0
VERTEX
  5
3C0
  8
8
  6
BYLAYER
 62
  256
 10
208.0433620533732
 20
698.4905599195049
 30
0
  0
VERTEX
  5
3C1
  8
8
  6
BYLAYER
 62
  256
 10
208.7475941145019
 20
699.9352870399632
 30
0
  0
VERTEX
  5
3C2
  8
8
  6
BYLAYER
 62
  256
 10
210.2924357005899
 20
702.7500366650245
 30
0
  0
VERTEX
  5
3C3
  8
8
  6
BYLAYER
 62
  256
 10
211.9844899389541
 20
705.484036507863
 30
0
  0
VERTEX
  5
3C4
  8
8
  6
BYLAYER
 62
  256
 10
213.805489824794
 20
708.1471707427052
 30
0
  0
VERTEX
  5
3C5
  8
8
  6
BYLAYER
 62
  256
 10
216.7283939026348
 20
712.0363901076487
 30
0
  0
VERTEX
  5
3C6
  8
8
  6
BYLAYER
 62
  256
 10
220.9248635015597
 20
717.0560750200691
 30
0
  0
VERTEX
  5
3C7
  8
8
  6
BYLAYER
 62
  256
 10
227.5285097762537
 20
724.4107787950772
 30
0
  0
VERTEX
  5
3C8
  8
8
  6
BYLAYER
 62
  256
 10
234.0515871656516
 20
731.7981395570888
 30
0
  0
VERTEX
  5
3C9
  8
8
  6
BYLAYER
 62
  256
 10
237.122537929423
 20
735.591391026907
 30
0
  0
VERTEX
  5
3CA
  8
8
  6
BYLAYER
 62
  256
 10
239.0660592105158
 20
738.1751035554382
 30
0
  0
VERTEX
  5
3CB
  8
8
  6
BYLAYER
 62
  256
 10
239.9933620533733
 20
739.4905599195049
 30
0
  0
VERTEX
  5
3CC
  8
8
  6
BYLAYER
 62
  256
 10
241.2486875538073
 20
741.2765646289467
 30
0
  0
VERTEX
  5
3CD
  8
8
  6
BYLAYER
 62
  256
 10
243.8691802156009
 20
744.8244618301629
 30
0
  0
VERTEX
  5
3CE
  8
8
  6
BYLAYER
 62
  256
 10
247.9777212060752
 20
750.1121113223714
 30
0
  0
VERTEX
  5
3CF
  8
8
  6
BYLAYER
 62
  256
 10
253.6550567307844
 20
757.1445380877987
 30
0
  0
VERTEX
  5
3D0
  8
8
  6
BYLAYER
 62
  256
 10
259.3123189180467
 20
764.2314218059255
 30
0
  0
VERTEX
  5
3D1
  8
8
  6
BYLAYER
 62
  256
 10
263.3782040664466
 20
769.6347923226209
 30
0
  0
VERTEX
  5
3D2
  8
8
  6
BYLAYER
 62
  256
 10
265.9585500533468
 20
773.2916034292364
 30
0
  0
VERTEX
  5
3D3
  8
8
  6
BYLAYER
 62
  256
 10
268.3939396436975
 20
777.0055446938433
 30
0
  0
VERTEX
  5
3D4
  8
8
  6
BYLAYER
 62
  256
 10
270.6532754903462
 20
780.786286320845
 30
0
  0
VERTEX
  5
3D5
  8
8
  6
BYLAYER
 62
  256
 10
272.7054602461399
 20
784.6434985146452
 30
0
  0
VERTEX
  5
3D6
  8
8
  6
BYLAYER
 62
  256
 10
274.5193965639259
 20
788.5868514796477
 30
0
  0
VERTEX
  5
3D7
  8
8
  6
BYLAYER
 62
  256
 10
276.0639870965513
 20
792.6260154202561
 30
0
  0
VERTEX
  5
3D8
  8
8
  6
BYLAYER
 62
  256
 10
277.3081344968635
 20
796.7706605408739
 30
0
  0
VERTEX
  5
3D9
  8
8
  6
BYLAYER
 62
  256
 10
277.7933620533734
 20
798.8905599195049
 30
0
  0
VERTEX
  5
3DA
  8
8
  6
BYLAYER
 62
  256
 10
278.3349199312431
 20
801.5460789491599
 30
0
  0
VERTEX
  5
3DB
  8
8
  6
BYLAYER
 62
  256
 10
279.1660749123625
 20
806.899887733525
 30
0
  0
VERTEX
  5
3DC
  8
8
  6
BYLAYER
 62
  256
 10
279.7159374504994
 20
812.2990813198086
 30
0
  0
VERTEX
  5
3DD
  8
8
  6
BYLAYER
 62
  256
 10
280.0079080862778
 20
817.7370596322905
 30
0
  0
VERTEX
  5
3DE
  8
8
  6
BYLAYER
 62
  256
 10
280.0653873603217
 20
823.2072225952514
 30
0
  0
VERTEX
  5
3DF
  8
8
  6
BYLAYER
 62
  256
 10
279.9117758132547
 20
828.7029701329712
 30
0
  0
VERTEX
  5
3E0
  8
8
  6
BYLAYER
 62
  256
 10
279.5704739857011
 20
834.2177021697302
 30
0
  0
VERTEX
  5
3E1
  8
8
  6
BYLAYER
 62
  256
 10
279.0648824182848
 20
839.7448186298085
 30
0
  0
VERTEX
  5
3E2
  8
8
  6
BYLAYER
 62
  256
 10
278.4184016516294
 20
845.2777194374863
 30
0
  0
VERTEX
  5
3E3
  8
8
  6
BYLAYER
 62
  256
 10
277.6544322263591
 20
850.809804517044
 30
0
  0
VERTEX
  5
3E4
  8
8
  6
BYLAYER
 62
  256
 10
276.3467489495475
 20
859.0941294701954
 30
0
  0
VERTEX
  5
3E5
  8
8
  6
BYLAYER
 62
  256
 10
273.383065711002
 20
875.5403257996901
 30
0
  0
VERTEX
  5
3E6
  8
8
  6
BYLAYER
 62
  256
 10
271.4433620533733
 20
886.2905599195049
 30
0
  0
VERTEX
  5
3E7
  8
8
  6
BYLAYER
 62
  256
 10
271.0143992160535
 20
888.6965148880156
 30
0
  0
VERTEX
  5
3E8
  8
8
  6
BYLAYER
 62
  256
 10
270.066134418054
 20
893.5035032026956
 30
0
  0
VERTEX
  5
3E9
  8
8
  6
BYLAYER
 62
  256
 10
268.4686159620392
 20
900.7023899683788
 30
0
  0
VERTEX
  5
3EA
  8
8
  6
BYLAYER
 62
  256
 10
266.0194895369403
 20
910.2724794972478
 30
0
  0
VERTEX
  5
3EB
  8
8
  6
BYLAYER
 62
  256
 10
263.2877940495381
 20
919.8058974331335
 30
0
  0
VERTEX
  5
3EC
  8
8
  6
BYLAYER
 62
  256
 10
260.3421925588431
 20
929.2967129552444
 30
0
  0
VERTEX
  5
3ED
  8
8
  6
BYLAYER
 62
  256
 10
257.2513481238659
 20
938.7389952427889
 30
0
  0
VERTEX
  5
3EE
  8
8
  6
BYLAYER
 62
  256
 10
252.4896495545514
 20
952.8063652246302
 30
0
  0
VERTEX
  5
3EF
  8
8
  6
BYLAYER
 62
  256
 10
249.3433620533734
 20
962.0905599195047
 30
0
  0
VERTEX
  5
3F0
  8
8
  6
BYLAYER
 62
  256
 10
249.1079734299744
 20
962.6793134825818
 30
0
  0
VERTEX
  5
3F1
  8
8
  6
BYLAYER
 62
  256
 10
248.3626467209549
 20
963.7525638624381
 30
0
  0
VERTEX
  5
3F2
  8
8
  6
BYLAYER
 62
  256
 10
246.8641692944256
 20
965.2099575129955
 30
0
  0
VERTEX
  5
3F3
  8
8
  6
BYLAYER
 62
  256
 10
245.2340429200485
 20
966.5891359175951
 30
0
  0
VERTEX
  5
3F4
  8
8
  6
BYLAYER
 62
  256
 10
244.2780778944729
 20
967.5372419039189
 30
0
  0
VERTEX
  5
3F5
  8
8
  6
BYLAYER
 62
  256
 10
243.5577863892651
 20
968.5517930389162
 30
0
  0
VERTEX
  5
3F6
  8
8
  6
BYLAYER
 62
  256
 10
243.5694135614983
 20
968.5354158351028
 30
0
  0
VERTEX
  5
3F7
  8
8
  6
BYLAYER
 62
  256
 10
243.5694135614983
 20
968.5354158351028
 30
0
  0
SEQEND
  5
3F8
  8
8
  6
BYLAYER
 62
  256
  0
POLYLINE
  5
3F9
  8
8
  6
BYLAYER
 62
  256
 66
    1
 10
0
 20
0
 30
0
 70
    0
  0
VERTEX
  5
3FA
  8
8
  6
BYLAYER
 62
  256
 10
725.4048957097363
 20
625.6655599195047
 30
0
  0
VERTEX
  5
3FB
  8
8
  6
BYLAYER
 62
  256
 10
725.4048957097363
 20
625.6655599195047
 30
0
  0
VERTEX
  5
3FC
  8
8
  6
BYLAYER
 62
  256
 10
725.2377058012011
 20
626.9635587469021
 30
0
  0
VERTEX
  5
3FD
  8
8
  6
BYLAYER
 62
  256
 10
724.523751011149
 20
631.7123920555701
 30
0
  0
VERTEX
  5
3FE
  8
8
  6
BYLAYER
 62
  256
 10
723.6905048019789
 20
636.4609798823075
 30
0
  0
VERTEX
  5
3FF
  8
8
  6
BYLAYER
 62
  256
 10
722.7422775333926
 20
641.2052685975837
 30
0
  0
VERTEX
  5
400
  8
8
  6
BYLAYER
 62
  256
 10
721.6833795650909
 20
645.9412045718665
 30
0
  0
VERTEX
  5
401
  8
8
  6
BYLAYER
 62
  256
 10
720.5181212567757
 20
650.6647341756252
 30
0
  0
VERTEX
  5
402
  8
8
  6
BYLAYER
 62
  256
 10
718.5921851237191
 20
657.7207168774756
 30
0
  0
VERTEX
  5
403
  8
8
  6
BYLAYER
 62
  256
 10
715.6752307834228
 20
667.0446943074747
 30
0
  0
VERTEX
  5
404
  8
8
  6
BYLAYER
 62
  256
 10
712.4104215576968
 20
676.2460809238161
 30
0
  0
VERTEX
  5
405
  8
8
  6
BYLAYER
 62
  256
 10
708.8322403241517
 20
685.2924476902496
 30
0
  0
VERTEX
  5
406
  8
8
  6
BYLAYER
 62
  256
 10
704.9751699603991
 20
694.1513655705259
 30
0
  0
VERTEX
  5
407
  8
8
  6
BYLAYER
 62
  256
 10
702.9433620533736
 20
698.4905599195049
 30
0
  0
VERTEX
  5
408
  8
8
  6
BYLAYER
 62
  256
 10
702.2391299922449
 20
699.9352870399632
 30
0
  0
VERTEX
  5
409
  8
8
  6
BYLAYER
 62
  256
 10
700.6942884061568
 20
702.7500366650245
 30
0
  0
VERTEX
  5
40A
  8
8
  6
BYLAYER
 62
  256
 10
699.0022341677926
 20
705.484036507863
 30
0
  0
VERTEX
  5
40B
  8
8
  6
BYLAYER
 62
  256
 10
697.1812342819527
 20
708.1471707427052
 30
0
  0
VERTEX
  5
40C
  8
8
  6
BYLAYER
 62
  256
 10
694.258330204112
 20
712.0363901076487
 30
0
  0
VERTEX
  5
40D
  8
8
  6
BYLAYER
 62
  256
 10
690.061860605187
 20
717.0560750200691
 30
0
  0
VERTEX
  5
40E
  8
8
  6
BYLAYER
 62
  256
 10
683.458214330493
 20
724.4107787950772
 30
0
  0
VERTEX
  5
40F
  8
8
  6
BYLAYER
 62
  256
 10
676.9351369410952
 20
731.7981395570888
 30
0
  0
VERTEX
  5
410
  8
8
  6
BYLAYER
 62
  256
 10
673.8641861773237
 20
735.591391026907
 30
0
  0
VERTEX
  5
411
  8
8
  6
BYLAYER
 62
  256
 10
671.920664896231
 20
738.1751035554382
 30
0
  0
VERTEX
  5
412
  8
8
  6
BYLAYER
 62
  256
 10
670.9933620533735
 20
739.4905599195049
 30
0
  0
VERTEX
  5
413
  8
8
  6
BYLAYER
 62
  256
 10
669.7380365529394
 20
741.2765646289467
 30
0
  0
VERTEX
  5
414
  8
8
  6
BYLAYER
 62
  256
 10
667.1175438911458
 20
744.8244618301629
 30
0
  0
VERTEX
  5
415
  8
8
  6
BYLAYER
 62
  256
 10
663.0090029006716
 20
750.1121113223714
 30
0
  0
VERTEX
  5
416
  8
8
  6
BYLAYER
 62
  256
 10
657.3316673759623
 20
757.1445380877987
 30
0
  0
VERTEX
  5
417
  8
8
  6
BYLAYER
 62
  256
 10
651.6744051887
 20
764.2314218059255
 30
0
  0
VERTEX
  5
418
  8
8
  6
BYLAYER
 62
  256
 10
647.6085200403
 20
769.6347923226209
 30
0
  0
VERTEX
  5
419
  8
8
  6
BYLAYER
 62
  256
 10
645.0281740533999
 20
773.2916034292364
 30
0
  0
VERTEX
  5
41A
  8
8
  6
BYLAYER
 62
  256
 10
642.5927844630492
 20
777.0055446938433
 30
0
  0
VERTEX
  5
41B
  8
8
  6
BYLAYER
 62
  256
 10
640.3334486164006
 20
780.786286320845
 30
0
  0
VERTEX
  5
41C
  8
8
  6
BYLAYER
 62
  256
 10
638.2812638606068
 20
784.6434985146452
 30
0
  0
VERTEX
  5
41D
  8
8
  6
BYLAYER
 62
  256
 10
636.4673275428208
 20
788.5868514796477
 30
0
  0
VERTEX
  5
41E
  8
8
  6
BYLAYER
 62
  256
 10
634.9227370101954
 20
792.6260154202561
 30
0
  0
VERTEX
  5
41F
  8
8
  6
BYLAYER
 62
  256
 10
633.6785896098833
 20
796.7706605408739
 30
0
  0
VERTEX
  5
420
  8
8
  6
BYLAYER
 62
  256
 10
633.1933620533734
 20
798.8905599195049
 30
0
  0
VERTEX
  5
421
  8
8
  6
BYLAYER
 62
  256
 10
632.6518041755038
 20
801.5460789491599
 30
0
  0
VERTEX
  5
422
  8
8
  6
BYLAYER
 62
  256
 10
631.8206491943841
 20
806.899887733525
 30
0
  0
VERTEX
  5
423
  8
8
  6
BYLAYER
 62
  256
 10
631.2707866562473
 20
812.2990813198086
 30
0
  0
VERTEX
  5
424
  8
8
  6
BYLAYER
 62
  256
 10
630.978816020469
 20
817.7370596322905
 30
0
  0
VERTEX
  5
425
  8
8
  6
BYLAYER
 62
  256
 10
630.9213367464251
 20
823.2072225952514
 30
0
  0
VERTEX
  5
426
  8
8
  6
BYLAYER
 62
  256
 10
631.0749482934921
 20
828.7029701329712
 30
0
  0
VERTEX
  5
427
  8
8
  6
BYLAYER
 62
  256
 10
631.4162501210457
 20
834.2177021697302
 30
0
  0
VERTEX
  5
428
  8
8
  6
BYLAYER
 62
  256
 10
631.921841688462
 20
839.7448186298085
 30
0
  0
VERTEX
  5
429
  8
8
  6
BYLAYER
 62
  256
 10
632.5683224551174
 20
845.2777194374863
 30
0
  0
VERTEX
  5
42A
  8
8
  6
BYLAYER
 62
  256
 10
633.3322918803876
 20
850.809804517044
 30
0
  0
VERTEX
  5
42B
  8
8
  6
BYLAYER
 62
  256
 10
634.6399751571992
 20
859.0941294701954
 30
0
  0
VERTEX
  5
42C
  8
8
  6
BYLAYER
 62
  256
 10
637.6036583957448
 20
875.5403257996901
 30
0
  0
VERTEX
  5
42D
  8
8
  6
BYLAYER
 62
  256
 10
639.5433620533735
 20
886.2905599195049
 30
0
  0
VERTEX
  5
42E
  8
8
  6
BYLAYER
 62
  256
 10
639.9723248906932
 20
888.6965148880156
 30
0
  0
VERTEX
  5
42F
  8
8
  6
BYLAYER
 62
  256
 10
640.9205896886926
 20
893.5035032026956
 30
0
  0
VERTEX
  5
430
  8
8
  6
BYLAYER
 62
  256
 10
642.5181081447075
 20
900.7023899683788
 30
0
  0
VERTEX
  5
431
  8
8
  6
BYLAYER
 62
  256
 10
644.9672345698065
 20
910.2724794972478
 30
0
  0
VERTEX
  5
432
  8
8
  6
BYLAYER
 62
  256
 10
647.6989300572087
 20
919.8058974331335
 30
0
  0
VERTEX
  5
433
  8
8
  6
BYLAYER
 62
  256
 10
650.6445315479037
 20
929.2967129552444
 30
0
  0
VERTEX
  5
434
  8
8
  6
BYLAYER
 62
  256
 10
653.7353759828808
 20
938.7389952427889
 30
0
  0
VERTEX
  5
435
  8
8
  6
BYLAYER
 62
  256
 10
658.4970745521953
 20
952.8063652246302
 30
0
  0
VERTEX
  5
436
  8
8
  6
BYLAYER
 62
  256
 10
661.6433620533735
 20
962.0905599195047
 30
0
  0
VERTEX
  5
437
  8
8
  6
BYLAYER
 62
  256
 10
661.8787506767723
 20
962.6793134825818
 30
0
  0
VERTEX
  5
438
  8
8
  6
BYLAYER
 62
  256
 10
662.6240773857919
 20
963.7525638624381
 30
0
  0
VERTEX
  5
439
  8
8
  6
BYLAYER
 62
  256
 10
664.1225548123213
 20
965.2099575129955
 30
0
  0
VERTEX
  5
43A
  8
8
  6
BYLAYER
 62
  256
 10
665.7526811866983
 20
966.5891359175951
 30
0
  0
VERTEX
  5
43B
  8
8
  6
BYLAYER
 62
  256
 10
666.7086462122739
 20
967.5372419039189
 30
0
  0
VERTEX
  5
43C
  8
8
  6
BYLAYER
 62
  256
 10
667.4289377174816
 20
968.5517930389162
 30
0
  0
VERTEX
  5
43D
  8
8
  6
BYLAYER
 62
  256
 10
667.4173105452484
 20
968.5354158351028
 30
0
  0
VERTEX
  5
43E
  8
8
  6
BYLAYER
 62
  256
 10
667.4173105452484
 20
968.5354158351028
 30
0
  0
SEQEND
  5
43F
  8
8
  6
BYLAYER
 62
  256
  0
POLYLINE
  5
440
  8
8
  6
BYLAYER
 62
  256
 66
    1
 10
0
 20
0
 30
0
 70
    0
  0
VERTEX
  5
441
  8
8
  6
BYLAYER
 62
  256
 10
249.3433620533734
 20
962.0905599195047
 30
0
  0
VERTEX
  5
442
  8
8
  6
BYLAYER
 62
  256
 10
661.6433620533735
 20
962.0905599195047
 30
0
  0
SEQEND
  5
443
  8
8
  6
BYLAYER
 62
  256
  0
POLYLINE
  5
444
  8
8
  6
BYLAYER
 62
  256
 66
    1
 10
0
 20
0
 30
0
 70
    0
  0
VERTEX
  5
445
  8
8
  6
BYLAYER
 62
  256
 10
277.7933620533734
 20
798.8905599195049
 30
0
  0
VERTEX
  5
446
  8
8
  6
BYLAYER
 62
  256
 10
633.1933620533734
 20
798.8905599195049
 30
0
  0
SEQEND
  5
447
  8
8
  6
BYLAYER
 62
  256
  0
LINE
  5
448
  8
7
  6
BYLAYER
 62
  256
 10
455.4933620533732
 20
625.6655599195047
 11
455.4933620533734
 21
1151.790559919505
  0
TEXT
  5
449
  8
1
  6
BYLAYER
 62
  256
 10
405.4933620533733
 20
994.5905599195049
 30
0
 40
2.5
  1
Piece Name: Sweatshirt Back
 50
0
 41
1
 51
0
  7
STANDARD
 71
    0
210
0
220
0
230
1
  0
TEXT
  5
44A
  8
1
  6
BYLAYER
 62
  256
 10
405.4933620533733
 20
992.0905599195047
 30
0
 40
2.5
  1
File Name: GBlock-201-Sweatshirt-Parametric-Scalable-V4-Hood-csr2119a-EXTRAy
 50
0
 41
1
 51
0
  7
STANDARD
 71
    0
210
0
220
0
230
1
  0
TEXT
  5
44B
  8
1
  6
BYLAYER
 62
  256
 10
405.4933620533733
 20
989.5905599195049
 30
0
 40
2.5
  1
Measurement Name: csr2119a-EXTRA
 50
0
 41
1
 51
0
  7
STANDARD
 71
    0
210
0
220
0
230
1
  0
TEXT
  5
44C
  8
1
  6
BYLAYER
 62
  256
 10
405.4933620533733
 20
987.0905599195048
 30
0
 40
2.5
  1
Date: 03-25-2026
 50
0
 41
1
 51
0
  7
STANDARD
 71
    0
210
0
220
0
230
1
  0
ENDBLK
  8
1
  0
BLOCK
  8
1
  2
SLEEVE
 70
    0
 10
0
 20
0
  3
SLEEVE
  1

  0
POLYLINE
  5
44D
  8
1
  6
BYLAYER
 62
  256
 66
    1
 10
0
 20
0
 30
0
 70
    1
  0
VERTEX
  5
44E
  8
1
  6
BYLAYER
 62
  256
 10
135.398447168831
 20
431.08260339778
 30
0
  0
VERTEX
  5
44F
  8
1
  6
BYLAYER
 62
  256
 10
148.6252711185165
 20
489.1141129727228
 30
0
  0
VERTEX
  5
450
  8
1
  6
BYLAYER
 62
  256
 10
161.8521120533735
 20
547.1456970685897
 30
0
  0
VERTEX
  5
451
  8
1
  6
BYLAYER
 62
  256
 10
161.8521120533736
 20
613.6655599195044
 30
0
  0
VERTEX
  5
452
  8
1
  6
BYLAYER
 62
  256
 10
380.9262721657335
 20
613.6655599195041
 30
0
  0
VERTEX
  5
453
  8
1
  6
BYLAYER
 62
  256
 10
438.1046120533738
 20
613.6655599195036
 30
0
  0
VERTEX
  5
454
  8
1
  6
BYLAYER
 62
  256
 10
598.5813620533737
 20
613.6655599195032
 30
0
  0
VERTEX
  5
455
  8
1
  6
BYLAYER
 62
  256
 10
674.3145124872341
 20
613.6655599195027
 30
0
  0
VERTEX
  5
456
  8
1
  6
BYLAYER
 62
  256
 10
674.3722895352026
 20
604.2005588013722
 30
0
  0
VERTEX
  5
457
  8
1
  6
BYLAYER
 62
  256
 10
674.5556973813876
 20
599.1595096023262
 30
0
  0
VERTEX
  5
458
  8
1
  6
BYLAYER
 62
  256
 10
674.9220245662056
 20
594.097315075315
 30
0
  0
VERTEX
  5
459
  8
1
  6
BYLAYER
 62
  256
 10
675.4728765524146
 20
589.0103045126726
 30
0
  0
VERTEX
  5
45A
  8
1
  6
BYLAYER
 62
  256
 10
676.2088630736207
 20
583.9160781956631
 30
0
  0
VERTEX
  5
45B
  8
1
  6
BYLAYER
 62
  256
 10
677.130385967093
 20
578.8321539631297
 30
0
  0
VERTEX
  5
45C
  8
1
  6
BYLAYER
 62
  256
 10
678.2376438221751
 20
573.7759669533802
 30
0
  0
VERTEX
  5
45D
  8
1
  6
BYLAYER
 62
  256
 10
679.5306317362532
 20
568.7648647136092
 30
0
  0
VERTEX
  5
45E
  8
1
  6
BYLAYER
 62
  256
 10
681.009137510531
 20
563.8160963690516
 30
0
  0
VERTEX
  5
45F
  8
1
  6
BYLAYER
 62
  256
 10
682.6727358322572
 20
558.9467944322892
 30
0
  0
VERTEX
  5
460
  8
1
  6
BYLAYER
 62
  256
 10
684.5207824001334
 20
554.173947712402
 30
0
  0
VERTEX
  5
461
  8
1
  6
BYLAYER
 62
  256
 10
686.5524105886695
 20
549.5143637328479
 30
0
  0
VERTEX
  5
462
  8
1
  6
BYLAYER
 62
  256
 10
688.7665341375499
 20
544.9846191990416
 30
0
  0
VERTEX
  5
463
  8
1
  6
BYLAYER
 62
  256
 10
691.1618604835186
 20
540.6009975320069
 30
0
  0
VERTEX
  5
464
  8
1
  6
BYLAYER
 62
  256
 10
693.7369206451305
 20
536.3794135195831
 30
0
  0
VERTEX
  5
465
  8
1
  6
BYLAYER
 62
  256
 10
696.5078004081302
 20
532.3093609753962
 30
0
  0
VERTEX
  5
466
  8
1
  6
BYLAYER
 62
  256
 10
697.96929837942
 20
530.351743975165
 30
0
  0
VERTEX
  5
467
  8
1
  6
BYLAYER
 62
  256
 10
699.6008628009337
 20
528.1866424597621
 30
0
  0
VERTEX
  5
468
  8
1
  6
BYLAYER
 62
  256
 10
702.8020411386954
 20
523.7372296797931
 30
0
  0
VERTEX
  5
469
  8
1
  6
BYLAYER
 62
  256
 10
705.903013170771
 20
519.1823156495503
 30
0
  0
VERTEX
  5
46A
  8
1
  6
BYLAYER
 62
  256
 10
708.8950914294755
 20
514.5389606438962
 30
0
  0
VERTEX
  5
46B
  8
1
  6
BYLAYER
 62
  256
 10
711.7787612234206
 20
509.811438358899
 30
0
  0
VERTEX
  5
46C
  8
1
  6
BYLAYER
 62
  256
 10
714.5545036180592
 20
505.0039898051224
 30
0
  0
VERTEX
  5
46D
  8
1
  6
BYLAYER
 62
  256
 10
717.2227928161108
 20
500.1208262386302
 30
0
  0
VERTEX
  5
46E
  8
1
  6
BYLAYER
 62
  256
 10
719.7840940660973
 20
495.1661320098481
 30
0
  0
VERTEX
  5
46F
  8
1
  6
BYLAYER
 62
  256
 10
722.2388620335112
 20
490.1440672800914
 30
0
  0
VERTEX
  5
470
  8
1
  6
BYLAYER
 62
  256
 10
723.7396625726428
 20
486.894572224414
 30
0
  0
VERTEX
  5
471
  8
1
  6
BYLAYER
 62
  256
 10
724.4845595733277
 20
483.3751204056137
 30
0
  0
VERTEX
  5
472
  8
1
  6
BYLAYER
 62
  256
 10
725.5282709630698
 20
477.8608895874339
 30
0
  0
VERTEX
  5
473
  8
1
  6
BYLAYER
 62
  256
 10
726.4571457063311
 20
472.3164114656275
 30
0
  0
VERTEX
  5
474
  8
1
  6
BYLAYER
 62
  256
 10
727.272485068475
 20
466.7455811967037
 30
0
  0
VERTEX
  5
475
  8
1
  6
BYLAYER
 62
  256
 10
727.9755737729787
 20
461.152283923688
 30
0
  0
VERTEX
  5
476
  8
1
  6
BYLAYER
 62
  256
 10
728.5676802864386
 20
455.5403962893182
 30
0
  0
VERTEX
  5
477
  8
1
  6
BYLAYER
 62
  256
 10
729.0500571644598
 20
449.9137877376905
 30
0
  0
VERTEX
  5
478
  8
1
  6
BYLAYER
 62
  256
 10
729.4239414306073
 20
444.2763216217026
 30
0
  0
VERTEX
  5
479
  8
1
  6
BYLAYER
 62
  256
 10
729.6905549650072
 20
438.631856133882
 30
0
  0
VERTEX
  5
47A
  8
1
  6
BYLAYER
 62
  256
 10
729.8511048829569
 20
432.984245078051
 30
0
  0
VERTEX
  5
47B
  8
1
  6
BYLAYER
 62
  256
 10
729.9067838870868
 20
427.3373384985461
 30
0
  0
VERTEX
  5
47C
  8
1
  6
BYLAYER
 62
  256
 10
729.858770579206
 20
421.6949831830561
 30
0
  0
VERTEX
  5
47D
  8
1
  6
BYLAYER
 62
  256
 10
729.707949030084
 20
416.0505182909617
 30
0
  0
VERTEX
  5
47E
  8
1
  6
BYLAYER
 62
  256
 10
729.3048855730975
 20
407.6217523362537
 30
0
  0
VERTEX
  5
47F
  8
1
  6
BYLAYER
 62
  256
 10
728.4031729086678
 20
396.4605420154405
 30
0
  0
VERTEX
  5
480
  8
1
  6
BYLAYER
 62
  256
 10
727.1107831023719
 20
385.3915027828676
 30
0
  0
VERTEX
  5
481
  8
1
  6
BYLAYER
 62
  256
 10
725.4372257267179
 20
374.4557515961872
 30
0
  0
VERTEX
  5
482
  8
1
  6
BYLAYER
 62
  256
 10
723.3949200900911
 20
363.7048893338182
 30
0
  0
VERTEX
  5
483
  8
1
  6
BYLAYER
 62
  256
 10
722.2176075003455
 20
358.3900055662249
 30
0
  0
VERTEX
  5
484
  8
1
  6
BYLAYER
 62
  256
 10
721.4795647135226
 20
355.1933009754976
 30
0
  0
VERTEX
  5
485
  8
1
  6
BYLAYER
 62
  256
 10
719.9473755232666
 20
348.9621181828999
 30
0
  0
VERTEX
  5
486
  8
1
  6
BYLAYER
 62
  256
 10
718.3308078956234
 20
342.8505772934282
 30
0
  0
VERTEX
  5
487
  8
1
  6
BYLAYER
 62
  256
 10
716.6321487704093
 20
336.8651282616153
 30
0
  0
VERTEX
  5
488
  8
1
  6
BYLAYER
 62
  256
 10
714.8513542568918
 20
331.0027189722943
 30
0
  0
VERTEX
  5
489
  8
1
  6
BYLAYER
 62
  256
 10
712.9883959842566
 20
325.26032500294
 30
0
  0
VERTEX
  5
48A
  8
1
  6
BYLAYER
 62
  256
 10
711.0432642453127
 20
319.634949096603
 30
0
  0
VERTEX
  5
48B
  8
1
  6
BYLAYER
 62
  256
 10
709.01597112387
 20
314.1236200439344
 30
0
  0
VERTEX
  5
48C
  8
1
  6
BYLAYER
 62
  256
 10
706.9065535067793
 20
308.7233909361844
 30
0
  0
VERTEX
  5
48D
  8
1
  6
BYLAYER
 62
  256
 10
704.7150758717539
 20
303.4313367714491
 30
0
  0
VERTEX
  5
48E
  8
1
  6
BYLAYER
 62
  256
 10
702.4416327368137
 20
298.2445514211635
 30
0
  0
VERTEX
  5
48F
  8
1
  6
BYLAYER
 62
  256
 10
700.0863506573882
 20
293.1601439911692
 30
0
  0
VERTEX
  5
490
  8
1
  6
BYLAYER
 62
  256
 10
697.6493896639213
 20
288.1752346408326
 30
0
  0
VERTEX
  5
491
  8
1
  6
BYLAYER
 62
  256
 10
695.1309440464642
 20
283.2869499523269
 30
0
  0
VERTEX
  5
492
  8
1
  6
BYLAYER
 62
  256
 10
692.5312424131525
 20
278.4924179683898
 30
0
  0
VERTEX
  5
493
  8
1
  6
BYLAYER
 62
  256
 10
689.8505469758943
 20
273.7887630385317
 30
0
  0
VERTEX
  5
494
  8
1
  6
BYLAYER
 62
  256
 10
687.089152047697
 20
269.173100628942
 30
0
  0
VERTEX
  5
495
  8
1
  6
BYLAYER
 62
  256
 10
684.2473817698324
 20
264.6425322584886
 30
0
  0
VERTEX
  5
496
  8
1
  6
BYLAYER
 62
  256
 10
681.3255871212911
 20
260.1941407215731
 30
0
  0
VERTEX
  5
497
  8
1
  6
BYLAYER
 62
  256
 10
678.3241422952707
 20
255.824985747974
 30
0
  0
VERTEX
  5
498
  8
1
  6
BYLAYER
 62
  256
 10
675.2434405552574
 20
251.5321002305464
 30
0
  0
VERTEX
  5
499
  8
1
  6
BYLAYER
 62
  256
 10
672.0769833636164
 20
247.3032636348215
 30
0
  0
VERTEX
  5
49A
  8
1
  6
BYLAYER
 62
  256
 10
667.8012489784443
 20
241.8610796983664
 30
0
  0
VERTEX
  5
49B
  8
1
  6
BYLAYER
 62
  256
 10
665.8223895304609
 20
240.2584314869318
 30
0
  0
VERTEX
  5
49C
  8
1
  6
BYLAYER
 62
  256
 10
657.4283619863451
 20
233.9387025738621
 30
0
  0
VERTEX
  5
49D
  8
1
  6
BYLAYER
 62
  256
 10
648.7777153731494
 20
227.9119536313914
 30
0
  0
VERTEX
  5
49E
  8
1
  6
BYLAYER
 62
  256
 10
639.8770546959304
 20
222.1594651659746
 30
0
  0
VERTEX
  5
49F
  8
1
  6
BYLAYER
 62
  256
 10
630.7377246826484
 20
216.6637963940321
 30
0
  0
VERTEX
  5
4A0
  8
1
  6
BYLAYER
 62
  256
 10
626.0737560481839
 20
214.016276954256
 30
0
  0
VERTEX
  5
4A1
  8
1
  6
BYLAYER
 62
  256
 10
623.921497002489
 20
212.7873728051069
 30
0
  0
VERTEX
  5
4A2
  8
1
  6
BYLAYER
 62
  256
 10
619.6800654596642
 20
210.1607275333857
 30
0
  0
VERTEX
  5
4A3
  8
1
  6
BYLAYER
 62
  256
 10
615.5321278820614
 20
207.3478265296684
 30
0
  0
VERTEX
  5
4A4
  8
1
  6
BYLAYER
 62
  256
 10
611.4660388783846
 20
204.3455900484436
 30
0
  0
VERTEX
  5
4A5
  8
1
  6
BYLAYER
 62
  256
 10
607.4917611508839
 20
201.1645982774655
 30
0
  0
VERTEX
  5
4A6
  8
1
  6
BYLAYER
 62
  256
 10
603.6191596378029
 20
197.8156292059176
 30
0
  0
VERTEX
  5
4A7
  8
1
  6
BYLAYER
 62
  256
 10
599.8579924976272
 20
194.3096345140082
 30
0
  0
VERTEX
  5
4A8
  8
1
  6
BYLAYER
 62
  256
 10
596.217905715242
 20
190.6577204629151
 30
0
  0
VERTEX
  5
4A9
  8
1
  6
BYLAYER
 62
  256
 10
592.7084295415058
 20
186.8711333550817
 30
0
  0
VERTEX
  5
4AA
  8
1
  6
BYLAYER
 62
  256
 10
589.3389753344915
 20
182.9612489921534
 30
0
  0
VERTEX
  5
4AB
  8
1
  6
BYLAYER
 62
  256
 10
586.1188316330098
 20
178.939565473318
 30
0
  0
VERTEX
  5
4AC
  8
1
  6
BYLAYER
 62
  256
 10
583.0571584725574
 20
174.8176986074656
 30
0
  0
VERTEX
  5
4AD
  8
1
  6
BYLAYER
 62
  256
 10
580.1629790675156
 20
170.6073791252054
 30
0
  0
VERTEX
  5
4AE
  8
1
  6
BYLAYER
 62
  256
 10
577.4451680512796
 20
166.320450742764
 30
0
  0
VERTEX
  5
4AF
  8
1
  6
BYLAYER
 62
  256
 10
574.912435513026
 20
161.9688679238826
 30
0
  0
VERTEX
  5
4B0
  8
1
  6
BYLAYER
 62
  256
 10
572.562194747046
 20
157.5437710749906
 30
0
  0
VERTEX
  5
4B1
  8
1
  6
BYLAYER
 62
  256
 10
568.4099342764334
 20
149.0561342779504
 30
0
  0
VERTEX
  5
4B2
  8
1
  6
BYLAYER
 62
  256
 10
500.161687815159
 20
181.8736588071861
 30
0
  0
VERTEX
  5
4B3
  8
1
  6
BYLAYER
 62
  256
 10
355.5364837270813
 20
251.4174409379009
 30
0
  0
VERTEX
  5
4B4
  8
1
  6
BYLAYER
 62
  256
 10
307.0052195237307
 20
274.7539519255054
 30
0
  0
VERTEX
  5
4B5
  8
1
  6
BYLAYER
 62
  256
 10
106.5716075544161
 20
371.1334974573987
 30
0
  0
VERTEX
  5
4B6
  8
1
  6
BYLAYER
 62
  256
 10
135.398447168831
 20
431.08260339778
 30
0
  0
SEQEND
  5
4B7
  8
1
  6
BYLAYER
 62
  256
  0
POLYLINE
  5
4B8
  8
8
  6
BYLAYER
 62
  256
 66
    1
 10
0
 20
0
 30
0
 70
    1
  0
VERTEX
  5
4B9
  8
8
  6
BYLAYER
 62
  256
 10
155.4502379315041
 20
487.5585333374688
 30
0
  0
VERTEX
  5
4BA
  8
8
  6
BYLAYER
 62
  256
 10
168.8521120533734
 20
546.3580599195045
 30
0
  0
VERTEX
  5
4BB
  8
8
  6
BYLAYER
 62
  256
 10
168.8521120533736
 20
606.6655599195043
 30
0
  0
VERTEX
  5
4BC
  8
8
  6
BYLAYER
 62
  256
 10
384.2541120533738
 20
606.6655599195043
 30
0
  0
VERTEX
  5
4BD
  8
8
  6
BYLAYER
 62
  256
 10
438.1046120533738
 20
606.6655599195038
 30
0
  0
VERTEX
  5
4BE
  8
8
  6
BYLAYER
 62
  256
 10
598.5813620533737
 20
606.6655599195034
 30
0
  0
VERTEX
  5
4BF
  8
8
  6
BYLAYER
 62
  256
 10
667.3571120533737
 20
606.6655599195028
 30
0
  0
VERTEX
  5
4C0
  8
8
  6
BYLAYER
 62
  256
 10
667.3730665475119
 20
604.0519043215195
 30
0
  0
VERTEX
  5
4C1
  8
8
  6
BYLAYER
 62
  256
 10
667.5648912635512
 20
598.779513574554
 30
0
  0
VERTEX
  5
4C2
  8
8
  6
BYLAYER
 62
  256
 10
667.9492822683885
 20
593.4676991049637
 30
0
  0
VERTEX
  5
4C3
  8
8
  6
BYLAYER
 62
  256
 10
668.5269811347833
 20
588.1327628444972
 30
0
  0
VERTEX
  5
4C4
  8
8
  6
BYLAYER
 62
  256
 10
669.2987294354947
 20
582.7910067249027
 30
0
  0
VERTEX
  5
4C5
  8
8
  6
BYLAYER
 62
  256
 10
670.2652687432818
 20
577.4587326779289
 30
0
  0
VERTEX
  5
4C6
  8
8
  6
BYLAYER
 62
  256
 10
671.4273406309037
 20
572.1522426353245
 30
0
  0
VERTEX
  5
4C7
  8
8
  6
BYLAYER
 62
  256
 10
672.7856866711197
 20
566.887838528838
 30
0
  0
VERTEX
  5
4C8
  8
8
  6
BYLAYER
 62
  256
 10
674.3410484366888
 20
561.6818222902175
 30
0
  0
VERTEX
  5
4C9
  8
8
  6
BYLAYER
 62
  256
 10
676.0941675003701
 20
556.5504958512123
 30
0
  0
VERTEX
  5
4CA
  8
8
  6
BYLAYER
 62
  256
 10
678.045785434923
 20
551.5101611435707
 30
0
  0
VERTEX
  5
4CB
  8
8
  6
BYLAYER
 62
  256
 10
680.1966438131064
 20
546.5771200990407
 30
0
  0
VERTEX
  5
4CC
  8
8
  6
BYLAYER
 62
  256
 10
682.5474842076796
 20
541.7676746493717
 30
0
  0
VERTEX
  5
4CD
  8
8
  6
BYLAYER
 62
  256
 10
685.0990481914015
 20
537.0981267263112
 30
0
  0
VERTEX
  5
4CE
  8
8
  6
BYLAYER
 62
  256
 10
687.8520773370316
 20
532.5847782616083
 30
0
  0
VERTEX
  5
4CF
  8
8
  6
BYLAYER
 62
  256
 10
690.8073132173289
 20
528.2439311870119
 30
0
  0
VERTEX
  5
4D0
  8
8
  6
BYLAYER
 62
  256
 10
692.3694620533734
 20
526.1514964533302
 30
0
  0
VERTEX
  5
4D1
  8
8
  6
BYLAYER
 62
  256
 10
693.9638797980986
 20
524.035688931561
 30
0
  0
VERTEX
  5
4D2
  8
8
  6
BYLAYER
 62
  256
 10
697.0668095194143
 20
519.7228348195273
 30
0
  0
VERTEX
  5
4D3
  8
8
  6
BYLAYER
 62
  256
 10
700.0668217009281
 20
515.3162173347093
 30
0
  0
VERTEX
  5
4D4
  8
8
  6
BYLAYER
 62
  256
 10
702.9641045448175
 20
510.8199737097864
 30
0
  0
VERTEX
  5
4D5
  8
8
  6
BYLAYER
 62
  256
 10
705.7588462532602
 20
506.2382411774368
 30
0
  0
VERTEX
  5
4D6
  8
8
  6
BYLAYER
 62
  256
 10
708.4512350284334
 20
501.575156970339
 30
0
  0
VERTEX
  5
4D7
  8
8
  6
BYLAYER
 62
  256
 10
711.0414590725148
 20
496.834858321172
 30
0
  0
VERTEX
  5
4D8
  8
8
  6
BYLAYER
 62
  256
 10
713.5297065876821
 20
492.0214824626137
 30
0
  0
VERTEX
  5
4D9
  8
8
  6
BYLAYER
 62
  256
 10
715.9161657761123
 20
487.1391666273435
 30
0
  0
VERTEX
  5
4DA
  8
8
  6
BYLAYER
 62
  256
 10
717.0544629251667
 20
484.674554667726
 30
0
  0
VERTEX
  5
4DB
  8
8
  6
BYLAYER
 62
  256
 10
717.6206786788368
 20
481.9993270023501
 30
0
  0
VERTEX
  5
4DC
  8
8
  6
BYLAYER
 62
  256
 10
718.6366711544651
 20
476.6315432690202
 30
0
  0
VERTEX
  5
4DD
  8
8
  6
BYLAYER
 62
  256
 10
719.5414089486354
 20
471.231139240232
 30
0
  0
VERTEX
  5
4DE
  8
8
  6
BYLAYER
 62
  256
 10
720.33599495685
 20
465.8021068748791
 30
0
  0
VERTEX
  5
4DF
  8
8
  6
BYLAYER
 62
  256
 10
721.0215320746112
 20
460.3484381318547
 30
0
  0
VERTEX
  5
4E0
  8
8
  6
BYLAYER
 62
  256
 10
721.5991231974218
 20
454.8741249700531
 30
0
  0
VERTEX
  5
4E1
  8
8
  6
BYLAYER
 62
  256
 10
722.0698712207839
 20
449.3831593483667
 30
0
  0
VERTEX
  5
4E2
  8
8
  6
BYLAYER
 62
  256
 10
722.4348790401998
 20
443.8795332256897
 30
0
  0
VERTEX
  5
4E3
  8
8
  6
BYLAYER
 62
  256
 10
722.695249551172
 20
438.3672385609154
 30
0
  0
VERTEX
  5
4E4
  8
8
  6
BYLAYER
 62
  256
 10
722.8520856492031
 20
432.8502673129375
 30
0
  0
VERTEX
  5
4E5
  8
8
  6
BYLAYER
 62
  256
 10
722.9064902297953
 20
427.3326114406489
 30
0
  0
VERTEX
  5
4E6
  8
8
  6
BYLAYER
 62
  256
 10
722.8595661884509
 20
421.8182629029438
 30
0
  0
VERTEX
  5
4E7
  8
8
  6
BYLAYER
 62
  256
 10
722.7124164206725
 20
416.3112136587152
 30
0
  0
VERTEX
  5
4E8
  8
8
  6
BYLAYER
 62
  256
 10
722.3183646768122
 20
408.0708984788821
 30
0
  0
VERTEX
  5
4E9
  8
8
  6
BYLAYER
 62
  256
 10
721.4359455286797
 20
397.1484992580071
 30
0
  0
VERTEX
  5
4EA
  8
8
  6
BYLAYER
 62
  256
 10
720.172475593854
 20
386.3271524711217
 30
0
  0
VERTEX
  5
4EB
  8
8
  6
BYLAYER
 62
  256
 10
718.5367780363543
 20
375.638793789374
 30
0
  0
VERTEX
  5
4EC
  8
8
  6
BYLAYER
 62
  256
 10
716.5376760202
 20
365.1153588839118
 30
0
  0
VERTEX
  5
4ED
  8
8
  6
BYLAYER
 62
  256
 10
715.3900151741906
 20
359.93433554798
 30
0
  0
VERTEX
  5
4EE
  8
8
  6
BYLAYER
 62
  256
 10
714.6701721948345
 20
356.8164602732739
 30
0
  0
VERTEX
  5
4EF
  8
8
  6
BYLAYER
 62
  256
 10
713.1644660422824
 20
350.6929800084619
 30
0
  0
VERTEX
  5
4F0
  8
8
  6
BYLAYER
 62
  256
 10
711.5796003323072
 20
344.7012903165464
 30
0
  0
VERTEX
  5
4F1
  8
8
  6
BYLAYER
 62
  256
 10
709.9156469262274
 20
338.8381314546128
 30
0
  0
VERTEX
  5
4F2
  8
8
  6
BYLAYER
 62
  256
 10
708.1726776853601
 20
333.1002436797465
 30
0
  0
VERTEX
  5
4F3
  8
8
  6
BYLAYER
 62
  256
 10
706.3507644710234
 20
327.4843672490333
 30
0
  0
VERTEX
  5
4F4
  8
8
  6
BYLAYER
 62
  256
 10
704.4499791445346
 20
321.9872424195581
 30
0
  0
VERTEX
  5
4F5
  8
8
  6
BYLAYER
 62
  256
 10
702.4703935672113
 20
316.6056094484065
 30
0
  0
VERTEX
  5
4F6
  8
8
  6
BYLAYER
 62
  256
 10
700.4120796003716
 20
311.3362085926637
 30
0
  0
VERTEX
  5
4F7
  8
8
  6
BYLAYER
 62
  256
 10
698.2751091053328
 20
306.1757801094155
 30
0
  0
VERTEX
  5
4F8
  8
8
  6
BYLAYER
 62
  256
 10
696.0595539434127
 20
301.1210642557465
 30
0
  0
VERTEX
  5
4F9
  8
8
  6
BYLAYER
 62
  256
 10
693.7654859759289
 20
296.1688012887428
 30
0
  0
VERTEX
  5
4FA
  8
8
  6
BYLAYER
 62
  256
 10
691.392977064199
 20
291.3157314654899
 30
0
  0
VERTEX
  5
4FB
  8
8
  6
BYLAYER
 62
  256
 10
688.942099069541
 20
286.5585950430723
 30
0
  0
VERTEX
  5
4FC
  8
8
  6
BYLAYER
 62
  256
 10
686.4129238532721
 20
281.8941322785762
 30
0
  0
VERTEX
  5
4FD
  8
8
  6
BYLAYER
 62
  256
 10
683.8055232767102
 20
277.3190834290867
 30
0
  0
VERTEX
  5
4FE
  8
8
  6
BYLAYER
 62
  256
 10
681.1199692011729
 20
272.830188751689
 30
0
  0
VERTEX
  5
4FF
  8
8
  6
BYLAYER
 62
  256
 10
678.3563334879778
 20
268.4241885034685
 30
0
  0
VERTEX
  5
500
  8
8
  6
BYLAYER
 62
  256
 10
675.5146879984428
 20
264.0978229415107
 30
0
  0
VERTEX
  5
501
  8
8
  6
BYLAYER
 62
  256
 10
672.5951045938854
 20
259.8478323229012
 30
0
  0
VERTEX
  5
502
  8
8
  6
BYLAYER
 62
  256
 10
669.5976551356231
 20
255.6709569047249
 30
0
  0
VERTEX
  5
503
  8
8
  6
BYLAYER
 62
  256
 10
666.5224114849739
 20
251.5639369440678
 30
0
  0
VERTEX
  5
504
  8
8
  6
BYLAYER
 62
  256
 10
662.7835368983302
 20
246.8050718269038
 30
0
  0
VERTEX
  5
505
  8
8
  6
BYLAYER
 62
  256
 10
661.5130957028093
 20
245.7761607984789
 30
0
  0
VERTEX
  5
506
  8
8
  6
BYLAYER
 62
  256
 10
653.3210925082326
 20
239.6085327828881
 30
0
  0
VERTEX
  5
507
  8
8
  6
BYLAYER
 62
  256
 10
644.8760162527328
 20
233.7250009883654
 30
0
  0
VERTEX
  5
508
  8
8
  6
BYLAYER
 62
  256
 10
636.1726317125857
 20
228.100011901271
 30
0
  0
VERTEX
  5
509
  8
8
  6
BYLAYER
 62
  256
 10
627.2057036640664
 20
222.7080120079656
 30
0
  0
VERTEX
  5
50A
  8
8
  6
BYLAYER
 62
  256
 10
622.6104666357552
 20
220.0995083244432
 30
0
  0
VERTEX
  5
50B
  8
8
  6
BYLAYER
 62
  256
 10
620.3421457452789
 20
218.8043347906236
 30
0
  0
VERTEX
  5
50C
  8
8
  6
BYLAYER
 62
  256
 10
615.8712764036488
 20
216.0356026542904
 30
0
  0
VERTEX
  5
50D
  8
8
  6
BYLAYER
 62
  256
 10
611.4871285601587
 20
213.0625169608155
 30
0
  0
VERTEX
  5
50E
  8
8
  6
BYLAYER
 62
  256
 10
607.198362849201
 20
209.8958649605225
 30
0
  0
VERTEX
  5
50F
  8
8
  6
BYLAYER
 62
  256
 10
603.0136399051676
 20
206.5464339037339
 30
0
  0
VERTEX
  5
510
  8
8
  6
BYLAYER
 62
  256
 10
598.9416203624512
 20
203.0250110407742
 30
0
  0
VERTEX
  5
511
  8
8
  6
BYLAYER
 62
  256
 10
594.9909648554437
 20
199.3423836219659
 30
0
  0
VERTEX
  5
512
  8
8
  6
BYLAYER
 62
  256
 10
591.1703340185375
 20
195.509338897633
 30
0
  0
VERTEX
  5
513
  8
8
  6
BYLAYER
 62
  256
 10
587.4883884861248
 20
191.5366641180983
 30
0
  0
VERTEX
  5
514
  8
8
  6
BYLAYER
 62
  256
 10
583.9537888925979
 20
187.4351465336856
 30
0
  0
VERTEX
  5
515
  8
8
  6
BYLAYER
 62
  256
 10
580.575195872349
 20
183.2155733947178
 30
0
  0
VERTEX
  5
516
  8
8
  6
BYLAYER
 62
  256
 10
577.3612700597704
 20
178.8887319515188
 30
0
  0
VERTEX
  5
517
  8
8
  6
BYLAYER
 62
  256
 10
574.3206720892543
 20
174.4654094544122
 30
0
  0
VERTEX
  5
518
  8
8
  6
BYLAYER
 62
  256
 10
571.4620625951931
 20
169.9563931537203
 30
0
  0
VERTEX
  5
519
  8
8
  6
BYLAYER
 62
  256
 10
568.7941022119786
 20
165.3724702997671
 30
0
  0
VERTEX
  5
51A
  8
8
  6
BYLAYER
 62
  256
 10
566.3254515740035
 20
160.724428142876
 30
0
  0
VERTEX
  5
51B
  8
8
  6
BYLAYER
 62
  256
 10
565.1774197200962
 20
158.3777359070777
 30
0
  0
VERTEX
  5
51C
  8
8
  6
BYLAYER
 62
  256
 10
503.1951893966342
 20
188.1822139630982
 30
0
  0
VERTEX
  5
51D
  8
8
  6
BYLAYER
 62
  256
 10
358.5699853085564
 20
257.7259960938131
 30
0
  0
VERTEX
  5
51E
  8
8
  6
BYLAYER
 62
  256
 10
310.0387211052059
 20
281.0625070814177
 30
0
  0
VERTEX
  5
51F
  8
8
  6
BYLAYER
 62
  256
 10
115.9136642918037
 20
374.4085510318358
 30
0
  0
VERTEX
  5
520
  8
8
  6
BYLAYER
 62
  256
 10
142.0483638096346
 20
428.7590067554328
 30
0
  0
SEQEND
  5
521
  8
8
  6
BYLAYER
 62
  256
  0
POLYLINE
  5
522
  8
8
  6
BYLAYER
 62
  256
 66
    1
 10
0
 20
0
 30
0
 70
    0
  0
VERTEX
  5
523
  8
8
  6
BYLAYER
 62
  256
 10
623.4899708819078
 20
297.8033136339921
 30
0
  0
VERTEX
  5
524
  8
8
  6
BYLAYER
 62
  256
 10
558.61730782877
 20
322.6663786392679
 30
0
  0
VERTEX
  5
525
  8
8
  6
BYLAYER
 62
  256
 10
404.1643796420465
 20
367.1521377663108
 30
0
  0
VERTEX
  5
526
  8
8
  6
BYLAYER
 62
  256
 10
352.2048503197009
 20
381.5078391720349
 30
0
  0
VERTEX
  5
527
  8
8
  6
BYLAYER
 62
  256
 10
147.3278899788559
 20
451.9224566210834
 30
0
  0
SEQEND
  5
528
  8
8
  6
BYLAYER
 62
  256
  0
POLYLINE
  5
529
  8
8
  6
BYLAYER
 62
  256
 66
    1
 10
0
 20
0
 30
0
 70
    0
  0
VERTEX
  5
52A
  8
8
  6
BYLAYER
 62
  256
 10
163.5725858841522
 20
523.1946100538545
 30
0
  0
VERTEX
  5
52B
  8
8
  6
BYLAYER
 62
  256
 10
378.727483100783
 20
497.8735233334743
 30
0
  0
VERTEX
  5
52C
  8
8
  6
BYLAYER
 62
  256
 10
431.7759181678065
 20
488.2952986968412
 30
0
  0
VERTEX
  5
52D
  8
8
  6
BYLAYER
 62
  256
 10
590.2511308399728
 20
461.4569537576667
 30
0
  0
VERTEX
  5
52E
  8
8
  6
BYLAYER
 62
  256
 10
659.4905281549309
 20
455.7525455917061
 30
0
  0
SEQEND
  5
52F
  8
8
  6
BYLAYER
 62
  256
  0
POLYLINE
  5
530
  8
8
  6
BYLAYER
 62
  256
 66
    1
 10
0
 20
0
 30
0
 70
    0
  0
VERTEX
  5
531
  8
8
  6
BYLAYER
 62
  256
 10
131.7528761207922
 20
407.3482211673492
 30
0
  0
VERTEX
  5
532
  8
8
  6
BYLAYER
 62
  256
 10
335.8993220872822
 20
334.8429397855697
 30
0
  0
VERTEX
  5
533
  8
8
  6
BYLAYER
 62
  256
 10
385.4923118441491
 20
313.7144231025347
 30
0
  0
VERTEX
  5
534
  8
8
  6
BYLAYER
 62
  256
 10
534.0394001197055
 20
252.3267015662491
 30
0
  0
VERTEX
  5
535
  8
8
  6
BYLAYER
 62
  256
 10
600.2793665914525
 20
231.3767312826339
 30
0
  0
SEQEND
  5
536
  8
8
  6
BYLAYER
 62
  256
  0
POLYLINE
  5
537
  8
8
  6
BYLAYER
 62
  256
 66
    1
 10
0
 20
0
 30
0
 70
    0
  0
VERTEX
  5
538
  8
8
  6
BYLAYER
 62
  256
 10
667.3571120533734
 20
525.665559919503
 30
0
  0
VERTEX
  5
539
  8
8
  6
BYLAYER
 62
  256
 10
598.5813620533734
 20
535.4905599195031
 30
0
  0
VERTEX
  5
53A
  8
8
  6
BYLAYER
 62
  256
 10
438.1046120533734
 20
544.5405599195035
 30
0
  0
VERTEX
  5
53B
  8
8
  6
BYLAYER
 62
  256
 10
384.2541120533734
 20
546.9905599195032
 30
0
  0
VERTEX
  5
53C
  8
8
  6
BYLAYER
 62
  256
 10
168.8521120533737
 20
570.1155599195054
 30
0
  0
SEQEND
  5
53D
  8
8
  6
BYLAYER
 62
  256
  0
LINE
  5
53E
  8
7
  6
BYLAYER
 62
  256
 10
715.3900151741906
 20
359.93433554798
 11
155.4502379315041
 21
487.5585333374688
  0
TEXT
  5
53F
  8
1
  6
BYLAYER
 62
  256
 10
654.7538478844175
 20
329.9725251084583
 30
0
 40
2.5
  1
Piece Name: Sleeve
 50
0
 41
1
 51
0
  7
STANDARD
 71
    0
210
0
220
0
230
1
  0
TEXT
  5
540
  8
1
  6
BYLAYER
 62
  256
 10
654.7538478844175
 20
327.4725251084585
 30
0
 40
2.5
  1
File Name: GBlock-201-Sweatshirt-Parametric-Scalable-V4-Hood-csr2119a-EXTRAy
 50
0
 41
1
 51
0
  7
STANDARD
 71
    0
210
0
220
0
230
1
  0
TEXT
  5
541
  8
1
  6
BYLAYER
 62
  256
 10
654.7538478844175
 20
324.9725251084583
 30
0
 40
2.5
  1
Measurement Name: csr2119a-EXTRA
 50
0
 41
1
 51
0
  7
STANDARD
 71
    0
210
0
220
0
230
1
  0
TEXT
  5
542
  8
1
  6
BYLAYER
 62
  256
 10
654.7538478844175
 20
322.4725251084584
 30
0
 40
2.5
  1
Date: 03-25-2026
 50
0
 41
1
 51
0
  7
STANDARD
 71
    0
210
0
220
0
230
1
  0
ENDBLK
  8
1
  0
BLOCK
  8
1
  2
RIB_CUFF
 70
    0
 10
0
 20
0
  3
RIB_CUFF
  1

  0
POLYLINE
  5
543
  8
1
  6
BYLAYER
 62
  256
 66
    1
 10
0
 20
0
 30
0
 70
    1
  0
VERTEX
  5
544
  8
1
  6
BYLAYER
 62
  256
 10
116.8355166666664
 20
1615.214583333333
 30
0
  0
VERTEX
  5
545
  8
1
  6
BYLAYER
 62
  256
 10
116.8355166666664
 20
1759.214583333333
 30
0
  0
VERTEX
  5
546
  8
1
  6
BYLAYER
 62
  256
 10
310.7404166666665
 20
1759.214583333333
 30
0
  0
VERTEX
  5
547
  8
1
  6
BYLAYER
 62
  256
 10
310.7404166666665
 20
1615.214583333333
 30
0
  0
VERTEX
  5
548
  8
1
  6
BYLAYER
 62
  256
 10
116.8355166666664
 20
1615.214583333333
 30
0
  0
SEQEND
  5
549
  8
1
  6
BYLAYER
 62
  256
  0
POLYLINE
  5
54A
  8
8
  6
BYLAYER
 62
  256
 66
    1
 10
0
 20
0
 30
0
 70
    1
  0
VERTEX
  5
54B
  8
8
  6
BYLAYER
 62
  256
 10
126.8355166666664
 20
1752.214583333333
 30
0
  0
VERTEX
  5
54C
  8
8
  6
BYLAYER
 62
  256
 10
300.7404166666665
 20
1752.214583333333
 30
0
  0
VERTEX
  5
54D
  8
8
  6
BYLAYER
 62
  256
 10
300.7404166666665
 20
1622.214583333333
 30
0
  0
VERTEX
  5
54E
  8
8
  6
BYLAYER
 62
  256
 10
126.8355166666664
 20
1622.214583333333
 30
0
  0
SEQEND
  5
54F
  8
8
  6
BYLAYER
 62
  256
  0
POLYLINE
  5
550
  8
8
  6
BYLAYER
 62
  256
 66
    1
 10
0
 20
0
 30
0
 70
    0
  0
VERTEX
  5
551
  8
8
  6
BYLAYER
 62
  256
 10
300.7404166666665
 20
1687.214583333333
 30
0
  0
VERTEX
  5
552
  8
8
  6
BYLAYER
 62
  256
 10
126.8355166666664
 20
1687.214583333333
 30
0
  0
SEQEND
  5
553
  8
8
  6
BYLAYER
 62
  256
  0
LINE
  5
554
  8
7
  6
BYLAYER
 62
  256
 10
161.1845063368863
 20
1625.983679166667
 11
161.1845063368863
 21
1725.983679166667
  0
TEXT
  5
555
  8
1
  6
BYLAYER
 62
  256
 10
163.7879666666665
 20
1669.714583333333
 30
0
 40
2.5
  1
Piece Name: Rib Cuff
 50
0
 41
1
 51
0
  7
STANDARD
 71
    0
210
0
220
0
230
1
  0
TEXT
  5
556
  8
1
  6
BYLAYER
 62
  256
 10
163.7879666666665
 20
1667.214583333333
 30
0
 40
2.5
  1
File Name: GBlock-201-Sweatshirt-Parametric-Scalable-V4-Hood-csr2119a-EXTRAy
 50
0
 41
1
 51
0
  7
STANDARD
 71
    0
210
0
220
0
230
1
  0
TEXT
  5
557
  8
1
  6
BYLAYER
 62
  256
 10
163.7879666666665
 20
1664.714583333333
 30
0
 40
2.5
  1
Measurement Name: csr2119a-EXTRA
 50
0
 41
1
 51
0
  7
STANDARD
 71
    0
210
0
220
0
230
1
  0
TEXT
  5
558
  8
1
  6
BYLAYER
 62
  256
 10
163.7879666666665
 20
1662.214583333333
 30
0
 40
2.5
  1
Date: 03-25-2026
 50
0
 41
1
 51
0
  7
STANDARD
 71
    0
210
0
220
0
230
1
  0
ENDBLK
  8
1
  0
BLOCK
  8
1
  2
COLLAR
 70
    0
 10
0
 20
0
  3
COLLAR
  1

  0
POLYLINE
  5
559
  8
1
  6
BYLAYER
 62
  256
 66
    1
 10
0
 20
0
 30
0
 70
    1
  0
VERTEX
  5
55A
  8
1
  6
BYLAYER
 62
  256
 10
104.4048207105053
 20
366.6273866317472
 30
0
  0
VERTEX
  5
55B
  8
1
  6
BYLAYER
 62
  256
 10
435.9406714603839
 20
207.2066472215588
 30
0
  0
VERTEX
  5
55C
  8
1
  6
BYLAYER
 62
  256
 10
408.2057998583246
 20
149.528428653218
 30
0
  0
VERTEX
  5
55D
  8
1
  6
BYLAYER
 62
  256
 10
76.66994910844616
 20
308.9491680634064
 30
0
  0
VERTEX
  5
55E
  8
1
  6
BYLAYER
 62
  256
 10
104.4048207105053
 20
366.6273866317472
 30
0
  0
SEQEND
  5
55F
  8
1
  6
BYLAYER
 62
  256
  0
POLYLINE
  5
560
  8
8
  6
BYLAYER
 62
  256
 66
    1
 10
0
 20
0
 30
0
 70
    1
  0
VERTEX
  5
561
  8
8
  6
BYLAYER
 62
  256
 10
423.8949482276054
 20
205.2316657534682
 30
0
  0
VERTEX
  5
562
  8
8
  6
BYLAYER
 62
  256
 10
402.2270797884967
 20
160.1705574969521
 30
0
  0
VERTEX
  5
563
  8
8
  6
BYLAYER
 62
  256
 10
88.71567234122463
 20
310.9241495314968
 30
0
  0
VERTEX
  5
564
  8
8
  6
BYLAYER
 62
  256
 10
110.3835407803334
 20
355.9852577880131
 30
0
  0
SEQEND
  5
565
  8
8
  6
BYLAYER
 62
  256
  0
POLYLINE
  5
566
  8
8
  6
BYLAYER
 62
  256
 66
    1
 10
0
 20
0
 30
0
 70
    0
  0
VERTEX
  5
567
  8
8
  6
BYLAYER
 62
  256
 10
413.061014008051
 20
182.70111162521
 30
0
  0
VERTEX
  5
568
  8
8
  6
BYLAYER
 62
  256
 10
99.54960656077901
 20
333.454703659755
 30
0
  0
SEQEND
  5
569
  8
8
  6
BYLAYER
 62
  256
  0
LINE
  5
56A
  8
7
  6
BYLAYER
 62
  256
 10
158.2611434537933
 20
277.3360563731925
 11
180.0174601318706
 21
322.5811040736117
  0
TEXT
  5
56B
  8
1
  6
BYLAYER
 62
  256
 10
200.4102678083444
 20
264.7152219533332
 30
0
 40
2.5
  1
Piece Name: Collar
 50
0
 41
1
 51
0
  7
STANDARD
 71
    0
210
0
220
0
230
1
  0
TEXT
  5
56C
  8
1
  6
BYLAYER
 62
  256
 10
200.4102678083444
 20
262.2152219533333
 30
0
 40
2.5
  1
File Name: GBlock-201-Sweatshirt-Parametric-Scalable-V4-Hood-csr2119a-EXTRAy
 50
0
 41
1
 51
0
  7
STANDARD
 71
    0
210
0
220
0
230
1
  0
TEXT
  5
56D
  8
1
  6
BYLAYER
 62
  256
 10
200.4102678083444
 20
259.7152219533332
 30
0
 40
2.5
  1
Measurement Name: csr2119a-EXTRA
 50
0
 41
1
 51
0
  7
STANDARD
 71
    0
210
0
220
0
230
1
  0
TEXT
  5
56E
  8
1
  6
BYLAYER
 62
  256
 10
200.4102678083444
 20
257.2152219533332
 30
0
 40
2.5
  1
Date: 03-25-2026
 50
0
 41
1
 51
0
  7
STANDARD
 71
    0
210
0
220
0
230
1
  0
ENDBLK
  8
1
  0
BLOCK
  8
1
  2
RIB_HEM
 70
    0
 10
0
 20
0
  3
RIB_HEM
  1

  0
POLYLINE
  5
56F
  8
1
  6
BYLAYER
 62
  256
 66
    1
 10
0
 20
0
 30
0
 70
    1
  0
VERTEX
  5
570
  8
1
  6
BYLAYER
 62
  256
 10
903.0229166666667
 20
143.9333333333333
 30
0
  0
VERTEX
  5
571
  8
1
  6
BYLAYER
 62
  256
 10
903.0229166666667
 20
-0.06666666666665151
 30
0
  0
VERTEX
  5
572
  8
1
  6
BYLAYER
 62
  256
 10
80.42741666666683
 20
-0.06666666666665151
 30
0
  0
VERTEX
  5
573
  8
1
  6
BYLAYER
 62
  256
 10
80.42741666666683
 20
143.9333333333333
 30
0
  0
VERTEX
  5
574
  8
1
  6
BYLAYER
 62
  256
 10
903.0229166666667
 20
143.9333333333333
 30
0
  0
SEQEND
  5
575
  8
1
  6
BYLAYER
 62
  256
  0
POLYLINE
  5
576
  8
8
  6
BYLAYER
 62
  256
 66
    1
 10
0
 20
0
 30
0
 70
    1
  0
VERTEX
  5
577
  8
8
  6
BYLAYER
 62
  256
 10
893.0229166666666
 20
136.9333333333335
 30
0
  0
VERTEX
  5
578
  8
8
  6
BYLAYER
 62
  256
 10
893.0229166666666
 20
6.9333333333332
 30
0
  0
VERTEX
  5
579
  8
8
  6
BYLAYER
 62
  256
 10
90.42741666666684
 20
6.9333333333332
 30
0
  0
VERTEX
  5
57A
  8
8
  6
BYLAYER
 62
  256
 10
90.42741666666684
 20
136.9333333333335
 30
0
  0
SEQEND
  5
57B
  8
8
  6
BYLAYER
 62
  256
  0
POLYLINE
  5
57C
  8
8
  6
BYLAYER
 62
  256
 66
    1
 10
0
 20
0
 30
0
 70
    0
  0
VERTEX
  5
57D
  8
8
  6
BYLAYER
 62
  256
 10
90.42741666666684
 20
71.93333333333334
 30
0
  0
VERTEX
  5
57E
  8
8
  6
BYLAYER
 62
  256
 10
893.0229166666666
 20
71.93333333333334
 30
0
  0
SEQEND
  5
57F
  8
8
  6
BYLAYER
 62
  256
  0
LINE
  5
580
  8
7
  6
BYLAYER
 62
  256
 10
224.6112916666664
 20
6.801041666666534
 11
224.6112916666664
 21
106.8010416666666
  0
TEXT
  5
581
  8
1
  6
BYLAYER
 62
  256
 10
441.7251666666667
 20
104.4333333333334
 30
0
 40
2.5
  1
Piece Name: Rib Hem
 50
0
 41
1
 51
0
  7
STANDARD
 71
    0
210
0
220
0
230
1
  0
TEXT
  5
582
  8
1
  6
BYLAYER
 62
  256
 10
441.7251666666667
 20
101.9333333333335
 30
0
 40
2.5
  1
File Name: GBlock-201-Sweatshirt-Parametric-Scalable-V4-Hood-csr2119a-EXTRAy
 50
0
 41
1
 51
0
  7
STANDARD
 71
    0
210
0
220
0
230
1
  0
TEXT
  5
583
  8
1
  6
BYLAYER
 62
  256
 10
441.7251666666667
 20
99.43333333333334
 30
0
 40
2.5
  1
Measurement Name: csr2119a-EXTRA
 50
0
 41
1
 51
0
  7
STANDARD
 71
    0
210
0
220
0
230
1
  0
TEXT
  5
584
  8
1
  6
BYLAYER
 62
  256
 10
441.7251666666667
 20
96.93333333333344
 30
0
 40
2.5
  1
Date: 03-25-2026
 50
0
 41
1
 51
0
  7
STANDARD
 71
    0
210
0
220
0
230
1
  0
ENDBLK
  8
0
  0
ENDSEC
  0
SECTION
  2
ENTITIES
  0
INSERT
  5
585
  8
1
  6
BYLAYER
 62
  256
  2
SWEATSHIRT_FRONT
 10
0
 20
0
 30
0
 41
1
 42
1
 43
1
 50
0
 70
    1
 71
    1
 44
0
 45
0
  0
INSERT
  5
586
  8
1
  6
BYLAYER
 62
  256
  2
SWEATSHIRT_BACK
 10
0
 20
0
 30
0
 41
1
 42
1
 43
1
 50
0
 70
    1
 71
    1
 44
0
 45
0
  0
INSERT
  5
587
  8
1
  6
BYLAYER
 62
  256
  2
SLEEVE
 10
0
 20
0
 30
0
 41
1
 42
1
 43
1
 50
0
 70
    1
 71
    1
 44
0
 45
0
  0
INSERT
  5
588
  8
1
  6
BYLAYER
 62
  256
  2
RIB_CUFF
 10
0
 20
0
 30
0
 41
1
 42
1
 43
1
 50
0
 70
    1
 71
    1
 44
0
 45
0
  0
INSERT
  5
589
  8
1
  6
BYLAYER
 62
  256
  2
COLLAR
 10
0
 20
0
 30
0
 41
1
 42
1
 43
1
 50
0
 70
    1
 71
    1
 44
0
 45
0
  0
INSERT
  5
58A
  8
1
  6
BYLAYER
 62
  256
  2
RIB_HEM
 10
0
 20
0
 30
0
 41
1
 42
1
 43
1
 50
0
 70
    1
 71
    1
 44
0
 45
0
  0
ENDSEC
  0
EOF
