999
dxfrw 0.6.3
  0
SECTION
  2
HEADER
  9
$ACADVER
  1
AC1027
  9
$DWGCODEPAGE
  3
UTF-8
  9
$INSBASE
 10
0
 20
0
 30
0
  9
$EXTMIN
 10
1e+20
 20
1e+20
 30
1e+20
  9
$EXTMAX
 10
-1e+20
 20
-1e+20
 30
-1e+20
  9
$LIMMIN
 10
0
 20
0
  9
$LIMMAX
 10
420
 20
297
  9
$ORTHOMODE
 70
    0
  9
$REGENMODE
 70
    1
  9
$FILLMODE
 70
    1
  9
$QTEXTMODE
 70
    0
  9
$MIRRTEXT
 70
    0
  9
$LTSCALE
 40
1
  9
$ATTMODE
 70
    0
  9
$TEXTSIZE
 40
2.5
  9
$TRACEWID
 40
15.68
  9
$TEXTSTYLE
  7
STANDARD
  9
$CLAYER
  8
1
  9
$CELTYPE
  6
BYLAYER
  9
$CECOLOR
 62
  256
  9
$CELTSCALE
 40
1
  9
$DISPSILH
 70
    0
  9
$DIMSCALE
 40
1
  9
$DIMASZ
 40
2.5
  9
$DIMEXO
 40
0.625
  9
$DIMDLI
 40
3.75
  9
$DIMRND
 40
0
  9
$DIMDLE
 40
0
  9
$DIMEXE
 40
1.25
  9
$DIMTP
 40
0
  9
$DIMTM
 40
0
  9
$DIMTXT
 40
2.5
  9
$DIMCEN
 40
2.5
  9
$DIMTSZ
 40
0
  9
$DIMTOL
 70
    0
  9
$DIMLIM
 70
    0
  9
$DIMTIH
 70
    0
  9
$DIMTOH
 70
    0
  9
$DIMSE1
 70
    0
  9
$DIMSE2
 70
    0
  9
$DIMTAD
 70
    1
  9
$DIMZIN
 70
    8
  9
$DIMBLK
  1

  9
$DIMASO
 70
    1
  9
$DIMSHO
 70
    1
  9
$DIMPOST
  1

  9
$DIMAPOST
  1

  9
$DIMALT
 70
    0
  9
$DIMALTD
 70
    3
  9
$DIMALTF
 40
0.03937
  9
$DIMLFAC
 40
1
  9
$DIMTOFL
 70
    1
  9
$DIMTVP
 40
0
  9
$DIMTIX
 70
    0
  9
$DIMSOXD
 70
    0
  9
$DIMSAH
 70
    0
  9
$DIMBLK1
  1

  9
$DIMBLK2
  1

  9
$DIMSTYLE
  2
STANDARD
  9
$DIMCLRD
 70
    0
  9
$DIMCLRE
 70
    0
  9
$DIMCLRT
 70
    0
  9
$DIMTFAC
 40
1
  9
$DIMGAP
 40
0.625
  9
$DIMJUST
 70
    0
  9
$DIMSD1
 70
    0
  9
$DIMSD2
 70
    0
  9
$DIMTOLJ
 70
    0
  9
$DIMTZIN
 70
    8
  9
$DIMALTZ
 70
    0
  9
$DIMALTTZ
 70
    0
  9
$DIMUPT
 70
    0
  9
$DIMDEC
 70
    2
  9
$DIMTDEC
 70
    2
  9
$DIMALTU
 70
    2
  9
$DIMALTTD
 70
    3
  9
$DIMTXSTY
  7
STANDARD
  9
$DIMAUNIT
 70
    0
  9
$DIMADEC
 70
    0
  9
$DIMALTRND
 40
0
  9
$DIMAZIN
 70
    0
  9
$DIMDSEP
 70
   44
  9
$DIMATFIT
 70
    3
  9
$DIMFRAC
 70
    0
  9
$DIMLDRBLK
  1
STANDARD
  9
$DIMLUNIT
 70
    2
  9
$DIMLWD
 70
   -2
  9
$DIMLWE
 70
   -2
  9
$DIMTMOVE
 70
    0
  9
$DIMFXL
 40
1
  9
$DIMFXLON
 70
    0
  9
$DIMJOGANG
 40
0.7854
  9
$DIMTFILL
 70
    0
  9
$DIMTFILLCLR
 70
    0
  9
$DIMARCSYM
 70
    0
  9
$DIMLTYPE
  6

  9
$DIMLTEX1
  6

  9
$DIMLTEX2
  6

  9
$DIMTXTDIRECTION
 70
    0
  9
$LUNITS
 70
    2
  9
$LUPREC
 70
    4
  9
$SKETCHINC
 40
1
  9
$FILLETRAD
 40
0
  9
$AUNITS
 70
    0
  9
$AUPREC
 70
    2
  9
$MENU
  1
.
  9
$ELEVATION
 40
0
  9
$PELEVATION
 40
0
  9
$THICKNESS
 40
0
  9
$LIMCHECK
 70
    0
  9
$CHAMFERA
 40
0
  9
$CHAMFERB
 40
0
  9
$CHAMFERC
 40
0
  9
$CHAMFERD
 40
0
  9
$SKPOLY
 70
    0
  9
$USRTIMER
 70
    1
  9
$ANGBASE
 50
0
  9
$ANGDIR
 70
    0
  9
$PDMODE
 70
   34
  9
$PDSIZE
 40
0
  9
$PLINEWID
 40
0
  9
$SPLFRAME
 70
    0
  9
$SPLINETYPE
 70
    2
  9
$SPLINESEGS
 70
    8
  9
$HANDSEED
  5
20000
  9
$SURFTAB1
 70
    6
  9
$SURFTAB2
 70
    6
  9
$SURFTYPE
 70
    6
  9
$SURFU
 70
    6
  9
$SURFV
 70
    6
  9
$TDCREATE
 40
20260319.16184247
  9
$UCSBASE
  2

  9
$UCSNAME
  2

  9
$UCSORG
 10
0
 20
0
 30
0
  9
$UCSXDIR
 10
1
 20
0
 30
0
  9
$UCSYDIR
 10
0
 20
1
 30
0
  9
$UCSORTHOREF
  2

  9
$UCSORTHOVIEW
 70
    0
  9
$UCSORGTOP
 10
0
 20
0
 30
0
  9
$UCSORGBOTTOM
 10
0
 20
0
 30
0
  9
$UCSORGLEFT
 10
0
 20
0
 30
0
  9
$UCSORGRIGHT
 10
0
 20
0
 30
0
  9
$UCSORGFRONT
 10
0
 20
0
 30
0
  9
$UCSORGBACK
 10
0
 20
0
 30
0
  9
$PUCSBASE
  2

  9
$PUCSNAME
  2

  9
$PUCSORG
 10
0
 20
0
 30
0
  9
$PUCSXDIR
 10
1
 20
0
 30
0
  9
$PUCSYDIR
 10
0
 20
1
 30
0
  9
$PUCSORTHOREF
  2

  9
$PUCSORTHOVIEW
 70
    0
  9
$PUCSORGTOP
 10
0
 20
0
 30
0
  9
$PUCSORGBOTTOM
 10
0
 20
0
 30
0
  9
$PUCSORGLEFT
 10
0
 20
0
 30
0
  9
$PUCSORGRIGHT
 10
0
 20
0
 30
0
  9
$PUCSORGFRONT
 10
0
 20
0
 30
0
  9
$PUCSORGBACK
 10
0
 20
0
 30
0
  9
$USERI1
 70
    0
  9
$USERI2
 70
    0
  9
$USERI3
 70
    0
  9
$USERI4
 70
    0
  9
$USERI5
 70
    0
  9
$USERR1
 40
0
  9
$USERR2
 40
0
  9
$USERR3
 40
0
  9
$USERR4
 40
0
  9
$USERR5
 40
0
  9
$WORLDVIEW
 70
    1
  9
$SHADEDGE
 70
    3
  9
$SHADEDIF
 70
   70
  9
$TILEMODE
 70
    1
  9
$MAXACTVP
 70
   64
  9
$PINSBASE
 10
0
 20
0
 30
0
  9
$PLIMCHECK
 70
    0
  9
$PEXTMIN
 10
0
 20
0
 30
0
  9
$PEXTMAX
 10
0
 20
0
 30
0
  9
$PLIMMIN
 10
0
 20
0
  9
$PLIMMAX
 10
297
 20
210
  9
$UNITMODE
 70
    0
  9
$VISRETAIN
 70
    1
  9
$PLINEGEN
 70
    0
  9
$PSLTSCALE
 70
    1
  9
$TREEDEPTH
 70
 3020
  9
$CMLSTYLE
  2
Standard
  9
$CMLJUST
 70
    0
  9
$CMLSCALE
 40
20
  9
$PROXYGRAPHICS
 70
    1
  9
$MEASUREMENT
 70
    1
  9
$CELWEIGHT
370
   -1
  9
$ENDCAPS
280
    0
  9
$JOINSTYLE
280
    0
  9
$LWDISPLAY
290
    0
  9
$INSUNITS
 70
    4
  9
$HYPERLINKBASE
  1

  9
$STYLESHEET
  1

  9
$XEDIT
290
    1
  9
$CEPSNTYPE
380
    0
  9
$PSTYLEMODE
290
    1
  9
$EXTNAMES
290
    1
  9
$PSVPSCALE
 40
0
  9
$OLESTARTUP
290
    0
  9
$SORTENTS
280
  127
  9
$INDEXCTL
280
    0
  9
$HIDETEXT
280
    1
  9
$XCLIPFRAME
280
    0
  9
$HALOGAP
280
    0
  9
$OBSCOLOR
 70
  257
  9
$OBSLTYPE
280
    0
  9
$INTERSECTIONDISPLAY
280
    0
  9
$INTERSECTIONCOLOR
 70
  257
  9
$DIMASSOC
280
    1
  9
$PROJECTNAME
  1

  9
$CAMERADISPLAY
290
    0
  9
$LENSLENGTH
 40
50
  9
$CAMERAHEIGHT
 40
0
  9
$STEPSPERSEC
 40
2
  9
$STEPSIZE
 40
50
  9
$3DDWFPREC
 40
2
  9
$PSOLWIDTH
 40
5
  9
$PSOLHEIGHT
 40
80
  9
$LOFTANG1
 40
1.570796326794897
  9
$LOFTANG2
 40
1.570796326794897
  9
$LOFTMAG1
 40
0
  9
$LOFTMAG2
 40
0
  9
$LOFTPARAM
 70
    7
  9
$LOFTNORMALS
280
    1
  9
$LATITUDE
 40
1
  9
$LONGITUDE
 40
1
  9
$NORTHDIRECTION
 40
0
  9
$TIMEZONE
 70
-8000
  9
$LIGHTGLYPHDISPLAY
280
    1
  9
$TILEMODELIGHTSYNCH
280
    1
  9
$SOLIDHIST
280
    1
  9
$SHOWHIST
280
    1
  9
$DWFFRAME
280
    2
  9
$DGNFRAME
280
    0
  9
$REALWORLDSCALE
290
    1
  9
$INTERFERECOLOR
 62
    1
  9
$CSHADOW
280
    0
  9
$SHADOWPLANELOCATION
 40
0
  0
ENDSEC
  0
SECTION
  2
CLASSES
  0
ENDSEC
  0
SECTION
  2
TABLES
  0
TABLE
  2
VPORT
  5
8
330
0
100
AcDbSymbolTable
 70
    1
  0
VPORT
  5
31
330
2
100
AcDbSymbolTableRecord
100
AcDbViewportTableRecord
  2
*ACTIVE
 70
    0
 10
0
 20
0
 11
1
 21
1
 12
0.651828
 22
-0.16
 13
0
 23
0
 14
10
 24
10
 15
10
 25
10
 16
0
 26
0
 36
1
 17
0
 27
0
 37
0
 40
5.13732
 41
2.4426877
 42
50
 43
0
 44
0
 50
0
 51
0
 71
    0
 72
  100
 73
    1
 74
    3
 75
    0
 76
    0
 77
    0
 78
    0
281
    0
 65
    1
110
0
120
0
130
0
111
1
121
0
131
0
112
0
122
1
132
0
 79
    0
146
0
348
10020
 60
    7
 61
    5
292
1
282
    1
141
0
142
0
 63
  250
421
3358443
  0
ENDTAB
  0
TABLE
  2
LTYPE
  5
5
330
0
100
AcDbSymbolTable
 70
    4
  0
LTYPE
  5
14
330
5
100
AcDbSymbolTableRecord
100
AcDbLinetypeTableRecord
  2
ByBlock
 70
    0
  3

 72
   65
 73
    0
 40
0
  0
LTYPE
  5
15
330
5
100
AcDbSymbolTableRecord
100
AcDbLinetypeTableRecord
  2
ByLayer
 70
    0
  3

 72
   65
 73
    0
 40
0
  0
LTYPE
  5
16
330
5
100
AcDbSymbolTableRecord
100
AcDbLinetypeTableRecord
  2
Continuous
 70
    0
  3
Solid line
 72
   65
 73
    0
 40
0
  0
ENDTAB
  0
TABLE
  2
LAYER
  5
2
330
0
100
AcDbSymbolTable
 70
    1
  0
LAYER
  5
10
330
2
100
AcDbSymbolTableRecord
100
AcDbLayerTableRecord
  2
0
 70
    0
 62
  250
  6
CONTINUOUS
370
   13
390
F
  0
LAYER
  5
32
330
2
100
AcDbSymbolTableRecord
100
AcDbLayerTableRecord
  2
1
 70
    0
 62
  250
  6
CONTINUOUS
370
   -3
390
F
  0
LAYER
  5
33
330
2
100
AcDbSymbolTableRecord
100
AcDbLayerTableRecord
  2
8
 70
    0
 62
  250
  6
CONTINUOUS
370
   -3
390
F
  0
LAYER
  5
34
330
2
100
AcDbSymbolTableRecord
100
AcDbLayerTableRecord
  2
7
 70
    0
 62
  250
  6
CONTINUOUS
370
   -3
390
F
  0
LAYER
  5
35
330
2
100
AcDbSymbolTableRecord
100
AcDbLayerTableRecord
  2
11
 70
    0
 62
  250
  6
CONTINUOUS
370
   -3
390
F
  0
LAYER
  5
36
330
2
100
AcDbSymbolTableRecord
100
AcDbLayerTableRecord
  2
4
 70
    0
 62
  250
  6
CONTINUOUS
370
   -3
390
F
  0
ENDTAB
  0
TABLE
  2
STYLE
  5
3
330
0
100
AcDbSymbolTable
 70
    3
  0
STYLE
  5
37
330
2
100
AcDbSymbolTableRecord
100
AcDbTextStyleTableRecord
  2
Standard
 70
    0
 40
0
 41
1
 50
0
 71
    0
 42
2.5
  3
txt
  4

1001
ACAD
1000
txt
  0
ENDTAB
  0
TABLE
  2
VIEW
  5
6
330
0
100
AcDbSymbolTable
 70
    0
  0
ENDTAB
  0
TABLE
  2
UCS
  5
7
330
0
100
AcDbSymbolTable
 70
    0
  0
ENDTAB
  0
TABLE
  2
APPID
  5
9
330
0
100
AcDbSymbolTable
 70
    1
  0
APPID
  5
12
330
9
100
AcDbSymbolTableRecord
100
AcDbRegAppTableRecord
  2
ACAD
 70
    0
  0
APPID
  5
38
330
9
100
AcDbSymbolTableRecord
100
AcDbRegAppTableRecord
  2
Seamly2D
 70
    0
  0
ENDTAB
  0
TABLE
  2
DIMSTYLE
  5
A
330
0
100
AcDbSymbolTable
 70
    1
100
AcDbDimStyleTable
 71
    1
  0
DIMSTYLE
105
39
330
A
100
AcDbSymbolTableRecord
100
AcDbDimStyleTableRecord
  2
Standard
 70
    0
 40
1
 41
2.5
 42
0.625
 43
3.75
 44
1.25
 45
0
 46
0
 47
0
 48
0
140
2.5
141
2.5
142
0
143
0.03937007874015748
144
1
145
0
146
1
147
0.625
148
0
 71
    0
 72
    0
 73
    0
 74
    0
 75
    0
 76
    0
 77
    1
 78
    8
 79
    0
170
    0
171
    3
172
    1
173
    0
174
    0
175
    0
176
    0
177
    0
178
    0
179
    0
271
    2
272
    2
273
    2
274
    3
275
    0
276
    0
277
    2
278
   44
279
    0
280
    0
281
    0
282
    0
283
    0
284
    8
285
    0
286
    0
288
    0
289
    3
341

371
   -2
372
   -2
  0
ENDTAB
  0
TABLE
  2
BLOCK_RECORD
  5
1
330
0
100
AcDbSymbolTable
 70
    2
  0
BLOCK_RECORD
  5
1F
330
1
100
AcDbSymbolTableRecord
100
AcDbBlockTableRecord
  2
*Model_Space
 70
    0
280
    1
281
    0
  0
BLOCK_RECORD
  5
1E
330
1
100
AcDbSymbolTableRecord
100
AcDbBlockTableRecord
  2
*Paper_Space
 70
    0
280
    1
281
    0
  0
BLOCK_RECORD
  5
3A
330
1
100
AcDbSymbolTableRecord
100
AcDbBlockTableRecord
  2
Fr Trace
 70
    0
280
    1
281
    0
  0
BLOCK_RECORD
  5
3D
330
1
100
AcDbSymbolTableRecord
100
AcDbBlockTableRecord
  2
Bk Trace
 70
    0
280
    1
281
    0
  0
ENDTAB
  0
ENDSEC
  0
SECTION
  2
BLOCKS
  0
BLOCK
  5
20
330
1F
100
AcDbEntity
  8
0
100
AcDbBlockBegin
  2
*Model_Space
 70
    0
 10
0
 20
0
 30
0
  3
*Model_Space
  1

  0
ENDBLK
  5
21
330
1F
100
AcDbEntity
  8
0
100
AcDbBlockEnd
  0
BLOCK
  5
1C
330
1B
100
AcDbEntity
  8
0
100
AcDbBlockBegin
  2
*Paper_Space
 70
    0
 10
0
 20
0
 30
0
  3
*Paper_Space
  1

  0
ENDBLK
  5
1D
330
1F
100
AcDbEntity
  8
0
100
AcDbBlockEnd
  0
BLOCK
  5
3B
330
3A
100
AcDbEntity
  8
1
100
AcDbBlockBegin
  2
Fr Trace
 70
    0
 10
0
 20
0
  3
Fr Trace
  1

  0
LWPOLYLINE
  5
40
100
AcDbEntity
  8
1
  6
BYLAYER
 62
  256
370
   -1
100
AcDbPolyline
 90
  243
 70
    1
 43
0
 10
816.6630046306944
 20
838.8876307524764
 10
815.5443607765495
 20
838.4682478306638
 10
813.2799794117194
 20
837.5181995267505
 10
810.9892704428049
 20
836.4395730173675
 10
808.6791058517666
 20
835.2378802434876
 10
805.192696592668
 20
833.2303100091221
 10
800.5380974613724
 20
830.1546701660565
 10
795.9293715168684
 20
826.685980202517
 10
791.4214946148386
 20
822.868335646288
 10
787.0694426109663
 20
818.7458320251534
 10
782.9281913609346
 20
814.3625648668972
 10
779.0527167204266
 20
809.7626296993036
 10
775.4979945451254
 20
804.9901220501565
 10
773.0885481387711
 20
801.3210354223364
 10
771.6032912647285
 20
798.8466917938954
 10
770.2291464258091
 20
796.3540087794444
 10
768.9729856039737
 20
793.8484983199568
 10
767.8416807811825
 20
791.3356723564052
 10
766.8421039393958
 20
788.8210428297627
 10
765.9811270605741
 20
786.3101216810026
 10
765.2656221266776
 20
783.8084208510976
 10
764.702461119667
 20
781.3214522810208
 10
764.2985160215025
 20
778.8547279117452
 10
764.0606588141445
 20
776.4137596842438
 10
763.9957614795534
 20
774.0040595394897
 10
764.0379564191458
 20
772.8143048127888
 10
764.1109429218026
 20
771.6260415031372
 10
764.4084220952611
 20
769.233893390452
 10
764.8810734065539
 20
766.8273392820438
 10
765.5215243401931
 20
764.4112011738409
 10
766.3224023806906
 20
761.9903010617719
 10
767.2763350125587
 20
759.5694609417651
 10
768.375949720309
 20
757.1535028097488
 10
769.613873988454
 20
754.7472486616513
 10
770.9827353015053
 20
752.3555204934012
 10
772.4751611439752
 20
749.9831403009268
 10
774.0837790003754
 20
747.6349300801566
 10
775.8012163552185
 20
745.3157118270185
 10
778.5539830432172
 20
741.896661633034
 10
782.5533045577025
 20
737.4900408836932
 10
786.8551987871743
 20
733.286183931593
 10
791.400685607729
 20
729.3236667441602
 10
796.1307848954624
 20
725.6410652888219
 10
800.986516526471
 20
722.2769555330051
 10
805.9089003768507
 20
719.2699134441369
 10
810.8389563226979
 20
716.6585149896441
 10
814.5030671414053
 20
714.9972866260318
 10
816.9185553197697
 20
714.02448509403
 10
819.3027852023049
 20
713.1722934522999
 10
821.6483842735232
 20
712.4455336967694
 10
822.8023229444423
 20
712.1362253533943
 10
788.8878911045265
 20
581.3923772649441
 10
586.9219455403573
 20
485.0586270401603
 10
585.5826670000836
 20
484.3749786908014
 10
582.8602846622385
 20
482.6457601021929
 10
578.7118290825714
 20
479.6699038919772
 10
574.5277246748643
 20
476.9424266290375
 10
572.4420541538701
 20
475.9095632711104
 10
571.0577628156977
 20
475.3935710871934
 10
569.680886765371
 20
475.0552875353627
 10
568.3134223975536
 20
474.9225072951382
 10
566.9573661069089
 20
475.0230250460396
 10
565.6147142881009
 20
475.3846354675868
 10
564.9497222232941
 20
475.6846522959496
 10
563.8377670357618
 20
476.2429369208032
 10
561.6662844408895
 20
477.4612234203532
 10
559.5536772617322
 20
478.7933974835322
 10
557.4954589199394
 20
480.2303778479158
 10
554.4948995382315
 20
482.5522320545538
 10
550.6509569386282
 20
485.9460554414568
 10
546.9438112781756
 20
489.5956413095399
 10
543.3375699300701
 20
493.4283395594081
 10
538.0374917792628
 20
499.3616146659689
 10
532.7653454918017
 20
505.2986076057742
 10
529.2037951250501
 20
509.1372543888336
 10
525.5636859366285
 20
512.7957630567034
 10
521.8091252997333
 20
516.2014835099886
 10
518.8909649148966
 20
518.5343053246978
 10
516.8941966724656
 20
519.9794649222193
 10
514.8486259653392
 20
521.320561785185
 10
512.7497662151673
 20
522.5485146511705
 10
510.593130843599
 20
523.6542422577515
 10
508.3742332722841
 20
524.6286633425036
 10
506.0885869228724
 20
525.4626966430026
 10
503.7317052170129
 20
526.1472608968238
 10
502.521900498682
 20
526.4238587808762
 10
501.0990584122831
 20
526.7192087257345
 10
498.2476065623846
 20
527.1914928392039
 10
495.3895990276644
 20
527.5279342285485
 10
492.5254419500102
 20
527.7354842352933
 10
489.6555414713108
 20
527.8210942009628
 10
486.7803037334535
 20
527.7917154670811
 10
482.4588684391819
 20
527.5594509074032
 10
476.6812431111784
 20
526.8941773406294
 10
470.8895793005299
 20
525.8940731230938
 10
465.0871261423403
 20
524.6147489869928
 10
459.2771327717145
 20
523.1118156645229
 10
450.5550394723331
 20
520.5703697275401
 10
438.9288010777175
 20
516.8901767507422
 10
430.2277824606978
 20
514.1893868835097
 10
424.4407796526484
 20
512.5126238189488
 10
418.6689805778941
 20
511.0015266933934
 10
412.9156343715394
 20
509.7117062390398
 10
410.0478683891927
 20
509.1798486494374
 10
406.3545494109268
 20
508.5463701678572
 10
398.8988160488713
 20
507.421505793656
 10
387.6192043898377
 20
505.9121381008366
 10
376.3055608753469
 20
504.4038755807801
 10
368.79537654456
 20
503.2807794830002
 10
361.343768788721
 20
501.9809702067779
 10
353.9796133346816
 20
500.4335856530939
 10
350.3448024643146
 20
499.530163723511
 10
348.8086375081814
 20
499.1195945198036
 10
345.7640540877623
 20
498.167296406356
 10
342.7481787068857
 20
497.0794853792636
 10
339.7559138648024
 20
495.8804711425211
 10
335.2992772306614
 20
493.9329248655082
 10
329.3952407702662
 20
491.1593935820518
 10
323.4938914515606
 20
488.3786241318906
 10
317.554449268552
 20
485.7850941469783
 10
313.0469169081545
 20
484.0962997366229
 10
310.0103949128048
 20
483.1222871230605
 10
306.9414109480081
 20
482.3044780437846
 10
303.8348675130158
 20
481.6671822027894
 10
302.2640344534905
 20
481.4328642705731
 10
299.8515958929254
 20
481.1164132193813
 10
295.0036382296611
 20
480.6205002217947
 10
290.1310115802948
 20
480.2744848173169
 10
285.2370800164471
 20
480.0622677474499
 10
277.8652067046218
 20
479.9479031185357
 10
267.9898829494863
 20
480.1330678844953
 10
253.1370952430853
 20
480.8241774745357
 10
238.3235637634217
 20
481.6458260233578
 10
228.5110499710659
 20
482.0398531233678
 10
223.6382483523099
 20
482.1298290985215
 10
218.3748859735079
 20
482.2870433873924
 10
210.4018280559873
 20
482.6971010288427
 10
205.1082087973352
 20
482.79305435941
 10
202.4855488785302
 20
482.7071548055226
 10
199.2112516084208
 20
482.5433106869099
 10
192.6337648602006
 20
482.1129069003776
 10
182.7242357211898
 20
481.3123992336002
 10
169.4777504856056
 20
480.1197618224953
 10
159.5686535951283
 20
479.3101388625143
 10
152.9916383907629
 20
478.86979111976
 10
149.7176423847831
 20
478.6995939180056
 10
136.9431191322603
 20
742.4404023941889
 10
124.1685958797377
 20
1006.181210870372
 10
127.443714733293
 20
1006.328225936753
 10
134.0324997696676
 20
1006.525575569256
 10
143.9734573433088
 20
1006.677407849292
 10
157.2731971014244
 20
1006.770560719971
 10
167.2137039520927
 20
1006.931507398385
 10
173.8019972906786
 20
1007.138800010935
 10
177.0768020039803
 20
1007.292167536791
 10
179.6954867819198
 20
1007.460137227068
 10
184.9550527128354
 20
1008.067243573247
 10
192.8511579754711
 20
1009.24593840518
 10
198.0746880923856
 20
1009.911094763416
 10
202.9159839508457
 20
1010.471581786203
 10
212.6444837012943
 20
1011.812095451272
 10
227.3092634186744
 20
1014.061552514095
 10
242.0257315471024
 20
1016.184875603458
 10
251.8369327552278
 20
1017.323574910991
 10
259.1853504366782
 20
1017.922200814956
 10
264.0768827957771
 20
1018.183951490705
 10
268.9601409194908
 20
1018.310471139118
 10
273.8333323976207
 20
1018.285410742861
 10
276.2650615472011
 20
1018.203591311288
 10
277.8511870667183
 20
1018.122183507043
 10
281.0047799887051
 20
1017.78810300052
 10
284.1384349735832
 20
1017.270724317084
 10
287.2548762472946
 20
1016.594736013096
 10
291.9045220869626
 20
1015.349477764323
 10
298.0668130786963
 20
1013.342106109363
 10
304.2092852927284
 20
1011.14468998669
 10
310.3537325365984
 20
1008.954737847194
 10
314.9777279887126
 20
1007.4470201519
 10
318.0718645775944
 20
1006.542806242241
 10
321.1787539406769
 20
1005.751556832
 10
324.3011203039024
 20
1005.097960477539
 10
325.8697738203031
 20
1004.837775948851
 10
329.574881083252
 20
1004.289869555174
 10
337.0541113399065
 20
1003.461437737713
 10
344.5964575972117
 20
1002.887874108854
 10
352.1800277704378
 20
1002.495857584969
 10
363.5864772242696
 20
1002.088063201036
 10
374.95916093834
 20
1001.675879806841
 10
382.4887059279484
 20
1001.276840866538
 10
386.2259587147289
 20
1001.003268811045
 10
389.1317018362294
 20
1000.751056327264
 10
394.9827708900175
 20
1000.023306162409
 10
400.873591731115
 20
999.0770985211967
 10
406.795555931038
 20
997.9674698040681
 10
415.7168623054606
 20
996.1202330963458
 10
427.6443497164564
 20
993.5808860118684
 10
436.5712323161093
 20
991.8942840950738
 10
442.499279670829
 20
990.9598933316842
 10
448.3982113849885
 20
990.2473362954574
 10
454.2594190301043
 20
989.8116493868336
 10
460.0742941776927
 20
989.7078690062524
 10
464.3979476651414
 20
989.8943370966347
 10
467.2625654640865
 20
990.1429734277884
 10
470.1107578976277
 20
990.5055443662005
 10
472.9414489122046
 20
990.9889294619256
 10
475.7535624542565
 20
991.600008265019
 10
478.5460224702232
 20
992.3456603255353
 10
479.9336599889192
 20
992.777138377657
 10
481.1110696809373
 20
993.1693631386042
 10
483.3907588524141
 20
994.0785038727461
 10
485.5851006807474
 20
995.1295294296891
 10
487.6994384014129
 20
996.3138346628817
 10
489.7391152498857
 20
997.6228144257728
 10
491.7094744616413
 20
999.0478635718113
 10
493.615859272155
 20
1000.580376954445
 10
495.4636129169022
 20
1002.211749427124
 10
498.1426574104476
 20
1004.815676893936
 10
501.5504965310466
 20
1008.568314620944
 10
504.8199892271356
 20
1012.561496070206
 10
507.9938813825175
 20
1016.726380069311
 10
512.6675672014832
 20
1023.145108331925
 10
517.3694134424487
 20
1029.562835641583
 10
520.5883622730303
 20
1033.726118115956
 10
523.9254399819189
 20
1037.716897278121
 10
527.423392452917
 20
1041.466331955665
 10
530.1855101913617
 20
1044.067306611252
 10
532.0952167645082
 20
1045.696476987424
 10
534.0691865878213
 20
1047.226588082961
 10
536.1127628967761
 20
1048.64903475131
 10
537.1655574669078
 20
1049.312170977533
 10
537.7984414974225
 20
1049.675051601811
 10
539.099860378309
 20
1050.164729965629
 10
540.4398543018322
 20
1050.395833333333
 10
541.8137500000001
 20
1050.395833333333
 10
543.2168742048212
 20
1050.19220159404
 10
544.6445536483038
 20
1049.812409743864
 10
546.8202821037008
 20
1048.985951077826
 10
551.2483975589422
 20
1046.675614429306
 10
555.6650356612564
 20
1044.114616234551
 10
558.5417947248774
 20
1042.656597095282
 10
559.9408752206
 20
1042.105583628562
 10
770.2715815132721
 20
965.7417925333982
 10
816.6630046306944
 20
838.8876307524764
  0
LWPOLYLINE
  5
41
100
AcDbEntity
  8
8
  6
BYLAYER
 62
  256
370
   -1
100
AcDbPolyline
 90
  242
 70
    1
 43
0
 10
816.6630046306944
 20
838.8876307524764
 10
815.5443607765495
 20
838.4682478306638
 10
813.2799794117194
 20
837.5181995267505
 10
810.9892704428049
 20
836.4395730173675
 10
808.6791058517666
 20
835.2378802434876
 10
805.192696592668
 20
833.2303100091221
 10
800.5380974613724
 20
830.1546701660565
 10
795.9293715168684
 20
826.685980202517
 10
791.4214946148386
 20
822.868335646288
 10
787.0694426109663
 20
818.7458320251534
 10
782.9281913609346
 20
814.3625648668972
 10
779.0527167204266
 20
809.7626296993036
 10
775.4979945451254
 20
804.9901220501565
 10
773.0885481387711
 20
801.3210354223364
 10
771.6032912647285
 20
798.8466917938954
 10
770.2291464258091
 20
796.3540087794444
 10
768.9729856039737
 20
793.8484983199568
 10
767.8416807811825
 20
791.3356723564052
 10
766.8421039393958
 20
788.8210428297627
 10
765.9811270605741
 20
786.3101216810026
 10
765.2656221266776
 20
783.8084208510976
 10
764.702461119667
 20
781.3214522810208
 10
764.2985160215025
 20
778.8547279117452
 10
764.0606588141445
 20
776.4137596842438
 10
763.9957614795534
 20
774.0040595394897
 10
764.0379564191458
 20
772.8143048127888
 10
764.1109429218026
 20
771.6260415031372
 10
764.4084220952611
 20
769.233893390452
 10
764.8810734065539
 20
766.8273392820438
 10
765.5215243401931
 20
764.4112011738409
 10
766.3224023806906
 20
761.9903010617719
 10
767.2763350125587
 20
759.5694609417651
 10
768.375949720309
 20
757.1535028097488
 10
769.613873988454
 20
754.7472486616513
 10
770.9827353015053
 20
752.3555204934012
 10
772.4751611439752
 20
749.9831403009268
 10
774.0837790003754
 20
747.6349300801566
 10
775.8012163552185
 20
745.3157118270185
 10
778.5539830432172
 20
741.896661633034
 10
782.5533045577025
 20
737.4900408836932
 10
786.8551987871743
 20
733.286183931593
 10
791.400685607729
 20
729.3236667441602
 10
796.1307848954624
 20
725.6410652888219
 10
800.986516526471
 20
722.2769555330051
 10
805.9089003768507
 20
719.2699134441369
 10
810.8389563226979
 20
716.6585149896441
 10
814.5030671414053
 20
714.9972866260318
 10
816.9185553197697
 20
714.02448509403
 10
819.3027852023049
 20
713.1722934522999
 10
821.6483842735232
 20
712.4455336967694
 10
822.8023229444423
 20
712.1362253533943
 10
788.8878911045265
 20
581.3923772649441
 10
586.9219455403573
 20
485.0586270401603
 10
585.5826670000836
 20
484.3749786908014
 10
582.8602846622385
 20
482.6457601021929
 10
578.7118290825714
 20
479.6699038919772
 10
574.5277246748643
 20
476.9424266290375
 10
572.4420541538701
 20
475.9095632711104
 10
571.0577628156977
 20
475.3935710871934
 10
569.680886765371
 20
475.0552875353627
 10
568.3134223975536
 20
474.9225072951382
 10
566.9573661069089
 20
475.0230250460396
 10
565.6147142881009
 20
475.3846354675868
 10
564.9497222232941
 20
475.6846522959496
 10
563.8377670357618
 20
476.2429369208032
 10
561.6662844408895
 20
477.4612234203532
 10
559.5536772617322
 20
478.7933974835322
 10
557.4954589199394
 20
480.2303778479158
 10
554.4948995382315
 20
482.5522320545538
 10
550.6509569386282
 20
485.9460554414568
 10
546.9438112781756
 20
489.5956413095399
 10
543.3375699300701
 20
493.4283395594081
 10
538.0374917792628
 20
499.3616146659689
 10
532.7653454918017
 20
505.2986076057742
 10
529.2037951250501
 20
509.1372543888336
 10
525.5636859366285
 20
512.7957630567034
 10
521.8091252997333
 20
516.2014835099886
 10
518.8909649148966
 20
518.5343053246978
 10
516.8941966724656
 20
519.9794649222193
 10
514.8486259653392
 20
521.320561785185
 10
512.7497662151673
 20
522.5485146511705
 10
510.593130843599
 20
523.6542422577515
 10
508.3742332722841
 20
524.6286633425036
 10
506.0885869228724
 20
525.4626966430026
 10
503.7317052170129
 20
526.1472608968238
 10
502.521900498682
 20
526.4238587808762
 10
501.0990584122831
 20
526.7192087257345
 10
498.2476065623846
 20
527.1914928392039
 10
495.3895990276644
 20
527.5279342285485
 10
492.5254419500102
 20
527.7354842352933
 10
489.6555414713108
 20
527.8210942009628
 10
486.7803037334535
 20
527.7917154670811
 10
482.4588684391819
 20
527.5594509074032
 10
476.6812431111784
 20
526.8941773406294
 10
470.8895793005299
 20
525.8940731230938
 10
465.0871261423403
 20
524.6147489869928
 10
459.2771327717145
 20
523.1118156645229
 10
450.5550394723331
 20
520.5703697275401
 10
438.9288010777175
 20
516.8901767507422
 10
430.2277824606978
 20
514.1893868835097
 10
424.4407796526484
 20
512.5126238189488
 10
418.6689805778941
 20
511.0015266933934
 10
412.9156343715394
 20
509.7117062390398
 10
410.0478683891927
 20
509.1798486494374
 10
406.3545494109268
 20
508.5463701678572
 10
398.8988160488713
 20
507.421505793656
 10
387.6192043898377
 20
505.9121381008366
 10
376.3055608753469
 20
504.4038755807801
 10
368.79537654456
 20
503.2807794830002
 10
361.343768788721
 20
501.9809702067779
 10
353.9796133346816
 20
500.4335856530939
 10
350.3448024643146
 20
499.530163723511
 10
348.8086375081814
 20
499.1195945198036
 10
345.7640540877623
 20
498.167296406356
 10
342.7481787068857
 20
497.0794853792636
 10
339.7559138648024
 20
495.8804711425211
 10
335.2992772306614
 20
493.9329248655082
 10
329.3952407702662
 20
491.1593935820518
 10
323.4938914515606
 20
488.3786241318906
 10
317.554449268552
 20
485.7850941469783
 10
313.0469169081545
 20
484.0962997366229
 10
310.0103949128048
 20
483.1222871230605
 10
306.9414109480081
 20
482.3044780437846
 10
303.8348675130158
 20
481.6671822027894
 10
302.2640344534905
 20
481.4328642705731
 10
299.8515958929254
 20
481.1164132193813
 10
295.0036382296611
 20
480.6205002217947
 10
290.1310115802948
 20
480.2744848173169
 10
285.2370800164471
 20
480.0622677474499
 10
277.8652067046218
 20
479.9479031185357
 10
267.9898829494863
 20
480.1330678844953
 10
253.1370952430853
 20
480.8241774745357
 10
238.3235637634217
 20
481.6458260233578
 10
228.5110499710659
 20
482.0398531233678
 10
223.6382483523099
 20
482.1298290985215
 10
218.3748859735079
 20
482.2870433873924
 10
210.4018280559873
 20
482.6971010288427
 10
205.1082087973352
 20
482.79305435941
 10
202.4855488785302
 20
482.7071548055226
 10
199.2112516084208
 20
482.5433106869099
 10
192.6337648602006
 20
482.1129069003776
 10
182.7242357211898
 20
481.3123992336002
 10
169.4777504856056
 20
480.1197618224953
 10
159.5686535951283
 20
479.3101388625143
 10
152.9916383907629
 20
478.86979111976
 10
149.7176423847831
 20
478.6995939180056
 10
136.9431191322603
 20
742.4404023941889
 10
124.1685958797377
 20
1006.181210870372
 10
127.443714733293
 20
1006.328225936753
 10
134.0324997696676
 20
1006.525575569256
 10
143.9734573433088
 20
1006.677407849292
 10
157.2731971014244
 20
1006.770560719971
 10
167.2137039520927
 20
1006.931507398385
 10
173.8019972906786
 20
1007.138800010935
 10
177.0768020039803
 20
1007.292167536791
 10
179.6954867819198
 20
1007.460137227068
 10
184.9550527128354
 20
1008.067243573247
 10
192.8511579754711
 20
1009.24593840518
 10
198.0746880923856
 20
1009.911094763416
 10
202.9159839508457
 20
1010.471581786203
 10
212.6444837012943
 20
1011.812095451272
 10
227.3092634186744
 20
1014.061552514095
 10
242.0257315471024
 20
1016.184875603458
 10
251.8369327552278
 20
1017.323574910991
 10
259.1853504366782
 20
1017.922200814956
 10
264.0768827957771
 20
1018.183951490705
 10
268.9601409194908
 20
1018.310471139118
 10
273.8333323976207
 20
1018.285410742861
 10
276.2650615472011
 20
1018.203591311288
 10
277.8511870667183
 20
1018.122183507043
 10
281.0047799887051
 20
1017.78810300052
 10
284.1384349735832
 20
1017.270724317084
 10
287.2548762472946
 20
1016.594736013096
 10
291.9045220869626
 20
1015.349477764323
 10
298.0668130786963
 20
1013.342106109363
 10
304.2092852927284
 20
1011.14468998669
 10
310.3537325365984
 20
1008.954737847194
 10
314.9777279887126
 20
1007.4470201519
 10
318.0718645775944
 20
1006.542806242241
 10
321.1787539406769
 20
1005.751556832
 10
324.3011203039024
 20
1005.097960477539
 10
325.8697738203031
 20
1004.837775948851
 10
329.574881083252
 20
1004.289869555174
 10
337.0541113399065
 20
1003.461437737713
 10
344.5964575972117
 20
1002.887874108854
 10
352.1800277704378
 20
1002.495857584969
 10
363.5864772242696
 20
1002.088063201036
 10
374.95916093834
 20
1001.675879806841
 10
382.4887059279484
 20
1001.276840866538
 10
386.2259587147289
 20
1001.003268811045
 10
389.1317018362294
 20
1000.751056327264
 10
394.9827708900175
 20
1000.023306162409
 10
400.873591731115
 20
999.0770985211967
 10
406.795555931038
 20
997.9674698040681
 10
415.7168623054606
 20
996.1202330963458
 10
427.6443497164564
 20
993.5808860118684
 10
436.5712323161093
 20
991.8942840950738
 10
442.499279670829
 20
990.9598933316842
 10
448.3982113849885
 20
990.2473362954574
 10
454.2594190301043
 20
989.8116493868336
 10
460.0742941776927
 20
989.7078690062524
 10
464.3979476651414
 20
989.8943370966347
 10
467.2625654640865
 20
990.1429734277884
 10
470.1107578976277
 20
990.5055443662005
 10
472.9414489122046
 20
990.9889294619256
 10
475.7535624542565
 20
991.600008265019
 10
478.5460224702232
 20
992.3456603255353
 10
479.9336599889192
 20
992.777138377657
 10
481.1110696809373
 20
993.1693631386042
 10
483.3907588524141
 20
994.0785038727461
 10
485.5851006807474
 20
995.1295294296891
 10
487.6994384014129
 20
996.3138346628817
 10
489.7391152498857
 20
997.6228144257728
 10
491.7094744616413
 20
999.0478635718113
 10
493.615859272155
 20
1000.580376954445
 10
495.4636129169022
 20
1002.211749427124
 10
498.1426574104476
 20
1004.815676893936
 10
501.5504965310466
 20
1008.568314620944
 10
504.8199892271356
 20
1012.561496070206
 10
507.9938813825175
 20
1016.726380069311
 10
512.6675672014832
 20
1023.145108331925
 10
517.3694134424487
 20
1029.562835641583
 10
520.5883622730303
 20
1033.726118115956
 10
523.9254399819189
 20
1037.716897278121
 10
527.423392452917
 20
1041.466331955665
 10
530.1855101913617
 20
1044.067306611252
 10
532.0952167645082
 20
1045.696476987424
 10
534.0691865878213
 20
1047.226588082961
 10
536.1127628967761
 20
1048.64903475131
 10
537.1655574669078
 20
1049.312170977533
 10
537.7984414974225
 20
1049.675051601811
 10
539.099860378309
 20
1050.164729965629
 10
540.4398543018322
 20
1050.395833333333
 10
541.8137500000001
 20
1050.395833333333
 10
543.2168742048212
 20
1050.19220159404
 10
544.6445536483038
 20
1049.812409743864
 10
546.8202821037008
 20
1048.985951077826
 10
551.2483975589422
 20
1046.675614429306
 10
555.6650356612564
 20
1044.114616234551
 10
558.5417947248774
 20
1042.656597095282
 10
559.9408752206
 20
1042.105583628562
 10
770.2715815132721
 20
965.7417925333982
  0
LWPOLYLINE
  5
42
100
AcDbEntity
  8
8
  6
BYLAYER
 62
  256
370
   -1
100
AcDbPolyline
 90
    2
 70
    0
 43
0
 10
177.0768020039803
 20
1007.292167536791
 10
202.4855488785302
 20
482.7071548055226
  0
LWPOLYLINE
  5
43
100
AcDbEntity
  8
8
  6
BYLAYER
 62
  256
370
   -1
100
AcDbPolyline
 90
    2
 70
    0
 43
0
 10
198.0746880923856
 20
1009.911094763416
 10
223.6382483523099
 20
482.1298290985215
  0
LWPOLYLINE
  5
44
100
AcDbEntity
  8
8
  6
BYLAYER
 62
  256
370
   -1
100
AcDbPolyline
 90
    2
 70
    0
 43
0
 10
276.2650615472011
 20
1018.203591311288
 10
302.2640344534905
 20
481.4328642705731
  0
LWPOLYLINE
  5
45
100
AcDbEntity
  8
8
  6
BYLAYER
 62
  256
370
   -1
100
AcDbPolyline
 90
    2
 70
    0
 43
0
 10
325.8697738203031
 20
1004.837775948851
 10
350.3448024643146
 20
499.530163723511
  0
LWPOLYLINE
  5
46
100
AcDbEntity
  8
8
  6
BYLAYER
 62
  256
370
   -1
100
AcDbPolyline
 90
    2
 70
    0
 43
0
 10
386.2259587147289
 20
1001.003268811045
 10
410.0478683891927
 20
509.1798486494374
  0
LWPOLYLINE
  5
47
100
AcDbEntity
  8
8
  6
BYLAYER
 62
  256
370
   -1
100
AcDbPolyline
 90
    2
 70
    0
 43
0
 10
479.9336599889192
 20
992.777138377657
 10
502.521900498682
 20
526.4238587808762
  0
LWPOLYLINE
  5
48
100
AcDbEntity
  8
8
  6
BYLAYER
 62
  256
370
   -1
100
AcDbPolyline
 90
    2
 70
    0
 43
0
 10
537.1655574669078
 20
1049.312170977533
 10
564.9497222232941
 20
475.6846522959496
  0
LWPOLYLINE
  5
49
100
AcDbEntity
  8
8
  6
BYLAYER
 62
  256
370
   -1
100
AcDbPolyline
 90
    2
 70
    0
 43
0
 10
559.9408752206
 20
1042.105583628562
 10
586.9219455403573
 20
485.0586270401603
  0
LWPOLYLINE
  5
4A
100
AcDbEntity
  8
8
  6
BYLAYER
 62
  256
370
   -1
100
AcDbPolyline
 90
    2
 70
    0
 43
0
 10
816.6630046306944
 20
838.8876307524764
 10
540.7688960299462
 20
872.2170597814668
  0
LWPOLYLINE
  5
4B
100
AcDbEntity
  8
8
  6
BYLAYER
 62
  256
370
   -1
100
AcDbPolyline
 90
    2
 70
    0
 43
0
 10
551.4208245479875
 20
652.2990101099107
 10
822.8023229444423
 20
712.1362253533943
  0
LINE
  5
4C
100
AcDbEntity
  8
7
  6
BYLAYER
 62
  256
370
   -1
100
AcDbLine
 10
136.9431191322603
 20
742.4404023941889
 11
764.0379564191458
 21
772.8143048127888
  0
ENDBLK
  5
3C
330
3A
100
AcDbEntity
  8
1
100
AcDbBlockEnd
  0
BLOCK
  5
3E
330
3D
100
AcDbEntity
  8
1
100
AcDbBlockBegin
  2
Bk Trace
 70
    0
 10
0
 20
0
  3
Bk Trace
  1

  0
LWPOLYLINE
  5
4D
100
AcDbEntity
  8
1
  6
BYLAYER
 62
  256
370
   -1
100
AcDbPolyline
 90
  201
 70
    1
 43
0
 10
189.4660088187348
 20
293.9655479907036
 10
218.8652735479533
 20
453.1445768650541
 10
423.571750273075
 20
484.7965987086451
 10
426.3279761270684
 20
485.2157534184218
 10
431.9473563222975
 20
485.9086420475878
 10
436.1943016681559
 20
486.1918667206373
 10
439.0182997367323
 20
486.2364449701247
 10
441.8233199789461
 20
486.1308396461028
 10
444.5974888197894
 20
485.8502699726664
 10
445.9672658990119
 20
485.6277905327276
 10
447.886888829626
 20
485.2766399251442
 10
451.7149755739912
 20
484.452181782067
 10
457.4374561467483
 20
482.9984107866497
 10
468.8334448205773
 20
479.5348227754986
 10
480.2157408494625
 20
475.8583348422131
 10
487.827231451058
 20
473.6173681607522
 10
493.5621381142491
 20
472.1913414742665
 10
497.4005085196631
 20
471.3898441385809
 10
501.2542064324458
 20
470.7410822569025
 10
505.1254580888458
 20
470.2682592220606
 10
507.0692328154797
 20
470.1138568297993
 10
512.8364534304578
 20
469.7252528675413
 10
524.4833775350372
 20
469.1379214427669
 10
536.2206887069773
 20
468.8308582548841
 10
547.9988398549582
 20
468.8623037896726
 10
556.8280154207938
 20
469.1568330063934
 10
562.7012705787031
 20
469.4810377712096
 10
568.5568654917555
 20
469.9226299899448
 10
574.388606773536
 20
470.4888897233215
 10
580.19030103763
 20
471.1870970320621
 10
585.955754897622
 20
472.0245319768888
 10
591.6787749670973
 20
473.0084746185246
 10
597.3531678596413
 20
474.1462050176915
 10
600.1677804622861
 20
474.7818784723506
 10
602.1368096898614
 20
475.2627368998383
 10
606.001737984298
 20
476.4486496198666
 10
609.7880322350202
 20
477.8757233473157
 10
613.5058281632964
 20
479.5129869370268
 10
617.1652614903954
 20
481.3294692438417
 10
620.7764679375861
 20
483.2941991226014
 10
626.1278850459104
 20
486.4426562944723
 10
636.697153595672
 20
493.1534420292907
 10
645.555961017046
 20
498.5966640950548
 10
649.1462383906394
 20
500.6324133236644
 10
652.779510375742
 20
502.5376698177913
 10
656.4659126936226
 20
504.2814624322772
 10
658.3350523866962
 20
505.0744679435684
 10
661.2065627354629
 20
506.2290931077319
 10
667.0697488822375
 20
508.2926431082059
 10
673.0463803579615
 20
510.1182663965555
 10
679.1022869291471
 20
511.7692003964462
 10
688.2608090151922
 20
514.0584653108519
 10
697.4039548805893
 20
516.3062409020191
 10
703.4352594987378
 20
517.8907919847283
 10
706.4141788708824
 20
518.7393900625419
 10
725.6001708453135
 20
524.3910274912562
 10
754.6264676683002
 20
533.0980425553885
 10
773.9414066830542
 20
538.7543314929148
 10
783.5428159644329
 20
541.45905863608
 10
786.0932162672399
 20
542.1949709586005
 10
791.2569528759976
 20
543.7650528860059
 10
795.1702979616963
 20
544.8203772787172
 10
797.7921024865861
 20
545.3953891062338
 10
800.4223767132927
 20
545.8138808766699
 10
803.0586994559728
 20
546.0325974175162
 10
804.3784730976107
 20
546.0424953192526
 10
806.0386221379501
 20
546.0151999557116
 10
809.3646727675953
 20
545.8505103966334
 10
814.3641340129971
 20
545.406313205394
 10
824.3908761578384
 20
544.0015975081432
 10
834.432806065326
 20
542.3571155368305
 10
841.1212191015389
 20
541.4159205070463
 10
846.1282448071873
 20
540.914443436815
 10
849.4605556797957
 20
540.7023498399501
 10
852.7869071585363
 20
540.6164767976089
 10
856.1063021540575
 20
540.6768506007155
 10
857.762727208637
 20
540.7754835469685
 10
875.7930747177592
 20
277.3417934678515
 10
893.8234222268813
 20
13.90810338873427
 10
892.1690053084999
 20
13.78013042401846
 10
888.8723390180002
 20
13.38767724021701
 10
885.5887070905949
 20
12.84939320288672
 10
882.3163687569272
 20
12.18525370282228
 10
877.4243611029232
 20
11.00625125068045
 10
870.926556765732
 20
9.162544163680396
 10
861.2023304120114
 20
6.165195494861551
 10
851.4604822939032
 20
3.407446508286908
 10
846.5681642372111
 20
2.286220428879549
 10
843.2955690185612
 20
1.669895857974561
 10
841.6546204379999
 20
1.416661521903251
 10
840.345805589079
 20
1.246649390382239
 10
837.7042676264234
 20
1.104130196371074
 10
835.0415026160902
 20
1.160347358747037
 10
832.3658026359669
 20
1.372778959232644
 10
828.3451641146881
 20
1.885073029882324
 10
823.0156592703493
 20
2.73695984018017
 10
820.3887751233888
 20
3.118520227855818
 10
810.5083863406794
 20
4.489843169407427
 10
790.6029029330761
 20
7.461745590094233
 10
760.6609655386768
 20
12.13276300100521
 10
740.8838604562068
 20
15.11762618472209
 10
737.8171000243841
 20
15.55243623200068
 10
731.6261461523706
 20
16.30045206419674
 10
722.262006466848
 20
17.28152258877417
 10
712.8769810741173
 20
18.30160054006285
 10
706.6526100705709
 20
19.11202825499663
 10
700.4829736665978
 20
20.10631736302924
 10
694.393307415181
 20
21.35177123312629
 10
691.3912585187395
 20
22.10438891573066
 10
689.4315030923232
 20
22.63533109882853
 10
685.5418879638517
 20
23.86059388042979
 10
681.6829084293811
 20
25.2530537824311
 10
677.8487430719857
 20
26.78064749584766
 10
668.330914143481
 20
30.9661065953885
 10
656.9458705817939
 20
36.17426039055548
 10
651.2153835065889
 20
38.56423225467455
 10
647.3701605564796
 20
40.01861733596296
 10
643.4973590311165
 20
41.31956644780401
 10
639.5911575135742
 20
42.43501628121292
 10
635.6457345869271
 20
43.33290352720493
 10
631.65526883425
 20
43.98116487679536
 10
629.6390850823851
 20
44.18926102055391
 10
626.7641099491265
 20
44.43551866423163
 10
620.987618305571
 20
44.78950941563107
 10
615.1839063669509
 20
44.98452113621387
 10
609.3581178636887
 20
45.02860983968037
 10
603.5153965262076
 20
44.9298315397314
 10
597.6608860849307
 20
44.6962422500673
 10
591.7997302702806
 20
44.33589798438854
 10
585.9370728126806
 20
43.85685475639571
 10
577.1501032456615
 20
42.94567175604548
 10
565.4775032378374
 20
41.37206369058215
 10
553.8914838058271
 20
39.46866802247222
 10
542.4331947930144
 20
37.29993286132001
 10
536.772702485876
 20
36.12917519974456
 10
534.8680913273445
 20
35.71137546131277
 10
531.0973621335086
 20
34.71550782140746
 10
527.3679944658739
 20
33.54773370724538
 10
523.6746214114734
 20
32.23073680926297
 10
518.1874894412174
 20
30.03663351017299
 10
510.9523080562085
 20
26.77950729652756
 10
500.1770735998862
 20
21.58647842851092
 10
489.3592668033345
 20
16.60249850504492
 10
483.8882251777762
 20
14.3826026642213
 10
480.2081682707113
 20
13.04426021445945
 10
478.3542904154923
 20
12.43483766575074
 10
477.0275995908535
 20
12.02780228181252
 10
474.3175282020935
 20
11.37187151794921
 10
471.553054409113
 20
10.8850700269741
 10
468.7493174154213
 20
10.5444658845225
 10
464.5033873302191
 20
10.24640767257854
 10
458.8420045806796
 20
10.16720038644546
 10
456.0543721632073
 20
10.20691353297396
 10
248.9443043291247
 20
13.67273259370021
 10
198.1312279018918
 20
167.3617408669015
 10
199.0571162311684
 20
167.685303029764
 10
200.8431785892643
 20
168.4805425397976
 10
202.5513412643118
 20
169.4455858970013
 10
204.1826681202003
 20
170.5716171302631
 10
205.7382230208192
 20
171.8498202684712
 10
207.2190698300581
 20
173.2713793405142
 10
208.6262724118062
 20
174.82747837528
 10
209.9608946299531
 20
176.509301401657
 10
211.2240003483882
 20
178.3080324485333
 10
212.416653431001
 20
180.2148555447974
 10
213.5399177416807
 20
182.2209547193372
 10
214.594857144317
 20
184.3175140010411
 10
216.0596924039879
 20
187.6041281652996
 10
217.7723881276726
 20
192.234215718351
 10
219.230933769193
 20
197.0674562200469
 10
220.4438402396646
 20
202.0333219014934
 10
221.419618450203
 20
207.0612849937964
 10
222.1667793119235
 20
212.0808177280617
 10
222.6938337359417
 20
217.0213923353953
 10
223.0092926333731
 20
221.812481046903
 10
223.1216669153329
 20
226.3835560936909
 10
223.0394674929368
 20
230.6640897068646
 10
222.9204869965921
 20
232.6568496694436
 10
222.76684656607
 20
234.6472373816941
 10
222.2650613722341
 20
238.8990530383049
 10
221.5309309886933
 20
243.4121902667274
 10
220.5656332039418
 20
248.1156193928288
 10
219.3703458064741
 20
252.938310742476
 10
217.9462465847845
 20
257.8092346415357
 10
216.2945133273674
 20
262.657361415875
 10
214.4163238227171
 20
267.4116613913605
 10
212.3128558593279
 20
272.0011048938592
 10
209.9852872256942
 20
276.3546622492381
 10
208.0863144633753
 20
279.4110453159774
 10
206.7555588205885
 20
281.3443190638271
 10
205.3694405162688
 20
283.1786670831968
 10
203.9281067739777
 20
284.9052106648202
 10
202.4317048172772
 20
286.5150710994303
 10
200.880381869729
 20
287.9993696777606
 10
199.274285154895
 20
289.3492276905446
 10
197.6135618963368
 20
290.5557664285155
 10
195.8983593176164
 20
291.6101071824068
 10
194.1288246422955
 20
292.5033712429516
 10
192.3051050939359
 20
293.2266799008835
 10
190.4273478960994
 20
293.7711544469357
 10
189.4660088187348
 20
293.9655479907036
  0
LWPOLYLINE
  5
4E
100
AcDbEntity
  8
8
  6
BYLAYER
 62
  256
370
   -1
100
AcDbPolyline
 90
  200
 70
    1
 43
0
 10
218.8652735479533
 20
453.1445768650541
 10
423.571750273075
 20
484.7965987086451
 10
426.3279761270684
 20
485.2157534184218
 10
431.9473563222975
 20
485.9086420475878
 10
436.1943016681559
 20
486.1918667206373
 10
439.0182997367323
 20
486.2364449701247
 10
441.8233199789461
 20
486.1308396461028
 10
444.5974888197894
 20
485.8502699726664
 10
445.9672658990119
 20
485.6277905327276
 10
447.886888829626
 20
485.2766399251442
 10
451.7149755739912
 20
484.452181782067
 10
457.4374561467483
 20
482.9984107866497
 10
468.8334448205773
 20
479.5348227754986
 10
480.2157408494625
 20
475.8583348422131
 10
487.827231451058
 20
473.6173681607522
 10
493.5621381142491
 20
472.1913414742665
 10
497.4005085196631
 20
471.3898441385809
 10
501.2542064324458
 20
470.7410822569025
 10
505.1254580888458
 20
470.2682592220606
 10
507.0692328154797
 20
470.1138568297993
 10
512.8364534304578
 20
469.7252528675413
 10
524.4833775350372
 20
469.1379214427669
 10
536.2206887069773
 20
468.8308582548841
 10
547.9988398549582
 20
468.8623037896726
 10
556.8280154207938
 20
469.1568330063934
 10
562.7012705787031
 20
469.4810377712096
 10
568.5568654917555
 20
469.9226299899448
 10
574.388606773536
 20
470.4888897233215
 10
580.19030103763
 20
471.1870970320621
 10
585.955754897622
 20
472.0245319768888
 10
591.6787749670973
 20
473.0084746185246
 10
597.3531678596413
 20
474.1462050176915
 10
600.1677804622861
 20
474.7818784723506
 10
602.1368096898614
 20
475.2627368998383
 10
606.001737984298
 20
476.4486496198666
 10
609.7880322350202
 20
477.8757233473157
 10
613.5058281632964
 20
479.5129869370268
 10
617.1652614903954
 20
481.3294692438417
 10
620.7764679375861
 20
483.2941991226014
 10
626.1278850459104
 20
486.4426562944723
 10
636.697153595672
 20
493.1534420292907
 10
645.555961017046
 20
498.5966640950548
 10
649.1462383906394
 20
500.6324133236644
 10
652.779510375742
 20
502.5376698177913
 10
656.4659126936226
 20
504.2814624322772
 10
658.3350523866962
 20
505.0744679435684
 10
661.2065627354629
 20
506.2290931077319
 10
667.0697488822375
 20
508.2926431082059
 10
673.0463803579615
 20
510.1182663965555
 10
679.1022869291471
 20
511.7692003964462
 10
688.2608090151922
 20
514.0584653108519
 10
697.4039548805893
 20
516.3062409020191
 10
703.4352594987378
 20
517.8907919847283
 10
706.4141788708824
 20
518.7393900625419
 10
725.6001708453135
 20
524.3910274912562
 10
754.6264676683002
 20
533.0980425553885
 10
773.9414066830542
 20
538.7543314929148
 10
783.5428159644329
 20
541.45905863608
 10
786.0932162672399
 20
542.1949709586005
 10
791.2569528759976
 20
543.7650528860059
 10
795.1702979616963
 20
544.8203772787172
 10
797.7921024865861
 20
545.3953891062338
 10
800.4223767132927
 20
545.8138808766699
 10
803.0586994559728
 20
546.0325974175162
 10
804.3784730976107
 20
546.0424953192526
 10
806.0386221379501
 20
546.0151999557116
 10
809.3646727675953
 20
545.8505103966334
 10
814.3641340129971
 20
545.406313205394
 10
824.3908761578384
 20
544.0015975081432
 10
834.432806065326
 20
542.3571155368305
 10
841.1212191015389
 20
541.4159205070463
 10
846.1282448071873
 20
540.914443436815
 10
849.4605556797957
 20
540.7023498399501
 10
852.7869071585363
 20
540.6164767976089
 10
856.1063021540575
 20
540.6768506007155
 10
857.762727208637
 20
540.7754835469685
 10
875.7930747177592
 20
277.3417934678515
 10
893.8234222268813
 20
13.90810338873427
 10
892.1690053084999
 20
13.78013042401846
 10
888.8723390180002
 20
13.38767724021701
 10
885.5887070905949
 20
12.84939320288672
 10
882.3163687569272
 20
12.18525370282228
 10
877.4243611029232
 20
11.00625125068045
 10
870.926556765732
 20
9.162544163680396
 10
861.2023304120114
 20
6.165195494861551
 10
851.4604822939032
 20
3.407446508286908
 10
846.5681642372111
 20
2.286220428879549
 10
843.2955690185612
 20
1.669895857974561
 10
841.6546204379999
 20
1.416661521903251
 10
840.345805589079
 20
1.246649390382239
 10
837.7042676264234
 20
1.104130196371074
 10
835.0415026160902
 20
1.160347358747037
 10
832.3658026359669
 20
1.372778959232644
 10
828.3451641146881
 20
1.885073029882324
 10
823.0156592703493
 20
2.73695984018017
 10
820.3887751233888
 20
3.118520227855818
 10
810.5083863406794
 20
4.489843169407427
 10
790.6029029330761
 20
7.461745590094233
 10
760.6609655386768
 20
12.13276300100521
 10
740.8838604562068
 20
15.11762618472209
 10
737.8171000243841
 20
15.55243623200068
 10
731.6261461523706
 20
16.30045206419674
 10
722.262006466848
 20
17.28152258877417
 10
712.8769810741173
 20
18.30160054006285
 10
706.6526100705709
 20
19.11202825499663
 10
700.4829736665978
 20
20.10631736302924
 10
694.393307415181
 20
21.35177123312629
 10
691.3912585187395
 20
22.10438891573066
 10
689.4315030923232
 20
22.63533109882853
 10
685.5418879638517
 20
23.86059388042979
 10
681.6829084293811
 20
25.2530537824311
 10
677.8487430719857
 20
26.78064749584766
 10
668.330914143481
 20
30.9661065953885
 10
656.9458705817939
 20
36.17426039055548
 10
651.2153835065889
 20
38.56423225467455
 10
647.3701605564796
 20
40.01861733596296
 10
643.4973590311165
 20
41.31956644780401
 10
639.5911575135742
 20
42.43501628121292
 10
635.6457345869271
 20
43.33290352720493
 10
631.65526883425
 20
43.98116487679536
 10
629.6390850823851
 20
44.18926102055391
 10
626.7641099491265
 20
44.43551866423163
 10
620.987618305571
 20
44.78950941563107
 10
615.1839063669509
 20
44.98452113621387
 10
609.3581178636887
 20
45.02860983968037
 10
603.5153965262076
 20
44.9298315397314
 10
597.6608860849307
 20
44.6962422500673
 10
591.7997302702806
 20
44.33589798438854
 10
585.9370728126806
 20
43.85685475639571
 10
577.1501032456615
 20
42.94567175604548
 10
565.4775032378374
 20
41.37206369058215
 10
553.8914838058271
 20
39.46866802247222
 10
542.4331947930144
 20
37.29993286132001
 10
536.772702485876
 20
36.12917519974456
 10
534.8680913273445
 20
35.71137546131277
 10
531.0973621335086
 20
34.71550782140746
 10
527.3679944658739
 20
33.54773370724538
 10
523.6746214114734
 20
32.23073680926297
 10
518.1874894412174
 20
30.03663351017299
 10
510.9523080562085
 20
26.77950729652756
 10
500.1770735998862
 20
21.58647842851092
 10
489.3592668033345
 20
16.60249850504492
 10
483.8882251777762
 20
14.3826026642213
 10
480.2081682707113
 20
13.04426021445945
 10
478.3542904154923
 20
12.43483766575074
 10
477.0275995908535
 20
12.02780228181252
 10
474.3175282020935
 20
11.37187151794921
 10
471.553054409113
 20
10.8850700269741
 10
468.7493174154213
 20
10.5444658845225
 10
464.5033873302191
 20
10.24640767257854
 10
458.8420045806796
 20
10.16720038644546
 10
456.0543721632073
 20
10.20691353297396
 10
248.9443043291247
 20
13.67273259370009
 10
198.1312279018918
 20
167.3617408669015
 10
199.0571162311684
 20
167.685303029764
 10
200.8431785892643
 20
168.4805425397976
 10
202.5513412643118
 20
169.4455858970013
 10
204.1826681202003
 20
170.5716171302631
 10
205.7382230208192
 20
171.8498202684712
 10
207.2190698300581
 20
173.2713793405142
 10
208.6262724118062
 20
174.82747837528
 10
209.9608946299531
 20
176.509301401657
 10
211.2240003483882
 20
178.3080324485333
 10
212.416653431001
 20
180.2148555447974
 10
213.5399177416807
 20
182.2209547193372
 10
214.594857144317
 20
184.3175140010411
 10
216.0596924039879
 20
187.6041281652996
 10
217.7723881276726
 20
192.234215718351
 10
219.230933769193
 20
197.0674562200469
 10
220.4438402396646
 20
202.0333219014934
 10
221.419618450203
 20
207.0612849937964
 10
222.1667793119235
 20
212.0808177280617
 10
222.6938337359417
 20
217.0213923353953
 10
223.0092926333731
 20
221.812481046903
 10
223.1216669153329
 20
226.3835560936909
 10
223.0394674929368
 20
230.6640897068646
 10
222.9204869965921
 20
232.6568496694436
 10
222.76684656607
 20
234.6472373816941
 10
222.2650613722341
 20
238.8990530383049
 10
221.5309309886933
 20
243.4121902667274
 10
220.5656332039418
 20
248.1156193928288
 10
219.3703458064741
 20
252.938310742476
 10
217.9462465847845
 20
257.8092346415357
 10
216.2945133273674
 20
262.657361415875
 10
214.4163238227171
 20
267.4116613913605
 10
212.3128558593279
 20
272.0011048938592
 10
209.9852872256942
 20
276.3546622492381
 10
208.0863144633753
 20
279.4110453159774
 10
206.7555588205885
 20
281.3443190638271
 10
205.3694405162688
 20
283.1786670831968
 10
203.9281067739777
 20
284.9052106648202
 10
202.4317048172772
 20
286.5150710994303
 10
200.880381869729
 20
287.9993696777606
 10
199.274285154895
 20
289.3492276905446
 10
197.6135618963368
 20
290.5557664285155
 10
195.8983593176164
 20
291.6101071824068
 10
194.1288246422955
 20
292.5033712429516
 10
192.3051050939359
 20
293.2266799008835
 10
190.4273478960994
 20
293.7711544469357
 10
189.4660088187348
 20
293.9655479907036
  0
LWPOLYLINE
  5
4F
100
AcDbEntity
  8
8
  6
BYLAYER
 62
  256
370
   -1
100
AcDbPolyline
 90
    2
 70
    0
 43
0
 10
841.6546204379999
 20
1.416661521903251
 10
804.3784730976107
 20
546.0424953192526
  0
LWPOLYLINE
  5
50
100
AcDbEntity
  8
8
  6
BYLAYER
 62
  256
370
   -1
100
AcDbPolyline
 90
    2
 70
    0
 43
0
 10
820.3887751233888
 20
3.118520227855818
 10
783.5428159644329
 20
541.45905863608
  0
LWPOLYLINE
  5
51
100
AcDbEntity
  8
8
  6
BYLAYER
 62
  256
370
   -1
100
AcDbPolyline
 90
    2
 70
    0
 43
0
 10
740.8838604562068
 20
15.11762618472209
 10
706.4141788708824
 20
518.7393900625419
  0
LWPOLYLINE
  5
52
100
AcDbEntity
  8
8
  6
BYLAYER
 62
  256
370
   -1
100
AcDbPolyline
 90
    2
 70
    0
 43
0
 10
691.3912585187395
 20
22.10438891573066
 10
658.3350523866962
 20
505.0744679435684
  0
LWPOLYLINE
  5
53
100
AcDbEntity
  8
8
  6
BYLAYER
 62
  256
370
   -1
100
AcDbPolyline
 90
    2
 70
    0
 43
0
 10
629.6390850823851
 20
44.18926102055391
 10
600.1677804622861
 20
474.7818784723506
  0
LWPOLYLINE
  5
54
100
AcDbEntity
  8
8
  6
BYLAYER
 62
  256
370
   -1
100
AcDbPolyline
 90
    2
 70
    0
 43
0
 10
536.772702485876
 20
36.12917519974456
 10
507.0692328154797
 20
470.1138568297993
  0
LWPOLYLINE
  5
55
100
AcDbEntity
  8
8
  6
BYLAYER
 62
  256
370
   -1
100
AcDbPolyline
 90
    2
 70
    0
 43
0
 10
478.3542904154923
 20
12.43483766575074
 10
445.9672658990119
 20
485.6277905327276
  0
LWPOLYLINE
  5
56
100
AcDbEntity
  8
8
  6
BYLAYER
 62
  256
370
   -1
100
AcDbPolyline
 90
    2
 70
    0
 43
0
 10
456.0543721632073
 20
10.20691353297396
 10
423.571750273075
 20
484.7965987086451
  0
LINE
  5
57
100
AcDbEntity
  8
7
  6
BYLAYER
 62
  256
370
   -1
100
AcDbLine
 10
222.9204869965922
 20
232.6568496694436
 11
875.7930747177592
 21
277.3417934678515
  0
ENDBLK
  5
3F
330
3D
100
AcDbEntity
  8
0
100
AcDbBlockEnd
  0
ENDSEC
  0
SECTION
  2
ENTITIES
  0
INSERT
  5
58
100
AcDbEntity
  8
1
  6
BYLAYER
 62
  256
370
   -1
100
AcDbBlockReference
  2
Fr Trace
 10
0
 20
0
 30
0
 41
1
 42
1
 43
1
 50
0
 70
    1
 71
    1
 44
0
 45
0
  0
INSERT
  5
59
100
AcDbEntity
  8
1
  6
BYLAYER
 62
  256
370
   -1
100
AcDbBlockReference
  2
Bk Trace
 10
0
 20
0
 30
0
 41
1
 42
1
 43
1
 50
0
 70
    1
 71
    1
 44
0
 45
0
  0
ENDSEC
  0
SECTION
  2
OBJECTS
  0
DICTIONARY
  5
C
330
0
100
AcDbDictionary
281
    1
  3
ACAD_GROUP
350
D
  0
DICTIONARY
  5
D
330
C
100
AcDbDictionary
281
    1
  0
ENDSEC
  0
EOF
