999
dxfrw 0.6.3
  0
SECTION
  2
HEADER
  9
$ACADVER
  1
AC1009
  9
$DWGCODEPAGE
  3
ANSI_1252
  9
$INSBASE
 10
0
 20
0
 30
0
  9
$EXTMIN
 10
1e+20
 20
1e+20
 30
1e+20
  9
$EXTMAX
 10
-1e+20
 20
-1e+20
 30
-1e+20
  9
$LIMMIN
 10
0
 20
0
  9
$LIMMAX
 10
420
 20
297
  9
$ORTHOMODE
 70
    0
  9
$REGENMODE
 70
    1
  9
$FILLMODE
 70
    1
  9
$QTEXTMODE
 70
    0
  9
$MIRRTEXT
 70
    0
  9
$LTSCALE
 40
1
  9
$ATTMODE
 70
    0
  9
$TEXTSIZE
 40
2.5
  9
$TRACEWID
 40
15.68
  9
$TEXTSTYLE
  7
STANDARD
  9
$CLAYER
  8
1
  9
$CELTYPE
  6
BYLAYER
  9
$CECOLOR
 62
  256
  9
$DIMSCALE
 40
1
  9
$DIMASZ
 40
2.5
  9
$DIMEXO
 40
0.625
  9
$DIMDLI
 40
3.75
  9
$DIMRND
 40
0
  9
$DIMDLE
 40
0
  9
$DIMEXE
 40
1.25
  9
$DIMTP
 40
0
  9
$DIMTM
 40
0
  9
$DIMTXT
 40
2.5
  9
$DIMCEN
 40
2.5
  9
$DIMTSZ
 40
0
  9
$DIMTOL
 70
    0
  9
$DIMLIM
 70
    0
  9
$DIMTIH
 70
    0
  9
$DIMTOH
 70
    0
  9
$DIMSE1
 70
    0
  9
$DIMSE2
 70
    0
  9
$DIMTAD
 70
    1
  9
$DIMZIN
 70
    8
  9
$DIMBLK
  1

  9
$DIMASO
 70
    1
  9
$DIMSHO
 70
    1
  9
$DIMPOST
  1

  9
$DIMAPOST
  1

  9
$DIMALT
 70
    0
  9
$DIMALTD
 70
    3
  9
$DIMALTF
 40
0.03937
  9
$DIMLFAC
 40
1
  9
$DIMTOFL
 70
    1
  9
$DIMTVP
 40
0
  9
$DIMTIX
 70
    0
  9
$DIMSOXD
 70
    0
  9
$DIMSAH
 70
    0
  9
$DIMBLK1
  1

  9
$DIMBLK2
  1

  9
$DIMSTYLE
  2
STANDARD
  9
$DIMCLRD
 70
    0
  9
$DIMCLRE
 70
    0
  9
$DIMCLRT
 70
    0
  9
$DIMTFAC
 40
1
  9
$DIMGAP
 40
0.625
  9
$LUNITS
 70
    2
  9
$LUPREC
 70
    4
  9
$SKETCHINC
 40
1
  9
$FILLETRAD
 40
0
  9
$AUNITS
 70
    0
  9
$AUPREC
 70
    2
  9
$MENU
  1
.
  9
$ELEVATION
 40
0
  9
$PELEVATION
 40
0
  9
$THICKNESS
 40
0
  9
$LIMCHECK
 70
    0
  9
$BLIPMODE
 70
    0
  9
$CHAMFERA
 40
0
  9
$CHAMFERB
 40
0
  9
$SKPOLY
 70
    0
  9
$USRTIMER
 70
    1
  9
$ANGBASE
 50
0
  9
$ANGDIR
 70
    0
  9
$PDMODE
 70
   34
  9
$PDSIZE
 40
0
  9
$PLINEWID
 40
0
  9
$COORDS
 70
    2
  9
$SPLFRAME
 70
    0
  9
$SPLINETYPE
 70
    2
  9
$SPLINESEGS
 70
    8
  9
$ATTDIA
 70
    1
  9
$ATTREQ
 70
    1
  9
$HANDLING
 70
    1
  9
$HANDSEED
  5
20000
  9
$SURFTAB1
 70
    6
  9
$SURFTAB2
 70
    6
  9
$SURFTYPE
 70
    6
  9
$SURFU
 70
    6
  9
$SURFV
 70
    6
  9
$TDCREATE
 40
20260325.10315084
  9
$UCSNAME
  2

  9
$UCSORG
 10
0
 20
0
 30
0
  9
$UCSXDIR
 10
1
 20
0
 30
0
  9
$UCSYDIR
 10
0
 20
1
 30
0
  9
$PUCSNAME
  2

  9
$PUCSORG
 10
0
 20
0
 30
0
  9
$PUCSXDIR
 10
1
 20
0
 30
0
  9
$PUCSYDIR
 10
0
 20
1
 30
0
  9
$USERI1
 70
    0
  9
$USERI2
 70
    0
  9
$USERI3
 70
    0
  9
$USERI4
 70
    0
  9
$USERI5
 70
    0
  9
$USERR1
 40
0
  9
$USERR2
 40
0
  9
$USERR3
 40
0
  9
$USERR4
 40
0
  9
$USERR5
 40
0
  9
$WORLDVIEW
 70
    1
  9
$SHADEDGE
 70
    3
  9
$SHADEDIF
 70
   70
  9
$TILEMODE
 70
    1
  9
$MAXACTVP
 70
   64
  9
$PLIMCHECK
 70
    0
  9
$PEXTMIN
 10
0
 20
0
 30
0
  9
$PEXTMAX
 10
0
 20
0
 30
0
  9
$PLIMMIN
 10
0
 20
0
  9
$PLIMMAX
 10
297
 20
210
  9
$UNITMODE
 70
    0
  9
$VISRETAIN
 70
    1
  9
$PLINEGEN
 70
    0
  9
$PSLTSCALE
 70
    1
  0
ENDSEC
  0
SECTION
  2
TABLES
  0
TABLE
  2
VPORT
 70
    1
  0
VPORT
  2
*ACTIVE
 70
    0
 10
0
 20
0
 11
1
 21
1
 12
0.651828
 22
-0.16
 13
0
 23
0
 14
10
 24
10
 15
10
 25
10
 16
0
 26
0
 36
1
 17
0
 27
0
 37
0
 40
5.13732
 41
2.4426877
 42
50
 43
0
 44
0
 50
0
 51
0
 71
    0
 72
  100
 73
    1
 74
    3
 75
    0
 76
    0
 77
    0
 78
    0
  0
ENDTAB
  0
TABLE
  2
LTYPE
 70
    4
  0
LTYPE
  2
BYBLOCK
 70
    0
  3

 72
   65
 73
    0
 40
0
  0
LTYPE
  2
BYLAYER
 70
    0
  3

 72
   65
 73
    0
 40
0
  0
LTYPE
  2
CONTINUOUS
 70
    0
  3
Solid line
 72
   65
 73
    0
 40
0
  0
ENDTAB
  0
TABLE
  2
LAYER
 70
    1
  0
LAYER
  2
1
 70
    0
 62
  250
  6
CONTINUOUS
  0
LAYER
  2
8
 70
    0
 62
  250
  6
CONTINUOUS
  0
LAYER
  2
7
 70
    0
 62
  250
  6
CONTINUOUS
  0
LAYER
  2
11
 70
    0
 62
  250
  6
CONTINUOUS
  0
LAYER
  2
4
 70
    0
 62
  250
  6
CONTINUOUS
  0
ENDTAB
  0
TABLE
  2
STYLE
 70
    3
  0
STYLE
  2
STANDARD
 70
    0
 40
0
 41
1
 50
0
 71
    0
 42
2.5
  3
TXT
  4

  0
ENDTAB
  0
TABLE
  2
VIEW
 70
    0
  0
ENDTAB
  0
TABLE
  2
UCS
 70
    0
  0
ENDTAB
  0
TABLE
  2
APPID
 70
    1
  0
APPID
  2
ACAD
 70
    0
  0
APPID
  2
SEAMLY2D
 70
    0
  0
ENDTAB
  0
TABLE
  2
DIMSTYLE
 70
    1
  0
DIMSTYLE
  2
STANDARD
 70
    0
  3

  4

  5

  6

  7

 40
1
 41
2.5
 42
0.625
 43
3.75
 44
1.25
 45
0
 46
0
 47
0
 48
0
140
2.5
141
2.5
142
0
143
0.03937007874015748
144
1
145
0
146
1
147
0.625
 71
    0
 72
    0
 73
    0
 74
    0
 75
    0
 76
    0
 77
    1
 78
    8
170
    0
171
    3
172
    1
173
    0
174
    0
175
    0
176
    0
177
    0
178
    0
  0
ENDTAB
  0
ENDSEC
  0
SECTION
  2
BLOCKS
  0
BLOCK
  8
0
  2
$MODEL_SPACE
 70
    0
 10
0
 20
0
 30
0
  3
$MODEL_SPACE
  1

  0
ENDBLK
  8
0
  0
BLOCK
  8
0
  2
$PAPER_SPACE
 70
    0
 10
0
 20
0
 30
0
  3
$PAPER_SPACE
  1

  0
ENDBLK
  8
0
  0
BLOCK
  8
1
  2
SWEATSHIRT_BACK
 70
    0
 10
0
 20
0
  3
SWEATSHIRT_BACK
  1

  0
POLYLINE
  5
31
  8
1
  6
BYLAYER
 62
  256
 66
    1
 10
0
 20
0
 30
0
 70
    1
  0
VERTEX
  5
32
  8
1
  6
BYLAYER
 62
  256
 10
903.0229166666667
 20
1124.456916666667
 30
0
  0
VERTEX
  5
33
  8
1
  6
BYLAYER
 62
  256
 10
715.4529166666664
 20
1124.456916666667
 30
0
  0
VERTEX
  5
34
  8
1
  6
BYLAYER
 62
  256
 10
545.716719832311
 20
1124.456916666667
 30
0
  0
VERTEX
  5
35
  8
1
  6
BYLAYER
 62
  256
 10
545.5529033548617
 20
1132.348359327482
 30
0
  0
VERTEX
  5
36
  8
1
  6
BYLAYER
 62
  256
 10
545.3168385389067
 20
1134.187954028469
 30
0
  0
VERTEX
  5
37
  8
1
  6
BYLAYER
 62
  256
 10
544.8901734536518
 20
1135.782285174318
 30
0
  0
VERTEX
  5
38
  8
1
  6
BYLAYER
 62
  256
 10
544.2710877268574
 20
1137.258898029553
 30
0
  0
VERTEX
  5
39
  8
1
  6
BYLAYER
 62
  256
 10
543.448672992535
 20
1138.664989459089
 30
0
  0
VERTEX
  5
3A
  8
1
  6
BYLAYER
 62
  256
 10
542.4019762610735
 20
1140.030664115974
 30
0
  0
VERTEX
  5
3B
  8
1
  6
BYLAYER
 62
  256
 10
541.1104768800585
 20
1141.367419789972
 30
0
  0
VERTEX
  5
3C
  8
1
  6
BYLAYER
 62
  256
 10
539.5613728830554
 20
1142.672765198798
 30
0
  0
VERTEX
  5
3D
  8
1
  6
BYLAYER
 62
  256
 10
537.7519504522098
 20
1143.936802363192
 30
0
  0
VERTEX
  5
3E
  8
1
  6
BYLAYER
 62
  256
 10
535.6884475931
 20
1145.147602682762
 30
0
  0
VERTEX
  5
3F
  8
1
  6
BYLAYER
 62
  256
 10
533.3835520034268
 20
1146.294383255341
 30
0
  0
VERTEX
  5
40
  8
1
  6
BYLAYER
 62
  256
 10
530.8539505834798
 20
1147.368856313369
 30
0
  0
VERTEX
  5
41
  8
1
  6
BYLAYER
 62
  256
 10
528.1184799464021
 20
1148.365478374099
 30
0
  0
VERTEX
  5
42
  8
1
  6
BYLAYER
 62
  256
 10
525.1969184941992
 20
1149.281182826658
 30
0
  0
VERTEX
  5
43
  8
1
  6
BYLAYER
 62
  256
 10
522.109274689777
 20
1150.114942400756
 30
0
  0
VERTEX
  5
44
  8
1
  6
BYLAYER
 62
  256
 10
518.8919005757525
 20
1150.863491559091
 30
0
  0
VERTEX
  5
45
  8
1
  6
BYLAYER
 62
  256
 10
513.8111734641708
 20
1151.85514889356
 30
0
  0
VERTEX
  5
46
  8
1
  6
BYLAYER
 62
  256
 10
506.6830167187026
 20
1152.902190160402
 30
0
  0
VERTEX
  5
47
  8
1
  6
BYLAYER
 62
  256
 10
499.3248567834199
 20
1153.677373075081
 30
0
  0
VERTEX
  5
48
  8
1
  6
BYLAYER
 62
  256
 10
491.861843250061
 20
1154.219646746815
 30
0
  0
VERTEX
  5
49
  8
1
  6
BYLAYER
 62
  256
 10
484.4316547350334
 20
1154.568668565591
 30
0
  0
VERTEX
  5
4A
  8
1
  6
BYLAYER
 62
  256
 10
477.1754649816979
 20
1154.765736212544
 30
0
  0
VERTEX
  5
4B
  8
1
  6
BYLAYER
 62
  256
 10
466.7973210461438
 20
1154.876123907316
 30
0
  0
VERTEX
  5
4C
  8
1
  6
BYLAYER
 62
  256
 10
460.6535313657442
 20
1154.876123907316
 30
0
  0
VERTEX
  5
4D
  8
1
  6
BYLAYER
 62
  256
 10
458.0930441584851
 20
1154.853726751668
 30
0
  0
VERTEX
  5
4E
  8
1
  6
BYLAYER
 62
  256
 10
452.7175182845378
 20
1154.594567353688
 30
0
  0
VERTEX
  5
4F
  8
1
  6
BYLAYER
 62
  256
 10
447.1332082618651
 20
1154.100060292451
 30
0
  0
VERTEX
  5
50
  8
1
  6
BYLAYER
 62
  256
 10
441.3713361970028
 20
1153.392473127679
 30
0
  0
VERTEX
  5
51
  8
1
  6
BYLAYER
 62
  256
 10
435.4911297278357
 20
1152.497226826793
 30
0
  0
VERTEX
  5
52
  8
1
  6
BYLAYER
 62
  256
 10
429.549889975063
 20
1151.440730196973
 30
0
  0
VERTEX
  5
53
  8
1
  6
BYLAYER
 62
  256
 10
423.6034903607629
 20
1150.249979477152
 30
0
  0
VERTEX
  5
54
  8
1
  6
BYLAYER
 62
  256
 10
417.7157591961778
 20
1148.954307348872
 30
0
  0
VERTEX
  5
55
  8
1
  6
BYLAYER
 62
  256
 10
409.0533911471952
 20
1146.871128602414
 30
0
  0
VERTEX
  5
56
  8
1
  6
BYLAYER
 62
  256
 10
398.193938452442
 20
1143.964008704303
 30
0
  0
VERTEX
  5
57
  8
1
  6
BYLAYER
 62
  256
 10
388.4980051106346
 20
1141.130459788705
 30
0
  0
VERTEX
  5
58
  8
1
  6
BYLAYER
 62
  256
 10
380.3660674702435
 20
1138.588446559568
 30
0
  0
VERTEX
  5
59
  8
1
  6
BYLAYER
 62
  256
 10
370.4709426967893
 20
1135.351372170846
 30
0
  0
VERTEX
  5
5A
  8
1
  6
BYLAYER
 62
  256
 10
316.797903063795
 20
1298.212701149997
 30
0
  0
VERTEX
  5
5B
  8
1
  6
BYLAYER
 62
  256
 10
324.9309107026272
 20
1301.015224698122
 30
0
  0
VERTEX
  5
5C
  8
1
  6
BYLAYER
 62
  256
 10
328.2343342152871
 20
1302.412587251622
 30
0
  0
VERTEX
  5
5D
  8
1
  6
BYLAYER
 62
  256
 10
331.6404907551196
 20
1304.196151541038
 30
0
  0
VERTEX
  5
5E
  8
1
  6
BYLAYER
 62
  256
 10
334.2324068494555
 20
1305.816034159208
 30
0
  0
VERTEX
  5
5F
  8
1
  6
BYLAYER
 62
  256
 10
335.9512973353047
 20
1307.01151463025
 30
0
  0
VERTEX
  5
60
  8
1
  6
BYLAYER
 62
  256
 10
337.6942292705257
 20
1308.336776347962
 30
0
  0
VERTEX
  5
61
  8
1
  6
BYLAYER
 62
  256
 10
339.4353470988262
 20
1309.781970716868
 30
0
  0
VERTEX
  5
62
  8
1
  6
BYLAYER
 62
  256
 10
341.1690499627384
 20
1311.351440135864
 30
0
  0
VERTEX
  5
63
  8
1
  6
BYLAYER
 62
  256
 10
342.8897639969676
 20
1313.049678975408
 30
0
  0
VERTEX
  5
64
  8
1
  6
BYLAYER
 62
  256
 10
344.5919077428846
 20
1314.881332438564
 30
0
  0
VERTEX
  5
65
  8
1
  6
BYLAYER
 62
  256
 10
346.2698586393702
 20
1316.851188839086
 30
0
  0
VERTEX
  5
66
  8
1
  6
BYLAYER
 62
  256
 10
347.9179218973695
 20
1318.964165462041
 30
0
  0
VERTEX
  5
67
  8
1
  6
BYLAYER
 62
  256
 10
349.530303115085
 20
1321.225288614486
 30
0
  0
VERTEX
  5
68
  8
1
  6
BYLAYER
 62
  256
 10
351.1010858704906
 20
1323.639668899847
 30
0
  0
VERTEX
  5
69
  8
1
  6
BYLAYER
 62
  256
 10
352.624215254831
 20
1326.212473101013
 30
0
  0
VERTEX
  5
6A
  8
1
  6
BYLAYER
 62
  256
 10
354.0934879228899
 20
1328.948894285177
 30
0
  0
VERTEX
  5
6B
  8
1
  6
BYLAYER
 62
  256
 10
355.5025487863483
 20
1331.854121818771
 30
0
  0
VERTEX
  5
6C
  8
1
  6
BYLAYER
 62
  256
 10
356.8448940252071
 20
1334.933312897966
 30
0
  0
VERTEX
  5
6D
  8
1
  6
BYLAYER
 62
  256
 10
358.1138796946689
 20
1338.191566977236
 30
0
  0
VERTEX
  5
6E
  8
1
  6
BYLAYER
 62
  256
 10
359.3027349038317
 20
1341.633904152183
 30
0
  0
VERTEX
  5
6F
  8
1
  6
BYLAYER
 62
  256
 10
360.4045783621794
 20
1345.265248170643
 30
0
  0
VERTEX
  5
70
  8
1
  6
BYLAYER
 62
  256
 10
361.4124370344089
 20
1349.090414356573
 30
0
  0
VERTEX
  5
71
  8
1
  6
BYLAYER
 62
  256
 10
362.3192657005309
 20
1353.114102376626
 30
0
  0
VERTEX
  5
72
  8
1
  6
BYLAYER
 62
  256
 10
363.1179663612937
 20
1357.340893489772
 30
0
  0
VERTEX
  5
73
  8
1
  6
BYLAYER
 62
  256
 10
363.8014066279188
 20
1361.77525171202
 30
0
  0
VERTEX
  5
74
  8
1
  6
BYLAYER
 62
  256
 10
364.3624364591045
 20
1366.421528204304
 30
0
  0
VERTEX
  5
75
  8
1
  6
BYLAYER
 62
  256
 10
364.7939028307964
 20
1371.283968144507
 30
0
  0
VERTEX
  5
76
  8
1
  6
BYLAYER
 62
  256
 10
365.0886621257268
 20
1376.366719360362
 30
0
  0
VERTEX
  5
77
  8
1
  6
BYLAYER
 62
  256
 10
365.2400560268142
 20
1381.69022211903
 30
0
  0
VERTEX
  5
78
  8
1
  6
BYLAYER
 62
  256
 10
365.2528399712081
 20
1384.421166666667
 30
0
  0
VERTEX
  5
79
  8
1
  6
BYLAYER
 62
  256
 10
365.2400560268142
 20
1387.152111214303
 30
0
  0
VERTEX
  5
7A
  8
1
  6
BYLAYER
 62
  256
 10
365.0886621257268
 20
1392.475613972971
 30
0
  0
VERTEX
  5
7B
  8
1
  6
BYLAYER
 62
  256
 10
364.7939028307964
 20
1397.558365188826
 30
0
  0
VERTEX
  5
7C
  8
1
  6
BYLAYER
 62
  256
 10
364.3624364591045
 20
1402.420805129029
 30
0
  0
VERTEX
  5
7D
  8
1
  6
BYLAYER
 62
  256
 10
363.8014066279188
 20
1407.067081621313
 30
0
  0
VERTEX
  5
7E
  8
1
  6
BYLAYER
 62
  256
 10
363.1179663612936
 20
1411.501439843561
 30
0
  0
VERTEX
  5
7F
  8
1
  6
BYLAYER
 62
  256
 10
362.3192657005309
 20
1415.728230956707
 30
0
  0
VERTEX
  5
80
  8
1
  6
BYLAYER
 62
  256
 10
361.4124370344089
 20
1419.75191897676
 30
0
  0
VERTEX
  5
81
  8
1
  6
BYLAYER
 62
  256
 10
360.4045783621794
 20
1423.57708516269
 30
0
  0
VERTEX
  5
82
  8
1
  6
BYLAYER
 62
  256
 10
359.3027349038317
 20
1427.20842918115
 30
0
  0
VERTEX
  5
83
  8
1
  6
BYLAYER
 62
  256
 10
358.1138796946689
 20
1430.650766356097
 30
0
  0
VERTEX
  5
84
  8
1
  6
BYLAYER
 62
  256
 10
356.8448940252072
 20
1433.909020435366
 30
0
  0
VERTEX
  5
85
  8
1
  6
BYLAYER
 62
  256
 10
355.5025487863483
 20
1436.988211514562
 30
0
  0
VERTEX
  5
86
  8
1
  6
BYLAYER
 62
  256
 10
354.0934879228898
 20
1439.893439048156
 30
0
  0
VERTEX
  5
87
  8
1
  6
BYLAYER
 62
  256
 10
352.6242152548311
 20
1442.62986023232
 30
0
  0
VERTEX
  5
88
  8
1
  6
BYLAYER
 62
  256
 10
351.1010858704905
 20
1445.202664433486
 30
0
  0
VERTEX
  5
89
  8
1
  6
BYLAYER
 62
  256
 10
349.530303115085
 20
1447.617044718847
 30
0
  0
VERTEX
  5
8A
  8
1
  6
BYLAYER
 62
  256
 10
347.9179218973695
 20
1449.878167871292
 30
0
  0
VERTEX
  5
8B
  8
1
  6
BYLAYER
 62
  256
 10
346.2698586393703
 20
1451.991144494247
 30
0
  0
VERTEX
  5
8C
  8
1
  6
BYLAYER
 62
  256
 10
344.5919077428846
 20
1453.961000894769
 30
0
  0
VERTEX
  5
8D
  8
1
  6
BYLAYER
 62
  256
 10
342.8897639969677
 20
1455.792654357925
 30
0
  0
VERTEX
  5
8E
  8
1
  6
BYLAYER
 62
  256
 10
341.1690499627383
 20
1457.490893197469
 30
0
  0
VERTEX
  5
8F
  8
1
  6
BYLAYER
 62
  256
 10
339.4353470988262
 20
1459.060362616465
 30
0
  0
VERTEX
  5
90
  8
1
  6
BYLAYER
 62
  256
 10
337.6942292705257
 20
1460.505556985371
 30
0
  0
VERTEX
  5
91
  8
1
  6
BYLAYER
 62
  256
 10
335.9512973353047
 20
1461.830818703083
 30
0
  0
VERTEX
  5
92
  8
1
  6
BYLAYER
 62
  256
 10
334.2324068494555
 20
1463.026299174125
 30
0
  0
VERTEX
  5
93
  8
1
  6
BYLAYER
 62
  256
 10
331.6404907551196
 20
1464.646181792295
 30
0
  0
VERTEX
  5
94
  8
1
  6
BYLAYER
 62
  256
 10
328.2343342152871
 20
1466.429746081711
 30
0
  0
VERTEX
  5
95
  8
1
  6
BYLAYER
 62
  256
 10
324.9309107026273
 20
1467.827108635212
 30
0
  0
VERTEX
  5
96
  8
1
  6
BYLAYER
 62
  256
 10
316.7979030637951
 20
1470.629632183336
 30
0
  0
VERTEX
  5
97
  8
1
  6
BYLAYER
 62
  256
 10
370.4709426967893
 20
1633.490961162487
 30
0
  0
VERTEX
  5
98
  8
1
  6
BYLAYER
 62
  256
 10
380.3660674702435
 20
1630.253886773765
 30
0
  0
VERTEX
  5
99
  8
1
  6
BYLAYER
 62
  256
 10
388.4980051106346
 20
1627.711873544628
 30
0
  0
VERTEX
  5
9A
  8
1
  6
BYLAYER
 62
  256
 10
398.193938452442
 20
1624.87832462903
 30
0
  0
VERTEX
  5
9B
  8
1
  6
BYLAYER
 62
  256
 10
409.0533911471952
 20
1621.971204730919
 30
0
  0
VERTEX
  5
9C
  8
1
  6
BYLAYER
 62
  256
 10
417.7157591961778
 20
1619.888025984461
 30
0
  0
VERTEX
  5
9D
  8
1
  6
BYLAYER
 62
  256
 10
423.6034903607629
 20
1618.592353856181
 30
0
  0
VERTEX
  5
9E
  8
1
  6
BYLAYER
 62
  256
 10
429.549889975063
 20
1617.40160313636
 30
0
  0
VERTEX
  5
9F
  8
1
  6
BYLAYER
 62
  256
 10
435.4911297278357
 20
1616.34510650654
 30
0
  0
VERTEX
  5
A0
  8
1
  6
BYLAYER
 62
  256
 10
441.3713361970028
 20
1615.449860205654
 30
0
  0
VERTEX
  5
A1
  8
1
  6
BYLAYER
 62
  256
 10
447.1332082618651
 20
1614.742273040883
 30
0
  0
VERTEX
  5
A2
  8
1
  6
BYLAYER
 62
  256
 10
452.7175182845378
 20
1614.247765979645
 30
0
  0
VERTEX
  5
A3
  8
1
  6
BYLAYER
 62
  256
 10
458.0930441584851
 20
1613.988606581665
 30
0
  0
VERTEX
  5
A4
  8
1
  6
BYLAYER
 62
  256
 10
460.6535313657442
 20
1613.966209426017
 30
0
  0
VERTEX
  5
A5
  8
1
  6
BYLAYER
 62
  256
 10
466.7973210461437
 20
1613.966209426017
 30
0
  0
VERTEX
  5
A6
  8
1
  6
BYLAYER
 62
  256
 10
477.1754649816979
 20
1614.076597120789
 30
0
  0
VERTEX
  5
A7
  8
1
  6
BYLAYER
 62
  256
 10
484.4316547350334
 20
1614.273664767743
 30
0
  0
VERTEX
  5
A8
  8
1
  6
BYLAYER
 62
  256
 10
491.8618432500611
 20
1614.622686586518
 30
0
  0
VERTEX
  5
A9
  8
1
  6
BYLAYER
 62
  256
 10
499.3248567834197
 20
1615.164960258252
 30
0
  0
VERTEX
  5
AA
  8
1
  6
BYLAYER
 62
  256
 10
506.6830167187028
 20
1615.940143172931
 30
0
  0
VERTEX
  5
AB
  8
1
  6
BYLAYER
 62
  256
 10
513.8111734641708
 20
1616.987184439773
 30
0
  0
VERTEX
  5
AC
  8
1
  6
BYLAYER
 62
  256
 10
518.8919005757525
 20
1617.978841774242
 30
0
  0
VERTEX
  5
AD
  8
1
  6
BYLAYER
 62
  256
 10
522.109274689777
 20
1618.727390932577
 30
0
  0
VERTEX
  5
AE
  8
1
  6
BYLAYER
 62
  256
 10
525.1969184941992
 20
1619.561150506675
 30
0
  0
VERTEX
  5
AF
  8
1
  6
BYLAYER
 62
  256
 10
528.1184799464021
 20
1620.476854959234
 30
0
  0
VERTEX
  5
B0
  8
1
  6
BYLAYER
 62
  256
 10
530.8539505834798
 20
1621.473477019964
 30
0
  0
VERTEX
  5
B1
  8
1
  6
BYLAYER
 62
  256
 10
533.3835520034268
 20
1622.547950077992
 30
0
  0
VERTEX
  5
B2
  8
1
  6
BYLAYER
 62
  256
 10
535.6884475931
 20
1623.694730650571
 30
0
  0
VERTEX
  5
B3
  8
1
  6
BYLAYER
 62
  256
 10
537.7519504522097
 20
1624.90553097014
 30
0
  0
VERTEX
  5
B4
  8
1
  6
BYLAYER
 62
  256
 10
539.5613728830554
 20
1626.169568134535
 30
0
  0
VERTEX
  5
B5
  8
1
  6
BYLAYER
 62
  256
 10
541.1104768800586
 20
1627.474913543361
 30
0
  0
VERTEX
  5
B6
  8
1
  6
BYLAYER
 62
  256
 10
542.4019762610735
 20
1628.811669217359
 30
0
  0
VERTEX
  5
B7
  8
1
  6
BYLAYER
 62
  256
 10
543.4486729925349
 20
1630.177343874244
 30
0
  0
VERTEX
  5
B8
  8
1
  6
BYLAYER
 62
  256
 10
544.2710877268574
 20
1631.58343530378
 30
0
  0
VERTEX
  5
B9
  8
1
  6
BYLAYER
 62
  256
 10
544.8901734536518
 20
1633.060048159015
 30
0
  0
VERTEX
  5
BA
  8
1
  6
BYLAYER
 62
  256
 10
545.3168385389067
 20
1634.654379304865
 30
0
  0
VERTEX
  5
BB
  8
1
  6
BYLAYER
 62
  256
 10
545.5529033548617
 20
1636.493974005851
 30
0
  0
VERTEX
  5
BC
  8
1
  6
BYLAYER
 62
  256
 10
545.716719832311
 20
1644.385416666667
 30
0
  0
VERTEX
  5
BD
  8
1
  6
BYLAYER
 62
  256
 10
715.4529166666664
 20
1644.385416666667
 30
0
  0
VERTEX
  5
BE
  8
1
  6
BYLAYER
 62
  256
 10
903.0229166666667
 20
1644.385416666667
 30
0
  0
VERTEX
  5
BF
  8
1
  6
BYLAYER
 62
  256
 10
903.0229166666667
 20
1124.456916666667
 30
0
  0
SEQEND
  5
C0
  8
1
  6
BYLAYER
 62
  256
  0
POLYLINE
  5
C1
  8
8
  6
BYLAYER
 62
  256
 66
    1
 10
0
 20
0
 30
0
 70
    1
  0
VERTEX
  5
C2
  8
8
  6
BYLAYER
 62
  256
 10
896.0229166666667
 20
1131.456916666667
 30
0
  0
VERTEX
  5
C3
  8
8
  6
BYLAYER
 62
  256
 10
715.4529166666664
 20
1131.456916666667
 30
0
  0
VERTEX
  5
C4
  8
8
  6
BYLAYER
 62
  256
 10
552.5729166666664
 20
1131.456916666667
 30
0
  0
VERTEX
  5
C5
  8
8
  6
BYLAYER
 62
  256
 10
552.5436250917879
 20
1132.867963877537
 30
0
  0
VERTEX
  5
C6
  8
8
  6
BYLAYER
 62
  256
 10
552.2001844301881
 20
1135.544311975522
 30
0
  0
VERTEX
  5
C7
  8
8
  6
BYLAYER
 62
  256
 10
551.5294195808754
 20
1138.050777415883
 30
0
  0
VERTEX
  5
C8
  8
8
  6
BYLAYER
 62
  256
 10
550.5474470177365
 20
1140.392930121821
 30
0
  0
VERTEX
  5
C9
  8
8
  6
BYLAYER
 62
  256
 10
549.2703832146586
 20
1142.576340016535
 30
0
  0
VERTEX
  5
CA
  8
8
  6
BYLAYER
 62
  256
 10
547.7143446455283
 20
1144.606577023228
 30
0
  0
VERTEX
  5
CB
  8
8
  6
BYLAYER
 62
  256
 10
545.8954477842325
 20
1146.489211065099
 30
0
  0
VERTEX
  5
CC
  8
8
  6
BYLAYER
 62
  256
 10
543.8298091046581
 20
1148.22981206535
 30
0
  0
VERTEX
  5
CD
  8
8
  6
BYLAYER
 62
  256
 10
541.533545080692
 20
1149.833949947181
 30
0
  0
VERTEX
  5
CE
  8
8
  6
BYLAYER
 62
  256
 10
539.0227721862209
 20
1151.307194633793
 30
0
  0
VERTEX
  5
CF
  8
8
  6
BYLAYER
 62
  256
 10
536.3136068951319
 20
1152.655116048388
 30
0
  0
VERTEX
  5
D0
  8
8
  6
BYLAYER
 62
  256
 10
533.4221656813118
 20
1153.883284114164
 30
0
  0
VERTEX
  5
D1
  8
8
  6
BYLAYER
 62
  256
 10
530.3645650186473
 20
1154.997268754325
 30
0
  0
VERTEX
  5
D2
  8
8
  6
BYLAYER
 62
  256
 10
527.1569213810254
 20
1156.00263989207
 30
0
  0
VERTEX
  5
D3
  8
8
  6
BYLAYER
 62
  256
 10
523.8153512423331
 20
1156.9049674506
 30
0
  0
VERTEX
  5
D4
  8
8
  6
BYLAYER
 62
  256
 10
520.355971076457
 20
1157.709821353116
 30
0
  0
VERTEX
  5
D5
  8
8
  6
BYLAYER
 62
  256
 10
514.9909516686093
 20
1158.756966914867
 30
0
  0
VERTEX
  5
D6
  8
8
  6
BYLAYER
 62
  256
 10
507.5587288603974
 20
1159.848671862224
 30
0
  0
VERTEX
  5
D7
  8
8
  6
BYLAYER
 62
  256
 10
499.9453624734143
 20
1160.650740803139
 30
0
  0
VERTEX
  5
D8
  8
8
  6
BYLAYER
 62
  256
 10
492.2797842987549
 20
1161.207733123219
 30
0
  0
VERTEX
  5
D9
  8
8
  6
BYLAYER
 62
  256
 10
484.6909261275143
 20
1161.564208208071
 30
0
  0
VERTEX
  5
DA
  8
8
  6
BYLAYER
 62
  256
 10
477.3077197507873
 20
1161.7647254433
 30
0
  0
VERTEX
  5
DB
  8
8
  6
BYLAYER
 62
  256
 10
466.8345479343985
 20
1161.876123907316
 30
0
  0
VERTEX
  5
DC
  8
8
  6
BYLAYER
 62
  256
 10
460.6229166666664
 20
1161.876123907316
 30
0
  0
VERTEX
  5
DD
  8
8
  6
BYLAYER
 62
  256
 10
457.8938099396091
 20
1161.852251798925
 30
0
  0
VERTEX
  5
DE
  8
8
  6
BYLAYER
 62
  256
 10
452.2400560244838
 20
1161.579678752989
 30
0
  0
VERTEX
  5
DF
  8
8
  6
BYLAYER
 62
  256
 10
446.3976572070943
 20
1161.06231717062
 30
0
  0
VERTEX
  5
E0
  8
8
  6
BYLAYER
 62
  256
 10
440.4177286551607
 20
1160.327951561324
 30
0
  0
VERTEX
  5
E1
  8
8
  6
BYLAYER
 62
  256
 10
434.3513855364038
 20
1159.404366434603
 30
0
  0
VERTEX
  5
E2
  8
8
  6
BYLAYER
 62
  256
 10
428.2497430185439
 20
1158.319346299962
 30
0
  0
VERTEX
  5
E3
  8
8
  6
BYLAYER
 62
  256
 10
422.1639162693016
 20
1157.100675666906
 30
0
  0
VERTEX
  5
E4
  8
8
  6
BYLAYER
 62
  256
 10
416.1450204563972
 20
1155.776139044937
 30
0
  0
VERTEX
  5
E5
  8
8
  6
BYLAYER
 62
  256
 10
407.3296468151081
 20
1153.656164586708
 30
0
  0
VERTEX
  5
E6
  8
8
  6
BYLAYER
 62
  256
 10
396.3068228199732
 20
1150.705309523348
 30
0
  0
VERTEX
  5
E7
  8
8
  6
BYLAYER
 62
  256
 10
386.4717955891591
 20
1147.831111675413
 30
0
  0
VERTEX
  5
E8
  8
8
  6
BYLAYER
 62
  256
 10
378.2334864644295
 20
1145.255847118935
 30
0
  0
VERTEX
  5
E9
  8
8
  6
BYLAYER
 62
  256
 10
374.9329766160947
 20
1144.176123907316
 30
0
  0
VERTEX
  5
EA
  8
8
  6
BYLAYER
 62
  256
 10
325.607828427137
 20
1293.844546658783
 30
0
  0
VERTEX
  5
EB
  8
8
  6
BYLAYER
 62
  256
 10
327.4376315329696
 20
1294.475071861789
 30
0
  0
VERTEX
  5
EC
  8
8
  6
BYLAYER
 62
  256
 10
331.2265131298114
 20
1296.077785302188
 30
0
  0
VERTEX
  5
ED
  8
8
  6
BYLAYER
 62
  256
 10
335.1240757823077
 20
1298.118664363811
 30
0
  0
VERTEX
  5
EE
  8
8
  6
BYLAYER
 62
  256
 10
338.0880966384945
 20
1299.971103135006
 30
0
  0
VERTEX
  5
EF
  8
8
  6
BYLAYER
 62
  256
 10
340.0700039579866
 20
1301.349510610859
 30
0
  0
VERTEX
  5
F0
  8
8
  6
BYLAYER
 62
  256
 10
342.0500506622942
 20
1302.855065729492
 30
0
  0
VERTEX
  5
F1
  8
8
  6
BYLAYER
 62
  256
 10
344.0217854449509
 20
1304.491680988123
 30
0
  0
VERTEX
  5
F2
  8
8
  6
BYLAYER
 62
  256
 10
345.9787569994906
 20
1306.263268883967
 30
0
  0
VERTEX
  5
F3
  8
8
  6
BYLAYER
 62
  256
 10
347.9145140194469
 20
1308.173741914241
 30
0
  0
VERTEX
  5
F4
  8
8
  6
BYLAYER
 62
  256
 10
349.8226051983538
 20
1310.227012576161
 30
0
  0
VERTEX
  5
F5
  8
8
  6
BYLAYER
 62
  256
 10
351.6965792297447
 20
1312.426993366945
 30
0
  0
VERTEX
  5
F6
  8
8
  6
BYLAYER
 62
  256
 10
353.5299848071535
 20
1314.777596783809
 30
0
  0
VERTEX
  5
F7
  8
8
  6
BYLAYER
 62
  256
 10
355.3163706241139
 20
1317.282735323969
 30
0
  0
VERTEX
  5
F8
  8
8
  6
BYLAYER
 62
  256
 10
357.0492853741598
 20
1319.946321484642
 30
0
  0
VERTEX
  5
F9
  8
8
  6
BYLAYER
 62
  256
 10
358.7222777508247
 20
1322.772267763044
 30
0
  0
VERTEX
  5
FA
  8
8
  6
BYLAYER
 62
  256
 10
360.3288964476424
 20
1325.764486656392
 30
0
  0
VERTEX
  5
FB
  8
8
  6
BYLAYER
 62
  256
 10
361.8626901581468
 20
1328.926890661903
 30
0
  0
VERTEX
  5
FC
  8
8
  6
BYLAYER
 62
  256
 10
363.3172075758714
 20
1332.263392276793
 30
0
  0
VERTEX
  5
FD
  8
8
  6
BYLAYER
 62
  256
 10
364.6859973943502
 20
1335.777903998279
 30
0
  0
VERTEX
  5
FE
  8
8
  6
BYLAYER
 62
  256
 10
365.9626083071166
 20
1339.474338323577
 30
0
  0
VERTEX
  5
FF
  8
8
  6
BYLAYER
 62
  256
 10
367.1405890077046
 20
1343.356607749904
 30
0
  0
VERTEX
  5
100
  8
8
  6
BYLAYER
 62
  256
 10
368.2134881896479
 20
1347.428624774477
 30
0
  0
VERTEX
  5
101
  8
8
  6
BYLAYER
 62
  256
 10
369.1748545464802
 20
1351.694301894512
 30
0
  0
VERTEX
  5
102
  8
8
  6
BYLAYER
 62
  256
 10
370.0182367717353
 20
1356.157551607225
 30
0
  0
VERTEX
  5
103
  8
8
  6
BYLAYER
 62
  256
 10
370.7371835589468
 20
1360.822286409833
 30
0
  0
VERTEX
  5
104
  8
8
  6
BYLAYER
 62
  256
 10
371.3252436016486
 20
1365.692418799553
 30
0
  0
VERTEX
  5
105
  8
8
  6
BYLAYER
 62
  256
 10
371.7759655933743
 20
1370.771861273601
 30
0
  0
VERTEX
  5
106
  8
8
  6
BYLAYER
 62
  256
 10
372.0828982276577
 20
1376.064526329194
 30
0
  0
VERTEX
  5
107
  8
8
  6
BYLAYER
 62
  256
 10
372.2395901980325
 20
1381.574326463549
 30
0
  0
VERTEX
  5
108
  8
8
  6
BYLAYER
 62
  256
 10
372.2529166666665
 20
1384.421166666667
 30
0
  0
VERTEX
  5
109
  8
8
  6
BYLAYER
 62
  256
 10
372.2395901980325
 20
1387.268006869784
 30
0
  0
VERTEX
  5
10A
  8
8
  6
BYLAYER
 62
  256
 10
372.0828982276577
 20
1392.777807004139
 30
0
  0
VERTEX
  5
10B
  8
8
  6
BYLAYER
 62
  256
 10
371.7759655933743
 20
1398.070472059732
 30
0
  0
VERTEX
  5
10C
  8
8
  6
BYLAYER
 62
  256
 10
371.3252436016486
 20
1403.14991453378
 30
0
  0
VERTEX
  5
10D
  8
8
  6
BYLAYER
 62
  256
 10
370.7371835589468
 20
1408.0200469235
 30
0
  0
VERTEX
  5
10E
  8
8
  6
BYLAYER
 62
  256
 10
370.0182367717353
 20
1412.684781726108
 30
0
  0
VERTEX
  5
10F
  8
8
  6
BYLAYER
 62
  256
 10
369.1748545464802
 20
1417.148031438821
 30
0
  0
VERTEX
  5
110
  8
8
  6
BYLAYER
 62
  256
 10
368.2134881896479
 20
1421.413708558856
 30
0
  0
VERTEX
  5
111
  8
8
  6
BYLAYER
 62
  256
 10
367.1405890077046
 20
1425.485725583429
 30
0
  0
VERTEX
  5
112
  8
8
  6
BYLAYER
 62
  256
 10
365.9626083071166
 20
1429.367995009756
 30
0
  0
VERTEX
  5
113
  8
8
  6
BYLAYER
 62
  256
 10
364.6859973943502
 20
1433.064429335054
 30
0
  0
VERTEX
  5
114
  8
8
  6
BYLAYER
 62
  256
 10
363.3172075758714
 20
1436.57894105654
 30
0
  0
VERTEX
  5
115
  8
8
  6
BYLAYER
 62
  256
 10
361.8626901581468
 20
1439.91544267143
 30
0
  0
VERTEX
  5
116
  8
8
  6
BYLAYER
 62
  256
 10
360.3288964476424
 20
1443.077846676941
 30
0
  0
VERTEX
  5
117
  8
8
  6
BYLAYER
 62
  256
 10
358.7222777508247
 20
1446.070065570289
 30
0
  0
VERTEX
  5
118
  8
8
  6
BYLAYER
 62
  256
 10
357.0492853741598
 20
1448.896011848692
 30
0
  0
VERTEX
  5
119
  8
8
  6
BYLAYER
 62
  256
 10
355.3163706241139
 20
1451.559598009364
 30
0
  0
VERTEX
  5
11A
  8
8
  6
BYLAYER
 62
  256
 10
353.5299848071535
 20
1454.064736549524
 30
0
  0
VERTEX
  5
11B
  8
8
  6
BYLAYER
 62
  256
 10
351.6965792297447
 20
1456.415339966388
 30
0
  0
VERTEX
  5
11C
  8
8
  6
BYLAYER
 62
  256
 10
349.8226051983538
 20
1458.615320757172
 30
0
  0
VERTEX
  5
11D
  8
8
  6
BYLAYER
 62
  256
 10
347.9145140194469
 20
1460.668591419092
 30
0
  0
VERTEX
  5
11E
  8
8
  6
BYLAYER
 62
  256
 10
345.9787569994906
 20
1462.579064449366
 30
0
  0
VERTEX
  5
11F
  8
8
  6
BYLAYER
 62
  256
 10
344.0217854449509
 20
1464.35065234521
 30
0
  0
VERTEX
  5
120
  8
8
  6
BYLAYER
 62
  256
 10
342.0500506622942
 20
1465.987267603841
 30
0
  0
VERTEX
  5
121
  8
8
  6
BYLAYER
 62
  256
 10
340.0700039579866
 20
1467.492822722474
 30
0
  0
VERTEX
  5
122
  8
8
  6
BYLAYER
 62
  256
 10
338.0880966384945
 20
1468.871230198327
 30
0
  0
VERTEX
  5
123
  8
8
  6
BYLAYER
 62
  256
 10
335.1240757823077
 20
1470.723668969522
 30
0
  0
VERTEX
  5
124
  8
8
  6
BYLAYER
 62
  256
 10
331.2265131298114
 20
1472.764548031145
 30
0
  0
VERTEX
  5
125
  8
8
  6
BYLAYER
 62
  256
 10
327.4376315329696
 20
1474.367261471544
 30
0
  0
VERTEX
  5
126
  8
8
  6
BYLAYER
 62
  256
 10
325.607828427137
 20
1474.997786674551
 30
0
  0
VERTEX
  5
127
  8
8
  6
BYLAYER
 62
  256
 10
374.9329766160947
 20
1624.666209426017
 30
0
  0
VERTEX
  5
128
  8
8
  6
BYLAYER
 62
  256
 10
378.2334864644295
 20
1623.586486214398
 30
0
  0
VERTEX
  5
129
  8
8
  6
BYLAYER
 62
  256
 10
386.4717955891591
 20
1621.01122165792
 30
0
  0
VERTEX
  5
12A
  8
8
  6
BYLAYER
 62
  256
 10
396.3068228199732
 20
1618.137023809985
 30
0
  0
VERTEX
  5
12B
  8
8
  6
BYLAYER
 62
  256
 10
407.3296468151081
 20
1615.186168746625
 30
0
  0
VERTEX
  5
12C
  8
8
  6
BYLAYER
 62
  256
 10
416.1450204563972
 20
1613.066194288396
 30
0
  0
VERTEX
  5
12D
  8
8
  6
BYLAYER
 62
  256
 10
422.1639162693016
 20
1611.741657666427
 30
0
  0
VERTEX
  5
12E
  8
8
  6
BYLAYER
 62
  256
 10
428.2497430185439
 20
1610.522987033371
 30
0
  0
VERTEX
  5
12F
  8
8
  6
BYLAYER
 62
  256
 10
434.3513855364038
 20
1609.43796689873
 30
0
  0
VERTEX
  5
130
  8
8
  6
BYLAYER
 62
  256
 10
440.4177286551607
 20
1608.514381772009
 30
0
  0
VERTEX
  5
131
  8
8
  6
BYLAYER
 62
  256
 10
446.3976572070943
 20
1607.780016162713
 30
0
  0
VERTEX
  5
132
  8
8
  6
BYLAYER
 62
  256
 10
452.2400560244838
 20
1607.262654580344
 30
0
  0
VERTEX
  5
133
  8
8
  6
BYLAYER
 62
  256
 10
457.8938099396091
 20
1606.990081534408
 30
0
  0
VERTEX
  5
134
  8
8
  6
BYLAYER
 62
  256
 10
460.6229166666664
 20
1606.966209426017
 30
0
  0
VERTEX
  5
135
  8
8
  6
BYLAYER
 62
  256
 10
466.8345479343985
 20
1606.966209426017
 30
0
  0
VERTEX
  5
136
  8
8
  6
BYLAYER
 62
  256
 10
477.3077197507873
 20
1607.077607890033
 30
0
  0
VERTEX
  5
137
  8
8
  6
BYLAYER
 62
  256
 10
484.6909261275143
 20
1607.278125125262
 30
0
  0
VERTEX
  5
138
  8
8
  6
BYLAYER
 62
  256
 10
492.2797842987549
 20
1607.634600210114
 30
0
  0
VERTEX
  5
139
  8
8
  6
BYLAYER
 62
  256
 10
499.9453624734143
 20
1608.191592530194
 30
0
  0
VERTEX
  5
13A
  8
8
  6
BYLAYER
 62
  256
 10
507.5587288603974
 20
1608.993661471109
 30
0
  0
VERTEX
  5
13B
  8
8
  6
BYLAYER
 62
  256
 10
514.9909516686093
 20
1610.085366418466
 30
0
  0
VERTEX
  5
13C
  8
8
  6
BYLAYER
 62
  256
 10
520.355971076457
 20
1611.132511980217
 30
0
  0
VERTEX
  5
13D
  8
8
  6
BYLAYER
 62
  256
 10
523.8153512423331
 20
1611.937365882733
 30
0
  0
VERTEX
  5
13E
  8
8
  6
BYLAYER
 62
  256
 10
527.1569213810254
 20
1612.839693441263
 30
0
  0
VERTEX
  5
13F
  8
8
  6
BYLAYER
 62
  256
 10
530.3645650186473
 20
1613.845064579009
 30
0
  0
VERTEX
  5
140
  8
8
  6
BYLAYER
 62
  256
 10
533.4221656813118
 20
1614.959049219169
 30
0
  0
VERTEX
  5
141
  8
8
  6
BYLAYER
 62
  256
 10
536.3136068951319
 20
1616.187217284946
 30
0
  0
VERTEX
  5
142
  8
8
  6
BYLAYER
 62
  256
 10
539.0227721862209
 20
1617.53513869954
 30
0
  0
VERTEX
  5
143
  8
8
  6
BYLAYER
 62
  256
 10
541.533545080692
 20
1619.008383386152
 30
0
  0
VERTEX
  5
144
  8
8
  6
BYLAYER
 62
  256
 10
543.8298091046581
 20
1620.612521267983
 30
0
  0
VERTEX
  5
145
  8
8
  6
BYLAYER
 62
  256
 10
545.8954477842325
 20
1622.353122268234
 30
0
  0
VERTEX
  5
146
  8
8
  6
BYLAYER
 62
  256
 10
547.7143446455283
 20
1624.235756310105
 30
0
  0
VERTEX
  5
147
  8
8
  6
BYLAYER
 62
  256
 10
549.2703832146586
 20
1626.265993316798
 30
0
  0
VERTEX
  5
148
  8
8
  6
BYLAYER
 62
  256
 10
550.5474470177365
 20
1628.449403211513
 30
0
  0
VERTEX
  5
149
  8
8
  6
BYLAYER
 62
  256
 10
551.5294195808754
 20
1630.79155591745
 30
0
  0
VERTEX
  5
14A
  8
8
  6
BYLAYER
 62
  256
 10
552.2001844301881
 20
1633.298021357811
 30
0
  0
VERTEX
  5
14B
  8
8
  6
BYLAYER
 62
  256
 10
552.5436250917879
 20
1635.974369455796
 30
0
  0
VERTEX
  5
14C
  8
8
  6
BYLAYER
 62
  256
 10
552.5729166666664
 20
1637.385416666667
 30
0
  0
VERTEX
  5
14D
  8
8
  6
BYLAYER
 62
  256
 10
715.4529166666664
 20
1637.385416666667
 30
0
  0
VERTEX
  5
14E
  8
8
  6
BYLAYER
 62
  256
 10
896.0229166666667
 20
1637.385416666667
 30
0
  0
SEQEND
  5
14F
  8
8
  6
BYLAYER
 62
  256
  0
POLYLINE
  5
150
  8
8
  6
BYLAYER
 62
  256
 66
    1
 10
0
 20
0
 30
0
 70
    0
  0
VERTEX
  5
151
  8
8
  6
BYLAYER
 62
  256
 10
896.0229166666667
 20
1114.000053411102
 30
0
  0
VERTEX
  5
152
  8
8
  6
BYLAYER
 62
  256
 10
896.0229166666667
 20
1114.000053411102
 30
0
  0
VERTEX
  5
153
  8
8
  6
BYLAYER
 62
  256
 10
893.8331623452226
 20
1114.567030826215
 30
0
  0
VERTEX
  5
154
  8
8
  6
BYLAYER
 62
  256
 10
888.304976662779
 20
1116.133033811405
 30
0
  0
VERTEX
  5
155
  8
8
  6
BYLAYER
 62
  256
 10
882.7944820465091
 20
1117.823179766708
 30
0
  0
VERTEX
  5
156
  8
8
  6
BYLAYER
 62
  256
 10
877.3044852218184
 20
1119.630836128257
 30
0
  0
VERTEX
  5
157
  8
8
  6
BYLAYER
 62
  256
 10
871.8377929141114
 20
1121.549370332189
 30
0
  0
VERTEX
  5
158
  8
8
  6
BYLAYER
 62
  256
 10
863.683799967408
 20
1124.608771805009
 30
0
  0
VERTEX
  5
159
  8
8
  6
BYLAYER
 62
  256
 10
852.9239231587625
 20
1129.031516500791
 30
0
  0
VERTEX
  5
15A
  8
8
  6
BYLAYER
 62
  256
 10
842.3077854753478
 20
1133.778386416536
 30
0
  0
VERTEX
  5
15B
  8
8
  6
BYLAYER
 62
  256
 10
831.857840720407
 20
1138.796321041327
 30
0
  0
VERTEX
  5
15C
  8
8
  6
BYLAYER
 62
  256
 10
821.5965426971819
 20
1144.032259864247
 30
0
  0
VERTEX
  5
15D
  8
8
  6
BYLAYER
 62
  256
 10
816.5529166666666
 20
1146.721166666666
 30
0
  0
VERTEX
  5
15E
  8
8
  6
BYLAYER
 62
  256
 10
815.1414024243408
 20
1147.49931245199
 30
0
  0
VERTEX
  5
15F
  8
8
  6
BYLAYER
 62
  256
 10
812.4017525150039
 20
1149.193452797394
 30
0
  0
VERTEX
  5
160
  8
8
  6
BYLAYER
 62
  256
 10
809.7510871301721
 20
1151.034739379759
 30
0
  0
VERTEX
  5
161
  8
8
  6
BYLAYER
 62
  256
 10
807.1771065299863
 20
1153.002869651586
 30
0
  0
VERTEX
  5
162
  8
8
  6
BYLAYER
 62
  256
 10
803.4272719906031
 20
1156.138974239323
 30
0
  0
VERTEX
  5
163
  8
8
  6
BYLAYER
 62
  256
 10
798.591822619802
 20
1160.592666349761
 30
0
  0
VERTEX
  5
164
  8
8
  6
BYLAYER
 62
  256
 10
793.8417170701251
 20
1165.188287363067
 30
0
  0
VERTEX
  5
165
  8
8
  6
BYLAYER
 62
  256
 10
789.0785574227014
 20
1169.763416899253
 30
0
  0
VERTEX
  5
166
  8
8
  6
BYLAYER
 62
  256
 10
785.4326393606736
 20
1173.074087786503
 30
0
  0
VERTEX
  5
167
  8
8
  6
BYLAYER
 62
  256
 10
782.94902091471
 20
1175.194014840514
 30
0
  0
VERTEX
  5
168
  8
8
  6
BYLAYER
 62
  256
 10
780.4067901149447
 20
1177.217457561501
 30
0
  0
VERTEX
  5
169
  8
8
  6
BYLAYER
 62
  256
 10
777.7936472215185
 20
1179.124113401965
 30
0
  0
VERTEX
  5
16A
  8
8
  6
BYLAYER
 62
  256
 10
776.4529166666665
 20
1180.021166666666
 30
0
  0
VERTEX
  5
16B
  8
8
  6
BYLAYER
 62
  256
 10
769.2643068963887
 20
1184.82761246945
 30
0
  0
VERTEX
  5
16C
  8
8
  6
BYLAYER
 62
  256
 10
758.3340452587959
 20
1192.278645155306
 30
0
  0
VERTEX
  5
16D
  8
8
  6
BYLAYER
 62
  256
 10
750.9250426309599
 20
1197.122028476211
 30
0
  0
VERTEX
  5
16E
  8
8
  6
BYLAYER
 62
  256
 10
745.2753033017286
 20
1200.567186623525
 30
0
  0
VERTEX
  5
16F
  8
8
  6
BYLAYER
 62
  256
 10
741.4627642117129
 20
1202.748548923287
 30
0
  0
VERTEX
  5
170
  8
8
  6
BYLAYER
 62
  256
 10
737.6067697361437
 20
1204.809281349257
 30
0
  0
VERTEX
  5
171
  8
8
  6
BYLAYER
 62
  256
 10
733.7035984782611
 20
1206.729123857988
 30
0
  0
VERTEX
  5
172
  8
8
  6
BYLAYER
 62
  256
 10
729.7495290413044
 20
1208.487816406033
 30
0
  0
VERTEX
  5
173
  8
8
  6
BYLAYER
 62
  256
 10
725.7408400285133
 20
1210.065098949943
 30
0
  0
VERTEX
  5
174
  8
8
  6
BYLAYER
 62
  256
 10
721.6738100431276
 20
1211.440711446272
 30
0
  0
VERTEX
  5
175
  8
8
  6
BYLAYER
 62
  256
 10
717.5447176883866
 20
1212.594393851572
 30
0
  0
VERTEX
  5
176
  8
8
  6
BYLAYER
 62
  256
 10
715.4529166666664
 20
1213.071166666667
 30
0
  0
VERTEX
  5
177
  8
8
  6
BYLAYER
 62
  256
 10
712.2536058536417
 20
1213.748885485138
 30
0
  0
VERTEX
  5
178
  8
8
  6
BYLAYER
 62
  256
 10
705.8046926412463
 20
1214.945883412967
 30
0
  0
VERTEX
  5
179
  8
8
  6
BYLAYER
 62
  256
 10
699.3018621753837
 20
1215.960594609065
 30
0
  0
VERTEX
  5
17A
  8
8
  6
BYLAYER
 62
  256
 10
692.7522618451062
 20
1216.801731205883
 30
0
  0
VERTEX
  5
17B
  8
8
  6
BYLAYER
 62
  256
 10
686.1630390394666
 20
1217.478005335873
 30
0
  0
VERTEX
  5
17C
  8
8
  6
BYLAYER
 62
  256
 10
679.5413411475175
 20
1217.998129131486
 30
0
  0
VERTEX
  5
17D
  8
8
  6
BYLAYER
 62
  256
 10
672.8943155583116
 20
1218.370814725172
 30
0
  0
VERTEX
  5
17E
  8
8
  6
BYLAYER
 62
  256
 10
666.2291096609015
 20
1218.604774249384
 30
0
  0
VERTEX
  5
17F
  8
8
  6
BYLAYER
 62
  256
 10
659.5528708443397
 20
1218.708719836571
 30
0
  0
VERTEX
  5
180
  8
8
  6
BYLAYER
 62
  256
 10
652.8727464976794
 20
1218.691363619186
 30
0
  0
VERTEX
  5
181
  8
8
  6
BYLAYER
 62
  256
 10
646.1958840099727
 20
1218.56141772968
 30
0
  0
VERTEX
  5
182
  8
8
  6
BYLAYER
 62
  256
 10
639.5294307702724
 20
1218.327594300502
 30
0
  0
VERTEX
  5
183
  8
8
  6
BYLAYER
 62
  256
 10
629.561368449207
 20
1217.81140871066
 30
0
  0
VERTEX
  5
184
  8
8
  6
BYLAYER
 62
  256
 10
616.3766861264769
 20
1216.825042203698
 30
0
  0
VERTEX
  5
185
  8
8
  6
BYLAYER
 62
  256
 10
609.8529166666665
 20
1216.221166666666
 30
0
  0
VERTEX
  5
186
  8
8
  6
BYLAYER
 62
  256
 10
607.8983265019854
 20
1216.018284926182
 30
0
  0
VERTEX
  5
187
  8
8
  6
BYLAYER
 62
  256
 10
604.0060793439088
 20
1215.463407663729
 30
0
  0
VERTEX
  5
188
  8
8
  6
BYLAYER
 62
  256
 10
600.1332632556604
 20
1214.744215300478
 30
0
  0
VERTEX
  5
189
  8
8
  6
BYLAYER
 62
  256
 10
596.278890753112
 20
1213.876953877526
 30
0
  0
VERTEX
  5
18A
  8
8
  6
BYLAYER
 62
  256
 10
592.4419743521355
 20
1212.877869435969
 30
0
  0
VERTEX
  5
18B
  8
8
  6
BYLAYER
 62
  256
 10
588.621526568603
 20
1211.763208016903
 30
0
  0
VERTEX
  5
18C
  8
8
  6
BYLAYER
 62
  256
 10
582.9178234410916
 20
1209.919417504716
 30
0
  0
VERTEX
  5
18D
  8
8
  6
BYLAYER
 62
  256
 10
575.3638897691553
 20
1207.191585294675
 30
0
  0
VERTEX
  5
18E
  8
8
  6
BYLAYER
 62
  256
 10
567.8580558526913
 20
1204.293873914318
 30
0
  0
VERTEX
  5
18F
  8
8
  6
BYLAYER
 62
  256
 10
560.3924218186759
 20
1201.356251692411
 30
0
  0
VERTEX
  5
190
  8
8
  6
BYLAYER
 62
  256
 10
552.9590877940855
 20
1198.508686957719
 30
0
  0
VERTEX
  5
191
  8
8
  6
BYLAYER
 62
  256
 10
549.2529166666665
 20
1197.171166666667
 30
0
  0
VERTEX
  5
192
  8
8
  6
BYLAYER
 62
  256
 10
547.2970919531058
 20
1196.439801607315
 30
0
  0
VERTEX
  5
193
  8
8
  6
BYLAYER
 62
  256
 10
543.452783340608
 20
1194.694145583086
 30
0
  0
VERTEX
  5
194
  8
8
  6
BYLAYER
 62
  256
 10
537.7747818125409
 20
1191.702826521594
 30
0
  0
VERTEX
  5
195
  8
8
  6
BYLAYER
 62
  256
 10
532.1119051282388
 20
1188.643821660424
 30
0
  0
VERTEX
  5
196
  8
8
  6
BYLAYER
 62
  256
 10
528.2917962657655
 20
1186.789868356712
 30
0
  0
VERTEX
  5
197
  8
8
  6
BYLAYER
 62
  256
 10
525.3783090009161
 20
1185.600471885645
 30
0
  0
VERTEX
  5
198
  8
8
  6
BYLAYER
 62
  256
 10
523.4085459727729
 20
1184.921689840319
 30
0
  0
VERTEX
  5
199
  8
8
  6
BYLAYER
 62
  256
 10
521.4110926789896
 20
1184.358184827042
 30
0
  0
VERTEX
  5
19A
  8
8
  6
BYLAYER
 62
  256
 10
519.3820554195642
 20
1183.926229594081
 30
0
  0
VERTEX
  5
19B
  8
8
  6
BYLAYER
 62
  256
 10
518.3529166666665
 20
1183.771166666666
 30
0
  0
VERTEX
  5
19C
  8
8
  6
BYLAYER
 62
  256
 10
304.1896166666665
 20
1376.483666666667
 30
0
  0
SEQEND
  5
19D
  8
8
  6
BYLAYER
 62
  256
  0
POLYLINE
  5
19E
  8
8
  6
BYLAYER
 62
  256
 66
    1
 10
0
 20
0
 30
0
 70
    0
  0
VERTEX
  5
19F
  8
8
  6
BYLAYER
 62
  256
 10
896.0229166666667
 20
1654.842279922231
 30
0
  0
VERTEX
  5
1A0
  8
8
  6
BYLAYER
 62
  256
 10
896.0229166666667
 20
1654.842279922231
 30
0
  0
VERTEX
  5
1A1
  8
8
  6
BYLAYER
 62
  256
 10
893.8331623452226
 20
1654.275302507119
 30
0
  0
VERTEX
  5
1A2
  8
8
  6
BYLAYER
 62
  256
 10
888.304976662779
 20
1652.709299521928
 30
0
  0
VERTEX
  5
1A3
  8
8
  6
BYLAYER
 62
  256
 10
882.7944820465091
 20
1651.019153566626
 30
0
  0
VERTEX
  5
1A4
  8
8
  6
BYLAYER
 62
  256
 10
877.3044852218184
 20
1649.211497205076
 30
0
  0
VERTEX
  5
1A5
  8
8
  6
BYLAYER
 62
  256
 10
871.8377929141114
 20
1647.292963001144
 30
0
  0
VERTEX
  5
1A6
  8
8
  6
BYLAYER
 62
  256
 10
863.683799967408
 20
1644.233561528323
 30
0
  0
VERTEX
  5
1A7
  8
8
  6
BYLAYER
 62
  256
 10
852.9239231587625
 20
1639.810816832543
 30
0
  0
VERTEX
  5
1A8
  8
8
  6
BYLAYER
 62
  256
 10
842.3077854753478
 20
1635.063946916797
 30
0
  0
VERTEX
  5
1A9
  8
8
  6
BYLAYER
 62
  256
 10
831.857840720407
 20
1630.046012292006
 30
0
  0
VERTEX
  5
1AA
  8
8
  6
BYLAYER
 62
  256
 10
821.5965426971819
 20
1624.810073469086
 30
0
  0
VERTEX
  5
1AB
  8
8
  6
BYLAYER
 62
  256
 10
816.5529166666666
 20
1622.121166666667
 30
0
  0
VERTEX
  5
1AC
  8
8
  6
BYLAYER
 62
  256
 10
815.1414024243408
 20
1621.343020881343
 30
0
  0
VERTEX
  5
1AD
  8
8
  6
BYLAYER
 62
  256
 10
812.4017525150039
 20
1619.648880535939
 30
0
  0
VERTEX
  5
1AE
  8
8
  6
BYLAYER
 62
  256
 10
809.7510871301721
 20
1617.807593953574
 30
0
  0
VERTEX
  5
1AF
  8
8
  6
BYLAYER
 62
  256
 10
807.1771065299863
 20
1615.839463681747
 30
0
  0
VERTEX
  5
1B0
  8
8
  6
BYLAYER
 62
  256
 10
803.4272719906031
 20
1612.70335909401
 30
0
  0
VERTEX
  5
1B1
  8
8
  6
BYLAYER
 62
  256
 10
798.591822619802
 20
1608.249666983573
 30
0
  0
VERTEX
  5
1B2
  8
8
  6
BYLAYER
 62
  256
 10
793.8417170701251
 20
1603.654045970266
 30
0
  0
VERTEX
  5
1B3
  8
8
  6
BYLAYER
 62
  256
 10
789.0785574227014
 20
1599.07891643408
 30
0
  0
VERTEX
  5
1B4
  8
8
  6
BYLAYER
 62
  256
 10
785.4326393606736
 20
1595.76824554683
 30
0
  0
VERTEX
  5
1B5
  8
8
  6
BYLAYER
 62
  256
 10
782.94902091471
 20
1593.648318492819
 30
0
  0
VERTEX
  5
1B6
  8
8
  6
BYLAYER
 62
  256
 10
780.4067901149447
 20
1591.624875771832
 30
0
  0
VERTEX
  5
1B7
  8
8
  6
BYLAYER
 62
  256
 10
777.7936472215185
 20
1589.718219931368
 30
0
  0
VERTEX
  5
1B8
  8
8
  6
BYLAYER
 62
  256
 10
776.4529166666665
 20
1588.821166666667
 30
0
  0
VERTEX
  5
1B9
  8
8
  6
BYLAYER
 62
  256
 10
769.2643068963887
 20
1584.014720863884
 30
0
  0
VERTEX
  5
1BA
  8
8
  6
BYLAYER
 62
  256
 10
758.3340452587959
 20
1576.563688178027
 30
0
  0
VERTEX
  5
1BB
  8
8
  6
BYLAYER
 62
  256
 10
750.9250426309599
 20
1571.720304857122
 30
0
  0
VERTEX
  5
1BC
  8
8
  6
BYLAYER
 62
  256
 10
745.2753033017286
 20
1568.275146709808
 30
0
  0
VERTEX
  5
1BD
  8
8
  6
BYLAYER
 62
  256
 10
741.4627642117129
 20
1566.093784410046
 30
0
  0
VERTEX
  5
1BE
  8
8
  6
BYLAYER
 62
  256
 10
737.6067697361437
 20
1564.033051984076
 30
0
  0
VERTEX
  5
1BF
  8
8
  6
BYLAYER
 62
  256
 10
733.7035984782611
 20
1562.113209475345
 30
0
  0
VERTEX
  5
1C0
  8
8
  6
BYLAYER
 62
  256
 10
729.7495290413044
 20
1560.354516927301
 30
0
  0
VERTEX
  5
1C1
  8
8
  6
BYLAYER
 62
  256
 10
725.7408400285133
 20
1558.77723438339
 30
0
  0
VERTEX
  5
1C2
  8
8
  6
BYLAYER
 62
  256
 10
721.6738100431276
 20
1557.401621887062
 30
0
  0
VERTEX
  5
1C3
  8
8
  6
BYLAYER
 62
  256
 10
717.5447176883866
 20
1556.247939481761
 30
0
  0
VERTEX
  5
1C4
  8
8
  6
BYLAYER
 62
  256
 10
715.4529166666664
 20
1555.771166666667
 30
0
  0
VERTEX
  5
1C5
  8
8
  6
BYLAYER
 62
  256
 10
712.2536058536417
 20
1555.093447848195
 30
0
  0
VERTEX
  5
1C6
  8
8
  6
BYLAYER
 62
  256
 10
705.8046926412463
 20
1553.896449920366
 30
0
  0
VERTEX
  5
1C7
  8
8
  6
BYLAYER
 62
  256
 10
699.3018621753837
 20
1552.881738724268
 30
0
  0
VERTEX
  5
1C8
  8
8
  6
BYLAYER
 62
  256
 10
692.7522618451062
 20
1552.04060212745
 30
0
  0
VERTEX
  5
1C9
  8
8
  6
BYLAYER
 62
  256
 10
686.1630390394666
 20
1551.36432799746
 30
0
  0
VERTEX
  5
1CA
  8
8
  6
BYLAYER
 62
  256
 10
679.5413411475175
 20
1550.844204201847
 30
0
  0
VERTEX
  5
1CB
  8
8
  6
BYLAYER
 62
  256
 10
672.8943155583116
 20
1550.471518608161
 30
0
  0
VERTEX
  5
1CC
  8
8
  6
BYLAYER
 62
  256
 10
666.2291096609015
 20
1550.237559083949
 30
0
  0
VERTEX
  5
1CD
  8
8
  6
BYLAYER
 62
  256
 10
659.5528708443397
 20
1550.133613496762
 30
0
  0
VERTEX
  5
1CE
  8
8
  6
BYLAYER
 62
  256
 10
652.8727464976794
 20
1550.150969714147
 30
0
  0
VERTEX
  5
1CF
  8
8
  6
BYLAYER
 62
  256
 10
646.1958840099727
 20
1550.280915603654
 30
0
  0
VERTEX
  5
1D0
  8
8
  6
BYLAYER
 62
  256
 10
639.5294307702724
 20
1550.514739032831
 30
0
  0
VERTEX
  5
1D1
  8
8
  6
BYLAYER
 62
  256
 10
629.561368449207
 20
1551.030924622673
 30
0
  0
VERTEX
  5
1D2
  8
8
  6
BYLAYER
 62
  256
 10
616.3766861264769
 20
1552.017291129635
 30
0
  0
VERTEX
  5
1D3
  8
8
  6
BYLAYER
 62
  256
 10
609.8529166666665
 20
1552.621166666667
 30
0
  0
VERTEX
  5
1D4
  8
8
  6
BYLAYER
 62
  256
 10
607.8983265019854
 20
1552.824048407151
 30
0
  0
VERTEX
  5
1D5
  8
8
  6
BYLAYER
 62
  256
 10
604.0060793439091
 20
1553.378925669605
 30
0
  0
VERTEX
  5
1D6
  8
8
  6
BYLAYER
 62
  256
 10
600.1332632556606
 20
1554.098118032855
 30
0
  0
VERTEX
  5
1D7
  8
8
  6
BYLAYER
 62
  256
 10
596.278890753112
 20
1554.965379455807
 30
0
  0
VERTEX
  5
1D8
  8
8
  6
BYLAYER
 62
  256
 10
592.4419743521355
 20
1555.964463897364
 30
0
  0
VERTEX
  5
1D9
  8
8
  6
BYLAYER
 62
  256
 10
588.6215265686031
 20
1557.07912531643
 30
0
  0
VERTEX
  5
1DA
  8
8
  6
BYLAYER
 62
  256
 10
582.9178234410916
 20
1558.922915828617
 30
0
  0
VERTEX
  5
1DB
  8
8
  6
BYLAYER
 62
  256
 10
575.3638897691553
 20
1561.650748038658
 30
0
  0
VERTEX
  5
1DC
  8
8
  6
BYLAYER
 62
  256
 10
567.8580558526913
 20
1564.548459419015
 30
0
  0
VERTEX
  5
1DD
  8
8
  6
BYLAYER
 62
  256
 10
560.3924218186759
 20
1567.486081640922
 30
0
  0
VERTEX
  5
1DE
  8
8
  6
BYLAYER
 62
  256
 10
552.9590877940855
 20
1570.333646375614
 30
0
  0
VERTEX
  5
1DF
  8
8
  6
BYLAYER
 62
  256
 10
549.2529166666665
 20
1571.671166666667
 30
0
  0
VERTEX
  5
1E0
  8
8
  6
BYLAYER
 62
  256
 10
547.2970919531058
 20
1572.402531726018
 30
0
  0
VERTEX
  5
1E1
  8
8
  6
BYLAYER
 62
  256
 10
543.452783340608
 20
1574.148187750248
 30
0
  0
VERTEX
  5
1E2
  8
8
  6
BYLAYER
 62
  256
 10
537.7747818125409
 20
1577.139506811739
 30
0
  0
VERTEX
  5
1E3
  8
8
  6
BYLAYER
 62
  256
 10
532.1119051282388
 20
1580.198511672909
 30
0
  0
VERTEX
  5
1E4
  8
8
  6
BYLAYER
 62
  256
 10
528.2917962657655
 20
1582.052464976621
 30
0
  0
VERTEX
  5
1E5
  8
8
  6
BYLAYER
 62
  256
 10
525.3783090009161
 20
1583.241861447689
 30
0
  0
VERTEX
  5
1E6
  8
8
  6
BYLAYER
 62
  256
 10
523.4085459727729
 20
1583.920643493014
 30
0
  0
VERTEX
  5
1E7
  8
8
  6
BYLAYER
 62
  256
 10
521.4110926789896
 20
1584.484148506291
 30
0
  0
VERTEX
  5
1E8
  8
8
  6
BYLAYER
 62
  256
 10
519.3820554195642
 20
1584.916103739252
 30
0
  0
VERTEX
  5
1E9
  8
8
  6
BYLAYER
 62
  256
 10
518.3529166666665
 20
1585.071166666667
 30
0
  0
VERTEX
  5
1EA
  8
8
  6
BYLAYER
 62
  256
 10
304.1896166666665
 20
1376.483666666667
 30
0
  0
SEQEND
  5
1EB
  8
8
  6
BYLAYER
 62
  256
  0
POLYLINE
  5
1EC
  8
8
  6
BYLAYER
 62
  256
 66
    1
 10
0
 20
0
 30
0
 70
    0
  0
VERTEX
  5
1ED
  8
8
  6
BYLAYER
 62
  256
 10
549.2529166666665
 20
1197.171166666667
 30
0
  0
VERTEX
  5
1EE
  8
8
  6
BYLAYER
 62
  256
 10
549.2529166666665
 20
1571.671166666667
 30
0
  0
SEQEND
  5
1EF
  8
8
  6
BYLAYER
 62
  256
  0
POLYLINE
  5
1F0
  8
8
  6
BYLAYER
 62
  256
 66
    1
 10
0
 20
0
 30
0
 70
    0
  0
VERTEX
  5
1F1
  8
8
  6
BYLAYER
 62
  256
 10
715.4529166666664
 20
1213.071166666667
 30
0
  0
VERTEX
  5
1F2
  8
8
  6
BYLAYER
 62
  256
 10
715.4529166666664
 20
1555.771166666667
 30
0
  0
SEQEND
  5
1F3
  8
8
  6
BYLAYER
 62
  256
  0
LINE
  5
1F4
  8
7
  6
BYLAYER
 62
  256
 10
896.0229166666667
 20
1384.421166666667
 11
372.2529166666665
 21
1384.421166666667
  0
TEXT
  5
1F5
  8
1
  6
BYLAYER
 62
  256
 10
524.2529166666665
 20
1341.921166666667
 30
0
 40
2.5
  1
Piece Name: Sweatshirt Back
 50
0
 41
1
 51
0
  7
STANDARD
 71
    0
210
0
220
0
230
1
  0
TEXT
  5
1F6
  8
1
  6
BYLAYER
 62
  256
 10
524.2529166666665
 20
1339.421166666667
 30
0
 40
2.5
  1
File Name: GBlock-201-Sweatshirt-Parametric-Scalable-V4-Hood-csr0283a-EXTRA
 50
0
 41
1
 51
0
  7
STANDARD
 71
    0
210
0
220
0
230
1
  0
TEXT
  5
1F7
  8
1
  6
BYLAYER
 62
  256
 10
524.2529166666665
 20
1336.921166666667
 30
0
 40
2.5
  1
Measurement Name: csr0283a-EXTRA
 50
0
 41
1
 51
0
  7
STANDARD
 71
    0
210
0
220
0
230
1
  0
TEXT
  5
1F8
  8
1
  6
BYLAYER
 62
  256
 10
524.2529166666665
 20
1334.421166666666
 30
0
 40
2.5
  1
Date: 03-25-2026
 50
0
 41
1
 51
0
  7
STANDARD
 71
    0
210
0
220
0
230
1
  0
ENDBLK
  8
1
  0
BLOCK
  8
1
  2
SWEATSHIRT_FRONT
 70
    0
 10
0
 20
0
  3
SWEATSHIRT_FRONT
  1

  0
POLYLINE
  5
1F9
  8
1
  6
BYLAYER
 62
  256
 66
    1
 10
0
 20
0
 30
0
 70
    1
  0
VERTEX
  5
1FA
  8
1
  6
BYLAYER
 62
  256
 10
367.874668554056
 20
532.5599369952785
 30
0
  0
VERTEX
  5
1FB
  8
1
  6
BYLAYER
 62
  256
 10
367.8746685540559
 20
720.1299369952789
 30
0
  0
VERTEX
  5
1FC
  8
1
  6
BYLAYER
 62
  256
 10
367.8746685540559
 20
889.8661338296344
 30
0
  0
VERTEX
  5
1FD
  8
1
  6
BYLAYER
 62
  256
 10
375.7661112148717
 20
890.0299503070836
 30
0
  0
VERTEX
  5
1FE
  8
1
  6
BYLAYER
 62
  256
 10
377.605705915858
 20
890.2660151230385
 30
0
  0
VERTEX
  5
1FF
  8
1
  6
BYLAYER
 62
  256
 10
379.2000370617074
 20
890.6926802082934
 30
0
  0
VERTEX
  5
200
  8
1
  6
BYLAYER
 62
  256
 10
380.6766499169422
 20
891.3117659350878
 30
0
  0
VERTEX
  5
201
  8
1
  6
BYLAYER
 62
  256
 10
382.0827413464784
 20
892.1341806694104
 30
0
  0
VERTEX
  5
202
  8
1
  6
BYLAYER
 62
  256
 10
383.4484160033635
 20
893.1808774008717
 30
0
  0
VERTEX
  5
203
  8
1
  6
BYLAYER
 62
  256
 10
384.7851716773616
 20
894.4723767818867
 30
0
  0
VERTEX
  5
204
  8
1
  6
BYLAYER
 62
  256
 10
386.0905170861879
 20
896.02148077889
 30
0
  0
VERTEX
  5
205
  8
1
  6
BYLAYER
 62
  256
 10
387.3545542505818
 20
897.8309032097354
 30
0
  0
VERTEX
  5
206
  8
1
  6
BYLAYER
 62
  256
 10
388.5653545701517
 20
899.8944060688453
 30
0
  0
VERTEX
  5
207
  8
1
  6
BYLAYER
 62
  256
 10
389.71213514273
 20
902.1993016585185
 30
0
  0
VERTEX
  5
208
  8
1
  6
BYLAYER
 62
  256
 10
390.7866082007585
 20
904.7289030784656
 30
0
  0
VERTEX
  5
209
  8
1
  6
BYLAYER
 62
  256
 10
391.7832302614886
 20
907.4643737155432
 30
0
  0
VERTEX
  5
20A
  8
1
  6
BYLAYER
 62
  256
 10
392.6989347140477
 20
910.3859351677461
 30
0
  0
VERTEX
  5
20B
  8
1
  6
BYLAYER
 62
  256
 10
393.5326942881455
 20
913.4735789721684
 30
0
  0
VERTEX
  5
20C
  8
1
  6
BYLAYER
 62
  256
 10
394.2812434464803
 20
916.6909530861927
 30
0
  0
VERTEX
  5
20D
  8
1
  6
BYLAYER
 62
  256
 10
395.2729007809492
 20
921.7716801977745
 30
0
  0
VERTEX
  5
20E
  8
1
  6
BYLAYER
 62
  256
 10
396.3199420477917
 20
928.8998369432426
 30
0
  0
VERTEX
  5
20F
  8
1
  6
BYLAYER
 62
  256
 10
397.0951249624705
 20
936.2579968785254
 30
0
  0
VERTEX
  5
210
  8
1
  6
BYLAYER
 62
  256
 10
397.6373986342044
 20
943.7210104118843
 30
0
  0
VERTEX
  5
211
  8
1
  6
BYLAYER
 62
  256
 10
397.98642045298
 20
951.151198926912
 30
0
  0
VERTEX
  5
212
  8
1
  6
BYLAYER
 62
  256
 10
398.1834880999336
 20
958.4073886802472
 30
0
  0
VERTEX
  5
213
  8
1
  6
BYLAYER
 62
  256
 10
398.2938757947052
 20
968.7855326158016
 30
0
  0
VERTEX
  5
214
  8
1
  6
BYLAYER
 62
  256
 10
398.2938757947052
 20
974.929322296201
 30
0
  0
VERTEX
  5
215
  8
1
  6
BYLAYER
 62
  256
 10
398.2714786390577
 20
977.4898095034602
 30
0
  0
VERTEX
  5
216
  8
1
  6
BYLAYER
 62
  256
 10
398.0123192410776
 20
982.8653353774074
 30
0
  0
VERTEX
  5
217
  8
1
  6
BYLAYER
 62
  256
 10
397.51781217984
 20
988.4496454000802
 30
0
  0
VERTEX
  5
218
  8
1
  6
BYLAYER
 62
  256
 10
396.8102250150681
 20
994.2115174649424
 30
0
  0
VERTEX
  5
219
  8
1
  6
BYLAYER
 62
  256
 10
395.9149787141826
 20
1000.091723934109
 30
0
  0
VERTEX
  5
21A
  8
1
  6
BYLAYER
 62
  256
 10
394.8584820843624
 20
1006.032963686882
 30
0
  0
VERTEX
  5
21B
  8
1
  6
BYLAYER
 62
  256
 10
393.6677313645413
 20
1011.979363301182
 30
0
  0
VERTEX
  5
21C
  8
1
  6
BYLAYER
 62
  256
 10
392.3720592362616
 20
1017.867094465767
 30
0
  0
VERTEX
  5
21D
  8
1
  6
BYLAYER
 62
  256
 10
390.2888804898036
 20
1026.52946251475
 30
0
  0
VERTEX
  5
21E
  8
1
  6
BYLAYER
 62
  256
 10
387.3817605916924
 20
1037.388915209503
 30
0
  0
VERTEX
  5
21F
  8
1
  6
BYLAYER
 62
  256
 10
384.5482116760948
 20
1047.084848551311
 30
0
  0
VERTEX
  5
220
  8
1
  6
BYLAYER
 62
  256
 10
382.0061984469575
 20
1055.216786191702
 30
0
  0
VERTEX
  5
221
  8
1
  6
BYLAYER
 62
  256
 10
378.7691240582357
 20
1065.111910965156
 30
0
  0
VERTEX
  5
222
  8
1
  6
BYLAYER
 62
  256
 10
541.687609800602
 20
1118.803787342493
 30
0
  0
VERTEX
  5
223
  8
1
  6
BYLAYER
 62
  256
 10
544.7335717097986
 20
1109.708893315983
 30
0
  0
VERTEX
  5
224
  8
1
  6
BYLAYER
 62
  256
 10
546.4655318108134
 20
1104.930842845997
 30
0
  0
VERTEX
  5
225
  8
1
  6
BYLAYER
 62
  256
 10
548.2715250691323
 20
1100.3895703744
 30
0
  0
VERTEX
  5
226
  8
1
  6
BYLAYER
 62
  256
 10
550.1543772594626
 20
1096.065223625725
 30
0
  0
VERTEX
  5
227
  8
1
  6
BYLAYER
 62
  256
 10
552.1111759373592
 20
1091.953652541802
 30
0
  0
VERTEX
  5
228
  8
1
  6
BYLAYER
 62
  256
 10
554.1390380501974
 20
1088.050548270915
 30
0
  0
VERTEX
  5
229
  8
1
  6
BYLAYER
 62
  256
 10
556.2351384563807
 20
1084.351431618366
 30
0
  0
VERTEX
  5
22A
  8
1
  6
BYLAYER
 62
  256
 10
558.3967429219344
 20
1080.851646474975
 30
0
  0
VERTEX
  5
22B
  8
1
  6
BYLAYER
 62
  256
 10
560.6212446340074
 20
1077.546360057364
 30
0
  0
VERTEX
  5
22C
  8
1
  6
BYLAYER
 62
  256
 10
562.9062026180178
 20
1074.430571725633
 30
0
  0
VERTEX
  5
22D
  8
1
  6
BYLAYER
 62
  256
 10
565.2493797643226
 20
1071.49913182452
 30
0
  0
VERTEX
  5
22E
  8
1
  6
BYLAYER
 62
  256
 10
567.6487775642898
 20
1068.746771379873
 30
0
  0
VERTEX
  5
22F
  8
1
  6
BYLAYER
 62
  256
 10
570.102664254951
 20
1066.168142573627
 30
0
  0
VERTEX
  5
230
  8
1
  6
BYLAYER
 62
  256
 10
572.6095930121428
 20
1063.757868780865
 30
0
  0
VERTEX
  5
231
  8
1
  6
BYLAYER
 62
  256
 10
575.1684072228106
 20
1061.510601716488
 30
0
  0
VERTEX
  5
232
  8
1
  6
BYLAYER
 62
  256
 10
577.7782307506203
 20
1059.421082100826
 30
0
  0
VERTEX
  5
233
  8
1
  6
BYLAYER
 62
  256
 10
580.4384424310357
 20
1057.484199433731
 30
0
  0
VERTEX
  5
234
  8
1
  6
BYLAYER
 62
  256
 10
583.1486356317745
 20
1055.695046160356
 30
0
  0
VERTEX
  5
235
  8
1
  6
BYLAYER
 62
  256
 10
585.9085653457505
 20
1054.048961832229
 30
0
  0
VERTEX
  5
236
  8
1
  6
BYLAYER
 62
  256
 10
588.7180866659423
 20
1052.541563805401
 30
0
  0
VERTEX
  5
237
  8
1
  6
BYLAYER
 62
  256
 10
591.5770893792703
 20
1051.168762433125
 30
0
  0
VERTEX
  5
238
  8
1
  6
BYLAYER
 62
  256
 10
594.4854336612783
 20
1049.926760362537
 30
0
  0
VERTEX
  5
239
  8
1
  6
BYLAYER
 62
  256
 10
597.4428914409334
 20
1048.812037150607
 30
0
  0
VERTEX
  5
23A
  8
1
  6
BYLAYER
 62
  256
 10
600.4490970515293
 20
1047.821321720574
 30
0
  0
VERTEX
  5
23B
  8
1
  6
BYLAYER
 62
  256
 10
603.5035094978073
 20
1046.951556017436
 30
0
  0
VERTEX
  5
23C
  8
1
  6
BYLAYER
 62
  256
 10
606.6053872920101
 20
1046.199853532832
 30
0
  0
VERTEX
  5
23D
  8
1
  6
BYLAYER
 62
  256
 10
609.7537755586985
 20
1045.563456203607
 30
0
  0
VERTEX
  5
23E
  8
1
  6
BYLAYER
 62
  256
 10
612.9475041303147
 20
1045.039692665339
 30
0
  0
VERTEX
  5
23F
  8
1
  6
BYLAYER
 62
  256
 10
616.1851947228674
 20
1044.625940114677
 30
0
  0
VERTEX
  5
240
  8
1
  6
BYLAYER
 62
  256
 10
619.4652749907298
 20
1044.319591248076
 30
0
  0
VERTEX
  5
241
  8
1
  6
BYLAYER
 62
  256
 10
622.7859972567628
 20
1044.118027013594
 30
0
  0
VERTEX
  5
242
  8
1
  6
BYLAYER
 62
  256
 10
626.1623189874178
 20
1044.018096322034
 30
0
  0
VERTEX
  5
243
  8
1
  6
BYLAYER
 62
  256
 10
627.838918554056
 20
1044.01001824517
 30
0
  0
VERTEX
  5
244
  8
1
  6
BYLAYER
 62
  256
 10
629.5155181206941
 20
1044.018096322034
 30
0
  0
VERTEX
  5
245
  8
1
  6
BYLAYER
 62
  256
 10
632.8918398513491
 20
1044.118027013594
 30
0
  0
VERTEX
  5
246
  8
1
  6
BYLAYER
 62
  256
 10
636.2125621173822
 20
1044.319591248076
 30
0
  0
VERTEX
  5
247
  8
1
  6
BYLAYER
 62
  256
 10
639.4926423852445
 20
1044.625940114677
 30
0
  0
VERTEX
  5
248
  8
1
  6
BYLAYER
 62
  256
 10
642.7303329777972
 20
1045.039692665339
 30
0
  0
VERTEX
  5
249
  8
1
  6
BYLAYER
 62
  256
 10
645.9240615494133
 20
1045.563456203607
 30
0
  0
VERTEX
  5
24A
  8
1
  6
BYLAYER
 62
  256
 10
649.0724498161015
 20
1046.199853532832
 30
0
  0
VERTEX
  5
24B
  8
1
  6
BYLAYER
 62
  256
 10
652.1743276103045
 20
1046.951556017436
 30
0
  0
VERTEX
  5
24C
  8
1
  6
BYLAYER
 62
  256
 10
655.2287400565826
 20
1047.821321720574
 30
0
  0
VERTEX
  5
24D
  8
1
  6
BYLAYER
 62
  256
 10
658.2349456671785
 20
1048.812037150607
 30
0
  0
VERTEX
  5
24E
  8
1
  6
BYLAYER
 62
  256
 10
661.1924034468334
 20
1049.926760362536
 30
0
  0
VERTEX
  5
24F
  8
1
  6
BYLAYER
 62
  256
 10
664.1007477288417
 20
1051.168762433125
 30
0
  0
VERTEX
  5
250
  8
1
  6
BYLAYER
 62
  256
 10
666.9597504421697
 20
1052.541563805401
 30
0
  0
VERTEX
  5
251
  8
1
  6
BYLAYER
 62
  256
 10
669.7692717623614
 20
1054.048961832229
 30
0
  0
VERTEX
  5
252
  8
1
  6
BYLAYER
 62
  256
 10
672.5292014763373
 20
1055.695046160356
 30
0
  0
VERTEX
  5
253
  8
1
  6
BYLAYER
 62
  256
 10
675.2393946770762
 20
1057.484199433731
 30
0
  0
VERTEX
  5
254
  8
1
  6
BYLAYER
 62
  256
 10
677.8996063574915
 20
1059.421082100826
 30
0
  0
VERTEX
  5
255
  8
1
  6
BYLAYER
 62
  256
 10
680.5094298853014
 20
1061.510601716488
 30
0
  0
VERTEX
  5
256
  8
1
  6
BYLAYER
 62
  256
 10
683.068244095969
 20
1063.757868780865
 30
0
  0
VERTEX
  5
257
  8
1
  6
BYLAYER
 62
  256
 10
685.5751728531608
 20
1066.168142573627
 30
0
  0
VERTEX
  5
258
  8
1
  6
BYLAYER
 62
  256
 10
688.0290595438221
 20
1068.746771379873
 30
0
  0
VERTEX
  5
259
  8
1
  6
BYLAYER
 62
  256
 10
690.4284573437894
 20
1071.49913182452
 30
0
  0
VERTEX
  5
25A
  8
1
  6
BYLAYER
 62
  256
 10
692.7716344900939
 20
1074.430571725633
 30
0
  0
VERTEX
  5
25B
  8
1
  6
BYLAYER
 62
  256
 10
695.0565924741045
 20
1077.546360057364
 30
0
  0
VERTEX
  5
25C
  8
1
  6
BYLAYER
 62
  256
 10
697.2810941861774
 20
1080.851646474975
 30
0
  0
VERTEX
  5
25D
  8
1
  6
BYLAYER
 62
  256
 10
699.4426986517311
 20
1084.351431618366
 30
0
  0
VERTEX
  5
25E
  8
1
  6
BYLAYER
 62
  256
 10
701.5387990579146
 20
1088.050548270915
 30
0
  0
VERTEX
  5
25F
  8
1
  6
BYLAYER
 62
  256
 10
703.5666611707527
 20
1091.953652541802
 30
0
  0
VERTEX
  5
260
  8
1
  6
BYLAYER
 62
  256
 10
705.5234598486492
 20
1096.065223625725
 30
0
  0
VERTEX
  5
261
  8
1
  6
BYLAYER
 62
  256
 10
707.4063120389795
 20
1100.3895703744
 30
0
  0
VERTEX
  5
262
  8
1
  6
BYLAYER
 62
  256
 10
709.2123052972986
 20
1104.930842845997
 30
0
  0
VERTEX
  5
263
  8
1
  6
BYLAYER
 62
  256
 10
710.9442653983132
 20
1109.708893315983
 30
0
  0
VERTEX
  5
264
  8
1
  6
BYLAYER
 62
  256
 10
713.9902273075101
 20
1118.803787342493
 30
0
  0
VERTEX
  5
265
  8
1
  6
BYLAYER
 62
  256
 10
876.9087130498762
 20
1065.111910965156
 30
0
  0
VERTEX
  5
266
  8
1
  6
BYLAYER
 62
  256
 10
873.6716386611542
 20
1055.216786191702
 30
0
  0
VERTEX
  5
267
  8
1
  6
BYLAYER
 62
  256
 10
871.1296254320172
 20
1047.084848551311
 30
0
  0
VERTEX
  5
268
  8
1
  6
BYLAYER
 62
  256
 10
868.2960765164195
 20
1037.388915209503
 30
0
  0
VERTEX
  5
269
  8
1
  6
BYLAYER
 62
  256
 10
865.3889566183083
 20
1026.52946251475
 30
0
  0
VERTEX
  5
26A
  8
1
  6
BYLAYER
 62
  256
 10
863.3057778718503
 20
1017.867094465767
 30
0
  0
VERTEX
  5
26B
  8
1
  6
BYLAYER
 62
  256
 10
862.0101057435706
 20
1011.979363301182
 30
0
  0
VERTEX
  5
26C
  8
1
  6
BYLAYER
 62
  256
 10
860.8193550237495
 20
1006.032963686882
 30
0
  0
VERTEX
  5
26D
  8
1
  6
BYLAYER
 62
  256
 10
859.7628583939294
 20
1000.091723934109
 30
0
  0
VERTEX
  5
26E
  8
1
  6
BYLAYER
 62
  256
 10
858.8676120930438
 20
994.2115174649424
 30
0
  0
VERTEX
  5
26F
  8
1
  6
BYLAYER
 62
  256
 10
858.1600249282718
 20
988.4496454000802
 30
0
  0
VERTEX
  5
270
  8
1
  6
BYLAYER
 62
  256
 10
857.6655178670343
 20
982.8653353774074
 30
0
  0
VERTEX
  5
271
  8
1
  6
BYLAYER
 62
  256
 10
857.4063584690543
 20
977.4898095034602
 30
0
  0
VERTEX
  5
272
  8
1
  6
BYLAYER
 62
  256
 10
857.3839613134068
 20
974.929322296201
 30
0
  0
VERTEX
  5
273
  8
1
  6
BYLAYER
 62
  256
 10
857.3839613134068
 20
968.7855326158016
 30
0
  0
VERTEX
  5
274
  8
1
  6
BYLAYER
 62
  256
 10
857.4943490081782
 20
958.4073886802472
 30
0
  0
VERTEX
  5
275
  8
1
  6
BYLAYER
 62
  256
 10
857.6914166551319
 20
951.151198926912
 30
0
  0
VERTEX
  5
276
  8
1
  6
BYLAYER
 62
  256
 10
858.0404384739076
 20
943.7210104118842
 30
0
  0
VERTEX
  5
277
  8
1
  6
BYLAYER
 62
  256
 10
858.5827121456414
 20
936.2579968785257
 30
0
  0
VERTEX
  5
278
  8
1
  6
BYLAYER
 62
  256
 10
859.3578950603204
 20
928.8998369432425
 30
0
  0
VERTEX
  5
279
  8
1
  6
BYLAYER
 62
  256
 10
860.4049363271628
 20
921.7716801977745
 30
0
  0
VERTEX
  5
27A
  8
1
  6
BYLAYER
 62
  256
 10
861.3965936616315
 20
916.6909530861927
 30
0
  0
VERTEX
  5
27B
  8
1
  6
BYLAYER
 62
  256
 10
862.1451428199665
 20
913.4735789721684
 30
0
  0
VERTEX
  5
27C
  8
1
  6
BYLAYER
 62
  256
 10
862.9789023940642
 20
910.3859351677461
 30
0
  0
VERTEX
  5
27D
  8
1
  6
BYLAYER
 62
  256
 10
863.8946068466232
 20
907.4643737155432
 30
0
  0
VERTEX
  5
27E
  8
1
  6
BYLAYER
 62
  256
 10
864.8912289073535
 20
904.7289030784656
 30
0
  0
VERTEX
  5
27F
  8
1
  6
BYLAYER
 62
  256
 10
865.9657019653819
 20
902.1993016585185
 30
0
  0
VERTEX
  5
280
  8
1
  6
BYLAYER
 62
  256
 10
867.1124825379601
 20
899.8944060688453
 30
0
  0
VERTEX
  5
281
  8
1
  6
BYLAYER
 62
  256
 10
868.32328285753
 20
897.8309032097354
 30
0
  0
VERTEX
  5
282
  8
1
  6
BYLAYER
 62
  256
 10
869.587320021924
 20
896.02148077889
 30
0
  0
VERTEX
  5
283
  8
1
  6
BYLAYER
 62
  256
 10
870.8926654307502
 20
894.4723767818866
 30
0
  0
VERTEX
  5
284
  8
1
  6
BYLAYER
 62
  256
 10
872.2294211047483
 20
893.1808774008717
 30
0
  0
VERTEX
  5
285
  8
1
  6
BYLAYER
 62
  256
 10
873.5950957616334
 20
892.1341806694104
 30
0
  0
VERTEX
  5
286
  8
1
  6
BYLAYER
 62
  256
 10
875.0011871911696
 20
891.3117659350878
 30
0
  0
VERTEX
  5
287
  8
1
  6
BYLAYER
 62
  256
 10
876.4778000464046
 20
890.6926802082934
 30
0
  0
VERTEX
  5
288
  8
1
  6
BYLAYER
 62
  256
 10
878.0721311922539
 20
890.2660151230385
 30
0
  0
VERTEX
  5
289
  8
1
  6
BYLAYER
 62
  256
 10
879.9117258932403
 20
890.0299503070836
 30
0
  0
VERTEX
  5
28A
  8
1
  6
BYLAYER
 62
  256
 10
887.803168554056
 20
889.8661338296344
 30
0
  0
VERTEX
  5
28B
  8
1
  6
BYLAYER
 62
  256
 10
887.803168554056
 20
720.1299369952789
 30
0
  0
VERTEX
  5
28C
  8
1
  6
BYLAYER
 62
  256
 10
887.803168554056
 20
532.5599369952785
 30
0
  0
VERTEX
  5
28D
  8
1
  6
BYLAYER
 62
  256
 10
367.874668554056
 20
532.5599369952785
 30
0
  0
SEQEND
  5
28E
  8
1
  6
BYLAYER
 62
  256
  0
POLYLINE
  5
28F
  8
8
  6
BYLAYER
 62
  256
 66
    1
 10
0
 20
0
 30
0
 70
    1
  0
VERTEX
  5
290
  8
8
  6
BYLAYER
 62
  256
 10
374.874668554056
 20
539.5599369952786
 30
0
  0
VERTEX
  5
291
  8
8
  6
BYLAYER
 62
  256
 10
374.874668554056
 20
720.1299369952789
 30
0
  0
VERTEX
  5
292
  8
8
  6
BYLAYER
 62
  256
 10
374.874668554056
 20
883.0099369952786
 30
0
  0
VERTEX
  5
293
  8
8
  6
BYLAYER
 62
  256
 10
376.2857157649259
 20
883.0392285701574
 30
0
  0
VERTEX
  5
294
  8
8
  6
BYLAYER
 62
  256
 10
378.9620638629115
 20
883.3826692317573
 30
0
  0
VERTEX
  5
295
  8
8
  6
BYLAYER
 62
  256
 10
381.4685293032726
 20
884.0534340810699
 30
0
  0
VERTEX
  5
296
  8
8
  6
BYLAYER
 62
  256
 10
383.8106820092102
 20
885.0354066442087
 30
0
  0
VERTEX
  5
297
  8
8
  6
BYLAYER
 62
  256
 10
385.9940919039246
 20
886.3124704472866
 30
0
  0
VERTEX
  5
298
  8
8
  6
BYLAYER
 62
  256
 10
388.0243289106171
 20
887.868509016417
 30
0
  0
VERTEX
  5
299
  8
8
  6
BYLAYER
 62
  256
 10
389.9069629524884
 20
889.6874058777129
 30
0
  0
VERTEX
  5
29A
  8
8
  6
BYLAYER
 62
  256
 10
391.6475639527392
 20
891.7530445572872
 30
0
  0
VERTEX
  5
29B
  8
8
  6
BYLAYER
 62
  256
 10
393.2517018345703
 20
894.0493085812533
 30
0
  0
VERTEX
  5
29C
  8
8
  6
BYLAYER
 62
  256
 10
394.7249465211826
 20
896.5600814757242
 30
0
  0
VERTEX
  5
29D
  8
8
  6
BYLAYER
 62
  256
 10
396.0728679357767
 20
899.2692467668134
 30
0
  0
VERTEX
  5
29E
  8
8
  6
BYLAYER
 62
  256
 10
397.3010360015537
 20
902.1606879806335
 30
0
  0
VERTEX
  5
29F
  8
8
  6
BYLAYER
 62
  256
 10
398.4150206417142
 20
905.2182886432979
 30
0
  0
VERTEX
  5
2A0
  8
8
  6
BYLAYER
 62
  256
 10
399.4203917794591
 20
908.4259322809199
 30
0
  0
VERTEX
  5
2A1
  8
8
  6
BYLAYER
 62
  256
 10
400.322719337989
 20
911.7675024196122
 30
0
  0
VERTEX
  5
2A2
  8
8
  6
BYLAYER
 62
  256
 10
401.127573240505
 20
915.2268825854884
 30
0
  0
VERTEX
  5
2A3
  8
8
  6
BYLAYER
 62
  256
 10
402.1747188022558
 20
920.591901993336
 30
0
  0
VERTEX
  5
2A4
  8
8
  6
BYLAYER
 62
  256
 10
403.2664237496131
 20
928.0241248015479
 30
0
  0
VERTEX
  5
2A5
  8
8
  6
BYLAYER
 62
  256
 10
404.0684926905287
 20
935.6374911885309
 30
0
  0
VERTEX
  5
2A6
  8
8
  6
BYLAYER
 62
  256
 10
404.625485010609
 20
943.3030693631903
 30
0
  0
VERTEX
  5
2A7
  8
8
  6
BYLAYER
 62
  256
 10
404.9819600954603
 20
950.8919275344309
 30
0
  0
VERTEX
  5
2A8
  8
8
  6
BYLAYER
 62
  256
 10
405.1824773306892
 20
958.2751339111579
 30
0
  0
VERTEX
  5
2A9
  8
8
  6
BYLAYER
 62
  256
 10
405.2938757947052
 20
968.7483057275468
 30
0
  0
VERTEX
  5
2AA
  8
8
  6
BYLAYER
 62
  256
 10
405.2938757947052
 20
974.9599369952789
 30
0
  0
VERTEX
  5
2AB
  8
8
  6
BYLAYER
 62
  256
 10
405.2700036863146
 20
977.6890437223362
 30
0
  0
VERTEX
  5
2AC
  8
8
  6
BYLAYER
 62
  256
 10
404.9974306403782
 20
983.3427976374613
 30
0
  0
VERTEX
  5
2AD
  8
8
  6
BYLAYER
 62
  256
 10
404.4800690580098
 20
989.1851964548511
 30
0
  0
VERTEX
  5
2AE
  8
8
  6
BYLAYER
 62
  256
 10
403.7457034487133
 20
995.1651250067845
 30
0
  0
VERTEX
  5
2AF
  8
8
  6
BYLAYER
 62
  256
 10
402.8221183219926
 20
1001.231468125541
 30
0
  0
VERTEX
  5
2B0
  8
8
  6
BYLAYER
 62
  256
 10
401.7370981873519
 20
1007.333110643401
 30
0
  0
VERTEX
  5
2B1
  8
8
  6
BYLAYER
 62
  256
 10
400.5184275542952
 20
1013.418937392644
 30
0
  0
VERTEX
  5
2B2
  8
8
  6
BYLAYER
 62
  256
 10
399.1938909323266
 20
1019.437833205548
 30
0
  0
VERTEX
  5
2B3
  8
8
  6
BYLAYER
 62
  256
 10
397.0739164740978
 20
1028.253206846837
 30
0
  0
VERTEX
  5
2B4
  8
8
  6
BYLAYER
 62
  256
 10
394.1230614107374
 20
1039.276030841972
 30
0
  0
VERTEX
  5
2B5
  8
8
  6
BYLAYER
 62
  256
 10
391.2488635628023
 20
1049.111058072786
 30
0
  0
VERTEX
  5
2B6
  8
8
  6
BYLAYER
 62
  256
 10
388.6735990063246
 20
1057.349367197516
 30
0
  0
VERTEX
  5
2B7
  8
8
  6
BYLAYER
 62
  256
 10
387.5938757947053
 20
1060.649877045851
 30
0
  0
VERTEX
  5
2B8
  8
8
  6
BYLAYER
 62
  256
 10
537.2622985461717
 20
1109.975025234808
 30
0
  0
VERTEX
  5
2B9
  8
8
  6
BYLAYER
 62
  256
 10
538.1232590369794
 20
1107.404295639909
 30
0
  0
VERTEX
  5
2BA
  8
8
  6
BYLAYER
 62
  256
 10
539.9212308382228
 20
1102.444135180716
 30
0
  0
VERTEX
  5
2BB
  8
8
  6
BYLAYER
 62
  256
 10
541.8085852540758
 20
1097.698275464252
 30
0
  0
VERTEX
  5
2BC
  8
8
  6
BYLAYER
 62
  256
 10
543.7832352079353
 20
1093.163096786076
 30
0
  0
VERTEX
  5
2BD
  8
8
  6
BYLAYER
 62
  256
 10
545.8430936231972
 20
1088.834979441746
 30
0
  0
VERTEX
  5
2BE
  8
8
  6
BYLAYER
 62
  256
 10
547.9860734232579
 20
1084.71030372682
 30
0
  0
VERTEX
  5
2BF
  8
8
  6
BYLAYER
 62
  256
 10
550.2100875315139
 20
1080.785449936856
 30
0
  0
VERTEX
  5
2C0
  8
8
  6
BYLAYER
 62
  256
 10
552.5130488713612
 20
1077.056798367413
 30
0
  0
VERTEX
  5
2C1
  8
8
  6
BYLAYER
 62
  256
 10
554.8928703661963
 20
1073.520729314049
 30
0
  0
VERTEX
  5
2C2
  8
8
  6
BYLAYER
 62
  256
 10
557.3474649394155
 20
1070.173623072322
 30
0
  0
VERTEX
  5
2C3
  8
8
  6
BYLAYER
 62
  256
 10
559.8747455144149
 20
1067.01185993779
 30
0
  0
VERTEX
  5
2C4
  8
8
  6
BYLAYER
 62
  256
 10
562.4726250145911
 20
1064.031820206012
 30
0
  0
VERTEX
  5
2C5
  8
8
  6
BYLAYER
 62
  256
 10
565.1390163633403
 20
1061.229884172545
 30
0
  0
VERTEX
  5
2C6
  8
8
  6
BYLAYER
 62
  256
 10
567.8718324840587
 20
1058.602432132949
 30
0
  0
VERTEX
  5
2C7
  8
8
  6
BYLAYER
 62
  256
 10
570.6689863001427
 20
1056.145844382781
 30
0
  0
VERTEX
  5
2C8
  8
8
  6
BYLAYER
 62
  256
 10
573.5283907349886
 20
1053.856501217599
 30
0
  0
VERTEX
  5
2C9
  8
8
  6
BYLAYER
 62
  256
 10
576.4479587119927
 20
1051.730782932962
 30
0
  0
VERTEX
  5
2CA
  8
8
  6
BYLAYER
 62
  256
 10
579.4256031545513
 20
1049.765069824428
 30
0
  0
VERTEX
  5
2CB
  8
8
  6
BYLAYER
 62
  256
 10
582.4592369860605
 20
1047.955742187556
 30
0
  0
VERTEX
  5
2CC
  8
8
  6
BYLAYER
 62
  256
 10
585.546773129917
 20
1046.299180317902
 30
0
  0
VERTEX
  5
2CD
  8
8
  6
BYLAYER
 62
  256
 10
588.6861245095167
 20
1044.791764511027
 30
0
  0
VERTEX
  5
2CE
  8
8
  6
BYLAYER
 62
  256
 10
591.8752040482564
 20
1043.429875062487
 30
0
  0
VERTEX
  5
2CF
  8
8
  6
BYLAYER
 62
  256
 10
595.1119246695318
 20
1042.209892267842
 30
0
  0
VERTEX
  5
2D0
  8
8
  6
BYLAYER
 62
  256
 10
598.3941992967399
 20
1041.128196422649
 30
0
  0
VERTEX
  5
2D1
  8
8
  6
BYLAYER
 62
  256
 10
601.7199408532763
 20
1040.181167822467
 30
0
  0
VERTEX
  5
2D2
  8
8
  6
BYLAYER
 62
  256
 10
605.0870622625376
 20
1039.365186762854
 30
0
  0
VERTEX
  5
2D3
  8
8
  6
BYLAYER
 62
  256
 10
608.4934764479203
 20
1038.676633539368
 30
0
  0
VERTEX
  5
2D4
  8
8
  6
BYLAYER
 62
  256
 10
611.9370963328206
 20
1038.111888447567
 30
0
  0
VERTEX
  5
2D5
  8
8
  6
BYLAYER
 62
  256
 10
615.4158348406346
 20
1037.66733178301
 30
0
  0
VERTEX
  5
2D6
  8
8
  6
BYLAYER
 62
  256
 10
618.9276048947588
 20
1037.339343841255
 30
0
  0
VERTEX
  5
2D7
  8
8
  6
BYLAYER
 62
  256
 10
622.4703194185894
 20
1037.12430491786
 30
0
  0
VERTEX
  5
2D8
  8
8
  6
BYLAYER
 62
  256
 10
626.0418913355228
 20
1037.018595308384
 30
0
  0
VERTEX
  5
2D9
  8
8
  6
BYLAYER
 62
  256
 10
627.838918554056
 20
1037.009936995279
 30
0
  0
VERTEX
  5
2DA
  8
8
  6
BYLAYER
 62
  256
 10
629.6359457725891
 20
1037.018595308384
 30
0
  0
VERTEX
  5
2DB
  8
8
  6
BYLAYER
 62
  256
 10
633.2075176895224
 20
1037.12430491786
 30
0
  0
VERTEX
  5
2DC
  8
8
  6
BYLAYER
 62
  256
 10
636.7502322133531
 20
1037.339343841255
 30
0
  0
VERTEX
  5
2DD
  8
8
  6
BYLAYER
 62
  256
 10
640.2620022674772
 20
1037.66733178301
 30
0
  0
VERTEX
  5
2DE
  8
8
  6
BYLAYER
 62
  256
 10
643.7407407752913
 20
1038.111888447567
 30
0
  0
VERTEX
  5
2DF
  8
8
  6
BYLAYER
 62
  256
 10
647.1843606601915
 20
1038.676633539368
 30
0
  0
VERTEX
  5
2E0
  8
8
  6
BYLAYER
 62
  256
 10
650.5907748455742
 20
1039.365186762854
 30
0
  0
VERTEX
  5
2E1
  8
8
  6
BYLAYER
 62
  256
 10
653.9578962548356
 20
1040.181167822467
 30
0
  0
VERTEX
  5
2E2
  8
8
  6
BYLAYER
 62
  256
 10
657.283637811372
 20
1041.128196422649
 30
0
  0
VERTEX
  5
2E3
  8
8
  6
BYLAYER
 62
  256
 10
660.56591243858
 20
1042.209892267842
 30
0
  0
VERTEX
  5
2E4
  8
8
  6
BYLAYER
 62
  256
 10
663.8026330598555
 20
1043.429875062487
 30
0
  0
VERTEX
  5
2E5
  8
8
  6
BYLAYER
 62
  256
 10
666.9917125985951
 20
1044.791764511027
 30
0
  0
VERTEX
  5
2E6
  8
8
  6
BYLAYER
 62
  256
 10
670.131063978195
 20
1046.299180317902
 30
0
  0
VERTEX
  5
2E7
  8
8
  6
BYLAYER
 62
  256
 10
673.2186001220514
 20
1047.955742187556
 30
0
  0
VERTEX
  5
2E8
  8
8
  6
BYLAYER
 62
  256
 10
676.2522339535608
 20
1049.765069824428
 30
0
  0
VERTEX
  5
2E9
  8
8
  6
BYLAYER
 62
  256
 10
679.2298783961194
 20
1051.730782932962
 30
0
  0
VERTEX
  5
2EA
  8
8
  6
BYLAYER
 62
  256
 10
682.1494463731233
 20
1053.856501217599
 30
0
  0
VERTEX
  5
2EB
  8
8
  6
BYLAYER
 62
  256
 10
685.0088508079692
 20
1056.145844382781
 30
0
  0
VERTEX
  5
2EC
  8
8
  6
BYLAYER
 62
  256
 10
687.8060046240531
 20
1058.602432132949
 30
0
  0
VERTEX
  5
2ED
  8
8
  6
BYLAYER
 62
  256
 10
690.5388207447716
 20
1061.229884172545
 30
0
  0
VERTEX
  5
2EE
  8
8
  6
BYLAYER
 62
  256
 10
693.2052120935207
 20
1064.031820206012
 30
0
  0
VERTEX
  5
2EF
  8
8
  6
BYLAYER
 62
  256
 10
695.8030915936969
 20
1067.01185993779
 30
0
  0
VERTEX
  5
2F0
  8
8
  6
BYLAYER
 62
  256
 10
698.3303721686964
 20
1070.173623072322
 30
0
  0
VERTEX
  5
2F1
  8
8
  6
BYLAYER
 62
  256
 10
700.7849667419156
 20
1073.520729314049
 30
0
  0
VERTEX
  5
2F2
  8
8
  6
BYLAYER
 62
  256
 10
703.1647882367507
 20
1077.056798367413
 30
0
  0
VERTEX
  5
2F3
  8
8
  6
BYLAYER
 62
  256
 10
705.467749576598
 20
1080.785449936856
 30
0
  0
VERTEX
  5
2F4
  8
8
  6
BYLAYER
 62
  256
 10
707.691763684854
 20
1084.71030372682
 30
0
  0
VERTEX
  5
2F5
  8
8
  6
BYLAYER
 62
  256
 10
709.8347434849148
 20
1088.834979441746
 30
0
  0
VERTEX
  5
2F6
  8
8
  6
BYLAYER
 62
  256
 10
711.8946019001766
 20
1093.163096786076
 30
0
  0
VERTEX
  5
2F7
  8
8
  6
BYLAYER
 62
  256
 10
713.869251854036
 20
1097.698275464252
 30
0
  0
VERTEX
  5
2F8
  8
8
  6
BYLAYER
 62
  256
 10
715.7566062698892
 20
1102.444135180716
 30
0
  0
VERTEX
  5
2F9
  8
8
  6
BYLAYER
 62
  256
 10
717.5545780711325
 20
1107.404295639909
 30
0
  0
VERTEX
  5
2FA
  8
8
  6
BYLAYER
 62
  256
 10
718.4155385619401
 20
1109.975025234808
 30
0
  0
VERTEX
  5
2FB
  8
8
  6
BYLAYER
 62
  256
 10
868.0839613134066
 20
1060.649877045851
 30
0
  0
VERTEX
  5
2FC
  8
8
  6
BYLAYER
 62
  256
 10
867.0042381017873
 20
1057.349367197516
 30
0
  0
VERTEX
  5
2FD
  8
8
  6
BYLAYER
 62
  256
 10
864.4289735453096
 20
1049.111058072786
 30
0
  0
VERTEX
  5
2FE
  8
8
  6
BYLAYER
 62
  256
 10
861.5547756973745
 20
1039.276030841972
 30
0
  0
VERTEX
  5
2FF
  8
8
  6
BYLAYER
 62
  256
 10
858.603920634014
 20
1028.253206846837
 30
0
  0
VERTEX
  5
300
  8
8
  6
BYLAYER
 62
  256
 10
856.4839461757854
 20
1019.437833205548
 30
0
  0
VERTEX
  5
301
  8
8
  6
BYLAYER
 62
  256
 10
855.1594095538167
 20
1013.418937392644
 30
0
  0
VERTEX
  5
302
  8
8
  6
BYLAYER
 62
  256
 10
853.9407389207598
 20
1007.333110643401
 30
0
  0
VERTEX
  5
303
  8
8
  6
BYLAYER
 62
  256
 10
852.8557187861194
 20
1001.231468125541
 30
0
  0
VERTEX
  5
304
  8
8
  6
BYLAYER
 62
  256
 10
851.9321336593986
 20
995.1651250067845
 30
0
  0
VERTEX
  5
305
  8
8
  6
BYLAYER
 62
  256
 10
851.197768050102
 20
989.1851964548511
 30
0
  0
VERTEX
  5
306
  8
8
  6
BYLAYER
 62
  256
 10
850.6804064677337
 20
983.3427976374613
 30
0
  0
VERTEX
  5
307
  8
8
  6
BYLAYER
 62
  256
 10
850.4078334217974
 20
977.6890437223362
 30
0
  0
VERTEX
  5
308
  8
8
  6
BYLAYER
 62
  256
 10
850.3839613134066
 20
974.9599369952789
 30
0
  0
VERTEX
  5
309
  8
8
  6
BYLAYER
 62
  256
 10
850.3839613134066
 20
968.7483057275468
 30
0
  0
VERTEX
  5
30A
  8
8
  6
BYLAYER
 62
  256
 10
850.4953597774227
 20
958.2751339111579
 30
0
  0
VERTEX
  5
30B
  8
8
  6
BYLAYER
 62
  256
 10
850.6958770126516
 20
950.8919275344309
 30
0
  0
VERTEX
  5
30C
  8
8
  6
BYLAYER
 62
  256
 10
851.0523520975029
 20
943.3030693631903
 30
0
  0
VERTEX
  5
30D
  8
8
  6
BYLAYER
 62
  256
 10
851.6093444175832
 20
935.6374911885309
 30
0
  0
VERTEX
  5
30E
  8
8
  6
BYLAYER
 62
  256
 10
852.4114133584989
 20
928.0241248015479
 30
0
  0
VERTEX
  5
30F
  8
8
  6
BYLAYER
 62
  256
 10
853.503118305856
 20
920.591901993336
 30
0
  0
VERTEX
  5
310
  8
8
  6
BYLAYER
 62
  256
 10
854.550263867607
 20
915.2268825854884
 30
0
  0
VERTEX
  5
311
  8
8
  6
BYLAYER
 62
  256
 10
855.3551177701229
 20
911.7675024196122
 30
0
  0
VERTEX
  5
312
  8
8
  6
BYLAYER
 62
  256
 10
856.2574453286529
 20
908.4259322809199
 30
0
  0
VERTEX
  5
313
  8
8
  6
BYLAYER
 62
  256
 10
857.2628164663978
 20
905.2182886432979
 30
0
  0
VERTEX
  5
314
  8
8
  6
BYLAYER
 62
  256
 10
858.3768011065582
 20
902.1606879806335
 30
0
  0
VERTEX
  5
315
  8
8
  6
BYLAYER
 62
  256
 10
859.6049691723351
 20
899.2692467668134
 30
0
  0
VERTEX
  5
316
  8
8
  6
BYLAYER
 62
  256
 10
860.9528905869294
 20
896.5600814757242
 30
0
  0
VERTEX
  5
317
  8
8
  6
BYLAYER
 62
  256
 10
862.4261352735416
 20
894.0493085812533
 30
0
  0
VERTEX
  5
318
  8
8
  6
BYLAYER
 62
  256
 10
864.0302731553727
 20
891.7530445572872
 30
0
  0
VERTEX
  5
319
  8
8
  6
BYLAYER
 62
  256
 10
865.7708741556235
 20
889.6874058777129
 30
0
  0
VERTEX
  5
31A
  8
8
  6
BYLAYER
 62
  256
 10
867.6535081974947
 20
887.868509016417
 30
0
  0
VERTEX
  5
31B
  8
8
  6
BYLAYER
 62
  256
 10
869.6837452041873
 20
886.3124704472866
 30
0
  0
VERTEX
  5
31C
  8
8
  6
BYLAYER
 62
  256
 10
871.867155098902
 20
885.0354066442087
 30
0
  0
VERTEX
  5
31D
  8
8
  6
BYLAYER
 62
  256
 10
874.2093078048391
 20
884.0534340810699
 30
0
  0
VERTEX
  5
31E
  8
8
  6
BYLAYER
 62
  256
 10
876.7157732452005
 20
883.3826692317573
 30
0
  0
VERTEX
  5
31F
  8
8
  6
BYLAYER
 62
  256
 10
879.3921213431861
 20
883.0392285701574
 30
0
  0
VERTEX
  5
320
  8
8
  6
BYLAYER
 62
  256
 10
880.8031685540559
 20
883.0099369952786
 30
0
  0
VERTEX
  5
321
  8
8
  6
BYLAYER
 62
  256
 10
880.8031685540559
 20
720.1299369952789
 30
0
  0
VERTEX
  5
322
  8
8
  6
BYLAYER
 62
  256
 10
880.8031685540559
 20
539.5599369952786
 30
0
  0
SEQEND
  5
323
  8
8
  6
BYLAYER
 62
  256
  0
POLYLINE
  5
324
  8
8
  6
BYLAYER
 62
  256
 66
    1
 10
0
 20
0
 30
0
 70
    0
  0
VERTEX
  5
325
  8
8
  6
BYLAYER
 62
  256
 10
404.111483323551
 20
539.5599369952786
 30
0
  0
VERTEX
  5
326
  8
8
  6
BYLAYER
 62
  256
 10
404.111483323551
 20
539.5599369952786
 30
0
  0
VERTEX
  5
327
  8
8
  6
BYLAYER
 62
  256
 10
405.6616553584371
 20
549.4433013858988
 30
0
  0
VERTEX
  5
328
  8
8
  6
BYLAYER
 62
  256
 10
408.0703331072835
 20
565.6114752557919
 30
0
  0
VERTEX
  5
329
  8
8
  6
BYLAYER
 62
  256
 10
410.5740719481232
 20
581.8120825428026
 30
0
  0
VERTEX
  5
32A
  8
8
  6
BYLAYER
 62
  256
 10
412.4049479398329
 20
592.5672894155732
 30
0
  0
VERTEX
  5
32B
  8
8
  6
BYLAYER
 62
  256
 10
414.4498807506701
 20
603.2449692853544
 30
0
  0
VERTEX
  5
32C
  8
8
  6
BYLAYER
 62
  256
 10
416.7792833335667
 20
613.808922004211
 30
0
  0
VERTEX
  5
32D
  8
8
  6
BYLAYER
 62
  256
 10
418.0889185540559
 20
619.0299369952787
 30
0
  0
VERTEX
  5
32E
  8
8
  6
BYLAYER
 62
  256
 10
418.4376770685989
 20
620.3364460580443
 30
0
  0
VERTEX
  5
32F
  8
8
  6
BYLAYER
 62
  256
 10
419.239547874335
 20
622.921168899549
 30
0
  0
VERTEX
  5
330
  8
8
  6
BYLAYER
 62
  256
 10
420.6350369006387
 20
626.7459617613656
 30
0
  0
VERTEX
  5
331
  8
8
  6
BYLAYER
 62
  256
 10
422.812687297387
 20
631.7594855961873
 30
0
  0
VERTEX
  5
332
  8
8
  6
BYLAYER
 62
  256
 10
425.2172958258948
 20
636.7109950381823
 30
0
  0
VERTEX
  5
333
  8
8
  6
BYLAYER
 62
  256
 10
428.9879137615991
 20
644.0926342726763
 30
0
  0
VERTEX
  5
334
  8
8
  6
BYLAYER
 62
  256
 10
432.5476884012464
 20
651.52890505493
 30
0
  0
VERTEX
  5
335
  8
8
  6
BYLAYER
 62
  256
 10
434.1189686972695
 20
655.3025358544477
 30
0
  0
VERTEX
  5
336
  8
8
  6
BYLAYER
 62
  256
 10
435.0614725187812
 20
657.8463290461135
 30
0
  0
VERTEX
  5
337
  8
8
  6
BYLAYER
 62
  256
 10
435.4889185540559
 20
659.1299369952787
 30
0
  0
VERTEX
  5
338
  8
8
  6
BYLAYER
 62
  256
 10
437.946514635145
 20
666.5596228094279
 30
0
  0
VERTEX
  5
339
  8
8
  6
BYLAYER
 62
  256
 10
441.723164795249
 20
677.8488623382744
 30
0
  0
VERTEX
  5
33A
  8
8
  6
BYLAYER
 62
  256
 10
444.1307234408447
 20
685.4406123161243
 30
0
  0
VERTEX
  5
33B
  8
8
  6
BYLAYER
 62
  256
 10
446.3343720907638
 20
693.0819987208799
 30
0
  0
VERTEX
  5
33C
  8
8
  6
BYLAYER
 62
  256
 10
447.7798848509217
 20
698.8431309761487
 30
0
  0
VERTEX
  5
33D
  8
8
  6
BYLAYER
 62
  256
 10
448.6330115287615
 20
702.6952906532838
 30
0
  0
VERTEX
  5
33E
  8
8
  6
BYLAYER
 62
  256
 10
449.3777016174647
 20
706.5564029298921
 30
0
  0
VERTEX
  5
33F
  8
8
  6
BYLAYER
 62
  256
 10
450.0011864303165
 20
710.4256996932509
 30
0
  0
VERTEX
  5
340
  8
8
  6
BYLAYER
 62
  256
 10
450.4906972806018
 20
714.302412830637
 30
0
  0
VERTEX
  5
341
  8
8
  6
BYLAYER
 62
  256
 10
450.8334654816059
 20
718.1857742293276
 30
0
  0
VERTEX
  5
342
  8
8
  6
BYLAYER
 62
  256
 10
450.9389185540559
 20
720.1299369952789
 30
0
  0
VERTEX
  5
343
  8
8
  6
BYLAYER
 62
  256
 10
451.5904020024573
 20
733.3106438738272
 30
0
  0
VERTEX
  5
344
  8
8
  6
BYLAYER
 62
  256
 10
452.337564784045
 20
753.4759914776654
 30
0
  0
VERTEX
  5
345
  8
8
  6
BYLAYER
 62
  256
 10
452.4355556485959
 20
763.60322644921
 30
0
  0
VERTEX
  5
346
  8
8
  6
BYLAYER
 62
  256
 10
452.3569306898545
 20
770.3478358148116
 30
0
  0
VERTEX
  5
347
  8
8
  6
BYLAYER
 62
  256
 10
452.1300004119684
 20
777.0738861991224
 30
0
  0
VERTEX
  5
348
  8
8
  6
BYLAYER
 62
  256
 10
451.7315082784893
 20
783.7695603786132
 30
0
  0
VERTEX
  5
349
  8
8
  6
BYLAYER
 62
  256
 10
451.1381977529692
 20
790.4230411297547
 30
0
  0
VERTEX
  5
34A
  8
8
  6
BYLAYER
 62
  256
 10
450.3268122989597
 20
797.0225112290177
 30
0
  0
VERTEX
  5
34B
  8
8
  6
BYLAYER
 62
  256
 10
449.2740953800129
 20
803.5561534528734
 30
0
  0
VERTEX
  5
34C
  8
8
  6
BYLAYER
 62
  256
 10
447.9567904596802
 20
810.0121505777923
 30
0
  0
VERTEX
  5
34D
  8
8
  6
BYLAYER
 62
  256
 10
446.3516410015139
 20
816.3786853802457
 30
0
  0
VERTEX
  5
34E
  8
8
  6
BYLAYER
 62
  256
 10
444.4353904690656
 20
822.6439406367042
 30
0
  0
VERTEX
  5
34F
  8
8
  6
BYLAYER
 62
  256
 10
443.3389185540559
 20
825.7299369952785
 30
0
  0
VERTEX
  5
350
  8
8
  6
BYLAYER
 62
  256
 10
442.8999865278158
 20
826.8954203716146
 30
0
  0
VERTEX
  5
351
  8
8
  6
BYLAYER
 62
  256
 10
441.9217467097305
 20
829.1687223376432
 30
0
  0
VERTEX
  5
352
  8
8
  6
BYLAYER
 62
  256
 10
440.8293243487565
 20
831.3765033297567
 30
0
  0
VERTEX
  5
353
  8
8
  6
BYLAYER
 62
  256
 10
439.6296843069348
 20
833.5228486480183
 30
0
  0
VERTEX
  5
354
  8
8
  6
BYLAYER
 62
  256
 10
438.3297914463068
 20
835.6118435924918
 30
0
  0
VERTEX
  5
355
  8
8
  6
BYLAYER
 62
  256
 10
436.9366106289136
 20
837.6475734632403
 30
0
  0
VERTEX
  5
356
  8
8
  6
BYLAYER
 62
  256
 10
434.6966445948117
 20
840.6156143279636
 30
0
  0
VERTEX
  5
357
  8
8
  6
BYLAYER
 62
  256
 10
431.4341335639284
 20
844.4165072278726
 30
0
  0
VERTEX
  5
358
  8
8
  6
BYLAYER
 62
  256
 10
427.9238382227257
 20
848.0778752340238
 30
0
  0
VERTEX
  5
359
  8
8
  6
BYLAYER
 62
  256
 10
424.2214774675336
 20
851.6324007469243
 30
0
  0
VERTEX
  5
35A
  8
8
  6
BYLAYER
 62
  256
 10
420.3827701946815
 20
855.1127661670819
 30
0
  0
VERTEX
  5
35B
  8
8
  6
BYLAYER
 62
  256
 10
414.4905758101163
 20
860.2648136359686
 30
0
  0
VERTEX
  5
35C
  8
8
  6
BYLAYER
 62
  256
 10
408.6057582334613
 20
865.4357258761685
 30
0
  0
VERTEX
  5
35D
  8
8
  6
BYLAYER
 62
  256
 10
404.7788538532653
 20
868.9462749304266
 30
0
  0
VERTEX
  5
35E
  8
8
  6
BYLAYER
 62
  256
 10
401.0941974370573
 20
872.5460758944783
 30
0
  0
VERTEX
  5
35F
  8
8
  6
BYLAYER
 62
  256
 10
397.6075078811672
 20
876.2678111688311
 30
0
  0
VERTEX
  5
360
  8
8
  6
BYLAYER
 62
  256
 10
394.3745040819243
 20
880.1441631539922
 30
0
  0
VERTEX
  5
361
  8
8
  6
BYLAYER
 62
  256
 10
392.1607257159034
 20
883.1791739568765
 30
0
  0
VERTEX
  5
362
  8
8
  6
BYLAYER
 62
  256
 10
390.7867245990764
 20
885.2639522330388
 30
0
  0
VERTEX
  5
363
  8
8
  6
BYLAYER
 62
  256
 10
390.1389185540559
 20
886.3299369952788
 30
0
  0
VERTEX
  5
364
  8
8
  6
BYLAYER
 62
  256
 10
389.6595934585077
 20
887.1587347397277
 30
0
  0
VERTEX
  5
365
  8
8
  6
BYLAYER
 62
  256
 10
388.8969608443227
 20
888.7115977155387
 30
0
  0
VERTEX
  5
366
  8
8
  6
BYLAYER
 62
  256
 10
388.8969608443227
 20
888.7115977155387
 30
0
  0
SEQEND
  5
367
  8
8
  6
BYLAYER
 62
  256
  0
POLYLINE
  5
368
  8
8
  6
BYLAYER
 62
  256
 66
    1
 10
0
 20
0
 30
0
 70
    0
  0
VERTEX
  5
369
  8
8
  6
BYLAYER
 62
  256
 10
851.5663537845609
 20
539.5599369952786
 30
0
  0
VERTEX
  5
36A
  8
8
  6
BYLAYER
 62
  256
 10
851.5663537845609
 20
539.5599369952786
 30
0
  0
VERTEX
  5
36B
  8
8
  6
BYLAYER
 62
  256
 10
850.0161817496747
 20
549.4433013858988
 30
0
  0
VERTEX
  5
36C
  8
8
  6
BYLAYER
 62
  256
 10
847.6075040008284
 20
565.6114752557919
 30
0
  0
VERTEX
  5
36D
  8
8
  6
BYLAYER
 62
  256
 10
845.1037651599887
 20
581.8120825428026
 30
0
  0
VERTEX
  5
36E
  8
8
  6
BYLAYER
 62
  256
 10
843.2728891682789
 20
592.5672894155732
 30
0
  0
VERTEX
  5
36F
  8
8
  6
BYLAYER
 62
  256
 10
841.2279563574418
 20
603.2449692853544
 30
0
  0
VERTEX
  5
370
  8
8
  6
BYLAYER
 62
  256
 10
838.8985537745451
 20
613.808922004211
 30
0
  0
VERTEX
  5
371
  8
8
  6
BYLAYER
 62
  256
 10
837.588918554056
 20
619.0299369952787
 30
0
  0
VERTEX
  5
372
  8
8
  6
BYLAYER
 62
  256
 10
837.2401600395131
 20
620.3364460580443
 30
0
  0
VERTEX
  5
373
  8
8
  6
BYLAYER
 62
  256
 10
836.4382892337768
 20
622.921168899549
 30
0
  0
VERTEX
  5
374
  8
8
  6
BYLAYER
 62
  256
 10
835.042800207473
 20
626.7459617613656
 30
0
  0
VERTEX
  5
375
  8
8
  6
BYLAYER
 62
  256
 10
832.8651498107249
 20
631.7594855961873
 30
0
  0
VERTEX
  5
376
  8
8
  6
BYLAYER
 62
  256
 10
830.460541282217
 20
636.7109950381823
 30
0
  0
VERTEX
  5
377
  8
8
  6
BYLAYER
 62
  256
 10
826.6899233465128
 20
644.0926342726763
 30
0
  0
VERTEX
  5
378
  8
8
  6
BYLAYER
 62
  256
 10
823.1301487068655
 20
651.52890505493
 30
0
  0
VERTEX
  5
379
  8
8
  6
BYLAYER
 62
  256
 10
821.5588684108424
 20
655.3025358544477
 30
0
  0
VERTEX
  5
37A
  8
8
  6
BYLAYER
 62
  256
 10
820.6163645893307
 20
657.8463290461135
 30
0
  0
VERTEX
  5
37B
  8
8
  6
BYLAYER
 62
  256
 10
820.188918554056
 20
659.1299369952787
 30
0
  0
VERTEX
  5
37C
  8
8
  6
BYLAYER
 62
  256
 10
817.7313224729669
 20
666.5596228094279
 30
0
  0
VERTEX
  5
37D
  8
8
  6
BYLAYER
 62
  256
 10
813.954672312863
 20
677.8488623382744
 30
0
  0
VERTEX
  5
37E
  8
8
  6
BYLAYER
 62
  256
 10
811.5471136672671
 20
685.4406123161243
 30
0
  0
VERTEX
  5
37F
  8
8
  6
BYLAYER
 62
  256
 10
809.343465017348
 20
693.0819987208799
 30
0
  0
VERTEX
  5
380
  8
8
  6
BYLAYER
 62
  256
 10
807.8979522571901
 20
698.8431309761487
 30
0
  0
VERTEX
  5
381
  8
8
  6
BYLAYER
 62
  256
 10
807.0448255793505
 20
702.6952906532838
 30
0
  0
VERTEX
  5
382
  8
8
  6
BYLAYER
 62
  256
 10
806.3001354906472
 20
706.5564029298921
 30
0
  0
VERTEX
  5
383
  8
8
  6
BYLAYER
 62
  256
 10
805.6766506777954
 20
710.4256996932509
 30
0
  0
VERTEX
  5
384
  8
8
  6
BYLAYER
 62
  256
 10
805.1871398275101
 20
714.302412830637
 30
0
  0
VERTEX
  5
385
  8
8
  6
BYLAYER
 62
  256
 10
804.844371626506
 20
718.1857742293276
 30
0
  0
VERTEX
  5
386
  8
8
  6
BYLAYER
 62
  256
 10
804.738918554056
 20
720.1299369952789
 30
0
  0
VERTEX
  5
387
  8
8
  6
BYLAYER
 62
  256
 10
804.0874351056547
 20
733.3106438738272
 30
0
  0
VERTEX
  5
388
  8
8
  6
BYLAYER
 62
  256
 10
803.340272324067
 20
753.4759914776654
 30
0
  0
VERTEX
  5
389
  8
8
  6
BYLAYER
 62
  256
 10
803.2422814595161
 20
763.60322644921
 30
0
  0
VERTEX
  5
38A
  8
8
  6
BYLAYER
 62
  256
 10
803.3209064182574
 20
770.3478358148116
 30
0
  0
VERTEX
  5
38B
  8
8
  6
BYLAYER
 62
  256
 10
803.5478366961435
 20
777.0738861991224
 30
0
  0
VERTEX
  5
38C
  8
8
  6
BYLAYER
 62
  256
 10
803.9463288296225
 20
783.7695603786132
 30
0
  0
VERTEX
  5
38D
  8
8
  6
BYLAYER
 62
  256
 10
804.5396393551428
 20
790.4230411297547
 30
0
  0
VERTEX
  5
38E
  8
8
  6
BYLAYER
 62
  256
 10
805.3510248091521
 20
797.0225112290177
 30
0
  0
VERTEX
  5
38F
  8
8
  6
BYLAYER
 62
  256
 10
806.403741728099
 20
803.5561534528734
 30
0
  0
VERTEX
  5
390
  8
8
  6
BYLAYER
 62
  256
 10
807.7210466484316
 20
810.0121505777923
 30
0
  0
VERTEX
  5
391
  8
8
  6
BYLAYER
 62
  256
 10
809.3261961065979
 20
816.3786853802457
 30
0
  0
VERTEX
  5
392
  8
8
  6
BYLAYER
 62
  256
 10
811.2424466390463
 20
822.6439406367042
 30
0
  0
VERTEX
  5
393
  8
8
  6
BYLAYER
 62
  256
 10
812.338918554056
 20
825.7299369952785
 30
0
  0
VERTEX
  5
394
  8
8
  6
BYLAYER
 62
  256
 10
812.7778505802961
 20
826.8954203716146
 30
0
  0
VERTEX
  5
395
  8
8
  6
BYLAYER
 62
  256
 10
813.7560903983815
 20
829.1687223376432
 30
0
  0
VERTEX
  5
396
  8
8
  6
BYLAYER
 62
  256
 10
814.8485127593555
 20
831.3765033297567
 30
0
  0
VERTEX
  5
397
  8
8
  6
BYLAYER
 62
  256
 10
816.0481528011771
 20
833.5228486480183
 30
0
  0
VERTEX
  5
398
  8
8
  6
BYLAYER
 62
  256
 10
817.3480456618051
 20
835.6118435924918
 30
0
  0
VERTEX
  5
399
  8
8
  6
BYLAYER
 62
  256
 10
818.7412264791983
 20
837.6475734632403
 30
0
  0
VERTEX
  5
39A
  8
8
  6
BYLAYER
 62
  256
 10
820.9811925133002
 20
840.6156143279636
 30
0
  0
VERTEX
  5
39B
  8
8
  6
BYLAYER
 62
  256
 10
824.2437035441835
 20
844.4165072278726
 30
0
  0
VERTEX
  5
39C
  8
8
  6
BYLAYER
 62
  256
 10
827.7539988853861
 20
848.0778752340238
 30
0
  0
VERTEX
  5
39D
  8
8
  6
BYLAYER
 62
  256
 10
831.4563596405783
 20
851.6324007469243
 30
0
  0
VERTEX
  5
39E
  8
8
  6
BYLAYER
 62
  256
 10
835.2950669134304
 20
855.1127661670819
 30
0
  0
VERTEX
  5
39F
  8
8
  6
BYLAYER
 62
  256
 10
841.1872612979955
 20
860.2648136359686
 30
0
  0
VERTEX
  5
3A0
  8
8
  6
BYLAYER
 62
  256
 10
847.0720788746506
 20
865.4357258761685
 30
0
  0
VERTEX
  5
3A1
  8
8
  6
BYLAYER
 62
  256
 10
850.8989832548465
 20
868.9462749304266
 30
0
  0
VERTEX
  5
3A2
  8
8
  6
BYLAYER
 62
  256
 10
854.5836396710545
 20
872.5460758944783
 30
0
  0
VERTEX
  5
3A3
  8
8
  6
BYLAYER
 62
  256
 10
858.0703292269446
 20
876.2678111688311
 30
0
  0
VERTEX
  5
3A4
  8
8
  6
BYLAYER
 62
  256
 10
861.3033330261876
 20
880.1441631539922
 30
0
  0
VERTEX
  5
3A5
  8
8
  6
BYLAYER
 62
  256
 10
863.5171113922086
 20
883.1791739568765
 30
0
  0
VERTEX
  5
3A6
  8
8
  6
BYLAYER
 62
  256
 10
864.8911125090356
 20
885.2639522330388
 30
0
  0
VERTEX
  5
3A7
  8
8
  6
BYLAYER
 62
  256
 10
865.538918554056
 20
886.3299369952788
 30
0
  0
VERTEX
  5
3A8
  8
8
  6
BYLAYER
 62
  256
 10
866.0182436496042
 20
887.1587347397277
 30
0
  0
VERTEX
  5
3A9
  8
8
  6
BYLAYER
 62
  256
 10
866.7808762637892
 20
888.7115977155387
 30
0
  0
VERTEX
  5
3AA
  8
8
  6
BYLAYER
 62
  256
 10
866.7808762637892
 20
888.7115977155387
 30
0
  0
SEQEND
  5
3AB
  8
8
  6
BYLAYER
 62
  256
  0
POLYLINE
  5
3AC
  8
8
  6
BYLAYER
 62
  256
 66
    1
 10
0
 20
0
 30
0
 70
    0
  0
VERTEX
  5
3AD
  8
8
  6
BYLAYER
 62
  256
 10
390.1389185540559
 20
886.3299369952788
 30
0
  0
VERTEX
  5
3AE
  8
8
  6
BYLAYER
 62
  256
 10
865.538918554056
 20
886.3299369952788
 30
0
  0
SEQEND
  5
3AF
  8
8
  6
BYLAYER
 62
  256
  0
POLYLINE
  5
3B0
  8
8
  6
BYLAYER
 62
  256
 66
    1
 10
0
 20
0
 30
0
 70
    0
  0
VERTEX
  5
3B1
  8
8
  6
BYLAYER
 62
  256
 10
450.9389185540559
 20
720.1299369952789
 30
0
  0
VERTEX
  5
3B2
  8
8
  6
BYLAYER
 62
  256
 10
804.738918554056
 20
720.1299369952789
 30
0
  0
SEQEND
  5
3B3
  8
8
  6
BYLAYER
 62
  256
  0
LINE
  5
3B4
  8
7
  6
BYLAYER
 62
  256
 10
627.8389185540558
 20
539.5599369952786
 11
627.838918554056
 21
1037.009936995279
  0
TEXT
  5
3B5
  8
1
  6
BYLAYER
 62
  256
 10
577.8389185540559
 20
918.8299369952787
 30
0
 40
2.5
  1
Piece Name: Sweatshirt Front
 50
0
 41
1
 51
0
  7
STANDARD
 71
    0
210
0
220
0
230
1
  0
TEXT
  5
3B6
  8
1
  6
BYLAYER
 62
  256
 10
577.8389185540559
 20
916.3299369952787
 30
0
 40
2.5
  1
File Name: GBlock-201-Sweatshirt-Parametric-Scalable-V4-Hood-csr0283a-EXTRA
 50
0
 41
1
 51
0
  7
STANDARD
 71
    0
210
0
220
0
230
1
  0
TEXT
  5
3B7
  8
1
  6
BYLAYER
 62
  256
 10
577.8389185540559
 20
913.8299369952787
 30
0
 40
2.5
  1
Measurement Name: csr0283a-EXTRA
 50
0
 41
1
 51
0
  7
STANDARD
 71
    0
210
0
220
0
230
1
  0
TEXT
  5
3B8
  8
1
  6
BYLAYER
 62
  256
 10
577.8389185540559
 20
911.3299369952788
 30
0
 40
2.5
  1
Date: 03-25-2026
 50
0
 41
1
 51
0
  7
STANDARD
 71
    0
210
0
220
0
230
1
  0
ENDBLK
  8
1
  0
BLOCK
  8
1
  2
SLEEVE
 70
    0
 10
0
 20
0
  3
SLEEVE
  1

  0
POLYLINE
  5
3B9
  8
1
  6
BYLAYER
 62
  256
 66
    1
 10
0
 20
0
 30
0
 70
    1
  0
VERTEX
  5
3BA
  8
1
  6
BYLAYER
 62
  256
 10
65.65752790347729
 20
332.753937797151
 30
0
  0
VERTEX
  5
3BB
  8
1
  6
BYLAYER
 62
  256
 10
72.52359941482969
 20
395.230567886245
 30
0
  0
VERTEX
  5
3BC
  8
1
  6
BYLAYER
 62
  256
 10
79.3896685540565
 20
457.7071763905921
 30
0
  0
VERTEX
  5
3BD
  8
1
  6
BYLAYER
 62
  256
 10
79.38966855405627
 20
527.5599369952782
 30
0
  0
VERTEX
  5
3BE
  8
1
  6
BYLAYER
 62
  256
 10
309.5776685540562
 20
527.5599369952782
 30
0
  0
VERTEX
  5
3BF
  8
1
  6
BYLAYER
 62
  256
 10
365.3746685540564
 20
527.5599369952787
 30
0
  0
VERTEX
  5
3C0
  8
1
  6
BYLAYER
 62
  256
 10
527.8830622424588
 20
527.5599369952787
 30
0
  0
VERTEX
  5
3C1
  8
1
  6
BYLAYER
 62
  256
 10
611.309891140767
 20
527.5599369952787
 30
0
  0
VERTEX
  5
3C2
  8
1
  6
BYLAYER
 62
  256
 10
611.373073694494
 20
518.706529319236
 30
0
  0
VERTEX
  5
3C3
  8
1
  6
BYLAYER
 62
  256
 10
611.534358412533
 20
514.8886729121429
 30
0
  0
VERTEX
  5
3C4
  8
1
  6
BYLAYER
 62
  256
 10
611.8538154364296
 20
511.0610190627846
 30
0
  0
VERTEX
  5
3C5
  8
1
  6
BYLAYER
 62
  256
 10
612.331182205775
 20
507.212674978784
 30
0
  0
VERTEX
  5
3C6
  8
1
  6
BYLAYER
 62
  256
 10
612.9648588425466
 20
503.3576577911542
 30
0
  0
VERTEX
  5
3C7
  8
1
  6
BYLAYER
 62
  256
 10
613.7529868321371
 20
499.5099192404139
 30
0
  0
VERTEX
  5
3C8
  8
1
  6
BYLAYER
 62
  256
 10
614.6934662187552
 20
495.6833378229225
 30
0
  0
VERTEX
  5
3C9
  8
1
  6
BYLAYER
 62
  256
 10
615.7839666115897
 20
491.8917114513483
 30
0
  0
VERTEX
  5
3CA
  8
1
  6
BYLAYER
 62
  256
 10
617.0219328672067
 20
488.1487485529353
 30
0
  0
VERTEX
  5
3CB
  8
1
  6
BYLAYER
 62
  256
 10
618.404586501235
 20
484.4680557264976
 30
0
  0
VERTEX
  5
3CC
  8
1
  6
BYLAYER
 62
  256
 10
619.928924138668
 20
480.8631201496452
 30
0
  0
VERTEX
  5
3CD
  8
1
  6
BYLAYER
 62
  256
 10
621.5917146985582
 20
477.3472849243906
 30
0
  0
VERTEX
  5
3CE
  8
1
  6
BYLAYER
 62
  256
 10
623.3894975813619
 20
473.9337155403493
 30
0
  0
VERTEX
  5
3CF
  8
1
  6
BYLAYER
 62
  256
 10
625.3185849328305
 20
470.6353557169944
 30
0
  0
VERTEX
  5
3D0
  8
1
  6
BYLAYER
 62
  256
 10
627.3750721238475
 20
467.4648711977732
 30
0
  0
VERTEX
  5
3D1
  8
1
  6
BYLAYER
 62
  256
 10
629.5724041067364
 20
464.4101940436719
 30
0
  0
VERTEX
  5
3D2
  8
1
  6
BYLAYER
 62
  256
 10
630.7231067882828
 20
462.9438689790455
 30
0
  0
VERTEX
  5
3D3
  8
1
  6
BYLAYER
 62
  256
 10
632.0350389178766
 20
461.2867655538315
 30
0
  0
VERTEX
  5
3D4
  8
1
  6
BYLAYER
 62
  256
 10
634.6225793534672
 20
457.8722584730791
 30
0
  0
VERTEX
  5
3D5
  8
1
  6
BYLAYER
 62
  256
 10
637.1405269191049
 20
454.3718693812736
 30
0
  0
VERTEX
  5
3D6
  8
1
  6
BYLAYER
 62
  256
 10
639.5873446900649
 20
450.7895173312745
 30
0
  0
VERTEX
  5
3D7
  8
1
  6
BYLAYER
 62
  256
 10
643.1066168585477
 20
445.3169134346453
 30
0
  0
VERTEX
  5
3D8
  8
1
  6
BYLAYER
 62
  256
 10
647.5018824227679
 20
437.8018740876901
 30
0
  0
VERTEX
  5
3D9
  8
1
  6
BYLAYER
 62
  256
 10
651.5841743301614
 20
430.0505561698858
 30
0
  0
VERTEX
  5
3DA
  8
1
  6
BYLAYER
 62
  256
 10
651.9186225417196
 20
429.3433926631968
 30
0
  0
VERTEX
  5
3DB
  8
1
  6
BYLAYER
 62
  256
 10
654.7827229470374
 20
421.0442460826833
 30
0
  0
VERTEX
  5
3DC
  8
1
  6
BYLAYER
 62
  256
 10
657.3100423314162
 20
412.5931470181261
 30
0
  0
VERTEX
  5
3DD
  8
1
  6
BYLAYER
 62
  256
 10
659.4955957555628
 20
404.029602259056
 30
0
  0
VERTEX
  5
3DE
  8
1
  6
BYLAYER
 62
  256
 10
661.3391424160989
 20
395.3785519660502
 30
0
  0
VERTEX
  5
3DF
  8
1
  6
BYLAYER
 62
  256
 10
662.8402049192645
 20
386.6648421603596
 30
0
  0
VERTEX
  5
3E0
  8
1
  6
BYLAYER
 62
  256
 10
663.998072743189
 20
377.9132420420974
 30
0
  0
VERTEX
  5
3E1
  8
1
  6
BYLAYER
 62
  256
 10
664.8118021830111
 20
369.1484564135848
 30
0
  0
VERTEX
  5
3E2
  8
1
  6
BYLAYER
 62
  256
 10
665.2802116749181
 20
360.3951351485642
 30
0
  0
VERTEX
  5
3E3
  8
1
  6
BYLAYER
 62
  256
 10
665.4018716576244
 20
351.6778816901237
 30
0
  0
VERTEX
  5
3E4
  8
1
  6
BYLAYER
 62
  256
 10
665.175088337818
 20
343.021262735793
 30
0
  0
VERTEX
  5
3E5
  8
1
  6
BYLAYER
 62
  256
 10
664.5995597812937
 20
334.4747519184812
 30
0
  0
VERTEX
  5
3E6
  8
1
  6
BYLAYER
 62
  256
 10
664.1619576000347
 20
330.2129955300292
 30
0
  0
VERTEX
  5
3E7
  8
1
  6
BYLAYER
 62
  256
 10
663.571113915076
 20
325.1380715652888
 30
0
  0
VERTEX
  5
3E8
  8
1
  6
BYLAYER
 62
  256
 10
662.1089194965716
 20
315.3831438894154
 30
0
  0
VERTEX
  5
3E9
  8
1
  6
BYLAYER
 62
  256
 10
660.3009207284534
 20
305.9717789226852
 30
0
  0
VERTEX
  5
3EA
  8
1
  6
BYLAYER
 62
  256
 10
658.1571169719568
 20
296.9083121470409
 30
0
  0
VERTEX
  5
3EB
  8
1
  6
BYLAYER
 62
  256
 10
655.6845934864616
 20
288.1752068920746
 30
0
  0
VERTEX
  5
3EC
  8
1
  6
BYLAYER
 62
  256
 10
652.8909616421622
 20
279.755259680217
 30
0
  0
VERTEX
  5
3ED
  8
1
  6
BYLAYER
 62
  256
 10
649.7844214096641
 20
271.6314533007912
 30
0
  0
VERTEX
  5
3EE
  8
1
  6
BYLAYER
 62
  256
 10
646.3737764773302
 20
263.7867806131534
 30
0
  0
VERTEX
  5
3EF
  8
1
  6
BYLAYER
 62
  256
 10
642.6683946840207
 20
256.2040589162507
 30
0
  0
VERTEX
  5
3F0
  8
1
  6
BYLAYER
 62
  256
 10
638.6781154386724
 20
248.8657578411979
 30
0
  0
VERTEX
  5
3F1
  8
1
  6
BYLAYER
 62
  256
 10
634.4131150390857
 20
241.7538619455416
 30
0
  0
VERTEX
  5
3F2
  8
1
  6
BYLAYER
 62
  256
 10
630.593492036372
 20
235.9316405217032
 30
0
  0
VERTEX
  5
3F3
  8
1
  6
BYLAYER
 62
  256
 10
629.2815981127045
 20
234.3423204979253
 30
0
  0
VERTEX
  5
3F4
  8
1
  6
BYLAYER
 62
  256
 10
623.7932984394232
 20
228.1895573751268
 30
0
  0
VERTEX
  5
3F5
  8
1
  6
BYLAYER
 62
  256
 10
618.0811416695677
 20
222.2312536863276
 30
0
  0
VERTEX
  5
3F6
  8
1
  6
BYLAYER
 62
  256
 10
612.1528383163213
 20
216.4461342409019
 30
0
  0
VERTEX
  5
3F7
  8
1
  6
BYLAYER
 62
  256
 10
606.0269881848415
 20
210.8228668725137
 30
0
  0
VERTEX
  5
3F8
  8
1
  6
BYLAYER
 62
  256
 10
602.8898180982375
 20
208.0747763273301
 30
0
  0
VERTEX
  5
3F9
  8
1
  6
BYLAYER
 62
  256
 10
601.466390632353
 20
206.8213097709461
 30
0
  0
VERTEX
  5
3FA
  8
1
  6
BYLAYER
 62
  256
 10
598.6856735292876
 20
204.1980454577323
 30
0
  0
VERTEX
  5
3FB
  8
1
  6
BYLAYER
 62
  256
 10
596.0004643371715
 20
201.4534724228905
 30
0
  0
VERTEX
  5
3FC
  8
1
  6
BYLAYER
 62
  256
 10
593.4012951424386
 20
198.5802913282945
 30
0
  0
VERTEX
  5
3FD
  8
1
  6
BYLAYER
 62
  256
 10
590.8962890850928
 20
195.5881321717012
 30
0
  0
VERTEX
  5
3FE
  8
1
  6
BYLAYER
 62
  256
 10
588.4933942789053
 20
192.4867673412839
 30
0
  0
VERTEX
  5
3FF
  8
1
  6
BYLAYER
 62
  256
 10
586.2003867416164
 20
189.2860937276088
 30
0
  0
VERTEX
  5
400
  8
1
  6
BYLAYER
 62
  256
 10
584.0248718610852
 20
185.996119562823
 30
0
  0
VERTEX
  5
401
  8
1
  6
BYLAYER
 62
  256
 10
581.9742833623877
 20
182.6269546275499
 30
0
  0
VERTEX
  5
402
  8
1
  6
BYLAYER
 62
  256
 10
580.0558789941191
 20
179.1888024750276
 30
0
  0
VERTEX
  5
403
  8
1
  6
BYLAYER
 62
  256
 10
578.2767323329592
 20
175.6919532675435
 30
0
  0
VERTEX
  5
404
  8
1
  6
BYLAYER
 62
  256
 10
576.6437202595781
 20
172.1467756828918
 30
0
  0
VERTEX
  5
405
  8
1
  6
BYLAYER
 62
  256
 10
575.1635058345555
 20
168.5637061166753
 30
0
  0
VERTEX
  5
406
  8
1
  6
BYLAYER
 62
  256
 10
573.8425165556603
 20
164.9532330767815
 30
0
  0
VERTEX
  5
407
  8
1
  6
BYLAYER
 62
  256
 10
572.6869183744267
 20
161.3258742506218
 30
0
  0
VERTEX
  5
408
  8
1
  6
BYLAYER
 62
  256
 10
571.6954899601695
 20
157.6659459868321
 30
0
  0
VERTEX
  5
409
  8
1
  6
BYLAYER
 62
  256
 10
569.7092067395356
 20
149.0533820495565
 30
0
  0
VERTEX
  5
40A
  8
1
  6
BYLAYER
 62
  256
 10
492.9445856346994
 20
166.1317488684098
 30
0
  0
VERTEX
  5
40B
  8
1
  6
BYLAYER
 62
  256
 10
329.6475574958754
 20
202.4615907518828
 30
0
  0
VERTEX
  5
40C
  8
1
  6
BYLAYER
 62
  256
 10
275.1821889039318
 20
214.5788855466676
 30
0
  0
VERTEX
  5
40D
  8
1
  6
BYLAYER
 62
  256
 10
50.48777405291253
 20
264.5682372003755
 30
0
  0
VERTEX
  5
40E
  8
1
  6
BYLAYER
 62
  256
 10
65.65752790347729
 20
332.753937797151
 30
0
  0
SEQEND
  5
40F
  8
1
  6
BYLAYER
 62
  256
  0
POLYLINE
  5
410
  8
8
  6
BYLAYER
 62
  256
 66
    1
 10
0
 20
0
 30
0
 70
    1
  0
VERTEX
  5
411
  8
8
  6
BYLAYER
 62
  256
 10
79.48170682845718
 20
394.4658841474211
 30
0
  0
VERTEX
  5
412
  8
8
  6
BYLAYER
 62
  256
 10
86.38966855405636
 20
457.323686995279
 30
0
  0
VERTEX
  5
413
  8
8
  6
BYLAYER
 62
  256
 10
86.38966855405623
 20
520.5599369952783
 30
0
  0
VERTEX
  5
414
  8
8
  6
BYLAYER
 62
  256
 10
309.5776685540563
 20
520.5599369952783
 30
0
  0
VERTEX
  5
415
  8
8
  6
BYLAYER
 62
  256
 10
365.3746685540564
 20
520.5599369952789
 30
0
  0
VERTEX
  5
416
  8
8
  6
BYLAYER
 62
  256
 10
532.6641685540563
 20
520.5599369952789
 30
0
  0
VERTEX
  5
417
  8
8
  6
BYLAYER
 62
  256
 10
604.3596685540565
 20
520.5599369952786
 30
0
  0
VERTEX
  5
418
  8
8
  6
BYLAYER
 62
  256
 10
604.3741283157154
 20
518.5337738012764
 30
0
  0
VERTEX
  5
419
  8
8
  6
BYLAYER
 62
  256
 10
604.5466608653576
 20
514.4496639854638
 30
0
  0
VERTEX
  5
41A
  8
8
  6
BYLAYER
 62
  256
 10
604.8897567841125
 20
510.338774833291
 30
0
  0
VERTEX
  5
41B
  8
8
  6
BYLAYER
 62
  256
 10
605.4014468914509
 20
506.2137294303254
 30
0
  0
VERTEX
  5
41C
  8
8
  6
BYLAYER
 62
  256
 10
606.079762006843
 20
502.087150862133
 30
0
  0
VERTEX
  5
41D
  8
8
  6
BYLAYER
 62
  256
 10
606.9227329497597
 20
497.9716622142804
 30
0
  0
VERTEX
  5
41E
  8
8
  6
BYLAYER
 62
  256
 10
607.9283905396717
 20
493.8798865723347
 30
0
  0
VERTEX
  5
41F
  8
8
  6
BYLAYER
 62
  256
 10
609.0947655960492
 20
489.8244470218616
 30
0
  0
VERTEX
  5
420
  8
8
  6
BYLAYER
 62
  256
 10
610.4198889383629
 20
485.8179666484287
 30
0
  0
VERTEX
  5
421
  8
8
  6
BYLAYER
 62
  256
 10
611.9017913860837
 20
481.8730685376019
 30
0
  0
VERTEX
  5
422
  8
8
  6
BYLAYER
 62
  256
 10
613.5385037586817
 20
478.0023757749481
 30
0
  0
VERTEX
  5
423
  8
8
  6
BYLAYER
 62
  256
 10
615.3280568756277
 20
474.2185114460339
 30
0
  0
VERTEX
  5
424
  8
8
  6
BYLAYER
 62
  256
 10
617.2684815563924
 20
470.5340986364258
 30
0
  0
VERTEX
  5
425
  8
8
  6
BYLAYER
 62
  256
 10
619.3578086204462
 20
466.9617604316901
 30
0
  0
VERTEX
  5
426
  8
8
  6
BYLAYER
 62
  256
 10
621.5940688872598
 20
463.5141199173937
 30
0
  0
VERTEX
  5
427
  8
8
  6
BYLAYER
 62
  256
 10
623.9752931763037
 20
460.2038001791036
 30
0
  0
VERTEX
  5
428
  8
8
  6
BYLAYER
 62
  256
 10
625.2255685540564
 20
458.6105909570482
 30
0
  0
VERTEX
  5
429
  8
8
  6
BYLAYER
 62
  256
 10
626.500794244885
 20
456.9998514892621
 30
0
  0
VERTEX
  5
42A
  8
8
  6
BYLAYER
 62
  256
 10
628.990928282004
 20
453.7138814673772
 30
0
  0
VERTEX
  5
42B
  8
8
  6
BYLAYER
 62
  256
 10
631.4082317269425
 20
450.3534053694159
 30
0
  0
VERTEX
  5
42C
  8
8
  6
BYLAYER
 62
  256
 10
633.752204825551
 20
446.9216267814872
 30
0
  0
VERTEX
  5
42D
  8
8
  6
BYLAYER
 62
  256
 10
637.1388993283558
 20
441.6551862661085
 30
0
  0
VERTEX
  5
42E
  8
8
  6
BYLAYER
 62
  256
 10
641.3808663977984
 20
434.4022571837664
 30
0
  0
VERTEX
  5
42F
  8
8
  6
BYLAYER
 62
  256
 10
645.3205165072296
 20
426.9217826915317
 30
0
  0
VERTEX
  5
430
  8
8
  6
BYLAYER
 62
  256
 10
645.4266881104838
 20
426.6972914828082
 30
0
  0
VERTEX
  5
431
  8
8
  6
BYLAYER
 62
  256
 10
648.1180377861174
 20
418.8987152122181
 30
0
  0
VERTEX
  5
432
  8
8
  6
BYLAYER
 62
  256
 10
650.5626864162956
 20
410.7240587444335
 30
0
  0
VERTEX
  5
433
  8
8
  6
BYLAYER
 62
  256
 10
652.6784469230626
 20
402.43398008564
 30
0
  0
VERTEX
  5
434
  8
8
  6
BYLAYER
 62
  256
 10
654.464144891734
 20
394.0543912931304
 30
0
  0
VERTEX
  5
435
  8
8
  6
BYLAYER
 62
  256
 10
655.9186059076261
 20
385.6112044241991
 30
0
  0
VERTEX
  5
436
  8
8
  6
BYLAYER
 62
  256
 10
657.040655556054
 20
377.1303315361386
 30
0
  0
VERTEX
  5
437
  8
8
  6
BYLAYER
 62
  256
 10
657.8291194223341
 20
368.6376846862423
 30
0
  0
VERTEX
  5
438
  8
8
  6
BYLAYER
 62
  256
 10
658.282823091782
 20
360.1591759318041
 30
0
  0
VERTEX
  5
439
  8
8
  6
BYLAYER
 62
  256
 10
658.4005921497132
 20
351.7207173301167
 30
0
  0
VERTEX
  5
43A
  8
8
  6
BYLAYER
 62
  256
 10
658.1812521814438
 20
343.3482209384736
 30
0
  0
VERTEX
  5
43B
  8
8
  6
BYLAYER
 62
  256
 10
657.6236287722894
 20
335.0675988141684
 30
0
  0
VERTEX
  5
43C
  8
8
  6
BYLAYER
 62
  256
 10
657.2034252285036
 20
330.9752857182249
 30
0
  0
VERTEX
  5
43D
  8
8
  6
BYLAYER
 62
  256
 10
656.6313886052155
 20
326.061900939582
 30
0
  0
VERTEX
  5
43E
  8
8
  6
BYLAYER
 62
  256
 10
655.2075367391413
 20
316.5627729173876
 30
0
  0
VERTEX
  5
43F
  8
8
  6
BYLAYER
 62
  256
 10
653.4546671640451
 20
307.438377701411
 30
0
  0
VERTEX
  5
440
  8
8
  6
BYLAYER
 62
  256
 10
651.3802428070109
 20
298.6682296962167
 30
0
  0
VERTEX
  5
441
  8
8
  6
BYLAYER
 62
  256
 10
648.9917265951232
 20
290.2318433063701
 30
0
  0
VERTEX
  5
442
  8
8
  6
BYLAYER
 62
  256
 10
646.296581455466
 20
282.1087329364353
 30
0
  0
VERTEX
  5
443
  8
8
  6
BYLAYER
 62
  256
 10
643.3022703151239
 20
274.2784129909775
 30
0
  0
VERTEX
  5
444
  8
8
  6
BYLAYER
 62
  256
 10
640.0162561011808
 20
266.7203978745611
 30
0
  0
VERTEX
  5
445
  8
8
  6
BYLAYER
 62
  256
 10
636.446001740721
 20
259.4142019917506
 30
0
  0
VERTEX
  5
446
  8
8
  6
BYLAYER
 62
  256
 10
632.5989701608289
 20
252.3393397471109
 30
0
  0
VERTEX
  5
447
  8
8
  6
BYLAYER
 62
  256
 10
628.4826242885887
 20
245.475325545207
 30
0
  0
VERTEX
  5
448
  8
8
  6
BYLAYER
 62
  256
 10
624.950944299242
 20
240.0920134011797
 30
0
  0
VERTEX
  5
449
  8
8
  6
BYLAYER
 62
  256
 10
623.9685431384927
 20
238.9018639477872
 30
0
  0
VERTEX
  5
44A
  8
8
  6
BYLAYER
 62
  256
 10
618.6532429055733
 20
232.9430451502423
 30
0
  0
VERTEX
  5
44B
  8
8
  6
BYLAYER
 62
  256
 10
613.1088134208478
 20
227.1596964113803
 30
0
  0
VERTEX
  5
44C
  8
8
  6
BYLAYER
 62
  256
 10
607.3404352219692
 20
221.5306395128953
 30
0
  0
VERTEX
  5
44D
  8
8
  6
BYLAYER
 62
  256
 10
601.3532888465899
 20
216.0346962364803
 30
0
  0
VERTEX
  5
44E
  8
8
  6
BYLAYER
 62
  256
 10
598.2705049536447
 20
213.3342467756037
 30
0
  0
VERTEX
  5
44F
  8
8
  6
BYLAYER
 62
  256
 10
596.7501779944781
 20
211.995450775275
 30
0
  0
VERTEX
  5
450
  8
8
  6
BYLAYER
 62
  256
 10
593.7801781223948
 20
209.1936214679722
 30
0
  0
VERTEX
  5
451
  8
8
  6
BYLAYER
 62
  256
 10
590.9011897999477
 20
206.2509852887828
 30
0
  0
VERTEX
  5
452
  8
8
  6
BYLAYER
 62
  256
 10
588.1201315761778
 20
203.1767399000264
 30
0
  0
VERTEX
  5
453
  8
8
  6
BYLAYER
 62
  256
 10
585.4439220001256
 20
199.9800829640219
 30
0
  0
VERTEX
  5
454
  8
8
  6
BYLAYER
 62
  256
 10
582.8794796208317
 20
196.6702121430883
 30
0
  0
VERTEX
  5
455
  8
8
  6
BYLAYER
 62
  256
 10
580.4337229873369
 20
193.2563250995451
 30
0
  0
VERTEX
  5
456
  8
8
  6
BYLAYER
 62
  256
 10
578.1135706486817
 20
189.7476194957115
 30
0
  0
VERTEX
  5
457
  8
8
  6
BYLAYER
 62
  256
 10
575.925941153907
 20
186.1532929939066
 30
0
  0
VERTEX
  5
458
  8
8
  6
BYLAYER
 62
  256
 10
573.8777530520537
 20
182.4825432564501
 30
0
  0
VERTEX
  5
459
  8
8
  6
BYLAYER
 62
  256
 10
571.9759248921619
 20
178.7445679456607
 30
0
  0
VERTEX
  5
45A
  8
8
  6
BYLAYER
 62
  256
 10
570.2273752232725
 20
174.9485647238586
 30
0
  0
VERTEX
  5
45B
  8
8
  6
BYLAYER
 62
  256
 10
568.6390225944263
 20
171.1037312533615
 30
0
  0
VERTEX
  5
45C
  8
8
  6
BYLAYER
 62
  256
 10
567.2177855546638
 20
167.2192651964901
 30
0
  0
VERTEX
  5
45D
  8
8
  6
BYLAYER
 62
  256
 10
565.9705826530259
 20
163.3043642155631
 30
0
  0
VERTEX
  5
45E
  8
8
  6
BYLAYER
 62
  256
 10
564.904332438553
 20
159.3682259728991
 30
0
  0
VERTEX
  5
45F
  8
8
  6
BYLAYER
 62
  256
 10
564.4491987401923
 20
157.3947571158802
 30
0
  0
VERTEX
  5
460
  8
8
  6
BYLAYER
 62
  256
 10
494.4647581092678
 20
172.9646893516545
 30
0
  0
VERTEX
  5
461
  8
8
  6
BYLAYER
 62
  256
 10
331.1677299704438
 20
209.2945312351276
 30
0
  0
VERTEX
  5
462
  8
8
  6
BYLAYER
 62
  256
 10
276.7023613785002
 20
221.4118260299125
 30
0
  0
VERTEX
  5
463
  8
8
  6
BYLAYER
 62
  256
 10
58.84088701072553
 20
269.8810052090514
 30
0
  0
VERTEX
  5
464
  8
8
  6
BYLAYER
 62
  256
 10
72.57374510285787
 20
331.6080812995636
 30
0
  0
SEQEND
  5
465
  8
8
  6
BYLAYER
 62
  256
  0
POLYLINE
  5
466
  8
8
  6
BYLAYER
 62
  256
 66
    1
 10
0
 20
0
 30
0
 70
    0
  0
VERTEX
  5
467
  8
8
  6
BYLAYER
 62
  256
 10
586.9535198034308
 20
270.5628754636394
 30
0
  0
VERTEX
  5
468
  8
8
  6
BYLAYER
 62
  256
 10
516.4080801752172
 20
284.9554314531795
 30
0
  0
VERTEX
  5
469
  8
8
  6
BYLAYER
 62
  256
 10
350.5539812737572
 20
307.181436781055
 30
0
  0
VERTEX
  5
46A
  8
8
  6
BYLAYER
 62
  256
 10
295.4322837488498
 20
316.3830288157316
 30
0
  0
VERTEX
  5
46B
  8
8
  6
BYLAYER
 62
  256
 10
75.29506335839697
 20
356.3702460578104
 30
0
  0
SEQEND
  5
46C
  8
8
  6
BYLAYER
 62
  256
  0
POLYLINE
  5
46D
  8
8
  6
BYLAYER
 62
  256
 66
    1
 10
0
 20
0
 30
0
 70
    0
  0
VERTEX
  5
46E
  8
8
  6
BYLAYER
 62
  256
 10
83.66835029851727
 20
432.561522237032
 30
0
  0
VERTEX
  5
46F
  8
8
  6
BYLAYER
 62
  256
 10
307.2357234602653
 20
423.7863868217966
 30
0
  0
VERTEX
  5
470
  8
8
  6
BYLAYER
 62
  256
 10
363.0401743234082
 20
420.7973906921448
 30
0
  0
VERTEX
  5
471
  8
8
  6
BYLAYER
 62
  256
 10
529.7627354711036
 20
406.4738073554605
 30
0
  0
VERTEX
  5
472
  8
8
  6
BYLAYER
 62
  256
 10
601.7501501496707
 20
405.2022539173322
 30
0
  0
SEQEND
  5
473
  8
8
  6
BYLAYER
 62
  256
  0
POLYLINE
  5
474
  8
8
  6
BYLAYER
 62
  256
 66
    1
 10
0
 20
0
 30
0
 70
    0
  0
VERTEX
  5
475
  8
8
  6
BYLAYER
 62
  256
 10
67.16383130898754
 20
307.2913543548163
 30
0
  0
VERTEX
  5
476
  8
8
  6
BYLAYER
 62
  256
 10
288.4348353697228
 20
274.1474845452403
 30
0
  0
VERTEX
  5
477
  8
8
  6
BYLAYER
 62
  256
 10
343.578852387813
 20
265.0806096090471
 30
0
  0
VERTEX
  5
478
  8
8
  6
BYLAYER
 62
  256
 10
507.7391213246955
 20
232.630901785702
 30
0
  0
VERTEX
  5
479
  8
8
  6
BYLAYER
 62
  256
 10
579.1568674316417
 20
223.5034562912728
 30
0
  0
SEQEND
  5
47A
  8
8
  6
BYLAYER
 62
  256
  0
POLYLINE
  5
47B
  8
8
  6
BYLAYER
 62
  256
 66
    1
 10
0
 20
0
 30
0
 70
    0
  0
VERTEX
  5
47C
  8
8
  6
BYLAYER
 62
  256
 10
604.3596685540564
 20
452.8349369952786
 30
0
  0
VERTEX
  5
47D
  8
8
  6
BYLAYER
 62
  256
 10
532.6641685540563
 20
459.4349369952788
 30
0
  0
VERTEX
  5
47E
  8
8
  6
BYLAYER
 62
  256
 10
365.3746685540564
 20
463.4099369952789
 30
0
  0
VERTEX
  5
47F
  8
8
  6
BYLAYER
 62
  256
 10
309.5776685540564
 20
466.5349369952789
 30
0
  0
VERTEX
  5
480
  8
8
  6
BYLAYER
 62
  256
 10
86.38966855405648
 20
482.2349369952784
 30
0
  0
SEQEND
  5
481
  8
8
  6
BYLAYER
 62
  256
  0
LINE
  5
482
  8
7
  6
BYLAYER
 62
  256
 10
657.2034252285034
 20
330.9752857182249
 11
79.48170682845718
 21
394.4658841474211
  0
TEXT
  5
483
  8
1
  6
BYLAYER
 62
  256
 10
613.7401918907652
 20
292.9507840973469
 30
0
 40
2.5
  1
Piece Name: Sleeve
 50
0
 41
1
 51
0
  7
STANDARD
 71
    0
210
0
220
0
230
1
  0
TEXT
  5
484
  8
1
  6
BYLAYER
 62
  256
 10
613.7401918907652
 20
290.450784097347
 30
0
 40
2.5
  1
File Name: GBlock-201-Sweatshirt-Parametric-Scalable-V4-Hood-csr0283a-EXTRA
 50
0
 41
1
 51
0
  7
STANDARD
 71
    0
210
0
220
0
230
1
  0
TEXT
  5
485
  8
1
  6
BYLAYER
 62
  256
 10
613.7401918907652
 20
287.9507840973468
 30
0
 40
2.5
  1
Measurement Name: csr0283a-EXTRA
 50
0
 41
1
 51
0
  7
STANDARD
 71
    0
210
0
220
0
230
1
  0
TEXT
  5
486
  8
1
  6
BYLAYER
 62
  256
 10
613.7401918907652
 20
285.450784097347
 30
0
 40
2.5
  1
Date: 03-25-2026
 50
0
 41
1
 51
0
  7
STANDARD
 71
    0
210
0
220
0
230
1
  0
ENDBLK
  8
1
  0
BLOCK
  8
1
  2
RIB_CUFF
 70
    0
 10
0
 20
0
  3
RIB_CUFF
  1

  0
POLYLINE
  5
487
  8
1
  6
BYLAYER
 62
  256
 66
    1
 10
0
 20
0
 30
0
 70
    1
  0
VERTEX
  5
488
  8
1
  6
BYLAYER
 62
  256
 10
164.9493824019799
 20
1096.515294530118
 30
0
  0
VERTEX
  5
489
  8
1
  6
BYLAYER
 62
  256
 10
119.8769507660959
 20
1233.279602397443
 30
0
  0
VERTEX
  5
48A
  8
1
  6
BYLAYER
 62
  256
 10
312.0596282970753
 20
1296.615868486833
 30
0
  0
VERTEX
  5
48B
  8
1
  6
BYLAYER
 62
  256
 10
357.1320599329593
 20
1159.851560619508
 30
0
  0
VERTEX
  5
48C
  8
1
  6
BYLAYER
 62
  256
 10
164.9493824019799
 20
1096.515294530118
 30
0
  0
SEQEND
  5
48D
  8
1
  6
BYLAYER
 62
  256
  0
POLYLINE
  5
48E
  8
8
  6
BYLAYER
 62
  256
 66
    1
 10
0
 20
0
 30
0
 70
    1
  0
VERTEX
  5
48F
  8
8
  6
BYLAYER
 62
  256
 10
131.5654931280712
 20
1229.761367406384
 30
0
  0
VERTEX
  5
490
  8
8
  6
BYLAYER
 62
  256
 10
304.7531278996998
 20
1286.837573546346
 30
0
  0
VERTEX
  5
491
  8
8
  6
BYLAYER
 62
  256
 10
345.4435175709839
 20
1163.369795610566
 30
0
  0
VERTEX
  5
492
  8
8
  6
BYLAYER
 62
  256
 10
172.2558827993554
 20
1106.293589470605
 30
0
  0
SEQEND
  5
493
  8
8
  6
BYLAYER
 62
  256
  0
POLYLINE
  5
494
  8
8
  6
BYLAYER
 62
  256
 66
    1
 10
0
 20
0
 30
0
 70
    0
  0
VERTEX
  5
495
  8
8
  6
BYLAYER
 62
  256
 10
325.0983227353419
 20
1225.103684578456
 30
0
  0
VERTEX
  5
496
  8
8
  6
BYLAYER
 62
  256
 10
151.9106879637133
 20
1168.027478438495
 30
0
  0
SEQEND
  5
497
  8
8
  6
BYLAYER
 62
  256
  0
LINE
  5
498
  8
7
  6
BYLAYER
 62
  256
 10
260.4565678728177
 20
1149.179699448229
 11
229.156268125676
 21
1244.154913244982
  0
TEXT
  5
499
  8
1
  6
BYLAYER
 62
  256
 10
198.841973387936
 20
1164.671628185716
 30
0
 40
2.5
  1
Piece Name: Rib Cuff
 50
0
 41
1
 51
0
  7
STANDARD
 71
    0
210
0
220
0
230
1
  0
TEXT
  5
49A
  8
1
  6
BYLAYER
 62
  256
 10
198.841973387936
 20
1162.171628185716
 30
0
 40
2.5
  1
File Name: GBlock-201-Sweatshirt-Parametric-Scalable-V4-Hood-csr0283a-EXTRA
 50
0
 41
1
 51
0
  7
STANDARD
 71
    0
210
0
220
0
230
1
  0
TEXT
  5
49B
  8
1
  6
BYLAYER
 62
  256
 10
198.841973387936
 20
1159.671628185716
 30
0
 40
2.5
  1
Measurement Name: csr0283a-EXTRA
 50
0
 41
1
 51
0
  7
STANDARD
 71
    0
210
0
220
0
230
1
  0
TEXT
  5
49C
  8
1
  6
BYLAYER
 62
  256
 10
198.841973387936
 20
1157.171628185716
 30
0
 40
2.5
  1
Date: 03-25-2026
 50
0
 41
1
 51
0
  7
STANDARD
 71
    0
210
0
220
0
230
1
  0
ENDBLK
  8
1
  0
BLOCK
  8
1
  2
COLLAR
 70
    0
 10
0
 20
0
  3
COLLAR
  1

  0
POLYLINE
  5
49D
  8
1
  6
BYLAYER
 62
  256
 66
    1
 10
0
 20
0
 30
0
 70
    1
  0
VERTEX
  5
49E
  8
1
  6
BYLAYER
 62
  256
 10
115.1281900762582
 20
1231.714587410086
 30
0
  0
VERTEX
  5
49F
  8
1
  6
BYLAYER
 62
  256
 10
224.1636567048099
 20
900.8657828256763
 30
0
  0
VERTEX
  5
4A0
  8
1
  6
BYLAYER
 62
  256
 10
163.3795198748875
 20
880.8335909875059
 30
0
  0
VERTEX
  5
4A1
  8
1
  6
BYLAYER
 62
  256
 10
54.34405324633577
 20
1211.682395571915
 30
0
  0
VERTEX
  5
4A2
  8
1
  6
BYLAYER
 62
  256
 10
115.1281900762582
 20
1231.714587410086
 30
0
  0
SEQEND
  5
4A3
  8
1
  6
BYLAYER
 62
  256
  0
POLYLINE
  5
4A4
  8
8
  6
BYLAYER
 62
  256
 66
    1
 10
0
 20
0
 30
0
 70
    1
  0
VERTEX
  5
4A5
  8
8
  6
BYLAYER
 62
  256
 10
214.385361764323
 20
908.1722832230519
 30
0
  0
VERTEX
  5
4A6
  8
8
  6
BYLAYER
 62
  256
 10
166.8977548659461
 20
892.5221333494811
 30
0
  0
VERTEX
  5
4A7
  8
8
  6
BYLAYER
 62
  256
 10
64.12234818682268
 20
1204.37589517454
 30
0
  0
VERTEX
  5
4A8
  8
8
  6
BYLAYER
 62
  256
 10
111.6099550851996
 20
1220.026045048111
 30
0
  0
SEQEND
  5
4A9
  8
8
  6
BYLAYER
 62
  256
  0
POLYLINE
  5
4AA
  8
8
  6
BYLAYER
 62
  256
 66
    1
 10
0
 20
0
 30
0
 70
    0
  0
VERTEX
  5
4AB
  8
8
  6
BYLAYER
 62
  256
 10
190.6415583151346
 20
900.3472082862664
 30
0
  0
VERTEX
  5
4AC
  8
8
  6
BYLAYER
 62
  256
 10
87.86615163601115
 20
1212.200970111325
 30
0
  0
SEQEND
  5
4AD
  8
8
  6
BYLAYER
 62
  256
  0
LINE
  5
4AE
  8
7
  6
BYLAYER
 62
  256
 10
80.87092889885213
 20
1153.132641482367
 11
128.5523802085882
 21
1168.846675267721
  0
TEXT
  5
4AF
  8
1
  6
BYLAYER
 62
  256
 10
99.85990165281359
 20
1103.436621160387
 30
0
 40
2.5
  1
Piece Name: Collar
 50
0
 41
1
 51
0
  7
STANDARD
 71
    0
210
0
220
0
230
1
  0
TEXT
  5
4B0
  8
1
  6
BYLAYER
 62
  256
 10
99.85990165281359
 20
1100.936621160387
 30
0
 40
2.5
  1
File Name: GBlock-201-Sweatshirt-Parametric-Scalable-V4-Hood-csr0283a-EXTRA
 50
0
 41
1
 51
0
  7
STANDARD
 71
    0
210
0
220
0
230
1
  0
TEXT
  5
4B1
  8
1
  6
BYLAYER
 62
  256
 10
99.85990165281359
 20
1098.436621160387
 30
0
 40
2.5
  1
Measurement Name: csr0283a-EXTRA
 50
0
 41
1
 51
0
  7
STANDARD
 71
    0
210
0
220
0
230
1
  0
TEXT
  5
4B2
  8
1
  6
BYLAYER
 62
  256
 10
99.85990165281359
 20
1095.936621160387
 30
0
 40
2.5
  1
Date: 03-25-2026
 50
0
 41
1
 51
0
  7
STANDARD
 71
    0
210
0
220
0
230
1
  0
ENDBLK
  8
1
  0
BLOCK
  8
1
  2
RIB_HEM
 70
    0
 10
0
 20
0
  3
RIB_HEM
  1

  0
POLYLINE
  5
4B3
  8
1
  6
BYLAYER
 62
  256
 66
    1
 10
0
 20
0
 30
0
 70
    1
  0
VERTEX
  5
4B4
  8
1
  6
BYLAYER
 62
  256
 10
903.0229166666667
 20
143.9333333333333
 30
0
  0
VERTEX
  5
4B5
  8
1
  6
BYLAYER
 62
  256
 10
903.0229166666669
 20
-0.06666666666665151
 30
0
  0
VERTEX
  5
4B6
  8
1
  6
BYLAYER
 62
  256
 10
174.7230166666673
 20
-0.06666666666665151
 30
0
  0
VERTEX
  5
4B7
  8
1
  6
BYLAYER
 62
  256
 10
174.7230166666671
 20
143.9333333333333
 30
0
  0
VERTEX
  5
4B8
  8
1
  6
BYLAYER
 62
  256
 10
903.0229166666667
 20
143.9333333333333
 30
0
  0
SEQEND
  5
4B9
  8
1
  6
BYLAYER
 62
  256
  0
POLYLINE
  5
4BA
  8
8
  6
BYLAYER
 62
  256
 66
    1
 10
0
 20
0
 30
0
 70
    1
  0
VERTEX
  5
4BB
  8
8
  6
BYLAYER
 62
  256
 10
893.0229166666668
 20
136.9333333333335
 30
0
  0
VERTEX
  5
4BC
  8
8
  6
BYLAYER
 62
  256
 10
893.0229166666668
 20
6.9333333333332
 30
0
  0
VERTEX
  5
4BD
  8
8
  6
BYLAYER
 62
  256
 10
184.7230166666672
 20
6.9333333333332
 30
0
  0
VERTEX
  5
4BE
  8
8
  6
BYLAYER
 62
  256
 10
184.7230166666672
 20
136.9333333333335
 30
0
  0
SEQEND
  5
4BF
  8
8
  6
BYLAYER
 62
  256
  0
POLYLINE
  5
4C0
  8
8
  6
BYLAYER
 62
  256
 66
    1
 10
0
 20
0
 30
0
 70
    0
  0
VERTEX
  5
4C1
  8
8
  6
BYLAYER
 62
  256
 10
184.7230166666672
 20
71.93333333333334
 30
0
  0
VERTEX
  5
4C2
  8
8
  6
BYLAYER
 62
  256
 10
893.0229166666668
 20
71.93333333333334
 30
0
  0
SEQEND
  5
4C3
  8
8
  6
BYLAYER
 62
  256
  0
LINE
  5
4C4
  8
7
  6
BYLAYER
 62
  256
 10
237.4612916666667
 20
6.801041666666534
 11
237.4612916666667
 21
106.8010416666666
  0
TEXT
  5
4C5
  8
1
  6
BYLAYER
 62
  256
 10
488.872966666667
 20
104.4333333333334
 30
0
 40
2.5
  1
Piece Name: Rib Hem
 50
0
 41
1
 51
0
  7
STANDARD
 71
    0
210
0
220
0
230
1
  0
TEXT
  5
4C6
  8
1
  6
BYLAYER
 62
  256
 10
488.872966666667
 20
101.9333333333335
 30
0
 40
2.5
  1
File Name: GBlock-201-Sweatshirt-Parametric-Scalable-V4-Hood-csr0283a-EXTRA
 50
0
 41
1
 51
0
  7
STANDARD
 71
    0
210
0
220
0
230
1
  0
TEXT
  5
4C7
  8
1
  6
BYLAYER
 62
  256
 10
488.872966666667
 20
99.43333333333334
 30
0
 40
2.5
  1
Measurement Name: csr0283a-EXTRA
 50
0
 41
1
 51
0
  7
STANDARD
 71
    0
210
0
220
0
230
1
  0
TEXT
  5
4C8
  8
1
  6
BYLAYER
 62
  256
 10
488.872966666667
 20
96.93333333333344
 30
0
 40
2.5
  1
Date: 03-25-2026
 50
0
 41
1
 51
0
  7
STANDARD
 71
    0
210
0
220
0
230
1
  0
ENDBLK
  8
0
  0
ENDSEC
  0
SECTION
  2
ENTITIES
  0
INSERT
  5
4C9
  8
1
  6
BYLAYER
 62
  256
  2
SWEATSHIRT_BACK
 10
0
 20
0
 30
0
 41
1
 42
1
 43
1
 50
0
 70
    1
 71
    1
 44
0
 45
0
  0
INSERT
  5
4CA
  8
1
  6
BYLAYER
 62
  256
  2
SWEATSHIRT_FRONT
 10
0
 20
0
 30
0
 41
1
 42
1
 43
1
 50
0
 70
    1
 71
    1
 44
0
 45
0
  0
INSERT
  5
4CB
  8
1
  6
BYLAYER
 62
  256
  2
SLEEVE
 10
0
 20
0
 30
0
 41
1
 42
1
 43
1
 50
0
 70
    1
 71
    1
 44
0
 45
0
  0
INSERT
  5
4CC
  8
1
  6
BYLAYER
 62
  256
  2
RIB_CUFF
 10
0
 20
0
 30
0
 41
1
 42
1
 43
1
 50
0
 70
    1
 71
    1
 44
0
 45
0
  0
INSERT
  5
4CD
  8
1
  6
BYLAYER
 62
  256
  2
COLLAR
 10
0
 20
0
 30
0
 41
1
 42
1
 43
1
 50
0
 70
    1
 71
    1
 44
0
 45
0
  0
INSERT
  5
4CE
  8
1
  6
BYLAYER
 62
  256
  2
RIB_HEM
 10
0
 20
0
 30
0
 41
1
 42
1
 43
1
 50
0
 70
    1
 71
    1
 44
0
 45
0
  0
ENDSEC
  0
EOF
