999
dxfrw 0.6.3
  0
SECTION
  2
HEADER
  9
$ACADVER
  1
AC1027
  9
$DWGCODEPAGE
  3
UTF-8
  9
$INSBASE
 10
0
 20
0
 30
0
  9
$EXTMIN
 10
1e+20
 20
1e+20
 30
1e+20
  9
$EXTMAX
 10
-1e+20
 20
-1e+20
 30
-1e+20
  9
$LIMMIN
 10
0
 20
0
  9
$LIMMAX
 10
420
 20
297
  9
$ORTHOMODE
 70
    0
  9
$REGENMODE
 70
    1
  9
$FILLMODE
 70
    1
  9
$QTEXTMODE
 70
    0
  9
$MIRRTEXT
 70
    0
  9
$LTSCALE
 40
1
  9
$ATTMODE
 70
    0
  9
$TEXTSIZE
 40
2.5
  9
$TRACEWID
 40
15.68
  9
$TEXTSTYLE
  7
STANDARD
  9
$CLAYER
  8
1
  9
$CELTYPE
  6
BYLAYER
  9
$CECOLOR
 62
  256
  9
$CELTSCALE
 40
1
  9
$DISPSILH
 70
    0
  9
$DIMSCALE
 40
1
  9
$DIMASZ
 40
2.5
  9
$DIMEXO
 40
0.625
  9
$DIMDLI
 40
3.75
  9
$DIMRND
 40
0
  9
$DIMDLE
 40
0
  9
$DIMEXE
 40
1.25
  9
$DIMTP
 40
0
  9
$DIMTM
 40
0
  9
$DIMTXT
 40
2.5
  9
$DIMCEN
 40
2.5
  9
$DIMTSZ
 40
0
  9
$DIMTOL
 70
    0
  9
$DIMLIM
 70
    0
  9
$DIMTIH
 70
    0
  9
$DIMTOH
 70
    0
  9
$DIMSE1
 70
    0
  9
$DIMSE2
 70
    0
  9
$DIMTAD
 70
    1
  9
$DIMZIN
 70
    8
  9
$DIMBLK
  1

  9
$DIMASO
 70
    1
  9
$DIMSHO
 70
    1
  9
$DIMPOST
  1

  9
$DIMAPOST
  1

  9
$DIMALT
 70
    0
  9
$DIMALTD
 70
    3
  9
$DIMALTF
 40
0.03937
  9
$DIMLFAC
 40
1
  9
$DIMTOFL
 70
    1
  9
$DIMTVP
 40
0
  9
$DIMTIX
 70
    0
  9
$DIMSOXD
 70
    0
  9
$DIMSAH
 70
    0
  9
$DIMBLK1
  1

  9
$DIMBLK2
  1

  9
$DIMSTYLE
  2
STANDARD
  9
$DIMCLRD
 70
    0
  9
$DIMCLRE
 70
    0
  9
$DIMCLRT
 70
    0
  9
$DIMTFAC
 40
1
  9
$DIMGAP
 40
0.625
  9
$DIMJUST
 70
    0
  9
$DIMSD1
 70
    0
  9
$DIMSD2
 70
    0
  9
$DIMTOLJ
 70
    0
  9
$DIMTZIN
 70
    8
  9
$DIMALTZ
 70
    0
  9
$DIMALTTZ
 70
    0
  9
$DIMUPT
 70
    0
  9
$DIMDEC
 70
    2
  9
$DIMTDEC
 70
    2
  9
$DIMALTU
 70
    2
  9
$DIMALTTD
 70
    3
  9
$DIMTXSTY
  7
STANDARD
  9
$DIMAUNIT
 70
    0
  9
$DIMADEC
 70
    0
  9
$DIMALTRND
 40
0
  9
$DIMAZIN
 70
    0
  9
$DIMDSEP
 70
   44
  9
$DIMATFIT
 70
    3
  9
$DIMFRAC
 70
    0
  9
$DIMLDRBLK
  1
STANDARD
  9
$DIMLUNIT
 70
    2
  9
$DIMLWD
 70
   -2
  9
$DIMLWE
 70
   -2
  9
$DIMTMOVE
 70
    0
  9
$DIMFXL
 40
1
  9
$DIMFXLON
 70
    0
  9
$DIMJOGANG
 40
0.7854
  9
$DIMTFILL
 70
    0
  9
$DIMTFILLCLR
 70
    0
  9
$DIMARCSYM
 70
    0
  9
$DIMLTYPE
  6

  9
$DIMLTEX1
  6

  9
$DIMLTEX2
  6

  9
$DIMTXTDIRECTION
 70
    0
  9
$LUNITS
 70
    2
  9
$LUPREC
 70
    4
  9
$SKETCHINC
 40
1
  9
$FILLETRAD
 40
0
  9
$AUNITS
 70
    0
  9
$AUPREC
 70
    2
  9
$MENU
  1
.
  9
$ELEVATION
 40
0
  9
$PELEVATION
 40
0
  9
$THICKNESS
 40
0
  9
$LIMCHECK
 70
    0
  9
$CHAMFERA
 40
0
  9
$CHAMFERB
 40
0
  9
$CHAMFERC
 40
0
  9
$CHAMFERD
 40
0
  9
$SKPOLY
 70
    0
  9
$USRTIMER
 70
    1
  9
$ANGBASE
 50
0
  9
$ANGDIR
 70
    0
  9
$PDMODE
 70
   34
  9
$PDSIZE
 40
0
  9
$PLINEWID
 40
0
  9
$SPLFRAME
 70
    0
  9
$SPLINETYPE
 70
    2
  9
$SPLINESEGS
 70
    8
  9
$HANDSEED
  5
20000
  9
$SURFTAB1
 70
    6
  9
$SURFTAB2
 70
    6
  9
$SURFTYPE
 70
    6
  9
$SURFU
 70
    6
  9
$SURFV
 70
    6
  9
$TDCREATE
 40
20260319.16164855
  9
$UCSBASE
  2

  9
$UCSNAME
  2

  9
$UCSORG
 10
0
 20
0
 30
0
  9
$UCSXDIR
 10
1
 20
0
 30
0
  9
$UCSYDIR
 10
0
 20
1
 30
0
  9
$UCSORTHOREF
  2

  9
$UCSORTHOVIEW
 70
    0
  9
$UCSORGTOP
 10
0
 20
0
 30
0
  9
$UCSORGBOTTOM
 10
0
 20
0
 30
0
  9
$UCSORGLEFT
 10
0
 20
0
 30
0
  9
$UCSORGRIGHT
 10
0
 20
0
 30
0
  9
$UCSORGFRONT
 10
0
 20
0
 30
0
  9
$UCSORGBACK
 10
0
 20
0
 30
0
  9
$PUCSBASE
  2

  9
$PUCSNAME
  2

  9
$PUCSORG
 10
0
 20
0
 30
0
  9
$PUCSXDIR
 10
1
 20
0
 30
0
  9
$PUCSYDIR
 10
0
 20
1
 30
0
  9
$PUCSORTHOREF
  2

  9
$PUCSORTHOVIEW
 70
    0
  9
$PUCSORGTOP
 10
0
 20
0
 30
0
  9
$PUCSORGBOTTOM
 10
0
 20
0
 30
0
  9
$PUCSORGLEFT
 10
0
 20
0
 30
0
  9
$PUCSORGRIGHT
 10
0
 20
0
 30
0
  9
$PUCSORGFRONT
 10
0
 20
0
 30
0
  9
$PUCSORGBACK
 10
0
 20
0
 30
0
  9
$USERI1
 70
    0
  9
$USERI2
 70
    0
  9
$USERI3
 70
    0
  9
$USERI4
 70
    0
  9
$USERI5
 70
    0
  9
$USERR1
 40
0
  9
$USERR2
 40
0
  9
$USERR3
 40
0
  9
$USERR4
 40
0
  9
$USERR5
 40
0
  9
$WORLDVIEW
 70
    1
  9
$SHADEDGE
 70
    3
  9
$SHADEDIF
 70
   70
  9
$TILEMODE
 70
    1
  9
$MAXACTVP
 70
   64
  9
$PINSBASE
 10
0
 20
0
 30
0
  9
$PLIMCHECK
 70
    0
  9
$PEXTMIN
 10
0
 20
0
 30
0
  9
$PEXTMAX
 10
0
 20
0
 30
0
  9
$PLIMMIN
 10
0
 20
0
  9
$PLIMMAX
 10
297
 20
210
  9
$UNITMODE
 70
    0
  9
$VISRETAIN
 70
    1
  9
$PLINEGEN
 70
    0
  9
$PSLTSCALE
 70
    1
  9
$TREEDEPTH
 70
 3020
  9
$CMLSTYLE
  2
Standard
  9
$CMLJUST
 70
    0
  9
$CMLSCALE
 40
20
  9
$PROXYGRAPHICS
 70
    1
  9
$MEASUREMENT
 70
    1
  9
$CELWEIGHT
370
   -1
  9
$ENDCAPS
280
    0
  9
$JOINSTYLE
280
    0
  9
$LWDISPLAY
290
    0
  9
$INSUNITS
 70
    4
  9
$HYPERLINKBASE
  1

  9
$STYLESHEET
  1

  9
$XEDIT
290
    1
  9
$CEPSNTYPE
380
    0
  9
$PSTYLEMODE
290
    1
  9
$EXTNAMES
290
    1
  9
$PSVPSCALE
 40
0
  9
$OLESTARTUP
290
    0
  9
$SORTENTS
280
  127
  9
$INDEXCTL
280
    0
  9
$HIDETEXT
280
    1
  9
$XCLIPFRAME
280
    0
  9
$HALOGAP
280
    0
  9
$OBSCOLOR
 70
  257
  9
$OBSLTYPE
280
    0
  9
$INTERSECTIONDISPLAY
280
    0
  9
$INTERSECTIONCOLOR
 70
  257
  9
$DIMASSOC
280
    1
  9
$PROJECTNAME
  1

  9
$CAMERADISPLAY
290
    0
  9
$LENSLENGTH
 40
50
  9
$CAMERAHEIGHT
 40
0
  9
$STEPSPERSEC
 40
2
  9
$STEPSIZE
 40
50
  9
$3DDWFPREC
 40
2
  9
$PSOLWIDTH
 40
5
  9
$PSOLHEIGHT
 40
80
  9
$LOFTANG1
 40
1.570796326794897
  9
$LOFTANG2
 40
1.570796326794897
  9
$LOFTMAG1
 40
0
  9
$LOFTMAG2
 40
0
  9
$LOFTPARAM
 70
    7
  9
$LOFTNORMALS
280
    1
  9
$LATITUDE
 40
1
  9
$LONGITUDE
 40
1
  9
$NORTHDIRECTION
 40
0
  9
$TIMEZONE
 70
-8000
  9
$LIGHTGLYPHDISPLAY
280
    1
  9
$TILEMODELIGHTSYNCH
280
    1
  9
$SOLIDHIST
280
    1
  9
$SHOWHIST
280
    1
  9
$DWFFRAME
280
    2
  9
$DGNFRAME
280
    0
  9
$REALWORLDSCALE
290
    1
  9
$INTERFERECOLOR
 62
    1
  9
$CSHADOW
280
    0
  9
$SHADOWPLANELOCATION
 40
0
  0
ENDSEC
  0
SECTION
  2
CLASSES
  0
ENDSEC
  0
SECTION
  2
TABLES
  0
TABLE
  2
VPORT
  5
8
330
0
100
AcDbSymbolTable
 70
    1
  0
VPORT
  5
31
330
2
100
AcDbSymbolTableRecord
100
AcDbViewportTableRecord
  2
*ACTIVE
 70
    0
 10
0
 20
0
 11
1
 21
1
 12
0.651828
 22
-0.16
 13
0
 23
0
 14
10
 24
10
 15
10
 25
10
 16
0
 26
0
 36
1
 17
0
 27
0
 37
0
 40
5.13732
 41
2.4426877
 42
50
 43
0
 44
0
 50
0
 51
0
 71
    0
 72
  100
 73
    1
 74
    3
 75
    0
 76
    0
 77
    0
 78
    0
281
    0
 65
    1
110
0
120
0
130
0
111
1
121
0
131
0
112
0
122
1
132
0
 79
    0
146
0
348
10020
 60
    7
 61
    5
292
1
282
    1
141
0
142
0
 63
  250
421
3358443
  0
ENDTAB
  0
TABLE
  2
LTYPE
  5
5
330
0
100
AcDbSymbolTable
 70
    4
  0
LTYPE
  5
14
330
5
100
AcDbSymbolTableRecord
100
AcDbLinetypeTableRecord
  2
ByBlock
 70
    0
  3

 72
   65
 73
    0
 40
0
  0
LTYPE
  5
15
330
5
100
AcDbSymbolTableRecord
100
AcDbLinetypeTableRecord
  2
ByLayer
 70
    0
  3

 72
   65
 73
    0
 40
0
  0
LTYPE
  5
16
330
5
100
AcDbSymbolTableRecord
100
AcDbLinetypeTableRecord
  2
Continuous
 70
    0
  3
Solid line
 72
   65
 73
    0
 40
0
  0
ENDTAB
  0
TABLE
  2
LAYER
  5
2
330
0
100
AcDbSymbolTable
 70
    1
  0
LAYER
  5
10
330
2
100
AcDbSymbolTableRecord
100
AcDbLayerTableRecord
  2
0
 70
    0
 62
  250
  6
CONTINUOUS
370
   13
390
F
  0
LAYER
  5
32
330
2
100
AcDbSymbolTableRecord
100
AcDbLayerTableRecord
  2
1
 70
    0
 62
  250
  6
CONTINUOUS
370
   -3
390
F
  0
LAYER
  5
33
330
2
100
AcDbSymbolTableRecord
100
AcDbLayerTableRecord
  2
8
 70
    0
 62
  250
  6
CONTINUOUS
370
   -3
390
F
  0
LAYER
  5
34
330
2
100
AcDbSymbolTableRecord
100
AcDbLayerTableRecord
  2
7
 70
    0
 62
  250
  6
CONTINUOUS
370
   -3
390
F
  0
LAYER
  5
35
330
2
100
AcDbSymbolTableRecord
100
AcDbLayerTableRecord
  2
11
 70
    0
 62
  250
  6
CONTINUOUS
370
   -3
390
F
  0
LAYER
  5
36
330
2
100
AcDbSymbolTableRecord
100
AcDbLayerTableRecord
  2
4
 70
    0
 62
  250
  6
CONTINUOUS
370
   -3
390
F
  0
ENDTAB
  0
TABLE
  2
STYLE
  5
3
330
0
100
AcDbSymbolTable
 70
    3
  0
STYLE
  5
37
330
2
100
AcDbSymbolTableRecord
100
AcDbTextStyleTableRecord
  2
Standard
 70
    0
 40
0
 41
1
 50
0
 71
    0
 42
2.5
  3
txt
  4

1001
ACAD
1000
txt
  0
ENDTAB
  0
TABLE
  2
VIEW
  5
6
330
0
100
AcDbSymbolTable
 70
    0
  0
ENDTAB
  0
TABLE
  2
UCS
  5
7
330
0
100
AcDbSymbolTable
 70
    0
  0
ENDTAB
  0
TABLE
  2
APPID
  5
9
330
0
100
AcDbSymbolTable
 70
    1
  0
APPID
  5
12
330
9
100
AcDbSymbolTableRecord
100
AcDbRegAppTableRecord
  2
ACAD
 70
    0
  0
APPID
  5
38
330
9
100
AcDbSymbolTableRecord
100
AcDbRegAppTableRecord
  2
Seamly2D
 70
    0
  0
ENDTAB
  0
TABLE
  2
DIMSTYLE
  5
A
330
0
100
AcDbSymbolTable
 70
    1
100
AcDbDimStyleTable
 71
    1
  0
DIMSTYLE
105
39
330
A
100
AcDbSymbolTableRecord
100
AcDbDimStyleTableRecord
  2
Standard
 70
    0
 40
1
 41
2.5
 42
0.625
 43
3.75
 44
1.25
 45
0
 46
0
 47
0
 48
0
140
2.5
141
2.5
142
0
143
0.03937007874015748
144
1
145
0
146
1
147
0.625
148
0
 71
    0
 72
    0
 73
    0
 74
    0
 75
    0
 76
    0
 77
    1
 78
    8
 79
    0
170
    0
171
    3
172
    1
173
    0
174
    0
175
    0
176
    0
177
    0
178
    0
179
    0
271
    2
272
    2
273
    2
274
    3
275
    0
276
    0
277
    2
278
   44
279
    0
280
    0
281
    0
282
    0
283
    0
284
    8
285
    0
286
    0
288
    0
289
    3
341

371
   -2
372
   -2
  0
ENDTAB
  0
TABLE
  2
BLOCK_RECORD
  5
1
330
0
100
AcDbSymbolTable
 70
    2
  0
BLOCK_RECORD
  5
1F
330
1
100
AcDbSymbolTableRecord
100
AcDbBlockTableRecord
  2
*Model_Space
 70
    0
280
    1
281
    0
  0
BLOCK_RECORD
  5
1E
330
1
100
AcDbSymbolTableRecord
100
AcDbBlockTableRecord
  2
*Paper_Space
 70
    0
280
    1
281
    0
  0
BLOCK_RECORD
  5
3A
330
1
100
AcDbSymbolTableRecord
100
AcDbBlockTableRecord
  2
Bk Trace
 70
    0
280
    1
281
    0
  0
BLOCK_RECORD
  5
3D
330
1
100
AcDbSymbolTableRecord
100
AcDbBlockTableRecord
  2
Fr Trace
 70
    0
280
    1
281
    0
  0
ENDTAB
  0
ENDSEC
  0
SECTION
  2
BLOCKS
  0
BLOCK
  5
20
330
1F
100
AcDbEntity
  8
0
100
AcDbBlockBegin
  2
*Model_Space
 70
    0
 10
0
 20
0
 30
0
  3
*Model_Space
  1

  0
ENDBLK
  5
21
330
1F
100
AcDbEntity
  8
0
100
AcDbBlockEnd
  0
BLOCK
  5
1C
330
1B
100
AcDbEntity
  8
0
100
AcDbBlockBegin
  2
*Paper_Space
 70
    0
 10
0
 20
0
 30
0
  3
*Paper_Space
  1

  0
ENDBLK
  5
1D
330
1F
100
AcDbEntity
  8
0
100
AcDbBlockEnd
  0
BLOCK
  5
3B
330
3A
100
AcDbEntity
  8
1
100
AcDbBlockBegin
  2
Bk Trace
 70
    0
 10
0
 20
0
  3
Bk Trace
  1

  0
LWPOLYLINE
  5
40
100
AcDbEntity
  8
1
  6
BYLAYER
 62
  256
370
   -1
100
AcDbPolyline
 90
  229
 70
    1
 43
0
 10
819.9305529851783
 20
775.6625554770043
 10
819.0659828508714
 20
775.2726395587819
 10
817.4202713384665
 20
774.3568228211909
 10
815.8722267847364
 20
773.2852685330146
 10
814.4191296910411
 20
772.0662481729081
 10
813.0582605587401
 20
770.7080332195267
 10
811.7868998891931
 20
769.2188951515257
 10
810.6023281837603
 20
767.6071054475601
 10
809.5018259438009
 20
765.8809355862855
 10
808.4826736706752
 20
764.0486570463572
 10
807.5421518657427
 20
762.1185413064302
 10
806.2638734177314
 20
759.0676616190204
 10
804.8219786333424
 20
754.7196646830375
 10
803.645654746202
 20
750.129205562855
 10
802.7131457671881
 20
745.3624560877145
 10
802.0026957071788
 20
740.4855880868581
 10
801.4925485770522
 20
735.5647733895281
 10
801.1609483876863
 20
730.6661838249665
 10
800.9861391499594
 20
725.8559912224152
 10
800.9463648747494
 20
721.2003674111163
 10
801.0822221667353
 20
714.6114992586887
 10
801.297387177481
 20
710.6878893987331
 10
801.5675296408716
 20
706.767681066965
 10
802.2449234028344
 20
700.2123184968918
 10
802.8582966756107
 20
695.597105793934
 10
803.6247288237246
 20
690.8451490490158
 10
804.5576528523175
 20
686.0247972813029
 10
805.6705017665299
 20
681.2043995099596
 10
806.976708571503
 20
676.4523047541509
 10
808.4897062723778
 20
671.8368620330415
 10
810.2229278742954
 20
667.4264203657964
 10
812.1898063823967
 20
663.2893287715802
 10
813.8344197960976
 20
660.4192922949527
 10
815.0056951721059
 20
658.6198362580834
 10
816.2429408400515
 20
656.9271640627517
 10
817.5478359255778
 20
655.349819336353
 10
818.9220595543269
 20
653.896345706283
 10
820.3672908519417
 20
652.5752867999373
 10
821.8852089440647
 20
651.3951862447116
 10
823.4774929563386
 20
650.3645876680013
 10
825.1458220144059
 20
649.4920346972021
 10
826.8918752439095
 20
648.7860709597097
 10
827.7979166022088
 20
648.5057051317814
 10
787.7302573772216
 20
510.7184227569907
 10
641.8610601609106
 20
500.6913891244063
 10
640.6817609599274
 20
500.6301919398849
 10
638.3415638514067
 20
500.6960653907189
 10
636.0214551517365
 20
500.9667083940442
 10
633.7192202572674
 20
501.4186189150159
 10
631.4326445643494
 20
502.0282949187884
 10
629.1595134693333
 20
502.7722343705166
 10
625.7691924912946
 20
504.0790382666966
 10
619.0366312067995
 20
507.1481973522653
 10
612.3167127005969
 20
510.2673790009021
 10
608.940930917595
 20
511.6317088446103
 10
606.6804426008716
 20
512.4256708594066
 10
605.5457423667274
 20
512.7718565618641
 10
598.4317218772273
 20
514.9328256067497
 10
584.1135490627694
 20
519.5660225569346
 10
573.2937991273163
 20
522.8885009890064
 10
566.0436675221196
 20
524.8844805025531
 10
558.760310257874
 20
526.5994560329996
 10
553.2740055682461
 20
527.6353607094173
 10
549.6060589763401
 20
528.2004715829788
 10
547.7682949882259
 20
528.4338032615709
 10
532.4330080700556
 20
530.3595027378678
 10
509.1146193667456
 20
533.2930733755381
 10
497.3937551919583
 20
534.5878545074672
 10
489.5699263879134
 20
535.3452686216908
 10
481.744357665009
 20
535.9876523465297
 10
473.9233605823253
 20
536.4922626308746
 10
466.1132466989427
 20
536.8363564236162
 10
458.3203275739415
 20
536.9971906736454
 10
450.5509147664025
 20
536.952022329853
 10
442.8113198354056
 20
536.6781083411297
 10
435.1078543400314
 20
536.1527056563663
 10
427.4468298393603
 20
535.3530712244535
 10
423.6363681714728
 20
534.8304621363523
 10
421.7615153309675
 20
534.5294611922839
 10
418.0984896229131
 20
533.6478087344868
 10
414.5310730423012
 20
532.459955595
 10
411.0499246556819
 20
530.9985462203816
 10
407.6457035296054
 20
529.2962250571906
 10
404.3090687306217
 20
527.385636551985
 10
401.030679325281
 20
525.2994251513236
 10
397.8011943801331
 20
523.0702353017646
 10
393.0250355175308
 20
519.5374465791526
 10
386.7474011869944
 20
514.6129295453518
 10
380.497247895132
 20
509.7040987540136
 10
375.7794862397113
 20
506.2046432966349
 10
372.6049633719111
 20
504.0068259320014
 10
371.003439501548
 20
502.9693993852983
 10
369.0296880935857
 20
501.6883323986863
 10
365.1434049433287
 20
498.9824527991969
 10
359.394351039294
 20
494.7276137514476
 10
353.658872097375
 20
490.415112530698
 10
349.7943088865034
 20
487.6169734544083
 10
345.8643073126086
 20
484.9514256363335
 10
341.8405200365428
 20
482.4807315274398
 10
339.7789187704247
 20
481.3499219375972
 10
335.1290217449831
 20
478.8810445136552
 10
325.7220649156364
 20
474.0218799766432
 10
316.2056816086908
 20
469.2636278751366
 10
306.6011705536546
 20
464.6136260563113
 10
296.9298304800361
 20
460.0792123673436
 10
287.212960117343
 20
455.6677246554094
 10
277.4718581950838
 20
451.3865007676849
 10
267.7278234427666
 20
447.2428785513464
 10
262.8625710776495
 20
445.2311531656123
 10
255.9295569529791
 20
442.3099076745747
 10
245.4023413176524
 20
437.7286236750659
 10
238.3120842624754
 20
434.7719165289061
 10
231.1559021225982
 20
432.0387958284295
 10
225.740922389184
 20
430.2284395343663
 10
222.1097880303273
 20
429.1520955182287
 10
218.4600127150596
 20
428.2051640134151
 10
214.7911165133286
 20
427.4039818865702
 10
211.1026194950821
 20
426.7648860043395
 10
207.3940417302674
 20
426.3042132333678
 10
205.5312058963539
 20
426.1543461358985
 10
204.6653942001164
 20
426.1217112779674
 10
202.9867318671748
 20
426.3294885195434
 10
201.363885063324
 20
426.8251965175276
 10
199.7882562970654
 20
427.564695724678
 10
198.2512480768995
 20
428.5038465937528
 10
196.744262911327
 20
429.5985095775099
 10
194.5202052119467
 20
431.4298886027611
 10
191.5832033103749
 20
434.0226126914661
 10
189.358770699902
 20
435.8596220630629
 10
187.851376540411
 20
436.9604272428332
 10
186.3138229950197
 20
437.9077677065923
 10
184.7375125722292
 20
438.6575039070981
 10
183.1138477805408
 20
439.1654962971089
 10
181.4342311284551
 20
439.3876053293824
 10
180.5678854679346
 20
439.3629894495797
 10
166.2117994642522
 20
671.3942985862025
 10
151.8557134605699
 20
903.4256077228249
 10
152.7184859846085
 20
903.5079746871065
 10
154.3579127707811
 20
903.9354373556066
 10
155.9065733743789
 20
904.6397057411967
 10
157.3784408306367
 20
905.5780367651727
 10
158.7874881747894
 20
906.7076873488299
 10
160.1476884420713
 20
907.9859144134641
 10
162.1287058995366
 20
910.0831205795544
 10
164.7237003956953
 20
913.0181166502319
 10
166.7050398586423
 20
915.1096891966362
 10
168.0655914046321
 20
916.3817704943402
 10
169.4751071203946
 20
917.5032267220905
 10
170.9475600411649
 20
918.4313148011827
 10
172.496923202178
 20
919.1232916529125
 10
174.1371696386681
 20
919.5364141985754
 10
175.000400776575
 20
919.610757522698
 10
176.8675031308767
 20
919.6916666666667
 10
180.6045833333333
 20
919.6916666666667
 10
184.3437302987243
 20
919.5121290062579
 10
188.0834064385064
 20
919.1693251133462
 10
191.8220741641362
 20
918.6795264158382
 10
195.55819588707
 20
918.0590043416397
 10
201.1550399882336
 20
916.9299642484583
 10
208.5935563554038
 20
915.0998369747938
 10
215.9942121180078
 20
913.0397018966795
 10
227.0058758757706
 20
909.7910570403135
 10
234.2461166025172
 20
907.7467296960389
 10
239.3222489897471
 20
906.3500910200744
 10
249.5027542208837
 20
903.4392266184059
 10
259.6973112550486
 20
900.3914484910119
 10
269.8838792644831
 20
897.2114130089619
 10
280.0404174214275
 20
893.9037765433252
 10
290.1448848981232
 20
890.4731954651711
 10
300.175240866811
 20
886.9243261455688
 10
310.1094444997316
 20
883.2618249555874
 10
315.0282175325459
 20
881.3849738870899
 10
317.2134908904109
 20
880.5169240841727
 10
321.5111534113202
 20
878.5610891527116
 10
325.7397652944035
 20
876.400325610927
 10
329.9197825351705
 20
874.0999154370728
 10
336.1431227638488
 20
870.5273222793963
 10
342.3728263586729
 20
867.0136249056339
 10
346.5630249852734
 20
864.8074479860422
 10
348.6796408551079
 20
863.7794574684859
 10
350.3968343938442
 20
862.9473643861513
 10
353.8180720564639
 20
861.1576355065879
 10
358.9312322730603
 20
858.2664322735118
 10
365.7388314760526
 20
854.1655020130478
 10
372.5756357771023
 20
850.052392756868
 10
377.7508568270706
 20
847.1353091578954
 10
381.2305046858051
 20
845.3212222869005
 10
384.7410589498539
 20
843.6550518693051
 10
388.2877652038393
 20
842.170344838961
 10
391.8758690323833
 20
840.9006481297185
 10
395.5106160201086
 20
839.8795086754287
 10
399.1972517516369
 20
839.1404734099426
 10
402.9410218115905
 20
838.7170892671107
 10
404.838679905978
 20
838.6494985969949
 10
408.6845018882061
 20
838.6005939712727
 10
416.3856678705376
 20
838.7514387165
 10
424.0951463933399
 20
839.179655397667
 10
431.8094775888571
 20
839.8618963924773
 10
439.525201589334
 20
840.7748140786342
 10
447.2388585270152
 20
841.8950608338415
 10
454.9469885341453
 20
843.1992890358027
 10
462.6461317429686
 20
844.6641510622214
 10
470.3328282857299
 20
846.2662992908009
 10
478.0036182946736
 20
847.9823860992452
 10
489.4754796218671
 20
850.7121320348688
 10
512.2543971537807
 20
856.4978043794744
 10
527.2353404932289
 20
860.2992093823453
 10
529.0303250129499
 20
860.7573040474598
 10
532.6006347891412
 20
861.7702554789346
 10
537.9173990619935
 20
863.4745604143784
 10
544.9338003306597
 20
866.0742810427784
 10
551.8825897713128
 20
868.9487667047073
 10
562.2102537749672
 20
873.5796637911193
 10
575.8480851550571
 20
879.9425359391452
 10
582.6414632022332
 20
882.9639742466616
 10
583.7248345809354
 20
883.447394992764
 10
585.8702100059397
 20
884.5139536628656
 10
589.0520629514214
 20
886.2840130975205
 10
595.3362251925181
 20
890.2077745345561
 10
601.639100106454
 20
894.0834534120294
 10
604.8424726257005
 20
895.7982179031875
 10
607.0065607235439
 20
896.8166940137266
 10
609.2005416375415
 20
897.7035880198134
 10
611.4295101947607
 20
898.4358501308125
 10
613.6985612222687
 20
898.9904305560882
 10
616.012789547133
 20
899.3442795050049
 10
617.1906381436138
 20
899.4289221928253
 10
763.1833418531278
 20
907.4597729314502
 10
819.9305529851783
 20
775.6625554770043
  0
LWPOLYLINE
  5
41
100
AcDbEntity
  8
8
  6
BYLAYER
 62
  256
370
   -1
100
AcDbPolyline
 90
  228
 70
    1
 43
0
 10
819.9305529851786
 20
775.6625554770043
 10
819.0659828508714
 20
775.2726395587819
 10
817.4202713384665
 20
774.3568228211909
 10
815.8722267847364
 20
773.2852685330146
 10
814.4191296910411
 20
772.0662481729081
 10
813.0582605587401
 20
770.7080332195267
 10
811.7868998891931
 20
769.2188951515257
 10
810.6023281837603
 20
767.6071054475601
 10
809.5018259438009
 20
765.8809355862855
 10
808.4826736706752
 20
764.0486570463572
 10
807.5421518657427
 20
762.1185413064302
 10
806.2638734177314
 20
759.0676616190204
 10
804.8219786333424
 20
754.7196646830375
 10
803.645654746202
 20
750.129205562855
 10
802.7131457671881
 20
745.3624560877145
 10
802.0026957071788
 20
740.4855880868581
 10
801.4925485770522
 20
735.5647733895281
 10
801.1609483876863
 20
730.6661838249665
 10
800.9861391499594
 20
725.8559912224152
 10
800.9463648747494
 20
721.2003674111163
 10
801.0822221667353
 20
714.6114992586887
 10
801.297387177481
 20
710.6878893987331
 10
801.5675296408716
 20
706.767681066965
 10
802.2449234028344
 20
700.2123184968918
 10
802.8582966756107
 20
695.597105793934
 10
803.6247288237246
 20
690.8451490490158
 10
804.5576528523175
 20
686.0247972813029
 10
805.6705017665299
 20
681.2043995099596
 10
806.976708571503
 20
676.4523047541509
 10
808.4897062723778
 20
671.8368620330415
 10
810.2229278742954
 20
667.4264203657964
 10
812.1898063823967
 20
663.2893287715802
 10
813.8344197960976
 20
660.4192922949527
 10
815.0056951721059
 20
658.6198362580834
 10
816.2429408400515
 20
656.9271640627517
 10
817.5478359255778
 20
655.349819336353
 10
818.9220595543269
 20
653.896345706283
 10
820.3672908519417
 20
652.5752867999373
 10
821.8852089440647
 20
651.3951862447116
 10
823.4774929563386
 20
650.3645876680013
 10
825.1458220144059
 20
649.4920346972021
 10
826.8918752439095
 20
648.7860709597097
 10
827.7979166022088
 20
648.5057051317814
 10
787.7302573772216
 20
510.7184227569907
 10
641.8610601609106
 20
500.6913891244063
 10
640.6817609599274
 20
500.6301919398849
 10
638.3415638514067
 20
500.6960653907189
 10
636.0214551517365
 20
500.9667083940442
 10
633.7192202572674
 20
501.4186189150159
 10
631.4326445643494
 20
502.0282949187884
 10
629.1595134693333
 20
502.7722343705166
 10
625.7691924912946
 20
504.0790382666966
 10
619.0366312067995
 20
507.1481973522653
 10
612.3167127005969
 20
510.2673790009021
 10
608.940930917595
 20
511.6317088446103
 10
606.6804426008716
 20
512.4256708594066
 10
605.5457423667274
 20
512.7718565618641
 10
598.4317218772273
 20
514.9328256067497
 10
584.1135490627694
 20
519.5660225569346
 10
573.2937991273163
 20
522.8885009890064
 10
566.0436675221196
 20
524.8844805025531
 10
558.760310257874
 20
526.5994560329996
 10
553.2740055682461
 20
527.6353607094173
 10
549.6060589763401
 20
528.2004715829788
 10
547.7682949882259
 20
528.4338032615709
 10
532.4330080700556
 20
530.3595027378678
 10
509.1146193667456
 20
533.2930733755381
 10
497.3937551919583
 20
534.5878545074672
 10
489.5699263879134
 20
535.3452686216908
 10
481.744357665009
 20
535.9876523465297
 10
473.9233605823253
 20
536.4922626308746
 10
466.1132466989427
 20
536.8363564236162
 10
458.3203275739415
 20
536.9971906736454
 10
450.5509147664025
 20
536.952022329853
 10
442.8113198354056
 20
536.6781083411297
 10
435.1078543400314
 20
536.1527056563663
 10
427.4468298393603
 20
535.3530712244535
 10
423.6363681714728
 20
534.8304621363523
 10
421.7615153309675
 20
534.5294611922839
 10
418.0984896229131
 20
533.6478087344868
 10
414.5310730423012
 20
532.459955595
 10
411.0499246556819
 20
530.9985462203816
 10
407.6457035296054
 20
529.2962250571906
 10
404.3090687306217
 20
527.385636551985
 10
401.030679325281
 20
525.2994251513236
 10
397.8011943801331
 20
523.0702353017646
 10
393.0250355175308
 20
519.5374465791526
 10
386.7474011869944
 20
514.6129295453518
 10
380.497247895132
 20
509.7040987540136
 10
375.7794862397113
 20
506.2046432966349
 10
372.6049633719111
 20
504.0068259320014
 10
371.003439501548
 20
502.9693993852983
 10
369.0296880935857
 20
501.6883323986863
 10
365.1434049433287
 20
498.9824527991969
 10
359.394351039294
 20
494.7276137514476
 10
353.658872097375
 20
490.415112530698
 10
349.7943088865034
 20
487.6169734544083
 10
345.8643073126086
 20
484.9514256363335
 10
341.8405200365428
 20
482.4807315274398
 10
339.7789187704247
 20
481.3499219375972
 10
335.1290217449831
 20
478.8810445136552
 10
325.7220649156364
 20
474.0218799766432
 10
316.2056816086908
 20
469.2636278751366
 10
306.6011705536546
 20
464.6136260563113
 10
296.9298304800361
 20
460.0792123673436
 10
287.212960117343
 20
455.6677246554094
 10
277.4718581950838
 20
451.3865007676849
 10
267.7278234427666
 20
447.2428785513464
 10
262.8625710776495
 20
445.2311531656123
 10
255.9295569529791
 20
442.3099076745747
 10
245.4023413176524
 20
437.7286236750659
 10
238.3120842624754
 20
434.7719165289061
 10
231.1559021225982
 20
432.0387958284295
 10
225.740922389184
 20
430.2284395343663
 10
222.1097880303273
 20
429.1520955182287
 10
218.4600127150596
 20
428.2051640134151
 10
214.7911165133286
 20
427.4039818865702
 10
211.1026194950821
 20
426.7648860043395
 10
207.3940417302674
 20
426.3042132333678
 10
205.5312058963539
 20
426.1543461358985
 10
204.6653942001164
 20
426.1217112779674
 10
202.9867318671748
 20
426.3294885195434
 10
201.363885063324
 20
426.8251965175276
 10
199.7882562970654
 20
427.564695724678
 10
198.2512480768995
 20
428.5038465937528
 10
196.744262911327
 20
429.5985095775099
 10
194.5202052119467
 20
431.4298886027611
 10
191.5832033103749
 20
434.0226126914661
 10
189.358770699902
 20
435.8596220630629
 10
187.851376540411
 20
436.9604272428332
 10
186.3138229950197
 20
437.9077677065923
 10
184.7375125722292
 20
438.6575039070981
 10
183.1138477805408
 20
439.1654962971089
 10
181.4342311284551
 20
439.3876053293824
 10
180.5678854679346
 20
439.3629894495797
 10
166.2117994642522
 20
671.3942985862025
 10
151.8557134605699
 20
903.4256077228249
 10
152.7184859846085
 20
903.5079746871065
 10
154.3579127707811
 20
903.9354373556066
 10
155.9065733743789
 20
904.6397057411967
 10
157.3784408306367
 20
905.5780367651727
 10
158.7874881747894
 20
906.7076873488299
 10
160.1476884420713
 20
907.9859144134641
 10
162.1287058995366
 20
910.0831205795544
 10
164.7237003956953
 20
913.0181166502319
 10
166.7050398586423
 20
915.1096891966362
 10
168.0655914046321
 20
916.3817704943402
 10
169.4751071203946
 20
917.5032267220905
 10
170.9475600411649
 20
918.4313148011827
 10
172.496923202178
 20
919.1232916529125
 10
174.1371696386681
 20
919.5364141985754
 10
175.000400776575
 20
919.610757522698
 10
176.8675031308767
 20
919.6916666666667
 10
180.6045833333333
 20
919.6916666666667
 10
184.3437302987243
 20
919.5121290062579
 10
188.0834064385064
 20
919.1693251133462
 10
191.8220741641362
 20
918.6795264158382
 10
195.55819588707
 20
918.0590043416397
 10
201.1550399882336
 20
916.9299642484583
 10
208.5935563554038
 20
915.0998369747938
 10
215.9942121180078
 20
913.0397018966795
 10
227.0058758757706
 20
909.7910570403135
 10
234.2461166025172
 20
907.7467296960389
 10
239.3222489897471
 20
906.3500910200744
 10
249.5027542208837
 20
903.4392266184059
 10
259.6973112550486
 20
900.3914484910119
 10
269.8838792644831
 20
897.2114130089619
 10
280.0404174214275
 20
893.9037765433252
 10
290.1448848981232
 20
890.4731954651711
 10
300.175240866811
 20
886.9243261455688
 10
310.1094444997316
 20
883.2618249555874
 10
315.0282175325459
 20
881.3849738870899
 10
317.2134908904109
 20
880.5169240841727
 10
321.5111534113202
 20
878.5610891527116
 10
325.7397652944035
 20
876.400325610927
 10
329.9197825351705
 20
874.0999154370728
 10
336.1431227638488
 20
870.5273222793963
 10
342.3728263586729
 20
867.0136249056339
 10
346.5630249852734
 20
864.8074479860422
 10
348.6796408551079
 20
863.7794574684859
 10
350.3968343938442
 20
862.9473643861513
 10
353.8180720564639
 20
861.1576355065879
 10
358.9312322730603
 20
858.2664322735118
 10
365.7388314760526
 20
854.1655020130478
 10
372.5756357771023
 20
850.052392756868
 10
377.7508568270706
 20
847.1353091578954
 10
381.2305046858051
 20
845.3212222869005
 10
384.7410589498539
 20
843.6550518693051
 10
388.2877652038393
 20
842.170344838961
 10
391.8758690323833
 20
840.9006481297185
 10
395.5106160201086
 20
839.8795086754287
 10
399.1972517516369
 20
839.1404734099426
 10
402.9410218115905
 20
838.7170892671107
 10
404.838679905978
 20
838.6494985969949
 10
408.6845018882061
 20
838.6005939712727
 10
416.3856678705376
 20
838.7514387165
 10
424.0951463933399
 20
839.179655397667
 10
431.8094775888571
 20
839.8618963924773
 10
439.525201589334
 20
840.7748140786342
 10
447.2388585270152
 20
841.8950608338415
 10
454.9469885341453
 20
843.1992890358027
 10
462.6461317429686
 20
844.6641510622214
 10
470.3328282857299
 20
846.2662992908009
 10
478.0036182946736
 20
847.9823860992452
 10
489.4754796218671
 20
850.7121320348688
 10
512.2543971537807
 20
856.4978043794744
 10
527.2353404932289
 20
860.2992093823453
 10
529.0303250129499
 20
860.7573040474598
 10
532.6006347891412
 20
861.7702554789346
 10
537.9173990619935
 20
863.4745604143784
 10
544.9338003306597
 20
866.0742810427784
 10
551.8825897713128
 20
868.9487667047073
 10
562.2102537749672
 20
873.5796637911193
 10
575.8480851550571
 20
879.9425359391452
 10
582.6414632022332
 20
882.9639742466616
 10
583.7248345809354
 20
883.447394992764
 10
585.8702100059397
 20
884.5139536628656
 10
589.0520629514214
 20
886.2840130975205
 10
595.3362251925181
 20
890.2077745345561
 10
601.639100106454
 20
894.0834534120294
 10
604.8424726257005
 20
895.7982179031875
 10
607.0065607235439
 20
896.8166940137266
 10
609.2005416375415
 20
897.7035880198134
 10
611.4295101947607
 20
898.4358501308125
 10
613.6985612222687
 20
898.9904305560882
 10
616.012789547133
 20
899.3442795050049
 10
617.1906381436138
 20
899.4289221928253
 10
763.1833418531278
 20
907.4597729314502
  0
LWPOLYLINE
  5
42
100
AcDbEntity
  8
8
  6
BYLAYER
 62
  256
370
   -1
100
AcDbPolyline
 90
    2
 70
    0
 43
0
 10
175.000400776575
 20
919.610757522698
 10
205.5312058963539
 20
426.1543461358985
  0
LWPOLYLINE
  5
43
100
AcDbEntity
  8
8
  6
BYLAYER
 62
  256
370
   -1
100
AcDbPolyline
 90
    2
 70
    0
 43
0
 10
234.2461166025172
 20
907.7467296960389
 10
262.8625710776495
 20
445.2311531656123
  0
LWPOLYLINE
  5
44
100
AcDbEntity
  8
8
  6
BYLAYER
 62
  256
370
   -1
100
AcDbPolyline
 90
    2
 70
    0
 43
0
 10
315.0282175325459
 20
881.3849738870899
 10
339.7789187704247
 20
481.3499219375972
  0
LWPOLYLINE
  5
45
100
AcDbEntity
  8
8
  6
BYLAYER
 62
  256
370
   -1
100
AcDbPolyline
 90
    2
 70
    0
 43
0
 10
348.6796408551079
 20
863.7794574684859
 10
371.003439501548
 20
502.9693993852983
  0
LWPOLYLINE
  5
46
100
AcDbEntity
  8
8
  6
BYLAYER
 62
  256
370
   -1
100
AcDbPolyline
 90
    2
 70
    0
 43
0
 10
404.838679905978
 20
838.6494985969949
 10
423.6363681714728
 20
534.8304621363523
  0
LWPOLYLINE
  5
47
100
AcDbEntity
  8
8
  6
BYLAYER
 62
  256
370
   -1
100
AcDbPolyline
 90
    2
 70
    0
 43
0
 10
527.2353404932289
 20
860.2992093823453
 10
547.7682949882259
 20
528.4338032615709
  0
LWPOLYLINE
  5
48
100
AcDbEntity
  8
8
  6
BYLAYER
 62
  256
370
   -1
100
AcDbPolyline
 90
    2
 70
    0
 43
0
 10
582.6414632022332
 20
882.9639742466616
 10
605.5457423667274
 20
512.7718565618641
  0
LWPOLYLINE
  5
49
100
AcDbEntity
  8
8
  6
BYLAYER
 62
  256
370
   -1
100
AcDbPolyline
 90
    2
 70
    0
 43
0
 10
617.1906381436138
 20
899.4289221928253
 10
641.8610601609106
 20
500.6913891244063
  0
LINE
  5
4A
100
AcDbEntity
  8
7
  6
BYLAYER
 62
  256
370
   -1
100
AcDbLine
 10
166.2117994642522
 20
671.3942985862025
 11
801.297387177481
 21
710.6878893987329
  0
ENDBLK
  5
3C
330
3A
100
AcDbEntity
  8
1
100
AcDbBlockEnd
  0
BLOCK
  5
3E
330
3D
100
AcDbEntity
  8
1
100
AcDbBlockBegin
  2
Fr Trace
 70
    0
 10
0
 20
0
  3
Fr Trace
  1

  0
LWPOLYLINE
  5
4B
100
AcDbEntity
  8
1
  6
BYLAYER
 62
  256
370
   -1
100
AcDbPolyline
 90
  241
 70
    1
 43
0
 10
166.5912074972797
 20
308.6219666483667
 10
217.0449172686261
 20
422.7783206997674
 10
363.8227441746722
 20
454.8304053236854
 10
368.187168539505
 20
455.84601529319
 10
374.9604278340424
 20
457.5268890678237
 10
379.5260392539469
 20
458.5212239058073
 10
384.0876132210662
 20
459.2624296458402
 10
387.477239765423
 20
459.5555461547092
 10
389.713886970547
 20
459.6094999993849
 10
391.9248577991664
 20
459.524090248446
 10
394.1046706927687
 20
459.2824099416426
 10
396.2478440928408
 20
458.8675521187239
 10
398.3488964408697
 20
458.2626098194399
 10
399.3798165920907
 20
457.8745966945517
 10
401.333907890235
 20
457.0657625965651
 10
405.108623346757
 20
455.1671835983477
 10
408.7432997483435
 20
452.9742851004484
 10
412.2602943314216
 20
450.53459317288
 10
415.6819643324182
 20
447.8956338856549
 10
419.0306669877605
 20
445.104933308786
 10
423.9679479341798
 20
440.7424465678796
 10
430.495836008064
 20
434.8209105164307
 10
435.4621733546064
 20
430.5387235302269
 10
438.8425739009919
 20
427.8356226857608
 10
442.3065077567129
 20
425.3134630417395
 10
445.8763321581964
 20
423.0197706681758
 10
449.5744043418695
 20
421.0020716350822
 10
452.4508007662849
 20
419.7097317652811
 10
454.4169826039139
 20
418.9524329447239
 10
455.4185562000544
 20
418.6134242317887
 10
459.0921322732021
 20
417.4155701412333
 10
466.5102188694171
 20
415.1073239051935
 10
474.0059582335333
 20
412.9121419699065
 10
481.5710519522151
 20
410.8390354094469
 10
489.1972016121269
 20
408.8970152978896
 10
496.8761087999335
 20
407.0950927093094
 10
504.5994751022992
 20
405.4422787177808
 10
512.3590021058884
 20
403.9475843973788
 10
520.1463913973656
 20
402.620020822178
 10
527.9533445633956
 20
401.4685990662534
 10
535.7715631906425
 20
400.5023302036795
 10
543.592748865771
 20
399.7302253085313
 10
551.4086031754456
 20
399.1612954548832
 10
559.2108277063305
 20
398.8045517168104
 10
566.9911240450906
 20
398.6690051683873
 10
574.7411937783901
 20
398.7636668836889
 10
578.6005223210972
 20
398.9102970040029
 10
580.4916979760181
 20
399.0258765144109
 10
584.2021965560573
 20
399.5713375463553
 10
587.8342715138447
 20
400.4590658657944
 10
591.3965891310596
 20
401.6502891106621
 10
594.8978156893819
 20
403.1062349188924
 10
598.3466174704907
 20
404.7881309284193
 10
601.7516607560661
 20
406.6572047771767
 10
605.121611827787
 20
408.6746841030989
 10
613.4528086874835
 20
414.105273873232
 10
623.4136890350277
 20
420.7038802296937
 10
628.4566550029937
 20
423.6955143316139
 10
631.8578545043429
 20
425.5044324404753
 10
633.5759699604733
 20
426.3269462677298
 10
637.5534547515861
 20
428.2128165738653
 10
645.5819707869706
 20
432.0934462161313
 10
651.6892143988628
 20
434.8592490853466
 10
655.80663172532
 20
436.5532939474353
 10
659.969150705691
 20
438.0654603924397
 10
664.1821289488049
 20
439.3458542049917
 10
666.3116518664824
 20
439.8707688503162
 10
671.1560206796315
 20
440.9830479098524
 10
680.9380561059111
 20
443.0313562546255
 10
690.8089746149211
 20
444.8861899903868
 10
700.7431381208322
 20
446.5675770284116
 10
710.7149085378137
 20
448.0955452799751
 10
720.698647780036
 20
449.4901226563524
 10
735.6471306766098
 20
451.386107022983
 10
745.538869371296
 20
452.5217769700266
 10
749.1454458253241
 20
452.8926325163612
 10
756.4251303497039
 20
453.3365997037499
 10
767.4413084847884
 20
453.5786213249339
 10
778.5050871896751
 20
453.637998434476
 10
785.8609326257388
 20
453.7897344032374
 10
793.1724873400705
 20
454.1644905690919
 10
798.6090791303449
 20
454.6766045544432
 10
802.2078893400917
 20
455.1422770358462
 10
803.9968754910667
 20
455.425485030572
 10
804.8037432442721
 20
455.5744851363495
 10
806.3857938301369
 20
456.0161763456828
 10
807.9346106598471
 20
456.607085621444
 10
809.4555138984033
 20
457.3214228181823
 10
811.6979952810964
 20
458.560570952279
 10
814.6361621913001
 20
460.4203311262063
 10
817.5584377069079
 20
462.3095803659246
 10
820.5073831479291
 20
464.0219975078265
 10
822.7653586686718
 20
465.0493400333867
 10
824.2997350707498
 20
465.5794984400932
 10
825.8647196966857
 20
465.9493931678165
 10
827.4656327114807
 20
466.1332340711053
 10
828.2830544427782
 20
466.137960791358
 10
824.3193356989073
 20
233.6967541202527
 10
820.3556169550367
 20
1.255547449147209
 10
819.5388316401591
 20
1.288141590986077
 10
817.945117508727
 20
1.5264590807654
 10
816.3936544221614
 20
1.949497235117885
 10
814.8782459881065
 20
2.531662295433201
 10
812.6566107432518
 20
3.635393673947332
 10
809.767765081939
 20
5.44736012703424
 10
806.9116029682658
 20
7.435146548991102
 10
804.0385532633852
 20
9.394002870936847
 10
801.8396247059014
 20
10.70888843593586
 10
800.3439612173871
 20
11.47466583232494
 10
798.8161920654697
 20
12.11803878996573
 10
797.2501208577936
 20
12.61341355024841
 10
796.4488024169226
 20
12.78983735534501
 10
794.6705124394313
 20
13.13387655748642
 10
791.0896718204608
 20
13.72198050003941
 10
785.6737015602091
 20
14.41915850323318
 10
778.3791752553153
 20
15.04298581245127
 10
771.032780058206
 20
15.44543269262645
 10
759.9774584297933
 20
15.88199719438806
 10
748.9759369996053
 20
16.49947706462207
 10
741.7156221196551
 20
17.19138853435291
 10
738.1237869679865
 20
17.68499546120309
 10
728.2765203487784
 20
19.15726607586735
 10
713.4013726573822
 20
21.56181983630219
 10
703.4709864852493
 20
23.29598412716474
 10
693.5571101701333
 20
25.16305365863816
 10
683.6860497475454
 20
27.18217056150169
 10
673.8841112529969
 20
29.37247696653385
 10
664.1776007219987
 20
31.75311500451377
 10
659.3739718712958
 20
33.02991716960738
 10
657.2635841591203
 20
33.62713316578336
 10
653.0967106897795
 20
35.05042494285384
 10
648.9881694833747
 20
36.70363417783304
 10
644.9309048920438
 20
38.53707833321723
 10
638.9215127416848
 20
41.50950091918293
 10
631.0299754751176
 20
45.66160830233702
 10
627.1191023906102
 20
47.68199534247927
 10
625.4300296513339
 20
48.56261046729369
 10
622.0924830963428
 20
50.48644148009441
 10
617.1544495717784
 20
53.64827722284095
 10
607.4243414913549
 20
60.58266543586349
 10
599.2831456063456
 20
66.29415175103576
 10
595.9839402523628
 20
68.42535729920962
 10
592.6446031708548
 20
70.4094401313555
 10
589.2551511667881
 20
72.20794590681766
 10
585.805601045129
 20
73.78242028494086
 10
582.2859696108441
 20
75.09440892506949
 10
578.6862736688997
 20
76.10545748654815
 10
574.9965300242619
 20
76.77711162872126
 10
573.1103946276833
 20
76.95710398068458
 10
569.2583093260162
 20
77.23523348544272
 10
561.5159730790126
 20
77.59408045795939
 10
553.7355788003568
 20
77.72388359495213
 10
545.9257273131055
 20
77.63336579517151
 10
538.0950194403154
 20
77.33124995736864
 10
530.2520560050428
 20
76.82625898029387
 10
522.4054378303449
 20
76.1271157626983
 10
514.563765739278
 20
75.24254320333262
 10
506.7356405548989
 20
74.18126420094734
 10
498.9296631002641
 20
72.95200165429338
 10
491.1544341984304
 20
71.56347846212164
 10
483.4185546724543
 20
70.02441752318282
 10
475.7306253453928
 20
68.34354173622738
 10
468.0992470403021
 20
66.52957400000629
 10
460.5330205802391
 20
64.5912372132704
 10
453.0405467882605
 20
62.53725427477033
 10
449.3282654792859
 20
61.46534799598344
 10
448.3157156339299
 20
61.16068525359228
 10
446.3248566896061
 20
60.47086412746931
 10
443.4060700274876
 20
59.27734699290183
 10
439.6413540606315
 20
57.38690763849191
 10
435.9954012590025
 20
55.21626277341939
 10
432.4474877964938
 20
52.81367311030846
 10
428.9768898469976
 20
50.22739936178307
 10
423.867437896575
 20
46.11703042569032
 10
417.1414491623737
 20
40.42150696764313
 10
412.0582988809586
 20
36.22989427978549
 10
408.616393661289
 20
33.55499098388029
 10
405.1067371718819
 20
31.0342285909297
 10
401.5086055866303
 20
28.71586781355742
 10
397.8012750794271
 20
26.64816936438777
 10
393.9640218241649
 20
24.87939395604481
 10
391.9834892833858
 20
24.1376552861185
 10
390.9399391293892
 20
23.78501720057954
 10
388.8194827182097
 20
23.25206245305494
 10
386.6634107157325
 20
22.91051779104544
 10
384.4766250469866
 20
22.7432991892745
 10
382.2640276370005
 20
22.73332262246536
 10
380.0305204108035
 20
22.86350406534182
 10
376.6528585025676
 20
23.2720201992122
 10
372.1192082532534
 20
24.16832283975897
 10
367.5901533896144
 20
25.31774506406964
 10
360.878141894521
 20
27.22857729297463
 10
356.5508824937993
 20
28.39240276329647
 10
210.9512165306567
 20
65.43027353661844
 10
164.4190265403203
 20
181.2404859304451
 10
166.6172039907533
 20
182.1543015670629
 10
171.1460582088188
 20
184.3364169832141
 10
175.7820104514015
 20
186.9145944173045
 10
180.4673927672542
 20
189.8562572542687
 10
185.1445372051301
 20
193.1288288790408
 10
189.755775813782
 20
196.6997326765548
 10
194.243440641963
 20
200.5363920317451
 10
198.5498637384261
 20
204.6062303295458
 10
202.6173771519242
 20
208.8766709548912
 10
206.3883129312104
 20
213.3151372927154
 10
208.9747730491485
 20
216.7381263197759
 10
210.5837440088386
 20
219.0528381964229
 10
212.0861323373992
 20
221.3912321552151
 10
213.4747295409245
 20
223.7492361192694
 10
214.7423271255087
 20
226.1227780117023
 10
215.8817165972457
 20
228.5077857556308
 10
216.8856894622298
 20
230.9001872741716
 10
217.7470372265551
 20
233.2959104904415
 10
218.4585513963158
 20
235.6908833275572
 10
219.0130234776059
 20
238.0810337086356
 10
219.4032449765195
 20
240.4622895567933
 10
219.6220073991508
 20
242.8305787951473
 10
219.6572441434675
 20
244.0077936314081
 10
219.6621652792332
 20
245.1855254265488
 10
219.5242773784423
 20
247.5598964676615
 10
219.2154721888894
 20
249.9530725137359
 10
218.7428151750463
 20
252.3607380802889
 10
218.1133718013852
 20
254.7785776828362
 10
217.3342075323779
 20
257.2022758368943
 10
216.4123878324965
 20
259.6275170579797
 10
215.3549781662129
 20
262.0499858616083
 10
214.1690439979992
 20
264.4653667632967
 10
212.8616507923271
 20
266.869344278561
 10
211.4398640136689
 20
269.2576029229176
 10
209.9107491264963
 20
271.6258272118827
 10
207.4425003517225
 20
275.1350119899882
 10
203.8250874999555
 20
279.6994686217649
 10
199.9055405746269
 20
284.1061091112688
 10
195.7403832915125
 20
288.32040958263
 10
191.3861393663882
 20
292.307846159979
 10
186.8993325150298
 20
296.0338949674457
 10
182.3364864532129
 20
299.4640321291609
 10
177.7541248967135
 20
302.5637337692543
 10
173.2087715613074
 20
305.2984760118566
 10
168.7569501627703
 20
307.6337349810976
 10
166.5912074972797
 20
308.6219666483667
  0
LWPOLYLINE
  5
4C
100
AcDbEntity
  8
8
  6
BYLAYER
 62
  256
370
   -1
100
AcDbPolyline
 90
  240
 70
    1
 43
0
 10
217.0449172686261
 20
422.7783206997674
 10
363.8227441746722
 20
454.8304053236854
 10
368.187168539505
 20
455.84601529319
 10
374.9604278340424
 20
457.5268890678237
 10
379.5260392539469
 20
458.5212239058073
 10
384.0876132210662
 20
459.2624296458402
 10
387.477239765423
 20
459.5555461547092
 10
389.713886970547
 20
459.6094999993849
 10
391.9248577991664
 20
459.524090248446
 10
394.1046706927687
 20
459.2824099416426
 10
396.2478440928408
 20
458.8675521187239
 10
398.3488964408697
 20
458.2626098194399
 10
399.3798165920907
 20
457.8745966945517
 10
401.333907890235
 20
457.0657625965651
 10
405.108623346757
 20
455.1671835983477
 10
408.7432997483435
 20
452.9742851004484
 10
412.2602943314216
 20
450.53459317288
 10
415.6819643324182
 20
447.8956338856549
 10
419.0306669877605
 20
445.104933308786
 10
423.9679479341798
 20
440.7424465678796
 10
430.495836008064
 20
434.8209105164307
 10
435.4621733546064
 20
430.5387235302269
 10
438.8425739009919
 20
427.8356226857608
 10
442.3065077567129
 20
425.3134630417395
 10
445.8763321581964
 20
423.0197706681758
 10
449.5744043418695
 20
421.0020716350822
 10
452.4508007662849
 20
419.7097317652811
 10
454.4169826039139
 20
418.9524329447239
 10
455.4185562000544
 20
418.6134242317887
 10
459.0921322732021
 20
417.4155701412333
 10
466.5102188694171
 20
415.1073239051935
 10
474.0059582335333
 20
412.9121419699065
 10
481.5710519522151
 20
410.8390354094469
 10
489.1972016121269
 20
408.8970152978896
 10
496.8761087999335
 20
407.0950927093094
 10
504.5994751022992
 20
405.4422787177808
 10
512.3590021058884
 20
403.9475843973788
 10
520.1463913973656
 20
402.620020822178
 10
527.9533445633956
 20
401.4685990662534
 10
535.7715631906425
 20
400.5023302036795
 10
543.592748865771
 20
399.7302253085313
 10
551.4086031754456
 20
399.1612954548832
 10
559.2108277063305
 20
398.8045517168104
 10
566.9911240450906
 20
398.6690051683873
 10
574.7411937783901
 20
398.7636668836889
 10
578.6005223210972
 20
398.9102970040029
 10
580.4916979760181
 20
399.0258765144109
 10
584.2021965560573
 20
399.5713375463553
 10
587.8342715138447
 20
400.4590658657944
 10
591.3965891310596
 20
401.6502891106621
 10
594.8978156893819
 20
403.1062349188924
 10
598.3466174704907
 20
404.7881309284193
 10
601.7516607560661
 20
406.6572047771767
 10
605.121611827787
 20
408.6746841030989
 10
613.4528086874835
 20
414.105273873232
 10
623.4136890350277
 20
420.7038802296937
 10
628.4566550029937
 20
423.6955143316139
 10
631.8578545043429
 20
425.5044324404753
 10
633.5759699604733
 20
426.3269462677298
 10
637.5534547515861
 20
428.2128165738653
 10
645.5819707869706
 20
432.0934462161313
 10
651.6892143988628
 20
434.8592490853466
 10
655.80663172532
 20
436.5532939474353
 10
659.969150705691
 20
438.0654603924397
 10
664.1821289488049
 20
439.3458542049917
 10
666.3116518664824
 20
439.8707688503162
 10
671.1560206796315
 20
440.9830479098524
 10
680.9380561059111
 20
443.0313562546255
 10
690.8089746149211
 20
444.8861899903868
 10
700.7431381208322
 20
446.5675770284116
 10
710.7149085378137
 20
448.0955452799751
 10
720.698647780036
 20
449.4901226563524
 10
735.6471306766098
 20
451.386107022983
 10
745.538869371296
 20
452.5217769700266
 10
749.1454458253241
 20
452.8926325163612
 10
756.4251303497039
 20
453.3365997037499
 10
767.4413084847884
 20
453.5786213249339
 10
778.5050871896751
 20
453.637998434476
 10
785.8609326257388
 20
453.7897344032374
 10
793.1724873400705
 20
454.1644905690919
 10
798.6090791303449
 20
454.6766045544432
 10
802.2078893400917
 20
455.1422770358462
 10
803.9968754910667
 20
455.425485030572
 10
804.8037432442721
 20
455.5744851363495
 10
806.3857938301369
 20
456.0161763456828
 10
807.9346106598471
 20
456.607085621444
 10
809.4555138984033
 20
457.3214228181823
 10
811.6979952810964
 20
458.560570952279
 10
814.6361621913001
 20
460.4203311262063
 10
817.5584377069079
 20
462.3095803659246
 10
820.5073831479291
 20
464.0219975078265
 10
822.7653586686718
 20
465.0493400333867
 10
824.2997350707498
 20
465.5794984400932
 10
825.8647196966857
 20
465.9493931678165
 10
827.4656327114807
 20
466.1332340711053
 10
828.2830544427782
 20
466.137960791358
 10
824.3193356989073
 20
233.6967541202527
 10
820.3556169550367
 20
1.255547449147209
 10
819.5388316401591
 20
1.288141590986077
 10
817.945117508727
 20
1.5264590807654
 10
816.3936544221614
 20
1.949497235117885
 10
814.8782459881065
 20
2.531662295433201
 10
812.6566107432518
 20
3.635393673947332
 10
809.767765081939
 20
5.44736012703424
 10
806.9116029682658
 20
7.435146548991102
 10
804.0385532633852
 20
9.394002870936847
 10
801.8396247059014
 20
10.70888843593586
 10
800.3439612173871
 20
11.47466583232494
 10
798.8161920654697
 20
12.11803878996573
 10
797.2501208577936
 20
12.61341355024841
 10
796.4488024169226
 20
12.78983735534501
 10
794.6705124394313
 20
13.13387655748642
 10
791.0896718204608
 20
13.72198050003941
 10
785.6737015602091
 20
14.41915850323318
 10
778.3791752553153
 20
15.04298581245127
 10
771.032780058206
 20
15.44543269262645
 10
759.9774584297933
 20
15.88199719438806
 10
748.9759369996053
 20
16.49947706462207
 10
741.7156221196551
 20
17.19138853435291
 10
738.1237869679865
 20
17.68499546120309
 10
728.2765203487784
 20
19.15726607586735
 10
713.4013726573822
 20
21.56181983630219
 10
703.4709864852493
 20
23.29598412716474
 10
693.5571101701333
 20
25.16305365863816
 10
683.6860497475454
 20
27.18217056150169
 10
673.8841112529969
 20
29.37247696653385
 10
664.1776007219987
 20
31.75311500451377
 10
659.3739718712958
 20
33.02991716960738
 10
657.2635841591203
 20
33.62713316578336
 10
653.0967106897795
 20
35.05042494285384
 10
648.9881694833747
 20
36.70363417783304
 10
644.9309048920438
 20
38.53707833321723
 10
638.9215127416848
 20
41.50950091918293
 10
631.0299754751176
 20
45.66160830233702
 10
627.1191023906102
 20
47.68199534247927
 10
625.4300296513339
 20
48.56261046729369
 10
622.0924830963428
 20
50.48644148009441
 10
617.1544495717784
 20
53.64827722284095
 10
607.4243414913549
 20
60.58266543586349
 10
599.2831456063456
 20
66.29415175103576
 10
595.9839402523628
 20
68.42535729920962
 10
592.6446031708548
 20
70.4094401313555
 10
589.2551511667881
 20
72.20794590681766
 10
585.805601045129
 20
73.78242028494086
 10
582.2859696108441
 20
75.09440892506949
 10
578.6862736688997
 20
76.10545748654815
 10
574.9965300242619
 20
76.77711162872126
 10
573.1103946276833
 20
76.95710398068458
 10
569.2583093260162
 20
77.23523348544272
 10
561.5159730790126
 20
77.59408045795939
 10
553.7355788003568
 20
77.72388359495213
 10
545.9257273131055
 20
77.63336579517151
 10
538.0950194403154
 20
77.33124995736864
 10
530.2520560050428
 20
76.82625898029387
 10
522.4054378303449
 20
76.1271157626983
 10
514.563765739278
 20
75.24254320333262
 10
506.7356405548989
 20
74.18126420094734
 10
498.9296631002641
 20
72.95200165429338
 10
491.1544341984304
 20
71.56347846212164
 10
483.4185546724543
 20
70.02441752318282
 10
475.7306253453928
 20
68.34354173622738
 10
468.0992470403021
 20
66.52957400000629
 10
460.5330205802391
 20
64.5912372132704
 10
453.0405467882605
 20
62.53725427477033
 10
449.3282654792859
 20
61.46534799598344
 10
448.3157156339299
 20
61.16068525359228
 10
446.3248566896061
 20
60.47086412746931
 10
443.4060700274876
 20
59.27734699290183
 10
439.6413540606315
 20
57.38690763849191
 10
435.9954012590025
 20
55.21626277341939
 10
432.4474877964938
 20
52.81367311030846
 10
428.9768898469976
 20
50.22739936178307
 10
423.867437896575
 20
46.11703042569032
 10
417.1414491623737
 20
40.42150696764313
 10
412.0582988809586
 20
36.22989427978549
 10
408.616393661289
 20
33.55499098388029
 10
405.1067371718819
 20
31.0342285909297
 10
401.5086055866303
 20
28.71586781355742
 10
397.8012750794271
 20
26.64816936438777
 10
393.9640218241649
 20
24.87939395604481
 10
391.9834892833858
 20
24.1376552861185
 10
390.9399391293892
 20
23.78501720057954
 10
388.8194827182097
 20
23.25206245305494
 10
386.6634107157325
 20
22.91051779104544
 10
384.4766250469866
 20
22.7432991892745
 10
382.2640276370005
 20
22.73332262246536
 10
380.0305204108035
 20
22.86350406534182
 10
376.6528585025676
 20
23.2720201992122
 10
372.1192082532534
 20
24.16832283975897
 10
367.5901533896144
 20
25.31774506406964
 10
360.878141894521
 20
27.22857729297463
 10
356.5508824937993
 20
28.39240276329647
 10
210.9512165306567
 20
65.43027353661844
 10
164.4190265403203
 20
181.2404859304451
 10
166.6172039907533
 20
182.1543015670629
 10
171.1460582088188
 20
184.3364169832141
 10
175.7820104514015
 20
186.9145944173045
 10
180.4673927672542
 20
189.8562572542687
 10
185.1445372051301
 20
193.1288288790408
 10
189.755775813782
 20
196.6997326765548
 10
194.243440641963
 20
200.5363920317451
 10
198.5498637384261
 20
204.6062303295458
 10
202.6173771519242
 20
208.8766709548912
 10
206.3883129312104
 20
213.3151372927154
 10
208.9747730491485
 20
216.7381263197759
 10
210.5837440088386
 20
219.0528381964229
 10
212.0861323373992
 20
221.3912321552151
 10
213.4747295409245
 20
223.7492361192694
 10
214.7423271255087
 20
226.1227780117023
 10
215.8817165972457
 20
228.5077857556308
 10
216.8856894622298
 20
230.9001872741716
 10
217.7470372265551
 20
233.2959104904415
 10
218.4585513963158
 20
235.6908833275572
 10
219.0130234776059
 20
238.0810337086356
 10
219.4032449765195
 20
240.4622895567933
 10
219.6220073991508
 20
242.8305787951473
 10
219.6572441434675
 20
244.0077936314081
 10
219.6621652792332
 20
245.1855254265488
 10
219.5242773784423
 20
247.5598964676615
 10
219.2154721888894
 20
249.9530725137359
 10
218.7428151750463
 20
252.3607380802889
 10
218.1133718013852
 20
254.7785776828362
 10
217.3342075323779
 20
257.2022758368943
 10
216.4123878324965
 20
259.6275170579797
 10
215.3549781662129
 20
262.0499858616083
 10
214.1690439979992
 20
264.4653667632967
 10
212.8616507923271
 20
266.869344278561
 10
211.4398640136689
 20
269.2576029229176
 10
209.9107491264963
 20
271.6258272118827
 10
207.4425003517225
 20
275.1350119899882
 10
203.8250874999555
 20
279.6994686217649
 10
199.9055405746269
 20
284.1061091112688
 10
195.7403832915125
 20
288.32040958263
 10
191.3861393663882
 20
292.307846159979
 10
186.8993325150298
 20
296.0338949674457
 10
182.3364864532129
 20
299.4640321291609
 10
177.7541248967135
 20
302.5637337692543
 10
173.2087715613074
 20
305.2984760118566
 10
168.7569501627703
 20
307.6337349810976
 10
166.5912074972798
 20
308.6219666483667
  0
LWPOLYLINE
  5
4D
100
AcDbEntity
  8
8
  6
BYLAYER
 62
  256
370
   -1
100
AcDbPolyline
 90
    2
 70
    0
 43
0
 10
796.4488024169226
 20
12.78983735534501
 10
803.9968754910667
 20
455.425485030572
  0
LWPOLYLINE
  5
4E
100
AcDbEntity
  8
8
  6
BYLAYER
 62
  256
370
   -1
100
AcDbPolyline
 90
    2
 70
    0
 43
0
 10
738.1237869679865
 20
17.68499546120309
 10
745.538869371296
 20
452.5217769700266
  0
LWPOLYLINE
  5
4F
100
AcDbEntity
  8
8
  6
BYLAYER
 62
  256
370
   -1
100
AcDbPolyline
 90
    2
 70
    0
 43
0
 10
659.3739718712958
 20
33.02991716960738
 10
666.3116518664824
 20
439.8707688503162
  0
LWPOLYLINE
  5
50
100
AcDbEntity
  8
8
  6
BYLAYER
 62
  256
370
   -1
100
AcDbPolyline
 90
    2
 70
    0
 43
0
 10
627.1191023906102
 20
47.68199534247927
 10
633.5759699604733
 20
426.3269462677298
  0
LWPOLYLINE
  5
51
100
AcDbEntity
  8
8
  6
BYLAYER
 62
  256
370
   -1
100
AcDbPolyline
 90
    2
 70
    0
 43
0
 10
573.1103946276833
 20
76.95710398068458
 10
578.6005223210972
 20
398.9102970040029
  0
LWPOLYLINE
  5
52
100
AcDbEntity
  8
8
  6
BYLAYER
 62
  256
370
   -1
100
AcDbPolyline
 90
    2
 70
    0
 43
0
 10
449.3282654792859
 20
61.46534799598344
 10
455.4185562000544
 20
418.6134242317887
  0
LWPOLYLINE
  5
53
100
AcDbEntity
  8
8
  6
BYLAYER
 62
  256
370
   -1
100
AcDbPolyline
 90
    2
 70
    0
 43
0
 10
391.9834892833858
 20
24.1376552861185
 10
399.3798165920907
 20
457.8745966945517
  0
LWPOLYLINE
  5
54
100
AcDbEntity
  8
8
  6
BYLAYER
 62
  256
370
   -1
100
AcDbPolyline
 90
    2
 70
    0
 43
0
 10
356.5508824937993
 20
28.39240276329647
 10
363.8227441746722
 20
454.8304053236854
  0
LWPOLYLINE
  5
55
100
AcDbEntity
  8
8
  6
BYLAYER
 62
  256
370
   -1
100
AcDbPolyline
 90
    2
 70
    0
 43
0
 10
408.2821284203755
 20
322.689970890116
 10
166.5912074972798
 20
308.6219666483667
  0
LWPOLYLINE
  5
56
100
AcDbEntity
  8
8
  6
BYLAYER
 62
  256
370
   -1
100
AcDbPolyline
 90
    2
 70
    0
 43
0
 10
164.4190265403203
 20
181.2404859304451
 10
405.4897741053031
 20
158.9401570436249
  0
LINE
  5
57
100
AcDbEntity
  8
7
  6
BYLAYER
 62
  256
370
   -1
100
AcDbLine
 10
219.6572441434674
 20
244.0077936314081
 11
824.3193356989073
 21
233.6967541202527
  0
ENDBLK
  5
3F
330
3D
100
AcDbEntity
  8
0
100
AcDbBlockEnd
  0
ENDSEC
  0
SECTION
  2
ENTITIES
  0
INSERT
  5
58
100
AcDbEntity
  8
1
  6
BYLAYER
 62
  256
370
   -1
100
AcDbBlockReference
  2
Bk Trace
 10
0
 20
0
 30
0
 41
1
 42
1
 43
1
 50
0
 70
    1
 71
    1
 44
0
 45
0
  0
INSERT
  5
59
100
AcDbEntity
  8
1
  6
BYLAYER
 62
  256
370
   -1
100
AcDbBlockReference
  2
Fr Trace
 10
0
 20
0
 30
0
 41
1
 42
1
 43
1
 50
0
 70
    1
 71
    1
 44
0
 45
0
  0
ENDSEC
  0
SECTION
  2
OBJECTS
  0
DICTIONARY
  5
C
330
0
100
AcDbDictionary
281
    1
  3
ACAD_GROUP
350
D
  0
DICTIONARY
  5
D
330
C
100
AcDbDictionary
281
    1
  0
ENDSEC
  0
EOF
